<svg width="549" height="528" viewBox="0 0 549 528" fill="none" xmlns="http://www.w3.org/2000/svg">
<path d="M368.898 8.03418V333.484L536.088 430.102V104.651L368.898 8.03418Z" fill="url(#paint0_linear_388_4274)"/>
<path style="mix-blend-mode:multiply" d="M0 564L395.03 348.587L381.234 30.4463L210.992 107.846L0 564Z" fill="url(#paint1_linear_388_4274)"/>
<path d="M548.999 438.175L536.09 445.687V104.651L548.999 97.1387V438.175Z" fill="url(#paint2_linear_388_4274)"/>
<path d="M394.577 348.899L381.668 356.412V15.3757L394.577 7.87891V348.899Z" fill="url(#paint3_linear_388_4274)"/>
<path d="M381.948 0.552734L369.039 8.06516L536.089 104.651L548.997 97.1388L381.948 0.552734Z" fill="url(#paint4_linear_388_4274)"/>
<path d="M368.898 8.03418V349.07L381.683 356.458V30.1195L523.289 111.946V438.3L536.088 445.687V104.651L368.898 8.03418Z" fill="url(#paint5_linear_388_4274)"/>
<path d="M250.516 119.162V438.035L392.9 355.882V37.0088L250.516 119.162Z" fill="url(#paint6_linear_388_4274)"/>
<path d="M265.293 127.703L378.139 62.6006V78.6385L265.293 143.741V127.703Z" fill="url(#paint7_linear_388_4274)"/>
<path d="M375.227 64.2683V76.9552L378.138 78.6385V62.6006L375.227 64.2683Z" fill="url(#paint8_linear_388_4274)"/>
<path style="mix-blend-mode:screen" opacity="0.5" d="M375.227 76.9551L265.293 140.39V143.741L378.139 78.6384L375.227 76.9551Z" fill="url(#paint9_linear_388_4274)"/>
<path d="M265.293 181.833L378.139 116.73V132.768L265.293 197.871V181.833Z" fill="url(#paint10_linear_388_4274)"/>
<path d="M375.227 118.398V131.101L378.138 132.768V116.73L375.227 118.398Z" fill="url(#paint11_linear_388_4274)"/>
<path style="mix-blend-mode:screen" opacity="0.5" d="M375.227 131.101L265.293 194.535V197.871L378.139 132.768L375.227 131.101Z" fill="url(#paint12_linear_388_4274)"/>
<path d="M265.293 235.978L378.139 170.86V186.898L265.293 252.016V235.978Z" fill="url(#paint13_linear_388_4274)"/>
<path d="M375.227 172.528V185.231L378.138 186.898V170.86L375.227 172.528Z" fill="url(#paint14_linear_388_4274)"/>
<path style="mix-blend-mode:screen" opacity="0.5" d="M375.227 185.23L265.293 248.665V252.016L378.139 186.898L375.227 185.23Z" fill="url(#paint15_linear_388_4274)"/>
<path d="M265.293 290.109L378.139 224.991V241.029L265.293 306.147V290.109Z" fill="url(#paint16_linear_388_4274)"/>
<path d="M375.227 226.674V239.361L378.138 241.029V224.991L375.227 226.674Z" fill="url(#paint17_linear_388_4274)"/>
<path style="mix-blend-mode:screen" opacity="0.5" d="M375.227 239.361L265.293 302.796V306.147L378.139 241.029L375.227 239.361Z" fill="url(#paint18_linear_388_4274)"/>
<path d="M265.293 344.238L378.139 279.136V295.174L265.293 360.276V344.238Z" fill="url(#paint19_linear_388_4274)"/>
<path d="M375.227 280.803V293.49L378.138 295.174V279.136L375.227 280.803Z" fill="url(#paint20_linear_388_4274)"/>
<path style="mix-blend-mode:screen" opacity="0.5" d="M375.227 293.49L265.293 356.925V360.276L378.139 295.174L375.227 293.49Z" fill="url(#paint21_linear_388_4274)"/>
<path d="M265.293 398.369L378.139 333.267V349.305L265.293 414.407V398.369Z" fill="url(#paint22_linear_388_4274)"/>
<path d="M375.227 334.934V347.637L378.138 349.305V333.267L375.227 334.934Z" fill="url(#paint23_linear_388_4274)"/>
<path style="mix-blend-mode:screen" opacity="0.5" d="M375.227 347.637L265.293 411.072V414.407L378.139 349.304L375.227 347.637Z" fill="url(#paint24_linear_388_4274)"/>
<path d="M250.54 119.162V438.035L239.578 431.66V112.818L250.54 119.162Z" fill="url(#paint25_linear_388_4274)"/>
<path d="M239.578 112.818L250.54 119.162L392.894 37.0084L381.869 30.6338L239.578 112.818Z" fill="url(#paint26_linear_388_4274)"/>
<path d="M255.34 265.873V296.593L264.698 291.138V260.418L255.34 265.873Z" fill="url(#paint27_linear_388_4274)"/>
<path d="M255.355 265.872V296.592L253.953 295.781V265.062L255.355 265.872Z" fill="url(#paint28_linear_388_4274)"/>
<path d="M253.953 265.062L255.355 265.872L264.697 260.417L263.296 259.606L253.953 265.062Z" fill="url(#paint29_linear_388_4274)"/>
<path style="mix-blend-mode:multiply" d="M262.128 283.936C262.128 282.767 261.303 282.377 260.291 282.891C259.767 283.235 259.33 283.695 259.014 284.236C258.697 284.776 258.511 285.383 258.469 286.009C258.469 286.928 258.983 287.396 259.699 287.271V290.638L260.882 289.952V286.585C261.612 285.887 262.056 284.943 262.128 283.936V283.936Z" fill="url(#paint30_linear_388_4274)"/>
<path d="M259.745 274.974C262.859 275.068 271.688 271.265 275.316 267.649C278.726 264.282 279.006 260.713 279.863 262.038C280.719 263.363 277.449 270.751 273.074 273.712C266.736 277.998 261.816 279.198 259.947 279.058C257.315 278.855 257.642 274.865 259.745 274.974Z" fill="url(#paint31_linear_388_4274)"/>
<path style="mix-blend-mode:multiply" d="M279.925 262.038C279.754 261.773 279.614 261.711 279.458 261.789C279.552 263.94 276.5 270.237 272.545 272.917C266.207 277.219 261.286 278.404 259.418 278.263C258.999 278.247 258.596 278.1 258.266 277.843C258.406 278.194 258.645 278.496 258.955 278.712C259.265 278.928 259.632 279.049 260.01 279.058C261.878 279.199 266.799 277.998 273.136 273.712C277.512 270.751 280.782 263.348 279.925 262.038Z" fill="url(#paint32_linear_388_4274)"/>
<defs>
<linearGradient id="paint0_linear_388_4274" x1="557.359" y1="219.068" x2="384.143" y2="219.068" gradientUnits="userSpaceOnUse">
<stop offset="0.04" stop-color="#138BBD"/>
<stop offset="0.23" stop-color="#169AC7"/>
<stop offset="0.59" stop-color="#1FC3DF"/>
<stop offset="1" stop-color="#2AF6FF"/>
</linearGradient>
<linearGradient id="paint1_linear_388_4274" x1="437.711" y1="397.932" x2="205.605" y2="303.508" gradientUnits="userSpaceOnUse">
<stop stop-color="#7C1DC9"/>
<stop offset="0.25" stop-color="#45108A"/>
<stop offset="0.52" stop-color="#A9A9A9"/>
<stop offset="0.74" stop-color="#F0D9DA" stop-opacity="0.76"/>
<stop offset="0.91" stop-color="#FDF2F3" stop-opacity="0"/>
<stop offset="1" stop-color="white" stop-opacity="0"/>
</linearGradient>
<linearGradient id="paint2_linear_388_4274" x1="531.872" y1="283.143" x2="577.938" y2="282.539" gradientUnits="userSpaceOnUse">
<stop offset="0.1" stop-color="#45108A"/>
<stop offset="1" stop-color="#7C1DC9"/>
</linearGradient>
<linearGradient id="paint3_linear_388_4274" x1="387.036" y1="212.415" x2="418.528" y2="212.002" gradientUnits="userSpaceOnUse">
<stop offset="0.1" stop-color="#45108A"/>
<stop offset="1" stop-color="#7C1DC9"/>
</linearGradient>
<linearGradient id="paint4_linear_388_4274" x1="522.547" y1="-2886.97" x2="157.408" y2="-2855.16" gradientUnits="userSpaceOnUse">
<stop offset="0.1" stop-color="#45108A"/>
<stop offset="1" stop-color="#7C1DC9"/>
</linearGradient>
<linearGradient id="paint5_linear_388_4274" x1="110.412" y1="130.203" x2="767.71" y2="28.7302" gradientUnits="userSpaceOnUse">
<stop offset="0.1" stop-color="#45108A"/>
<stop offset="1" stop-color="#7C1DC9"/>
</linearGradient>
<linearGradient id="paint6_linear_388_4274" x1="-4.51235" y1="160.481" x2="355.222" y2="245.274" gradientUnits="userSpaceOnUse">
<stop offset="0.1" stop-color="#45108A"/>
<stop offset="0.96" stop-color="#7A1CC7"/>
<stop offset="1" stop-color="#7C1DC9"/>
</linearGradient>
<linearGradient id="paint7_linear_388_4274" x1="217.177" y1="16.4039" x2="384.432" y2="154.965" gradientUnits="userSpaceOnUse">
<stop offset="0.1" stop-color="#45108A"/>
<stop offset="1" stop-color="#7C1DC9"/>
</linearGradient>
<linearGradient id="paint8_linear_388_4274" x1="365.027" y1="73.5575" x2="384.12" y2="69.279" gradientUnits="userSpaceOnUse">
<stop offset="0.1" stop-color="#45108A"/>
<stop offset="1" stop-color="#7C1DC9"/>
</linearGradient>
<linearGradient id="paint9_linear_388_4274" x1="312.085" y1="93.8347" x2="321.831" y2="111.361" gradientUnits="userSpaceOnUse">
<stop offset="0.1" stop-color="#45108A"/>
<stop offset="1" stop-color="#7C1DC9"/>
</linearGradient>
<linearGradient id="paint10_linear_388_4274" x1="215.714" y1="75.0848" x2="388.381" y2="208.765" gradientUnits="userSpaceOnUse">
<stop offset="0.1" stop-color="#45108A"/>
<stop offset="1" stop-color="#7C1DC9"/>
</linearGradient>
<linearGradient id="paint11_linear_388_4274" x1="364.84" y1="127.734" x2="383.917" y2="123.456" gradientUnits="userSpaceOnUse">
<stop offset="0.1" stop-color="#45108A"/>
<stop offset="1" stop-color="#7C1DC9"/>
</linearGradient>
<linearGradient id="paint12_linear_388_4274" x1="315.371" y1="154.355" x2="321.374" y2="164.73" gradientUnits="userSpaceOnUse">
<stop offset="0.1" stop-color="#45108A"/>
<stop offset="1" stop-color="#7C1DC9"/>
</linearGradient>
<linearGradient id="paint13_linear_388_4274" x1="215.558" y1="134.592" x2="392.048" y2="262.115" gradientUnits="userSpaceOnUse">
<stop offset="0.1" stop-color="#45108A"/>
<stop offset="1" stop-color="#7C1DC9"/>
</linearGradient>
<linearGradient id="paint14_linear_388_4274" x1="364.654" y1="181.911" x2="383.73" y2="177.632" gradientUnits="userSpaceOnUse">
<stop offset="0.1" stop-color="#45108A"/>
<stop offset="1" stop-color="#7C1DC9"/>
</linearGradient>
<linearGradient id="paint15_linear_388_4274" x1="311.306" y1="202.141" x2="321.426" y2="218.966" gradientUnits="userSpaceOnUse">
<stop offset="0.1" stop-color="#45108A"/>
<stop offset="1" stop-color="#7C1DC9"/>
</linearGradient>
<linearGradient id="paint16_linear_388_4274" x1="216.804" y1="194.786" x2="395.434" y2="315.079" gradientUnits="userSpaceOnUse">
<stop offset="0.1" stop-color="#45108A"/>
<stop offset="1" stop-color="#7C1DC9"/>
</linearGradient>
<linearGradient id="paint17_linear_388_4274" x1="364.467" y1="236.088" x2="383.543" y2="231.81" gradientUnits="userSpaceOnUse">
<stop offset="0.1" stop-color="#45108A"/>
<stop offset="1" stop-color="#7C1DC9"/>
</linearGradient>
<linearGradient id="paint18_linear_388_4274" x1="307.242" y1="250.443" x2="321.291" y2="272.875" gradientUnits="userSpaceOnUse">
<stop offset="0.1" stop-color="#45108A"/>
<stop offset="1" stop-color="#7C1DC9"/>
</linearGradient>
<linearGradient id="paint19_linear_388_4274" x1="219.466" y1="255.539" x2="398.491" y2="367.685" gradientUnits="userSpaceOnUse">
<stop offset="0.1" stop-color="#45108A"/>
<stop offset="1" stop-color="#7C1DC9"/>
</linearGradient>
<linearGradient id="paint20_linear_388_4274" x1="364.28" y1="290.264" x2="383.357" y2="285.986" gradientUnits="userSpaceOnUse">
<stop offset="0.1" stop-color="#45108A"/>
<stop offset="1" stop-color="#7C1DC9"/>
</linearGradient>
<linearGradient id="paint21_linear_388_4274" x1="303.24" y1="299.273" x2="320.937" y2="326.471" gradientUnits="userSpaceOnUse">
<stop offset="0.1" stop-color="#45108A"/>
<stop offset="1" stop-color="#7C1DC9"/>
</linearGradient>
<linearGradient id="paint22_linear_388_4274" x1="223.593" y1="316.699" x2="401.19" y2="419.936" gradientUnits="userSpaceOnUse">
<stop offset="0.1" stop-color="#45108A"/>
<stop offset="1" stop-color="#7C1DC9"/>
</linearGradient>
<linearGradient id="paint23_linear_388_4274" x1="364.077" y1="344.442" x2="383.17" y2="340.163" gradientUnits="userSpaceOnUse">
<stop offset="0.1" stop-color="#45108A"/>
<stop offset="1" stop-color="#7C1DC9"/>
</linearGradient>
<linearGradient id="paint24_linear_388_4274" x1="299.301" y1="348.619" x2="320.349" y2="379.772" gradientUnits="userSpaceOnUse">
<stop offset="0.1" stop-color="#45108A"/>
<stop offset="1" stop-color="#7C1DC9"/>
</linearGradient>
<linearGradient id="paint25_linear_388_4274" x1="250.867" y1="276.143" x2="148.872" y2="263.698" gradientUnits="userSpaceOnUse">
<stop offset="0.1" stop-color="#45108A"/>
<stop offset="1" stop-color="#7C1DC9"/>
</linearGradient>
<linearGradient id="paint26_linear_388_4274" x1="260.849" y1="4.29355" x2="366.077" y2="138.237" gradientUnits="userSpaceOnUse">
<stop offset="0.1" stop-color="#45108A"/>
<stop offset="1" stop-color="#7C1DC9"/>
</linearGradient>
<linearGradient id="paint27_linear_388_4274" x1="236.452" y1="285.574" x2="271.991" y2="274.947" gradientUnits="userSpaceOnUse">
<stop offset="0.04" stop-color="#9D9EB3"/>
<stop offset="0.58" stop-color="#D4D1D8"/>
<stop offset="1" stop-color="#EEEBF2"/>
</linearGradient>
<linearGradient id="paint28_linear_388_4274" x1="254.685" y1="280.819" x2="279.929" y2="275.171" gradientUnits="userSpaceOnUse">
<stop offset="0.04" stop-color="#9D9EB3"/>
<stop offset="0.58" stop-color="#D4D1D8"/>
<stop offset="1" stop-color="#EEEBF2"/>
</linearGradient>
<linearGradient id="paint29_linear_388_4274" x1="247.693" y1="260.526" x2="273.653" y2="265.458" gradientUnits="userSpaceOnUse">
<stop offset="0.04" stop-color="#9D9EB3"/>
<stop offset="0.58" stop-color="#D4D1D8"/>
<stop offset="1" stop-color="#EEEBF2"/>
</linearGradient>
<linearGradient id="paint30_linear_388_4274" x1="254.342" y1="288.004" x2="267.532" y2="285.048" gradientUnits="userSpaceOnUse">
<stop offset="0.04" stop-color="#9D9EB3"/>
<stop offset="0.58" stop-color="#D4D1D8"/>
<stop offset="1" stop-color="#EEEBF2"/>
</linearGradient>
<linearGradient id="paint31_linear_388_4274" x1="231.483" y1="279.136" x2="310.359" y2="261.462" gradientUnits="userSpaceOnUse">
<stop offset="0.04" stop-color="#9D9EB3"/>
<stop offset="0.58" stop-color="#D4D1D8"/>
<stop offset="1" stop-color="#EEEBF2"/>
</linearGradient>
<linearGradient id="paint32_linear_388_4274" x1="231.561" y1="279.121" x2="310.312" y2="261.478" gradientUnits="userSpaceOnUse">
<stop offset="0.04" stop-color="#9D9EB3"/>
<stop offset="0.58" stop-color="#D4D1D8"/>
<stop offset="1" stop-color="#EEEBF2"/>
</linearGradient>
</defs>
</svg>
