<svg width="154" height="91" viewBox="0 0 154 91" fill="none" xmlns="http://www.w3.org/2000/svg">
<path d="M49.6776 29.7291H49.4361C45.2866 29.6274 41.334 27.0538 38.5889 22.6056L33.6005 14.5925C32.6092 12.9975 31.4527 12.1205 30.3279 12.1205C29.2031 12.1205 28.053 12.9975 27.0617 14.5925L22.0733 22.6056C19.3218 27.0538 15.3692 29.5956 11.226 29.7037H10.7494C6.59988 29.6274 2.64733 27.0538 -0.097847 22.6056L-5.0862 14.5925C-6.07751 12.9975 -7.25947 12.1205 -8.35881 12.1205C-9.45815 12.1205 -10.6338 12.9975 -11.6251 14.5925L-16.6134 22.6056C-19.3332 27.0538 -23.3175 29.6274 -27.4607 29.7227H-27.9373C-32.0868 29.6338 -36.0394 27.0538 -38.7846 22.6056L-43.7729 14.5925C-44.7515 12.9975 -45.9271 12.1205 -47.0455 12.1205C-48.1639 12.1205 -49.3268 12.9975 -50.3118 14.5925L-58.2741 27.4097C-59.8246 29.9007 -62.8303 30.4726 -64.9845 28.6806C-66.0454 27.7196 -66.7367 26.4179 -66.9387 25.0008C-67.1406 23.5837 -66.8404 22.1407 -66.0902 20.9216L-58.0962 8.10443C-55.3256 3.58632 -51.284 1 -47.0455 1C-42.807 1 -38.7846 3.58632 -35.9568 8.10443L-30.9684 16.1366C-29.9962 17.7062 -28.846 18.5831 -27.7467 18.6022H-27.6577C-26.552 18.6022 -25.4082 17.7062 -24.4296 16.1366L-19.4412 8.10443C-16.6388 3.58632 -12.5973 1 -8.35881 1C-4.1203 1 -0.097847 3.58632 2.72994 8.10443L7.71829 16.1366C8.6969 17.7062 9.84073 18.5831 10.9464 18.6022H11.029C12.1347 18.6022 13.2786 17.7062 14.2572 16.1366L19.2455 8.10443C22.0479 3.59267 26.0894 1 30.3279 1C34.5664 1 38.5889 3.58632 41.4167 8.10443L46.405 16.1366C47.3836 17.7062 48.5274 18.5831 49.6331 18.6022H49.7221C50.8214 18.6022 51.9716 17.7062 52.9439 16.1366L57.9322 8.10443C60.7346 3.58632 64.7761 1 68.9956 1C73.215 1 77.2565 3.58632 80.078 8.10443L88.0593 20.9216C88.8091 22.1403 89.1096 23.5826 88.9088 24.9993C88.7081 26.4161 88.0188 27.7181 86.96 28.6806C84.7994 30.4726 81.7937 29.9007 80.2432 27.4097L72.2872 14.5925C71.2959 12.9975 70.1394 12.1205 69.021 12.1205C67.9026 12.1205 66.7397 12.9975 65.7484 14.5925L60.7346 22.6056C57.9894 27.0538 54.0369 29.5956 49.8873 29.7037L49.6776 29.7291Z" fill="#8E94DD" stroke="#231F20" stroke-width="2" stroke-miterlimit="10"/>
<g clip-path="url(#clip0_753_386)">
<path d="M106.858 90.2585H106.577C101.735 90.1399 97.1241 87.1373 93.9214 81.9477L88.1017 72.5991C86.9451 70.7382 85.5958 69.7152 84.2836 69.7152C82.9714 69.7152 81.6295 70.7382 80.473 72.5991L74.6532 81.9477C71.4431 87.1373 66.8318 90.1028 61.9981 90.2288H61.442C56.6009 90.1399 51.9896 87.1373 48.7869 81.9477L42.9671 72.5991C41.8106 70.7382 40.4317 69.7152 39.1491 69.7152C37.8665 69.7152 36.495 70.7382 35.3385 72.5991L29.5187 81.9477C26.3457 87.1373 21.6973 90.1399 16.8636 90.2511H16.3075C11.4664 90.1473 6.85509 87.1373 3.65238 81.9477L-2.16736 72.5991C-3.30907 70.7382 -4.6806 69.7152 -5.98541 69.7152C-7.29022 69.7152 -8.64692 70.7382 -9.79604 72.5991L-19.0854 87.5525C-20.8943 90.4586 -24.401 91.1259 -26.9142 89.0352C-28.1519 87.9141 -28.9585 86.3954 -29.1941 84.7421C-29.4297 83.0889 -29.0795 81.4053 -28.2042 79.9831L-18.8778 65.0297C-15.6454 59.7586 -10.9303 56.7412 -5.98541 56.7412C-1.04048 56.7412 3.65238 59.7586 6.95147 65.0297L12.7712 74.4006C13.9055 76.2318 15.2474 77.2549 16.5299 77.2771H16.6337C17.9237 77.2771 19.2582 76.2318 20.3999 74.4006L26.2196 65.0297C29.4891 59.7586 34.2042 56.7412 39.1491 56.7412C44.094 56.7412 48.7869 59.7586 52.086 65.0297L57.9057 74.4006C59.0474 76.2318 60.3819 77.2549 61.6719 77.2771H61.7682C63.0582 77.2771 64.3927 76.2318 65.5344 74.4006L71.3541 65.0297C74.6236 59.766 79.3387 56.7412 84.2836 56.7412C89.2285 56.7412 93.9214 59.7586 97.2205 65.0297L103.04 74.4006C104.182 76.2318 105.516 77.2549 106.806 77.2771H106.91C108.193 77.2771 109.535 76.2318 110.669 74.4006L116.489 65.0297C119.758 59.7586 124.473 56.7412 129.396 56.7412C134.319 56.7412 139.034 59.7586 142.325 65.0297L151.637 79.9831C152.512 81.4049 152.862 83.0876 152.628 84.7405C152.394 86.3933 151.59 87.9124 150.354 89.0352C147.834 91.1259 144.327 90.4586 142.518 87.5525L133.236 72.5991C132.08 70.7382 130.73 69.7152 129.426 69.7152C128.121 69.7152 126.764 70.7382 125.607 72.5991L119.758 81.9477C116.555 87.1373 111.944 90.1028 107.103 90.2288L106.858 90.2585Z" fill="#8E94DD" stroke="#231F20" stroke-width="2" stroke-miterlimit="10"/>
</g>
<defs>
<clipPath id="clip0_753_386">
<rect width="183.437" height="35" fill="white" transform="translate(-30 56)"/>
</clipPath>
</defs>
</svg>
