<svg width="89" height="108" viewBox="0 0 89 108" fill="none" xmlns="http://www.w3.org/2000/svg">
<path d="M53.5 9C53.5 5.96243 51.0376 3.5 48 3.5C44.9624 3.5 42.5 5.96243 42.5 9L53.5 9ZM44.1109 105.889C46.2588 108.037 49.7412 108.037 51.8891 105.889L86.8909 70.8873C89.0388 68.7394 89.0388 65.257 86.8909 63.1091C84.743 60.9612 81.2606 60.9612 79.1127 63.1091L48 94.2218L16.8873 63.1091C14.7394 60.9612 11.257 60.9612 9.10913 63.1091C6.96124 65.257 6.96124 68.7394 9.10913 70.8873L44.1109 105.889ZM42.5 9L42.5 102H53.5L53.5 9L42.5 9Z" fill="#8E94DD"/>
<path d="M46.5 6C46.5 2.96243 44.0376 0.5 41 0.5C37.9624 0.5 35.5 2.96243 35.5 6L46.5 6ZM37.1109 102.889C39.2588 105.037 42.7412 105.037 44.8891 102.889L79.8909 67.8873C82.0388 65.7394 82.0388 62.257 79.8909 60.1091C77.743 57.9612 74.2606 57.9612 72.1127 60.1091L41 91.2218L9.8873 60.1091C7.73942 57.9612 4.25701 57.9612 2.10913 60.1091C-0.0387573 62.257 -0.0387573 65.7394 2.10913 67.8873L37.1109 102.889ZM35.5 6L35.5 99H46.5L46.5 6L35.5 6Z" fill="#CE6256"/>
</svg>
