<svg width="126" height="120" viewBox="0 0 126 120" fill="none" xmlns="http://www.w3.org/2000/svg">
<g clip-path="url(#clip0_360_4444)">
<path d="M105.695 119.195H96.1289V12.3839C96.1289 11.1153 96.6329 9.89862 97.5299 9.00158C98.4269 8.10454 99.6436 7.60059 100.912 7.60059C102.181 7.60059 103.397 8.10454 104.294 9.00158C105.192 9.89862 105.695 11.1153 105.695 12.3839V119.195Z" fill="#C9C6C6"/>
<path d="M100.912 7.60059C99.6436 7.60059 98.4269 8.10454 97.5299 9.00158C96.6329 9.89862 96.1289 11.1153 96.1289 12.3839V119.195H100.912V7.60059Z" fill="#B4B3B3"/>
<path d="M29.8595 119.195H20.293V12.3839C20.293 11.1153 20.7969 9.89862 21.694 9.00158C22.591 8.10454 23.8076 7.60059 25.0763 7.60059C26.3449 7.60059 27.5615 8.10454 28.4585 9.00158C29.3556 9.89862 29.8595 11.1153 29.8595 12.3839V119.195Z" fill="#C9C6C6"/>
<path d="M25.0763 7.60059C23.8076 7.60059 22.591 8.10454 21.694 9.00158C20.7969 9.89862 20.293 11.1153 20.293 12.3839V119.195H25.0763V7.60059Z" fill="#B4B3B3"/>
<path d="M105.695 119.195H96.1289V12.3839C96.1289 11.1153 96.6329 9.89862 97.5299 9.00158C98.4269 8.10454 99.6436 7.60059 100.912 7.60059V7.60059C102.181 7.60059 103.397 8.10454 104.294 9.00158C105.192 9.89862 105.695 11.1153 105.695 12.3839V119.195Z" stroke="#1D1D1B" stroke-width="2" stroke-miterlimit="10"/>
<path d="M100.912 7.60059C99.6436 7.60059 98.4269 8.10454 97.5299 9.00158C96.6329 9.89862 96.1289 11.1153 96.1289 12.3839V119.195H100.912V7.60059Z" stroke="#1D1D1B" stroke-width="2" stroke-miterlimit="10"/>
<path d="M29.8595 119.195H20.293V12.3839C20.293 11.1153 20.7969 9.89862 21.694 9.00158C22.591 8.10454 23.8076 7.60059 25.0763 7.60059V7.60059C26.3449 7.60059 27.5615 8.10454 28.4585 9.00158C29.3556 9.89862 29.8595 11.1153 29.8595 12.3839V119.195Z" stroke="#1D1D1B" stroke-width="2" stroke-miterlimit="10"/>
<path d="M25.0763 7.60059C23.8076 7.60059 22.591 8.10454 21.694 9.00158C20.7969 9.89862 20.293 11.1153 20.293 12.3839V119.195H25.0763V7.60059Z" stroke="#1D1D1B" stroke-width="2" stroke-miterlimit="10"/>
<path d="M125.03 20.9912H0.951172V42.6785H125.03V20.9912Z" fill="#EFDC70"/>
<path d="M8.84591 20.9912L0.951172 28.8859V42.6785H4.04715L25.7345 20.9912H8.84591Z" fill="#454444"/>
<path d="M31.246 42.6785L52.9333 20.9912H36.0447L14.3574 42.6785H31.246Z" fill="#454444"/>
<path d="M58.4432 42.6785L80.1305 20.9912H63.242L41.5547 42.6785H58.4432Z" fill="#454444"/>
<path d="M85.6425 42.6785L107.33 20.9912H90.4412L68.7539 42.6785H85.6425Z" fill="#454444"/>
<path d="M112.84 42.6785L125.038 30.4881V20.9912H117.638L95.9512 42.6785H112.84Z" fill="#454444"/>
<path d="M125.03 53.9707H0.951172V75.658H125.03V53.9707Z" fill="#EFDC70"/>
<path d="M8.84591 53.9707L0.951172 61.8654V75.658H4.04715L25.7345 53.9707H8.84591Z" fill="#454444"/>
<path d="M31.246 75.658L52.9333 53.9707H36.0447L14.3574 75.658H31.246Z" fill="#454444"/>
<path d="M58.4432 75.658L80.1305 53.9707H63.242L41.5547 75.658H58.4432Z" fill="#454444"/>
<path d="M85.6425 75.658L107.33 53.9707H90.4412L68.7539 75.658H85.6425Z" fill="#454444"/>
<path d="M112.84 75.658L125.038 63.4676V53.9707H117.638L95.9512 75.658H112.84Z" fill="#454444"/>
<path d="M10.4485 15.418H7.24414V20.9985H10.4485V15.418Z" stroke="#1D1D1B" stroke-width="2" stroke-miterlimit="10"/>
<path d="M13.6528 15.418H7.24414V20.9985H13.6528V15.418Z" fill="#C9C6C6"/>
<path d="M10.4485 15.418H7.24414V20.9985H10.4485V15.418Z" fill="#B4B3B3"/>
<path d="M13.6528 15.418H7.24414V20.9985H13.6528V15.418Z" stroke="#1D1D1B" stroke-width="2" stroke-miterlimit="10"/>
<path d="M18.9895 10.0765C19.775 5.36242 16.5902 0.904154 11.8761 0.118673C7.16208 -0.666809 2.70381 2.51794 1.91833 7.23201C1.13285 11.9461 4.3176 16.4043 9.03167 17.1898C13.7457 17.9753 18.204 14.7906 18.9895 10.0765Z" fill="#454444"/>
<path d="M3.61524 8.65363C3.61371 7.30159 4.01323 5.97948 4.76327 4.85456C5.51331 3.72963 6.58016 2.85245 7.82884 2.33399C9.07752 1.81552 10.4519 1.67907 11.7782 1.9419C13.1044 2.20474 14.3229 2.85503 15.2795 3.81053C16.2361 4.76602 16.8877 5.98378 17.1521 7.30972C17.4164 8.63567 17.2815 10.0102 16.7645 11.2595C16.2474 12.5088 15.3714 13.5766 14.2474 14.3279C13.1233 15.0792 11.8016 15.4803 10.4496 15.4803C8.63836 15.4803 6.90118 14.7613 5.61971 13.4813C4.33824 12.2012 3.61729 10.4649 3.61524 8.65363Z" fill="#F08819"/>
<path opacity="0.3" d="M10.4491 1.81934C9.06767 1.81866 7.71851 2.23712 6.5799 3.01943C5.44129 3.80174 4.56682 4.91109 4.07203 6.2009C3.57724 7.49072 3.48541 8.90029 3.80867 10.2434C4.13194 11.5865 4.85508 12.7999 5.88256 13.7234L15.5188 4.0794C14.8801 3.3675 14.0985 2.79827 13.2249 2.40884C12.3514 2.01942 11.4055 1.81855 10.4491 1.81934Z" fill="white"/>
<path d="M119.59 15.418H113.182V20.9985H119.59V15.418Z" fill="#C9C6C6"/>
<path d="M116.386 15.418H113.182V20.9985H116.386V15.418Z" fill="#B4B3B3"/>
<path d="M116.386 15.418H113.182V20.9985H116.386V15.418Z" stroke="#1D1D1B" stroke-width="2" stroke-miterlimit="10"/>
<path d="M119.59 15.418H113.182V20.9985H119.59V15.418Z" stroke="#1D1D1B" stroke-width="2" stroke-miterlimit="10"/>
<path d="M122.946 14.2886C126.06 10.6638 125.646 5.20054 122.022 2.08602C118.397 -1.0285 112.934 -0.614834 109.819 3.00997C106.705 6.63477 107.118 12.0981 110.743 15.2126C114.368 18.3271 119.831 17.9134 122.946 14.2886Z" fill="#454444"/>
<path d="M109.551 8.65363C109.549 7.30159 109.949 5.97948 110.699 4.85456C111.449 3.72963 112.516 2.85245 113.764 2.33399C115.013 1.81552 116.387 1.67907 117.714 1.9419C119.04 2.20474 120.258 2.85503 121.215 3.81053C122.172 4.76602 122.823 5.98378 123.088 7.30972C123.352 8.63567 123.217 10.0102 122.7 11.2595C122.183 12.5088 121.307 13.5766 120.183 14.3279C119.059 15.0792 117.737 15.4803 116.385 15.4803C114.574 15.4803 112.837 14.7613 111.555 13.4813C110.274 12.2012 109.553 10.4649 109.551 8.65363Z" fill="#F08819"/>
<path opacity="0.3" d="M116.385 1.81934C115.002 1.8171 113.652 2.23442 112.512 3.01614C111.373 3.79786 110.497 4.90714 110.001 6.19729C109.505 7.48744 109.413 8.89768 109.736 10.2415C110.059 11.5854 110.782 12.7995 111.81 13.7234L121.454 4.07941C120.815 3.36827 120.033 2.79956 119.16 2.41019C118.286 2.02083 117.341 1.81952 116.385 1.81934Z" fill="white"/>
<path d="M124.852 21.0215H0.773438V42.7088H124.852V21.0215Z" stroke="#1D1D1B" stroke-width="2" stroke-miterlimit="10"/>
<path d="M124.852 54.002H0.773438V75.6893H124.852V54.002Z" stroke="#1D1D1B" stroke-width="2" stroke-miterlimit="10"/>
</g>
<defs>
<clipPath id="clip0_360_4444">
<rect width="125.627" height="120" fill="white"/>
</clipPath>
</defs>
</svg>
