<svg width="1512" height="673" viewBox="0 0 1512 673" fill="none" xmlns="http://www.w3.org/2000/svg">
<path d="M0.308594 82.3475C98.6206 70.3915 198.781 59.6161 299.991 48.9703C399.479 38.5386 485.372 21.2522 564.224 0.229492" stroke="#F0D9DA" stroke-miterlimit="10"/>
<path d="M0.308594 251.017C237.282 229.158 478.652 257.085 720.008 267.646C1028.02 280.598 1058.82 141.111 1154.03 64.8917C1183.05 41.8913 1217.77 19.6979 1261.07 0.229492" stroke="#F0D9DA" stroke-miterlimit="10"/>
<path d="M0.308594 143.941C135.078 131.028 274.258 122.266 416.126 116.203C567.332 109.727 694.737 81.3312 787.141 36.4961C812.342 24.3558 836.605 12.1955 860.798 0.229492" stroke="#F0D9DA" stroke-miterlimit="10"/>
<path d="M0.308594 583.196C26.1961 584.722 51.2554 587.677 74.5816 591.954C210.387 616.862 343.393 644.261 498.799 639.28C743.809 630.811 955.218 590.957 1159.63 538.65C1299.87 502.358 1409.28 460.577 1512.44 416.155" stroke="#F0D9DA" stroke-miterlimit="10"/>
<path d="M0.308594 353.361C174.868 323.471 393.207 325.678 549.131 372.76C613.534 392.188 661.136 417.595 743.739 425.067C882.345 438.02 992.949 399.163 1075.55 364.291C1242.16 293.551 1282.76 205.873 1376.56 123.676C1406.72 96.8783 1453.08 72.7723 1512.37 53.0703" stroke="#F0D9DA" stroke-miterlimit="10"/>
<path d="M1384.39 672.757C1427.17 663.72 1469.83 654.208 1512.37 644.222" stroke="#F0D9DA" stroke-miterlimit="10"/>
<path d="M119.271 0.229492C79.5845 6.36028 39.9302 12.4595 0.308594 18.5272" stroke="#F0D9DA" stroke-miterlimit="10"/>
<path d="M0.308594 406.63C34.4327 400.964 68.524 395.152 102.583 389.194C274.79 359.304 469.398 389.194 557.601 448.476C582.802 465.912 623.404 480.857 679.406 484.842C846.013 495.304 980.419 452.96 1088.22 413.106C1266.03 348.344 1344.43 265.15 1432.64 183.451C1453.05 164.267 1479.84 146.02 1512.44 129.101" stroke="#F0D9DA" stroke-miterlimit="10"/>
<path d="M0.308594 198.645C79.4538 191.984 160.699 188.283 243.989 188.437C474.998 188.437 781.611 208.862 906.216 116.701C958.41 77.8441 1008.18 36.7303 1073.26 0.229492" stroke="#F0D9DA" stroke-miterlimit="10"/>
<path d="M0.308594 635.947C5.90882 636.511 11.5091 637.124 17.1093 637.785C208.917 660.203 403.525 679.631 607.933 661.697C972.62 629.814 1259.53 556.723 1512.37 466.206" stroke="#F0D9DA" stroke-miterlimit="10"/>
<path d="M0.308594 497.526C55.6109 492.125 111.277 486.979 166.985 481.858C200.587 478.869 235.588 478.371 267.79 483.851C346.193 497.8 360.193 531.177 416.196 553.594C467.998 573.023 545.001 577.506 617.804 573.023C825.012 561.565 995.819 522.21 1148.43 472.891C1308.17 421.445 1408.05 360.131 1512.44 296.261" stroke="#F0D9DA" stroke-miterlimit="10"/>
<path d="M1183.64 672.757C1296.44 650.768 1405.49 626.034 1512.37 599.446" stroke="#F0D9DA" stroke-miterlimit="10"/>
<path d="M0.308594 301.327C246.327 274.257 506.163 305.851 738.209 345.36C963.618 383.221 1103.62 277.111 1165.23 211.353C1235.92 135.891 1277.79 48.7112 1470.44 0.229492" stroke="#F0D9DA" stroke-miterlimit="10"/>
<path d="M0.308594 538.106C23.1015 536.651 45.9925 535.338 68.9814 534.166C133.384 530.678 196.387 538.649 236.988 557.579C460.997 662.693 834.813 587.968 1077.02 527.689C1265.88 480.862 1391.14 422.476 1512.44 360.738" stroke="#F0D9DA" stroke-miterlimit="10"/>
<path d="M987.236 672.756C1176.16 641.237 1347.84 600.492 1512.37 554.904" stroke="#F0D9DA" stroke-miterlimit="10"/>
<path d="M0.308594 455.824C10.1557 454.545 19.9794 453.258 29.7798 451.963C126.384 439.011 229.988 412.608 334.992 431.538C424.596 447.978 446.997 483.348 504.399 511.245C550.601 533.165 626.204 538.644 699.007 533.165C1035.02 506.264 1250.63 408.124 1393.44 305.004C1433.8 276.08 1470.02 245.293 1512.44 216.195" stroke="#F0D9DA" stroke-miterlimit="10"/>
<path d="M775.129 672.756C1056.54 638.85 1293.75 580.63 1512.37 512.002" stroke="#F0D9DA" stroke-miterlimit="10"/>
<path d="M0.308594 113.667C121.414 100.839 246.355 90.3829 374.124 79.8367C488.929 69.8734 588.333 50.943 670.936 21.0529C690.411 14.2529 709.284 7.28853 727.764 0.229492" stroke="#F0D9DA" stroke-miterlimit="10"/>
<path d="M0.308594 275.796C229.792 254.484 475.67 272.568 693.407 306.005C890.815 336.393 1037.82 268.144 1095.22 208.364C1165.23 137.126 1204.99 54.0665 1357.96 0.229492" stroke="#F0D9DA" stroke-miterlimit="10"/>
<path d="M0.308594 170.757C3.58473 170.503 6.87486 170.259 10.179 170.005C187.986 156.555 355.993 157.053 531 150.577C764.432 141.4 865.04 65.2603 973.04 0.229492" stroke="#F0D9DA" stroke-miterlimit="10"/>
<path d="M0.308594 612.747C4.04208 613.112 7.77557 613.496 11.5091 613.898C196.317 633.824 369.924 665.707 572.932 650.264C964.178 620.917 1256.38 540.986 1512.37 442.453" stroke="#F0D9DA" stroke-miterlimit="10"/>
<path d="M0.308594 380.162C16.1759 377.392 32.0666 374.593 47.9805 371.763C250.989 335.397 479.198 361.302 612.204 430.049C742.409 495.807 960.818 440.51 1075.62 394.679C1253.43 322.943 1316.43 233.771 1411.64 148.584C1435.7 127.06 1469.77 107.131 1512.44 89.6357" stroke="#F0D9DA" stroke-miterlimit="10"/>
<path d="M1512.37 667.047C1503.91 668.953 1495.43 670.855 1486.92 672.751" stroke="#F0D9DA" stroke-miterlimit="10"/>
<path d="M0.308594 50.6541C120.84 34.9917 241.636 20.3654 355.783 0.229492" stroke="#F0D9DA" stroke-miterlimit="10"/>
<path d="M0.308594 431.454C56.6096 423.125 113.102 414.686 169.786 406.137C329.392 382.723 463.798 429.551 528.2 478.371C581.402 517.727 718.608 517.727 819.412 502.283C1184.83 445.492 1343.03 310.987 1490.04 188.936C1496.83 183.187 1504.29 177.541 1512.44 171.998" stroke="#F0D9DA" stroke-miterlimit="10"/>
<path d="M0.308594 224.918C203.317 209.166 403.217 218.078 608.003 228.291C764.81 236.76 904.816 206.87 966.418 156.056C1029.04 104.332 1079.33 46.8879 1166.92 0.229492" stroke="#F0D9DA" stroke-miterlimit="10"/>
<path d="M646.238 672.756C989.434 639.757 1263.66 570.941 1512.37 488.563" stroke="#F0D9DA" stroke-miterlimit="10"/>
<path d="M0.308594 659.609C62.6111 663.734 124.13 668.576 185.522 672.756" stroke="#F0D9DA" stroke-miterlimit="10"/>
<path d="M0.308594 517.537C40.5929 514.216 81.2179 511.124 122.184 508.261C172.586 504.774 225.788 507.265 259.389 521.213C323.792 547.118 361.593 583.484 467.998 588.964C711.608 601.418 924.416 553.096 1110.62 501.287C1284.41 452.904 1399.99 394.18 1512.44 330.913" stroke="#F0D9DA" stroke-miterlimit="10"/>
<path d="M1276.53 672.757C1356.28 656.686 1434.89 639.582 1512.37 621.445" stroke="#F0D9DA" stroke-miterlimit="10"/>
<path d="M0.308594 326.639C27.432 323.385 55.0301 320.654 82.982 318.459C304.191 300.027 511.399 325.932 683.607 376.247C736.809 391.69 806.812 399.661 872.614 389.199C1152.63 344.862 1208.63 226.797 1299.63 133.141C1343.03 89.8003 1403.24 47.4561 1510.52 20.5799C1511.14 20.4354 1511.75 20.286 1512.37 20.1465" stroke="#F0D9DA" stroke-miterlimit="10"/>
<path d="M0.308594 556.892C44.9424 557.39 88.3582 561.485 129.184 571.03C269.19 603.411 404.995 634.298 578.602 621.843C988.819 592.651 1269.14 501.715 1512.44 391.575" stroke="#F0D9DA" stroke-miterlimit="10"/>
<path d="M1082.25 672.757C1143.27 661.946 1203.8 650.145 1264.59 637.287C1353.06 618.71 1434.21 598.679 1512.4 577.606" stroke="#F0D9DA" stroke-miterlimit="10"/>
<path d="M0.308594 477.464L14.3092 475.88C63.3112 469.902 112.313 463.924 159.915 456.451C319.522 432.041 385.324 495.807 467.928 531.176C602.333 588.964 827.742 539.147 976.149 504.774C1238.31 443.892 1383.57 353.5 1512.37 258.39" stroke="#F0D9DA" stroke-miterlimit="10"/>
<path d="M887.875 672.756C1119.36 638.741 1321.4 589.388 1512.37 533.14" stroke="#F0D9DA" stroke-miterlimit="10"/>
</svg>
