<svg width="1306" height="704" viewBox="0 0 1306 704" fill="none" xmlns="http://www.w3.org/2000/svg">
<path d="M589.775 0.260742C749.213 13.58 893.94 31.2662 1055.57 43.9289C1099.07 47.0292 1143.08 48.6185 1187.18 48.6813C1226.77 48.8211 1266.35 47.9825 1305.72 46.1696" stroke="#FDF6EC" stroke-miterlimit="10"/>
<path d="M1061.96 0.260742C1069.88 0.573402 1077.82 0.866955 1085.78 1.1414C1136.42 2.93127 1187.24 3.59395 1238.03 3.12679C1260.59 2.95309 1283.16 2.62132 1305.72 2.13149" stroke="#FDF6EC" stroke-miterlimit="10"/>
<path d="M0.242188 26.0033C333.925 0.276674 643.07 37.6291 934.688 101.25C1007.21 116.883 1084.58 124.178 1164.5 123.986C1211.17 123.934 1258.27 121.714 1305.72 117.962" stroke="#FDF6EC" stroke-miterlimit="10"/>
<path d="M398.279 0.260742C442.412 2.02206 487.004 4.69009 532.164 8.49411C713.48 23.606 868.204 49.661 1048.31 67.3783C1092.37 71.3644 1137.33 73.1998 1182.34 72.8499C1223.59 72.7778 1264.8 71.6118 1305.72 69.3585" stroke="#FDF6EC" stroke-miterlimit="10"/>
<path d="M107.775 0.260742C71.8981 1.49054 36.082 3.09031 0.193359 4.95064" stroke="#FDF6EC" stroke-miterlimit="10"/>
<path d="M0.242188 98.2487C182.224 78.994 372.642 76.2322 543.044 119.489C688.097 155.966 741.283 223.709 816.228 284.156C862.161 320.633 968.534 330.013 1055.57 319.591C1103.45 314.802 1150.59 308.71 1196.69 301.352C1233.78 295.506 1269.95 289.049 1305.7 282.264" stroke="#FDF6EC" stroke-miterlimit="10"/>
<path d="M0.242188 46.4301C313.956 21.4173 634.017 50.0465 882.71 142.417C946.776 166.387 1028.97 177.33 1113.94 178.013C1150.92 178.43 1187.91 177.368 1224.43 174.839C1251.7 173.021 1278.83 170.551 1305.72 167.638" stroke="#FDF6EC" stroke-miterlimit="10"/>
<path d="M0.242188 180.639C82.4391 168.997 166.86 161.306 255.355 161.697C424.584 162.218 546.67 227.355 558.758 297.183C568.428 354.504 521.286 434.232 660.295 467.582C708.646 479.046 766.668 476.441 820.954 475.68C872.762 474.263 923.313 470.266 972.922 464.435C1087.76 450.943 1197.44 427.661 1305.72 403.435" stroke="#FDF6EC" stroke-miterlimit="10"/>
<path d="M776.76 0.260742C900.72 10.2242 1021.13 20.7504 1146.4 24.0854C1180.9 24.9869 1215.5 25.4246 1250.3 25.2318C1268.72 25.1276 1287.19 24.8393 1305.72 24.3668" stroke="#FDF6EC" stroke-miterlimit="10"/>
<path d="M0.242188 58.3317C100.063 49.7805 200.899 44.9812 306.123 48.6185C516.451 55.9138 708.646 95.5174 857.326 162.218C928.644 194.526 1028.97 211.201 1131.57 206.512C1187.02 204.802 1242.32 199.216 1296.11 191.921L1305.78 190.649" stroke="#FDF6EC" stroke-miterlimit="10"/>
<path d="M0.242188 16.0556C218.886 4.03909 433.287 4.36738 649.416 33.5073C829.524 57.9989 998.753 98.1236 1188.07 98.1236C1227.04 97.8422 1266.09 96.2007 1305.72 93.6421" stroke="#FDF6EC" stroke-miterlimit="10"/>
<path d="M0.242188 107.899C182.84 87.1597 367.263 83.4077 545.461 133.558C689.306 174.204 720.734 246.637 787.217 309.169C821.063 341.477 905.677 356.589 984.55 350.487C1025.81 348.611 1067.88 343.806 1108.64 337.756C1149.4 331.706 1188.83 324.411 1224.79 317.506C1251.89 312.361 1278.88 307.088 1305.78 301.686" stroke="#FDF6EC" stroke-miterlimit="10"/>
<path d="M0.242188 78.4044C255.294 55.8877 513.09 58.6547 708.646 148.669C816.228 197.653 900.842 278.423 1082 265.917C1115.77 264.406 1149.69 261.008 1182.96 256.704C1216.22 252.399 1248.97 247.183 1280.4 241.972C1288.85 240.583 1297.31 239.176 1305.78 237.751" stroke="#FDF6EC" stroke-miterlimit="10"/>
<path d="M0.242188 241.097C68.4777 231.494 138.526 224.777 211.839 223.187C352.057 220.061 419.749 284.156 434.254 337.308C448.759 392.023 419.749 449.344 498.319 498.328C547.879 528.03 632.493 535.847 710.157 533.142C745.659 532.283 781.403 529.896 816.941 526.79C852.479 523.684 887.848 519.823 922.6 516.045C1058.59 501.392 1182.72 479.281 1305.78 455.306" stroke="#FDF6EC" stroke-miterlimit="10"/>
<path d="M0.242188 142.974C160.309 121.38 333.865 111.797 486.231 156.486C564.802 179.935 608.318 213.286 630.076 251.847C665.13 315.421 642.164 420.683 843.715 424.56C877.875 425.17 913.232 423.289 948.879 419.771C1055.86 409.219 1165.55 383.946 1253.79 366.489C1271.15 363.057 1288.48 359.565 1305.77 356.015" stroke="#FDF6EC" stroke-miterlimit="10"/>
<path d="M0.242188 431.21C71.5601 436.551 135.625 452.195 175.575 483.216C248.102 539.494 339.969 599.421 498.972 605.846C563.291 610.635 629.52 610.103 695.35 607.758C907.805 599.874 1105.84 572.256 1305.78 543.788" stroke="#FDF6EC" stroke-miterlimit="10"/>
<path d="M0.242188 37.1596C312.107 12.1469 609.466 37.1596 879.024 115.325C975.726 143.464 1085.72 151.28 1197.54 149.243C1233.92 148.617 1270.1 146.616 1305.66 143.261" stroke="#FDF6EC" stroke-miterlimit="10"/>
<path d="M0.242188 154.126C188.812 128.478 405.715 120.385 539.418 196.09C627.658 246.637 615.571 308.127 633.702 367.011C642.164 397.756 674.801 435.275 756.381 440.079C799.099 442.336 841.407 441.742 882.892 439.511C1031.57 431.471 1169.67 402.743 1305.72 372.587" stroke="#FDF6EC" stroke-miterlimit="10"/>
<path d="M0.242188 87.8936C213.483 66.5703 437.82 65.8199 619.197 129.389C727.987 167.429 776.338 220.581 862.161 267.48C905.677 291.451 978.204 297.704 1044.24 294.306C1083.3 292.91 1122.81 289.059 1161.49 283.999C1200.17 278.939 1237.81 272.691 1273.17 266.438C1284.04 264.479 1294.92 262.504 1305.81 260.513" stroke="#FDF6EC" stroke-miterlimit="10"/>
<path d="M0.242188 278.554L11.1816 276.86C95.7961 263.833 196.125 254.974 272.278 282.592C333.925 305.521 361.727 337.829 372.606 371.7C390.738 435.275 376.233 522.298 546.67 546.79C601.065 554.606 657.878 553.564 713.361 552.22C757.174 551.024 800.773 548.66 843.909 545.143C1002.51 532.387 1154.7 506.061 1305.66 478.349" stroke="#FDF6EC" stroke-miterlimit="10"/>
<path d="M0.242188 194.469C83.6479 182.64 169.157 174.985 258.981 175.767C338.76 176.288 412.496 192.963 460.847 222.666C550.297 277.381 530.956 340.955 532.165 400.882C533.374 455.597 632.493 500.412 760.128 493.403C807.839 493.137 855.368 489.927 902.353 484.909C996.336 474.878 1088.2 457.681 1175.23 442.048C1219.14 434.06 1262.54 425.478 1305.78 416.666" stroke="#FDF6EC" stroke-miterlimit="10"/>
<path d="M0.242188 541.037C18.6879 544.506 36.1483 548.878 52.2801 554.065C216.674 606.696 384.694 650.989 587.829 646.023C638.764 646.201 689.68 645.096 740.316 642.714C928.487 634.09 1116.03 610.229 1305.72 588.64" stroke="#FDF6EC" stroke-miterlimit="10"/>
<path d="M0.242188 320.747C76.3952 311.534 163.488 309.283 222.718 335.744C260.19 351.898 279.53 372.221 295.244 393.065C326.673 436.838 326.673 482.694 384.694 523.34C452.386 571.802 586.56 575.45 701.515 571.766C755.409 570.374 809.011 567.362 861.932 562.751C1013.5 549.775 1160.5 525.706 1305.72 500.703" stroke="#FDF6EC" stroke-miterlimit="10"/>
<path d="M1109.39 703.745C1174.42 699.664 1239.77 695.574 1305.72 691.983" stroke="#FDF6EC" stroke-miterlimit="10"/>
<path d="M111.704 703.744C74.6344 701.278 37.4806 698.992 0.242188 696.887" stroke="#FDF6EC" stroke-miterlimit="10"/>
<path d="M0.242188 131.723C90.5016 120.686 182.768 113.891 279.53 115.84C452.386 119.488 607.109 167.429 655.46 242.988C690.515 297.183 683.262 367.01 808.105 397.703C847.052 403.721 890.108 403.909 934.084 400.944C1022.02 395.019 1113.59 376.65 1188.53 362.841C1227.89 355.431 1266.9 347.557 1305.78 339.486" stroke="#FDF6EC" stroke-miterlimit="10"/>
<path d="M0.242188 373.144C85.9445 370.846 167.235 380.403 204.586 417.558C279.53 492.075 354.475 593.689 581.628 592.235C627.429 593.434 674.16 592.235 720.976 589.922C767.804 587.498 814.717 583.919 860.952 580.141C1019.13 567.113 1162.39 545.279 1305.78 522.502" stroke="#FDF6EC" stroke-miterlimit="10"/>
<path d="M0.242188 224.949C109.032 206.992 223.31 195.157 332.717 220.582C414.913 239.341 459.638 276.861 463.265 315.422C469.308 394.108 452.386 530.115 714.69 520.214C749.186 519.972 783.598 518.673 817.666 516.327C953.593 507.14 1084.14 483.748 1211.46 460.819C1243.01 455.087 1274.39 449.048 1305.75 442.878" stroke="#FDF6EC" stroke-miterlimit="10"/>
<path d="M0.242188 588.259C5.94762 589.301 11.6087 590.416 17.2255 591.604C191.29 628.602 364.145 667.685 560.644 664.892C611.86 665.234 663.081 664.387 714.086 662.354C910.778 654.741 1106.94 631.969 1305.72 612.677" stroke="#FDF6EC" stroke-miterlimit="10"/>
<path d="M0.242188 488.354C35.5823 493.457 68.1081 501.642 95.7961 512.397C184.037 546.79 248.102 591.083 360.518 609.322C449.968 623.912 544.253 628.602 638.138 627.388C682.341 626.991 726.465 625.6 770.33 623.219C951.236 613.574 1128.65 589.046 1305.72 565.57" stroke="#FDF6EC" stroke-miterlimit="10"/>
<path d="M0.242188 647.435C87.0324 653.98 172.952 663.5 257.772 677.064C343.596 690.613 435.463 693.739 527.39 694.928C577.083 695.574 626.691 695.094 676.251 693.766C885.515 688.153 1093.94 667.33 1305.72 651.374" stroke="#FDF6EC" stroke-miterlimit="10"/>
<path d="M0.242188 67.7947C194.13 50.1503 389.469 51.7345 570.846 88.2218C703.811 114.798 792.052 163.781 894.798 208.075C967.325 239.862 1077.32 239.862 1172.12 231.931C1208.5 228.773 1244.29 224.457 1279.19 219.018C1288.05 217.663 1296.92 216.296 1305.78 214.917" stroke="#FDF6EC" stroke-miterlimit="10"/>
<path d="M0.242188 209.211C121.035 189.753 253.977 174.261 371.397 208.596C537 257.58 501.945 345.124 503.154 417.036C504.363 472.794 620.406 517.608 747.327 507.186C786.326 505.613 825.096 503.126 863.467 499.735C977.974 489.667 1087.9 472.273 1195.78 451.95C1232.68 445.014 1269.27 437.719 1305.78 430.282" stroke="#FDF6EC" stroke-miterlimit="10"/>
<path d="M0.242188 119.436C201.915 95.4652 404.856 91.9374 573.263 159.613C686.888 204.427 703.811 271.649 750.954 332.096C787.217 376.911 909.304 382.122 1001.39 370.71C1039.24 367.597 1076.51 363.303 1112.91 357.86C1178.6 348.178 1242.44 335.358 1305.72 321.721" stroke="#FDF6EC" stroke-miterlimit="10"/>
<path d="M0.242188 345.187C42.8879 341.956 86.15 341.857 129.642 347.73C193.707 356.068 236.014 381.081 252.937 408.178C300.08 485.821 373.815 579.098 588.071 583.788C635.648 586.071 684.362 585.456 733.426 583.048C880.595 575.56 1030.79 551.98 1164.36 533.221C1212.07 526.624 1259.06 519.313 1305.78 511.757" stroke="#FDF6EC" stroke-miterlimit="10"/>
<path d="M0.242188 258.778C46.9252 251.972 95.0225 246.318 145.356 242.467C187.663 239.341 228.762 240.904 265.025 249.763C429.419 289.887 405.243 378.995 420.957 447.781C435.463 516.566 585.351 557.211 733.426 542.751C769.835 541.12 806.255 538.29 842.482 534.851C878.709 531.412 914.743 527.378 950.402 523.34C1075.63 509.041 1191.38 488.697 1305.78 467.061" stroke="#FDF6EC" stroke-miterlimit="10"/>
<path d="M0.242188 630.771C106.82 641.609 211.911 656.768 317.002 672.896C368.98 680.713 424.584 682.797 480.55 684.246C520.549 685.345 560.668 685.533 600.92 685.012C721.641 683.448 843.425 675.502 966.116 666.643C1082.16 658.264 1194.13 647.17 1305.78 637.983" stroke="#FDF6EC" stroke-miterlimit="10"/>
<path d="M0.242188 457.14C38.6088 462.382 74.5216 472.043 106.675 487.885C229.97 548.853 358.101 620.765 559.967 618.571C615.208 618.77 670.428 617.564 725.34 614.96C923.156 605.705 1113.67 580.599 1305.71 554.742" stroke="#FDF6EC" stroke-miterlimit="10"/>
<path d="M0.242188 167.076C95.9895 154.34 194.457 147.097 298.871 151.276C376.233 154.402 448.759 170.035 500.737 197.133C601.065 248.2 588.977 315.943 597.439 377.433C603.483 415.994 656.669 461.33 758.206 461.262C805.592 460.931 852.817 458.797 899.331 454.884C1041.33 443.138 1174.42 416.911 1305.69 388.449" stroke="#FDF6EC" stroke-miterlimit="10"/>
<path d="M0.242188 514.372C30.3371 519.585 57.846 527.227 81.2907 536.889C231.179 598.9 418.54 644.756 627.658 636.94C676.408 635.637 724.566 633.464 772.277 630.598C953.315 619.717 1128.07 598.811 1305.72 577.185" stroke="#FDF6EC" stroke-miterlimit="10"/>
<path d="M0.242188 298.205C66.0722 288.434 137.438 281.806 203.377 293.515C269.86 305.5 301.288 334.682 320.629 362.821C356.892 420.142 347.222 481.111 437.88 530.615C504.363 566.571 613.153 563.965 705.915 562.209C758.545 560.81 810.879 557.805 862.524 553.215C1014.19 539.974 1161.09 515.175 1305.72 489.281" stroke="#FDF6EC" stroke-miterlimit="10"/>
<path d="M0.242188 664.36C102.988 677.278 204.634 687.705 309.23 693.959C362.263 697.224 415.272 699.606 468.257 701.103C630.22 705.654 792.863 701.958 952.82 690.092C1072.89 681.312 1189.28 671.332 1305.78 664.037" stroke="#FDF6EC" stroke-miterlimit="10"/>
<path d="M0.242188 565.862C14.8259 568.466 28.9812 571.496 42.6099 574.929C194.916 612.97 339.969 655.179 517.66 654.215C572.735 655.641 627.966 655.531 683.008 653.886C892.622 647.847 1095.96 622.772 1305.7 600.213" stroke="#FDF6EC" stroke-miterlimit="10"/>
<path d="M0.242188 397.808C67.3898 400.538 128.59 414.425 177.993 447.781C248.102 495.201 284.365 548.874 399.199 580.14C466.891 597.858 544.253 598.9 619.33 599.609C666.286 599.746 713.217 598.623 759.85 596.247C946.619 586.868 1125.95 560.146 1305.72 532.934" stroke="#FDF6EC" stroke-miterlimit="10"/>
<path d="M0.242188 609.854C157.964 636.263 310.427 667.914 481.445 672.219C518.554 673.716 555.929 674.465 593.571 674.465C631.605 674.434 669.61 673.564 707.438 671.859C912.471 662.599 1104.9 642.12 1305.78 624.96" stroke="#FDF6EC" stroke-miterlimit="10"/>
<path d="M902.619 703.745C1036.31 696.304 1169.94 686.46 1305.72 678.503" stroke="#FDF6EC" stroke-miterlimit="10"/>
<path d="M0.242188 680.655C90.695 686.721 181.559 694.6 273.873 703.745" stroke="#FDF6EC" stroke-miterlimit="10"/>
</svg>
