<svg width="1306" height="577" viewBox="0 0 1306 577" fill="none" xmlns="http://www.w3.org/2000/svg">
<path d="M0.265625 70.6006C85.1272 60.35 171.584 51.1117 258.947 41.9844C344.824 33.0408 418.966 18.2202 487.029 0.196289" stroke="#C8D9EB" stroke-miterlimit="10"/>
<path d="M0.265625 215.21C204.818 196.469 413.165 220.413 621.5 229.467C887.372 240.572 913.959 120.982 996.138 55.6348C1021.19 35.9152 1051.16 16.8876 1088.54 0.196289" stroke="#C8D9EB" stroke-miterlimit="10"/>
<path d="M0.265625 123.408C116.597 112.337 236.735 104.825 359.193 99.6268C489.712 94.0744 599.686 69.7293 679.448 31.2897C701.201 20.8811 722.145 10.4554 743.028 0.196289" stroke="#C8D9EB" stroke-miterlimit="10"/>
<path d="M0.265625 500.005C22.6114 501.314 44.2422 503.847 64.3771 507.514C181.602 528.869 296.411 552.36 430.555 548.089C642.045 540.828 824.53 506.66 1000.97 461.813C1122.03 430.699 1216.47 394.877 1305.52 356.792" stroke="#C8D9EB" stroke-miterlimit="10"/>
<path d="M0.265625 302.956C150.943 277.329 339.41 279.221 474.001 319.587C529.593 336.244 570.682 358.027 641.984 364.433C761.627 375.538 857.099 342.224 928.401 312.326C1072.21 251.677 1107.26 176.506 1188.23 106.034C1214.26 83.059 1254.28 62.3916 1305.46 45.5" stroke="#C8D9EB" stroke-miterlimit="10"/>
<path d="M1194.99 576.791C1231.91 569.043 1268.73 560.888 1305.46 552.326" stroke="#C8D9EB" stroke-miterlimit="10"/>
<path d="M102.953 0.196289C68.6955 5.45255 34.4664 10.6818 0.265625 15.8839" stroke="#C8D9EB" stroke-miterlimit="10"/>
<path d="M0.265625 348.626C29.721 343.768 59.1482 338.785 88.5472 333.677C237.194 308.051 405.177 333.677 481.313 384.503C503.066 399.452 538.113 412.265 586.453 415.682C730.266 424.651 846.283 388.347 939.338 354.178C1092.82 298.654 1160.5 227.327 1236.63 157.282C1254.25 140.834 1277.38 125.191 1305.52 110.685" stroke="#C8D9EB" stroke-miterlimit="10"/>
<path d="M0.265625 170.309C68.5827 164.598 138.712 161.425 210.607 161.557C410.011 161.557 674.674 179.069 782.232 100.054C827.285 66.7395 870.247 31.4904 926.419 0.196289" stroke="#C8D9EB" stroke-miterlimit="10"/>
<path d="M0.265625 545.231C5.09966 545.715 9.9337 546.241 14.7677 546.807C180.334 566.027 348.316 582.684 524.759 567.308C839.551 539.974 1087.21 477.308 1305.46 399.703" stroke="#C8D9EB" stroke-miterlimit="10"/>
<path d="M0.265625 426.555C48.0017 421.926 96.0521 417.514 144.139 413.123C173.143 410.56 203.356 410.133 231.151 414.831C298.828 426.79 310.913 455.407 359.253 474.626C403.968 491.283 470.436 495.127 533.279 491.283C712.138 481.46 859.576 447.719 991.304 405.435C1129.19 361.328 1215.41 308.759 1305.52 254" stroke="#C8D9EB" stroke-miterlimit="10"/>
<path d="M1021.7 576.791C1119.07 557.938 1213.2 536.732 1305.46 513.938" stroke="#C8D9EB" stroke-miterlimit="10"/>
<path d="M0.265625 258.344C212.625 235.135 436.912 262.222 637.211 296.096C831.781 328.556 952.632 237.582 1005.81 181.204C1066.82 116.506 1102.97 41.7623 1269.26 0.196289" stroke="#C8D9EB" stroke-miterlimit="10"/>
<path d="M0.265625 461.347C19.9402 460.1 39.6993 458.974 59.543 457.969C115.134 454.979 169.517 461.813 204.564 478.043C397.926 568.163 720.598 504.097 929.67 452.417C1092.69 412.269 1200.81 362.212 1305.52 309.28" stroke="#C8D9EB" stroke-miterlimit="10"/>
<path d="M852.168 576.791C1015.24 549.768 1163.43 514.835 1305.46 475.75" stroke="#C8D9EB" stroke-miterlimit="10"/>
<path d="M0.265625 390.802C8.76547 389.706 17.2452 388.603 25.7048 387.492C109.092 376.388 198.522 353.751 289.16 369.981C366.504 384.075 385.841 414.4 435.389 438.318C475.27 457.111 540.53 461.809 603.372 457.111C893.415 434.047 1079.53 349.907 1202.79 261.496C1237.63 236.698 1268.9 210.303 1305.52 185.355" stroke="#C8D9EB" stroke-miterlimit="10"/>
<path d="M669.078 576.791C911.989 547.722 1116.75 497.806 1305.46 438.968" stroke="#C8D9EB" stroke-miterlimit="10"/>
<path d="M0.265625 97.4528C104.802 86.4548 212.649 77.4898 322.938 68.448C422.035 59.9058 507.84 43.6758 579.142 18.0494C595.952 12.2193 612.243 6.24839 628.195 0.196289" stroke="#C8D9EB" stroke-miterlimit="10"/>
<path d="M0.265625 236.455C198.352 218.183 410.591 233.687 598.538 262.354C768.938 288.408 895.832 229.894 945.381 178.642C1005.81 117.565 1040.13 46.3537 1172.17 0.196289" stroke="#C8D9EB" stroke-miterlimit="10"/>
<path d="M0.265625 146.399C3.09354 146.181 5.93353 145.972 8.78562 145.754C162.266 134.222 307.287 134.65 458.351 129.097C659.846 121.23 746.689 55.9508 839.914 0.196289" stroke="#C8D9EB" stroke-miterlimit="10"/>
<path d="M0.265625 525.341C3.48832 525.654 6.71101 525.983 9.9337 526.328C169.457 543.412 319.312 570.747 494.546 557.507C832.264 532.346 1084.49 463.816 1305.46 379.339" stroke="#C8D9EB" stroke-miterlimit="10"/>
<path d="M0.265625 325.934C13.9621 323.559 27.6786 321.159 41.4154 318.733C216.649 287.554 413.636 309.764 528.445 368.705C640.836 425.083 829.364 377.674 928.461 338.38C1081.94 276.877 1136.32 200.424 1218.5 127.389C1239.27 108.935 1268.69 91.8496 1305.52 76.8496" stroke="#C8D9EB" stroke-miterlimit="10"/>
<path d="M1305.45 571.896C1298.16 573.53 1290.83 575.16 1283.48 576.786" stroke="#C8D9EB" stroke-miterlimit="10"/>
<path d="M0.265625 43.428C104.306 29.9998 208.576 17.4599 307.106 0.196289" stroke="#C8D9EB" stroke-miterlimit="10"/>
<path d="M0.265625 369.909C48.8638 362.767 97.6272 355.532 146.556 348.203C284.326 328.129 400.343 368.277 455.934 410.134C501.857 443.875 620.291 443.875 707.304 430.635C1022.73 381.945 1159.29 266.626 1286.18 161.985C1292.04 157.056 1298.48 152.215 1305.52 147.463" stroke="#C8D9EB" stroke-miterlimit="10"/>
<path d="M0.265625 192.834C175.499 179.329 348.05 186.97 524.819 195.726C660.172 202.987 781.023 177.36 834.198 133.795C888.254 89.4488 931.664 40.1991 1007.27 0.196289" stroke="#C8D9EB" stroke-miterlimit="10"/>
<path d="M557.824 576.791C854.066 548.499 1090.78 489.498 1305.46 418.872" stroke="#C8D9EB" stroke-miterlimit="10"/>
<path d="M0.265625 565.52C54.0443 569.056 107.146 573.207 160.139 576.791" stroke="#C8D9EB" stroke-miterlimit="10"/>
<path d="M0.265625 443.713C35.0385 440.865 70.1054 438.214 105.466 435.76C148.973 432.77 194.896 434.906 223.9 446.865C279.492 469.074 312.121 500.253 403.968 504.951C614.249 515.629 797.942 474.2 958.674 429.781C1108.69 388.3 1208.45 337.953 1305.52 283.71" stroke="#C8D9EB" stroke-miterlimit="10"/>
<path d="M1101.88 576.791C1170.72 563.012 1238.58 548.348 1305.46 532.799" stroke="#C8D9EB" stroke-miterlimit="10"/>
<path d="M0.265625 280.046C23.6782 277.255 47.5004 274.914 71.6281 273.033C262.573 257.23 441.432 279.439 590.079 322.577C636.002 335.817 696.428 342.651 753.227 333.682C994.929 295.669 1043.27 194.445 1121.82 114.149C1159.29 76.9905 1211.25 40.6865 1303.86 17.644C1304.39 17.5202 1304.92 17.3921 1305.46 17.2725" stroke="#C8D9EB" stroke-miterlimit="10"/>
<path d="M0.265625 477.454C38.7929 477.881 76.2688 481.392 111.509 489.575C232.36 517.337 349.585 543.818 499.44 533.14C853.534 508.112 1095.5 430.148 1305.52 335.719" stroke="#C8D9EB" stroke-miterlimit="10"/>
<path d="M934.178 576.79C986.857 567.522 1039.1 557.404 1091.57 546.38C1167.94 530.453 1237.98 513.28 1305.48 495.213" stroke="#C8D9EB" stroke-miterlimit="10"/>
<path d="M0.265625 409.356L12.3507 407.998C54.6486 402.872 96.9464 397.747 138.036 391.34C275.806 370.412 332.606 425.082 403.908 455.406C519.925 504.951 714.495 462.24 842.597 432.77C1068.89 380.573 1194.27 303.074 1305.46 221.531" stroke="#C8D9EB" stroke-miterlimit="10"/>
<path d="M766.4 576.791C966.215 547.628 1140.62 505.314 1305.46 457.09" stroke="#C8D9EB" stroke-miterlimit="10"/>
</svg>
