<svg width="61" height="55" viewBox="0 0 61 55" fill="none" xmlns="http://www.w3.org/2000/svg">
<g clip-path="url(#clip0_360_4388)">
<path d="M18.2124 53.4953C29.1677 42.1384 43.1815 32.7219 59.3005 24.6244C60.6034 24.5106 46.8586 7.377 45.489 8.30712C44.4623 9.02851 40.8638 23.6264 39.8615 22.4527C32.2332 21.0921 25.8888 19.093 21.1199 16.2881C21.0398 16.2414 20.948 16.2186 20.8553 16.2225C20.7627 16.2263 20.6731 16.2568 20.5972 16.3101C20.5213 16.3634 20.4624 16.4374 20.4273 16.5232C20.3922 16.6091 20.3826 16.7032 20.3994 16.7944C21.7929 22.8791 21.79 29.2004 20.3909 35.2838C14.6156 36.2693 9.12107 36.1536 4.3398 33.2929C4.30336 33.2721 4.26124 33.2633 4.21952 33.268C4.1778 33.2726 4.13863 33.2904 4.10767 33.3187C4.0767 33.3471 4.05554 33.3845 4.04723 33.4257C4.03892 33.4668 4.0439 33.5095 4.06144 33.5477C7.61799 40.9484 12.4027 47.693 18.2124 53.4953Z" fill="#F7A491" stroke="#231F20" stroke-width="2" stroke-miterlimit="10"/>
</g>
<defs>
<clipPath id="clip0_360_4388">
<rect width="52.5991" height="30" fill="white" transform="translate(0 30.2402) rotate(-35.0942)"/>
</clipPath>
</defs>
</svg>
