<svg width="61" height="50" viewBox="0 0 61 50" fill="none" xmlns="http://www.w3.org/2000/svg">
<g clip-path="url(#clip0_360_4384)">
<path d="M1.88455 27.4465C17.1846 31.3076 32.3212 38.787 47.3597 48.7486C48.106 49.8227 56.1411 29.3796 54.6532 28.6535C53.5169 28.1212 39.0614 32.2548 39.5817 30.8017C36.9705 23.5062 35.5517 17.0073 35.615 11.4751C35.6158 11.3824 35.5899 11.2914 35.5405 11.2129C35.4911 11.1344 35.4201 11.0718 35.3362 11.0325C35.2522 10.9931 35.1587 10.9787 35.0667 10.991C34.9748 11.0032 34.8884 11.0416 34.8176 11.1016C30.2305 15.3352 24.744 18.4748 18.7699 20.2846C15.044 15.7631 12.4133 10.938 12.519 5.36722C12.5189 5.32524 12.5056 5.28436 12.4808 5.25047C12.456 5.21657 12.4211 5.19142 12.3812 5.17864C12.3412 5.16586 12.2982 5.16611 12.2583 5.17935C12.2185 5.1926 12.1839 5.21815 12.1595 5.25233C7.50566 12.017 4.03151 19.5213 1.88455 27.4465Z" fill="#F7A491" stroke="#231F20" stroke-width="2" stroke-miterlimit="10"/>
</g>
<defs>
<clipPath id="clip0_360_4384">
<rect width="52.5991" height="30" fill="white" transform="translate(13.0098 0.0839844) rotate(25.1)"/>
</clipPath>
</defs>
</svg>
