<svg width="165" height="150" viewBox="0 0 165 150" fill="none" xmlns="http://www.w3.org/2000/svg">
<g clip-path="url(#clip0_360_4506)">
<path d="M81.4748 13.6366C113.373 13.6366 139.569 43.2285 142.547 81.0454C146.448 82.848 149.991 85.3427 153.002 88.4085V88.2311C153.002 40.1996 120.977 1.26758 81.4748 1.26758C41.9724 1.26758 9.94727 40.1996 9.94727 88.2311C9.94727 88.7 9.94727 89.1562 9.94727 89.6251C12.8882 86.3358 16.4167 83.6239 20.352 81.6283C23.1274 43.5327 49.4243 13.6366 81.4748 13.6366Z" fill="#454444"/>
<path d="M0.9375 113.26C0.9375 122.672 4.67608 131.697 11.3308 138.352C17.9855 145.007 27.0113 148.745 36.4225 148.745V77.7754C27.0113 77.7754 17.9855 81.514 11.3308 88.1687C4.67608 94.8234 0.9375 103.849 0.9375 113.26Z" fill="#EFDC70"/>
<path d="M40.7695 148.733V77.7627C43.082 77.7627 45.2997 78.6813 46.9349 80.3165C48.5701 81.9516 49.4887 84.1694 49.4887 86.4819V139.975C49.4937 141.124 49.2719 142.262 48.8359 143.324C48.4 144.386 47.7585 145.352 46.9484 146.165C46.1382 146.979 45.1754 147.625 44.115 148.065C43.0547 148.506 41.9178 148.733 40.7695 148.733Z" fill="#C6AF3E"/>
<path d="M40.7697 77.8008H36.4102V148.733H40.7697V77.8008Z" fill="#454444"/>
<path d="M163.18 113.26C163.18 122.672 159.442 131.697 152.787 138.352C146.132 145.007 137.107 148.745 127.695 148.745V77.7754C137.107 77.7754 146.132 81.514 152.787 88.1687C159.442 94.8234 163.18 103.849 163.18 113.26Z" fill="#EFDC70"/>
<path d="M123.348 148.733C121.036 148.733 118.818 147.814 117.183 146.179C115.548 144.544 114.629 142.326 114.629 140.014V86.5199C114.629 84.2075 115.548 81.9897 117.183 80.3546C118.818 78.7194 121.036 77.8008 123.348 77.8008V148.733Z" fill="#C6AF3E"/>
<path d="M127.707 77.8008H123.348V148.733H127.707V77.8008Z" fill="#454444"/>
<path d="M81.4748 13.6366C113.373 13.6366 139.569 43.2285 142.547 81.0454C146.448 82.848 149.991 85.3427 153.002 88.4085V88.2311C153.002 40.1997 120.977 1.26758 81.4748 1.26758C41.9724 1.26758 9.94727 40.1997 9.94727 88.2311C9.94727 88.7 9.94727 89.1562 9.94727 89.6251C12.8882 86.3358 16.4167 83.6239 20.352 81.6283C23.1274 43.5327 49.4243 13.6366 81.4748 13.6366Z" stroke="#1D1D1B" stroke-width="2" stroke-miterlimit="10"/>
<path d="M163.18 113.26C163.18 122.672 159.442 131.697 152.787 138.352C146.132 145.007 137.107 148.745 127.695 148.745V77.7754C137.107 77.7754 146.132 81.514 152.787 88.1687C159.442 94.8234 163.18 103.849 163.18 113.26V113.26Z" stroke="#1D1D1B" stroke-width="2" stroke-miterlimit="10"/>
<path d="M123.348 148.733C121.036 148.733 118.818 147.814 117.183 146.179C115.548 144.544 114.629 142.326 114.629 140.014V86.5199C114.629 84.2075 115.548 81.9897 117.183 80.3546C118.818 78.7194 121.036 77.8008 123.348 77.8008V77.8008V148.733Z" stroke="#1D1D1B" stroke-width="2" stroke-miterlimit="10"/>
<path d="M127.707 77.8008H123.348V148.733H127.707V77.8008Z" stroke="#1D1D1B" stroke-width="2" stroke-miterlimit="10"/>
<path d="M1.26758 113.26C1.26758 122.672 5.00616 131.697 11.6609 138.352C18.3156 145.007 27.3413 148.745 36.7525 148.745V77.7754C27.3413 77.7754 18.3156 81.514 11.6609 88.1687C5.00616 94.8234 1.26758 103.849 1.26758 113.26V113.26Z" stroke="#1D1D1B" stroke-width="2" stroke-miterlimit="10"/>
<path d="M41.0996 148.733V77.7627C43.4121 77.7627 45.6298 78.6813 47.265 80.3165C48.9001 81.9516 49.8188 84.1694 49.8188 86.4819V139.975C49.8238 141.124 49.6019 142.262 49.166 143.324C48.7301 144.386 48.0886 145.352 47.2785 146.165C46.4683 146.979 45.5054 147.625 44.4451 148.065C43.3847 148.506 42.2478 148.733 41.0996 148.733Z" stroke="#1D1D1B" stroke-width="2" stroke-miterlimit="10"/>
<path d="M41.0998 77.8008H36.7402V148.733H41.0998V77.8008Z" stroke="#1D1D1B" stroke-width="2" stroke-miterlimit="10"/>
</g>
<defs>
<clipPath id="clip0_360_4506">
<rect width="164.447" height="150" fill="white"/>
</clipPath>
</defs>
</svg>
