<svg width="162" height="308" viewBox="0 0 162 308" fill="none" xmlns="http://www.w3.org/2000/svg">
<circle cx="18" cy="105" r="103.5" stroke="#EDB52B" stroke-opacity="0.5" stroke-width="3"/>
<circle cx="8" cy="105" r="93.5" stroke="#EDB52B" stroke-opacity="0.5" stroke-width="3"/>
<circle cx="-7" cy="105" r="83.5" stroke="#EDB52B" stroke-opacity="0.5" stroke-width="3"/>
<circle cx="-21" cy="105" r="73.5" stroke="#EDB52B" stroke-opacity="0.5" stroke-width="3"/>
<g clip-path="url(#clip0_767_389)">
<path d="M59.0006 163.617C46.7235 163.621 34.9506 168.56 26.2707 177.347C17.5909 186.135 12.7148 198.052 12.7148 210.477H105.301C105.301 204.323 104.103 198.23 101.777 192.545C99.4498 186.859 96.0394 181.694 91.74 177.342C87.4406 172.991 82.3365 169.539 76.719 167.184C71.1016 164.829 65.0809 163.617 59.0006 163.617Z" fill="#EFDC70"/>
<path d="M59.0006 163.617C46.7235 163.621 34.9506 168.56 26.2707 177.347C17.5909 186.135 12.7148 198.052 12.7148 210.477H105.301C105.301 204.323 104.103 198.23 101.777 192.545C99.4498 186.859 96.0394 181.694 91.74 177.342C87.4406 172.991 82.3365 169.539 76.719 167.184C71.1016 164.829 65.0809 163.617 59.0006 163.617V163.617Z" stroke="#1D1D1B" stroke-width="2" stroke-miterlimit="10"/>
<path d="M58.9999 196.006C56.2815 196.006 53.6744 194.913 51.7521 192.967C49.8299 191.022 48.75 188.383 48.75 185.632V167.374C48.75 164.623 49.8299 161.984 51.7521 160.038C53.6744 158.093 56.2815 157 58.9999 157C61.7184 157 64.3255 158.093 66.2477 160.038C68.17 161.984 69.2499 164.623 69.2499 167.374V185.632C69.2499 188.383 68.17 191.022 66.2477 192.967C64.3255 194.913 61.7184 196.006 58.9999 196.006Z" fill="#EDB52B"/>
<path d="M28.2509 198.496C28.4295 197.86 28.4825 197.195 28.4069 196.539C28.3312 195.883 28.1285 195.248 27.8102 194.672C27.492 194.095 27.0644 193.587 26.5521 193.178C26.0398 192.769 25.4527 192.466 24.8245 192.286L17.3054 190.093C14.2705 196.448 12.7009 203.418 12.7149 210.477H24.8831L28.2509 198.496Z" fill="#EDB52B"/>
<path d="M89.7502 198.496C89.3915 197.212 89.551 195.837 90.1935 194.673C90.836 193.509 91.9089 192.65 93.1766 192.286L100.703 190.13C103.737 196.486 105.309 203.455 105.301 210.514H93.118L89.7502 198.496Z" fill="#EDB52B"/>
<path d="M58.9999 196.006C56.2815 196.006 53.6744 194.913 51.7521 192.967C49.8299 191.022 48.75 188.383 48.75 185.632V167.374C48.75 164.623 49.8299 161.984 51.7521 160.038C53.6744 158.093 56.2815 157 58.9999 157V157C61.7184 157 64.3255 158.093 66.2477 160.038C68.17 161.984 69.2499 164.623 69.2499 167.374V185.632C69.2499 188.383 68.17 191.022 66.2477 192.967C64.3255 194.913 61.7184 196.006 58.9999 196.006V196.006Z" stroke="#1D1D1B" stroke-width="2" stroke-miterlimit="10"/>
<path d="M28.2509 198.496C28.4295 197.86 28.4825 197.195 28.4069 196.539C28.3312 195.883 28.1285 195.248 27.8102 194.672C27.492 194.095 27.0644 193.587 26.5521 193.178C26.0398 192.769 25.4527 192.466 24.8245 192.286L17.3054 190.093C14.2705 196.448 12.7009 203.418 12.7149 210.477H24.8831L28.2509 198.496Z" stroke="#1D1D1B" stroke-width="2" stroke-miterlimit="10"/>
<path d="M89.7502 198.496C89.3915 197.212 89.551 195.837 90.1935 194.673C90.836 193.509 91.9089 192.65 93.1766 192.286L100.703 190.13C103.737 196.486 105.309 203.455 105.301 210.514H93.118L89.7502 198.496Z" stroke="#1D1D1B" stroke-width="2" stroke-miterlimit="10"/>
<path d="M113.149 210.477H4.85133C3.12881 210.477 1.73242 211.89 1.73242 213.633V219.361C1.73242 221.104 3.12881 222.518 4.85133 222.518H113.149C114.872 222.518 116.268 221.104 116.268 219.361V213.633C116.268 211.89 114.872 210.477 113.149 210.477Z" fill="#EDB52B"/>
<path d="M113.149 210.477H4.85133C3.12881 210.477 1.73242 211.89 1.73242 213.633V219.361C1.73242 221.104 3.12881 222.518 4.85133 222.518H113.149C114.872 222.518 116.268 221.104 116.268 219.361V213.633C116.268 211.89 114.872 210.477 113.149 210.477Z" stroke="#1D1D1B" stroke-width="2" stroke-miterlimit="10"/>
<path d="M69.1517 206.276C74.7557 200.605 74.7557 191.409 69.1517 185.737C63.5477 180.066 54.4618 180.066 48.8579 185.737C43.2539 191.409 43.2539 200.605 48.8579 206.276C54.4618 211.948 63.5477 211.948 69.1517 206.276Z" fill="#454444"/>
<path d="M59 206.172C64.5477 206.172 69.045 201.62 69.045 196.005C69.045 190.39 64.5477 185.839 59 185.839C53.4524 185.839 48.9551 190.39 48.9551 196.005C48.9551 201.62 53.4524 206.172 59 206.172Z" fill="#EDB52B"/>
<path opacity="0.3" d="M59.0001 185.839C56.9404 185.835 54.9293 186.472 53.2401 187.665C51.551 188.858 50.2656 190.548 49.5586 192.506C48.8516 194.464 48.7573 196.595 49.2886 198.609C49.8199 200.623 50.9509 202.423 52.528 203.763L66.6729 189.447C65.7319 188.315 64.5574 187.406 63.2318 186.782C61.9062 186.159 60.4618 185.837 59.0001 185.839Z" fill="#EDB52B"/>
<path d="M69.1517 206.276C74.7557 200.605 74.7557 191.409 69.1517 185.737C63.5477 180.066 54.4618 180.066 48.8579 185.737C43.2539 191.409 43.2539 200.605 48.8579 206.276C54.4618 211.948 63.5477 211.948 69.1517 206.276Z" stroke="#1D1D1B" stroke-width="2" stroke-miterlimit="10"/>
<path d="M59 206.172C64.5477 206.172 69.045 201.62 69.045 196.005C69.045 190.39 64.5477 185.839 59 185.839C53.4524 185.839 48.9551 190.39 48.9551 196.005C48.9551 201.62 53.4524 206.172 59 206.172Z" stroke="#1D1D1B" stroke-width="2" stroke-miterlimit="10"/>
<path opacity="0.3" d="M59.0001 185.839C56.9404 185.835 54.9293 186.472 53.2401 187.665C51.551 188.858 50.2656 190.548 49.5586 192.506C48.8516 194.464 48.7573 196.595 49.2886 198.609C49.8199 200.623 50.9509 202.423 52.528 203.763L66.6729 189.447C65.7319 188.315 64.5574 187.406 63.2318 186.782C61.9062 186.159 60.4618 185.837 59.0001 185.839V185.839Z" stroke="#1D1D1B" stroke-width="2" stroke-miterlimit="10"/>
</g>
<path d="M-2.34574 232.353C-2.34574 232.353 -21.5648 236.407 -30.2871 245.308" stroke="#EDB52B" stroke-width="11" stroke-linecap="round"/>
<path d="M1.76164 218.871C1.76164 218.871 -23.3385 199.294 -26.373 190.918" stroke="#EDB52B" stroke-width="11" stroke-linecap="round"/>
<path d="M9.2742 246.71C9.2742 246.71 -4.52361 262.478 -4.39231 267.699" stroke="#EDB52B" stroke-width="11" stroke-linecap="round"/>
<path d="M100.472 158.415C100.472 158.415 104.925 143.23 133.975 134.862" stroke="#EDB52B" stroke-width="11" stroke-linecap="round"/>
<path d="M104.956 171.079C104.956 171.079 126.549 174.894 133.691 180.28" stroke="#EDB52B" stroke-width="11" stroke-linecap="round"/>
<path d="M85.6218 151.327C85.6218 151.327 92.1774 141.386 86.9629 126.316" stroke="#EDB52B" stroke-width="11" stroke-linecap="round"/>
<defs>
<clipPath id="clip0_767_389">
<rect width="116" height="67" fill="white" transform="translate(1 157)"/>
</clipPath>
</defs>
</svg>
