<svg width="350" height="200" viewBox="0 0 350 200" fill="none" xmlns="http://www.w3.org/2000/svg">
<g clip-path="url(#clip0_360_4352)">
<path fill-rule="evenodd" clip-rule="evenodd" d="M4.91381 31.4224L129.497 0.273001C130.089 0.0928528 130.704 0.000868279 131.322 1.24243e-05C132.543 -0.00247471 133.737 0.368506 134.741 1.06323L181.25 32.069C181.736 32.3522 182.18 32.7002 182.572 33.1035C183.141 33.6668 183.592 34.3384 183.898 35.0786C184.204 35.8189 184.359 36.6128 184.353 37.4138V162.672C184.352 163.502 184.18 164.323 183.849 165.084C183.518 165.845 183.034 166.531 182.428 167.098C182.104 167.407 181.747 167.682 181.365 167.917L134.741 198.951C134.432 199.156 134.105 199.334 133.764 199.483H133.678L133.06 199.713H132.802H132.73H131.911H131.652H131.322C130.704 199.712 130.089 199.62 129.497 199.44L4.59772 168.506C3.28347 168.184 2.11564 167.429 1.28181 166.363C0.447978 165.298 -0.00345356 163.982 1.98953e-05 162.629V37.0977V36.5661V36.4368V36.3219V36.1925V36.0489V35.9339V35.819V35.704V35.6322V35.5173V35.4023L0.100595 35.1724V35.0719V35V34.9138V34.842V34.7558V34.6552V34.5402V34.4397V34.3535L0.172434 34.2673V34.1954V34.1092L1.4368 33.4052L1.52301 33.319L1.60922 33.2328L1.75289 33.046H1.8391V32.9742H1.91094L1.99715 32.8879L2.09772 32.8017L2.1983 32.7299H2.2845H2.37071H2.87358H2.95979H3.046L3.24715 32.615H3.36209H3.4483H3.54887H3.64945H3.75002H3.83623L4.31036 31.6092H4.43967H4.56899L4.95692 31.523L4.91381 31.4224ZM137.371 17.3851V38.5345L162.356 34.0374L137.371 17.3851ZM137.371 50.9052V149.109L172.227 155.359V44.6408L137.371 50.9052ZM137.371 161.466V182.615L162.356 165.963L137.356 161.466H137.371ZM125.259 186.193V159.296L62.4282 147.989L26.3937 161.451L125.259 186.164V186.193ZM125.259 146.925V53.0747L68.0173 63.3477V136.624L125.259 146.897V146.925ZM125.259 40.704V13.8075L26.3937 38.5201L62.4282 51.9828L125.259 40.704ZM3.1322 32.0833L3.33335 31.9684L3.1322 32.0833ZM55.8908 62.4282L12.1265 46.0776V153.922L55.8908 137.572V62.4282Z" fill="#231F20"/>
<path d="M236.523 56.8964C235.98 56.3667 235.337 55.9513 234.631 55.6749C233.925 55.3985 233.171 55.2666 232.413 55.2872C231.477 55.3046 230.558 55.5508 229.739 56.0044C228.919 56.4579 228.222 57.105 227.71 57.8893C227.197 58.6736 226.884 59.5713 226.798 60.5043C226.711 61.4372 226.855 62.3771 227.215 63.2421C227.575 64.1071 228.141 64.8709 228.864 65.467C229.587 66.0632 230.444 66.4736 231.362 66.6625C232.28 66.8513 233.23 66.813 234.129 66.5508C235.028 66.2885 235.85 65.8103 236.523 65.1579L241.106 69.6694C239.399 71.396 237.217 72.5771 234.838 73.0633C232.459 73.5495 229.989 73.3188 227.741 72.4004C225.493 71.4821 223.568 69.9173 222.21 67.9044C220.852 65.8914 220.122 63.5207 220.111 61.0925C220.101 58.6642 220.812 56.2875 222.153 54.2634C223.495 52.2392 225.407 50.6586 227.647 49.7217C229.887 48.7847 232.355 48.5335 234.738 49C237.121 49.4664 239.312 50.6294 241.034 52.3418L236.523 56.8964Z" fill="#231F20"/>
<path d="M255.748 48.8506H262.185V73.2759H255.748V48.8506Z" fill="#231F20"/>
<path d="M300.59 48.7504L289.182 73.2763H286.236L274.742 48.7217H281.208L287.659 62.6872L294.124 48.7217L300.59 48.7504Z" fill="#231F20"/>
<path d="M313.219 48.8506H319.656V73.2759H313.219V48.8506Z" fill="#231F20"/>
<path d="M334.354 48.8506H340.79V66.8247H349.612V73.2759H334.354V48.8506Z" fill="#231F20"/>
<path d="M220.732 88.0029H235.977V93.3909H227.184V97.3851H234.957V102.802H227.184V107.313H235.977V112.572H220.732V88.0029Z" fill="#231F20"/>
<path d="M273.233 88.0029L265.057 99.7414L274.052 112.514H266.207L261.135 105.331L256.034 112.514H248.189L257.184 99.7414L249.008 88.0029H256.853L261.164 94.1236L265.474 88.0029H273.233Z" fill="#231F20"/>
<path d="M286.623 88.0032H296.953C299.343 87.9842 301.642 88.915 303.345 90.591C305.048 92.267 306.015 94.5508 306.034 96.94C306.053 99.3292 305.122 101.628 303.446 103.331C301.77 105.034 299.486 106.001 297.097 106.02H293.103V112.515H286.652L286.623 88.0032ZM293.103 100.46H297.083C297.563 100.491 298.044 100.423 298.497 100.26C298.95 100.098 299.365 99.8437 299.716 99.5145C300.067 99.1853 300.347 98.7876 300.538 98.346C300.729 97.9045 300.828 97.4284 300.828 96.9472C300.828 96.466 300.729 95.9899 300.538 95.5483C300.347 95.1067 300.067 94.7091 299.716 94.3798C299.365 94.0506 298.95 93.7969 298.497 93.6342C298.044 93.4716 297.563 93.4035 297.083 93.4342H293.103V100.46Z" fill="#231F20"/>
<path d="M330.991 88.003C333.414 87.9973 335.785 88.7102 337.803 90.0515C339.821 91.3928 341.397 93.3024 342.33 95.5388C343.263 97.7752 343.512 100.238 343.046 102.616C342.58 104.994 341.419 107.181 339.711 108.899C338.002 110.618 335.823 111.791 333.447 112.272C331.072 112.752 328.608 112.517 326.366 111.597C324.124 110.676 322.205 109.112 320.852 107.102C319.499 105.092 318.772 102.725 318.764 100.302C318.764 97.0524 320.05 93.9349 322.34 91.6305C324.631 89.3261 327.741 88.0219 330.991 88.003ZM330.991 94.411C329.83 94.4082 328.695 94.7499 327.728 95.393C326.762 96.036 326.009 96.9514 325.563 98.0231C325.118 99.0949 325 100.275 325.226 101.413C325.452 102.552 326.011 103.597 326.831 104.418C327.652 105.239 328.698 105.797 329.836 106.023C330.975 106.249 332.155 106.132 333.226 105.686C334.298 105.241 335.213 104.487 335.856 103.521C336.499 102.555 336.841 101.419 336.838 100.259C336.84 99.4902 336.69 98.729 336.397 98.0186C336.104 97.3083 335.673 96.6629 335.13 96.1195C334.586 95.5761 333.941 95.1455 333.231 94.8523C332.52 94.5591 331.759 94.4091 330.991 94.411Z" fill="#231F20"/>
<path d="M230.317 137.716C230.962 137.031 231.344 136.14 231.394 135.201C231.366 134.448 231.054 133.734 230.521 133.201C229.988 132.668 229.274 132.356 228.521 132.328C227.759 132.328 227.028 132.63 226.489 133.169C225.95 133.708 225.647 134.439 225.647 135.201H220.374C220.335 134.105 220.519 133.013 220.913 131.99C221.307 130.967 221.904 130.034 222.668 129.248C223.432 128.461 224.347 127.837 225.358 127.413C226.369 126.99 227.455 126.775 228.552 126.781C229.648 126.788 230.732 127.017 231.738 127.453C232.743 127.889 233.651 128.524 234.405 129.32C235.159 130.116 235.744 131.056 236.126 132.084C236.507 133.112 236.677 134.207 236.624 135.302C236.591 136.913 236.092 138.48 235.187 139.813L230.475 146.552H237.414V151.739H220.446L230.317 137.716Z" fill="#231F20"/>
<path d="M251.883 135.23C251.97 133.161 252.854 131.205 254.349 129.772C255.845 128.338 257.836 127.538 259.907 127.538C261.979 127.538 263.97 128.338 265.465 129.772C266.96 131.205 267.844 133.161 267.932 135.23V143.678C267.844 145.748 266.96 147.703 265.465 149.137C263.97 150.57 261.979 151.37 259.907 151.37C257.836 151.37 255.845 150.57 254.349 149.137C252.854 147.703 251.97 145.748 251.883 143.678V135.23ZM257.026 143.707C257.026 144.469 257.329 145.2 257.868 145.739C258.407 146.278 259.138 146.581 259.9 146.581C260.662 146.581 261.393 146.278 261.932 145.739C262.471 145.2 262.774 144.469 262.774 143.707V135.302C262.774 134.54 262.471 133.809 261.932 133.27C261.393 132.731 260.662 132.428 259.9 132.428C259.138 132.428 258.407 132.731 257.868 133.27C257.329 133.809 257.026 134.54 257.026 135.302V143.707Z" fill="#231F20"/>
<path d="M292.414 137.716C293.059 137.031 293.441 136.141 293.492 135.201C293.464 134.448 293.152 133.734 292.619 133.201C292.086 132.668 291.372 132.356 290.619 132.328C289.856 132.328 289.125 132.631 288.587 133.17C288.048 133.708 287.745 134.439 287.745 135.201H282.486C282.493 134.135 282.709 133.081 283.124 132.099C283.538 131.116 284.141 130.225 284.9 129.476C285.658 128.727 286.557 128.134 287.544 127.733C288.531 127.331 289.588 127.127 290.654 127.134C291.72 127.141 292.775 127.357 293.757 127.771C294.74 128.185 295.631 128.789 296.38 129.547C297.129 130.306 297.721 131.204 298.123 132.192C298.525 133.179 298.729 134.236 298.722 135.302C298.688 136.913 298.189 138.48 297.285 139.814L292.587 146.552H299.512V151.739H282.544L292.414 137.716Z" fill="#231F20"/>
<path d="M323.463 137.716C324.115 137.036 324.498 136.142 324.541 135.201C324.512 134.448 324.201 133.734 323.668 133.201C323.135 132.668 322.42 132.356 321.667 132.328C320.905 132.328 320.174 132.631 319.635 133.17C319.097 133.708 318.794 134.439 318.794 135.201H313.535C313.542 134.135 313.758 133.081 314.172 132.099C314.586 131.116 315.19 130.225 315.948 129.476C316.707 128.727 317.605 128.134 318.593 127.733C319.58 127.331 320.637 127.127 321.703 127.134C322.769 127.141 323.824 127.357 324.806 127.771C325.788 128.185 326.68 128.789 327.429 129.547C328.178 130.306 328.77 131.204 329.172 132.192C329.574 133.179 329.777 134.236 329.771 135.302C329.737 136.913 329.238 138.48 328.334 139.814L323.636 146.552H330.561V151.739H313.593L323.463 137.716Z" fill="#231F20"/>
</g>
<defs>
<clipPath id="clip0_360_4352">
<rect width="349.612" height="200" fill="white"/>
</clipPath>
</defs>
</svg>
