<svg width="100" height="177" viewBox="0 0 100 177" fill="none" xmlns="http://www.w3.org/2000/svg">
<circle cx="88.5" cy="88.5" r="87" stroke="#8E94DD" stroke-width="3"/>
<circle cx="97" cy="89" r="78.5" stroke="#8E94DD" stroke-width="3"/>
<circle cx="105.5" cy="89.5" r="70" stroke="#8E94DD" stroke-width="3"/>
<path d="M175.5 88.5C175.5 122.753 147.954 150.5 114 150.5C80.0456 150.5 52.5 122.753 52.5 88.5C52.5 54.2471 80.0456 26.5 114 26.5C147.954 26.5 175.5 54.2471 175.5 88.5Z" stroke="#8E94DD" stroke-width="3"/>
<path d="M175.5 89.5C175.5 118.758 151.56 142.5 122 142.5C92.4398 142.5 68.5 118.758 68.5 89.5C68.5 60.2418 92.4398 36.5 122 36.5C151.56 36.5 175.5 60.2418 175.5 89.5Z" fill="#EFDC70" stroke="#8E94DD" stroke-width="3"/>
<g clip-path="url(#clip0_767_390)">
<path d="M159.82 111.378C164.246 100.337 165.299 88.2325 162.845 76.5938C160.391 64.9551 154.541 54.3054 146.035 45.9914C137.529 37.6774 126.748 32.0726 115.056 29.8856C103.365 27.6987 91.287 29.0279 80.3506 33.7051C69.4143 38.3823 60.1105 46.1975 53.6158 56.1624C47.1211 66.1273 43.7272 77.7943 43.8633 89.688C43.9994 101.582 47.6593 113.168 54.3803 122.982C61.1013 132.795 70.5814 140.396 81.6219 144.822C96.4266 150.756 112.982 150.567 127.647 144.295C142.312 138.023 153.885 126.182 159.82 111.378ZM97.5804 86.4279C98.0885 85.1597 98.9612 84.0707 100.088 83.2985C101.215 82.5263 102.546 82.1056 103.912 82.0896C105.278 82.0736 106.618 82.4629 107.763 83.2085C108.908 83.954 109.806 85.0223 110.343 86.2781C110.881 87.534 111.034 88.9211 110.784 90.2641C110.533 91.607 109.89 92.8456 108.936 93.8231C107.981 94.8006 106.759 95.4732 105.422 95.7558C104.085 96.0384 102.695 95.9184 101.427 95.4109C99.7265 94.7282 98.3667 93.399 97.6457 91.7149C96.9246 90.0307 96.9011 88.1293 97.5804 86.4279Z" fill="white" stroke="black" stroke-width="2" stroke-linecap="round" stroke-linejoin="round"/>
<path d="M129.514 99.2322C131.54 94.1844 132.023 88.6492 130.903 83.3268C129.782 78.0045 127.109 73.1339 123.22 69.3312C119.331 65.5286 114.402 62.9647 109.055 61.9638C103.709 60.9628 98.1863 61.5699 93.1852 63.7082C88.1841 65.8465 83.9295 69.4199 80.9594 73.9765C77.9894 78.533 76.4375 83.8681 76.4999 89.3068C76.5622 94.7455 78.2362 100.044 81.3099 104.531C84.3837 109.018 88.7191 112.493 93.768 114.516C97.1186 115.86 100.701 116.53 104.311 116.489C107.921 116.449 111.487 115.697 114.807 114.278C118.126 112.859 121.133 110.799 123.657 108.218C126.181 105.636 128.171 102.583 129.514 99.2322ZM97.5805 86.4282C98.0886 85.1601 98.9613 84.0711 100.088 83.2989C101.215 82.5267 102.546 82.106 103.912 82.0899C105.278 82.0739 106.618 82.4633 107.763 83.2088C108.908 83.9544 109.806 85.0226 110.343 86.2785C110.881 87.5343 111.034 88.9214 110.784 90.2644C110.533 91.6074 109.89 92.8459 108.936 93.8234C107.981 94.8009 106.759 95.4735 105.422 95.7561C104.085 96.0387 102.695 95.9187 101.427 95.4112C99.7266 94.7286 98.3668 93.3993 97.6457 91.7152C96.9247 90.0311 96.9012 88.1296 97.5805 86.4282Z" fill="#AA9DEA" stroke="black" stroke-width="2" stroke-linecap="round" stroke-linejoin="round"/>
<path d="M122.666 96.4819C124.148 92.7887 124.501 88.739 123.681 84.8451C122.861 80.9512 120.904 77.3879 118.059 74.6061C115.213 71.8243 111.607 69.9489 107.695 69.2171C103.784 68.4853 99.743 68.9301 96.0843 70.495C92.4256 72.06 89.3132 74.6749 87.1409 78.009C84.9686 81.3431 83.8338 85.2466 83.8803 89.2257C83.9267 93.2047 85.1522 97.0807 87.4018 100.363C89.6514 103.646 92.8239 106.187 96.5182 107.666C101.469 109.649 107.004 109.584 111.907 107.487C116.81 105.389 120.68 101.431 122.666 96.4819ZM97.5809 86.4277C98.089 85.1595 98.9617 84.0705 100.089 83.2983C101.216 82.5261 102.546 82.1054 103.912 82.0894C105.278 82.0734 106.619 82.4627 107.763 83.2083C108.908 83.9538 109.806 85.0221 110.344 86.2779C110.882 87.5338 111.035 88.9209 110.784 90.2639C110.534 91.6068 109.891 92.8454 108.936 93.8229C107.982 94.8004 106.759 95.473 105.423 95.7556C104.086 96.0382 102.696 95.9182 101.427 95.4107C99.7271 94.728 98.3673 93.3988 97.6462 91.7146C96.9251 90.0305 96.9016 88.1291 97.5809 86.4277Z" fill="#9880E0" stroke="black" stroke-width="2" stroke-linecap="round" stroke-linejoin="round"/>
</g>
<defs>
<clipPath id="clip0_767_390">
<rect width="122" height="122" fill="white" transform="translate(43 28)"/>
</clipPath>
</defs>
</svg>
