<svg width="45" height="312" viewBox="0 0 45 312" fill="none" xmlns="http://www.w3.org/2000/svg">
<g clip-path="url(#clip0_830_418)">
<path fill-rule="evenodd" clip-rule="evenodd" d="M26.5228 274.994L19.3008 274.912L20.3918 246.26L26.2974 246.28L26.5228 274.994Z" fill="url(#paint0_linear_830_418)"/>
<path fill-rule="evenodd" clip-rule="evenodd" d="M26.5228 274.994L19.3008 274.912L20.3918 246.26L26.2974 246.28L26.5228 274.994Z" stroke="#1D1D1B" stroke-width="2" stroke-miterlimit="10"/>
<path fill-rule="evenodd" clip-rule="evenodd" d="M19.6297 269.467L26.4778 269.549C27.077 269.605 29.0387 273.426 29.0387 275.767C29.0029 278.236 27.8709 294.575 27.8504 296.188C27.83 297.802 27.917 306.171 28.3217 307.969C29.3153 312.476 15.5167 312.834 16.6128 307.815C17.1865 304.199 17.8165 298.903 17.6372 295.876C17.2992 289.903 16.2287 281.022 16.9919 275.9C17.2019 274.42 18.3594 269.902 19.6297 269.467Z" fill="#3E3A39"/>
<path fill-rule="evenodd" clip-rule="evenodd" d="M19.6297 269.467L26.4778 269.549C27.077 269.605 29.0387 273.426 29.0387 275.767C29.0029 278.236 27.8709 294.575 27.8504 296.188C27.83 297.802 27.917 306.171 28.3217 307.969C29.3153 312.476 15.5167 312.834 16.6128 307.815C17.1865 304.199 17.8165 298.903 17.6372 295.876C17.2992 289.903 16.2287 281.022 16.9919 275.9C17.2019 274.42 18.3594 269.902 19.6297 269.467Z" stroke="#1D1D1B" stroke-width="2" stroke-miterlimit="10"/>
<path fill-rule="evenodd" clip-rule="evenodd" d="M12.2936 235.939C17.2056 233.491 20.4888 232.564 24.4071 232.513C28.3254 232.461 28.6839 234.689 31.7571 234.725C34.8303 234.761 36.961 232.953 38.5898 232.968C40.2186 232.984 41.9395 233.301 41.9242 234.843C41.9088 236.385 41.8474 241.112 41.8474 241.112C41.8474 241.112 41.9395 242.5 40.823 242.967C40.4613 243.17 40.049 243.266 39.6347 243.243L37.4578 243.217C36.3208 243.217 35.1068 241.42 33.5907 241.404C32.3056 241.28 31.0098 241.479 29.821 241.983C28.4893 242.71 27.2139 244.16 26.5583 247.013H26.42V247.059H24.8219V247.018L19.8844 246.957C19.8844 246.957 18.5834 242.813 16.3502 242.142C14.117 241.471 12.4678 241.348 8.19603 245.348C2.64382 250.091 1.13284 252.35 0.784545 252.155C-1.08497 251.105 7.07944 239.171 12.2936 235.939Z" fill="#D2D2D1"/>
<path fill-rule="evenodd" clip-rule="evenodd" d="M12.2936 235.939C17.2056 233.491 20.4888 232.564 24.4071 232.513C28.3254 232.461 28.6839 234.689 31.7571 234.725C34.8303 234.761 36.961 232.953 38.5898 232.968C40.2186 232.984 41.9395 233.301 41.9242 234.843C41.9088 236.385 41.8474 241.112 41.8474 241.112C41.8474 241.112 41.9395 242.5 40.823 242.967C40.4613 243.17 40.049 243.266 39.6347 243.243L37.4578 243.217C36.3207 243.217 35.1068 241.42 33.5907 241.404C32.3056 241.28 31.0098 241.479 29.821 241.983C28.4893 242.71 27.2139 244.16 26.5583 247.013H26.42V247.059H24.8219V247.018L19.8844 246.957C19.8844 246.957 18.5834 242.813 16.3502 242.142C14.117 241.471 12.4678 241.348 8.19603 245.348C2.64382 250.091 1.13284 252.35 0.784545 252.155C-1.08497 251.105 7.07944 239.171 12.2936 235.939Z" stroke="#1D1D1B" stroke-width="2" stroke-miterlimit="10"/>
<path fill-rule="evenodd" clip-rule="evenodd" d="M27.8237 296.496L25.2269 296.465C24.5001 296.456 23.7996 296.736 23.2795 297.244C22.7593 297.752 22.4622 298.445 22.4533 299.172C22.4445 299.899 22.7247 300.599 23.2324 301.119C23.74 301.64 24.4335 301.937 25.1603 301.946L27.9005 301.981C27.8391 299.733 27.8186 297.51 27.8237 296.496Z" fill="#F4A103"/>
<path fill-rule="evenodd" clip-rule="evenodd" d="M27.8237 296.496L25.2269 296.465C24.5001 296.456 23.7996 296.736 23.2795 297.244C22.7593 297.752 22.4622 298.445 22.4533 299.172C22.4445 299.899 22.7247 300.599 23.2324 301.119C23.74 301.64 24.4335 301.937 25.1603 301.946L27.9005 301.981C27.8391 299.733 27.8186 297.51 27.8237 296.496Z" stroke="#1D1D1B" stroke-width="2" stroke-miterlimit="10"/>
<path fill-rule="evenodd" clip-rule="evenodd" d="M24.735 294.191L27.926 294.227C28.0028 292.839 28.1258 290.882 28.2641 288.751L24.8016 288.705C24.0935 288.726 23.4208 289.02 22.9242 289.525C22.4276 290.03 22.1455 290.708 22.1369 291.416C22.1283 292.124 22.3939 292.809 22.8781 293.326C23.3623 293.843 24.0276 294.153 24.735 294.191Z" fill="#F4A103"/>
<path fill-rule="evenodd" clip-rule="evenodd" d="M24.735 294.191L27.926 294.227C28.0028 292.839 28.1258 290.882 28.2641 288.751L24.8016 288.705C24.0935 288.726 23.4208 289.02 22.9242 289.525C22.4276 290.03 22.1455 290.708 22.1369 291.416C22.1283 292.124 22.3939 292.809 22.8781 293.326C23.3623 293.843 24.0276 294.153 24.735 294.191V294.191Z" stroke="#1D1D1B" stroke-width="2" stroke-miterlimit="10"/>
<path fill-rule="evenodd" clip-rule="evenodd" d="M22.5001 283.733C22.4933 284.459 22.7737 285.158 23.2803 285.678C23.7869 286.198 24.4786 286.497 25.2045 286.509L28.4006 286.545C28.5184 284.665 28.6362 282.76 28.7387 281.07L25.2711 281.024C24.5451 281.018 23.8464 281.3 23.3274 281.807C22.8083 282.315 22.5109 283.007 22.5001 283.733Z" fill="#F4A103"/>
<path fill-rule="evenodd" clip-rule="evenodd" d="M22.5001 283.733C22.4933 284.459 22.7737 285.158 23.2803 285.678C23.7869 286.198 24.4786 286.497 25.2045 286.509L28.4006 286.545C28.5184 284.665 28.6362 282.76 28.7387 281.07L25.2711 281.024C24.5451 281.018 23.8464 281.3 23.3274 281.807C22.8083 282.315 22.5109 283.007 22.5001 283.733V283.733Z" stroke="#1D1D1B" stroke-width="2" stroke-miterlimit="10"/>
</g>
<g clip-path="url(#clip1_830_418)">
<path fill-rule="evenodd" clip-rule="evenodd" d="M30.7826 161.698L32.8182 172.321C32.8182 172.321 8.07436 196.404 7.76284 196.404C7.73645 196.399 7.71135 196.389 7.68907 196.374C7.6668 196.359 7.64781 196.34 7.63324 196.317C7.61868 196.294 7.60886 196.269 7.60436 196.243C7.59987 196.216 7.60079 196.189 7.60709 196.163C8.3429 193.166 17.3446 166.553 17.742 166.177C18.1395 165.801 27.7105 160.446 28.7256 160.43C29.7407 160.414 30.7665 161.042 30.7826 161.698Z" fill="#727172"/>
<path fill-rule="evenodd" clip-rule="evenodd" d="M30.719 161.761L32.7814 172.384C32.7814 172.384 7.99995 196.489 7.69918 196.489C7.67334 196.484 7.64878 196.474 7.62693 196.459C7.60507 196.444 7.58635 196.426 7.57186 196.404C7.55737 196.382 7.54739 196.357 7.54251 196.331C7.53763 196.305 7.53794 196.279 7.54342 196.253C8.28461 193.256 17.2863 166.643 17.6945 166.262C18.1027 165.88 27.6629 160.504 28.6834 160.504C29.7039 160.504 30.7029 161.127 30.719 161.761Z" stroke="#1D1D1B" stroke-width="2" stroke-miterlimit="10"/>
<path fill-rule="evenodd" clip-rule="evenodd" d="M30.6332 161.461L32.6688 172.079C32.6688 172.079 7.90347 196.162 7.60807 196.162C7.31267 196.162 17.1683 166.332 17.598 165.935C18.0277 165.537 27.5718 160.204 28.5869 160.188C29.602 160.172 30.6332 160.822 30.6332 161.461Z" fill="#DADBDB"/>
<path fill-rule="evenodd" clip-rule="evenodd" d="M30.5634 161.52L32.6044 172.143C32.6044 172.143 7.84437 196.227 7.53822 196.227C7.23208 196.227 17.1038 166.413 17.5389 165.999C17.9739 165.586 27.5073 160.268 28.5278 160.252C29.5483 160.236 30.5473 160.886 30.5634 161.52Z" stroke="#1D1D1B" stroke-width="2" stroke-miterlimit="10"/>
<path fill-rule="evenodd" clip-rule="evenodd" d="M24.1898 150.299C23.8562 150.293 23.5263 150.369 23.2284 150.519C23.1418 150.658 23.0698 150.806 23.0136 150.96C23.0136 150.96 22.8524 151.207 23.0941 151.814C23.3358 152.421 24.6302 152.888 25.2425 152.995C25.4044 153.038 25.5754 153.029 25.7322 152.97C25.8889 152.912 26.0237 152.806 26.1179 152.668L26.4993 151.969C26.4993 151.969 25.8118 150.895 25.3606 150.697C24.9785 150.541 24.5876 150.408 24.1898 150.299Z" fill="#5A5958"/>
<path fill-rule="evenodd" clip-rule="evenodd" d="M24.1522 150.37C23.8185 150.363 23.4884 150.439 23.1908 150.59C23.0998 150.727 23.0258 150.875 22.9706 151.03C22.9706 151.03 22.8095 151.277 23.0511 151.884C23.2928 152.491 24.5926 152.958 25.2317 153.066C25.3936 153.108 25.5647 153.099 25.7214 153.041C25.8782 152.982 26.0129 152.876 26.1072 152.738L26.4832 152.04C26.4832 152.04 25.8011 150.966 25.3499 150.767C24.959 150.61 24.5591 150.478 24.1522 150.37V150.37Z" stroke="#1D1D1B" stroke-width="2" stroke-miterlimit="10"/>
<path fill-rule="evenodd" clip-rule="evenodd" d="M28.0031 162.116C26.9289 160.757 23.3142 155.574 22.8631 154.671C22.4119 153.769 22.6697 152.727 23.5398 151.384C23.9695 150.632 25.9299 151.922 25.7473 152.233C25.5429 152.473 25.4011 152.76 25.3346 153.069C25.2681 153.377 25.2788 153.697 25.3659 154C25.6506 154.935 30.0118 159.677 30.4952 160.88C31.2686 162.803 29.0826 163.49 28.0031 162.116Z" fill="#C8C8C9"/>
<path fill-rule="evenodd" clip-rule="evenodd" d="M27.9484 162.192C26.8743 160.827 23.2543 155.671 22.7977 154.748C22.3412 153.824 22.6097 152.803 23.4798 151.461C23.9095 150.709 25.8699 151.998 25.6873 152.309C25.4839 152.547 25.3425 152.831 25.276 153.137C25.2094 153.442 25.2197 153.759 25.306 154.06C25.5906 154.995 29.9518 159.737 30.4352 160.935C31.2086 162.863 29.0226 163.556 27.9484 162.192Z" stroke="#1D1D1B" stroke-width="2" stroke-miterlimit="10"/>
<path fill-rule="evenodd" clip-rule="evenodd" d="M26.5445 142.297C26.5445 142.297 22.6399 151.857 23.0588 150.89C23.4777 149.924 26.8775 151.551 26.2169 152.577C25.5563 153.603 31.3247 144.746 31.3247 144.746L26.5445 142.297Z" fill="#3E3A39"/>
<path fill-rule="evenodd" clip-rule="evenodd" d="M26.4874 142.361C26.4874 142.361 22.5773 151.911 22.9963 150.966C23.4152 150.02 26.815 151.632 26.1544 152.657C25.4937 153.683 31.2675 144.821 31.2675 144.821L26.4874 142.361Z" stroke="#1D1D1B" stroke-width="2" stroke-miterlimit="10"/>
<path fill-rule="evenodd" clip-rule="evenodd" d="M36.7038 118.51C33.7659 122.951 25.5269 142.647 25.9619 143.608C26.789 142.421 31.0643 144.269 30.6615 145.794C32.1707 145.423 43.6269 124.197 44.3627 121.48C44.932 119.337 38.5836 115.674 36.7038 118.51Z" fill="#CC712D"/>
<path fill-rule="evenodd" clip-rule="evenodd" d="M36.6417 118.574C33.7038 123.016 25.4594 142.711 25.8998 143.672C26.7269 142.48 31.0022 144.333 30.5994 145.858C32.0979 145.466 43.554 124.262 44.2899 121.544C44.8699 119.401 38.5161 115.738 36.6417 118.574Z" stroke="#1D1D1B" stroke-width="2" stroke-miterlimit="10"/>
<path fill-rule="evenodd" clip-rule="evenodd" d="M41.1534 117.994C38.2531 124.976 32.3559 139.182 31.3676 141.057C30.0625 143.528 29.3428 143.742 29.3428 143.742L29.2461 143.93C30.143 144.441 30.8198 145.15 30.6479 145.799C32.1571 145.429 43.6133 124.203 44.3491 121.485C44.6553 120.352 43.0333 118.794 41.1534 117.994Z" fill="#BF6829"/>
<path fill-rule="evenodd" clip-rule="evenodd" d="M41.0963 118.074C38.196 125.056 32.2987 139.246 31.3051 141.121C30.0053 143.592 29.2856 143.806 29.2856 143.806L29.1836 143.994C30.0859 144.531 30.7626 145.214 30.5908 145.863C32.1 145.466 43.5562 124.262 44.292 121.544C44.5982 120.411 42.9869 118.858 41.0963 118.074Z" stroke="#1D1D1B" stroke-width="2" stroke-miterlimit="10"/>
<path fill-rule="evenodd" clip-rule="evenodd" d="M30.6336 145.793C30.8055 145.143 30.1288 144.434 29.2318 143.924L25.6387 150.836L25.4453 151.218C25.9824 151.577 26.4067 152.045 26.2778 152.447C26.2626 152.491 26.2427 152.532 26.2187 152.571C26.1971 152.595 26.179 152.622 26.165 152.652C26.1382 152.721 29.2479 147.952 30.6336 145.793Z" fill="#363434"/>
<path fill-rule="evenodd" clip-rule="evenodd" d="M30.5887 145.857C30.7606 145.207 30.0838 144.499 29.1815 143.988L25.5776 150.922L25.3789 151.298C25.9429 151.663 26.3457 152.131 26.2168 152.528C26.1997 152.573 26.1781 152.616 26.1523 152.657C26.1333 152.682 26.1171 152.709 26.104 152.738L30.5887 145.857Z" stroke="#1D1D1B" stroke-width="2" stroke-miterlimit="10"/>
<path fill-rule="evenodd" clip-rule="evenodd" d="M26.2768 152.449C26.4057 152.046 26.0029 151.579 25.4443 151.219L25.0469 151.487C25.4873 151.745 25.8257 152.078 25.7451 152.223C25.5799 152.46 25.4446 152.716 25.3423 152.986C25.4968 153.019 25.6578 153.005 25.8043 152.946C25.9508 152.886 26.0761 152.784 26.164 152.653L26.2768 152.449Z" fill="#4F4849"/>
<path fill-rule="evenodd" clip-rule="evenodd" d="M26.2197 152.529C26.3486 152.131 25.9458 151.664 25.3818 151.299L24.9844 151.573C25.4302 151.831 25.7685 152.164 25.688 152.309C25.5132 152.543 25.3705 152.799 25.2637 153.071C25.4182 153.104 25.5789 153.089 25.7253 153.03C25.8716 152.971 25.997 152.869 26.0854 152.738L26.2197 152.529Z" stroke="#1D1D1B" stroke-width="2" stroke-miterlimit="10"/>
<path fill-rule="evenodd" clip-rule="evenodd" d="M25.3642 154.011C25.2626 153.684 25.2626 153.333 25.3642 153.006C25.4665 152.736 25.6018 152.48 25.7671 152.244C25.8476 152.099 25.5092 151.766 25.0688 151.508C24.888 151.934 24.7478 152.376 24.6499 152.829C24.6016 153.033 24.5479 153.269 24.4941 153.533C24.2578 154.639 27.1366 158.211 29.097 160.23L29.3548 160.493C29.7362 160.917 30.1651 161.296 30.6331 161.621C30.6319 161.493 30.6157 161.365 30.5848 161.24C30.5611 161.12 30.5233 161.002 30.472 160.891C30.0101 159.688 25.6489 154.945 25.3642 154.011Z" fill="#B5B6B6"/>
<path fill-rule="evenodd" clip-rule="evenodd" d="M25.3065 154.059C25.2049 153.732 25.2049 153.382 25.3065 153.055C25.4066 152.784 25.5421 152.528 25.7094 152.292C25.7899 152.147 25.4515 151.814 25.0058 151.557C24.8291 151.984 24.6907 152.426 24.5922 152.878C24.5439 153.082 24.4901 153.313 24.4311 153.581C24.2001 154.656 27.0736 158.26 29.0393 160.279C29.1253 160.372 29.2112 160.458 29.2971 160.537C29.6907 160.966 30.1343 161.346 30.6184 161.67C30.6172 161.542 30.601 161.414 30.57 161.289C30.5407 161.168 30.503 161.05 30.4573 160.934C29.9524 159.753 25.5912 155.01 25.3065 154.059Z" stroke="#1D1D1B" stroke-width="2" stroke-miterlimit="10"/>
<path fill-rule="evenodd" clip-rule="evenodd" d="M18.2815 166.831C17.5135 167.733 8.66216 193.449 9.19925 193.218C9.73634 192.987 29.0234 163.528 28.3466 163.259C26.252 162.421 19.4255 165.504 18.2815 166.831Z" fill="#EDEDEE"/>
</g>
<path fill-rule="evenodd" clip-rule="evenodd" d="M6.86475 21.7742C4.35853 12.3593 5.68899 5.12359 6.31665 2.61295C5.76856 2.31828 5.2072 2.00003 4.63258 1.6582C4.63258 1.6582 1.60037 10.5515 5.21162 22.8793L6.86475 21.7742Z" fill="#C6C6C5"/>
<path fill-rule="evenodd" clip-rule="evenodd" d="M6.86475 21.7742C4.35853 12.3593 5.68899 5.12359 6.31665 2.61295C5.76856 2.31828 5.2072 2.00003 4.63258 1.6582C4.63258 1.6582 1.60037 10.5515 5.21162 22.8793L6.86475 21.7742Z" stroke="#1D1D1B" stroke-width="2" stroke-miterlimit="10"/>
<path fill-rule="evenodd" clip-rule="evenodd" d="M22.4991 12.5547C22.4991 12.5547 20.9123 25.2758 21.3101 34.4211C21.7079 43.5663 22.1013 51.1203 22.4991 51.1203C22.8969 51.1203 28.3558 49.3258 28.3558 49.3258C28.3558 49.3258 27.2729 37.6036 27.6707 32.432C28.0685 27.2605 30.0531 14.5437 30.0531 14.5437L22.4991 12.5547Z" fill="#EFDC70"/>
<path fill-rule="evenodd" clip-rule="evenodd" d="M22.4991 12.5547C22.4991 12.5547 20.9123 25.2758 21.3101 34.4211C21.7079 43.5663 22.1013 51.1203 22.4991 51.1203C22.8969 51.1203 28.3558 49.3258 28.3558 49.3258C28.3558 49.3258 27.2729 37.6036 27.6707 32.432C28.0685 27.2605 30.0531 14.5437 30.0531 14.5437L22.4991 12.5547Z" stroke="#1D1D1B" stroke-width="2" stroke-miterlimit="10"/>
<path fill-rule="evenodd" clip-rule="evenodd" d="M32.5862 14.7427L33.0282 8.51034C33.0282 8.51034 33.0768 8.35563 32.869 8.20535C32.7081 7.99531 32.5028 7.82328 32.2679 7.70145C31.7331 7.44066 22.6099 7.07821 22.2386 7.18872C22.0044 7.25944 21.7966 7.34342 21.5314 7.41414C18.5655 7.1622 13.1331 6.67156 4.63323 1.66797C4.63323 1.66797 1.60102 10.5613 5.22553 22.8846L6.8654 21.7752C10.5164 18.7429 17.8096 12.3912 21.5668 14.9018L31.5297 15.4455H32.2635C32.2635 15.4455 32.5066 15.5118 32.5862 14.7427Z" fill="#3E3A39"/>
<path fill-rule="evenodd" clip-rule="evenodd" d="M32.5862 14.7427L33.0282 8.51034C33.0282 8.51034 33.0768 8.35563 32.869 8.20535C32.7081 7.99531 32.5028 7.82328 32.2679 7.70145C31.7331 7.44066 22.6099 7.07821 22.2386 7.18872C22.0044 7.25944 21.7966 7.34342 21.5314 7.41414C18.5655 7.1622 13.1331 6.67156 4.63323 1.66797C4.63323 1.66797 1.60102 10.5613 5.22553 22.8846L6.8654 21.7752C10.5164 18.7429 17.8096 12.3912 21.5668 14.9018L31.5297 15.4455H32.2635C32.2635 15.4455 32.5066 15.5118 32.5862 14.7427Z" stroke="#1D1D1B" stroke-width="2" stroke-miterlimit="10"/>
<path fill-rule="evenodd" clip-rule="evenodd" d="M28.2284 47.9551C26.0581 48.2159 23.2381 48.6756 21.3816 48.9894C21.4082 49.259 21.4347 49.5154 21.4568 49.7718C21.8281 53.5996 22.6944 61.6265 22.0756 66.1262C22.0756 66.1262 21.3507 70.8072 19.7904 74.2195C19.7904 74.2195 19.0788 75.961 19.1495 76.4296C19.5561 79.0242 25.1078 80.5138 27.4903 80.5138C27.6188 80.5246 27.7481 80.5072 27.8691 80.4627C27.9902 80.4183 28.1 80.3479 28.191 80.2565C28.282 80.1651 28.3518 80.055 28.3957 79.9337C28.4396 79.8124 28.4564 79.6831 28.445 79.5546C28.445 78.5291 28.5378 72.4824 28.75 69.3883C28.9622 66.2942 29.2274 58.2893 28.75 53.1532C28.5732 51.5089 28.3964 49.732 28.2284 47.9551Z" fill="#3E3A39"/>
<path fill-rule="evenodd" clip-rule="evenodd" d="M28.2284 47.9551C26.0581 48.2159 23.2381 48.6756 21.3816 48.9894C21.4082 49.259 21.4347 49.5154 21.4568 49.7718C21.8281 53.5996 22.6944 61.6265 22.0756 66.1262C22.0756 66.1262 21.3507 70.8072 19.7904 74.2195C19.7904 74.2195 19.0788 75.961 19.1495 76.4296C19.5561 79.0242 25.1078 80.5138 27.4903 80.5138C27.6188 80.5246 27.7481 80.5072 27.8691 80.4627C27.9902 80.4183 28.1 80.3479 28.191 80.2565C28.282 80.1651 28.3518 80.055 28.3957 79.9337C28.4396 79.8124 28.4564 79.6831 28.445 79.5546C28.445 78.5291 28.5378 72.4824 28.75 69.3883C28.9622 66.2942 29.2274 58.2893 28.75 53.1532C28.5732 51.5089 28.3964 49.732 28.2284 47.9551Z" stroke="#1D1D1B" stroke-width="2" stroke-miterlimit="10"/>
<path fill-rule="evenodd" clip-rule="evenodd" d="M23.6271 48.6172L21.3816 48.9885C21.4082 49.2581 21.4347 49.5145 21.4568 49.7708C21.8281 53.5987 22.6944 61.6256 22.0756 66.1253C22.0756 66.1253 21.3507 70.8063 19.7904 74.2186C19.7904 74.2186 19.0788 75.9601 19.1495 76.4287C19.5429 78.9437 24.7675 80.4068 27.2604 80.5085C25.6427 79.6996 21.417 77.6796 20.944 76.6364C20.3385 75.3104 24.2415 70.2405 24.2591 61.0024C24.2636 56.6928 23.9718 52.6793 23.6271 48.6172Z" fill="#373331"/>
<path fill-rule="evenodd" clip-rule="evenodd" d="M23.6271 48.6172L21.3816 48.9885C21.4082 49.2581 21.4347 49.5145 21.4568 49.7708C21.8281 53.5987 22.6944 61.6256 22.0756 66.1253C22.0756 66.1253 21.3507 70.8063 19.7904 74.2186C19.7904 74.2186 19.0788 75.9601 19.1495 76.4287C19.5429 78.9437 24.7675 80.4068 27.2604 80.5085C25.6427 79.6996 21.417 77.6796 20.944 76.6364C20.3385 75.3104 24.2415 70.2405 24.2591 61.0024C24.2636 56.6928 23.9718 52.6793 23.6271 48.6172Z" stroke="#1D1D1B" stroke-width="2" stroke-miterlimit="10"/>
<path fill-rule="evenodd" clip-rule="evenodd" d="M21.382 48.9885C22.1184 48.7915 22.8671 48.6438 23.623 48.5464C23.2252 43.8434 22.77 39.0918 22.6506 33.8628C22.5003 27.3917 23.3357 19.5636 23.8794 15.0286L21.5677 14.9004C20.7365 20.1143 20.3314 25.3873 20.3566 30.667C20.341 36.7889 20.6834 42.9065 21.382 48.9885Z" fill="#DDBD57"/>
<path fill-rule="evenodd" clip-rule="evenodd" d="M21.382 48.9885C22.1184 48.7915 22.8671 48.6438 23.623 48.5464C23.2252 43.8434 22.77 39.0918 22.6506 33.8628C22.5003 27.3917 23.3357 19.5636 23.8794 15.0286L21.5677 14.9004C20.7365 20.1143 20.3314 25.3873 20.3566 30.667C20.341 36.7889 20.6834 42.9065 21.382 48.9885V48.9885Z" stroke="#1D1D1B" stroke-width="2" stroke-miterlimit="10"/>
<path fill-rule="evenodd" clip-rule="evenodd" d="M6.42969 20.0068C6.55787 20.5903 6.70374 21.1782 6.8717 21.7749C10.5139 18.7427 17.8071 12.3909 21.5642 14.9016L23.8848 15.0298L29.9934 15.3613H30.2012L29.9934 15.3348C29.2862 15.2508 26.9214 14.9502 24.7953 14.5391C24.013 14.3888 23.2616 14.2253 22.6383 14.0529C19.9862 13.3148 18.311 12.6208 15.071 13.9513C12.8654 14.8662 8.80772 18.0443 6.42969 20.0068Z" fill="#373331"/>
<path fill-rule="evenodd" clip-rule="evenodd" d="M28.7207 16.8773C27.531 16.7596 26.3359 16.705 25.1404 16.7138C25.1404 16.7138 23.9337 26.3497 24.2033 33.0683C24.473 39.7869 24.1017 47.0624 24.8045 46.9254C25.5073 46.7884 27.0499 46.6911 27.0499 46.6911C27.0499 46.6911 25.9758 35.075 27.0499 28.9841C28.124 22.8931 28.7914 20.9129 28.8887 19.3084C28.9702 18.4944 28.9134 17.6724 28.7207 16.8773Z" fill="#EFDC70"/>
<path fill-rule="evenodd" clip-rule="evenodd" d="M27.5858 49.2012C27.2499 49.2675 24.7083 49.4354 24.7083 49.4354C24.7083 49.4354 25.6763 59.2084 24.7746 65.6706C23.8729 72.1328 21.8264 74.6081 22.3612 75.8811C22.8961 77.1541 27.1394 80.036 27.2234 79.1653C27.9792 70.8642 29.1461 56.9364 27.5858 49.2012Z" fill="#3F3E3D"/>
<defs>
<linearGradient id="paint0_linear_830_418" x1="-14.2174" y1="260.161" x2="31.4552" y2="260.699" gradientUnits="userSpaceOnUse">
<stop stop-color="#F8BB03"/>
<stop offset="0.01" stop-color="#F8BB03"/>
<stop offset="0.98" stop-color="#F39D05"/>
<stop offset="1" stop-color="#F39D05"/>
</linearGradient>
<clipPath id="clip0_830_418">
<rect width="42.4355" height="80" fill="white" transform="translate(0 232)"/>
</clipPath>
<clipPath id="clip1_830_418">
<rect width="37.8651" height="80" fill="white" transform="translate(7 117)"/>
</clipPath>
</defs>
</svg>
