<svg width="75" height="245" viewBox="0 0 75 245" fill="none" xmlns="http://www.w3.org/2000/svg">
<g clip-path="url(#clip0_830_417)">
<path d="M59.8497 169.597H55.0664V116.191C55.0664 115.557 55.3184 114.949 55.7669 114.5C56.2154 114.052 56.8237 113.8 57.4581 113.8C58.0924 113.8 58.7007 114.052 59.1492 114.5C59.5977 114.949 59.8497 115.557 59.8497 116.191V169.597Z" fill="#C9C6C6"/>
<path d="M57.4581 113.8C56.8237 113.8 56.2154 114.052 55.7669 114.5C55.3184 114.949 55.0664 115.557 55.0664 116.191V169.597H57.4581V113.8Z" fill="#B4B3B3"/>
<path d="M21.9317 169.597H17.1484V116.191C17.1484 115.557 17.4004 114.949 17.8489 114.5C18.2975 114.052 18.9058 113.8 19.5401 113.8C20.1744 113.8 20.7827 114.052 21.2312 114.5C21.6797 114.949 21.9317 115.557 21.9317 116.191V169.597Z" fill="#C9C6C6"/>
<path d="M19.5401 113.8C18.9058 113.8 18.2975 114.052 17.8489 114.5C17.4004 114.949 17.1484 115.557 17.1484 116.191V169.597H19.5401V113.8Z" fill="#B4B3B3"/>
<path d="M59.8497 169.597H55.0664V116.191C55.0664 115.557 55.3184 114.949 55.7669 114.5C56.2154 114.052 56.8237 113.8 57.4581 113.8V113.8C58.0924 113.8 58.7007 114.052 59.1492 114.5C59.5977 114.949 59.8497 115.557 59.8497 116.191V169.597Z" stroke="#1D1D1B" stroke-width="2" stroke-miterlimit="10"/>
<path d="M57.4581 113.8C56.8237 113.8 56.2154 114.052 55.7669 114.5C55.3184 114.949 55.0664 115.557 55.0664 116.191V169.597H57.4581V113.8Z" stroke="#1D1D1B" stroke-width="2" stroke-miterlimit="10"/>
<path d="M21.9317 169.597H17.1484V116.191C17.1484 115.557 17.4004 114.949 17.8489 114.5C18.2975 114.052 18.9058 113.8 19.5401 113.8V113.8C20.1744 113.8 20.7827 114.052 21.2312 114.5C21.6797 114.949 21.9317 115.557 21.9317 116.191V169.597Z" stroke="#1D1D1B" stroke-width="2" stroke-miterlimit="10"/>
<path d="M19.5401 113.8C18.9058 113.8 18.2975 114.052 17.8489 114.5C17.4004 114.949 17.1484 115.557 17.1484 116.191V169.597H19.5401V113.8Z" stroke="#1D1D1B" stroke-width="2" stroke-miterlimit="10"/>
<path d="M69.516 120.495H7.47656V131.339H69.516V120.495Z" fill="#EFDC70"/>
<path d="M11.4239 120.495L7.47656 124.442V131.339H9.02455L19.8682 120.495H11.4239Z" fill="#454444"/>
<path d="M22.624 131.339L33.4676 120.495H25.0233L14.1797 131.339H22.624Z" fill="#454444"/>
<path d="M36.2255 131.339L47.0692 120.495H38.6249L27.7812 131.339H36.2255Z" fill="#454444"/>
<path d="M49.8232 131.339L60.6668 120.495H52.2226L41.3789 131.339H49.8232Z" fill="#454444"/>
<path d="M63.4208 131.339L69.5199 125.244V120.495H65.8202L54.9766 131.339H63.4208Z" fill="#454444"/>
<path d="M69.516 136.984H7.47656V147.828H69.516V136.984Z" fill="#EFDC70"/>
<path d="M11.4239 136.984L7.47656 140.932V147.828H9.02455L19.8682 136.984H11.4239Z" fill="#454444"/>
<path d="M22.624 147.828L33.4676 136.984H25.0233L14.1797 147.828H22.624Z" fill="#454444"/>
<path d="M36.2255 147.828L47.0692 136.984H38.6249L27.7812 147.828H36.2255Z" fill="#454444"/>
<path d="M49.8232 147.828L60.6668 136.984H52.2226L41.3789 147.828H49.8232Z" fill="#454444"/>
<path d="M63.4208 147.828L69.5199 141.733V136.984H65.8202L54.9766 147.828H63.4208Z" fill="#454444"/>
<path d="M12.2272 117.709H10.625V120.499H12.2272V117.709Z" stroke="#1D1D1B" stroke-width="2" stroke-miterlimit="10"/>
<path d="M13.8293 117.709H10.625V120.499H13.8293V117.709Z" fill="#C9C6C6"/>
<path d="M12.2272 117.709H10.625V120.499H12.2272V117.709Z" fill="#B4B3B3"/>
<path d="M13.8293 117.709H10.625V120.499H13.8293V117.709Z" stroke="#1D1D1B" stroke-width="2" stroke-miterlimit="10"/>
<path d="M16.4967 115.038C16.8894 112.681 15.2971 110.452 12.94 110.059C10.583 109.667 8.35386 111.259 7.96112 113.616C7.56838 115.973 9.16075 118.202 11.5178 118.595C13.8748 118.988 16.104 117.395 16.4967 115.038Z" fill="#454444"/>
<path d="M8.8086 114.326C8.80783 113.65 9.00759 112.989 9.38261 112.427C9.75763 111.864 10.2911 111.426 10.9154 111.167C11.5397 110.907 12.2269 110.839 12.8901 110.97C13.5532 111.102 14.1624 111.427 14.6407 111.905C15.119 112.383 15.4448 112.991 15.577 113.654C15.7092 114.317 15.6417 115.005 15.3832 115.629C15.1247 116.254 14.6867 116.788 14.1247 117.163C13.5626 117.539 12.9018 117.74 12.2258 117.74C11.3202 117.74 10.4516 117.38 9.81083 116.74C9.1701 116.1 8.80962 115.232 8.8086 114.326Z" fill="#F08819"/>
<path opacity="0.3" d="M12.2275 110.909C11.5368 110.909 10.8622 111.118 10.2929 111.509C9.72358 111.9 9.28634 112.455 9.03895 113.1C8.79155 113.745 8.74564 114.45 8.90727 115.121C9.0689 115.793 9.43047 116.399 9.94421 116.861L14.7623 112.039C14.443 111.683 14.0522 111.399 13.6154 111.204C13.1786 111.009 12.7057 110.909 12.2275 110.909Z" fill="white"/>
<path d="M66.7981 117.709H63.5938V120.499H66.7981V117.709Z" fill="#C9C6C6"/>
<path d="M65.1959 117.709H63.5938V120.499H65.1959V117.709Z" fill="#B4B3B3"/>
<path d="M65.1959 117.709H63.5938V120.499H65.1959V117.709Z" stroke="#1D1D1B" stroke-width="2" stroke-miterlimit="10"/>
<path d="M66.7981 117.709H63.5938V120.499H66.7981V117.709Z" stroke="#1D1D1B" stroke-width="2" stroke-miterlimit="10"/>
<path d="M68.4728 117.144C70.03 115.331 69.8232 112.6 68.0108 111.043C66.1984 109.485 63.4668 109.692 61.9095 111.504C60.3523 113.317 60.5591 116.049 62.3715 117.606C64.1839 119.163 66.9155 118.956 68.4728 117.144Z" fill="#454444"/>
<path d="M61.7773 114.326C61.7766 113.65 61.9763 112.989 62.3514 112.427C62.7264 111.864 63.2598 111.426 63.8841 111.167C64.5085 110.907 65.1957 110.839 65.8588 110.97C66.5219 111.102 67.1312 111.427 67.6095 111.905C68.0878 112.383 68.4136 112.991 68.5458 113.654C68.6779 114.317 68.6105 115.005 68.352 115.629C68.0934 116.254 67.6555 116.788 67.0934 117.163C66.5314 117.539 65.8705 117.74 65.1945 117.74C64.2889 117.74 63.4203 117.38 62.7796 116.74C62.1388 116.1 61.7784 115.232 61.7773 114.326Z" fill="#F08819"/>
<path opacity="0.3" d="M65.1962 110.909C64.5051 110.908 63.83 111.117 63.2601 111.508C62.6902 111.898 62.2524 112.453 62.0045 113.098C61.7566 113.743 61.7104 114.448 61.8719 115.12C62.0334 115.792 62.3951 116.399 62.9091 116.861L67.731 112.039C67.4114 111.684 67.0205 111.399 66.5838 111.205C66.1471 111.01 65.6743 110.909 65.1962 110.909Z" fill="white"/>
<path d="M69.4301 120.511H7.39062V131.354H69.4301V120.511Z" stroke="#1D1D1B" stroke-width="2" stroke-miterlimit="10"/>
<path d="M69.4301 137H7.39062V147.844H69.4301V137Z" stroke="#1D1D1B" stroke-width="2" stroke-miterlimit="10"/>
</g>
<g clip-path="url(#clip1_830_417)">
<path d="M74.3267 37.5581L37.4453 0.676758L0.563956 37.5581L37.4453 74.4395L74.3267 37.5581Z" fill="#EFDC70"/>
<path d="M37.4416 71.3051L3.69531 37.5588L37.4416 3.8125L71.1879 37.5588L37.4416 71.3051ZM5.32375 37.5588L37.4416 69.6766L69.5594 37.5588L37.4416 5.44094L5.32375 37.5588Z" fill="#454444"/>
<path d="M36.332 8.20358C36.3312 7.97897 36.397 7.75916 36.5213 7.57204C36.6455 7.38492 36.8226 7.23893 37.0299 7.15257C37.2373 7.06622 37.4656 7.0434 37.6859 7.087C37.9063 7.13061 38.1087 7.23868 38.2675 7.39751C38.4263 7.55633 38.5344 7.75875 38.578 7.97909C38.6216 8.19943 38.5988 8.42775 38.5124 8.6351C38.4261 8.84245 38.2801 9.01948 38.093 9.14372C37.9059 9.26797 37.6861 9.33384 37.4614 9.33298C37.1623 9.33182 36.8757 9.21246 36.6641 9.00091C36.4526 8.78935 36.3332 8.50276 36.332 8.20358Z" fill="#454444"/>
<path d="M36.332 66.7969C36.332 66.5724 36.3986 66.3531 36.5234 66.1665C36.6482 65.98 36.8255 65.8347 37.033 65.749C37.2404 65.6633 37.4686 65.6411 37.6886 65.6852C37.9087 65.7293 38.1107 65.8377 38.2691 65.9967C38.4275 66.1557 38.5351 66.3581 38.5783 66.5784C38.6216 66.7986 38.5985 67.0267 38.512 67.2338C38.4255 67.4409 38.2795 67.6176 38.0925 67.7417C37.9055 67.8657 37.6859 67.9315 37.4614 67.9306C37.3128 67.9306 37.1655 67.9013 37.0282 67.8442C36.8909 67.7872 36.7662 67.7036 36.6613 67.5983C36.5564 67.493 36.4732 67.3679 36.4167 67.2304C36.3603 67.0929 36.3315 66.9455 36.332 66.7969Z" fill="#454444"/>
<path d="M66.7388 36.3682C66.9632 36.3673 67.1828 36.4331 67.3699 36.5571C67.5569 36.6812 67.7029 36.8579 67.7894 37.065C67.8758 37.2721 67.8989 37.5002 67.8557 37.7204C67.8124 37.9407 67.7048 38.1431 67.5464 38.3021C67.388 38.4611 67.186 38.5695 66.966 38.6136C66.7459 38.6577 66.5177 38.6355 66.3103 38.5498C66.1029 38.4642 65.9255 38.3188 65.8008 38.1323C65.676 37.9458 65.6094 37.7264 65.6094 37.5019C65.6094 37.202 65.7282 36.9143 65.9399 36.7018C66.1516 36.4893 66.4388 36.3693 66.7388 36.3682Z" fill="#454444"/>
<path d="M8.14645 36.3682C8.37031 36.37 8.58864 36.4379 8.77394 36.5636C8.95923 36.6892 9.10319 36.8669 9.18766 37.0742C9.27213 37.2815 9.29334 37.5092 9.24861 37.7285C9.20387 37.9479 9.09521 38.1491 8.9363 38.3068C8.7774 38.4644 8.57537 38.5716 8.35568 38.6146C8.13599 38.6576 7.90848 38.6347 7.70182 38.5486C7.49516 38.4626 7.3186 38.3172 7.1944 38.131C7.0702 37.9447 7.00392 37.7259 7.00392 37.502C7.00332 37.3522 7.03254 37.2038 7.08986 37.0654C7.14717 36.927 7.23145 36.8014 7.33778 36.6959C7.44411 36.5904 7.57036 36.5071 7.70919 36.4508C7.84803 36.3946 7.99666 36.3665 8.14645 36.3682Z" fill="#454444"/>
<path d="M23.4388 46.7207H22.2656L23.1061 47.5656H23.1017L22.2656 48.3973L23.43 48.406L24.2705 47.5656L23.4388 46.7207Z" fill="#454444"/>
<path d="M25.4427 46.7207H24.2695L25.1144 47.5656H25.1056L24.2695 48.3973L25.434 48.406L26.2788 47.5656L25.4427 46.7207Z" fill="#454444"/>
<path d="M27.4461 46.7207H26.2773L27.1178 47.5656H27.1134L26.2773 48.3973L27.4418 48.406L28.2822 47.5656L27.4461 46.7207Z" fill="#454444"/>
<path d="M29.4583 46.7207H28.2852L29.1256 47.5656H29.1213L28.2852 48.3973L29.4496 48.406L30.2944 47.5656L29.4583 46.7207Z" fill="#454444"/>
<path d="M31.4618 46.7207H30.293L31.1335 47.5656H31.1247L30.293 48.3973L31.4574 48.406L32.2979 47.5656L31.4618 46.7207Z" fill="#454444"/>
<path d="M33.47 46.7207H32.2969L33.1374 47.5656H33.133L32.2969 48.3973L33.4613 48.406L34.3018 47.5656L33.47 46.7207Z" fill="#454444"/>
<path d="M35.474 46.7207H34.3008L35.1456 47.5656H35.1369L34.3008 48.3973L35.4652 48.406L36.3101 47.5656L35.474 46.7207Z" fill="#454444"/>
<path d="M37.4857 46.7207H36.3125L37.153 47.5656H37.1486L36.3125 48.3973L37.4769 48.406L38.3174 47.5656L37.4857 46.7207Z" fill="#454444"/>
<path d="M39.4896 46.7207H38.3164L39.1613 47.5656H39.1525L38.3164 48.3973L39.4808 48.406L40.3257 47.5656L39.4896 46.7207Z" fill="#454444"/>
<path d="M41.493 46.7207H40.3242L41.1647 47.5656H41.1603L40.3242 48.3973L41.4886 48.406L42.3291 47.5656L41.493 46.7207Z" fill="#454444"/>
<path d="M43.5052 46.7207H42.332L43.1769 47.5656H43.1681L42.332 48.3973L43.4965 48.406L44.3413 47.5656L43.5052 46.7207Z" fill="#454444"/>
<path d="M45.5086 46.7207H44.3398L45.1803 47.5656H45.1716L44.3398 48.3973L45.5043 48.406L46.3447 47.5656L45.5086 46.7207Z" fill="#454444"/>
<path d="M47.5169 46.7207H46.3438L47.1842 47.5656H47.1799L46.3438 48.3973L47.5082 48.406L48.3487 47.5656L47.5169 46.7207Z" fill="#454444"/>
<path d="M49.5247 46.7207H48.3516L49.1964 47.5656H49.1877L48.3516 48.3973L49.516 48.406L50.3608 47.5656L49.5247 46.7207Z" fill="#454444"/>
<path d="M18.8817 29.1543V34.5386C18.8444 34.9866 18.9807 35.4317 19.2625 35.7819C19.4134 35.9347 19.5956 36.0531 19.7966 36.1286C19.9977 36.2042 20.2127 36.2353 20.4269 36.2196C20.6437 36.2341 20.861 36.2025 21.0647 36.1271C21.2684 36.0517 21.4538 35.934 21.6089 35.7819C21.9017 35.4363 22.0492 34.9907 22.0204 34.5386V29.1543H24.2091V34.5255C24.2323 35.24 24.0549 35.9467 23.6969 36.5654C23.3718 37.1083 22.8957 37.5448 22.3268 37.8218C21.727 38.1139 21.0678 38.2637 20.4007 38.2595C19.7403 38.2662 19.0877 38.1162 18.4965 37.8218C17.9436 37.5428 17.4864 37.1054 17.1832 36.5654C16.8426 35.9392 16.6749 35.2336 16.6973 34.5211V29.1543H18.8817Z" fill="#454444"/>
<path d="M33.8198 38.1545H31.631L27.9583 32.6038V38.1545H25.7695V29.1543H27.9583L31.6266 34.7313V29.1543H33.8154L33.8198 38.1545Z" fill="#454444"/>
<path d="M41.2653 29.7189C41.9493 30.0788 42.516 30.6272 42.8981 31.2992C43.2803 32.0238 43.48 32.8307 43.48 33.6499C43.48 34.4691 43.2803 35.276 42.8981 36.0006C42.5124 36.6797 41.9375 37.2318 41.2434 37.5897C40.4748 37.9785 39.6224 38.1725 38.7613 38.1544H35.3906V29.1542H38.7613C39.6299 29.1312 40.4906 29.3253 41.2653 29.7189ZM40.5736 35.576C40.8146 35.3203 41.0003 35.0177 41.1193 34.6871C41.2383 34.3565 41.288 34.0049 41.2653 33.6543C41.2991 33.3009 41.2545 32.9445 41.1345 32.6104C41.0145 32.2763 40.8221 31.9729 40.5711 31.7219C40.3201 31.4709 40.0167 31.2785 39.6826 31.1585C39.3486 31.0385 38.9921 30.9939 38.6387 31.0278H37.6013V36.2808H38.6387C38.9921 36.2997 39.3456 36.247 39.6781 36.1259C40.0106 36.0048 40.3152 35.8177 40.5736 35.576Z" fill="#454444"/>
<path d="M46.9236 30.9097V32.7307H49.8609V34.4248H46.9236V36.3991H50.2461V38.1501H44.7305V29.1543H50.2461V30.9053L46.9236 30.9097Z" fill="#454444"/>
<path d="M56.2614 38.1543L54.3878 34.7573H53.845V38.1543H51.6562V29.1541H55.3377C55.9626 29.1355 56.5831 29.2629 57.15 29.5262C57.6192 29.7435 58.0103 30.0995 58.2707 30.5462C58.5216 30.9842 58.6501 31.4816 58.6428 31.9864C58.6516 32.5607 58.4751 33.1225 58.1394 33.5886C57.771 34.0777 57.248 34.4279 56.6554 34.5822L58.7347 38.1455L56.2614 38.1543ZM53.845 33.2033H55.202C55.531 33.2292 55.8568 33.1238 56.1082 32.91C56.213 32.7996 56.2939 32.6688 56.3459 32.5256C56.3979 32.3825 56.4198 32.2303 56.4102 32.0783C56.4183 31.9298 56.3956 31.7812 56.3437 31.6419C56.2917 31.5025 56.2115 31.3754 56.1082 31.2685C55.8568 31.0547 55.531 30.9493 55.202 30.9752H53.845V33.2033Z" fill="#454444"/>
<path d="M15.3201 40.8729C15.4847 40.572 15.7304 40.3233 16.0292 40.155C16.348 39.98 16.7075 39.8924 17.0711 39.9011C17.5037 39.8894 17.9282 40.0201 18.2793 40.2732C18.6131 40.5223 18.8499 40.8798 18.949 41.2844H17.8897C17.8168 41.1285 17.6995 40.9976 17.5526 40.9079C17.406 40.8241 17.2399 40.7804 17.0711 40.781C16.9355 40.7756 16.8005 40.8003 16.6756 40.8533C16.5507 40.9063 16.4391 40.9862 16.3488 41.0874C16.1568 41.3208 16.0585 41.6173 16.073 41.9192C16.0574 42.2198 16.1559 42.5153 16.3488 42.7465C16.5013 42.9084 16.7039 43.0141 16.9239 43.0467C17.1439 43.0792 17.3685 43.0367 17.5614 42.926C17.7083 42.8363 17.8255 42.7054 17.8984 42.5495H18.9578C18.86 42.9547 18.623 43.3126 18.288 43.5607C17.9356 43.8105 17.5117 43.9395 17.0798 43.9284C16.7207 43.9349 16.3661 43.8473 16.0511 43.6745C15.7454 43.5099 15.492 43.2627 15.3201 42.961C15.1559 42.6375 15.0703 42.2798 15.0703 41.917C15.0703 41.5542 15.1559 41.1965 15.3201 40.8729Z" fill="#454444"/>
<path d="M20.3899 43.6827C20.0827 43.5111 19.8272 43.2601 19.6501 42.9561C19.4723 42.6368 19.3789 42.2775 19.3789 41.912C19.3789 41.5466 19.4723 41.1872 19.6501 40.868C19.8285 40.566 20.0838 40.3168 20.3899 40.1457C20.704 39.9764 21.0553 39.8877 21.4121 39.8877C21.7689 39.8877 22.1202 39.9764 22.4342 40.1457C22.7399 40.3159 22.994 40.5654 23.1697 40.868C23.3483 41.1859 23.4404 41.5452 23.4367 41.9098C23.4415 42.2766 23.3478 42.6379 23.1653 42.9561C22.9914 43.2597 22.7389 43.5107 22.4342 43.6827C22.1202 43.8521 21.7689 43.9407 21.4121 43.9407C21.0553 43.9407 20.704 43.8521 20.3899 43.6827ZM22.1716 42.7459C22.3562 42.5063 22.4563 42.2123 22.4563 41.9098C22.4563 41.6074 22.3562 41.3134 22.1716 41.0737C21.968 40.8748 21.6946 40.7634 21.4099 40.7634C21.1252 40.7634 20.8518 40.8748 20.6482 41.0737C20.4501 41.3059 20.3483 41.605 20.3637 41.9098C20.3489 42.2159 20.4506 42.5162 20.6482 42.7503C20.7461 42.8541 20.8652 42.9355 20.9974 42.9892C21.1296 43.0428 21.2718 43.0673 21.4143 43.0611C21.5558 43.0667 21.6969 43.0414 21.8276 42.9869C21.9584 42.9325 22.0758 42.8503 22.1716 42.7459Z" fill="#454444"/>
<path d="M27.5122 43.9017H26.5491L24.9513 41.459V43.9017H23.9883V39.9619H24.9513L26.5666 42.4133V39.9619H27.5297L27.5122 43.9017Z" fill="#454444"/>
<path d="M28.8663 43.8012C28.6448 43.7102 28.4536 43.5584 28.3147 43.3634C28.1747 43.1715 28.0996 42.94 28.1002 42.7024H29.1246C29.1312 42.8288 29.186 42.9479 29.2778 43.0351C29.3708 43.1163 29.4915 43.1586 29.6149 43.1533C29.7354 43.1595 29.8545 43.1239 29.9519 43.0526C29.9895 43.0217 30.0202 42.9832 30.042 42.9398C30.0639 42.8963 30.0765 42.8487 30.079 42.8001C30.0814 42.7515 30.0738 42.703 30.0564 42.6575C30.039 42.612 30.0124 42.5707 29.9782 42.5361C29.9072 42.4706 29.8258 42.4174 29.7374 42.3785C29.6027 42.3249 29.4654 42.2781 29.3259 42.2384C29.1135 42.183 28.9057 42.1113 28.7043 42.0239C28.5325 41.9438 28.3824 41.8237 28.2666 41.6737C28.1441 41.4968 28.0826 41.2847 28.0915 41.0696C28.082 40.9019 28.1138 40.7344 28.184 40.5818C28.2542 40.4292 28.3607 40.2961 28.4942 40.1941C28.7952 39.973 29.1629 39.8617 29.5361 39.8789C29.9134 39.8605 30.2857 39.9717 30.591 40.1941C30.7252 40.2976 30.8343 40.4302 30.9101 40.5818C30.9859 40.7334 31.0265 40.9001 31.0288 41.0696H29.9913C29.992 41.012 29.9798 40.9549 29.9556 40.9027C29.9314 40.8504 29.8957 40.8042 29.8512 40.7676C29.7576 40.6914 29.6391 40.6524 29.5185 40.6581C29.4173 40.6554 29.3183 40.6879 29.2384 40.7501C29.2015 40.7837 29.1726 40.8251 29.1536 40.8713C29.1347 40.9174 29.1263 40.9672 29.1289 41.0171C29.1284 41.079 29.1454 41.1398 29.1779 41.1925C29.2105 41.2451 29.2572 41.2875 29.3128 41.3148C29.4904 41.4126 29.6783 41.4904 29.8731 41.5468C30.0867 41.6169 30.2958 41.7003 30.4991 41.7963C30.6606 41.877 30.8014 41.9939 30.9106 42.1377C31.0327 42.3081 31.0929 42.515 31.0813 42.7243C31.0833 42.9406 31.0242 43.1531 30.9106 43.3372C30.7886 43.527 30.6156 43.6787 30.4116 43.7749C30.1709 43.8882 29.907 43.9437 29.6411 43.9369C29.3765 43.9418 29.1135 43.8957 28.8663 43.8012Z" fill="#454444"/>
<path d="M34.5252 39.9443V40.7104H33.4746V43.8972H32.5115V40.7104H31.4609V39.9443H34.5252Z" fill="#454444"/>
<path d="M37.0244 43.9022L36.2015 42.4094H35.9738V43.9022H35.0195V39.9624H36.6392C36.9136 39.9561 37.1858 40.0115 37.4359 40.1244C37.6407 40.2177 37.813 40.3702 37.9306 40.5621C38.0369 40.7548 38.0898 40.9725 38.0838 41.1925C38.0863 41.4452 38.0081 41.6921 37.8605 41.8973C37.6968 42.1126 37.4656 42.2667 37.2039 42.335L38.1188 43.9022H37.0244ZM35.9738 41.7134H36.5692C36.6409 41.7188 36.7131 41.71 36.7814 41.6874C36.8498 41.6649 36.913 41.6291 36.9675 41.5821C37.0133 41.5339 37.0486 41.4767 37.0712 41.4142C37.0938 41.3516 37.1032 41.2851 37.0989 41.2187C37.1031 41.1537 37.0936 41.0886 37.0709 41.0275C37.0483 40.9664 37.0131 40.9107 36.9675 40.8642C36.913 40.8172 36.8498 40.7814 36.7814 40.7588C36.7131 40.7363 36.6409 40.7275 36.5692 40.7328H35.9738V41.7134Z" fill="#454444"/>
<path d="M39.6314 39.9443V42.3126C39.6197 42.5104 39.6821 42.7055 39.8065 42.8598C39.8733 42.9263 39.9535 42.9779 40.0418 43.0112C40.1301 43.0444 40.2245 43.0584 40.3186 43.0524C40.4141 43.0583 40.5097 43.0442 40.5994 43.011C40.6891 42.9779 40.7709 42.9263 40.8396 42.8598C40.9671 42.707 41.0313 42.5112 41.019 42.3126V39.9443H41.9821V42.3082C41.9885 42.6149 41.9114 42.9175 41.7588 43.1837C41.6195 43.437 41.4076 43.6428 41.1504 43.7747C40.8864 43.8973 40.5988 43.9608 40.3077 43.9608C40.0166 43.9608 39.729 43.8973 39.465 43.7747C39.2208 43.6523 39.0182 43.4604 38.8828 43.2231C38.7361 42.955 38.6622 42.6531 38.6683 42.3476V39.9837L39.6314 39.9443Z" fill="#454444"/>
<path d="M42.7463 40.873C42.9109 40.5721 43.1566 40.3234 43.4554 40.1551C43.7701 39.9817 44.1249 39.8942 44.4842 39.9012C44.9155 39.8888 45.3389 40.0196 45.688 40.2733C46.0245 40.5207 46.2632 40.8787 46.3621 41.2845H45.3028C45.2298 41.1286 45.1126 40.9977 44.9657 40.908C44.8149 40.8228 44.6442 40.779 44.471 40.7811C44.3356 40.7763 44.2007 40.8013 44.0759 40.8542C43.9511 40.9071 43.8394 40.9868 43.7487 41.0875C43.5567 41.3209 43.4584 41.6174 43.473 41.9192C43.4574 42.2199 43.5559 42.5154 43.7487 42.7466C43.902 42.9088 44.1053 43.0147 44.3261 43.0473C44.5469 43.0798 44.7721 43.0371 44.9657 42.9261C45.1126 42.8364 45.2298 42.7055 45.3028 42.5496H46.3621C46.2653 42.9563 46.0262 43.315 45.688 43.5608C45.3376 43.8114 44.9148 43.9406 44.4842 43.9285C44.1249 43.9356 43.7701 43.848 43.4554 43.6746C43.1577 43.5068 42.9123 43.2598 42.7463 42.9611C42.5793 42.6384 42.4922 42.2804 42.4922 41.917C42.4922 41.5537 42.5793 41.1957 42.7463 40.873Z" fill="#454444"/>
<path d="M49.7982 39.9443V40.7104H48.7519V43.8972H47.7845V40.7104H46.7383V39.9443H49.7982Z" fill="#454444"/>
<path d="M51.2482 39.9443V43.8841H50.2852V39.9443H51.2482Z" fill="#454444"/>
<path d="M52.7968 43.6831C52.4887 43.5127 52.2329 43.2614 52.057 42.9564C51.8763 42.6381 51.7812 42.2784 51.7812 41.9124C51.7812 41.5464 51.8763 41.1866 52.057 40.8684C52.2342 40.5655 52.4898 40.316 52.7968 40.1461C53.1088 39.9734 53.4602 39.8844 53.8168 39.8878C54.1747 39.8849 54.5274 39.9738 54.8411 40.1461C55.1546 40.3118 55.4154 40.562 55.594 40.8684C55.7719 41.1876 55.8653 41.547 55.8653 41.9124C55.8653 42.2778 55.7719 42.6372 55.594 42.9564C55.4199 43.2613 55.1655 43.5126 54.8586 43.6831C54.5453 43.8524 54.1948 43.9411 53.8386 43.9411C53.4825 43.9411 53.132 43.8524 52.8187 43.6831H52.7968ZM54.5741 42.7463C54.7587 42.5067 54.8588 42.2127 54.8588 41.9102C54.8588 41.6077 54.7587 41.3137 54.5741 41.0741C54.4777 40.9708 54.3601 40.8895 54.2294 40.8359C54.0987 40.7822 53.9579 40.7575 53.8168 40.7633C53.6748 40.7559 53.5329 40.78 53.4012 40.8337C53.2696 40.8874 53.1514 40.9695 53.0551 41.0741C52.8549 41.3051 52.7528 41.6051 52.7705 41.9102C52.754 42.2165 52.8559 42.5174 53.0551 42.7507C53.1521 42.8543 53.2704 42.9358 53.4019 42.9894C53.5334 43.0431 53.6749 43.0676 53.8168 43.0615C53.9584 43.0676 54.0996 43.0426 54.2305 42.9881C54.3613 42.9337 54.4786 42.8511 54.5741 42.7463Z" fill="#454444"/>
<path d="M59.9155 43.9017H58.9524L57.3459 41.459V43.9017H56.3828V39.9619H57.3459L58.9568 42.4133V39.9619H59.9198L59.9155 43.9017Z" fill="#454444"/>
<path d="M74.3853 37.5015L37.5039 0.620117L0.622547 37.5015L37.5039 74.3828L74.3853 37.5015Z" stroke="#1D1D1B" stroke-width="2" stroke-miterlimit="10"/>
</g>
<g clip-path="url(#clip2_830_417)">
<path d="M38.0454 209.393C30.6272 209.395 23.5136 212.343 18.269 217.59C13.0244 222.836 10.0781 229.95 10.0781 237.369H66.0215C66.0215 233.695 65.2979 230.057 63.8919 226.663C62.486 223.268 60.4253 220.184 57.8275 217.587C55.2297 214.989 52.1456 212.928 48.7514 211.522C45.3572 210.116 41.7193 209.393 38.0454 209.393Z" fill="#EFDC70"/>
<path d="M38.0454 209.393C30.6272 209.395 23.5136 212.343 18.269 217.59C13.0244 222.836 10.0781 229.95 10.0781 237.369H66.0215C66.0215 233.695 65.2979 230.057 63.8919 226.663C62.486 223.268 60.4253 220.184 57.8275 217.587C55.2297 214.989 52.1456 212.928 48.7514 211.522C45.3572 210.116 41.7193 209.393 38.0454 209.393V209.393Z" stroke="#1D1D1B" stroke-width="2" stroke-miterlimit="10"/>
<path d="M38.0449 228.728C36.4023 228.728 34.827 228.076 33.6655 226.914C32.5041 225.753 31.8516 224.178 31.8516 222.535V211.635C31.8516 209.992 32.5041 208.417 33.6655 207.255C34.827 206.094 36.4023 205.441 38.0449 205.441C39.6875 205.441 41.2627 206.094 42.4242 207.255C43.5857 208.417 44.2382 209.992 44.2382 211.635V222.535C44.2382 224.178 43.5857 225.753 42.4242 226.914C41.2627 228.076 39.6875 228.728 38.0449 228.728Z" fill="#EDB52B"/>
<path d="M19.4655 230.214C19.5734 229.835 19.6054 229.438 19.5597 229.046C19.514 228.654 19.3915 228.275 19.1992 227.931C19.0069 227.587 18.7486 227.284 18.439 227.039C18.1294 226.795 17.7747 226.614 17.3951 226.507L12.8519 225.197C11.0181 228.992 10.0697 233.153 10.0782 237.367H17.4305L19.4655 230.214Z" fill="#EDB52B"/>
<path d="M56.6251 230.215C56.4084 229.449 56.5048 228.628 56.893 227.933C57.2812 227.238 57.9295 226.725 58.6954 226.508L63.2431 225.221C65.0765 229.015 66.0264 233.176 66.0213 237.391H58.6601L56.6251 230.215Z" fill="#EDB52B"/>
<path d="M38.0449 228.728C36.4023 228.728 34.827 228.076 33.6655 226.914C32.5041 225.753 31.8516 224.178 31.8516 222.535V211.635C31.8516 209.992 32.5041 208.417 33.6655 207.255C34.827 206.094 36.4023 205.441 38.0449 205.441V205.441C39.6875 205.441 41.2627 206.094 42.4242 207.255C43.5857 208.417 44.2382 209.992 44.2382 211.635V222.535C44.2382 224.178 43.5857 225.753 42.4242 226.914C41.2627 228.076 39.6875 228.728 38.0449 228.728V228.728Z" stroke="#1D1D1B" stroke-width="2" stroke-miterlimit="10"/>
<path d="M19.4655 230.214C19.5734 229.835 19.6054 229.438 19.5597 229.046C19.514 228.654 19.3915 228.275 19.1992 227.931C19.0069 227.587 18.7486 227.284 18.439 227.039C18.1294 226.795 17.7747 226.614 17.3951 226.507L12.8519 225.197C11.0181 228.992 10.0697 233.153 10.0782 237.367H17.4305L19.4655 230.214Z" stroke="#1D1D1B" stroke-width="2" stroke-miterlimit="10"/>
<path d="M56.6251 230.215C56.4084 229.449 56.5048 228.628 56.893 227.933C57.2812 227.238 57.9295 226.725 58.6954 226.508L63.2431 225.221C65.0765 229.015 66.0264 233.176 66.0213 237.391H58.6601L56.6251 230.215Z" stroke="#1D1D1B" stroke-width="2" stroke-miterlimit="10"/>
<path d="M70.7628 237.367H5.32595C4.28514 237.367 3.44141 238.211 3.44141 239.252V242.671C3.44141 243.712 4.28514 244.556 5.32595 244.556H70.7628C71.8036 244.556 72.6473 243.712 72.6473 242.671V239.252C72.6473 238.211 71.8036 237.367 70.7628 237.367Z" fill="#EDB52B"/>
<path d="M70.7628 237.367H5.32595C4.28514 237.367 3.44141 238.211 3.44141 239.252V242.671C3.44141 243.712 4.28514 244.556 5.32595 244.556H70.7628C71.8036 244.556 72.6473 243.712 72.6473 242.671V239.252C72.6473 238.211 71.8036 237.367 70.7628 237.367Z" stroke="#1D1D1B" stroke-width="2" stroke-miterlimit="10"/>
<path d="M44.1784 234.86C47.5645 231.473 47.5645 225.984 44.1784 222.597C40.7923 219.211 35.3023 219.211 31.9162 222.597C28.5301 225.984 28.5301 231.473 31.9162 234.86C35.3023 238.246 40.7923 238.246 44.1784 234.86Z" fill="#454444"/>
<path d="M38.046 234.797C41.3981 234.797 44.1155 232.08 44.1155 228.728C44.1155 225.376 41.3981 222.658 38.046 222.658C34.6939 222.658 31.9766 225.376 31.9766 228.728C31.9766 232.08 34.6939 234.797 38.046 234.797Z" fill="#EDB52B"/>
<path opacity="0.3" d="M38.0457 222.658C36.8012 222.656 35.586 223.036 34.5654 223.748C33.5447 224.461 32.768 225.47 32.3409 226.639C31.9137 227.808 31.8567 229.08 32.1777 230.282C32.4987 231.484 33.1821 232.559 34.1351 233.359L42.6818 224.813C42.1133 224.137 41.4036 223.594 40.6026 223.221C39.8017 222.849 38.9289 222.657 38.0457 222.658Z" fill="#EDB52B"/>
<path d="M44.1784 234.86C47.5645 231.473 47.5645 225.984 44.1784 222.597C40.7923 219.211 35.3023 219.211 31.9162 222.597C28.5301 225.984 28.5301 231.473 31.9162 234.86C35.3023 238.246 40.7923 238.246 44.1784 234.86Z" stroke="#1D1D1B" stroke-width="2" stroke-miterlimit="10"/>
<path d="M38.046 234.797C41.3981 234.797 44.1155 232.08 44.1155 228.728C44.1155 225.376 41.3981 222.658 38.046 222.658C34.6939 222.658 31.9766 225.376 31.9766 228.728C31.9766 232.08 34.6939 234.797 38.046 234.797Z" stroke="#1D1D1B" stroke-width="2" stroke-miterlimit="10"/>
<path opacity="0.3" d="M38.0457 222.658C36.8012 222.656 35.586 223.036 34.5654 223.748C33.5447 224.461 32.768 225.47 32.3409 226.639C31.9137 227.808 31.8567 229.08 32.1777 230.282C32.4987 231.484 33.1821 232.559 34.1351 233.359L42.6818 224.813C42.1133 224.137 41.4036 223.594 40.6026 223.221C39.8017 222.849 38.9289 222.657 38.0457 222.658V222.658Z" stroke="#1D1D1B" stroke-width="2" stroke-miterlimit="10"/>
</g>
<defs>
<clipPath id="clip0_830_417">
<rect width="62.8135" height="60" fill="white" transform="translate(7 110)"/>
</clipPath>
<clipPath id="clip1_830_417">
<rect width="75" height="75" fill="white"/>
</clipPath>
<clipPath id="clip2_830_417">
<rect width="70.0907" height="40" fill="white" transform="translate(3 205)"/>
</clipPath>
</defs>
</svg>
