<svg width="97" height="123" viewBox="0 0 97 123" fill="none" xmlns="http://www.w3.org/2000/svg">
<g clip-path="url(#clip0_415_1295)">
<path d="M95.7582 48.3441C95.7552 42.1178 94.5258 35.9531 92.1403 30.202C89.7547 24.4508 86.2598 19.2258 81.855 14.8254C77.4502 10.4249 72.2218 6.93508 66.4683 4.55522C60.7148 2.17535 54.5489 0.952025 48.3226 0.955084C42.0964 0.958143 35.9316 2.18753 30.1805 4.57304C24.4293 6.95856 19.2044 10.4535 14.8039 14.8583C10.4034 19.2631 6.9136 24.4915 4.53373 30.245C2.15387 35.9985 0.930541 42.1644 0.933599 48.3907C0.933599 60.9775 5.49875 72.2878 11.7129 83.1044C18.5453 94.7957 26.4988 105.794 35.461 115.946C37.069 117.784 39.053 119.255 41.2787 120.261C43.5045 121.266 45.9202 121.782 48.3625 121.773C50.8048 121.764 53.2167 121.231 55.4351 120.21C57.6536 119.188 59.6269 117.702 61.2215 115.852C68.9659 106.994 76 97.5399 82.2584 87.5764C89.0223 76.6853 95.6371 63.9681 95.7396 50.8223C95.7396 50.4124 95.7396 49.9931 95.7396 49.5832C95.7396 49.1733 95.7582 48.7447 95.7582 48.3441Z" fill="#79BF81" stroke="#231F20" stroke-width="2" stroke-miterlimit="10"/>
<path d="M53.2572 100.442C52.3256 102.138 50.5181 103.843 48.5151 103.945C46.512 104.048 44.3412 102.166 43.4375 100.442" stroke="#231F20" stroke-miterlimit="10" stroke-linecap="round"/>
<path d="M73.4241 84.995C79.3219 79.0972 80.8468 71.0599 76.83 67.0431C72.8133 63.0263 64.7759 64.5512 58.8781 70.449C52.9803 76.3468 51.4554 84.3842 55.4722 88.4009C59.489 92.4177 67.5263 90.8928 73.4241 84.995Z" fill="#02925D"/>
<path d="M73.4241 84.995C79.3219 79.0972 80.8468 71.0599 76.83 67.0431C72.8133 63.0263 64.7759 64.5512 58.8781 70.449C52.9803 76.3468 51.4554 84.3842 55.4722 88.4009C59.489 92.4177 67.5263 90.8928 73.4241 84.995Z" fill="#231F20"/>
<path d="M76.0892 74.4209C75.4668 76.3995 74.3623 78.1924 72.875 79.6382" stroke="white" stroke-miterlimit="10" stroke-linecap="round"/>
<path d="M41.2167 88.3963C45.2335 84.3796 43.7086 76.3423 37.8108 70.4445C31.913 64.5467 23.8757 63.0218 19.8589 67.0385C15.8422 71.0553 17.367 79.0926 23.2648 84.9904C29.1626 90.8882 37.2 92.4131 41.2167 88.3963Z" fill="#02925D"/>
<path d="M41.2167 88.3963C45.2335 84.3796 43.7086 76.3423 37.8108 70.4445C31.913 64.5467 23.8757 63.0218 19.8589 67.0385C15.8422 71.0553 17.367 79.0926 23.2648 84.9904C29.1626 90.8882 37.2 92.4131 41.2167 88.3963Z" fill="#231F20"/>
<path d="M20.6016 74.4209C21.224 76.3995 22.3285 78.1924 23.8158 79.6382" stroke="white" stroke-miterlimit="10" stroke-linecap="round"/>
</g>
<defs>
<clipPath id="clip0_415_1295">
<rect width="96.688" height="122.7" fill="white"/>
</clipPath>
</defs>
</svg>
