<svg width="154" height="250" viewBox="0 0 154 250" fill="none" xmlns="http://www.w3.org/2000/svg">
<path d="M63.5772 0.535476C70.1291 2.58651 76.6811 4.69451 83.4608 5.777C99.1854 8.34079 114.283 14.4369 124.197 26.5722C137.186 42.4676 135.534 70.6123 117.075 79.5571C102.49 86.5648 79.0168 83.4883 75.6554 99.2698C74.2881 105.594 77.1938 112.089 82.4353 115.849C94.4566 124.509 108.814 121.546 121.975 124.908C147.043 131.289 161.286 163.934 148.923 186.666C136.56 209.399 101.464 215.153 82.4353 197.548C78.5611 193.959 75.1997 189.515 70.471 187.179C57.5951 180.684 42.6111 192.421 35.7743 205.126C28.9375 217.831 24.9494 233.156 13.2699 241.645C4.21124 248.197 -7.58217 249.166 -18.7489 249.679C-32.4794 250.305 -46.6087 250.419 -59.6555 246.146C-72.7594 241.873 -84.8376 232.302 -88.7118 219.084C-93.7254 202.049 -84.3817 183.077 -90.0221 166.27C-98.9668 139.55 -138.62 134.821 -149.958 109.012C-155.826 95.6235 -152.351 80.0129 -146.767 66.4533C-138.848 47.1964 -125.516 28.5662 -105.804 22.0143C-84.8376 15.0636 -62.3333 23.2108 -41.2532 29.7627C-20.1732 36.3146 4.55319 40.6445 22.4997 27.7686C30.6468 21.9574 36.2302 13.2405 43.8646 6.80251C49.5049 1.9598 57.4811 -1.34463 63.5772 0.535476Z" fill="#F9E5D1"/>
</svg>
