<svg width="1512" height="1683" viewBox="0 0 1512 1683" fill="none" xmlns="http://www.w3.org/2000/svg">
<g clip-path="url(#clip0_663_481)">
<path d="M0.308594 220.095C98.5556 188.134 198.65 159.329 299.793 130.87C399.215 102.983 485.052 56.7722 563.851 0.573242" stroke="#C68E5C" stroke-miterlimit="10"/>
<path d="M0.308594 670.992C237.126 612.556 478.336 687.212 719.532 715.445C1027.34 750.07 1058.12 377.186 1153.26 173.432C1182.27 111.946 1216.97 52.6172 1260.24 0.573242" stroke="#C68E5C" stroke-miterlimit="10"/>
<path d="M0.308594 384.75C134.989 350.232 274.077 326.807 415.851 310.6C566.957 293.287 694.278 217.379 786.621 97.5231C811.805 65.0688 836.052 32.5614 860.229 0.573242" stroke="#C68E5C" stroke-miterlimit="10"/>
<path d="M0.308594 1558.99C26.179 1563.07 51.2217 1570.97 74.5325 1582.4C210.248 1648.99 343.166 1722.23 498.47 1708.91C743.318 1686.27 954.587 1579.74 1158.86 1439.9C1299.01 1342.89 1408.35 1231.2 1511.44 1112.45" stroke="#C68E5C" stroke-miterlimit="10"/>
<path d="M0.308594 944.582C174.752 864.678 392.947 870.577 548.768 996.439C613.128 1048.38 660.699 1116.29 743.248 1136.27C881.762 1170.9 992.293 1067.02 1074.84 973.8C1241.34 784.694 1281.91 550.31 1375.66 330.575C1405.79 258.939 1452.12 194.497 1511.37 141.829" stroke="#C68E5C" stroke-miterlimit="10"/>
<path d="M119.193 0.573242C79.5321 16.9624 39.904 33.2672 0.308594 49.4876" stroke="#C68E5C" stroke-miterlimit="10"/>
<path d="M0.308594 1086.98C34.4101 1071.84 68.479 1056.3 102.515 1040.37C274.608 960.47 469.088 1040.37 557.233 1198.85C582.417 1245.46 622.992 1285.41 678.958 1296.07C845.454 1324.03 979.771 1210.83 1087.5 1104.3C1265.19 931.172 1343.55 708.773 1431.69 490.37C1452.09 439.086 1478.87 390.309 1511.44 345.078" stroke="#C68E5C" stroke-miterlimit="10"/>
<path d="M0.308594 530.987C79.4015 513.182 160.593 503.287 243.828 503.7C474.684 503.7 781.094 558.301 905.617 311.931C957.777 208.056 1007.52 98.1489 1072.55 0.573242" stroke="#C68E5C" stroke-miterlimit="10"/>
<path d="M0.308594 1700C5.90512 1701.51 11.5016 1703.15 17.0982 1704.92C208.779 1764.85 403.259 1816.78 607.532 1768.84C971.978 1683.61 1258.7 1488.22 1511.37 1246.25" stroke="#C68E5C" stroke-miterlimit="10"/>
<path d="M0.308594 1329.97C55.5743 1315.53 111.204 1301.78 166.875 1288.09C200.454 1280.1 235.433 1278.77 267.613 1293.41C345.964 1330.7 359.955 1419.93 415.921 1479.86C467.689 1531.79 544.641 1543.78 617.396 1531.79C824.467 1501.16 995.161 1395.96 1147.67 1264.12C1307.31 1126.59 1407.12 962.68 1511.44 791.939" stroke="#C68E5C" stroke-miterlimit="10"/>
<path d="M1182.86 1798.41C1295.58 1739.62 1404.56 1673.5 1511.37 1602.43" stroke="#C68E5C" stroke-miterlimit="10"/>
<path d="M0.308594 805.483C246.164 733.117 505.829 817.575 737.721 923.194C962.981 1024.41 1102.89 740.748 1164.46 564.96C1235.1 363.229 1276.95 130.177 1469.47 0.573242" stroke="#C68E5C" stroke-miterlimit="10"/>
<path d="M0.308594 1438.45C23.0865 1434.57 45.9623 1431.05 68.936 1427.92C133.296 1418.6 196.257 1439.91 236.832 1490.51C460.693 1771.51 834.261 1571.75 1076.31 1410.61C1265.04 1285.43 1390.22 1129.35 1511.44 964.306" stroke="#C68E5C" stroke-miterlimit="10"/>
<path d="M986.586 1798.41C1175.38 1714.15 1346.95 1605.23 1511.37 1483.36" stroke="#C68E5C" stroke-miterlimit="10"/>
<path d="M0.308594 1218.49C10.1492 1215.07 19.9664 1211.63 29.7603 1208.17C126.3 1173.55 229.836 1102.96 334.771 1153.57C424.316 1197.52 446.702 1292.07 504.066 1366.65C550.237 1425.24 625.791 1439.89 698.545 1425.24C1034.34 1353.33 1249.8 1090.98 1392.51 815.311C1432.85 737.991 1469.05 655.691 1511.44 577.904" stroke="#C68E5C" stroke-miterlimit="10"/>
<path d="M774.617 1798.41C1055.84 1707.77 1292.9 1552.13 1511.37 1368.67" stroke="#C68E5C" stroke-miterlimit="10"/>
<path d="M0.308594 303.821C121.334 269.529 246.192 241.576 373.877 213.383C488.606 186.749 587.944 136.143 670.493 56.2395C689.955 38.0614 708.815 19.4438 727.284 0.573242" stroke="#C68E5C" stroke-miterlimit="10"/>
<path d="M0.308594 737.232C229.64 680.261 475.356 728.602 692.949 817.988C890.226 899.223 1037.14 716.777 1094.5 556.969C1164.46 366.532 1204.19 144.493 1357.06 0.573242" stroke="#C68E5C" stroke-miterlimit="10"/>
<path d="M0.308594 456.437C3.58256 455.758 6.87052 455.105 10.1725 454.426C187.862 418.47 355.758 419.801 530.65 402.489C763.927 377.958 864.468 174.417 972.397 0.573242" stroke="#C68E5C" stroke-miterlimit="10"/>
<path d="M0.308594 1637.99C4.03961 1638.96 7.77063 1639.99 11.5016 1641.06C196.187 1694.33 369.679 1779.56 572.554 1738.28C963.541 1659.83 1255.55 1446.15 1511.37 1182.75" stroke="#C68E5C" stroke-miterlimit="10"/>
<path d="M0.308594 1016.23C16.1654 1008.82 32.0456 1001.34 47.949 993.776C250.823 896.56 478.882 965.809 611.799 1149.59C741.919 1325.38 960.183 1177.55 1074.91 1055.04C1252.6 863.266 1315.56 624.887 1410.7 397.162C1434.75 339.622 1468.8 286.349 1511.44 239.578" stroke="#C68E5C" stroke-miterlimit="10"/>
<path d="M0.308594 135.371C120.76 93.5012 241.477 54.4017 355.548 0.573242" stroke="#C68E5C" stroke-miterlimit="10"/>
<path d="M0.308594 1153.34C56.5724 1131.08 113.027 1108.52 169.674 1085.67C329.175 1023.07 463.491 1148.26 527.851 1278.77C581.018 1383.97 718.133 1383.97 818.871 1342.69C1184.04 1190.87 1342.15 831.305 1489.06 505.032C1495.84 489.664 1503.3 474.571 1511.44 459.753" stroke="#C68E5C" stroke-miterlimit="10"/>
<path d="M0.308594 601.223C203.183 559.113 402.951 582.938 607.602 610.238C764.305 632.878 904.218 552.974 965.78 417.138C1028.36 278.864 1078.62 125.303 1166.15 0.573242" stroke="#C68E5C" stroke-miterlimit="10"/>
<path d="M645.812 1798.41C988.782 1710.19 1262.83 1526.23 1511.37 1306.01" stroke="#C68E5C" stroke-miterlimit="10"/>
<path d="M0.308594 1383.47C40.5663 1374.59 81.1644 1366.32 122.103 1358.67C172.472 1349.35 225.639 1356.01 259.218 1393.29C323.578 1462.54 361.355 1559.76 467.689 1574.41C711.138 1607.7 923.806 1478.52 1109.89 1340.03C1283.56 1210.69 1399.06 1053.7 1511.44 884.574" stroke="#C68E5C" stroke-miterlimit="10"/>
<path d="M1275.69 1798.41C1355.38 1755.44 1433.94 1709.72 1511.37 1661.24" stroke="#C68E5C" stroke-miterlimit="10"/>
<path d="M0.308594 873.148C27.4141 864.447 54.9939 857.148 82.9273 851.281C303.99 802.007 511.062 871.257 683.155 1005.76C736.322 1047.04 806.279 1068.35 872.038 1040.39C1151.86 921.863 1207.83 606.243 1298.77 355.878C1342.15 240.018 1402.31 126.821 1509.52 54.974C1510.14 54.5878 1510.76 54.1883 1511.37 53.8154" stroke="#C68E5C" stroke-miterlimit="10"/>
<path d="M0.308594 1488.67C44.9129 1490 88.3 1500.95 129.099 1526.47C269.012 1613.03 404.728 1695.6 578.22 1662.3C988.166 1584.26 1268.3 1341.17 1511.44 1046.74" stroke="#C68E5C" stroke-miterlimit="10"/>
<path d="M1081.53 1798.41C1142.52 1769.51 1203 1737.96 1263.75 1703.59C1352.17 1653.93 1433.26 1600.38 1511.4 1544.05" stroke="#C68E5C" stroke-miterlimit="10"/>
<path d="M0.308594 1276.34L14.2999 1272.11C63.2695 1256.13 112.239 1240.15 159.81 1220.17C319.311 1154.91 385.07 1325.38 467.619 1419.93C601.935 1574.41 827.196 1441.24 975.504 1349.35C1237.49 1186.6 1382.65 944.955 1511.37 690.701" stroke="#C68E5C" stroke-miterlimit="10"/>
<path d="M887.289 1798.41C1118.62 1707.48 1320.53 1575.54 1511.37 1425.18" stroke="#C68E5C" stroke-miterlimit="10"/>
</g>
<defs>
<clipPath id="clip0_663_481">
<rect width="1512" height="1683" fill="white"/>
</clipPath>
</defs>
</svg>
