<svg width="185" height="119" viewBox="0 0 185 119" fill="none" xmlns="http://www.w3.org/2000/svg">
<g clip-path="url(#clip0_663_479)">
<path d="M204.406 39.1531H204.084C198.551 39.0175 193.281 35.5861 189.621 29.6551L182.97 18.9709C181.648 16.8443 180.106 15.675 178.606 15.675C177.107 15.675 175.573 16.8443 174.251 18.9709L167.6 29.6551C163.932 35.5861 158.662 38.9752 153.137 39.1192H152.502C146.969 39.0175 141.699 35.5861 138.039 29.6551L131.388 18.9709C130.066 16.8443 128.49 15.675 127.024 15.675C125.558 15.675 123.991 16.8443 122.669 18.9709L116.018 29.6551C112.392 35.5861 107.079 39.0175 101.555 39.1446H100.92C95.3868 39.026 90.1168 35.5861 86.4565 29.6551L79.8054 18.9709C78.5006 16.8443 76.9331 15.675 75.4419 15.675C73.9507 15.675 72.4002 16.8443 71.0869 18.9709L60.4705 36.0605C58.4031 39.3819 54.3955 40.1444 51.5232 37.7551C50.1087 36.4739 49.187 34.7381 48.9177 32.8487C48.6485 30.9593 49.0487 29.0352 50.049 27.4098L60.7077 10.3202C64.4019 4.29608 69.7906 0.847656 75.4419 0.847656C81.0932 0.847656 86.4565 4.29608 90.2269 10.3202L96.878 21.0298C98.1744 23.1226 99.7079 24.2918 101.174 24.3173H101.292C102.767 24.3173 104.292 23.1226 105.597 21.0298L112.248 10.3202C115.984 4.29608 121.373 0.847656 127.024 0.847656C132.676 0.847656 138.039 4.29608 141.809 10.3202L148.46 21.0298C149.765 23.1226 151.29 24.2918 152.765 24.3173H152.875C154.349 24.3173 155.874 23.1226 157.179 21.0298L163.83 10.3202C167.566 4.30455 172.955 0.847656 178.606 0.847656C184.258 0.847656 189.621 4.29608 193.391 10.3202L200.043 21.0298C201.347 23.1226 202.873 24.2918 204.347 24.3173H204.465C205.931 24.3173 207.465 23.1226 208.761 21.0298L215.412 10.3202C219.149 4.29608 224.537 0.847656 230.163 0.847656C235.789 0.847656 241.178 4.29608 244.94 10.3202L255.582 27.4098C256.581 29.0347 256.982 30.9578 256.714 32.8468C256.447 34.7357 255.528 36.4718 254.116 37.7551C251.235 40.1444 247.228 39.3819 245.16 36.0605L234.552 18.9709C233.23 16.8443 231.688 15.675 230.197 15.675C228.706 15.675 227.156 16.8443 225.834 18.9709L219.149 29.6551C215.488 35.5861 210.218 38.9752 204.686 39.1192L204.406 39.1531Z" fill="#8E94DD" stroke="#231F20" stroke-width="2" stroke-miterlimit="10"/>
</g>
<g clip-path="url(#clip1_663_479)">
<path d="M156.406 118.153H156.084C150.551 118.018 145.281 114.586 141.621 108.655L134.97 97.9709C133.648 95.8443 132.106 94.675 130.606 94.675C129.107 94.675 127.573 95.8443 126.251 97.9709L119.6 108.655C115.932 114.586 110.662 117.975 105.137 118.119H104.502C98.9691 118.018 93.699 114.586 90.0388 108.655L83.3877 97.9709C82.0659 95.8443 80.49 94.675 79.0242 94.675C77.5584 94.675 75.9909 95.8443 74.6692 97.9709L68.0181 108.655C64.3917 114.586 59.0793 118.018 53.555 118.145H52.9196C47.3868 118.026 42.1168 114.586 38.4565 108.655L31.8054 97.9709C30.5006 95.8443 28.9331 94.675 27.4419 94.675C25.9507 94.675 24.4002 95.8443 23.0869 97.9709L12.4705 115.061C10.4031 118.382 6.39551 119.144 3.52324 116.755C2.10873 115.474 1.18699 113.738 0.917732 111.849C0.648477 109.959 1.04867 108.035 2.04897 106.41L12.7077 89.3202C16.4019 83.2961 21.7906 79.8477 27.4419 79.8477C33.0932 79.8477 38.4565 83.2961 42.2269 89.3202L48.878 100.03C50.1744 102.123 51.7079 103.292 53.1737 103.317H53.2924C54.7666 103.317 56.2917 102.123 57.5965 100.03L64.2477 89.3202C67.9842 83.2961 73.3728 79.8477 79.0242 79.8477C84.6755 79.8477 90.0388 83.2961 93.8092 89.3202L100.46 100.03C101.765 102.123 103.29 103.292 104.765 103.317H104.875C106.349 103.317 107.874 102.123 109.179 100.03L115.83 89.3202C119.566 83.3046 124.955 79.8477 130.606 79.8477C136.258 79.8477 141.621 83.2961 145.391 89.3202L152.043 100.03C153.347 102.123 154.873 103.292 156.347 103.317H156.465C157.931 103.317 159.465 102.123 160.761 100.03L167.412 89.3202C171.149 83.2961 176.537 79.8477 182.163 79.8477C187.789 79.8477 193.178 83.2961 196.94 89.3202L207.582 106.41C208.581 108.035 208.982 109.958 208.714 111.847C208.447 113.736 207.528 115.472 206.116 116.755C203.235 119.144 199.228 118.382 197.16 115.061L186.552 97.9709C185.23 95.8443 183.688 94.675 182.197 94.675C180.706 94.675 179.156 95.8443 177.834 97.9709L171.149 108.655C167.488 114.586 162.218 117.975 156.686 118.119L156.406 118.153Z" fill="#4A3AFF" stroke="#231F20" stroke-width="2" stroke-miterlimit="10"/>
</g>
<defs>
<clipPath id="clip0_663_479">
<rect width="209.642" height="40" fill="white" transform="translate(48)"/>
</clipPath>
<clipPath id="clip1_663_479">
<rect width="209.642" height="40" fill="white" transform="translate(0 79)"/>
</clipPath>
</defs>
</svg>
