<svg width="89" height="149" viewBox="0 0 89 149" fill="none" xmlns="http://www.w3.org/2000/svg">
<path d="M53.5 9C53.5 5.96243 51.0376 3.5 48 3.5C44.9624 3.5 42.5 5.96243 42.5 9L53.5 9ZM44.1109 146.889C46.2588 149.037 49.7412 149.037 51.8891 146.889L86.8909 111.887C89.0388 109.739 89.0388 106.257 86.8909 104.109C84.743 101.961 81.2606 101.961 79.1127 104.109L48 135.222L16.8873 104.109C14.7394 101.961 11.257 101.961 9.10913 104.109C6.96124 106.257 6.96124 109.739 9.10913 111.887L44.1109 146.889ZM42.5 9L42.5 143H53.5L53.5 9L42.5 9Z" fill="#8E94DD"/>
<path d="M46.5 6C46.5 2.96243 44.0376 0.5 41 0.5C37.9624 0.5 35.5 2.96243 35.5 6L46.5 6ZM37.1109 143.889C39.2588 146.037 42.7412 146.037 44.8891 143.889L79.8909 108.887C82.0388 106.739 82.0388 103.257 79.8909 101.109C77.743 98.9612 74.2606 98.9612 72.1127 101.109L41 132.222L9.8873 101.109C7.73942 98.9612 4.25701 98.9612 2.10913 101.109C-0.0387573 103.257 -0.0387573 106.739 2.10913 108.887L37.1109 143.889ZM35.5 6L35.5 140H46.5L46.5 6L35.5 6Z" fill="#CE6256"/>
</svg>
