<svg width="131" height="150" viewBox="0 0 131 150" fill="none" xmlns="http://www.w3.org/2000/svg">
<g clip-path="url(#clip0_255_2361)">
<path fill-rule="evenodd" clip-rule="evenodd" d="M59.0809 3.06285C58.6611 3.7081 55.9014 17.3204 52.5741 34.3844C51.6878 38.9011 60.0527 45.4236 58.9021 51.4096C58.0081 56.074 47.5987 60.1709 46.8291 64.1979C45.6941 70.1528 45.6785 70.2461 44.5901 75.9911C43.8827 79.6993 50.4129 86.8747 49.1457 93.5759C47.9252 100.044 38.9151 106.014 38.2621 109.482C34.9581 127.004 34.3284 130.472 33.5977 134.226L64.6161 143.097L96.8705 134.226C96.3186 131.272 95.2224 125.333 92.2061 109.482C91.4287 105.361 81.0115 99.3754 79.8376 93.1561C78.6093 86.6415 86.6088 79.9403 85.878 75.9988C85.0073 71.4044 84.4632 68.5513 83.6313 64.2056C82.7762 59.7278 75.7485 53.7651 74.94 49.5905C73.9138 44.2575 78.827 39.1732 77.8941 34.3922C74.4968 16.7218 71.9081 3.81693 71.4183 3.06285C69.436 -0.00011754 61.0478 -0.00011754 59.0809 3.06285Z" fill="#F28C25"/>
<path fill-rule="evenodd" clip-rule="evenodd" d="M89.9676 109.481H67.6328C68.3169 122.697 68.8533 131.7 69.0399 131.77C69.7551 132.034 94.0645 132.119 94.0645 132.119L89.9676 109.481Z" fill="#F79C4B"/>
<path fill-rule="evenodd" clip-rule="evenodd" d="M66.0166 75.9915H83.8969L81.7591 64.1982H65.4336C65.6513 68.1319 65.8301 72.0811 66.0166 75.9915Z" fill="#F79C4B"/>
<path fill-rule="evenodd" clip-rule="evenodd" d="M64.1509 34.3842H76.3795L70.8211 3.70784C69.3129 3.30359 63.3735 3.12478 63.047 3.61455C62.9071 3.77003 63.4046 16.7449 64.1509 34.3842Z" fill="#F79C4B"/>
<path fill-rule="evenodd" clip-rule="evenodd" d="M59.2607 3.06285C58.8409 3.7081 56.0811 17.3204 52.7538 34.3844C51.8753 38.8701 60.2324 45.4236 59.0819 51.4096C58.1879 56.074 47.7862 60.1709 47.0166 64.1979C45.866 70.1528 45.866 70.2461 44.7699 75.9911C44.0624 79.6993 50.5926 86.8747 49.3332 93.5759C48.1127 100.044 39.0948 106.014 38.4496 109.482C35.1456 127.004 34.5159 130.472 33.7852 134.226L64.8036 143.097L97.0658 134.226C96.5061 131.272 95.4099 125.333 92.4014 109.482C91.624 105.361 81.2145 99.3754 80.0329 93.1561C78.8046 86.6415 86.8119 79.9403 86.0733 75.9988C85.2026 71.4044 84.6584 68.5513 83.8266 64.2056C82.9715 59.7278 75.9438 53.7651 75.1353 49.5905C74.1091 44.2575 79.0223 39.1732 78.0894 34.3922C74.6999 16.7218 72.1112 3.81693 71.6136 3.06285C69.6312 -0.000117526 61.2508 -0.000117526 59.2607 3.06285Z" stroke="#1D1D1B" stroke-width="2" stroke-miterlimit="10"/>
<path fill-rule="evenodd" clip-rule="evenodd" d="M85.9204 75.9912H44.5781C42.2925 87.9943 40.0847 99.6942 38.25 109.482H92.2485C90.406 99.6942 88.1982 87.9943 85.9204 75.9912Z" fill="#EDEDEE"/>
<path fill-rule="evenodd" clip-rule="evenodd" d="M46.8164 64.1982H83.6731C81.6752 53.7421 79.7006 43.4571 77.9359 34.3848H52.5614C50.7889 43.4571 48.8143 53.7421 46.8164 64.1982Z" fill="#EDEDEE"/>
<path fill-rule="evenodd" clip-rule="evenodd" d="M47.0469 64.1982H83.8958C81.9056 53.7421 79.9233 43.4571 78.1586 34.3848H52.7841C51.0194 43.4571 49.037 53.7421 47.0469 64.1982Z" stroke="#1D1D1B" stroke-width="2" stroke-miterlimit="10"/>
<path fill-rule="evenodd" clip-rule="evenodd" d="M86.143 75.6182H44.8007C42.5229 87.6213 40.3151 99.3212 38.4727 109.109H92.51C90.6287 99.3212 88.4208 87.6213 86.143 75.6182Z" stroke="#1D1D1B" stroke-width="2" stroke-miterlimit="10"/>
<path fill-rule="evenodd" clip-rule="evenodd" d="M0.777344 143.097L65.2474 134.227L129.71 143.097V149.223H0.777344V143.097Z" fill="#F28C25"/>
<path fill-rule="evenodd" clip-rule="evenodd" d="M0.777344 143.097L65.2474 134.227L129.71 143.097V149.223H0.777344V143.097Z" stroke="#1D1D1B" stroke-width="2" stroke-miterlimit="10"/>
<path fill-rule="evenodd" clip-rule="evenodd" d="M33.6071 134.227H96.88L129.71 143.097H0.777344L33.6071 134.227Z" fill="#F79C4B"/>
<path fill-rule="evenodd" clip-rule="evenodd" d="M34.3766 134.227H97.6495L129.71 143.097H1.54688L34.3766 134.227Z" stroke="#1D1D1B" stroke-width="2" stroke-linejoin="round"/>
</g>
<defs>
<clipPath id="clip0_255_2361">
<rect width="130.487" height="150" fill="white"/>
</clipPath>
</defs>
</svg>
