<svg width="1534" height="2725" viewBox="0 0 1534 2725" fill="none" xmlns="http://www.w3.org/2000/svg">
<path d="M1360.55 2724.19C1405.79 2510.32 1446.49 2295.17 1452.88 2076.62C1455.14 1997.48 1453.02 1917.92 1444.79 1837.78C1423.52 1582.5 1335.59 1342.81 1246.24 1103.13C1111.78 745.301 1148.8 370.03 1199.01 1.14182" stroke="black" stroke-opacity="0.2" stroke-miterlimit="10"/>
<path d="M1166.67 2724.19C1215.74 2541.1 1252.62 2355.87 1266.94 2168.66C1272.19 2099.74 1274.46 2030.53 1273.04 1961.17C1281.69 1618.1 1095.9 1321.68 981.02 1005.41C861.461 677.083 905.143 336.276 960.455 1.28378" stroke="black" stroke-opacity="0.2" stroke-miterlimit="10"/>
<path d="M1078.59 2724.19C1139.15 2503.23 1188.51 2279.57 1193.9 2050.1C1195.32 1987.69 1193.47 1925.01 1187.37 1861.75C1173.9 1700.21 1110.08 1549.88 1047.68 1399.54C938.471 1135.75 800.9 874.788 800.9 584.045C799.907 387.9 827.138 194.167 859.899 1.14182" stroke="black" stroke-opacity="0.2" stroke-miterlimit="10"/>
<path d="M1532.86 1081.43C1524.49 1040.44 1516.83 999.027 1510.03 957.047C1458.4 632.55 1484.21 316.988 1512.01 1.14181" stroke="black" stroke-opacity="0.2" stroke-miterlimit="10"/>
<path d="M986.974 2724.19C1038.03 2534.01 1087.81 2341.83 1103.7 2145.97C1109.51 2074.07 1110.79 2001.59 1105.82 1928.55C1094.48 1786.73 1056.19 1649.16 1003.71 1515.84C893.086 1240.7 738.496 983.994 710.13 684.741C688.573 452.857 721.76 226.503 762.322 1.14182" stroke="black" stroke-opacity="0.2" stroke-miterlimit="10"/>
<path d="M1532.86 878.192C1531.16 861.599 1529.6 844.863 1528.46 827.986C1512.58 614.964 1519.39 403.644 1532.86 192.891" stroke="black" stroke-opacity="0.2" stroke-miterlimit="10"/>
<path d="M1017.32 2724.19C1062.71 2552.16 1108.38 2378.99 1127.66 2202.56C1134.9 2137.18 1138.44 2071.51 1137.02 2005.14C1138.44 1654.83 955.487 1348.49 826.426 1030.8C689.706 696.088 734.381 345.211 795.083 1.14182" stroke="black" stroke-opacity="0.2" stroke-miterlimit="10"/>
<path d="M1532.86 1216.3C1522.93 1176.73 1512.86 1136.74 1502.93 1096.04C1413.16 725.729 1443.79 363.364 1477.69 1.14145" stroke="black" stroke-opacity="0.2" stroke-miterlimit="10"/>
<path d="M955.777 2724.19C1006.13 2534.01 1057.75 2341.97 1074.2 2145.97C1080.16 2074.07 1081.43 2001.59 1076.19 1928.55C1066.26 1792.4 1027.97 1660.5 978.328 1532.86C886.141 1301.68 767.007 1091.78 706.022 843.586C635.393 557.098 679.643 278.127 731.409 1.14182" stroke="black" stroke-opacity="0.2" stroke-miterlimit="10"/>
<path d="M1388.34 2724.19C1438.4 2492.03 1475.14 2259.57 1476.98 2022.44C1477.55 1958.48 1475.42 1894.09 1470.32 1829.27C1454.57 1559.81 1346.79 1311.61 1263.11 1053.49C1150.92 707.008 1187.94 352.16 1234.18 1.14182" stroke="black" stroke-opacity="0.2" stroke-miterlimit="10"/>
<path d="M1532.86 1448.76C1498.54 1305.09 1455.71 1163.26 1420.68 1013.78C1340.12 670.701 1372.45 335.993 1408.19 1.14247" stroke="black" stroke-opacity="0.2" stroke-miterlimit="10"/>
<path d="M1522.23 2724.19C1525.91 2704.34 1529.46 2684.34 1533 2664.49" stroke="black" stroke-opacity="0.2" stroke-miterlimit="10"/>
<path d="M796.077 2724.19C841.887 2552.44 889.682 2378.42 910.105 2201.28C917.622 2135.9 921.451 2069.95 920.033 2003.72C915.778 1693.12 765.443 1415.14 639.218 1137.17C474.842 770.404 510.582 381.518 575.68 1.14182" stroke="black" stroke-opacity="0.2" stroke-miterlimit="10"/>
<path d="M1441.67 2724.19C1483.93 2508.34 1520.67 2290.35 1526.2 2069.67C1528.18 1989.82 1526.05 1909.69 1518.54 1829.27C1500.1 1583.92 1427.77 1349.9 1348.35 1115.89C1223.54 750.407 1259.85 373.576 1304.38 1.14182" stroke="black" stroke-opacity="0.2" stroke-miterlimit="10"/>
<path d="M1278 2724.19C1317.85 2549.32 1355.72 2372.89 1371.75 2194.19C1377.7 2128.24 1380.54 2061.87 1379.55 1995.21C1383.8 1647.74 1232.05 1332.88 1118.59 1009.52C1003.14 679.494 1044.13 337.978 1095.47 1.14182" stroke="black" stroke-opacity="0.2" stroke-miterlimit="10"/>
<path d="M1334.59 2724.19C1394.29 2470.89 1432.59 2216.46 1427.06 1956.63C1425.5 1886.86 1420.82 1816.79 1411.74 1746.16C1400.96 1664.76 1383.94 1585.33 1358.41 1505.91C1281.83 1266.23 1171.2 1046.4 1134.33 793.947C1094.48 524.053 1126.1 262.385 1163.97 1.14182" stroke="black" stroke-opacity="0.2" stroke-miterlimit="10"/>
<path d="M1250.34 2724.19C1291.9 2548.05 1330.9 2369.91 1346.79 2189.8C1352.74 2123.28 1355.44 2056.62 1354.02 1989.54C1355.44 1649.16 1207.94 1341.39 1090.22 1027.96C964.424 693.393 1007.4 344.36 1061.29 1.14182" stroke="black" stroke-opacity="0.2" stroke-miterlimit="10"/>
<path d="M764.593 2724.19C814.232 2549.04 855.361 2371.19 873.798 2191.36C880.606 2124.98 884.294 2058.46 884.152 1991.66C885.996 1817.93 837.775 1650.57 766.862 1493.15C640.637 1216.59 500.23 940.028 488.884 633.684C482.218 420.662 510.299 210.335 546.039 1.14182" stroke="black" stroke-opacity="0.2" stroke-miterlimit="10"/>
<path d="M697.086 2724.19C741.477 2560.81 781.331 2396.15 801.895 2229.08C809.554 2167.1 814.518 2104.7 816.078 2042.01C835.082 1698.79 646.454 1400.96 525.902 1088.94C388.615 734.664 428.468 364.074 488.461 1.14182" stroke="black" stroke-opacity="0.2" stroke-miterlimit="10"/>
<path d="M558.378 2724.19C606.032 2524.08 656.806 2322.83 669.995 2117.32C674.817 2042.72 674.533 1967.55 666.875 1891.68C653.401 1795.24 630.709 1703.05 599.508 1609.44C508.739 1341.39 376.841 1097.45 337.13 812.385C299.121 536.959 328.904 268.2 371.168 1.14182" stroke="black" stroke-opacity="0.2" stroke-miterlimit="10"/>
<path d="M1137.17 2724.19C1197.02 2497.84 1244.67 2269.5 1248.5 2035.63C1249.5 1972.23 1247.23 1908.27 1240.7 1844.02C1209.36 1575.55 1083.13 1334.44 976.765 1087.67C825.012 735.657 866.141 364.499 926.133 1.28378" stroke="black" stroke-opacity="0.2" stroke-miterlimit="10"/>
<path d="M346.352 2724.19C381.383 2547.62 417.832 2370.91 433.859 2192.06C439.673 2126.68 442.793 2061.16 442.084 1995.21C440.666 1722.91 338.551 1470.46 254.874 1212.33C126.806 813.519 151.767 404.778 204.384 1.14182" stroke="black" stroke-opacity="0.2" stroke-miterlimit="10"/>
<path d="M663.044 2724.19C706.159 2562.94 745.587 2400.41 766.436 2235.32C774.094 2174.05 779.342 2112.5 781.043 2050.52C789.553 1887.42 755.515 1727.16 694.53 1575.41C568.305 1261.97 408.042 954.21 402.369 612.41C398.54 406.338 425.061 203.527 458.248 1.14182" stroke="black" stroke-opacity="0.2" stroke-miterlimit="10"/>
<path d="M418.679 2724.19C459.525 2547.48 493.847 2370.34 509.448 2190.79C515.121 2125.12 518.241 2059.03 518.383 1992.66C527.318 1694.54 386.911 1430.74 297.56 1149.93C176.583 771.255 206.933 383.646 260.26 1.14182" stroke="black" stroke-opacity="0.2" stroke-miterlimit="10"/>
<path d="M1108.95 2724.19C1161.14 2539.54 1198.86 2351.48 1212.76 2161.57C1217.87 2091.65 1219.71 2021.59 1217.87 1951.24C1217.73 1758.36 1161 1573.99 1081.57 1399.54C982.296 1178.29 875.926 964.138 846.143 720.198C815.367 475.832 849.973 237.849 891.811 1.14182" stroke="black" stroke-opacity="0.2" stroke-miterlimit="10"/>
<path d="M311.321 2724.19C358.549 2488.2 398.828 2253.19 401.097 2012.37C401.664 1947.84 399.253 1883.03 391.169 1817.5C384.078 1741.34 364.222 1667.59 342.948 1592.43C279.127 1379.69 206.796 1183.97 167.085 962.72C109.078 633.968 135.741 317.271 177.012 1.14182" stroke="black" stroke-opacity="0.2" stroke-miterlimit="10"/>
<path d="M133.042 2724.19C166.513 2482.1 205.089 2241.28 203.813 1996.63C203.387 1933.8 200.409 1871.54 194.878 1809.42C172.612 1605.19 117.299 1415.14 70.4968 1208.08C-22.2572 797.493 -2.26005 399.53 40.4295 1.14182" stroke="black" stroke-opacity="0.2" stroke-miterlimit="10"/>
<path d="M1193.62 2724.19C1234.6 2554.57 1274.74 2384.24 1292.89 2211.35C1299.56 2147.25 1303.39 2082.86 1302.96 2017.9C1304.38 1837.78 1267.51 1660.5 1206.52 1488.89C1121.43 1253.46 1002.29 1039.31 959.746 786.856C913.937 517.813 948.542 259.123 991.941 1.14182" stroke="black" stroke-opacity="0.2" stroke-miterlimit="10"/>
<path d="M1050.09 2724.19C1106.96 2531.45 1145.54 2334.74 1157.31 2136.19C1161.71 2063.43 1162.42 1990.39 1159.15 1917.21C1152.63 1779.49 1124.26 1644.76 1071.79 1515.7C952.656 1234.88 792.393 968.251 771.119 659.071C756.653 436.405 789.698 218.56 827.991 0.999851" stroke="black" stroke-opacity="0.2" stroke-miterlimit="10"/>
<path d="M1532.86 2510.75C1522.22 2581.94 1509.74 2653.14 1495.84 2724.19" stroke="black" stroke-opacity="0.2" stroke-miterlimit="10"/>
<path d="M1532.86 1555.83C1525.06 1517.54 1515.98 1479.25 1505.77 1440.67C1444.79 1212.33 1362.53 998.177 1342.67 765.582C1322.39 509.162 1345.65 254.868 1373.16 1.14223" stroke="black" stroke-opacity="0.2" stroke-miterlimit="10"/>
<path d="M1532.86 1331.89C1485.77 1148.09 1430.46 974.349 1416.42 786.856C1397.98 523.343 1417.13 261.959 1441.95 1.14144" stroke="black" stroke-opacity="0.2" stroke-miterlimit="10"/>
<path d="M894.078 2724.19C939.32 2564.07 979.74 2402.39 1000.87 2238.16C1008.81 2176.89 1014.06 2115.34 1015.76 2053.36C1039.02 1701.63 847.558 1396.71 714.242 1083.27C563.765 732.537 604.895 362.939 668.149 1.14182" stroke="black" stroke-opacity="0.2" stroke-miterlimit="10"/>
<path d="M1532.86 2314.89C1517.4 2452.03 1493.43 2588.33 1468.19 2724.19" stroke="black" stroke-opacity="0.2" stroke-miterlimit="10"/>
<path d="M1532.86 1734.39C1531.58 1723.76 1530.16 1713.26 1528.75 1702.62C1512.72 1583.92 1485.77 1467.62 1451.73 1349.9C1397.84 1159.86 1326.93 982.575 1308.49 786.855C1283.96 522.351 1308.07 261.533 1337.71 1.14132" stroke="black" stroke-opacity="0.2" stroke-miterlimit="10"/>
<path d="M1306.93 2724.19C1366.5 2474.44 1406.21 2222.56 1402.24 1965.43C1401.1 1896.36 1396.85 1826.72 1388.06 1756.8C1379.55 1684.47 1365.36 1614.98 1344.09 1545.48C1254.74 1258.99 1108.66 996.616 1085.97 697.364C1068.24 462.784 1095.75 231.608 1129.37 0.999851" stroke="black" stroke-opacity="0.2" stroke-miterlimit="10"/>
<path d="M1414.44 2724.19C1461.95 2482.95 1506.91 2240 1502.94 1992.37C1501.8 1913.94 1495.99 1836.79 1486.63 1760.21C1470.32 1643.48 1447.63 1530.02 1413.59 1416.56C1349.77 1203.82 1263.25 1006.69 1237.72 786.856C1207.09 521.358 1234.46 261.108 1267.93 1.14182" stroke="black" stroke-opacity="0.2" stroke-miterlimit="10"/>
<path d="M1222.26 2724.19C1264.81 2548.05 1304.66 2370.62 1320.41 2190.36C1326.22 2123.85 1328.77 2056.9 1327.07 1989.54C1324.23 1826.44 1295.87 1666.17 1243.39 1510.17C1162.55 1269.06 1040.58 1054.91 995.199 799.62C948.113 526.322 983.002 263.377 1026.12 1.14182" stroke="black" stroke-opacity="0.2" stroke-miterlimit="10"/>
<path d="M628.158 2724.19C669.145 2564.21 709.99 2403.53 731.122 2239.86C738.923 2179.16 744.171 2117.89 745.589 2056.2C761.19 1749.85 622.201 1470.46 501.649 1195.31C334.436 809.973 365.213 401.232 428.609 1.14182" stroke="black" stroke-opacity="0.2" stroke-miterlimit="10"/>
<path d="M729.846 2724.19C787.144 2507.06 845.434 2289.5 851.958 2064.71C855.504 1966.14 846.285 1869.69 823.735 1773.54C803.738 1685.89 773.954 1600.79 739.916 1517.12C644.893 1284.52 532.85 1071.78 483.211 816.498C429.743 535.825 468.745 267.774 516.54 0.999851" stroke="black" stroke-opacity="0.2" stroke-miterlimit="10"/>
<path d="M593.125 2724.19C646.026 2506.35 702.331 2287.23 710.131 2061.87C712.968 1960.46 702.756 1861.19 679.355 1761.91C663.329 1688.87 639.219 1617.95 612.272 1547.04C505.903 1266.23 374.005 995.34 351.313 693.251C334.577 460.373 363.51 230.048 400.526 1.14182" stroke="black" stroke-opacity="0.2" stroke-miterlimit="10"/>
<path d="M382.8 2724.19C432.722 2497.13 475.554 2269.78 479.95 2036.77C481.227 1974.08 479.383 1910.97 472.15 1847.43C464.633 1779.78 451.868 1714.54 432.013 1647.88C342.662 1351.46 217.856 1074.9 193.746 765.724C173.464 508.594 198.001 254.301 232.464 1.28378" stroke="black" stroke-opacity="0.2" stroke-miterlimit="10"/>
<path d="M523.347 2724.19C568.874 2527.06 617.804 2329.92 632.128 2125.69C638.227 2039.18 635.674 1954.36 624.895 1870.55C592.417 1634.97 494.557 1416.56 408.044 1195.31C255.439 808.839 283.946 400.806 343.371 1.14182" stroke="black" stroke-opacity="0.2" stroke-miterlimit="10"/>
<path d="M453.711 2724.19C506.044 2498.83 552.137 2274.04 557.668 2043.01C559.087 1980.74 557.527 1918.06 550.01 1854.8C524.34 1649.01 442.081 1458.97 366.913 1267.5C205.799 857.06 227.924 424.633 287.065 0.999851" stroke="black" stroke-opacity="0.2" stroke-miterlimit="10"/>
<path d="M239.699 2724.19C276.432 2513.73 312.172 2303.11 320.54 2089.24C322.809 2031.52 323.093 1973.65 320.824 1915.5C318.838 1833.53 307.493 1754.11 287.637 1671.85C203.96 1321.54 83.408 996.758 81.9898 642.194C80.997 427.044 99.5757 213.738 124.112 1.14182" stroke="black" stroke-opacity="0.2" stroke-miterlimit="10"/>
<path d="M489.024 2724.19C538.237 2517.41 584.189 2309.78 595.109 2097.04C598.088 2039.32 598.372 1981.31 594.826 1922.74C572.417 1634.97 433.428 1378.27 345.496 1103.13C228.915 740.195 261.819 367.619 315.855 1.14182" stroke="black" stroke-opacity="0.2" stroke-miterlimit="10"/>
<path d="M275.435 2724.19C318.266 2494.86 356.701 2265.81 361.098 2032.37C362.232 1969.68 360.956 1906.85 354.999 1843.46C348.475 1773.96 337.129 1707.3 318.692 1637.81C237.851 1344.23 134.319 1067.67 114.463 765.582C98.2949 509.161 119.71 254.868 150.487 1.14182" stroke="black" stroke-opacity="0.2" stroke-miterlimit="10"/>
<path d="M204.101 2724.19C242.394 2493.02 279.977 2261.42 282.672 2026.7C283.523 1942.88 279.835 1858.63 268.206 1773.96C259.129 1714.4 247.783 1657.67 233.6 1598.1C169.779 1334.3 88.9381 1093.2 66.246 827.985C43.4121 550.433 64.5438 275.291 95.7454 1.14182" stroke="black" stroke-opacity="0.2" stroke-miterlimit="10"/>
<path d="M925.846 2724.19C975.06 2550.32 1016.19 2373.88 1035.05 2195.33C1042 2129.38 1045.83 2063 1045.97 1996.35C1047.67 1836.22 1012.22 1677.38 946.978 1529.88C823.59 1244.81 663.327 971.087 642.053 657.653C627.587 436.263 659.782 218.135 699.067 0.999851" stroke="black" stroke-opacity="0.2" stroke-miterlimit="10"/>
<path d="M98.2987 2724.19C128.366 2497.84 159.851 2271.91 163.681 2043.71C164.957 1962.17 162.829 1880.33 155.312 1798.07C127.373 1568.32 67.8062 1352.74 25.2585 1117.31C15.6144 1065.12 7.6723 1013.07 1.29014 961.16" stroke="black" stroke-opacity="0.2" stroke-miterlimit="10"/>
<path d="M1.14462 130.062C4.97391 87.0884 9.2284 44.1153 13.625 1.14215" stroke="black" stroke-opacity="0.2" stroke-miterlimit="10"/>
<path d="M168.497 2724.19C203.812 2490.18 240.687 2256.88 243.098 2020.17C243.949 1935.79 240.261 1850.97 228.773 1765.45C215.3 1694.54 203.954 1625.05 185.516 1552.71C111.767 1252.04 35.1812 966.975 30.9264 663.468C28.0899 442.078 45.6764 221.255 69.3613 1.14182" stroke="black" stroke-opacity="0.2" stroke-miterlimit="10"/>
<path d="M863.304 2724.19C918.616 2538.69 959.461 2348.92 974.495 2157.18C980.026 2086.69 982.012 2016.06 980.026 1945.15C976.906 1815.09 949.959 1686.03 897.484 1564.06C768.422 1257.72 591.14 962.72 578.376 623.756C570.718 413.713 600.785 206.931 637.376 1.14182" stroke="black" stroke-opacity="0.2" stroke-miterlimit="10"/>
<path d="M63.2639 2724.19C90.7781 2490.61 121.838 2258.01 124.249 2022.58C125.1 1938.76 122.406 1854.52 113.896 1769.71C87.5164 1571.15 46.3868 1382.52 6.67564 1178.29C4.8319 1168.51 2.98831 1158.72 1.14457 1148.94" stroke="black" stroke-opacity="0.2" stroke-miterlimit="10"/>
<path d="M1.14314 1790.98C6.67434 1872.67 8.37597 1953.94 7.24136 2035.06C6.53223 2093.92 4.2633 2152.64 1.14314 2211.21" stroke="black" stroke-opacity="0.2" stroke-miterlimit="10"/>
<path d="M831.109 2724.19C886.847 2537.41 927.976 2346.51 942.868 2153.63C948.257 2082.86 950.243 2011.8 947.974 1940.47C942.868 1827.71 923.013 1715.67 881.883 1609.3C759.913 1293.03 569.867 998.034 550.011 653.398C537.53 433.426 568.306 216.717 606.457 0.999851" stroke="black" stroke-opacity="0.2" stroke-miterlimit="10"/>
<path d="M30.7861 2724.19C66.5261 2479.4 80.1415 2234.75 77.7305 1989.11C76.8795 1901.89 73.9009 1814.52 68.2279 1727.16C56.1727 1580.94 28.9425 1440.96 1.14465 1296.86" stroke="black" stroke-opacity="0.2" stroke-miterlimit="10"/>
<path d="M1.14408 2654.7C20.9997 2455.29 42.1317 2256.31 45.8192 2056.2C47.2374 1976.49 45.9607 1896.64 40.5713 1816.51C37.7348 1765.45 32.0618 1715.81 24.9705 1663.34C17.3119 1610.15 9.228 1557.25 1.00211 1504.64" stroke="black" stroke-opacity="0.2" stroke-miterlimit="10"/>
</svg>
