<svg width="252" height="253" viewBox="0 0 252 253" fill="none" xmlns="http://www.w3.org/2000/svg">
<circle cx="11" cy="115" r="115" fill="#E39E37"/>
<circle cx="11" cy="115" r="115" fill="#E39E37"/>
<g clip-path="url(#clip0_722_389)">
<path d="M159.649 115.117L85.8867 41.3545L12.124 115.117L85.8867 188.88L159.649 115.117Z" fill="#EFDC70"/>
<path d="M85.8832 182.61L18.3906 115.118L85.8832 47.625L153.376 115.118L85.8832 182.61ZM21.6475 115.118L85.8832 179.353L150.119 115.118L85.8832 50.8819L21.6475 115.118Z" fill="#454444"/>
<path d="M83.668 56.4072C83.6663 55.9579 83.798 55.5183 84.0465 55.1441C84.295 54.7698 84.649 54.4779 85.0637 54.3051C85.4784 54.1324 85.9351 54.0868 86.3758 54.174C86.8164 54.2612 87.2213 54.4774 87.5389 54.795C87.8566 55.1127 88.0727 55.5175 88.1599 55.9582C88.2471 56.3989 88.2015 56.8555 88.0288 57.2702C87.8561 57.6849 87.5641 58.039 87.1899 58.2874C86.8156 58.5359 86.376 58.6677 85.9268 58.666C85.3284 58.6636 84.7552 58.4249 84.3321 58.0018C83.909 57.5787 83.6703 57.0055 83.668 56.4072Z" fill="#454444"/>
<path d="M83.668 173.593C83.668 173.144 83.8012 172.705 84.0508 172.332C84.3003 171.959 84.655 171.668 85.0698 171.497C85.4847 171.326 85.9411 171.281 86.3811 171.369C86.8212 171.458 87.2253 171.674 87.542 171.992C87.8588 172.31 88.0741 172.715 88.1606 173.156C88.2471 173.596 88.2009 174.052 88.028 174.467C87.855 174.881 87.563 175.234 87.1889 175.482C86.8149 175.731 86.3756 175.862 85.9268 175.86C85.6294 175.86 85.335 175.802 85.0604 175.688C84.7857 175.573 84.5363 175.406 84.3265 175.196C84.1166 174.985 83.9504 174.735 83.8374 174.46C83.7244 174.185 83.6668 173.89 83.668 173.593Z" fill="#454444"/>
<path d="M144.481 112.736C144.93 112.735 145.37 112.866 145.744 113.114C146.118 113.362 146.41 113.716 146.583 114.13C146.756 114.544 146.802 115 146.715 115.441C146.629 115.881 146.413 116.286 146.097 116.604C145.78 116.922 145.376 117.139 144.936 117.227C144.496 117.315 144.039 117.271 143.624 117.1C143.21 116.928 142.855 116.638 142.605 116.265C142.356 115.892 142.223 115.453 142.223 115.004C142.223 114.404 142.46 113.829 142.884 113.404C143.307 112.979 143.882 112.739 144.481 112.736Z" fill="#454444"/>
<path d="M27.2929 112.736C27.7406 112.74 28.1773 112.876 28.5479 113.127C28.9185 113.378 29.2064 113.734 29.3753 114.148C29.5443 114.563 29.5867 115.018 29.4972 115.457C29.4077 115.896 29.1904 116.298 28.8726 116.614C28.5548 116.929 28.1507 117.143 27.7114 117.229C27.272 117.315 26.817 117.269 26.4036 117.097C25.9903 116.925 25.6372 116.634 25.3888 116.262C25.1404 115.889 25.0078 115.452 25.0078 115.004C25.0066 114.704 25.0651 114.408 25.1797 114.131C25.2943 113.854 25.4629 113.603 25.6756 113.392C25.8882 113.181 26.1407 113.014 26.4184 112.902C26.6961 112.789 26.9933 112.733 27.2929 112.736Z" fill="#454444"/>
<path d="M57.8737 133.442H55.5273L57.2083 135.132H57.1996L55.5273 136.796L57.8562 136.813L59.5371 135.132L57.8737 133.442Z" fill="#454444"/>
<path d="M61.8854 133.442H59.5391L61.2288 135.132H61.2113L59.5391 136.796L61.8679 136.813L63.5576 135.132L61.8854 133.442Z" fill="#454444"/>
<path d="M65.8962 133.442H63.5586L65.2396 135.132H65.2308L63.5586 136.796L65.8874 136.813L67.5684 135.132L65.8962 133.442Z" fill="#454444"/>
<path d="M69.9128 133.442H67.5664L69.2474 135.132H69.2386L67.5664 136.796L69.8952 136.813L71.585 135.132L69.9128 133.442Z" fill="#454444"/>
<path d="M73.9235 133.442H71.5859L73.2669 135.132H73.2494L71.5859 136.796L73.9148 136.813L75.5957 135.132L73.9235 133.442Z" fill="#454444"/>
<path d="M77.9401 133.442H75.5938L77.2747 135.132H77.266L75.5938 136.796L77.9226 136.813L79.6036 135.132L77.9401 133.442Z" fill="#454444"/>
<path d="M81.9518 133.442H79.6055L81.2952 135.132H81.2777L79.6055 136.796L81.9343 136.813L83.624 135.132L81.9518 133.442Z" fill="#454444"/>
<path d="M85.9713 133.442H83.625L85.306 135.132H85.2972L83.625 136.796L85.9538 136.813L87.6348 135.132L85.9713 133.442Z" fill="#454444"/>
<path d="M89.9792 133.442H87.6328L89.3225 135.132H89.305L87.6328 136.796L89.9617 136.813L91.6514 135.132L89.9792 133.442Z" fill="#454444"/>
<path d="M93.9899 133.442H91.6523L93.3333 135.132H93.3246L91.6523 136.796L93.9812 136.813L95.6621 135.132L93.9899 133.442Z" fill="#454444"/>
<path d="M98.0065 133.442H95.6602L97.3499 135.132H97.3324L95.6602 136.796L97.989 136.813L99.6787 135.132L98.0065 133.442Z" fill="#454444"/>
<path d="M102.017 133.442H99.6797L101.361 135.132H101.343L99.6797 136.796L102.009 136.813L103.689 135.132L102.017 133.442Z" fill="#454444"/>
<path d="M106.038 133.442H103.691L105.372 135.132H105.364L103.691 136.796L106.02 136.813L107.701 135.132L106.038 133.442Z" fill="#454444"/>
<path d="M110.046 133.442H107.699L109.389 135.132H109.371L107.699 136.796L110.028 136.813L111.718 135.132L110.046 133.442Z" fill="#454444"/>
<path d="M48.7595 98.3086V109.077C48.6848 109.973 48.9575 110.863 49.5211 111.564C49.8228 111.869 50.1873 112.106 50.5894 112.257C50.9915 112.408 51.4216 112.471 51.85 112.439C52.2834 112.468 52.7181 112.405 53.1255 112.254C53.5329 112.103 53.9038 111.868 54.2138 111.564C54.7994 110.873 55.0944 109.981 55.0368 109.077V98.3086H59.4143V109.051C59.4607 110.48 59.1059 111.893 58.39 113.131C57.7397 114.217 56.7875 115.09 55.6497 115.644C54.45 116.228 53.1318 116.527 51.7974 116.519C50.4766 116.532 49.1714 116.232 47.989 115.644C46.8833 115.086 45.9689 114.211 45.3625 113.131C44.6813 111.878 44.3459 110.467 44.3907 109.042V98.3086H48.7595Z" fill="#454444"/>
<path d="M78.6435 116.309H74.266L66.9205 105.208V116.309H62.543V98.3086H66.9205L74.2572 109.463V98.3086H78.6347L78.6435 116.309Z" fill="#454444"/>
<path d="M93.5344 99.4378C94.9026 100.158 96.0359 101.254 96.8 102.598C97.5645 104.048 97.964 105.661 97.964 107.3C97.964 108.938 97.5645 110.552 96.8 112.001C96.0287 113.359 94.8789 114.464 93.4906 115.179C91.9536 115.957 90.2488 116.345 88.5265 116.309H81.7852V98.3084H88.5265C90.2638 98.2623 91.9851 98.6505 93.5344 99.4378ZM92.1511 111.152C92.633 110.641 93.0045 110.035 93.2425 109.374C93.4805 108.713 93.5799 108.01 93.5344 107.309C93.6022 106.602 93.5129 105.889 93.2729 105.221C93.0328 104.553 92.648 103.946 92.1461 103.444C91.6441 102.942 91.0373 102.557 90.3691 102.317C89.701 102.077 88.9881 101.988 88.2814 102.056H86.2065V112.562H88.2814C88.9881 112.599 89.6952 112.494 90.3602 112.252C91.0251 112.01 91.6343 111.635 92.1511 111.152Z" fill="#454444"/>
<path d="M104.847 101.819V105.461H110.722V108.85H104.847V112.798H111.492V116.3H100.461V98.3086H111.492V101.811L104.847 101.819Z" fill="#454444"/>
<path d="M123.519 116.309L119.772 109.515H118.686V116.309H114.309V98.3083H121.672C122.921 98.271 124.162 98.5258 125.296 99.0524C126.234 99.487 127.017 100.199 127.537 101.092C128.039 101.968 128.296 102.963 128.282 103.973C128.299 105.121 127.946 106.245 127.275 107.177C126.538 108.155 125.492 108.856 124.307 109.164L128.465 116.291L123.519 116.309ZM118.686 106.407H121.4C122.058 106.458 122.71 106.248 123.212 105.82C123.422 105.599 123.584 105.338 123.688 105.051C123.792 104.765 123.836 104.461 123.817 104.157C123.833 103.86 123.787 103.562 123.683 103.284C123.579 103.005 123.419 102.751 123.212 102.537C122.71 102.109 122.058 101.899 121.4 101.95H118.686V106.407Z" fill="#454444"/>
<path d="M41.6441 121.746C41.9733 121.144 42.4647 120.647 43.0624 120.31C43.7 119.96 44.4189 119.785 45.1461 119.802C46.0113 119.779 46.8603 120.04 47.5625 120.546C48.2301 121.045 48.7037 121.76 48.902 122.569H46.7833C46.6374 122.257 46.403 121.995 46.1091 121.816C45.8159 121.648 45.4838 121.561 45.1461 121.562C44.875 121.551 44.6049 121.601 44.3551 121.707C44.1054 121.813 43.8822 121.972 43.7015 122.175C43.3175 122.642 43.1209 123.235 43.1499 123.838C43.1188 124.44 43.3158 125.031 43.7015 125.493C44.0065 125.817 44.4118 126.028 44.8518 126.093C45.2918 126.158 45.7409 126.073 46.1266 125.852C46.4205 125.673 46.655 125.411 46.8008 125.099H48.9195C48.724 125.909 48.2498 126.625 47.58 127.121C46.8751 127.621 46.0273 127.879 45.1636 127.857C44.4453 127.87 43.736 127.695 43.1062 127.349C42.4946 127.02 41.988 126.525 41.6441 125.922C41.3157 125.275 41.1445 124.56 41.1445 123.834C41.1445 123.108 41.3157 122.393 41.6441 121.746Z" fill="#454444"/>
<path d="M51.7799 127.366C51.1655 127.023 50.6545 126.521 50.3003 125.913C49.9445 125.275 49.7578 124.556 49.7578 123.825C49.7578 123.094 49.9445 122.375 50.3003 121.737C50.6571 121.133 51.1676 120.635 51.7799 120.292C52.408 119.954 53.1105 119.776 53.8242 119.776C54.5378 119.776 55.2403 119.954 55.8685 120.292C56.4798 120.633 56.988 121.132 57.3393 121.737C57.6966 122.373 57.8808 123.091 57.8734 123.821C57.883 124.554 57.6956 125.277 57.3306 125.913C56.9829 126.52 56.4778 127.022 55.8685 127.366C55.2403 127.705 54.5378 127.882 53.8242 127.882C53.1105 127.882 52.408 127.705 51.7799 127.366ZM55.3432 125.493C55.7123 125.014 55.9125 124.426 55.9125 123.821C55.9125 123.216 55.7123 122.628 55.3432 122.148C54.9359 121.751 54.3892 121.528 53.8198 121.528C53.2505 121.528 52.7037 121.751 52.2964 122.148C51.9002 122.613 51.6966 123.211 51.7274 123.821C51.6978 124.433 51.9012 125.033 52.2964 125.502C52.4922 125.709 52.7304 125.872 52.9948 125.979C53.2592 126.087 53.5435 126.136 53.8286 126.123C54.1116 126.134 54.3937 126.084 54.6553 125.975C54.9168 125.866 55.1516 125.702 55.3432 125.493Z" fill="#454444"/>
<path d="M66.0244 127.804H64.0983L60.9027 122.919V127.804H58.9766V119.925H60.9027L64.1333 124.828V119.925H66.0594L66.0244 127.804Z" fill="#454444"/>
<path d="M68.7326 127.602C68.2897 127.42 67.9073 127.117 67.6295 126.727C67.3494 126.343 67.1992 125.88 67.2005 125.405H69.2491C69.2624 125.658 69.372 125.896 69.5556 126.07C69.7417 126.233 69.983 126.317 70.2297 126.307C70.4709 126.319 70.709 126.248 70.9038 126.105C70.979 126.043 71.0403 125.966 71.0841 125.88C71.1278 125.793 71.153 125.697 71.1579 125.6C71.1629 125.503 71.1475 125.406 71.1128 125.315C71.0781 125.224 71.0248 125.141 70.9564 125.072C70.8143 124.941 70.6516 124.835 70.4748 124.757C70.2054 124.65 69.9307 124.556 69.6519 124.477C69.2271 124.366 68.8114 124.223 68.4087 124.048C68.0651 123.888 67.7648 123.647 67.5332 123.347C67.2881 122.994 67.1652 122.569 67.183 122.139C67.164 121.804 67.2276 121.469 67.368 121.164C67.5084 120.858 67.7214 120.592 67.9884 120.388C68.5904 119.946 69.3259 119.723 70.0721 119.758C70.8268 119.721 71.5713 119.943 72.1821 120.388C72.4505 120.595 72.6686 120.86 72.8202 121.164C72.9718 121.467 73.053 121.8 73.0576 122.139H70.9826C70.9841 122.024 70.9597 121.91 70.9112 121.805C70.8627 121.701 70.7914 121.608 70.7025 121.535C70.5152 121.383 70.2783 121.305 70.0371 121.316C69.8347 121.311 69.6367 121.376 69.4768 121.5C69.403 121.567 69.3451 121.65 69.3073 121.743C69.2694 121.835 69.2526 121.934 69.2579 122.034C69.2568 122.158 69.2908 122.28 69.3558 122.385C69.4209 122.49 69.5144 122.575 69.6256 122.63C69.9808 122.825 70.3567 122.981 70.7463 123.094C71.1735 123.234 71.5916 123.401 71.9982 123.593C72.3213 123.754 72.6029 123.988 72.8212 124.275C73.0654 124.616 73.1859 125.03 73.1626 125.449C73.1667 125.881 73.0483 126.306 72.8212 126.674C72.5771 127.054 72.2313 127.357 71.8231 127.55C71.3417 127.776 70.8141 127.887 70.2822 127.874C69.7531 127.884 69.2269 127.791 68.7326 127.602Z" fill="#454444"/>
<path d="M80.0504 119.89V121.422H77.9492V127.795H76.0231V121.422H73.9219V119.89H80.0504Z" fill="#454444"/>
<path d="M85.0489 127.804L83.4029 124.819H82.9477V127.804H81.0391V119.925H84.2784C84.8271 119.912 85.3716 120.023 85.8718 120.249C86.2815 120.435 86.626 120.74 86.8612 121.124C87.0739 121.51 87.1797 121.945 87.1676 122.385C87.1727 122.89 87.0163 123.384 86.7211 123.795C86.3937 124.225 85.9312 124.533 85.4078 124.67L87.2376 127.804H85.0489ZM82.9477 123.427H84.1383C84.2819 123.438 84.4262 123.42 84.5629 123.375C84.6996 123.33 84.8261 123.258 84.935 123.164C85.0266 123.068 85.0972 122.953 85.1425 122.828C85.1877 122.703 85.2065 122.57 85.1977 122.437C85.2062 122.307 85.1871 122.177 85.1419 122.055C85.0966 121.933 85.0262 121.821 84.935 121.728C84.8261 121.634 84.6996 121.563 84.5629 121.518C84.4262 121.473 84.2819 121.455 84.1383 121.466H82.9477V123.427Z" fill="#454444"/>
<path d="M90.2588 119.89V124.626C90.2354 125.022 90.3603 125.412 90.609 125.721C90.7427 125.854 90.9032 125.957 91.0798 126.023C91.2564 126.09 91.4451 126.118 91.6334 126.106C91.8243 126.118 92.0156 126.089 92.195 126.023C92.3744 125.957 92.5379 125.854 92.6752 125.721C92.9302 125.415 93.0587 125.023 93.0342 124.626V119.89H94.9603V124.617C94.9732 125.231 94.8188 125.836 94.5138 126.368C94.2351 126.875 93.8113 127.287 93.2968 127.55C92.7688 127.796 92.1937 127.923 91.6115 127.923C91.0293 127.923 90.4542 127.796 89.9262 127.55C89.4376 127.306 89.0324 126.922 88.7617 126.447C88.4684 125.911 88.3205 125.307 88.3327 124.696V119.968L90.2588 119.89Z" fill="#454444"/>
<path d="M96.4926 121.746C96.8218 121.144 97.3132 120.647 97.9109 120.31C98.5403 119.963 99.2498 119.788 99.9683 119.802C100.831 119.778 101.678 120.039 102.376 120.547C103.049 121.041 103.526 121.757 103.724 122.569H101.606C101.46 122.257 101.225 121.995 100.931 121.816C100.63 121.646 100.288 121.558 99.942 121.562C99.6711 121.553 99.4014 121.603 99.1518 121.708C98.9022 121.814 98.6789 121.974 98.4975 122.175C98.1134 122.642 97.9168 123.235 97.9459 123.838C97.9148 124.44 98.1117 125.031 98.4975 125.493C98.8039 125.818 99.2107 126.029 99.6522 126.095C100.094 126.16 100.544 126.074 100.931 125.852C101.225 125.673 101.46 125.411 101.606 125.099H103.724C103.531 125.913 103.052 126.63 102.376 127.122C101.675 127.623 100.83 127.881 99.9683 127.857C99.2498 127.871 98.5403 127.696 97.9109 127.349C97.3155 127.014 96.8246 126.52 96.4926 125.922C96.1586 125.277 95.9844 124.561 95.9844 123.834C95.9844 123.107 96.1586 122.391 96.4926 121.746Z" fill="#454444"/>
<path d="M110.596 119.89V121.422H108.504V127.795H106.569V121.422H104.477V119.89H110.596Z" fill="#454444"/>
<path d="M113.496 119.89V127.769H111.57V119.89H113.496Z" fill="#454444"/>
<path d="M116.594 127.366C115.977 127.025 115.466 126.523 115.114 125.913C114.753 125.276 114.562 124.557 114.562 123.825C114.562 123.093 114.753 122.373 115.114 121.737C115.468 121.131 115.98 120.632 116.594 120.292C117.218 119.947 117.92 119.769 118.634 119.776C119.349 119.77 120.055 119.948 120.682 120.292C121.309 120.624 121.831 121.124 122.188 121.737C122.544 122.375 122.731 123.094 122.731 123.825C122.731 124.556 122.544 125.274 122.188 125.913C121.84 126.523 121.331 127.025 120.717 127.366C120.091 127.705 119.39 127.882 118.677 127.882C117.965 127.882 117.264 127.705 116.637 127.366H116.594ZM120.148 125.493C120.517 125.013 120.718 124.425 120.718 123.82C120.718 123.215 120.517 122.627 120.148 122.148C119.955 121.942 119.72 121.779 119.459 121.672C119.197 121.564 118.916 121.515 118.634 121.527C118.35 121.512 118.066 121.56 117.802 121.667C117.539 121.775 117.303 121.939 117.11 122.148C116.71 122.61 116.506 123.21 116.541 123.82C116.508 124.433 116.712 125.035 117.11 125.501C117.304 125.709 117.541 125.872 117.804 125.979C118.067 126.086 118.35 126.135 118.634 126.123C118.917 126.135 119.199 126.085 119.461 125.976C119.723 125.867 119.957 125.702 120.148 125.493Z" fill="#454444"/>
<path d="M130.831 127.804H128.905L125.692 122.919V127.804H123.766V119.925H125.692L128.914 124.828V119.925H130.84L130.831 127.804Z" fill="#454444"/>
<path d="M159.767 115.003L86.0039 41.2402L12.2412 115.003L86.0039 188.766L159.767 115.003Z" stroke="#1D1D1B" stroke-width="2" stroke-miterlimit="10"/>
</g>
<g clip-path="url(#clip1_722_389)">
<path d="M235.082 252.329H227.109V163.32C227.109 162.263 227.529 161.249 228.277 160.501C229.024 159.754 230.038 159.334 231.095 159.334C232.153 159.334 233.166 159.754 233.914 160.501C234.662 161.249 235.082 162.263 235.082 163.32V252.329Z" fill="#C9C6C6"/>
<path d="M231.095 159.334C230.038 159.334 229.024 159.754 228.277 160.501C227.529 161.249 227.109 162.263 227.109 163.32V252.329H231.095V159.334Z" fill="#B4B3B3"/>
<path d="M171.886 252.329H163.914V163.32C163.914 162.263 164.334 161.249 165.082 160.501C165.829 159.754 166.843 159.334 167.9 159.334C168.957 159.334 169.971 159.754 170.719 160.501C171.466 161.249 171.886 162.263 171.886 163.32V252.329Z" fill="#C9C6C6"/>
<path d="M167.9 159.334C166.843 159.334 165.829 159.754 165.082 160.501C164.334 161.249 163.914 162.263 163.914 163.32V252.329H167.9V159.334Z" fill="#B4B3B3"/>
<path d="M235.082 252.329H227.109V163.32C227.109 162.263 227.529 161.249 228.277 160.501C229.024 159.754 230.038 159.334 231.095 159.334V159.334C232.153 159.334 233.166 159.754 233.914 160.501C234.662 161.249 235.082 162.263 235.082 163.32V252.329Z" stroke="#1D1D1B" stroke-width="2" stroke-miterlimit="10"/>
<path d="M231.095 159.334C230.038 159.334 229.024 159.754 228.277 160.501C227.529 161.249 227.109 162.263 227.109 163.32V252.329H231.095V159.334Z" stroke="#1D1D1B" stroke-width="2" stroke-miterlimit="10"/>
<path d="M171.886 252.329H163.914V163.32C163.914 162.263 164.334 161.249 165.082 160.501C165.829 159.754 166.843 159.334 167.9 159.334V159.334C168.957 159.334 169.971 159.754 170.719 160.501C171.466 161.249 171.886 162.263 171.886 163.32V252.329Z" stroke="#1D1D1B" stroke-width="2" stroke-miterlimit="10"/>
<path d="M167.9 159.334C166.843 159.334 165.829 159.754 165.082 160.501C164.334 161.249 163.914 162.263 163.914 163.32V252.329H167.9V159.334Z" stroke="#1D1D1B" stroke-width="2" stroke-miterlimit="10"/>
<path d="M251.192 170.492H147.793V188.565H251.192V170.492Z" fill="#EFDC70"/>
<path d="M154.372 170.492L147.793 177.071V188.565H150.373L168.446 170.492H154.372Z" fill="#454444"/>
<path d="M173.039 188.565L191.111 170.492H177.038L158.965 188.565H173.039Z" fill="#454444"/>
<path d="M195.703 188.565L213.775 170.492H199.702L181.629 188.565H195.703Z" fill="#454444"/>
<path d="M218.371 188.565L236.443 170.492H222.37L204.297 188.565H218.371Z" fill="#454444"/>
<path d="M241.035 188.565L251.2 178.406V170.492H245.034L226.961 188.565H241.035Z" fill="#454444"/>
<path d="M251.192 197.976H147.793V216.048H251.192V197.976Z" fill="#EFDC70"/>
<path d="M154.372 197.976L147.793 204.555V216.048H150.373L168.446 197.976H154.372Z" fill="#454444"/>
<path d="M173.039 216.048L191.111 197.976H177.038L158.965 216.048H173.039Z" fill="#454444"/>
<path d="M195.703 216.048L213.775 197.976H199.702L181.629 216.048H195.703Z" fill="#454444"/>
<path d="M218.371 216.048L236.443 197.976H222.37L204.297 216.048H218.371Z" fill="#454444"/>
<path d="M241.035 216.048L251.2 205.89V197.976H245.034L226.961 216.048H241.035Z" fill="#454444"/>
<path d="M155.709 165.848H153.039V170.498H155.709V165.848Z" stroke="#1D1D1B" stroke-width="2" stroke-miterlimit="10"/>
<path d="M158.38 165.848H153.039V170.498H158.38V165.848Z" fill="#C9C6C6"/>
<path d="M155.709 165.848H153.039V170.498H155.709V165.848Z" fill="#B4B3B3"/>
<path d="M158.38 165.848H153.039V170.498H158.38V165.848Z" stroke="#1D1D1B" stroke-width="2" stroke-miterlimit="10"/>
<path d="M162.825 161.397C163.48 157.469 160.826 153.753 156.897 153.099C152.969 152.444 149.254 155.098 148.599 159.027C147.945 162.955 150.599 166.67 154.527 167.325C158.455 167.979 162.171 165.325 162.825 161.397Z" fill="#454444"/>
<path d="M150.012 160.211C150.01 159.084 150.343 157.982 150.968 157.045C151.593 156.107 152.482 155.376 153.523 154.944C154.564 154.512 155.709 154.398 156.814 154.617C157.919 154.836 158.935 155.378 159.732 156.175C160.529 156.971 161.072 157.986 161.292 159.091C161.513 160.196 161.4 161.341 160.969 162.382C160.539 163.423 159.809 164.313 158.872 164.939C157.935 165.565 156.834 165.899 155.707 165.899C154.198 165.899 152.75 165.3 151.682 164.234C150.614 163.167 150.013 161.72 150.012 160.211Z" fill="#F08819"/>
<path opacity="0.3" d="M155.707 154.516C154.556 154.515 153.432 154.864 152.483 155.516C151.534 156.168 150.805 157.092 150.393 158.167C149.981 159.242 149.904 160.416 150.174 161.536C150.443 162.655 151.046 163.666 151.902 164.436L159.932 156.399C159.4 155.806 158.748 155.331 158.02 155.007C157.292 154.682 156.504 154.515 155.707 154.516Z" fill="white"/>
<path d="M246.657 165.848H241.316V170.498H246.657V165.848Z" fill="#C9C6C6"/>
<path d="M243.987 165.848H241.316V170.498H243.987V165.848Z" fill="#B4B3B3"/>
<path d="M243.987 165.848H241.316V170.498H243.987V165.848Z" stroke="#1D1D1B" stroke-width="2" stroke-miterlimit="10"/>
<path d="M246.657 165.848H241.316V170.498H246.657V165.848Z" stroke="#1D1D1B" stroke-width="2" stroke-miterlimit="10"/>
<path d="M249.455 164.906C252.05 161.885 251.705 157.333 248.685 154.737C245.664 152.142 241.111 152.486 238.516 155.507C235.92 158.528 236.265 163.081 239.286 165.676C242.306 168.271 246.859 167.927 249.455 164.906Z" fill="#454444"/>
<path d="M238.293 160.211C238.292 159.084 238.625 157.982 239.25 157.045C239.875 156.107 240.764 155.376 241.804 154.944C242.845 154.512 243.99 154.398 245.095 154.617C246.201 154.836 247.216 155.378 248.013 156.175C248.81 156.971 249.353 157.986 249.574 159.091C249.794 160.196 249.682 161.341 249.251 162.382C248.82 163.423 248.09 164.313 247.153 164.939C246.216 165.565 245.115 165.899 243.988 165.899C242.479 165.899 241.031 165.3 239.963 164.234C238.895 163.167 238.295 161.72 238.293 160.211Z" fill="#F08819"/>
<path opacity="0.3" d="M243.987 154.516C242.835 154.514 241.71 154.862 240.76 155.513C239.811 156.164 239.081 157.089 238.668 158.164C238.254 159.239 238.177 160.414 238.447 161.534C238.716 162.654 239.319 163.666 240.175 164.436L248.212 156.399C247.679 155.806 247.028 155.332 246.3 155.008C245.572 154.684 244.784 154.516 243.987 154.516Z" fill="white"/>
<path d="M251.044 170.518H147.645V188.59H251.044V170.518Z" stroke="#1D1D1B" stroke-width="2" stroke-miterlimit="10"/>
<path d="M251.044 198.001H147.645V216.074H251.044V198.001Z" stroke="#1D1D1B" stroke-width="2" stroke-miterlimit="10"/>
</g>
<defs>
<clipPath id="clip0_722_389">
<rect width="150" height="150" fill="white" transform="translate(11 40)"/>
</clipPath>
<clipPath id="clip1_722_389">
<rect width="104.689" height="100" fill="white" transform="translate(147 153)"/>
</clipPath>
</defs>
</svg>
