<svg width="122" height="80" viewBox="0 0 122 80" fill="none" xmlns="http://www.w3.org/2000/svg">
<g clip-path="url(#clip0_255_2381)">
<path d="M118.497 70.5137H83.418V74.9019H118.497V70.5137Z" fill="#B19F81"/>
<path d="M118.344 70.3447H83.2656V74.7329H118.344V70.3447Z" stroke="#1D1D1B" stroke-width="2" stroke-miterlimit="10"/>
<path d="M120.461 70.5137H116.535V79.2812H120.461V70.5137Z" fill="#3B3C3C"/>
<path d="M120.317 70.3447H116.391V79.1122H120.317V70.3447Z" stroke="#1D1D1B" stroke-width="2" stroke-miterlimit="10"/>
<path d="M76.6671 79.2806C82.3384 79.2806 86.9359 74.6831 86.9359 69.0119C86.9359 63.3406 82.3384 58.7432 76.6671 58.7432C70.9959 58.7432 66.3984 63.3406 66.3984 69.0119C66.3984 74.6831 70.9959 79.2806 76.6671 79.2806Z" fill="#323030"/>
<path d="M76.5265 79.1116C82.1978 79.1116 86.7952 74.5142 86.7952 68.8429C86.7952 63.1717 82.1978 58.5742 76.5265 58.5742C70.8553 58.5742 66.2578 63.1717 66.2578 68.8429C66.2578 74.5142 70.8553 79.1116 76.5265 79.1116Z" stroke="#1D1D1B" stroke-width="2" stroke-miterlimit="10"/>
<path fill-rule="evenodd" clip-rule="evenodd" d="M1.02734 35.6744V68.4436C1.02734 68.4436 1.02734 79.2809 13.9521 79.2809H76.9501V37.7441C75.4586 28.9963 71.5406 20.8431 65.642 14.2131C55.9596 3.59798 15.3378 -10.2506 1.02734 35.6744Z" fill="#3B3C3C"/>
<path fill-rule="evenodd" clip-rule="evenodd" d="M0.886719 35.5325V68.2662C0.886719 68.2662 0.886719 79.1123 13.8114 79.1123H76.8094V37.5756C75.3187 28.8249 71.4006 20.6687 65.5014 14.0357C55.8101 3.42059 15.1972 -10.428 0.886719 35.5325Z" stroke="#1D1D1B" stroke-width="2" stroke-miterlimit="10"/>
<path d="M66.1466 7.15114L62.2891 1.40625L58.2625 4.10996L62.12 9.85486L66.1466 7.15114Z" fill="#F3952A"/>
<path d="M66.002 6.98317L62.1445 1.23828L58.1179 3.942L61.9754 9.68688L66.002 6.98317Z" stroke="#1D1D1B" stroke-width="2" stroke-miterlimit="10"/>
<path d="M68.8736 8.99329L55.9727 1.54492L52.3351 7.84539L65.236 15.2938L68.8736 8.99329Z" fill="#3B3C3C"/>
<path d="M68.7213 8.81653L55.8203 1.36816L52.1827 7.66863L65.0837 15.117L68.7213 8.81653Z" stroke="#1D1D1B" stroke-width="2" stroke-miterlimit="10"/>
<path d="M38.9937 74.8927C57.44 74.8927 72.3937 59.939 72.3937 41.4927C72.3937 23.0464 57.44 8.09277 38.9937 8.09277C20.5474 8.09277 5.59375 23.0464 5.59375 41.4927C5.59375 59.939 20.5474 74.8927 38.9937 74.8927Z" fill="#F3952A"/>
<path d="M38.8453 74.7237C57.2916 74.7237 72.2452 59.7701 72.2452 41.3238C72.2452 22.8775 57.2916 7.92383 38.8453 7.92383C20.399 7.92383 5.44531 22.8775 5.44531 41.3238C5.44531 59.7701 20.399 74.7237 38.8453 74.7237Z" stroke="#1D1D1B" stroke-width="2" stroke-miterlimit="10"/>
<path d="M38.994 67.3151C53.2702 67.3151 64.8434 55.7419 64.8434 41.4656C64.8434 27.1894 53.2702 15.6162 38.994 15.6162C24.7177 15.6162 13.1445 27.1894 13.1445 41.4656C13.1445 55.7419 24.7177 67.3151 38.994 67.3151Z" fill="#FABA4D"/>
<path d="M38.8455 67.1383C53.1218 67.1383 64.695 55.5651 64.695 41.2889C64.695 27.0126 53.1218 15.4395 38.8455 15.4395C24.5693 15.4395 12.9961 27.0126 12.9961 41.2889C12.9961 55.5651 24.5693 67.1383 38.8455 67.1383Z" stroke="#1D1D1B" stroke-width="2" stroke-miterlimit="10"/>
<path d="M28.7257 47.3909C28.1408 47.1124 27.6432 46.6793 27.2866 46.1384C26.9052 45.5473 26.6679 44.8749 26.5938 44.1753H28.6013C28.6415 44.5299 28.7698 44.8689 28.9744 45.1613C29.169 45.4188 29.43 45.6184 29.7294 45.7387C30.0721 45.8706 30.4372 45.9339 30.8043 45.9252C31.0781 45.9419 31.3525 45.9041 31.6117 45.8142C31.8709 45.7242 32.1097 45.5838 32.3144 45.4011C32.5036 45.209 32.6504 44.9792 32.7453 44.7267C32.8401 44.4743 32.881 44.2047 32.8651 43.9355V43.5268C32.9034 42.941 32.723 42.3618 32.3588 41.9013C32.1737 41.7058 31.9484 41.5529 31.6984 41.4532C31.4484 41.3535 31.1796 41.3094 30.9109 41.3239H29.9071V39.4318H30.902C31.1363 39.4458 31.371 39.4095 31.5901 39.3252C31.8092 39.2409 32.0077 39.1107 32.1723 38.9432C32.4947 38.5561 32.6568 38.0603 32.6253 37.5575V37.1222C32.6407 36.8858 32.606 36.6489 32.5233 36.4269C32.4406 36.2049 32.3119 36.0029 32.1456 35.8342C31.7717 35.5131 31.2873 35.3506 30.7954 35.3812C30.4891 35.3763 30.1856 35.44 29.9071 35.5677C29.6368 35.6999 29.4045 35.8986 29.232 36.1451C29.0325 36.4429 28.8964 36.7785 28.8323 37.1311H26.8247C26.9214 36.4314 27.1635 35.7597 27.5353 35.1591C27.8692 34.6306 28.3385 34.2012 28.8944 33.9155C29.478 33.6219 30.1245 33.4756 30.7776 33.4891C31.8034 33.4247 32.8129 33.7697 33.5846 34.4484C33.9251 34.8002 34.1892 35.2184 34.3604 35.677C34.5316 36.1356 34.6062 36.6246 34.5795 37.1133V37.3443C34.5918 37.9995 34.3924 38.6412 34.011 39.1742C33.6045 39.7151 33.0393 40.1157 32.3943 40.3201C33.1087 40.4558 33.7442 40.8594 34.1709 41.4482C34.612 42.1092 34.8328 42.8927 34.8016 43.6867V43.9177C34.8212 44.6447 34.6594 45.3652 34.3308 46.0141C34.0174 46.5852 33.537 47.047 32.954 47.3376C32.2736 47.6557 31.5284 47.8108 30.7776 47.7907C30.0725 47.8108 29.3717 47.6743 28.7257 47.3909Z" fill="#1D1D1B"/>
<path d="M47.9646 33.6309H49.8123V47.6748H47.9646V37.1574L48.0623 37.7792L44.598 45.7206H43.1945L39.739 37.9657L39.8367 37.1574V47.6748H37.918V33.6309H39.7567L43.8784 42.9047L47.9646 33.6309Z" fill="#1D1D1B"/>
<path d="M28.6642 47.3908C28.0761 47.1137 27.5753 46.6804 27.2163 46.1383C26.8349 45.5472 26.5976 44.8748 26.5234 44.1752H28.5399C28.5762 44.5307 28.7048 44.8706 28.913 45.1612C29.1051 45.4174 29.3629 45.6169 29.6591 45.7386C30.0022 45.8689 30.3671 45.9323 30.734 45.9251C31.2897 45.9581 31.8358 45.7697 32.253 45.401C32.4406 45.2081 32.5857 44.978 32.6791 44.7256C32.7724 44.4731 32.8118 44.2039 32.7948 43.9353V43.5267C32.834 42.9393 32.65 42.3587 32.2796 41.9011C32.0953 41.7047 31.8701 41.5512 31.6199 41.4514C31.3696 41.3516 31.1006 41.3081 30.8317 41.3237H29.8368V39.4317H30.8317C31.0675 39.447 31.3038 39.4113 31.5246 39.327C31.7453 39.2427 31.9453 39.1117 32.1108 38.9431C32.4333 38.556 32.5954 38.0602 32.5639 37.5574V37.1221C32.5793 36.8857 32.5445 36.6487 32.4619 36.4268C32.3792 36.2048 32.2505 36.0028 32.0842 35.8341C31.7076 35.5116 31.2199 35.349 30.7251 35.381C30.4189 35.3779 30.1158 35.4416 29.8368 35.5676C29.5668 35.6965 29.3366 35.896 29.1706 36.145C28.9711 36.4427 28.835 36.7784 28.7708 37.131H26.7633C26.875 36.4254 27.1387 35.7526 27.5361 35.159C27.8695 34.6333 28.3351 34.2045 28.8863 33.9154C29.4706 33.6238 30.1166 33.4776 30.7695 33.489C31.7979 33.4251 32.8099 33.7699 33.5854 34.4483C33.9243 34.8008 34.1867 35.2194 34.3564 35.6779C34.526 36.1365 34.5992 36.6251 34.5714 37.1132V37.3442C34.5875 38 34.3878 38.6429 34.0029 39.1741C33.6017 39.7165 33.0387 40.1177 32.3951 40.32C33.1112 40.4514 33.7482 40.8559 34.1717 41.4481C34.6193 42.1064 34.8435 42.8912 34.8112 43.6866V43.9176C34.8327 44.6458 34.6676 45.3675 34.3316 46.014C34.0233 46.589 33.5415 47.0522 32.9547 47.3375C32.2847 47.6285 31.5621 47.7786 30.8317 47.7786C30.1013 47.7786 29.3786 47.6285 28.7086 47.3375L28.6642 47.3908Z" stroke="#1D1D1B" stroke-width="0.75" stroke-miterlimit="10"/>
<path d="M47.9654 33.6309H49.813V47.6748H47.8588V37.1574L47.9565 37.7792L44.501 45.7206H43.133L39.6775 37.9657L39.7753 37.1574V47.6748H37.8477V33.6309H39.6953L43.817 42.9047L47.9654 33.6309Z" stroke="#1D1D1B" stroke-width="0.75" stroke-miterlimit="10"/>
<path fill-rule="evenodd" clip-rule="evenodd" d="M5.58594 62.3945L18.4218 75.639H11.5464C11.5464 75.639 7.10492 75.8078 5.58594 70.4425V62.3945Z" fill="#777778"/>
<path fill-rule="evenodd" clip-rule="evenodd" d="M5.44531 62.2256L18.2812 75.5056H11.3614C11.3614 75.5056 6.97318 75.6833 5.44531 70.318V62.2256Z" stroke="#1D1D1B" stroke-width="2" stroke-miterlimit="10"/>
</g>
<defs>
<clipPath id="clip0_255_2381">
<rect width="121.199" height="80" fill="white"/>
</clipPath>
</defs>
</svg>
