<svg width="279" height="424" viewBox="0 0 279 424" fill="none" xmlns="http://www.w3.org/2000/svg">
<path d="M-13.1768 106.799C-31.5768 143.799 -78.8769 167.299 -102.277 185.699C-123.677 202.499 -162.077 246.499 -160.977 277.499C-159.777 308.399 -136.277 339.199 -105.477 341.799C-92.0769 342.899 -78.5769 338.999 -65.1769 339.899C-22.1769 342.799 1.82314 391.099 39.6231 411.799C83.2231 435.599 138.723 418.799 179.123 389.799C204.723 371.299 227.823 346.899 236.023 316.399C244.223 285.899 233.623 248.899 205.823 233.899C180.723 220.399 142.623 222.399 132.823 195.599C126.023 176.899 139.323 157.399 142.323 137.699C147.023 106.899 123.523 76.1988 93.8232 66.7988C64.1232 57.3988 30.8231 66.2988 5.22311 84.0988C-2.57689 89.2988 -8.47685 97.3988 -13.1768 106.799Z" fill="#E9C3E7"/>
<g clip-path="url(#clip0_721_384)">
<path d="M123.908 82.0104C128.261 71.151 129.296 59.2445 126.883 47.7966C124.469 36.3487 118.715 25.8736 110.348 17.6959C101.982 9.51824 91.3776 4.00527 79.8775 1.85418C68.3774 -0.296916 56.4977 1.01048 45.7407 5.61103C34.9836 10.2116 25.8324 17.8987 19.4442 27.7002C13.0559 37.5017 9.71769 48.9774 9.85153 60.6762C9.98537 72.375 13.5853 83.7713 20.1961 93.4242C26.8069 103.077 36.1316 110.553 46.9911 114.906C61.5531 120.743 77.8375 120.557 92.2622 114.388C106.687 108.219 118.07 96.5723 123.908 82.0104ZM62.688 57.4695C63.1878 56.2222 64.0462 55.151 65.1547 54.3915C66.2632 53.6319 67.572 53.2181 68.9156 53.2023C70.2593 53.1866 71.5774 53.5696 72.7035 54.3029C73.8295 55.0362 74.7128 56.0869 75.2417 57.3222C75.7706 58.5575 75.9213 59.9218 75.6749 61.2428C75.4285 62.5638 74.7959 63.782 73.8572 64.7435C72.9184 65.7049 71.7157 66.3665 70.401 66.6445C69.0864 66.9225 67.7188 66.8044 66.4712 66.3052C64.799 65.6338 63.4615 64.3263 62.7522 62.6698C62.0429 61.0133 62.0198 59.143 62.688 57.4695Z" fill="white" stroke="black" stroke-width="2" stroke-linecap="round" stroke-linejoin="round"/>
<path d="M94.1003 70.0637C96.0928 65.0987 96.568 59.6543 95.4659 54.4191C94.3638 49.184 91.7339 44.3933 87.9088 40.653C84.0837 36.9126 79.2353 34.3908 73.9767 33.4062C68.7182 32.4217 63.2858 33.0189 58.3667 35.1221C53.4476 37.2253 49.2627 40.7401 46.3414 45.222C43.4201 49.7039 41.8935 54.9515 41.9549 60.301C42.0163 65.6506 43.6627 70.8617 46.6861 75.2754C49.7095 79.6891 53.9739 83.107 58.9399 85.0969C62.2357 86.4186 65.7595 87.0782 69.3102 87.038C72.8608 86.9979 76.3688 86.2587 79.6338 84.8627C82.8988 83.4667 85.8568 81.4413 88.339 78.9021C90.8212 76.3628 92.7789 73.3595 94.1003 70.0637ZM62.6899 57.4697C63.1897 56.2223 64.0481 55.1512 65.1566 54.3916C66.2651 53.6321 67.5739 53.2183 68.9176 53.2025C70.2612 53.1867 71.5794 53.5697 72.7054 54.303C73.8314 55.0364 74.7147 56.0871 75.2436 57.3224C75.7725 58.5576 75.9233 59.922 75.6769 61.243C75.4304 62.5639 74.7979 63.7821 73.8591 64.7436C72.9204 65.7051 71.7177 66.3667 70.403 66.6446C69.0883 66.9226 67.7207 66.8046 66.4731 66.3054C64.8009 65.6339 63.4634 64.3265 62.7541 62.67C62.0449 61.0134 62.0218 59.1432 62.6899 57.4697Z" fill="#AA9DEA" stroke="black" stroke-width="2" stroke-linecap="round" stroke-linejoin="round"/>
<path d="M87.362 67.3584C88.8195 63.7258 89.167 59.7425 88.3603 55.9124C87.5537 52.0823 85.6292 48.5775 82.8304 45.8413C80.0316 43.105 76.4841 41.2604 72.6367 40.5406C68.7894 39.8208 64.815 40.2582 61.2162 41.7976C57.6175 43.3369 54.5562 45.9089 52.4194 49.1884C50.2827 52.4678 49.1666 56.3073 49.2123 60.2211C49.258 64.135 50.4634 67.9474 52.6761 71.176C54.8888 74.4047 58.0093 76.9046 61.643 78.3595C66.5125 80.3093 71.957 80.2457 76.7797 78.1828C81.6025 76.1199 85.4088 72.2266 87.362 67.3584ZM62.6883 57.469C63.1881 56.2217 64.0465 55.1505 65.155 54.391C66.2635 53.6314 67.5723 53.2176 68.916 53.2019C70.2596 53.1861 71.5778 53.5691 72.7038 54.3024C73.8298 55.0357 74.7131 56.0864 75.242 57.3217C75.7709 58.557 75.9217 59.9214 75.6753 61.2423C75.4288 62.5633 74.7963 63.7815 73.8575 64.743C72.9188 65.7045 71.7161 66.366 70.4014 66.644C69.0867 66.922 67.7191 66.8039 66.4715 66.3047C64.7993 65.6333 63.4618 64.3258 62.7525 62.6693C62.0433 61.0128 62.0202 59.1425 62.6883 57.469Z" fill="#9880E0" stroke="black" stroke-width="2" stroke-linecap="round" stroke-linejoin="round"/>
</g>
<g clip-path="url(#clip1_721_384)">
<path fill-rule="evenodd" clip-rule="evenodd" d="M207.081 197.063C206.661 197.708 203.901 211.32 200.574 228.384C199.688 232.901 208.053 239.424 206.902 245.41C206.008 250.074 195.599 254.171 194.829 258.198C193.694 264.153 193.679 264.246 192.59 269.991C191.883 273.699 198.413 280.875 197.146 287.576C195.925 294.044 186.915 300.014 186.262 303.482C182.958 321.004 182.328 324.472 181.598 328.226L212.616 337.097L244.871 328.226C244.319 325.272 243.222 319.333 240.206 303.482C239.429 299.361 229.011 293.375 227.838 287.156C226.609 280.642 234.609 273.94 233.878 269.999C233.007 265.404 232.463 262.551 231.631 258.206C230.776 253.728 223.748 247.765 222.94 243.59C221.914 238.257 226.827 233.173 225.894 228.392C222.497 210.722 219.908 197.817 219.418 197.063C217.436 194 209.048 194 207.081 197.063Z" fill="#F28C25"/>
<path fill-rule="evenodd" clip-rule="evenodd" d="M237.968 303.481H215.633C216.317 316.697 216.853 325.7 217.04 325.77C217.755 326.034 242.065 326.119 242.065 326.119L237.968 303.481Z" fill="#F79C4B"/>
<path fill-rule="evenodd" clip-rule="evenodd" d="M214.017 269.991H231.897L229.759 258.198H213.434C213.651 262.132 213.83 266.081 214.017 269.991Z" fill="#F79C4B"/>
<path fill-rule="evenodd" clip-rule="evenodd" d="M212.151 228.384H224.379L218.821 197.708C217.313 197.304 211.374 197.125 211.047 197.615C210.907 197.77 211.405 210.745 212.151 228.384Z" fill="#F79C4B"/>
<path fill-rule="evenodd" clip-rule="evenodd" d="M207.261 197.063C206.841 197.708 204.081 211.32 200.754 228.384C199.875 232.87 208.232 239.424 207.082 245.41C206.188 250.074 195.786 254.171 195.017 258.198C193.866 264.153 193.866 264.246 192.77 269.991C192.062 273.699 198.593 280.875 197.333 287.576C196.113 294.044 187.095 300.014 186.45 303.482C183.146 321.004 182.516 324.472 181.785 328.226L212.804 337.097L245.066 328.226C244.506 325.272 243.41 319.333 240.401 303.482C239.624 299.361 229.215 293.375 228.033 287.156C226.805 280.642 234.812 273.94 234.073 269.999C233.203 265.404 232.658 262.551 231.827 258.206C230.971 253.728 223.944 247.765 223.135 243.59C222.109 238.257 227.022 233.173 226.089 228.392C222.7 210.722 220.111 197.817 219.614 197.063C217.631 194 209.251 194 207.261 197.063Z" stroke="#1D1D1B" stroke-width="2" stroke-miterlimit="10"/>
<path fill-rule="evenodd" clip-rule="evenodd" d="M233.92 269.991H192.578C190.292 281.994 188.085 293.694 186.25 303.482H240.248C238.406 293.694 236.198 281.994 233.92 269.991Z" fill="#EDEDEE"/>
<path fill-rule="evenodd" clip-rule="evenodd" d="M194.816 258.198H231.673C229.675 247.742 227.701 237.457 225.936 228.385H200.561C198.789 237.457 196.814 247.742 194.816 258.198Z" fill="#EDEDEE"/>
<path fill-rule="evenodd" clip-rule="evenodd" d="M195.047 258.198H231.896C229.906 247.742 227.923 237.457 226.159 228.385H200.784C199.019 237.457 197.037 247.742 195.047 258.198Z" stroke="#1D1D1B" stroke-width="2" stroke-miterlimit="10"/>
<path fill-rule="evenodd" clip-rule="evenodd" d="M234.143 269.618H192.801C190.523 281.621 188.315 293.321 186.473 303.109H240.51C238.629 293.321 236.421 281.621 234.143 269.618Z" stroke="#1D1D1B" stroke-width="2" stroke-miterlimit="10"/>
<path fill-rule="evenodd" clip-rule="evenodd" d="M148.777 337.097L213.247 328.227L277.71 337.097V343.223H148.777V337.097Z" fill="#F28C25"/>
<path fill-rule="evenodd" clip-rule="evenodd" d="M148.777 337.097L213.247 328.227L277.71 337.097V343.223H148.777V337.097Z" stroke="#1D1D1B" stroke-width="2" stroke-miterlimit="10"/>
<path fill-rule="evenodd" clip-rule="evenodd" d="M181.607 328.227H244.88L277.71 337.097H148.777L181.607 328.227Z" fill="#F79C4B"/>
<path fill-rule="evenodd" clip-rule="evenodd" d="M182.377 328.227H245.649L277.71 337.097H149.547L182.377 328.227Z" stroke="#1D1D1B" stroke-width="2" stroke-linejoin="round"/>
</g>
<defs>
<clipPath id="clip0_721_384">
<rect width="120" height="120" fill="white" transform="translate(9)"/>
</clipPath>
<clipPath id="clip1_721_384">
<rect width="130.487" height="150" fill="white" transform="translate(148 194)"/>
</clipPath>
</defs>
</svg>
