<svg width="184" height="80" viewBox="0 0 184 80" fill="none" xmlns="http://www.w3.org/2000/svg">
<g clip-path="url(#clip0_255_2417)">
<path d="M182.391 71.0272H126.156C126.199 69.1534 125.866 67.29 125.179 65.5464C124.491 63.8029 123.462 62.2143 122.152 60.874C120.841 59.5338 119.277 58.4688 117.549 57.7417C115.822 57.0147 113.966 56.6401 112.092 56.6401C110.218 56.6401 108.362 57.0147 106.635 57.7417C104.907 58.4688 103.342 59.5338 102.032 60.874C100.722 62.2143 99.6929 63.8029 99.0053 65.5464C98.3176 67.29 97.9853 69.1534 98.0278 71.0272H41.793C41.793 52.3818 49.1998 34.5001 62.3841 21.3158C75.5684 8.13147 93.4502 0.724609 112.096 0.724609C130.741 0.724609 148.623 8.13147 161.807 21.3158C174.991 34.5001 182.398 52.3818 182.398 71.0272H182.391Z" fill="#F4897D" stroke="#231F20" stroke-width="2" stroke-miterlimit="10"/>
<path d="M168.321 71.0275H126.154C126.196 69.1537 125.864 67.2903 125.176 65.5467C124.488 63.8031 123.459 62.2146 122.149 60.8743C120.839 59.534 119.274 58.4691 117.547 57.742C115.819 57.0149 113.964 56.6404 112.089 56.6404C110.215 56.6404 108.36 57.0149 106.632 57.742C104.905 58.4691 103.34 59.534 102.03 60.8743C100.72 62.2146 99.6904 63.8031 99.0028 65.5467C98.3151 67.2903 97.9828 69.1537 98.0253 71.0275H55.8438C56.0118 56.2227 62.0109 42.0813 72.5394 31.6717C83.0679 21.262 97.2765 15.4238 112.082 15.4238C126.888 15.4238 141.096 21.262 151.625 31.6717C162.153 42.0813 168.153 56.2227 168.321 71.0275Z" fill="#8E94DD" stroke="#231F20" stroke-width="2" stroke-miterlimit="10"/>
<path d="M154.259 71.027H126.153C126.195 69.1532 125.863 67.2898 125.175 65.5462C124.487 63.8026 123.458 62.2141 122.148 60.8738C120.838 59.5335 119.273 58.4686 117.546 57.7415C115.818 57.0145 113.963 56.6399 112.088 56.6399C110.214 56.6399 108.359 57.0145 106.631 57.7415C104.904 58.4686 103.339 59.5335 102.029 60.8738C100.719 62.2141 99.6894 63.8026 99.0017 65.5462C98.314 67.2898 97.9817 69.1532 98.0242 71.027H69.9177C69.8445 65.4425 70.8812 59.8991 72.9676 54.7186C75.054 49.538 78.1486 44.8234 82.0718 40.8485C85.995 36.8735 90.6686 33.7174 95.8214 31.5632C100.974 29.4091 106.503 28.2998 112.088 28.2998C117.673 28.2998 123.203 29.4091 128.355 31.5632C133.508 33.7174 138.182 36.8735 142.105 40.8485C146.028 44.8234 149.123 49.538 151.209 54.7186C153.296 59.8991 154.332 65.4425 154.259 71.027Z" fill="#65DB73" stroke="#231F20" stroke-width="2" stroke-miterlimit="10"/>
<path d="M140.207 71.0276H126.154C126.196 69.1538 125.864 67.2904 125.176 65.5468C124.489 63.8032 123.46 62.2147 122.149 60.8744C120.839 59.5341 119.274 58.4692 117.547 57.7421C115.819 57.015 113.964 56.6405 112.09 56.6405C110.216 56.6405 108.36 57.015 106.633 57.7421C104.905 58.4692 103.34 59.5341 102.03 60.8744C100.72 62.2147 99.6908 63.8032 99.0031 65.5468C98.3154 67.2904 97.9831 69.1538 98.0256 71.0276H83.9724C83.9125 67.2971 84.5955 63.5921 85.9816 60.1283C87.3678 56.6644 89.4294 53.511 92.0462 50.8518C94.6631 48.1926 97.783 46.0806 101.224 44.6391C104.665 43.1975 108.359 42.4551 112.09 42.4551C115.821 42.4551 119.514 43.1975 122.955 44.6391C126.397 46.0806 129.516 48.1926 132.133 50.8518C134.75 53.511 136.812 56.6644 138.198 60.1283C139.584 63.5921 140.267 67.2971 140.207 71.0276Z" fill="#231F20" stroke="#231F20" stroke-width="2" stroke-miterlimit="10"/>
<path d="M140.207 71.0276H126.154C126.196 69.1538 125.864 67.2904 125.176 65.5468C124.489 63.8032 123.46 62.2147 122.149 60.8744C120.839 59.5341 119.274 58.4692 117.547 57.7421C115.819 57.015 113.964 56.6405 112.09 56.6405C110.216 56.6405 108.36 57.015 106.633 57.7421C104.905 58.4692 103.34 59.5341 102.03 60.8744C100.72 62.2147 99.6908 63.8032 99.0031 65.5468C98.3154 67.2904 97.9831 69.1538 98.0256 71.0276H83.9724C83.9125 67.2971 84.5955 63.5921 85.9816 60.1283C87.3678 56.6644 89.4294 53.511 92.0462 50.8518C94.6631 48.1926 97.783 46.0806 101.224 44.6391C104.665 43.1975 108.359 42.4551 112.09 42.4551C115.821 42.4551 119.514 43.1975 122.955 44.6391C126.397 46.0806 129.516 48.1926 132.133 50.8518C134.75 53.511 136.812 56.6644 138.198 60.1283C139.584 63.5921 140.267 67.2971 140.207 71.0276Z" fill="#EFDC70" stroke="#231F20" stroke-width="2" stroke-miterlimit="10"/>
<path d="M140.207 71.0276H126.154C126.196 69.1538 125.864 67.2904 125.176 65.5468C124.489 63.8032 123.46 62.2147 122.149 60.8744C120.839 59.5341 119.274 58.4692 117.547 57.7421C115.819 57.015 113.964 56.6405 112.09 56.6405C110.216 56.6405 108.36 57.015 106.633 57.7421C104.905 58.4692 103.34 59.5341 102.03 60.8744C100.72 62.2147 99.6908 63.8032 99.0031 65.5468C98.3154 67.2904 97.9831 69.1538 98.0256 71.0276H83.9724C83.9125 67.2971 84.5955 63.5921 85.9816 60.1283C87.3678 56.6644 89.4294 53.511 92.0462 50.8518C94.6631 48.1926 97.783 46.0806 101.224 44.6391C104.665 43.1975 108.359 42.4551 112.09 42.4551C115.821 42.4551 119.514 43.1975 122.955 44.6391C126.397 46.0806 129.516 48.1926 132.133 50.8518C134.75 53.511 136.812 56.6644 138.198 60.1283C139.584 63.5921 140.267 67.2971 140.207 71.0276Z" fill="#EFDC70" stroke="#231F20" stroke-width="2" stroke-miterlimit="10"/>
<path d="M86.14 68.0126C86.14 67.643 86.1907 67.2878 86.1907 66.8747C86.1909 63.0155 84.691 59.3074 82.0079 56.5336C79.3247 53.7598 75.6684 52.1376 71.8113 52.0097C71.8126 50.2075 71.3231 48.439 70.3953 46.894C69.4675 45.349 68.1364 44.0859 66.545 43.2403C64.9535 42.3946 63.1618 41.9984 61.3622 42.0941C59.5626 42.1898 57.823 42.7739 56.3302 43.7836C54.1966 40.3897 51.017 37.7818 47.2712 36.3537C43.5253 34.9255 39.4166 34.7546 35.5651 35.8666C31.7136 36.9786 28.3283 39.3132 25.9201 42.5181C23.5119 45.7231 22.2116 49.6243 22.2153 53.6332C22.2153 53.7926 22.2153 53.9521 22.2153 54.1115C18.9503 53.3367 15.531 53.5201 12.3675 54.6396C9.20402 55.7591 6.43054 57.7672 4.3796 60.4233C2.32865 63.0793 1.08729 66.2706 0.804326 69.6143C0.521366 72.9581 1.20882 76.3126 2.78428 79.2755H91.3945C91.5604 78.5429 91.6455 77.7944 91.6482 77.0432C91.6493 75.177 91.1358 73.3466 90.164 71.7533C89.1922 70.1601 87.7998 68.8657 86.14 68.0126Z" fill="white" stroke="#231F20" stroke-width="2" stroke-miterlimit="10"/>
<path d="M22.2148 53.633C22.2148 48.7313 24.162 44.0305 27.628 40.5645C31.094 37.0985 35.7948 35.1514 40.6965 35.1514C45.5981 35.1514 50.2989 37.0985 53.7649 40.5645C57.2309 44.0305 59.1781 48.7313 59.1781 53.633C59.179 54.8493 59.0625 56.0629 58.8302 57.2568" fill="white"/>
<path d="M22.2148 53.633C22.2148 48.7313 24.162 44.0305 27.628 40.5645C31.094 37.0985 35.7948 35.1514 40.6965 35.1514C45.5981 35.1514 50.2989 37.0985 53.7649 40.5645C57.2309 44.0305 59.1781 48.7313 59.1781 53.633C59.179 54.8493 59.0625 56.0629 58.8302 57.2568" stroke="#231F20" stroke-width="2" stroke-miterlimit="10" stroke-linecap="round"/>
</g>
<defs>
<clipPath id="clip0_255_2417">
<rect width="183.113" height="80" fill="white"/>
</clipPath>
</defs>
</svg>
