<svg width="436" height="200" viewBox="0 0 436 200" fill="none" xmlns="http://www.w3.org/2000/svg">
<path d="M48.0339 39.2108C20.4739 64.5362 -2.36859 99.2965 0.197052 136.623C2.7627 173.948 40.4197 209.123 76.0904 197.867C111.43 186.694 131.376 138.03 168.288 141.009C191.793 142.913 207.435 165.672 228.457 176.266C254.941 189.591 290.611 180.238 307.164 155.658C314.944 144.071 319.744 128.926 332.324 122.801C344.738 116.759 359.884 122.47 370.726 130.995C381.568 139.519 390.258 150.775 401.844 158.306C435.777 180.404 487.007 158.968 500.746 120.815C514.484 82.6612 494.125 37.4728 459.53 16.2855C424.935 -4.81897 379.995 -4.15686 342.421 11.0715C318.999 20.5892 297.232 35.4865 272.238 39.3763C227.877 46.2456 186.165 17.2787 141.639 11.237C104.892 6.10573 68.559 20.2581 48.0339 39.2108Z" fill="url(#paint0_linear_255_2028)"/>
<defs>
<linearGradient id="paint0_linear_255_2028" x1="505" y1="7.01741e-07" x2="3.95869" y2="200.145" gradientUnits="userSpaceOnUse">
<stop stop-color="#79CDF2"/>
<stop offset="1" stop-color="#79CDF2" stop-opacity="0"/>
</linearGradient>
</defs>
</svg>
