<svg width="152" height="134" viewBox="0 0 152 134" fill="none" xmlns="http://www.w3.org/2000/svg">
<g clip-path="url(#clip0_722_387)">
<path d="M184.6 46.21H184.22C177.69 46.05 171.47 42 167.15 35L159.3 22.39C157.74 19.88 155.92 18.5 154.15 18.5C152.38 18.5 150.57 19.88 149.01 22.39L141.16 35C136.83 42 130.61 46 124.09 46.17H123.34C116.81 46.05 110.59 42 106.27 35L98.42 22.39C96.86 19.88 95 18.5 93.27 18.5C91.54 18.5 89.69 19.88 88.13 22.39L80.28 35C76 42 69.73 46.05 63.21 46.2H62.46C55.93 46.06 49.71 42 45.39 35L37.54 22.39C36 19.88 34.15 18.5 32.39 18.5C30.63 18.5 28.8 19.88 27.25 22.39L14.72 42.56C12.28 46.48 7.54997 47.38 4.15997 44.56C2.49049 43.0478 1.40261 40.9992 1.08482 38.7692C0.767031 36.5393 1.23936 34.2683 2.41997 32.35L15 12.18C19.36 5.07 25.72 1 32.39 1C39.06 1 45.39 5.07 49.84 12.18L57.69 24.82C59.22 27.29 61.03 28.67 62.76 28.7H62.9C64.64 28.7 66.44 27.29 67.98 24.82L75.83 12.18C80.24 5.07 86.6 1 93.27 1C99.94 1 106.27 5.07 110.72 12.18L118.57 24.82C120.11 27.29 121.91 28.67 123.65 28.7H123.78C125.52 28.7 127.32 27.29 128.86 24.82L136.71 12.18C141.12 5.08 147.48 1 154.15 1C160.82 1 167.15 5.07 171.6 12.18L179.45 24.82C180.99 27.29 182.79 28.67 184.53 28.7H184.67C186.4 28.7 188.21 27.29 189.74 24.82L197.59 12.18C202 5.07 208.36 1 215 1C221.64 1 228 5.07 232.44 12.18L245 32.35C246.18 34.2678 246.653 36.5375 246.337 38.767C246.021 40.9964 244.936 43.0454 243.27 44.56C239.87 47.38 235.14 46.48 232.7 42.56L220.18 22.39C218.62 19.88 216.8 18.5 215.04 18.5C213.28 18.5 211.45 19.88 209.89 22.39L202 35C197.68 42 191.46 46 184.93 46.17L184.6 46.21Z" fill="#8E94DD" stroke="#231F20" stroke-width="2" stroke-miterlimit="10"/>
</g>
<g clip-path="url(#clip1_722_387)">
<path d="M230.6 132.21H230.22C223.69 132.05 217.47 128 213.15 121L205.3 108.39C203.74 105.88 201.92 104.5 200.15 104.5C198.38 104.5 196.57 105.88 195.01 108.39L187.16 121C182.83 128 176.61 132 170.09 132.17H169.34C162.81 132.05 156.59 128 152.27 121L144.42 108.39C142.86 105.88 141 104.5 139.27 104.5C137.54 104.5 135.69 105.88 134.13 108.39L126.28 121C122 128 115.73 132.05 109.21 132.2H108.46C101.93 132.06 95.71 128 91.39 121L83.54 108.39C82 105.88 80.15 104.5 78.39 104.5C76.63 104.5 74.8 105.88 73.25 108.39L60.72 128.56C58.28 132.48 53.55 133.38 50.16 130.56C48.4905 129.048 47.4026 126.999 47.0848 124.769C46.767 122.539 47.2394 120.268 48.42 118.35L61 98.18C65.36 91.07 71.72 87 78.39 87C85.06 87 91.39 91.07 95.84 98.18L103.69 110.82C105.22 113.29 107.03 114.67 108.76 114.7H108.9C110.64 114.7 112.44 113.29 113.98 110.82L121.83 98.18C126.24 91.07 132.6 87 139.27 87C145.94 87 152.27 91.07 156.72 98.18L164.57 110.82C166.11 113.29 167.91 114.67 169.65 114.7H169.78C171.52 114.7 173.32 113.29 174.86 110.82L182.71 98.18C187.12 91.08 193.48 87 200.15 87C206.82 87 213.15 91.07 217.6 98.18L225.45 110.82C226.99 113.29 228.79 114.67 230.53 114.7H230.67C232.4 114.7 234.21 113.29 235.74 110.82L243.59 98.18C248 91.07 254.36 87 261 87C267.64 87 274 91.07 278.44 98.18L291 118.35C292.18 120.268 292.653 122.538 292.337 124.767C292.021 126.996 290.936 129.045 289.27 130.56C285.87 133.38 281.14 132.48 278.7 128.56L266.18 108.39C264.62 105.88 262.8 104.5 261.04 104.5C259.28 104.5 257.45 105.88 255.89 108.39L248 121C243.68 128 237.46 132 230.93 132.17L230.6 132.21Z" fill="#8E94DD" stroke="#231F20" stroke-width="2" stroke-miterlimit="10"/>
</g>
<defs>
<clipPath id="clip0_722_387">
<rect width="247.43" height="47.21" fill="white"/>
</clipPath>
<clipPath id="clip1_722_387">
<rect width="247.43" height="47.21" fill="white" transform="translate(46 86)"/>
</clipPath>
</defs>
</svg>
