<svg width="168" height="230" viewBox="0 0 168 230" fill="none" xmlns="http://www.w3.org/2000/svg">
<circle cx="151" cy="115" r="115" fill="#E39E37"/>
<circle cx="151" cy="115" r="115" fill="#E39E37"/>
<g clip-path="url(#clip0_722_386)">
<path d="M74.997 187.196C115.977 187.196 149.197 153.976 149.197 112.996C149.197 72.0164 115.977 38.7959 74.997 38.7959C34.0174 38.7959 0.796875 72.0164 0.796875 112.996C0.796875 153.976 34.0174 187.196 74.997 187.196Z" fill="white" stroke="#231F20" stroke-width="2" stroke-miterlimit="10"/>
<path d="M91.3202 69.4929C112.546 78.5819 125.4 102.976 123.195 125.626C123.195 126.024 123.116 126.422 123.068 126.836C121.731 137.549 116.303 147.617 106.752 153.1C101.34 156.188 95.1961 157.828 89.036 158.799C79.9231 160.239 70.4919 160.279 61.5462 158.003C52.6005 155.727 44.1243 151.119 38.0358 144.186C23.7099 127.847 22.3888 100.485 36.3724 83.6118C39.8613 79.4381 44.0789 75.9324 48.82 73.2654C61.5064 66.0865 77.6947 63.6511 91.3202 69.4929Z" fill="#EFDC70" stroke="#231F20" stroke-width="2" stroke-miterlimit="10"/>
<path d="M93.8897 109.16C90.4197 115.336 87.4749 117.652 84.8564 116.179C82.0549 114.588 83.9651 108.674 86.8143 103.596C89.003 99.7046 93.0302 96.5847 95.1711 97.7865C98.0999 99.434 96.739 104.098 93.8897 109.16Z" fill="#231F20"/>
<path d="M72.4576 97.1502C69.0273 103.302 66.0905 105.642 63.4561 104.17C60.6546 102.578 62.5727 96.6647 65.414 91.587C67.6027 87.6951 71.6617 84.5832 73.7708 85.793C76.6996 87.4245 75.3387 92.0725 72.4576 97.1502Z" fill="#231F20"/>
<path d="M79.0464 133.808C76.5394 135.257 73.4752 135.48 70.618 135.137C65.3803 134.489 60.5049 132.124 56.7537 128.412C54.6039 126.286 52.897 123.756 51.7317 120.966C50.5664 118.176 49.9659 115.183 49.9648 112.16" stroke="#231F20" stroke-width="2" stroke-miterlimit="10" stroke-linecap="round"/>
<path d="M24.7873 74.9838L20.5188 71.2365L21.3844 70.2505L24.7872 73.2378L26.6028 71.1697L27.4685 71.9297L24.7873 74.9838Z" fill="black"/>
<path d="M30.9524 68.5921C30.6848 68.8288 30.4062 68.9969 30.1168 69.0964C29.8313 69.1923 29.5495 69.2279 29.2715 69.2033C28.9934 69.1788 28.7298 69.1022 28.4807 68.9736C28.2357 68.8415 28.0177 68.6676 27.8269 68.4519C27.6325 68.2322 27.4847 67.9927 27.3834 67.7334C27.2862 67.4705 27.2423 67.1995 27.2518 66.9205C27.2613 66.6415 27.331 66.3662 27.461 66.0945C27.595 65.8194 27.7957 65.5634 28.0634 65.3266C28.331 65.0898 28.6075 64.9235 28.893 64.8276C29.1785 64.7317 29.4602 64.6961 29.7383 64.7206C30.0164 64.7452 30.28 64.8218 30.529 64.9504C30.7781 65.0789 30.9998 65.2531 31.1942 65.4728C31.385 65.6885 31.5291 65.9278 31.6263 66.1906C31.7236 66.4535 31.7675 66.7244 31.758 67.0034C31.7485 67.2825 31.6787 67.5578 31.5488 67.8294C31.4188 68.1011 31.22 68.3553 30.9524 68.5921ZM28.8095 67.5825C28.9544 67.7463 29.1116 67.8636 29.2811 67.9344C29.4545 68.0017 29.6232 68.0234 29.7872 67.9994C29.9511 67.9754 30.101 67.9033 30.2368 67.7832C30.3686 67.6666 30.4564 67.5284 30.5002 67.3686C30.5444 67.2013 30.5417 67.0292 30.4921 66.8523C30.4424 66.6755 30.3469 66.5072 30.2056 66.3474C30.0607 66.1837 29.9035 66.0664 29.734 65.9955C29.5646 65.9247 29.3959 65.9031 29.2279 65.9306C29.064 65.9546 28.9161 66.0249 28.7843 66.1415C28.6485 66.2616 28.5587 66.4016 28.5149 66.5614C28.4711 66.7212 28.4721 66.8913 28.5177 67.0716C28.5674 67.2485 28.6646 67.4188 28.8095 67.5825Z" fill="black"/>
<path d="M35.2918 61.067C35.0403 61.2471 34.8421 61.4512 34.6973 61.6796C34.5494 61.9035 34.4857 62.1262 34.5064 62.3475L35.9734 64.3965L34.9326 65.1416L32.4877 61.7266L33.4439 61.042L33.9376 61.7315C33.8901 61.4179 33.913 61.1292 34.0064 60.8656C34.0997 60.6021 34.2467 60.3951 34.4474 60.2449C34.4951 60.2107 34.5298 60.1859 34.5515 60.1704C34.5775 60.1517 34.6008 60.1384 34.6212 60.1303L35.2918 61.067Z" fill="black"/>
<path d="M40.6778 61.3772C40.3683 61.5558 40.0655 61.6658 39.7693 61.7074C39.4704 61.7443 39.1862 61.7267 38.9167 61.6543C38.6518 61.5793 38.4115 61.4563 38.1958 61.2852C37.9774 61.1095 37.7976 60.8992 37.6563 60.6543C37.4538 60.3032 37.3461 59.9405 37.3334 59.5661C37.3225 59.1845 37.412 58.8219 37.6018 58.4785C37.7889 58.1304 38.088 57.8378 38.4992 57.6006C38.9103 57.3634 39.3097 57.25 39.6974 57.2603C40.0898 57.2679 40.4448 57.371 40.7624 57.5695C41.0775 57.7633 41.3309 58.0266 41.5228 58.3592C41.5601 58.4239 41.5928 58.4912 41.6209 58.5612C41.6509 58.6239 41.6769 58.6797 41.699 58.7286L39.0103 60.2796C39.1174 60.4333 39.2399 60.5443 39.3778 60.6125C39.5203 60.6781 39.6689 60.7063 39.8237 60.697C39.9758 60.6832 40.1188 60.6376 40.2528 60.5603C40.4191 60.4644 40.5512 60.3358 40.6491 60.1747C40.7516 60.0109 40.792 59.846 40.7701 59.68L41.8644 59.3997C41.8813 59.6424 41.8469 59.887 41.7613 60.1334C41.6776 60.3726 41.5442 60.6003 41.3612 60.8167C41.1828 61.0305 40.955 61.2173 40.6778 61.3772ZM38.5908 59.6165L40.1707 58.7051C40.0643 58.5633 39.9445 58.4569 39.8112 58.386C39.6753 58.3105 39.5323 58.2761 39.3821 58.2826C39.2293 58.2846 39.0836 58.3255 38.945 58.4055C38.8018 58.4881 38.6911 58.5951 38.6129 58.7264C38.5367 58.8504 38.4973 58.9901 38.4946 59.1456C38.4893 59.2964 38.5213 59.4534 38.5908 59.6165Z" fill="black"/>
<path d="M51.3273 56.1075L50.1455 56.5992L49.239 54.4203C49.1345 54.1692 49.0109 54.004 48.8681 53.9247C48.7254 53.8455 48.5802 53.8366 48.4325 53.898C48.2749 53.9636 48.1464 54.0921 48.047 54.2837C47.9476 54.4752 47.9079 54.6852 47.9279 54.9138L48.8529 57.137L47.6711 57.6287L46.7646 55.4498C46.658 55.1937 46.5344 55.0285 46.3938 54.9542C46.251 54.8749 46.1058 54.866 45.9581 54.9275C45.8054 54.991 45.6794 55.1185 45.58 55.3101C45.4806 55.5016 45.4385 55.7127 45.4535 55.9432L46.3785 58.1665L45.1967 58.6582L43.5834 54.7804L44.647 54.3379L44.9174 54.9879C44.9639 54.697 45.0822 54.4399 45.2723 54.2164C45.4652 53.9859 45.7242 53.8031 46.0492 53.6679C46.3693 53.5347 46.6472 53.5086 46.8831 53.5895C47.1169 53.6655 47.3004 53.7942 47.4336 53.9757C47.481 53.6729 47.5987 53.4073 47.7867 53.1789C47.9776 52.9435 48.2257 52.7623 48.531 52.6353C48.7772 52.5329 48.9961 52.4967 49.1876 52.5267C49.3772 52.5518 49.542 52.6219 49.6823 52.7368C49.8225 52.8518 49.9433 52.9893 50.0445 53.1493C50.1437 53.3044 50.2271 53.4633 50.2948 53.6258L51.3273 56.1075Z" fill="black"/>
<path d="M58.1369 53.8851L57.0917 49.8173L58.3314 49.4987L59.3767 53.5666L58.1369 53.8851ZM56.9723 49.3524L56.6836 48.2289L57.9233 47.9103L58.212 49.0338L56.9723 49.3524Z" fill="black"/>
<path d="M64.1011 52.5789C63.791 52.6322 63.509 52.6129 63.2552 52.5212C63.0004 52.4243 62.7875 52.2715 62.6163 52.0627L63.0198 54.4124L61.7583 54.629L60.7591 48.8101L61.855 48.6219L61.9701 49.2921C62.0819 49.0294 62.2422 48.8125 62.4509 48.6414C62.6596 48.4703 62.9191 48.3581 63.2292 48.3048C63.5078 48.257 63.7722 48.2684 64.0224 48.3391C64.2779 48.4088 64.5091 48.5261 64.716 48.6908C64.9228 48.8555 65.0957 49.0585 65.2345 49.2998C65.3734 49.5411 65.4685 49.8116 65.52 50.1112C65.5904 50.5212 65.5773 50.9022 65.4808 51.2543C65.3844 51.6064 65.2157 51.9005 64.9749 52.1366C64.7393 52.3719 64.448 52.5193 64.1011 52.5789ZM63.4926 51.5876C63.6292 51.5641 63.7478 51.514 63.8483 51.4372C63.9531 51.3543 64.0389 51.2557 64.1059 51.1414C64.1729 51.027 64.2161 50.9006 64.2356 50.7619C64.2594 50.6172 64.2587 50.4712 64.2334 50.324C64.2072 50.1716 64.157 50.0368 64.0828 49.9196C64.0138 49.8016 63.9265 49.703 63.8209 49.6237C63.7144 49.5392 63.5962 49.481 63.4663 49.4492C63.3364 49.4174 63.2004 49.4137 63.0585 49.438C62.9744 49.4525 62.8899 49.4805 62.8051 49.5221C62.7255 49.5629 62.6508 49.6163 62.581 49.6824C62.5155 49.7423 62.4571 49.8119 62.4058 49.8911C62.3544 49.9702 62.3154 50.0581 62.2887 50.1547L62.4349 51.0062C62.5171 51.1382 62.615 51.2513 62.7286 51.3454C62.8421 51.4395 62.9652 51.5104 63.0979 51.558C63.2296 51.6003 63.3612 51.6102 63.4926 51.5876Z" fill="black"/>
<path d="M70.6035 51.7883C70.247 51.8122 69.8945 51.7771 69.5461 51.6829C69.1976 51.5886 68.8987 51.435 68.6492 51.2219L69.0341 50.3862C69.302 50.5553 69.5589 50.6797 69.8048 50.7595C70.056 50.8388 70.288 50.8713 70.5009 50.8571C70.6659 50.846 70.7918 50.8108 70.8787 50.7515C70.9656 50.6922 71.0053 50.6067 70.9978 50.495C70.9924 50.4151 70.9617 50.3557 70.9056 50.3167C70.8492 50.2724 70.7639 50.2354 70.6496 50.2056C70.5407 50.1755 70.405 50.1445 70.2425 50.1127C69.916 50.0277 69.643 49.9418 69.4234 49.855C69.2037 49.7682 69.0359 49.6565 68.9198 49.5199C68.8034 49.3781 68.7373 49.1901 68.7216 48.956C68.7027 48.6739 68.7554 48.4245 68.8798 48.2077C69.0092 47.9852 69.2004 47.8066 69.4532 47.6721C69.7061 47.5375 70.0135 47.4581 70.3754 47.4338C70.6627 47.4145 70.9451 47.441 71.2226 47.5132C71.5054 47.5851 71.7736 47.7194 72.0274 47.9162L71.5861 48.7476C71.3355 48.5988 71.1146 48.4933 70.9234 48.4313C70.7321 48.3693 70.5487 48.3442 70.3731 48.356C70.2826 48.3621 70.2009 48.3783 70.1278 48.4045C70.0547 48.4308 69.996 48.4722 69.9517 48.5286C69.9124 48.5794 69.8954 48.6446 69.9007 48.7245C69.9061 48.8043 69.9317 48.8667 69.9774 48.9117C70.0285 48.9564 70.1032 48.9942 70.2015 49.025C70.3048 49.0501 70.4325 49.0817 70.5847 49.1195C70.9374 49.1974 71.2317 49.2819 71.4677 49.373C71.7033 49.4587 71.8821 49.575 72.0042 49.7218C72.1313 49.863 72.2032 50.0586 72.22 50.3087C72.2486 50.7344 72.1168 51.08 71.8246 51.3455C71.5373 51.6053 71.1303 51.7529 70.6035 51.7883Z" fill="black"/>
<path d="M75.0302 49.9326L75.1442 47.2471L76.4231 47.3013L76.321 49.7072C76.3101 49.9629 76.3524 50.1622 76.4477 50.3051C76.5433 50.4426 76.6844 50.5153 76.8709 50.5232C76.9881 50.5282 77.1008 50.5143 77.2089 50.4815C77.3173 50.4434 77.424 50.3812 77.5291 50.2949C77.6342 50.2086 77.7298 50.0952 77.8158 49.9548L77.9257 47.3651L79.2046 47.4194L79.0869 50.1929C79.0814 50.3208 79.0962 50.4121 79.1313 50.467C79.1719 50.5168 79.2426 50.5491 79.3433 50.5641L79.2982 51.6271C79.1801 51.6435 79.0755 51.655 78.9845 51.6619C78.8988 51.6689 78.8213 51.6709 78.752 51.668C78.5282 51.6585 78.3516 51.6056 78.2223 51.5094C78.0931 51.4078 78.0162 51.2711 77.9914 51.0992L77.9783 50.8425C77.7747 51.1114 77.5262 51.3064 77.2328 51.4274C76.945 51.5433 76.6252 51.5938 76.2736 51.5788C75.8473 51.5607 75.528 51.4111 75.3157 51.1298C75.1035 50.8486 75.0083 50.4495 75.0302 49.9326Z" fill="black"/>
<path d="M89.098 53.0987L87.845 52.8372L88.3272 50.527C88.3828 50.2607 88.3741 50.0546 88.301 49.9086C88.228 49.7626 88.1132 49.6732 87.9565 49.6406C87.7895 49.6057 87.6108 49.6392 87.4207 49.7412C87.2305 49.8431 87.0791 49.9941 86.9666 50.194L86.4746 52.5512L85.2216 52.2896L85.7038 49.9794C85.7604 49.7079 85.7517 49.5018 85.6776 49.361C85.6045 49.215 85.4897 49.1257 85.3331 49.093C85.1712 49.0592 84.9952 49.0933 84.805 49.1952C84.6149 49.2972 84.4609 49.4476 84.3431 49.6464L83.8511 52.0036L82.5981 51.742L83.4563 47.6306L84.584 47.866L84.4401 48.5552C84.6427 48.3414 84.8856 48.1959 85.1686 48.1188C85.458 48.0376 85.775 48.0329 86.1196 48.1048C86.4589 48.1757 86.7031 48.3111 86.852 48.511C87.002 48.7058 87.0808 48.9157 87.0884 49.1406C87.2984 48.9175 87.5455 48.7648 87.8296 48.6824C88.1201 48.5959 88.4272 48.5865 88.7509 48.654C89.0119 48.7085 89.213 48.8023 89.3541 48.9352C89.4964 49.063 89.5929 49.2139 89.6437 49.388C89.6946 49.562 89.7166 49.7437 89.7098 49.933C89.704 50.117 89.6832 50.2952 89.6472 50.4675L89.098 53.0987Z" fill="black"/>
<path d="M96.8058 53.2923C96.9801 52.9204 97.2088 52.6212 97.4917 52.3946C97.777 52.1631 98.0859 52.0193 98.4185 51.9632C98.7511 51.9071 99.0816 51.956 99.41 52.11C99.6756 52.2345 99.8865 52.4129 100.043 52.6451C100.201 52.8726 100.287 53.1162 100.301 53.3759L101.289 51.2681L102.448 51.8114L100.573 55.8098C100.519 55.9257 100.5 56.0168 100.516 56.0832C100.534 56.1448 100.584 56.2008 100.667 56.2512L100.215 57.2146C99.9942 57.1581 99.821 57.1004 99.6954 57.0416C99.4975 56.9487 99.3561 56.8294 99.2713 56.6836C99.1913 56.5401 99.1731 56.3843 99.2165 56.2162L99.2865 56.0104C99.0403 56.1837 98.7742 56.2739 98.4881 56.2811C98.202 56.2883 97.9309 56.2319 97.675 56.1119C97.4142 55.9897 97.1954 55.8282 97.0186 55.6275C96.8488 55.4242 96.7237 55.1947 96.6433 54.939C96.5677 54.6857 96.5431 54.4179 96.5694 54.1357C96.5957 53.8535 96.6745 53.5723 96.8058 53.2923ZM99.4896 55.1249L99.8632 54.3282C99.876 54.1751 99.8592 54.0288 99.8128 53.8892C99.7711 53.7519 99.7059 53.6271 99.6172 53.5148C99.5333 53.4048 99.4334 53.3226 99.3175 53.2683C99.192 53.2094 99.0636 53.1816 98.9325 53.1849C98.8062 53.1905 98.6817 53.2235 98.5592 53.2838C98.4389 53.3393 98.3288 53.4173 98.2287 53.5176C98.1335 53.6202 98.0541 53.7391 97.9907 53.8743C97.9251 54.0144 97.8857 54.155 97.8725 54.2961C97.8665 54.4346 97.883 54.569 97.9221 54.6992C97.9634 54.8246 98.0283 54.9375 98.1167 55.0379C98.2052 55.1382 98.3146 55.219 98.4449 55.2801C98.527 55.3186 98.6124 55.3439 98.7009 55.356C98.7918 55.3632 98.8812 55.361 98.9692 55.3492C99.062 55.3397 99.1532 55.3147 99.2429 55.2743C99.3325 55.2339 99.4148 55.1841 99.4896 55.1249Z" fill="black"/>
<path d="M104.801 59.8076C104.498 59.6185 104.257 59.3994 104.08 59.1503C103.906 58.904 103.792 58.6441 103.736 58.3705C103.68 58.097 103.679 57.8225 103.731 57.5471C103.788 57.2746 103.892 57.0161 104.045 56.7717C104.2 56.5228 104.387 56.3129 104.607 56.1419C104.831 55.9738 105.079 55.8545 105.349 55.7841C105.619 55.7137 105.903 55.7021 106.2 55.7493C106.502 55.7993 106.805 55.9188 107.108 56.1079C107.411 56.2969 107.649 56.5146 107.823 56.7609C107.996 57.0072 108.11 57.2672 108.166 57.5407C108.222 57.8143 108.223 58.0888 108.171 58.3641C108.119 58.6395 108.015 58.9016 107.86 59.1505C107.708 59.3949 107.519 59.6012 107.295 59.7693C107.071 59.9375 106.823 60.0567 106.553 60.1271C106.283 60.1975 105.999 60.2091 105.702 60.1619C105.405 60.1148 105.104 59.9967 104.801 59.8076ZM105.158 57.4659C105.042 57.6514 104.975 57.8355 104.955 58.0182C104.94 58.2036 104.967 58.3715 105.037 58.5218C105.107 58.6721 105.219 58.7952 105.372 58.8911C105.522 58.9843 105.679 59.029 105.845 59.0255C106.018 59.0202 106.182 58.9686 106.337 58.8706C106.493 58.7727 106.627 58.6332 106.74 58.4521C106.855 58.2666 106.923 58.0825 106.943 57.8999C106.962 57.7172 106.935 57.5494 106.861 57.3962C106.791 57.2459 106.682 57.1242 106.532 57.0311C106.378 56.9352 106.219 56.889 106.053 56.8925C105.887 56.8961 105.725 56.9455 105.565 57.0406C105.409 57.1386 105.274 57.2803 105.158 57.4659Z" fill="black"/>
<path d="M112.729 58.0139L113.747 58.789L111.117 62.2459C111.01 62.386 110.96 62.5051 110.965 62.6033C110.971 62.7014 111.021 62.7861 111.114 62.8571C111.178 62.9056 111.248 62.9455 111.324 62.977C111.408 63.0074 111.486 63.0293 111.556 63.0426L111.108 63.9083C110.936 63.8708 110.754 63.8061 110.562 63.7141C110.371 63.6221 110.203 63.5212 110.059 63.4114C109.77 63.1917 109.604 62.9442 109.559 62.6686C109.521 62.3921 109.61 62.1117 109.827 61.8273L112.729 58.0139Z" fill="black"/>
<path d="M113.948 66.5875C113.683 66.3476 113.485 66.0892 113.354 65.8124C113.228 65.5392 113.161 65.2631 113.155 64.984C113.149 64.7049 113.196 64.4345 113.297 64.1728C113.401 63.9147 113.55 63.6789 113.743 63.4656C113.94 63.2482 114.162 63.075 114.409 62.9458C114.659 62.8202 114.924 62.7468 115.202 62.7256C115.481 62.7044 115.762 62.7435 116.046 62.8428C116.334 62.9457 116.611 63.1171 116.876 63.3571C117.14 63.5971 117.336 63.8537 117.463 64.1269C117.589 64.4001 117.656 64.6762 117.662 64.9553C117.668 65.2344 117.621 65.5048 117.521 65.7665C117.42 66.0282 117.271 66.2677 117.074 66.485C116.881 66.6984 116.659 66.8679 116.408 66.9935C116.158 67.119 115.893 67.1924 115.615 67.2136C115.337 67.2349 115.055 67.1958 114.771 67.0965C114.487 66.9972 114.212 66.8275 113.948 66.5875ZM114.715 64.3467C114.569 64.5087 114.469 64.6778 114.417 64.854C114.37 65.0338 114.367 65.2039 114.409 65.3642C114.45 65.5245 114.538 65.6656 114.673 65.7873C114.803 65.9055 114.95 65.9776 115.114 66.0036C115.285 66.0291 115.456 66.0075 115.626 65.9388C115.796 65.87 115.953 65.7566 116.096 65.5985C116.243 65.4365 116.343 65.2674 116.394 65.0912C116.446 64.9149 116.449 64.7449 116.403 64.581C116.361 64.4207 116.275 64.2814 116.145 64.1632C116.011 64.0415 115.862 63.9676 115.698 63.9416C115.534 63.9157 115.365 63.9353 115.191 64.0005C115.021 64.0693 114.862 64.1847 114.715 64.3467Z" fill="black"/>
<path d="M121.87 69.9766C121.66 69.7503 121.432 69.5799 121.187 69.4656C120.946 69.3476 120.717 69.313 120.5 69.362L118.656 71.0796L117.783 70.143L120.857 67.2803L121.658 68.1408L121.038 68.7188C121.343 68.6315 121.632 68.6172 121.905 68.6759C122.179 68.7347 122.403 68.854 122.577 69.0337C122.617 69.0767 122.646 69.1079 122.665 69.1274C122.686 69.1508 122.703 69.1721 122.713 69.1914L121.87 69.9766Z" fill="black"/>
<path d="M123.717 77.1881C123.507 76.8993 123.349 76.5824 123.243 76.2374C123.136 75.8924 123.107 75.5576 123.154 75.2329L124.066 75.1128C124.066 75.4296 124.098 75.7133 124.162 75.9638C124.229 76.2186 124.325 76.4323 124.45 76.6047C124.548 76.7383 124.645 76.8261 124.741 76.868C124.838 76.9099 124.931 76.8978 125.022 76.8319C125.086 76.7848 125.12 76.7271 125.123 76.6589C125.131 76.5875 125.117 76.4956 125.081 76.3831C125.048 76.2749 125.002 76.1436 124.942 75.9891C124.84 75.6677 124.767 75.3909 124.723 75.1588C124.68 74.9267 124.685 74.7251 124.738 74.5541C124.796 74.38 124.92 74.2238 125.11 74.0857C125.338 73.9192 125.577 73.8308 125.827 73.8205C126.084 73.8113 126.337 73.8777 126.586 74.0199C126.835 74.162 127.066 74.3797 127.279 74.6728C127.449 74.9056 127.577 75.1586 127.664 75.4319C127.754 75.7094 127.783 76.008 127.752 76.3276L126.814 76.3977C126.806 76.1064 126.777 75.8633 126.728 75.6684C126.678 75.4736 126.602 75.305 126.498 75.1628C126.445 75.0895 126.387 75.0289 126.326 74.9812C126.265 74.9334 126.199 74.9058 126.127 74.8984C126.063 74.8921 125.999 74.9126 125.934 74.9597C125.87 75.0068 125.83 75.0617 125.817 75.1244C125.806 75.1915 125.814 75.2748 125.841 75.3744C125.874 75.4752 125.916 75.6 125.965 75.749C126.087 76.0889 126.173 76.3829 126.221 76.631C126.275 76.8761 126.272 77.0894 126.212 77.271C126.161 77.4538 126.034 77.6189 125.831 77.7665C125.486 78.0177 125.124 78.0905 124.743 77.9849C124.37 77.8805 124.028 77.6149 123.717 77.1881Z" fill="black"/>
<path d="M126.229 80.6662L129.762 78.395L130.454 79.4717L126.921 81.7429L126.229 80.6662ZM130.165 78.1354L131.141 77.5081L131.833 78.5848L130.857 79.2121L130.165 78.1354Z" fill="black"/>
<path d="M129.576 85.8022C129.477 85.7235 129.371 85.6332 129.259 85.5313C129.149 85.434 129.044 85.3246 128.945 85.2029C128.841 85.0838 128.753 84.9593 128.679 84.8291C128.575 84.6433 128.508 84.4543 128.48 84.2623C128.458 84.0723 128.493 83.8903 128.585 83.7162C128.68 83.5468 128.845 83.3953 129.082 83.2618L130.992 82.1861L130.729 81.7191L131.572 81.2441L131.836 81.7111L133 81.0555L133.628 82.1707L132.464 82.8264L132.884 83.5722L132.04 84.0472L131.62 83.3014L130.094 84.1612C129.973 84.2292 129.902 84.3092 129.88 84.401C129.863 84.4902 129.88 84.5812 129.933 84.6742C129.977 84.7532 130.038 84.829 130.116 84.9016C130.196 84.9788 130.271 85.0408 130.34 85.0875L129.576 85.8022Z" fill="black"/>
<path d="M132.812 89.7271C133.067 89.6196 133.321 89.5969 133.573 89.659C133.824 89.721 134.057 89.8547 134.271 90.06C134.489 90.2632 134.666 90.5271 134.803 90.8516C134.869 91.009 134.919 91.17 134.954 91.3349C134.993 91.4976 135.012 91.6459 135.01 91.7796L135.18 91.7084C135.391 91.6195 135.527 91.4874 135.586 91.3121C135.646 91.1367 135.621 90.9187 135.511 90.6581C135.42 90.4418 135.298 90.2532 135.143 90.0925C134.991 89.9366 134.802 89.7819 134.575 89.6283L135.179 88.9582C135.453 89.1436 135.69 89.3565 135.889 89.5967C136.091 89.8418 136.257 90.1193 136.387 90.4291C136.63 91.0093 136.679 91.5181 136.533 91.9554C136.394 92.3956 136.062 92.7263 135.536 92.9473L134.525 93.3718C134.407 93.4214 134.331 93.4738 134.296 93.5288C134.268 93.5868 134.269 93.6645 134.299 93.7621L133.318 94.1742C133.257 94.0841 133.203 93.9969 133.156 93.9125C133.111 93.8331 133.075 93.7614 133.048 93.6975C132.955 93.4762 132.928 93.288 132.967 93.1328C133.008 92.9825 133.099 92.8606 133.239 92.767L133.399 92.6736C133.105 92.5945 132.849 92.4593 132.63 92.2679C132.417 92.0794 132.257 91.8549 132.147 91.5943C132.04 91.3386 131.997 91.0848 132.018 90.8328C132.041 90.5858 132.122 90.364 132.259 90.1675C132.396 89.971 132.581 89.8242 132.812 89.7271ZM133.65 92.1344C133.717 92.1699 133.784 92.1935 133.853 92.2052C133.921 92.2169 133.98 92.2124 134.029 92.1918L134.376 92.0461C134.374 91.9313 134.357 91.8082 134.325 91.677C134.3 91.5487 134.266 91.4329 134.223 91.3297C134.132 91.1133 134.007 90.9545 133.849 90.8532C133.696 90.7499 133.54 90.7313 133.383 90.7974C133.294 90.8346 133.224 90.8932 133.17 90.9734C133.117 91.0536 133.086 91.1447 133.077 91.2469C133.07 91.354 133.091 91.4666 133.141 91.5846C133.19 91.7026 133.262 91.8113 133.356 91.9107C133.45 92.0101 133.548 92.0847 133.65 92.1344Z" fill="black"/>
<path d="M136.34 103.291L135.986 102.061L138.253 101.407C138.515 101.332 138.693 101.228 138.788 101.095C138.883 100.962 138.908 100.819 138.864 100.665C138.817 100.501 138.703 100.359 138.524 100.238C138.345 100.118 138.141 100.055 137.912 100.049L135.598 100.716L135.244 99.4856L137.511 98.8319C137.778 98.7551 137.956 98.651 138.046 98.5197C138.141 98.3869 138.166 98.2436 138.122 98.0899C138.076 97.931 137.963 97.7913 137.784 97.6709C137.605 97.5504 137.4 97.4846 137.17 97.4734L134.856 98.1404L134.501 96.9105L138.537 95.7472L138.856 96.8541L138.18 97.0491C138.463 97.1283 138.705 97.2749 138.906 97.4891C139.113 97.707 139.265 97.985 139.363 98.3232C139.459 98.6563 139.453 98.9354 139.346 99.1606C139.244 99.3843 139.095 99.552 138.9 99.6638C139.195 99.7452 139.446 99.8922 139.652 100.105C139.864 100.321 140.016 100.588 140.107 100.906C140.181 101.162 140.192 101.384 140.141 101.571C140.094 101.756 140.006 101.912 139.876 102.038C139.746 102.165 139.595 102.269 139.425 102.352C139.26 102.433 139.092 102.497 138.923 102.546L136.34 103.291Z" fill="black"/>
<path d="M137.608 109.436C137.551 109.083 137.556 108.761 137.622 108.469C137.694 108.177 137.811 107.917 137.975 107.691C138.139 107.47 138.339 107.289 138.576 107.148C138.818 107.006 139.078 106.913 139.357 106.868C139.757 106.803 140.134 106.831 140.489 106.952C140.85 107.078 141.157 107.29 141.41 107.59C141.669 107.888 141.837 108.272 141.912 108.74C141.988 109.209 141.952 109.623 141.805 109.981C141.659 110.345 141.436 110.641 141.138 110.867C140.845 111.093 140.509 111.236 140.13 111.297C140.056 111.309 139.981 111.316 139.906 111.317C139.837 111.323 139.775 111.328 139.722 111.331L139.226 108.267C139.045 108.312 138.898 108.387 138.785 108.492C138.673 108.602 138.594 108.731 138.547 108.879C138.506 109.026 138.498 109.176 138.523 109.329C138.554 109.518 138.627 109.687 138.743 109.836C138.859 109.99 138.999 110.086 139.162 110.125L139.036 111.247C138.803 111.177 138.586 111.058 138.386 110.89C138.192 110.727 138.027 110.522 137.89 110.274C137.753 110.031 137.659 109.752 137.608 109.436ZM139.995 108.11L140.286 109.911C140.457 109.862 140.599 109.787 140.712 109.688C140.831 109.588 140.914 109.466 140.961 109.323C141.014 109.18 141.027 109.029 141.002 108.871C140.975 108.708 140.915 108.567 140.82 108.447C140.731 108.332 140.614 108.245 140.47 108.187C140.331 108.129 140.172 108.103 139.995 108.11Z" fill="black"/>
<path d="M138.841 117.144C138.784 117.031 138.726 116.905 138.667 116.765C138.608 116.631 138.559 116.488 138.52 116.335C138.476 116.184 138.447 116.034 138.436 115.885C138.419 115.672 138.437 115.473 138.492 115.286C138.552 115.105 138.661 114.954 138.817 114.835C138.974 114.721 139.188 114.653 139.459 114.631L141.644 114.456L141.601 113.922L142.566 113.845L142.609 114.379L143.941 114.273L144.043 115.549L142.711 115.655L142.779 116.508L141.814 116.586L141.746 115.732L140 115.872C139.861 115.883 139.763 115.926 139.705 116C139.652 116.074 139.63 116.164 139.638 116.27C139.645 116.36 139.669 116.455 139.709 116.553C139.749 116.657 139.791 116.745 139.834 116.816L138.841 117.144Z" fill="black"/>
<path d="M137.61 119.469L138.711 119.694L138.702 119.302L139.99 119.275L140.013 120.355L138.725 120.382L137.622 120.029L137.61 119.469Z" fill="black"/>
<path d="M138.454 127.408C138.489 127.053 138.579 126.743 138.724 126.478C138.868 126.214 139.051 125.994 139.272 125.818C139.493 125.647 139.738 125.524 140.008 125.449C140.279 125.374 140.56 125.351 140.851 125.381C141.233 125.419 141.58 125.542 141.892 125.75C142.203 125.963 142.442 126.247 142.611 126.602C142.779 126.956 142.839 127.37 142.792 127.842C142.744 128.32 142.601 128.713 142.361 129.021C142.126 129.335 141.835 129.558 141.49 129.69L141.24 128.41C141.375 128.343 141.484 128.25 141.565 128.129C141.647 128.014 141.695 127.88 141.71 127.726C141.728 127.551 141.699 127.387 141.623 127.235C141.546 127.088 141.433 126.964 141.282 126.863C141.131 126.767 140.944 126.708 140.721 126.686C140.503 126.664 140.308 126.688 140.135 126.756C139.962 126.825 139.821 126.923 139.711 127.052C139.607 127.18 139.547 127.332 139.529 127.508C139.519 127.614 139.525 127.714 139.547 127.807C139.575 127.906 139.617 127.996 139.673 128.077C139.729 128.163 139.795 128.231 139.87 128.281L139.364 129.485C139.161 129.363 138.985 129.198 138.834 128.99C138.688 128.788 138.58 128.554 138.51 128.29C138.44 128.026 138.421 127.732 138.454 127.408Z" fill="black"/>
<path d="M137.452 134.106C137.53 133.757 137.658 133.458 137.834 133.208C138.009 132.963 138.217 132.769 138.457 132.626C138.696 132.483 138.955 132.39 139.232 132.349C139.508 132.312 139.787 132.326 140.068 132.389C140.354 132.453 140.614 132.561 140.848 132.711C141.081 132.868 141.275 133.062 141.431 133.293C141.586 133.525 141.691 133.789 141.745 134.085C141.797 134.387 141.784 134.712 141.706 135.06C141.628 135.409 141.501 135.706 141.326 135.951C141.151 136.196 140.943 136.39 140.703 136.533C140.464 136.676 140.205 136.768 139.928 136.81C139.651 136.851 139.369 136.84 139.083 136.776C138.802 136.713 138.545 136.603 138.312 136.447C138.079 136.291 137.885 136.097 137.729 135.865C137.574 135.633 137.469 135.369 137.415 135.073C137.362 134.777 137.374 134.454 137.452 134.106ZM139.78 133.669C139.567 133.621 139.371 133.618 139.192 133.66C139.012 133.707 138.862 133.788 138.744 133.904C138.625 134.019 138.546 134.165 138.506 134.342C138.467 134.514 138.477 134.677 138.535 134.833C138.597 134.994 138.7 135.132 138.844 135.246C138.988 135.36 139.164 135.441 139.372 135.488C139.585 135.536 139.781 135.539 139.96 135.497C140.139 135.455 140.289 135.374 140.409 135.253C140.527 135.138 140.606 134.994 140.645 134.822C140.684 134.645 140.675 134.479 140.617 134.324C140.559 134.169 140.459 134.032 140.316 133.912C140.172 133.798 139.994 133.717 139.78 133.669Z" fill="black"/>
<path d="M134.838 143.104L135.291 141.906L137.498 142.741C137.758 142.839 137.964 142.859 138.116 142.803C138.272 142.754 138.38 142.649 138.44 142.489C138.481 142.38 138.494 142.256 138.477 142.119C138.461 141.981 138.418 141.845 138.349 141.711C138.278 141.582 138.185 141.466 138.069 141.366L135.817 140.515L136.269 139.317L140.198 140.802L139.791 141.879L139.132 141.631C139.249 141.789 139.334 141.963 139.387 142.155C139.441 142.346 139.458 142.549 139.439 142.764C139.426 142.981 139.375 143.205 139.289 143.434C139.193 143.689 139.068 143.875 138.915 143.994C138.764 144.12 138.599 144.194 138.42 144.218C138.238 144.246 138.055 144.24 137.871 144.199C137.69 144.164 137.517 144.116 137.353 144.054L134.838 143.104Z" fill="black"/>
<path d="M132.695 147.53C132.866 147.216 133.085 146.937 133.351 146.694C133.618 146.45 133.908 146.281 134.222 146.185L134.72 146.958C134.434 147.093 134.191 147.243 133.991 147.408C133.79 147.577 133.638 147.755 133.535 147.943C133.456 148.088 133.418 148.213 133.422 148.318C133.425 148.423 133.476 148.503 133.574 148.556C133.645 148.595 133.711 148.601 133.774 148.574C133.842 148.55 133.919 148.498 134.005 148.418C134.089 148.342 134.188 148.244 134.302 148.124C134.549 147.894 134.768 147.71 134.959 147.571C135.15 147.433 135.335 147.351 135.512 147.326C135.694 147.304 135.889 147.349 136.095 147.462C136.343 147.597 136.525 147.776 136.641 147.997C136.759 148.225 136.807 148.483 136.785 148.768C136.763 149.054 136.665 149.356 136.491 149.674C136.353 149.927 136.179 150.151 135.97 150.346C135.757 150.546 135.5 150.701 135.198 150.809L134.733 149.991C134.993 149.859 135.201 149.729 135.355 149.601C135.51 149.473 135.63 149.332 135.714 149.177C135.758 149.098 135.788 149.02 135.805 148.944C135.822 148.868 135.819 148.797 135.795 148.729C135.773 148.669 135.727 148.619 135.657 148.581C135.587 148.543 135.52 148.531 135.458 148.545C135.393 148.564 135.321 148.607 135.242 148.673C135.165 148.747 135.07 148.838 134.957 148.946C134.702 149.202 134.472 149.405 134.269 149.555C134.07 149.708 133.876 149.796 133.687 149.82C133.499 149.852 133.296 149.808 133.076 149.688C132.701 149.483 132.48 149.187 132.413 148.797C132.348 148.416 132.442 147.993 132.695 147.53Z" fill="black"/>
<path d="M129.272 153.054C129.488 152.769 129.724 152.55 129.981 152.396C130.242 152.246 130.51 152.152 130.787 152.114C131.06 152.08 131.329 152.1 131.595 152.173C131.864 152.25 132.112 152.374 132.337 152.545C132.66 152.789 132.9 153.082 133.058 153.422C133.216 153.769 133.275 154.138 133.234 154.528C133.197 154.921 133.035 155.307 132.748 155.686C132.462 156.064 132.138 156.324 131.777 156.465C131.412 156.611 131.045 156.654 130.675 156.595C130.31 156.539 129.974 156.395 129.668 156.163C129.608 156.118 129.552 156.069 129.499 156.015C129.447 155.969 129.401 155.928 129.362 155.891L131.235 153.417C131.077 153.317 130.921 153.262 130.767 153.253C130.611 153.248 130.463 153.28 130.324 153.348C130.189 153.42 130.075 153.518 129.982 153.641C129.866 153.794 129.794 153.964 129.766 154.151C129.736 154.341 129.763 154.509 129.847 154.653L128.948 155.337C128.838 155.12 128.775 154.882 128.758 154.621C128.742 154.368 128.776 154.107 128.861 153.836C128.942 153.57 129.079 153.309 129.272 153.054ZM131.88 153.864L130.779 155.318C130.932 155.408 131.084 155.459 131.234 155.473C131.389 155.489 131.534 155.465 131.67 155.401C131.81 155.34 131.928 155.245 132.024 155.118C132.124 154.986 132.185 154.844 132.206 154.693C132.228 154.549 132.21 154.405 132.152 154.261C132.098 154.12 132.007 153.988 131.88 153.864Z" fill="black"/>
<path d="M124.461 158.565C124.723 158.322 124.995 158.148 125.278 158.045C125.561 157.942 125.843 157.897 126.126 157.911C126.404 157.928 126.67 157.998 126.922 158.12C127.174 158.242 127.401 158.411 127.601 158.626C127.862 158.906 128.041 159.228 128.138 159.59C128.231 159.955 128.223 160.327 128.115 160.704C128.008 161.081 127.78 161.432 127.433 161.755C127.082 162.083 126.714 162.283 126.33 162.356C125.946 162.437 125.581 162.412 125.235 162.283L125.892 161.157C126.038 161.197 126.181 161.198 126.322 161.161C126.459 161.128 126.584 161.059 126.697 160.954C126.826 160.834 126.912 160.692 126.956 160.527C126.995 160.366 126.992 160.198 126.945 160.023C126.895 159.851 126.793 159.684 126.64 159.52C126.491 159.36 126.329 159.248 126.154 159.186C125.979 159.123 125.808 159.103 125.641 159.128C125.478 159.156 125.332 159.23 125.203 159.35C125.125 159.423 125.064 159.502 125.019 159.587C124.974 159.68 124.947 159.775 124.936 159.873C124.921 159.974 124.925 160.068 124.948 160.156L123.773 160.726C123.702 160.5 123.678 160.26 123.703 160.004C123.726 159.756 123.799 159.51 123.921 159.265C124.043 159.02 124.223 158.787 124.461 158.565Z" fill="black"/>
<path d="M118.733 163.605C118.802 163.499 118.882 163.385 118.973 163.263C119.059 163.144 119.158 163.03 119.27 162.92C119.379 162.805 119.495 162.705 119.617 162.62C119.792 162.498 119.974 162.414 120.163 162.368C120.35 162.329 120.534 162.346 120.716 162.421C120.894 162.499 121.06 162.65 121.215 162.873L122.467 164.673L122.907 164.367L123.459 165.162L123.019 165.468L123.782 166.565L122.731 167.296L121.968 166.199L121.265 166.687L120.713 165.892L121.416 165.404L120.416 163.965C120.336 163.851 120.25 163.788 120.157 163.775C120.066 163.766 119.977 163.792 119.89 163.853C119.815 163.905 119.746 163.973 119.681 164.057C119.611 164.144 119.557 164.224 119.517 164.298L118.733 163.605Z" fill="black"/>
<path d="M114.894 165.49C115.213 165.329 115.522 165.236 115.82 165.211C116.12 165.19 116.403 165.224 116.668 165.311C116.928 165.4 117.161 165.536 117.367 165.719C117.576 165.907 117.744 166.126 117.871 166.379C118.054 166.74 118.142 167.108 118.134 167.483C118.124 167.865 118.014 168.222 117.806 168.554C117.6 168.891 117.285 169.167 116.861 169.381C116.438 169.596 116.033 169.687 115.646 169.655C115.255 169.626 114.906 169.503 114.6 169.288C114.296 169.077 114.058 168.8 113.884 168.457C113.851 168.391 113.822 168.322 113.797 168.25C113.771 168.186 113.748 168.129 113.729 168.079L116.499 166.678C116.4 166.519 116.284 166.401 116.15 166.326C116.011 166.252 115.865 166.216 115.71 166.217C115.557 166.222 115.412 166.26 115.274 166.329C115.102 166.416 114.963 166.537 114.857 166.693C114.745 166.851 114.696 167.013 114.709 167.18L113.6 167.4C113.597 167.156 113.645 166.914 113.744 166.673C113.841 166.438 113.986 166.218 114.181 166.012C114.371 165.809 114.609 165.635 114.894 165.49ZM116.881 167.363L115.253 168.186C115.352 168.334 115.466 168.447 115.595 168.525C115.726 168.608 115.867 168.65 116.017 168.652C116.17 168.658 116.318 168.625 116.461 168.553C116.608 168.478 116.725 168.378 116.81 168.251C116.893 168.131 116.94 167.994 116.951 167.839C116.965 167.689 116.941 167.53 116.881 167.363Z" fill="black"/>
<path d="M107.807 168.933C107.9 168.847 108.005 168.756 108.123 168.661C108.237 168.567 108.361 168.481 108.497 168.402C108.63 168.318 108.767 168.25 108.907 168.198C109.107 168.123 109.304 168.086 109.498 168.088C109.689 168.096 109.863 168.159 110.021 168.277C110.174 168.396 110.298 168.583 110.393 168.838L111.159 170.892L111.662 170.704L112 171.611L111.498 171.799L111.965 173.05L110.766 173.498L110.299 172.246L109.497 172.546L109.158 171.639L109.96 171.34L109.348 169.698C109.299 169.568 109.231 169.485 109.144 169.45C109.058 169.419 108.966 169.422 108.866 169.46C108.781 169.491 108.696 169.54 108.613 169.605C108.524 169.673 108.451 169.737 108.394 169.798L107.807 168.933Z" fill="black"/>
<path d="M106.097 170.93L106.798 173.525L105.562 173.859L104.935 171.534C104.868 171.287 104.767 171.11 104.633 171.002C104.501 170.9 104.345 170.873 104.164 170.922C104.051 170.952 103.948 170.999 103.855 171.063C103.763 171.132 103.68 171.224 103.605 171.338C103.531 171.452 103.474 171.589 103.435 171.748L104.11 174.251L102.875 174.584L102.151 171.904C102.118 171.781 102.076 171.698 102.026 171.656C101.972 171.621 101.895 171.612 101.794 171.628L101.517 170.601C101.625 170.549 101.721 170.507 101.806 170.473C101.885 170.44 101.959 170.415 102.026 170.397C102.242 170.339 102.426 170.336 102.579 170.389C102.732 170.446 102.847 170.554 102.922 170.71L103.012 170.951C103.125 170.633 103.303 170.372 103.547 170.169C103.786 169.971 104.076 169.827 104.416 169.735C104.828 169.624 105.177 169.67 105.464 169.875C105.751 170.079 105.962 170.431 106.097 170.93Z" fill="black"/>
<path d="M96.472 171.612C96.8237 171.548 97.146 171.547 97.4387 171.609C97.7324 171.675 97.9938 171.788 98.2229 171.947C98.4468 172.108 98.6312 172.305 98.7762 172.539C98.9221 172.778 99.0201 173.037 99.07 173.315C99.1417 173.714 99.1201 174.092 99.0053 174.449C98.8862 174.811 98.6792 175.122 98.3843 175.381C98.0904 175.645 97.7098 175.819 97.2426 175.903C96.7754 175.987 96.3612 175.958 95.9999 175.817C95.6334 175.677 95.3343 175.46 95.1026 175.166C94.8719 174.876 94.7226 174.543 94.6547 174.165C94.6415 174.091 94.6336 174.017 94.6309 173.942C94.6239 173.872 94.6183 173.811 94.6141 173.758L97.6692 173.209C97.6205 173.028 97.5428 172.882 97.4362 172.771C97.3243 172.661 97.194 172.585 97.0453 172.541C96.8975 172.502 96.7475 172.497 96.5953 172.524C96.4063 172.558 96.2384 172.634 96.0917 172.753C95.9398 172.872 95.846 173.014 95.8103 173.177L94.6857 173.07C94.7521 172.836 94.8673 172.618 95.0313 172.415C95.1911 172.218 95.3937 172.049 95.6392 171.907C95.8795 171.767 96.1571 171.668 96.472 171.612ZM97.8393 173.975L96.044 174.298C96.0961 174.467 96.1728 174.608 96.2742 174.719C96.3765 174.837 96.4994 174.917 96.6429 174.962C96.7873 175.012 96.9383 175.023 97.0958 174.995C97.2585 174.965 97.3989 174.902 97.5169 174.805C97.6306 174.714 97.7151 174.596 97.7703 174.451C97.8264 174.311 97.8494 174.152 97.8393 173.975Z" fill="black"/>
<path d="M89.2159 175.93C89.523 175.892 89.7946 175.808 90.031 175.677C90.2681 175.551 90.4304 175.385 90.5181 175.181L90.2096 172.68L91.48 172.523L91.9941 176.692L90.8269 176.836L90.7231 175.994C90.6148 176.292 90.4566 176.535 90.2486 176.722C90.0406 176.909 89.8125 177.02 89.5644 177.056C89.5061 177.063 89.4638 177.068 89.4373 177.072C89.4056 177.076 89.3788 177.076 89.3569 177.074L89.2159 175.93Z" fill="black"/>
<path d="M84.3211 174.579C84.3322 174.856 84.2646 175.102 84.1184 175.316C83.9722 175.53 83.7655 175.701 83.4984 175.829C83.2315 175.962 82.9222 176.036 82.5705 176.05C82.4 176.057 82.2315 176.048 82.065 176.022C81.8987 176.002 81.7533 175.968 81.6286 175.92L81.6359 176.104C81.6451 176.333 81.7214 176.506 81.8649 176.623C82.0083 176.74 82.2213 176.793 82.5037 176.782C82.7382 176.772 82.9577 176.723 83.1624 176.635C83.3617 176.547 83.5729 176.424 83.7961 176.265L84.2124 177.065C83.9425 177.258 83.6602 177.405 83.3654 177.508C83.0653 177.61 82.7473 177.669 82.4116 177.682C81.7828 177.707 81.2891 177.575 80.9306 177.285C80.5669 177 80.3737 176.573 80.3509 176.003L80.3071 174.908C80.3019 174.78 80.2797 174.69 80.2402 174.638C80.1957 174.592 80.1226 174.566 80.0209 174.559L79.9784 173.496C80.0841 173.47 80.1847 173.45 80.2802 173.436C80.3704 173.421 80.4501 173.413 80.5194 173.41C80.7592 173.401 80.9449 173.441 81.0767 173.532C81.2031 173.623 81.2856 173.75 81.3242 173.914L81.3555 174.097C81.5324 173.85 81.7489 173.657 82.0049 173.519C82.2558 173.386 82.5225 173.314 82.8049 173.303C83.082 173.292 83.3348 173.34 83.5633 173.449C83.7865 173.557 83.9661 173.71 84.1021 173.907C84.2381 174.105 84.3111 174.329 84.3211 174.579ZM81.7728 174.521C81.7161 174.571 81.6702 174.626 81.6353 174.687C81.6003 174.747 81.5839 174.803 81.586 174.857L81.6011 175.232C81.7093 175.271 81.8305 175.298 81.9646 175.314C82.0936 175.335 82.214 175.344 82.3259 175.339C82.5604 175.33 82.7528 175.269 82.9031 175.156C83.0536 175.049 83.1254 174.91 83.1186 174.739C83.1147 174.643 83.0846 174.557 83.0281 174.479C82.9716 174.401 82.8971 174.34 82.8046 174.296C82.7067 174.251 82.5939 174.232 82.466 174.237C82.3381 174.242 82.2111 174.271 82.0852 174.324C81.9592 174.377 81.855 174.443 81.7728 174.521Z" fill="black"/>
<path d="M77.2224 175.682C77.206 176.092 77.1113 176.457 76.9385 176.775C76.7654 177.099 76.5364 177.352 76.2517 177.533C75.9669 177.713 75.6433 177.797 75.2809 177.782C74.9878 177.77 74.7242 177.688 74.4902 177.534C74.2559 177.386 74.0821 177.195 73.9687 176.961L73.8756 179.287L72.5967 179.236L72.7732 174.823C72.7783 174.696 72.7606 174.604 72.7201 174.549C72.6794 174.499 72.6113 174.467 72.5158 174.453L72.5583 173.39C72.7838 173.356 72.9659 173.342 73.1044 173.347C73.3229 173.356 73.4995 173.411 73.6342 173.513C73.7636 173.614 73.8409 173.751 73.866 173.922L73.8814 174.139C74.0411 173.884 74.2513 173.698 74.5123 173.58C74.7732 173.462 75.0448 173.409 75.3273 173.42C75.6151 173.432 75.8794 173.496 76.1202 173.612C76.3556 173.734 76.5599 173.897 76.7332 174.101C76.9012 174.305 77.0278 174.543 77.1131 174.813C77.1983 175.083 77.2348 175.373 77.2224 175.682ZM74.0378 175.034L74.0026 175.913C74.0501 176.059 74.1224 176.188 74.2194 176.298C74.311 176.409 74.4195 176.499 74.5449 176.568C74.6649 176.636 74.7888 176.673 74.9167 176.679C75.0553 176.684 75.1844 176.66 75.3039 176.606C75.4182 176.552 75.5201 176.473 75.6096 176.37C75.6989 176.272 75.7702 176.158 75.8235 176.026C75.8715 175.895 75.8985 175.754 75.9044 175.605C75.9106 175.451 75.8924 175.306 75.8497 175.171C75.8016 175.041 75.7342 174.923 75.6477 174.818C75.5609 174.719 75.4573 174.64 75.3369 174.582C75.2164 174.524 75.0843 174.492 74.9404 174.486C74.8498 174.482 74.7613 174.492 74.675 174.515C74.5885 174.544 74.5069 174.581 74.4304 174.626C74.3485 174.67 74.2742 174.729 74.2072 174.801C74.1403 174.873 74.0838 174.951 74.0378 175.034Z" fill="black"/>
<path d="M69.3906 173.111L68.929 177.286L67.6568 177.145L68.1184 172.971L69.3906 173.111ZM68.8762 177.763L68.7488 178.916L67.4765 178.775L67.604 177.622L68.8762 177.763Z" fill="black"/>
<path d="M63.3814 172.209C63.6909 172.266 63.949 172.381 64.1557 172.554C64.3615 172.733 64.5088 172.95 64.5976 173.205L65.0279 170.86L66.2869 171.091L65.2211 176.898L64.1274 176.697L64.2501 176.028C64.0547 176.237 63.8295 176.385 63.5746 176.474C63.3198 176.563 63.0376 176.579 62.7281 176.522C62.4501 176.471 62.2057 176.369 61.9952 176.216C61.7793 176.063 61.6027 175.873 61.4652 175.647C61.3277 175.422 61.2353 175.171 61.1881 174.897C61.1408 174.623 61.1446 174.336 61.1995 174.037C61.2746 173.628 61.4181 173.275 61.6299 172.977C61.8417 172.68 62.1013 172.462 62.4088 172.323C62.711 172.183 63.0352 172.145 63.3814 172.209ZM63.6113 173.349C63.4749 173.324 63.3464 173.33 63.2256 173.368C63.0987 173.41 62.9841 173.473 62.8818 173.557C62.7796 173.641 62.6955 173.745 62.6294 173.868C62.5572 173.996 62.5076 174.133 62.4806 174.28C62.4527 174.432 62.4534 174.576 62.4828 174.712C62.5069 174.846 62.5549 174.969 62.6267 175.08C62.6976 175.196 62.7886 175.291 62.8996 175.366C63.0106 175.44 63.1369 175.491 63.2786 175.517C63.3625 175.532 63.4515 175.535 63.5455 175.525C63.6342 175.514 63.7227 175.49 63.811 175.452C63.8931 175.418 63.9719 175.373 64.0474 175.316C64.1229 175.26 64.1898 175.19 64.2481 175.109L64.4041 174.259C64.3724 174.107 64.3194 173.967 64.2452 173.84C64.171 173.712 64.0798 173.603 63.9717 173.513C63.8626 173.428 63.7425 173.373 63.6113 173.349Z" fill="black"/>
<path d="M58.6217 171.308L57.5735 175.375L56.334 175.056L57.3822 170.989L58.6217 171.308ZM57.4537 175.84L57.1642 176.963L55.9247 176.644L56.2142 175.52L57.4537 175.84Z" fill="black"/>
<path d="M53.7974 169.822C54.1358 169.937 54.4477 170.105 54.7332 170.326C55.0187 170.546 55.2357 170.803 55.3842 171.096L54.7079 171.719C54.5254 171.46 54.336 171.247 54.1396 171.079C53.9382 170.909 53.7364 170.79 53.5344 170.721C53.3779 170.668 53.2481 170.652 53.1451 170.674C53.0421 170.695 52.9726 170.759 52.9366 170.865C52.9109 170.94 52.9164 171.007 52.9532 171.065C52.9883 171.127 53.0528 171.194 53.1469 171.266C53.2359 171.335 53.3493 171.416 53.4871 171.508C53.7558 171.712 53.9749 171.896 54.1443 172.06C54.3138 172.225 54.4259 172.392 54.4806 172.563C54.5336 172.739 54.5224 172.938 54.4469 173.16C54.3561 173.428 54.2116 173.638 54.0134 173.79C53.8085 173.946 53.5634 174.037 53.2782 174.064C52.9931 174.091 52.6788 174.047 52.3353 173.93C52.0626 173.837 51.8121 173.705 51.5836 173.531C51.3502 173.356 51.1541 173.129 50.9954 172.85L51.7222 172.252C51.8963 172.486 52.0598 172.668 52.2125 172.799C52.3653 172.929 52.525 173.023 52.6917 173.079C52.7775 173.109 52.8592 173.125 52.9368 173.129C53.0144 173.133 53.0844 173.117 53.147 173.082C53.2029 173.05 53.2436 172.996 53.2693 172.921C53.2951 172.845 53.2954 172.777 53.2705 172.718C53.2404 172.657 53.186 172.594 53.1071 172.528C53.0214 172.465 52.9156 172.387 52.7896 172.293C52.4939 172.086 52.2546 171.895 52.0717 171.72C51.8871 171.55 51.7667 171.374 51.7103 171.192C51.6472 171.013 51.656 170.804 51.7365 170.567C51.8737 170.163 52.1282 169.895 52.4999 169.762C52.8649 169.632 53.2974 169.652 53.7974 169.822Z" fill="black"/>
<path d="M47.8282 167.537C48.1538 167.685 48.4188 167.869 48.6231 168.09C48.8274 168.311 48.9777 168.555 49.074 168.821C49.1654 169.085 49.2034 169.357 49.188 169.636C49.1726 169.916 49.1045 170.19 48.9836 170.457C48.8253 170.807 48.5979 171.096 48.3012 171.325C47.9997 171.552 47.6541 171.688 47.2645 171.734C46.8748 171.78 46.4637 171.706 46.0313 171.51C45.5939 171.312 45.2675 171.05 45.0519 170.724C44.8293 170.401 44.7109 170.055 44.6965 169.686L45.9885 169.857C46.0087 170.007 46.0628 170.14 46.1508 170.256C46.234 170.369 46.3461 170.458 46.487 170.522C46.6473 170.594 46.8118 170.619 46.9804 170.596C47.1441 170.57 47.2978 170.502 47.4415 170.392C47.5803 170.279 47.6959 170.12 47.7882 169.916C47.8783 169.717 47.9186 169.525 47.909 169.339C47.8994 169.153 47.8512 168.988 47.7644 168.843C47.6754 168.703 47.5508 168.597 47.3904 168.525C47.2932 168.481 47.1967 168.455 47.1009 168.446C46.9981 168.441 46.8994 168.452 46.805 168.479C46.7058 168.505 46.6202 168.545 46.5484 168.6L45.5696 167.736C45.7498 167.584 45.9626 167.469 46.2079 167.393C46.4461 167.319 46.7016 167.291 46.9744 167.309C47.2472 167.327 47.5318 167.403 47.8282 167.537Z" fill="black"/>
<path d="M43.5071 165.541L41.4697 169.214L40.3504 168.593L42.3878 164.92L43.5071 165.541ZM41.2368 169.634L40.6741 170.648L39.5548 170.027L40.1175 169.013L41.2368 169.634Z" fill="black"/>
<path d="M37.106 161.604L38.1653 162.322L36.8405 164.275C36.6848 164.505 36.6167 164.7 36.6361 164.862C36.6481 165.024 36.7247 165.154 36.866 165.25C36.9631 165.315 37.0803 165.356 37.2178 165.372C37.3552 165.388 37.4973 165.378 37.644 165.342C37.7864 165.304 37.92 165.239 38.045 165.15L39.3967 163.157L40.456 163.876L38.0983 167.352L37.1449 166.705L37.5401 166.123C37.3591 166.199 37.1694 166.242 36.9711 166.249C36.7728 166.256 36.5711 166.226 36.3661 166.157C36.158 166.094 35.9525 165.993 35.7494 165.855C35.5243 165.703 35.3718 165.538 35.2919 165.361C35.2045 165.186 35.1705 165.008 35.1897 164.828C35.2044 164.644 35.2532 164.468 35.3359 164.299C35.4112 164.131 35.4983 163.974 35.5971 163.828L37.106 161.604Z" fill="black"/>
<path d="M33.2122 158.581C33.4189 158.766 33.5721 158.975 33.6719 159.207C33.7681 159.444 33.8138 159.688 33.809 159.942C33.7967 160.196 33.7389 160.448 33.6358 160.699C33.5327 160.95 33.3833 161.185 33.1877 161.404C32.9815 161.635 32.7554 161.815 32.5096 161.946C32.2638 162.077 32.0116 162.159 31.7528 162.192C31.4865 162.226 31.2303 162.204 30.9843 162.127C30.7308 162.05 30.4967 161.916 30.2821 161.724C30.0476 161.514 29.8871 161.278 29.8007 161.014C29.7108 160.755 29.6922 160.488 29.7449 160.213L29.2861 160.726L28.4574 159.984L31.0659 157.069C31.3504 156.751 31.6733 156.546 32.0346 156.454C32.3919 156.359 32.7627 156.372 33.1472 156.494C33.5313 156.609 33.9022 156.826 34.2599 157.146C34.5938 157.445 34.8322 157.758 34.975 158.087C35.1175 158.407 35.1893 158.747 35.1903 159.106L34.2135 159.166C34.2156 158.931 34.165 158.7 34.0616 158.472C33.9618 158.239 33.8146 158.036 33.6198 157.862C33.4648 157.723 33.2968 157.623 33.1159 157.561C32.9349 157.499 32.7516 157.496 32.5658 157.552C32.3761 157.604 32.1941 157.727 32.0198 157.922L31.7478 158.226C31.9961 158.141 32.2525 158.134 32.5172 158.206C32.7778 158.275 33.0095 158.4 33.2122 158.581ZM32.2068 159.045C32.1313 158.977 32.0529 158.925 31.9715 158.888C31.8826 158.851 31.7943 158.826 31.7067 158.812C31.6154 158.802 31.5229 158.802 31.429 158.811C31.3315 158.824 31.2404 158.849 31.1556 158.888L30.5689 159.544C30.509 159.691 30.4813 159.838 30.4857 159.985C30.4866 160.136 30.5131 160.274 30.5654 160.4C30.6177 160.525 30.6935 160.632 30.7929 160.721C30.8923 160.81 31.0052 160.872 31.1318 160.906C31.2584 160.941 31.3908 160.945 31.5291 160.918C31.6598 160.892 31.7875 160.845 31.9122 160.778C32.0329 160.707 32.1413 160.618 32.2373 160.511C32.3404 160.395 32.4168 160.274 32.4663 160.147C32.5119 160.016 32.5347 159.882 32.5347 159.746C32.5312 159.614 32.5015 159.488 32.4456 159.366C32.3898 159.244 32.3102 159.137 32.2068 159.045Z" fill="black"/>
<path d="M25.6405 150.578C25.8549 150.864 26.0005 151.151 26.0773 151.44C26.1498 151.732 26.1664 152.017 26.1269 152.293C26.0842 152.565 25.9909 152.818 25.8469 153.053C25.6986 153.291 25.5114 153.495 25.2853 153.664C24.961 153.907 24.6138 154.058 24.2437 154.115C23.8661 154.172 23.4954 154.127 23.1317 153.979C22.7637 153.835 22.4373 153.574 22.1525 153.194C21.8677 152.814 21.7072 152.431 21.6709 152.045C21.6314 151.655 21.6912 151.29 21.8501 150.951C22.0048 150.615 22.2357 150.331 22.5429 150.101C22.6026 150.056 22.6656 150.016 22.7317 149.979C22.7904 149.942 22.8426 149.91 22.8885 149.882L24.7509 152.365C24.8906 152.24 24.9861 152.105 25.0373 151.96C25.0853 151.811 25.0954 151.66 25.0677 151.507C25.0357 151.358 24.9733 151.222 24.8805 151.098C24.7653 150.944 24.6218 150.828 24.4501 150.751C24.2752 150.668 24.1066 150.648 23.9445 150.69L23.5349 149.637C23.7738 149.591 24.0208 149.596 24.2757 149.651C24.5232 149.706 24.7653 149.811 25.0021 149.967C25.2357 150.118 25.4485 150.322 25.6405 150.578ZM24.1429 152.861L23.0485 151.402C22.9205 151.524 22.8293 151.656 22.7749 151.797C22.7162 151.941 22.6992 152.087 22.7237 152.235C22.744 152.387 22.8021 152.527 22.8981 152.655C22.9973 152.787 23.1168 152.884 23.2565 152.946C23.3888 153.007 23.5322 153.029 23.6869 153.013C23.8373 153 23.9893 152.95 24.1429 152.861Z" fill="black"/>
<path d="M17.6063 149.463L16.9408 148.37L20.6514 146.111C20.8017 146.02 20.8921 145.927 20.9226 145.834C20.9531 145.74 20.9379 145.643 20.8769 145.543C20.8353 145.475 20.7845 145.412 20.7247 145.355C20.6576 145.296 20.5937 145.247 20.5331 145.209L21.2658 144.567C21.4127 144.664 21.5585 144.791 21.7031 144.947C21.8477 145.102 21.9672 145.257 22.0614 145.412C22.25 145.722 22.315 146.013 22.2564 146.286C22.1904 146.557 22.0048 146.786 21.6996 146.972L17.6063 149.463Z" fill="black"/>
<path d="M20.4854 142.856L16.7668 144.808L16.1718 143.675L19.8904 141.722L20.4854 142.856ZM16.3418 145.031L15.3147 145.57L14.7197 144.437L15.7468 143.898L16.3418 145.031Z" fill="black"/>
<path d="M17.6062 137.425C17.6975 137.513 17.7942 137.613 17.8962 137.726C17.9962 137.833 18.0895 137.952 18.1764 138.083C18.2681 138.212 18.3442 138.344 18.4045 138.481C18.4906 138.676 18.5386 138.871 18.5484 139.064C18.5512 139.256 18.4985 139.433 18.3903 139.598C18.28 139.757 18.1004 139.892 17.8516 140.002L15.8463 140.887L16.0628 141.377L15.1772 141.768L14.9608 141.278L13.7386 141.817L13.2216 140.646L14.4438 140.107L14.0981 139.324L14.9837 138.933L15.3294 139.716L16.9321 139.008C17.059 138.952 17.1377 138.88 17.1682 138.79C17.1939 138.703 17.1852 138.611 17.1421 138.513C17.1055 138.43 17.0521 138.349 16.9819 138.269C16.9095 138.185 16.8412 138.116 16.7769 138.063L17.6062 137.425Z" fill="black"/>
<path d="M17.974 134.847L16.8598 134.993L16.9951 135.361L15.7863 135.805L15.4134 134.792L16.6222 134.347L17.7806 134.322L17.974 134.847Z" fill="black"/>
<path d="M14.8032 127.972C14.8856 128.32 14.9092 128.674 14.8737 129.033C14.8383 129.392 14.7361 129.712 14.5671 129.993L13.6794 129.752C13.802 129.46 13.8823 129.186 13.9203 128.93C13.9571 128.669 13.9509 128.435 13.9017 128.227C13.8635 128.066 13.8081 127.948 13.7352 127.872C13.6624 127.796 13.5715 127.771 13.4626 127.797C13.3847 127.815 13.3312 127.856 13.302 127.917C13.2676 127.98 13.2451 128.071 13.2347 128.188C13.2229 128.301 13.2148 128.439 13.2102 128.605C13.1802 128.941 13.1405 129.224 13.0912 129.455C13.0418 129.686 12.9593 129.87 12.8438 130.007C12.7231 130.146 12.5486 130.242 12.3203 130.296C12.0453 130.361 11.7905 130.35 11.5562 130.263C11.3154 130.172 11.1077 130.013 10.9333 129.786C10.7588 129.559 10.6297 129.269 10.5461 128.916C10.4796 128.636 10.4591 128.353 10.4846 128.067C10.5088 127.777 10.597 127.49 10.7493 127.207L11.6421 127.505C11.5366 127.777 11.4691 128.012 11.4395 128.211C11.4099 128.41 11.4154 128.595 11.456 128.766C11.4769 128.854 11.5064 128.932 11.5444 129C11.5823 129.068 11.6328 129.119 11.6958 129.153C11.7523 129.184 11.8195 129.19 11.8974 129.171C11.9752 129.153 12.0326 129.117 12.0694 129.065C12.1051 129.007 12.13 128.927 12.1441 128.825C12.1519 128.719 12.1619 128.588 12.1742 128.431C12.1928 128.071 12.2275 127.766 12.2784 127.519C12.3241 127.272 12.4093 127.077 12.5339 126.932C12.6521 126.783 12.8332 126.68 13.0771 126.622C13.4923 126.524 13.8549 126.597 14.165 126.841C14.4686 127.082 14.6814 127.459 14.8032 127.972Z" fill="black"/>
<path d="M13.5023 121.729C13.5513 122.083 13.5392 122.405 13.4663 122.695C13.388 122.985 13.2647 123.242 13.0962 123.465C12.927 123.682 12.7226 123.858 12.4829 123.994C12.2379 124.13 11.9754 124.217 11.6954 124.256C11.2938 124.311 10.9173 124.275 10.5656 124.146C10.2079 124.012 9.90573 123.793 9.65897 123.487C9.40692 123.183 9.2484 122.796 9.1834 122.326C9.11841 121.855 9.16365 121.443 9.31914 121.087C9.47389 120.727 9.70299 120.437 10.0064 120.217C10.3046 119.998 10.6439 119.862 11.0243 119.81C11.0982 119.8 11.1729 119.795 11.2484 119.795C11.3178 119.791 11.3792 119.788 11.4328 119.786L11.8578 122.861C12.0405 122.819 12.1895 122.747 12.3046 122.645C12.4189 122.538 12.501 122.411 12.5507 122.264C12.5951 122.118 12.6067 121.968 12.5855 121.815C12.5592 121.625 12.4899 121.454 12.3774 121.303C12.2642 121.146 12.1267 121.047 11.9647 121.004L12.1168 119.885C12.3481 119.961 12.5617 120.085 12.7578 120.257C12.9478 120.424 13.1087 120.634 13.2403 120.885C13.3712 121.13 13.4585 121.412 13.5023 121.729ZM11.0856 123L10.8358 121.193C10.6644 121.238 10.5208 121.309 10.4049 121.406C10.2838 121.503 10.1981 121.623 10.1476 121.764C10.0919 121.907 10.075 122.057 10.0969 122.216C10.1196 122.379 10.177 122.522 10.2692 122.644C10.3554 122.761 10.47 122.85 10.6131 122.911C10.7508 122.973 10.9083 123.003 11.0856 123Z" fill="black"/>
<path d="M10.6708 116.857C10.2602 116.868 9.89038 116.797 9.56118 116.645C9.22665 116.493 8.95998 116.281 8.76117 116.009C8.56235 115.736 8.45845 115.418 8.44946 115.056C8.4422 114.763 8.50756 114.494 8.64557 114.251C8.77825 114.007 8.9577 113.822 9.18392 113.693L6.85664 113.751L6.82492 112.471L11.2396 112.362C11.3675 112.359 11.4576 112.335 11.5099 112.291C11.5568 112.247 11.5844 112.177 11.5927 112.081L12.6564 112.055C12.7046 112.278 12.7304 112.458 12.7338 112.597C12.7393 112.816 12.6957 112.995 12.6032 113.136C12.5105 113.272 12.3793 113.358 12.2094 113.394L11.9941 113.424C12.2591 113.566 12.4587 113.764 12.593 114.017C12.7273 114.27 12.7979 114.537 12.805 114.82C12.8121 115.108 12.7654 115.376 12.6648 115.624C12.5588 115.866 12.4094 116.081 12.2166 116.267C12.0237 116.448 11.7952 116.589 11.531 116.692C11.2668 116.795 10.98 116.85 10.6708 116.857ZM11.1111 113.638L10.2314 113.659C10.0888 113.716 9.96539 113.797 9.86127 113.901C9.75701 113.999 9.67448 114.113 9.61367 114.243C9.55273 114.367 9.52385 114.493 9.52702 114.621C9.53046 114.76 9.56295 114.887 9.62451 115.003C9.68593 115.113 9.77102 115.21 9.87977 115.293C9.98318 115.375 10.1021 115.439 10.2366 115.484C10.371 115.523 10.5128 115.541 10.6621 115.537C10.8167 115.533 10.9601 115.506 11.0922 115.455C11.2188 115.398 11.3316 115.323 11.4307 115.23C11.5244 115.137 11.5964 115.029 11.6467 114.905C11.697 114.781 11.7203 114.647 11.7168 114.503C11.7145 114.412 11.699 114.325 11.6702 114.24C11.6361 114.155 11.5942 114.076 11.5443 114.003C11.4944 113.924 11.4313 113.854 11.355 113.792C11.2788 113.729 11.1975 113.678 11.1111 113.638Z" fill="black"/>
<path d="M10.7395 105.784C10.3328 105.727 9.97951 105.597 9.67961 105.393C9.37443 105.188 9.14608 104.935 8.99454 104.634C8.84301 104.333 8.79248 104.002 8.84295 103.643C8.88377 103.353 8.99219 103.099 9.16819 102.881C9.33891 102.663 9.54635 102.509 9.79052 102.419L7.48518 102.095L7.66332 100.828L12.0363 101.442C12.1631 101.46 12.2559 101.452 12.3146 101.417C12.3681 101.381 12.4068 101.317 12.4307 101.223L13.4843 101.371C13.4954 101.599 13.4913 101.781 13.472 101.919C13.4416 102.135 13.3692 102.306 13.2548 102.43C13.1412 102.548 12.9977 102.612 12.8242 102.619L12.607 102.613C12.845 102.797 13.0095 103.025 13.1007 103.297C13.1918 103.568 13.2177 103.843 13.1783 104.123C13.1383 104.409 13.0483 104.665 12.9086 104.893C12.7642 105.115 12.5818 105.302 12.3611 105.455C12.1412 105.601 11.8925 105.704 11.6151 105.762C11.3377 105.82 11.0458 105.827 10.7395 105.784ZM11.7009 102.68L10.8294 102.557C10.6794 102.59 10.5445 102.649 10.4248 102.735C10.3058 102.815 10.2057 102.914 10.1245 103.032C10.0441 103.144 9.99496 103.264 9.97714 103.391C9.95785 103.528 9.96908 103.659 10.0108 103.783C10.0534 103.902 10.1215 104.012 10.2152 104.111C10.3037 104.209 10.4106 104.292 10.536 104.358C10.6621 104.419 10.7991 104.46 10.9469 104.48C11.1001 104.502 11.246 104.498 11.3848 104.469C11.5189 104.434 11.6425 104.379 11.7555 104.303C11.8632 104.227 11.9519 104.131 12.0218 104.017C12.0917 103.903 12.1367 103.775 12.1567 103.632C12.1693 103.543 12.1684 103.454 12.1539 103.365C12.134 103.276 12.1056 103.192 12.0684 103.111C12.032 103.025 11.9813 102.945 11.9163 102.872C11.8512 102.798 11.7794 102.734 11.7009 102.68Z" fill="black"/>
<path d="M14.0847 98.2039L9.99468 97.2491L10.2857 96.0026L14.3757 96.9574L14.0847 98.2039ZM9.52725 97.1399L8.39762 96.8762L8.68861 95.6298L9.81823 95.8935L9.52725 97.1399Z" fill="black"/>
<path d="M13.5855 94.6986C13.3219 94.6125 13.1152 94.4637 12.9654 94.2522C12.8157 94.0406 12.7272 93.7873 12.7 93.4924C12.6678 93.1957 12.7063 92.8801 12.8155 92.5454C12.8684 92.3832 12.9357 92.2285 13.0175 92.0812C13.0941 91.9323 13.1768 91.8078 13.2656 91.7077L13.0906 91.6507C12.8726 91.5795 12.6838 91.5908 12.5242 91.6846C12.3645 91.7784 12.2409 91.9596 12.1532 92.2283C12.0804 92.4514 12.0497 92.6743 12.0613 92.8968C12.0744 93.1143 12.1165 93.3552 12.1873 93.6196L11.2924 93.7315C11.2061 93.4116 11.1661 93.0956 11.1726 92.7835C11.1807 92.4664 11.2368 92.1481 11.3411 91.8287C11.5363 91.2304 11.8322 90.8136 12.2287 90.5784C12.6219 90.3364 13.0897 90.3039 13.6322 90.481L14.6741 90.821C14.7958 90.8607 14.8878 90.871 14.9501 90.8521C15.009 90.8264 15.0592 90.7671 15.1008 90.6741L16.1123 91.0041C16.0995 91.1122 16.0832 91.2134 16.0636 91.308C16.0456 91.3975 16.0259 91.4752 16.0043 91.5411C15.9299 91.7693 15.8272 91.9293 15.6962 92.0212C15.5669 92.1081 15.4187 92.1411 15.2516 92.1202L15.0692 92.0859C15.2395 92.3378 15.3449 92.6079 15.3855 92.896C15.4227 93.1774 15.3975 93.4525 15.3098 93.7212C15.2237 93.9849 15.0902 94.205 14.9092 94.3815C14.7298 94.553 14.5239 94.6682 14.2915 94.727C14.0592 94.7858 13.8238 94.7763 13.5855 94.6986ZM14.5268 92.3297C14.4994 92.259 14.4636 92.1969 14.4194 92.1432C14.3752 92.0895 14.3278 92.0544 14.2771 92.0378L13.9196 91.9212C13.846 92.0093 13.7783 92.1135 13.7167 92.2336C13.6516 92.347 13.6017 92.457 13.567 92.5635C13.4942 92.7865 13.4845 92.9882 13.5379 93.1683C13.5863 93.3468 13.6916 93.4625 13.8538 93.5154C13.9451 93.5452 14.037 93.5471 14.1296 93.5213C14.2222 93.4954 14.3054 93.4468 14.3791 93.3755C14.4545 93.2991 14.5121 93.2001 14.5518 93.0784C14.5915 92.9567 14.6084 92.8276 14.6025 92.691C14.5966 92.5544 14.5713 92.434 14.5268 92.3297Z" fill="black"/>
<path d="M20.0699 82.1164L19.4854 83.2552L17.3858 82.1775C17.1439 82.0533 16.9428 82.0071 16.7826 82.0388C16.6225 82.0705 16.5059 82.1575 16.4328 82.2998C16.3549 82.4517 16.3399 82.6328 16.3877 82.8432C16.4356 83.0536 16.541 83.2396 16.7039 83.4011L18.8461 84.5007L18.2617 85.6394L16.1621 84.5618C15.9153 84.4352 15.7143 84.3889 15.5589 84.423C15.3987 84.4547 15.2821 84.5418 15.2091 84.6841C15.1336 84.8312 15.1197 85.01 15.1676 85.2204C15.2155 85.4308 15.3196 85.6191 15.4801 85.7854L17.6224 86.885L17.0379 88.0237L13.3013 86.1059L13.8274 85.081L14.4537 85.4025C14.3013 85.1504 14.2255 84.8777 14.2262 84.5843C14.2246 84.2837 14.3042 83.9769 14.4649 83.6637C14.6232 83.3553 14.8185 83.1558 15.0508 83.0652C15.2784 82.9722 15.5017 82.9519 15.7205 83.0043C15.5611 82.7426 15.4794 82.4639 15.4753 82.1681C15.469 81.8651 15.5413 81.5665 15.6923 81.2723C15.8141 81.0351 15.9578 80.866 16.1234 80.7652C16.2843 80.662 16.4555 80.6089 16.6368 80.6061C16.8181 80.6032 16.9991 80.6302 17.1798 80.6869C17.3557 80.7413 17.5219 80.8086 17.6785 80.889L20.0699 82.1164Z" fill="black"/>
<path d="M65.1992 185.382C65.2038 174.816 67.4636 164.373 71.8278 154.75C76.1919 145.127 82.5598 136.547 90.5057 129.583C98.4517 122.619 107.793 117.431 117.904 114.366C128.016 111.301 138.666 110.43 149.141 111.81H149.181C129.761 129.216 89.1712 165.564 65.2151 186.87C65.2112 186.801 65.2112 186.732 65.2151 186.663C65.1992 186.21 65.1992 185.804 65.1992 185.382Z" fill="white"/>
<path d="M149.524 111.142L149.325 111.054H149.198C138.619 109.667 127.865 110.554 117.655 113.654C107.445 116.754 98.0146 121.996 89.9921 129.031C81.9697 136.066 75.5404 144.731 71.1335 154.449C66.7266 164.166 64.4435 174.712 64.4366 185.382C64.4366 185.804 64.4366 186.178 64.4366 186.615C64.4326 186.687 64.4326 186.759 64.4366 186.83V187.188C64.6833 187.188 64.9221 187.268 65.1688 187.292H65.7021L124.12 135.225L126.858 132.782L149.66 112.391L150.082 112.001V111.444L149.524 111.142ZM139.393 111.938C142.078 111.936 144.761 112.079 147.431 112.367C128.712 129.137 89.69 164.052 65.9568 185.151C66.0388 165.72 73.8092 147.112 87.5697 133.393C101.33 119.674 119.962 111.961 139.393 111.938Z" fill="#231F20"/>
</g>
<defs>
<clipPath id="clip0_722_386">
<rect width="150.119" height="150" fill="white" transform="translate(0 38)"/>
</clipPath>
</defs>
</svg>
