<svg width="534" height="565" viewBox="0 0 534 565" fill="none" xmlns="http://www.w3.org/2000/svg">
<path d="M248.693 353.7C236.093 353.7 227.093 352.05 221.693 348.75C216.593 345.15 213.443 340.65 212.243 335.25C211.343 329.85 210.893 324.3 210.893 318.6V315.45C210.893 305.85 212.393 298.2 215.393 292.5C218.693 286.8 222.743 282.3 227.543 279C232.643 275.4 238.043 272.55 243.743 270.45C249.443 268.05 254.693 265.8 259.493 263.7C264.593 261.3 268.643 258.45 271.643 255.15C274.943 251.55 276.593 246.75 276.593 240.75C276.593 232.05 274.193 225.75 269.393 221.85C264.593 217.95 256.793 216 245.993 216C241.193 216 237.143 216.6 233.843 217.8C230.543 219 227.993 220.5 226.193 222.3C224.693 223.8 223.493 225.45 222.593 227.25C219.593 236.25 216.143 243.3 212.243 248.4C208.643 253.5 203.993 256.65 198.293 257.85C192.593 258.75 184.943 257.4 175.343 253.8C165.143 249.6 157.643 245.55 152.843 241.65C148.343 237.75 145.793 233.1 145.193 227.7C144.893 222.3 146.093 215.25 148.793 206.55C149.093 205.65 150.143 202.95 151.943 198.45C154.043 193.65 157.193 188.1 161.393 181.8C165.593 175.2 171.293 168.75 178.493 162.45C185.993 156.15 195.143 150.9 205.943 146.7C217.043 142.5 230.393 140.4 245.993 140.4C265.793 140.4 283.493 144.9 299.093 153.9C314.993 162.6 327.443 174.45 336.443 189.45C345.743 204.15 350.393 220.8 350.393 239.4C350.393 252.9 348.293 264.6 344.093 274.5C339.893 284.1 334.643 292.05 328.343 298.35C322.043 304.65 315.593 309.6 308.993 313.2C302.693 316.8 297.143 319.35 292.343 320.85C287.843 322.35 285.143 323.1 284.243 323.1L287.393 317.7V322.2C287.393 327.3 286.793 332.4 285.593 337.5C284.393 342.3 281.093 346.2 275.693 349.2C270.293 352.2 261.293 353.7 248.693 353.7ZM247.343 463.5C229.943 463.5 218.393 460.2 212.693 453.6C207.293 447 204.593 435.75 204.593 419.85C204.593 413.25 205.193 406.65 206.393 400.05C207.593 393.45 211.193 388.05 217.193 383.85C223.193 379.35 233.393 377.1 247.793 377.1C265.493 377.1 277.043 380.4 282.443 387C288.143 393.6 290.993 404.85 290.993 420.75C290.993 427.35 290.393 433.95 289.193 440.55C287.993 447.15 284.243 452.7 277.943 457.2C271.943 461.4 261.743 463.5 247.343 463.5Z" fill="white" fill-opacity="0.9"/>
<path d="M117.632 305.339C122.614 301.716 126.648 299.782 129.732 299.534C132.783 299.492 135.323 300.366 137.349 302.156C139.258 304.033 141.031 306.098 142.67 308.352L143.575 309.598C146.335 313.394 147.941 316.851 148.393 319.967C148.727 323.17 148.419 326.113 147.469 328.798C146.487 331.688 145.171 334.367 143.521 336.836C141.957 339.424 140.527 341.823 139.233 344.033C137.906 346.448 137.124 348.739 136.886 350.907C136.616 353.279 137.344 355.651 139.068 358.024C141.569 361.464 144.329 363.266 147.349 363.428C150.368 363.591 154.013 362.119 158.284 359.015C160.182 357.635 161.611 356.233 162.571 354.81C163.531 353.387 164.108 352.061 164.302 350.832C164.464 349.807 164.465 348.81 164.303 347.839C162.902 343.418 162.24 339.638 162.316 336.5C162.273 333.449 163.207 330.866 165.116 328.753C167.111 326.759 170.524 325.094 175.355 323.758C180.596 322.486 184.726 321.932 187.746 322.094C190.646 322.343 192.991 323.448 194.781 325.411C196.452 327.461 198.004 330.593 199.437 334.81C199.577 335.252 199.938 336.622 200.52 338.919C201.07 341.42 201.419 344.521 201.57 348.219C201.806 352.036 201.406 356.226 200.37 360.787C199.215 365.434 197.106 370.14 194.043 374.906C190.861 379.758 186.185 384.426 180.016 388.91C172.186 394.602 163.894 397.911 155.137 398.836C146.349 399.967 138.019 398.86 130.148 395.515C122.245 392.376 115.62 387.128 110.273 379.773C106.392 374.435 103.859 369.204 102.674 364.082C101.575 359.078 101.366 354.425 102.046 350.123C102.726 345.821 103.854 342.009 105.429 338.688C106.885 335.454 108.347 332.85 109.814 330.877C111.162 328.99 112.014 327.917 112.37 327.659L112.677 330.699L111.383 328.92C109.917 326.903 108.688 324.714 107.697 322.352C106.792 320.109 106.975 317.618 108.248 314.88C109.521 312.141 112.649 308.961 117.632 305.339ZM86.6016 261.531C93.4823 256.529 98.9983 254.514 103.15 255.485C107.182 256.543 111.484 260.215 116.055 266.503C117.952 269.113 119.612 271.895 121.035 274.85C122.458 277.805 122.586 280.975 121.421 284.361C120.342 287.865 116.955 291.687 111.261 295.826C104.262 300.915 98.7455 302.93 94.7129 301.872C90.5616 300.901 86.2005 297.272 81.6298 290.984C79.7325 288.374 78.0725 285.592 76.6497 282.637C75.227 279.682 75.1144 276.409 76.3121 272.819C77.4774 269.433 80.9073 265.67 86.6016 261.531Z" fill="white" fill-opacity="0.9"/>
<path d="M115.732 297.534L115.662 292.535L115.497 292.537L115.332 292.55L115.732 297.534ZM123.349 300.156L126.855 296.591L126.76 296.498L126.66 296.409L123.349 300.156ZM134.393 317.967L139.366 317.449L139.356 317.349L139.341 317.249L134.393 317.967ZM133.469 326.798L128.755 325.131L128.745 325.16L128.735 325.19L133.469 326.798ZM129.521 334.836L125.364 332.058L125.301 332.152L125.242 332.25L129.521 334.836ZM125.233 342.033L120.918 339.506L120.884 339.565L120.851 339.626L125.233 342.033ZM122.886 348.907L127.854 349.472L127.855 349.462L127.856 349.452L122.886 348.907ZM150.302 348.832L155.241 349.613L155.241 349.613L150.302 348.832ZM150.303 345.839L155.235 345.018L155.177 344.668L155.07 344.329L150.303 345.839ZM148.316 334.5L153.314 334.622L153.317 334.526L153.315 334.431L148.316 334.5ZM151.116 326.753L147.581 323.217L147.491 323.307L147.406 323.401L151.116 326.753ZM161.355 321.758L160.177 316.898L160.099 316.917L160.023 316.938L161.355 321.758ZM173.746 320.094L174.173 315.112L174.093 315.106L174.014 315.101L173.746 320.094ZM180.781 323.411L184.656 320.252L184.569 320.145L184.476 320.043L180.781 323.411ZM185.437 332.81L190.204 331.3L190.188 331.25L190.171 331.201L185.437 332.81ZM186.52 336.919L191.404 335.846L191.387 335.768L191.367 335.691L186.52 336.919ZM187.57 346.219L182.574 346.422L182.576 346.475L182.579 346.528L187.57 346.219ZM186.37 358.787L191.222 359.992L191.235 359.944L191.246 359.894L186.37 358.787ZM180.043 372.906L184.224 375.648L184.236 375.629L184.249 375.61L180.043 372.906ZM141.137 396.836L140.612 391.864L140.556 391.87L140.5 391.877L141.137 396.836ZM116.148 393.515L118.104 388.913L118.049 388.89L117.994 388.868L116.148 393.515ZM88.6739 362.082L83.7903 363.154L83.7963 363.182L83.8026 363.209L88.6739 362.082ZM91.429 336.688L95.9466 338.831L95.9678 338.786L95.9881 338.741L91.429 336.688ZM95.814 328.877L99.8265 331.86L99.8546 331.822L99.882 331.784L95.814 328.877ZM98.3702 325.659L103.345 325.157L102.472 316.496L95.4302 321.614L98.3702 325.659ZM98.6769 328.699L94.6326 331.639L105.507 346.599L103.652 328.198L98.6769 328.699ZM93.6969 320.352L89.0603 322.224L89.0733 322.256L89.0867 322.288L93.6969 320.352ZM94.2484 312.88L98.7825 314.987L98.7825 314.987L94.2484 312.88ZM89.1496 253.485L90.418 248.649L90.3536 248.632L90.2888 248.617L89.1496 253.485ZM107.035 272.85L111.54 270.681L107.035 272.85ZM107.421 282.361L102.693 280.733L102.667 280.811L102.642 280.889L107.421 282.361ZM80.7129 299.872L81.9813 295.036L81.9169 295.019L81.852 295.004L80.7129 299.872ZM62.6497 280.637L67.1547 278.468L62.6497 280.637ZM62.3121 270.819L57.5843 269.191L57.5766 269.214L57.5691 269.237L62.3121 270.819ZM106.572 307.383C111.416 303.861 114.499 302.649 116.131 302.518L115.332 292.55C110.796 292.914 105.813 295.572 100.692 299.294L106.572 307.383ZM115.801 302.534C117.781 302.506 119.065 303.043 120.039 303.904L126.66 296.409C123.58 293.688 119.785 292.477 115.662 292.535L115.801 302.534ZM119.843 303.721C121.547 305.397 123.142 307.252 124.625 309.292L132.714 303.412C130.92 300.945 128.968 298.669 126.855 296.591L119.843 303.721ZM124.625 309.292L125.531 310.538L133.619 304.658L132.714 303.412L124.625 309.292ZM125.531 310.538C128.029 313.974 129.152 316.669 129.445 318.685L139.341 317.249C138.729 313.032 136.641 308.814 133.619 304.658L125.531 310.538ZM129.42 318.485C129.687 321.046 129.427 323.233 128.755 325.131L138.183 328.465C139.411 324.994 139.767 321.293 139.366 317.449L129.42 318.485ZM128.735 325.19C127.89 327.677 126.765 329.962 125.364 332.058L133.678 337.615C135.577 334.773 137.085 331.698 138.203 328.407L128.735 325.19ZM125.242 332.25C123.668 334.854 122.226 337.273 120.918 339.506L129.548 344.56C130.828 342.373 132.246 339.994 133.8 337.423L125.242 332.25ZM120.851 339.626C119.288 342.47 118.242 345.393 117.916 348.362L127.856 349.452C128.006 348.086 128.525 346.426 129.615 344.441L120.851 339.626ZM117.918 348.341C117.476 352.225 118.74 355.822 121.024 358.964L129.113 353.084C127.947 351.481 127.756 350.333 127.854 349.472L117.918 348.341ZM121.024 358.964C124.033 363.103 128.016 366.149 133.08 366.421L133.617 356.435C132.643 356.383 131.106 355.826 129.113 353.084L121.024 358.964ZM133.08 366.421C137.833 366.677 142.648 364.385 147.224 361.059L141.344 352.971C137.378 355.854 134.903 356.505 133.617 356.435L133.08 366.421ZM147.224 361.059C149.432 359.454 151.335 357.654 152.716 355.606L144.426 350.014C143.887 350.813 142.932 351.816 141.344 352.971L147.224 361.059ZM152.716 355.606C153.939 353.794 154.898 351.783 155.241 349.613L145.364 348.051C145.318 348.339 145.123 348.981 144.426 350.014L152.716 355.606ZM155.241 349.613C155.482 348.086 155.49 346.547 155.235 345.018L145.371 346.66C145.44 347.073 145.446 347.528 145.364 348.051L155.241 349.613ZM155.07 344.329C153.764 340.208 153.257 337.01 153.314 334.622L143.317 334.379C143.223 338.267 144.041 342.628 145.537 347.35L155.07 344.329ZM153.315 334.431C153.289 332.543 153.827 331.21 154.826 330.105L147.406 323.401C144.586 326.522 143.258 330.355 143.316 334.57L153.315 334.431ZM154.651 330.29C155.727 329.214 158.133 327.836 162.688 326.577L160.023 316.938C154.916 318.351 150.496 320.304 147.581 323.217L154.651 330.29ZM162.534 326.617C167.61 325.385 171.183 324.964 173.477 325.087L174.014 315.101C170.27 314.9 165.582 315.587 160.177 316.898L162.534 326.617ZM173.319 325.076C175.097 325.228 176.228 325.839 177.086 326.78L184.476 320.043C181.754 317.058 178.196 315.457 174.173 315.112L173.319 325.076ZM176.906 326.571C178.029 327.949 179.349 330.435 180.703 334.419L190.171 331.201C188.659 326.752 186.875 322.972 184.656 320.252L176.906 326.571ZM180.671 334.32C180.67 334.319 180.673 334.326 180.678 334.343C180.683 334.359 180.689 334.381 180.698 334.411C180.715 334.47 180.737 334.548 180.765 334.648C180.82 334.848 180.891 335.111 180.978 335.443C181.153 336.105 181.384 337.004 181.673 338.146L191.367 335.691C190.804 333.47 190.4 331.919 190.204 331.3L180.671 334.32ZM181.636 337.991C182.102 340.112 182.431 342.899 182.574 346.422L192.565 346.016C192.408 342.142 192.037 338.729 191.404 335.846L181.636 337.991ZM182.579 346.528C182.78 349.778 182.447 353.483 181.494 357.679L191.246 359.894C192.365 354.968 192.832 350.295 192.56 345.91L182.579 346.528ZM181.518 357.581C180.516 361.61 178.657 365.815 175.837 370.202L184.249 375.61C187.555 370.466 189.914 365.258 191.222 359.992L181.518 357.581ZM175.862 370.164C173.097 374.379 168.902 378.631 163.076 382.866L168.956 390.955C175.469 386.22 180.624 381.136 184.224 375.648L175.862 370.164ZM163.076 382.866C155.884 388.095 148.411 391.04 140.612 391.864L141.663 401.809C151.376 400.782 160.489 397.11 168.956 390.955L163.076 382.866ZM140.5 391.877C132.559 392.899 125.127 391.898 118.104 388.913L114.193 398.117C122.911 401.822 132.139 403.035 141.775 401.795L140.5 391.877ZM117.994 388.868C111.032 386.103 105.148 381.478 100.317 374.833L92.2285 380.713C98.0916 388.778 105.458 394.649 114.302 398.162L117.994 388.868ZM100.317 374.833C96.7335 369.903 94.5458 365.28 93.5453 360.955L83.8026 363.209C85.1722 369.129 88.0504 374.966 92.2285 380.713L100.317 374.833ZM93.5576 361.01C92.5693 356.51 92.4173 352.492 92.9847 348.904L83.1074 347.342C82.3143 352.359 82.5809 357.647 83.7903 363.154L93.5576 361.01ZM92.9847 348.904C93.6037 344.989 94.6099 341.649 95.9466 338.831L86.9113 334.546C85.0979 338.369 83.8488 342.653 83.1074 347.342L92.9847 348.904ZM95.9881 338.741C97.3555 335.704 98.6464 333.447 99.8265 331.86L91.8015 325.894C90.0477 328.252 88.4152 331.203 86.8698 334.635L95.9881 338.741ZM99.882 331.784C100.536 330.869 101.03 330.207 101.379 329.767C101.556 329.545 101.663 329.42 101.713 329.365C101.737 329.338 101.725 329.354 101.682 329.395C101.651 329.425 101.52 329.55 101.31 329.703L95.4302 321.614C94.6038 322.215 93.889 323.119 93.5491 323.547C93.0467 324.18 92.4407 324.997 91.7459 325.97L99.882 331.784ZM93.3955 326.16L93.7022 329.201L103.652 328.198L103.345 325.157L93.3955 326.16ZM102.721 325.759L101.428 323.98L93.339 329.86L94.6326 331.639L102.721 325.759ZM101.428 323.98C100.194 322.284 99.1534 320.433 98.307 318.417L89.0867 322.288C90.2234 324.995 91.6401 327.523 93.339 329.86L101.428 323.98ZM98.3335 318.481C98.0692 317.826 97.938 316.804 98.7825 314.987L89.7143 310.772C88.0128 314.433 87.5139 318.392 89.0603 322.224L98.3335 318.481ZM98.7825 314.987C99.4848 313.476 101.701 310.924 106.572 307.383L100.692 299.294C95.5976 302.997 91.5579 306.806 89.7143 310.772L98.7825 314.987ZM75.5416 263.575C82.2859 258.672 86.1701 257.923 88.0105 258.353L90.2888 248.617C83.8266 247.104 76.6788 250.385 69.6616 255.487L75.5416 263.575ZM87.8812 258.321C90.1744 258.923 93.6055 261.383 98.0105 267.443L106.099 261.563C101.363 255.047 96.1902 250.162 90.418 248.649L87.8812 258.321ZM98.0105 267.443C99.7285 269.806 101.235 272.33 102.53 275.019L111.54 270.681C109.989 267.46 108.176 264.419 106.099 261.563L98.0105 267.443ZM102.53 275.019C103.326 276.673 103.473 278.468 102.693 280.733L112.149 283.988C113.7 279.483 113.589 274.937 111.54 270.681L102.53 275.019ZM102.642 280.889C102.064 282.768 99.8271 285.779 94.3209 289.782L100.201 297.871C106.083 293.594 110.62 288.962 112.2 283.832L102.642 280.889ZM94.3209 289.782C91.0371 292.169 88.3269 293.665 86.1585 294.458C83.9803 295.254 82.6838 295.22 81.9813 295.036L79.4445 304.709C82.7746 305.582 86.2525 305.07 89.5902 303.85C92.9378 302.627 96.4853 300.572 100.201 297.871L94.3209 289.782ZM81.852 295.004C79.5076 294.455 76.0559 292.072 71.6741 286.044L63.5855 291.924C68.3451 298.471 73.6156 303.347 79.5737 304.741L81.852 295.004ZM71.6741 286.044C69.9561 283.681 68.4495 281.157 67.1547 278.468L58.1447 282.806C59.6955 286.027 61.509 289.068 63.5855 291.924L71.6741 286.044ZM67.1547 278.468C66.3835 276.866 66.2007 274.963 67.0552 272.401L57.5691 269.237C56.0282 273.856 56.0705 278.498 58.1448 282.806L67.1547 278.468ZM67.0399 272.446C67.6767 270.596 70.0057 267.599 75.5416 263.575L69.6616 255.487C63.8088 259.741 59.2781 264.27 57.5843 269.191L67.0399 272.446Z" fill="#F3CE64"/>
<path d="M377.076 395.958C373.254 391.864 371.061 388.44 370.495 385.685C370.118 382.936 370.624 380.548 372.015 378.52C373.496 376.59 375.163 374.76 377.014 373.032L378.038 372.076C381.157 369.165 384.097 367.332 386.858 366.578C389.711 365.921 392.401 365.872 394.929 366.43C397.646 366.995 400.209 367.885 402.62 369.1C405.129 370.224 407.452 371.247 409.59 372.17C411.917 373.099 414.071 373.55 416.053 373.524C418.223 373.504 420.283 372.584 422.232 370.765C425.059 368.126 426.378 365.436 426.189 362.693C426 359.951 424.268 356.826 420.992 353.317C419.536 351.758 418.113 350.624 416.722 349.916C415.332 349.207 414.071 348.834 412.94 348.795C411.998 348.763 411.098 348.873 410.24 349.127C406.407 350.882 403.07 351.899 400.23 352.179C397.481 352.556 395.048 352.001 392.929 350.513C390.908 348.934 389.026 346.04 387.284 341.829C385.555 337.241 384.596 333.576 384.407 330.834C384.31 328.189 385.047 325.951 386.619 324.118C388.283 322.383 390.937 320.634 394.582 318.873C394.966 318.697 396.161 318.22 398.169 317.44C400.365 316.666 403.124 316.006 406.444 315.46C409.862 314.823 413.687 314.718 417.917 315.146C422.238 315.672 426.719 317.053 431.359 319.287C436.09 321.62 440.821 325.32 445.553 330.388C451.558 336.82 455.464 343.936 457.272 351.733C459.268 359.537 459.194 367.176 457.051 374.649C455.096 382.129 451.097 388.69 445.054 394.331C440.668 398.425 436.23 401.292 431.74 402.93C427.347 404.477 423.172 405.183 419.215 405.047C415.257 404.911 411.693 404.316 408.522 403.264C405.442 402.309 402.93 401.28 400.987 400.175C399.135 399.168 398.072 398.518 397.799 398.226L400.509 397.612L399.047 398.977C397.39 400.523 395.551 401.875 393.53 403.032C391.607 404.098 389.339 404.209 386.727 403.364C384.114 402.52 380.897 400.051 377.076 395.958ZM340.995 428.821C335.718 423.168 333.287 418.415 333.702 414.561C334.209 410.805 337.044 406.516 342.21 401.693C344.354 399.692 346.68 397.885 349.188 396.273C351.697 394.661 354.543 394.193 357.727 394.868C361.009 395.453 364.833 398.084 369.201 402.762C374.569 408.513 377 413.266 376.494 417.022C376.078 420.875 373.288 425.213 368.122 430.036C365.978 432.037 363.652 433.844 361.144 435.456C358.636 437.068 355.695 437.533 352.322 436.851C349.138 436.176 345.362 433.499 340.995 428.821Z" fill="white" fill-opacity="0.95"/>
<path d="M388.591 388.865L383.675 389.78L383.705 389.942L383.746 390.102L388.591 388.865ZM389.767 381.636L385.661 378.784L385.584 378.894L385.514 379.008L389.767 381.636ZM404.026 369.001L402.674 364.187L402.577 364.214L402.481 364.245L404.026 369.001ZM412.081 368.469L411.236 373.397L411.266 373.403L411.297 373.407L412.081 368.469ZM419.89 370.77L417.855 375.337L417.959 375.384L418.065 375.425L419.89 370.77ZM426.998 373.504L425.238 378.184L425.302 378.209L425.367 378.231L426.998 373.504ZM433.518 374.549L433.234 369.557L433.224 369.558L433.214 369.559L433.518 374.549ZM429.232 349.997L429.165 344.997L429.165 344.997L429.232 349.997ZM426.551 350.457L424.907 345.735L424.571 345.851L424.255 346.015L426.551 350.457ZM416.697 353.982L415.971 349.035L415.876 349.049L415.782 349.066L416.697 353.982ZM409.325 352.665L406.438 356.748L406.542 356.821L406.65 356.889L409.325 352.665ZM403.273 344.26L398.684 346.244L398.715 346.317L398.749 346.389L403.273 344.26ZM399.876 333.414L394.894 333.837L394.901 333.916L394.91 333.995L399.876 333.414ZM401.766 326.6L397.996 323.316L397.905 323.42L397.82 323.529L401.766 326.6ZM409.47 320.982L407.175 316.54L407.129 316.564L407.083 316.589L409.47 320.982ZM412.985 319.38L411.101 314.748L411.027 314.778L410.954 314.811L412.985 319.38ZM421.156 317.008L422.202 321.898L422.254 321.887L422.306 321.874L421.156 317.008ZM432.601 316.149L432.968 311.163L432.918 311.159L432.868 311.156L432.601 316.149ZM446.225 319.646L448.22 315.061L448.199 315.052L448.178 315.043L446.225 319.646ZM473.653 350.821L468.841 352.181L468.857 352.235L468.873 352.289L473.653 350.821ZM474.523 373.722L469.656 372.574L469.643 372.631L469.631 372.689L474.523 373.722ZM450.587 403.175L452.471 407.807L452.497 407.796L452.522 407.785L450.587 403.175ZM427.411 404.614L428.758 399.799L428.71 399.786L428.662 399.773L427.411 404.614ZM419.737 401.888L421.998 397.428L421.956 397.407L421.914 397.386L419.737 401.888ZM416.461 400.092L415.124 395.274L406.736 397.601L412.972 403.675L416.461 400.092ZM419.138 399.35L422.72 402.838L435.623 389.588L417.801 394.532L419.138 399.35ZM412.425 405.096L415.055 409.349L415.084 409.331L415.113 409.312L412.425 405.096ZM405.645 405.752L406.955 400.926L406.955 400.926L405.645 405.752ZM353.214 419.46L348.233 419.028L348.227 419.095L348.223 419.161L353.214 419.46ZM367.812 400.455L364.912 396.382L364.912 396.383L367.812 400.455ZM376.274 398.646L375.471 403.581L375.552 403.594L375.633 403.604L376.274 398.646ZM396.074 419.881L391.093 419.449L391.087 419.516L391.083 419.582L396.074 419.881ZM381.619 439.025L378.719 434.952L378.719 434.952L381.619 439.025ZM372.874 440.838L372.071 445.773L372.094 445.777L372.118 445.781L372.874 440.838ZM399.141 395.231C395.252 391.443 393.771 388.941 393.435 387.627L383.746 390.102C384.803 394.239 388.03 398.369 392.165 402.395L399.141 395.231ZM393.506 387.95C393.195 386.276 393.467 385.161 394.021 384.264L385.514 379.008C383.483 382.295 382.971 385.999 383.675 389.78L393.506 387.95ZM393.874 384.488C395.099 382.725 396.499 381.03 398.082 379.404L390.918 372.428C388.966 374.432 387.212 376.55 385.661 378.784L393.874 384.488ZM398.082 379.404L399.059 378.401L391.895 371.425L390.918 372.428L398.082 379.404ZM399.059 378.401C401.725 375.663 403.906 374.297 405.571 373.756L402.481 364.245C398.7 365.474 395.182 368.049 391.895 371.425L399.059 378.401ZM405.378 373.814C407.575 373.197 409.506 373.101 411.236 373.397L412.926 363.541C409.552 362.963 406.113 363.221 402.674 364.187L405.378 373.814ZM411.297 373.407C413.617 373.776 415.799 374.421 417.855 375.337L421.925 366.203C419.049 364.921 416.024 364.033 412.865 363.531L411.297 373.407ZM418.065 375.425C420.642 376.435 423.033 377.355 425.238 378.184L428.758 368.824C426.604 368.014 424.256 367.111 421.715 366.115L418.065 375.425ZM425.367 378.231C428.199 379.208 431.039 379.71 433.822 379.54L433.214 369.559C432.04 369.63 430.534 369.435 428.629 368.778L425.367 378.231ZM433.801 379.541C437.487 379.332 440.617 377.579 443.141 374.987L435.977 368.011C434.78 369.24 433.882 369.521 433.234 369.557L433.801 379.541ZM443.141 374.987C446.441 371.598 448.65 367.432 448.093 362.668L438.161 363.829C438.242 364.525 438.072 365.859 435.977 368.011L443.141 374.987ZM448.093 362.668C447.572 358.214 444.687 354.16 440.978 350.548L434.002 357.712C437.17 360.798 438.043 362.823 438.161 363.829L448.093 362.668ZM440.978 350.548C439.175 348.792 437.227 347.328 435.117 346.377L431.009 355.494C431.745 355.826 432.748 356.492 434.002 357.712L440.978 350.548ZM435.117 346.377C433.266 345.543 431.249 344.969 429.165 344.997L429.298 354.996C429.477 354.994 430.015 355.046 431.009 355.494L435.117 346.377ZM429.165 344.997C427.715 345.016 426.286 345.254 424.907 345.735L428.195 355.179C428.505 355.071 428.864 355.002 429.298 354.996L429.165 344.997ZM424.255 346.015C420.789 347.806 418.052 348.729 415.971 349.035L417.424 358.929C420.989 358.405 424.821 356.979 428.846 354.899L424.255 346.015ZM415.782 349.066C414.198 349.361 413.04 349.1 412.001 348.441L406.65 356.889C409.984 359.001 413.741 359.618 417.612 358.897L415.782 349.066ZM412.212 348.583C411.179 347.853 409.616 345.995 407.797 342.13L398.749 346.389C400.812 350.771 403.283 354.516 406.438 356.748L412.212 348.583ZM407.863 342.275C405.984 337.931 405.077 334.843 404.842 332.834L394.91 333.995C395.314 337.446 396.671 341.588 398.684 346.244L407.863 342.275ZM404.858 332.992C404.73 331.478 405.078 330.486 405.711 329.672L397.82 323.529C395.487 326.526 394.575 330.077 394.894 333.837L404.858 332.992ZM405.536 329.885C406.546 328.726 408.516 327.191 411.857 325.376L407.083 316.589C403.31 318.639 400.144 320.85 397.996 323.316L405.536 329.885ZM411.765 325.424C411.762 325.426 411.781 325.416 411.832 325.391C411.881 325.368 411.946 325.337 412.03 325.297C412.198 325.218 412.421 325.115 412.704 324.986C413.269 324.728 414.037 324.384 415.015 323.949L410.954 314.811C409.057 315.654 407.714 316.262 407.175 316.54L411.765 325.424ZM414.868 324.011C416.664 323.281 419.083 322.565 422.202 321.898L420.111 312.119C416.648 312.859 413.62 313.724 411.101 314.748L414.868 324.011ZM422.306 321.874C425.136 321.206 428.463 320.936 432.335 321.142L432.868 311.156C428.248 310.91 423.944 311.212 420.007 312.142L422.306 321.874ZM432.234 321.136C435.94 321.409 439.945 322.413 444.272 324.249L448.178 315.043C443.023 312.856 437.945 311.529 432.968 311.163L432.234 321.136ZM444.23 324.231C448.369 326.031 452.78 329.099 457.443 333.64L464.419 326.476C459.148 321.342 453.755 317.469 448.22 315.061L444.23 324.231ZM457.443 333.64C463.183 339.23 466.927 345.404 468.841 352.181L478.465 349.462C476.026 340.833 471.288 333.165 464.419 326.476L457.443 333.64ZM468.873 352.289C470.988 359.173 471.23 365.903 469.656 372.574L479.389 374.87C481.386 366.407 481.049 357.87 478.433 349.353L468.873 352.289ZM469.631 372.689C468.243 379.263 465.049 385.171 459.894 390.464L467.059 397.441C473.439 390.889 477.609 383.31 479.415 374.755L469.631 372.689ZM459.894 390.464C456.061 394.4 452.304 397.032 448.652 398.565L452.522 407.785C457.684 405.619 462.52 402.101 467.059 397.441L459.894 390.464ZM448.703 398.544C444.867 400.104 441.347 400.843 438.111 400.886L438.243 410.885C442.926 410.823 447.679 409.756 452.471 407.807L448.703 398.544ZM438.111 400.886C434.543 400.934 431.44 400.55 428.758 399.799L426.064 409.429C429.817 410.479 433.892 410.943 438.243 410.885L438.111 400.886ZM428.662 399.773C425.75 399.021 423.563 398.221 421.998 397.428L417.476 406.347C419.899 407.575 422.827 408.594 426.16 409.455L428.662 399.773ZM421.914 397.386C420.997 396.943 420.336 396.606 419.897 396.365C419.676 396.244 419.557 396.172 419.511 396.143C419.489 396.129 419.514 396.144 419.568 396.184C419.609 396.214 419.759 396.325 419.949 396.51L412.972 403.675C413.69 404.373 414.668 404.903 415.092 405.136C415.746 405.494 416.58 405.915 417.561 406.389L421.914 397.386ZM417.797 404.91L420.475 404.168L417.801 394.532L415.124 395.274L417.797 404.91ZM415.556 395.861L414.161 397.294L421.325 404.271L422.72 402.838L415.556 395.861ZM414.161 397.294C412.855 398.634 411.385 399.83 409.737 400.88L415.113 409.312C417.393 407.859 419.467 406.178 421.325 404.271L414.161 397.294ZM409.796 400.843C409.383 401.099 408.624 401.379 406.955 400.926L404.336 410.577C407.966 411.563 411.727 411.406 415.055 409.349L409.796 400.843ZM406.955 400.926C405.612 400.562 403.054 399.041 399.141 395.231L392.165 402.395C396.275 406.398 400.379 409.504 404.336 410.577L406.955 400.926ZM364.666 429.774C359.246 424.496 358.115 421.258 358.205 419.758L348.223 419.161C347.85 425.399 352.028 431.425 357.689 436.938L364.666 429.774ZM358.195 419.891C358.367 417.907 359.948 414.551 364.682 409.69L357.518 402.714C352.391 407.978 348.715 413.461 348.233 419.028L358.195 419.891ZM364.682 409.69C366.516 407.807 368.524 406.086 370.713 404.528L364.912 396.383C362.243 398.283 359.777 400.394 357.518 402.714L364.682 409.69ZM370.713 404.528C371.965 403.636 373.427 403.248 375.471 403.581L377.078 393.711C372.696 392.997 368.517 393.815 364.912 396.382L370.713 404.528ZM375.633 403.604C377.252 403.814 380.204 405.264 384.622 409.567L391.599 402.402C386.847 397.775 381.908 394.333 376.916 393.687L375.633 403.604ZM384.622 409.567C387.249 412.125 388.975 414.29 389.99 416.061C391.011 417.841 391.139 418.915 391.093 419.449L401.055 420.312C401.336 417.071 400.301 413.94 398.667 411.089C397.027 408.228 394.608 405.333 391.599 402.402L384.622 409.567ZM391.083 419.582C390.962 421.599 389.455 424.958 384.749 429.79L391.914 436.767C397.068 431.474 400.723 425.901 401.065 420.18L391.083 419.582ZM384.749 429.79C382.916 431.673 380.907 433.394 378.719 434.952L384.519 443.098C387.188 441.197 389.655 439.087 391.914 436.767L384.749 429.79ZM378.719 434.952C377.513 435.81 375.96 436.252 373.631 435.896L372.118 445.781C376.591 446.465 380.867 445.698 384.519 443.098L378.719 434.952ZM373.678 435.903C372.068 435.641 369.11 434.102 364.666 429.774L357.689 436.938C362.415 441.54 367.255 444.989 372.071 445.773L373.678 435.903Z" fill="#79CDF2"/>
<path d="M242.899 341.18L240.462 345.546L240.606 345.626L240.756 345.697L242.899 341.18ZM232.079 328.751L227.261 330.088L227.297 330.217L227.339 330.344L232.079 328.751ZM230.705 285.907L226.138 283.872L226.097 283.964L226.06 284.057L230.705 285.907ZM241.365 271.201L244.616 275L244.639 274.98L244.663 274.96L241.365 271.201ZM256.573 260.992L258.787 265.475L258.889 265.425L258.989 265.37L256.573 260.992ZM271.524 252.619L274 256.963L274.06 256.929L274.118 256.894L271.524 252.619ZM282.705 242.836L278.684 239.865L278.678 239.873L278.672 239.882L282.705 242.836ZM234.046 214.96L230.158 211.816L230.158 211.816L234.046 214.96ZM230.988 220.261L226.305 218.509L226.181 218.842L226.104 219.189L230.988 220.261ZM222.925 242.384L218.655 239.783L218.605 239.864L218.559 239.948L222.925 242.384ZM210.049 253.252L211.345 258.081L211.467 258.048L211.589 258.009L210.049 253.252ZM186.8 251.644L185.394 256.442L185.47 256.464L185.547 256.484L186.8 251.644ZM163.144 241.933L160.286 246.035L160.351 246.081L160.418 246.124L163.144 241.933ZM154.067 228.867L149.131 229.669L149.153 229.805L149.183 229.94L154.067 228.867ZM155.417 207.455L150.534 206.383L150.523 206.434L150.512 206.485L155.417 207.455ZM157.696 199.068L152.93 197.558L152.905 197.634L152.884 197.711L157.696 199.068ZM165.339 181.515L169.768 183.834L169.793 183.787L169.816 183.74L165.339 181.515ZM180.304 160.47L176.702 157.002L176.667 157.038L176.633 157.076L180.304 160.47ZM205.941 141.915L203.688 137.451L203.668 137.461L203.648 137.472L205.941 141.915ZM299.331 139.257L297.303 143.827L297.354 143.85L297.407 143.872L299.331 139.257ZM340.22 170.672L336.227 173.682L336.263 173.73L336.3 173.776L340.22 170.672ZM356.791 254.442L361.558 255.953L361.566 255.926L361.574 255.899L356.791 254.442ZM325.966 296.626L323.122 292.514L323.081 292.542L323.041 292.571L325.966 296.626ZM310.215 305.989L308.229 301.4L308.185 301.419L308.142 301.438L310.215 305.989ZM302.397 309.08L297.837 307.03L294.267 314.969L302.924 314.052L302.397 309.08ZM304.96 303.378L309.932 302.851L307.983 284.459L300.4 301.328L304.96 303.378ZM305.257 323.257L310.209 323.952L310.214 323.918L310.218 323.883L305.257 323.257ZM296.646 335.936L293.77 331.845L293.77 331.845L296.646 335.936ZM245 446.394L241.485 449.951L241.533 449.997L241.581 450.043L245 446.394ZM233.091 393.806L228.105 393.435L228.105 393.435L233.091 393.806ZM242.123 376.558L245.406 380.329L245.468 380.276L245.528 380.22L242.123 376.558ZM307.342 372.814L303.827 376.37L303.875 376.417L303.923 376.462L307.342 372.814ZM319.698 425.354L314.712 424.983L314.712 424.983L319.698 425.354ZM310.266 443.097L313.549 446.868L313.567 446.852L313.585 446.837L310.266 443.097ZM269.743 338.284C257.383 339.594 249.444 338.75 245.042 336.662L240.756 345.697C247.79 349.034 258.097 349.574 270.797 348.228L269.743 338.284ZM245.336 336.814C240.82 334.293 238.133 331.069 236.818 327.158L227.339 330.344C229.549 336.919 234.075 341.981 240.462 345.546L245.336 336.814ZM236.897 327.414C235.509 322.414 234.526 317.214 233.953 311.809L224.009 312.863C224.638 318.794 225.72 324.537 227.261 330.088L236.897 327.414ZM233.953 311.809L233.621 308.676L223.677 309.73L224.009 312.863L233.953 311.809ZM233.621 308.676C232.657 299.572 233.38 292.707 235.351 287.756L226.06 284.057C223.266 291.075 222.618 299.741 223.677 309.73L233.621 308.676ZM235.272 287.942C237.691 282.515 240.824 278.245 244.616 275L238.114 267.403C233.054 271.733 229.082 277.266 226.138 283.872L235.272 287.942ZM244.663 274.96C249.036 271.122 253.742 267.965 258.787 265.475L254.36 256.508C248.511 259.396 243.078 263.046 238.067 267.443L244.663 274.96ZM258.989 265.37C264.421 262.373 269.425 259.571 274 256.963L269.049 248.275C264.52 250.856 259.557 253.635 254.158 256.614L258.989 265.37ZM274.118 256.894C279.356 253.715 283.627 250.039 286.739 245.791L278.672 239.882C276.513 242.829 273.33 245.675 268.93 248.345L274.118 256.894ZM286.727 245.808C290.533 240.656 291.815 234.38 291.082 227.468L281.138 228.522C281.67 233.542 280.682 237.161 278.684 239.865L286.727 245.808ZM291.082 227.468C290.074 217.957 286.585 210.257 279.685 205.768L274.232 214.15C277.7 216.406 280.312 220.729 281.138 228.522L291.082 227.468ZM279.685 205.768C273.045 201.449 263.66 200.458 252.545 201.636L253.599 211.58C263.964 210.481 270.502 211.724 274.232 214.15L279.685 205.768ZM252.545 201.636C247.39 202.182 242.817 203.314 238.985 205.186L243.374 214.171C245.852 212.961 249.207 212.045 253.599 211.58L252.545 201.636ZM238.985 205.186C235.407 206.933 232.357 209.096 230.158 211.816L237.935 218.103C238.936 216.864 240.641 215.506 243.374 214.171L238.985 205.186ZM230.158 211.816C228.505 213.861 227.209 216.094 226.305 218.509L235.671 222.014C236.178 220.659 236.921 219.357 237.935 218.103L230.158 211.816ZM226.104 219.189C224.137 228.148 221.606 234.94 218.655 239.783L227.195 244.986C230.925 238.863 233.769 230.907 235.872 221.334L226.104 219.189ZM218.559 239.948C216.083 244.383 212.758 247.119 208.509 248.495L211.589 258.009C218.422 255.797 223.681 251.288 227.291 244.821L218.559 239.948ZM208.753 248.423C204.435 249.582 197.701 249.299 188.052 246.803L185.547 256.484C195.75 259.124 204.516 259.914 211.345 258.081L208.753 248.423ZM188.205 246.845C177.782 243.791 170.446 240.718 165.871 237.741L160.418 246.124C166.211 249.892 174.645 253.293 185.394 256.442L188.205 246.845ZM166.002 237.83C162.041 235.07 159.819 231.749 158.95 227.794L149.183 229.94C150.646 236.597 154.476 241.987 160.286 246.035L166.002 237.83ZM159.002 228.065C158.273 223.582 158.602 217.121 160.322 208.426L150.512 206.485C148.697 215.661 148.125 223.475 149.131 229.669L159.002 228.065ZM160.301 208.527C160.465 207.782 161.171 205.165 162.508 200.426L152.884 197.711C151.589 202.3 150.777 205.275 150.534 206.383L160.301 208.527ZM162.463 200.578C163.927 195.956 166.337 190.386 169.768 183.834L160.909 179.195C157.315 186.059 154.63 192.191 152.93 197.558L162.463 200.578ZM169.816 183.74C173.044 177.243 177.733 170.614 183.975 163.865L176.633 157.076C169.883 164.374 164.595 171.775 160.861 179.29L169.816 183.74ZM183.905 163.939C190.258 157.342 198.337 151.467 208.234 146.358L203.648 137.472C192.951 142.993 183.939 149.488 176.702 157.002L183.905 163.939ZM208.193 146.379C218.109 141.375 230.54 138 245.631 136.401L244.577 126.457C228.641 128.146 214.964 131.762 203.688 137.451L208.193 146.379ZM245.631 136.401C264.537 134.397 281.721 136.912 297.303 143.827L301.359 134.687C284.018 126.991 265.05 124.287 244.577 126.457L245.631 136.401ZM297.407 143.872C313.346 150.519 326.251 160.45 336.227 173.682L344.212 167.662C333.127 152.959 318.772 141.947 301.255 134.642L297.407 143.872ZM336.3 173.776C346.469 186.62 352.517 201.778 354.385 219.401L364.329 218.347C362.276 198.977 355.566 182.001 344.14 167.569L336.3 173.776ZM354.385 219.401C355.754 232.323 354.903 243.481 352.008 252.986L361.574 255.899C364.946 244.828 365.805 232.274 364.329 218.347L354.385 219.401ZM352.025 252.932C349.016 262.43 344.901 270.31 339.754 276.676L347.531 282.963C353.587 275.472 358.237 266.433 361.558 255.953L352.025 252.932ZM339.754 276.676C334.4 283.3 328.848 288.554 323.122 292.514L328.809 300.739C335.451 296.147 341.684 290.196 347.531 282.963L339.754 276.676ZM323.041 292.571C317.332 296.688 312.403 299.593 308.229 301.4L312.201 310.577C317.257 308.389 322.829 305.053 328.89 300.682L323.041 292.571ZM308.142 301.438C306.016 302.406 304.373 303.116 303.184 303.586C302.588 303.822 302.154 303.978 301.859 304.073C301.484 304.194 301.558 304.141 301.87 304.108L302.924 314.052C304.169 313.92 305.687 313.35 306.861 312.886C308.278 312.325 310.096 311.537 312.287 310.539L308.142 301.438ZM306.957 311.13L309.521 305.428L300.4 301.328L297.837 307.03L306.957 311.13ZM299.988 303.905L300.462 308.38L310.407 307.326L309.932 302.851L299.988 303.905ZM300.462 308.38C300.958 313.058 300.905 317.805 300.297 322.631L310.218 323.883C310.921 318.313 310.986 312.791 310.407 307.326L300.462 308.38ZM300.306 322.563C299.856 325.766 297.992 328.877 293.77 331.845L299.521 340.026C305.406 335.889 309.283 330.548 310.209 323.952L300.306 322.563ZM293.77 331.845C289.824 334.619 282.136 336.971 269.743 338.284L270.797 348.228C283.464 346.886 293.36 344.357 299.521 340.026L293.77 331.845ZM279.973 447.615C262.838 449.431 253.051 447.085 248.419 442.745L241.581 450.043C249.677 457.628 263.557 459.411 281.027 457.559L279.973 447.615ZM248.515 442.838C243.728 438.108 240.006 428.69 238.36 413.159L228.416 414.213C230.121 430.305 234.141 442.692 241.485 449.951L248.515 442.838ZM238.36 413.159C237.697 406.899 237.601 400.573 238.077 394.177L228.105 393.435C227.585 400.419 227.688 407.346 228.416 414.213L238.36 413.159ZM238.077 394.177C238.468 388.928 240.776 384.361 245.406 380.329L238.84 372.787C232.423 378.374 228.71 385.305 228.105 393.435L238.077 394.177ZM245.528 380.22C249.775 376.271 258.28 373.086 272.369 371.593L271.315 361.649C256.764 363.191 245.456 366.631 238.719 372.897L245.528 380.22ZM272.369 371.593C280.904 370.688 287.76 370.771 293.058 371.695C298.367 372.621 301.761 374.328 303.827 376.37L310.857 369.257C306.858 365.305 301.302 362.982 294.777 361.844C288.242 360.704 280.381 360.688 271.315 361.649L272.369 371.593ZM303.923 376.462C308.933 381.156 312.787 390.509 314.429 406.001L324.374 404.947C322.664 388.817 318.479 376.396 310.761 369.165L303.923 376.462ZM314.429 406.001C315.093 412.262 315.188 418.587 314.712 424.983L324.685 425.725C325.204 418.741 325.101 411.814 324.374 404.947L314.429 406.001ZM314.712 424.983C314.326 430.175 311.927 434.938 306.947 439.357L313.585 446.837C320.187 440.978 324.076 433.912 324.685 425.725L314.712 424.983ZM306.983 439.326C302.684 443.068 294.098 446.118 279.973 447.615L281.027 457.559C295.542 456.021 306.8 452.743 313.549 446.868L306.983 439.326Z" fill="#CE6256"/>
</svg>
