<svg width="297" height="132" viewBox="0 0 297 132" fill="none" xmlns="http://www.w3.org/2000/svg">
<g clip-path="url(#clip0_699_383)">
<path d="M54.2077 27.1656C74.2344 20.0131 97.316 32.7179 107.665 55.7925C110.519 56.0495 113.302 56.8214 115.881 58.0709L115.841 57.9595C105.071 27.8041 76.2349 10.5424 51.4342 19.4C26.6336 28.2575 15.257 59.8811 26.027 90.0365C26.1322 90.3309 26.2345 90.6173 26.3396 90.9117C27.4484 88.1872 29.0557 85.6933 31.0788 83.5581C24.2792 59.0183 34.0856 34.3522 54.2077 27.1656Z" fill="#454444"/>
<path d="M25.9841 107.772C28.0943 113.68 32.4653 118.508 38.1355 121.194C43.8057 123.88 50.3106 124.203 56.2192 122.093L40.3057 77.5364C34.3971 79.6467 29.5688 84.0177 26.883 89.6879C24.1972 95.3581 23.8738 101.863 25.9841 107.772Z" fill="#EFDC70"/>
<path d="M58.9447 121.111L43.0312 76.5537C44.4831 76.0352 46.0814 76.1146 47.4747 76.7746C48.8679 77.4345 49.9419 78.6209 50.4605 80.0727L62.4552 113.657C62.7158 114.377 62.8317 115.141 62.7962 115.906C62.7607 116.671 62.5745 117.421 62.2483 118.113C61.9221 118.806 61.4624 119.427 60.8955 119.941C60.3285 120.456 59.6656 120.853 58.9447 121.111Z" fill="#C6AF3E"/>
<path d="M43.0378 76.5771L40.3008 77.5547L56.2057 122.088L58.9428 121.11L43.0378 76.5771Z" fill="#454444"/>
<path d="M127.845 71.392C129.955 77.3006 129.631 83.8055 126.946 89.4757C124.26 95.1458 119.431 99.5169 113.523 101.627L97.6094 57.0703C103.518 54.9601 110.023 55.2834 115.693 57.9692C121.363 60.6551 125.734 65.4834 127.845 71.392Z" fill="#EFDC70"/>
<path d="M110.789 102.593C109.337 103.112 107.739 103.033 106.346 102.373C104.953 101.713 103.879 100.526 103.36 99.0744L91.3652 65.4897C90.8467 64.0379 90.9262 62.4396 91.5861 61.0463C92.2461 59.6531 93.4325 58.5791 94.8843 58.0605L110.789 102.593Z" fill="#C6AF3E"/>
<path d="M97.6199 57.083L94.8828 58.0605L110.788 102.593L113.525 101.616L97.6199 57.083Z" fill="#454444"/>
<path d="M54.2077 27.1656C74.2344 20.0131 97.316 32.7179 107.665 55.7925C110.519 56.0495 113.302 56.8214 115.881 58.0709L115.841 57.9595C105.071 27.8041 76.2349 10.5424 51.4342 19.4C26.6336 28.2575 15.257 59.8811 26.027 90.0365C26.1322 90.3309 26.2345 90.6173 26.3396 90.9117C27.4484 88.1872 29.0557 85.6933 31.0788 83.5581C24.2792 59.0183 34.0856 34.3522 54.2077 27.1656Z" stroke="#1D1D1B" stroke-width="2" stroke-miterlimit="10"/>
<path d="M127.845 71.392C129.955 77.3006 129.631 83.8055 126.946 89.4757C124.26 95.1458 119.431 99.5169 113.523 101.627L97.6094 57.0703C103.518 54.9601 110.023 55.2834 115.693 57.9692C121.363 60.6551 125.734 65.4834 127.845 71.392V71.392Z" stroke="#1D1D1B" stroke-width="2" stroke-miterlimit="10"/>
<path d="M110.789 102.593C109.337 103.112 107.739 103.033 106.346 102.373C104.953 101.713 103.879 100.526 103.36 99.0744L91.3652 65.4897C90.8467 64.0379 90.9262 62.4396 91.5861 61.0463C92.2461 59.6531 93.4325 58.5791 94.8843 58.0605V58.0605L110.789 102.593Z" stroke="#1D1D1B" stroke-width="2" stroke-miterlimit="10"/>
<path d="M97.6199 57.083L94.8828 58.0605L110.788 102.593L113.525 101.616L97.6199 57.083Z" stroke="#1D1D1B" stroke-width="2" stroke-miterlimit="10"/>
<path d="M26.1911 107.697C28.3014 113.606 32.6724 118.434 38.3426 121.12C44.0127 123.806 50.5176 124.129 56.4262 122.019L40.5128 77.4622C34.6042 79.5725 29.7759 83.9435 27.09 89.6137C24.4042 95.2838 24.0809 101.789 26.1911 107.697V107.697Z" stroke="#1D1D1B" stroke-width="2" stroke-miterlimit="10"/>
<path d="M59.1517 121.036L43.2383 76.4795C44.6901 75.961 46.2885 76.0404 47.6817 76.7004C49.0749 77.3603 50.149 78.5467 50.6675 79.9985L62.6623 113.583C62.9229 114.303 63.0387 115.067 63.0032 115.832C62.9677 116.596 62.7815 117.347 62.4554 118.039C62.1292 118.732 61.6694 119.353 61.1025 119.867C60.5356 120.382 59.8726 120.779 59.1517 121.036Z" stroke="#1D1D1B" stroke-width="2" stroke-miterlimit="10"/>
<path d="M43.2449 76.5029L40.5078 77.4805L56.4128 122.013L59.1498 121.036L43.2449 76.5029Z" stroke="#1D1D1B" stroke-width="2" stroke-miterlimit="10"/>
</g>
<g clip-path="url(#clip1_699_383)">
<path d="M231.627 26.7627H196.303C194.448 26.7627 192.669 27.4996 191.357 28.8114C190.046 30.1231 189.309 31.9023 189.309 33.7574V59.7833C189.308 60.4991 189.448 61.2082 189.721 61.8698C189.994 62.5315 190.395 63.1327 190.901 63.6393C191.407 64.1458 192.008 64.5477 192.669 64.8218C193.33 65.096 194.039 65.2371 194.755 65.2371H216.387C217.144 65.2368 217.87 64.9381 218.409 64.4057L229.614 53.3378C230.151 52.8063 230.876 52.5082 231.631 52.5082C232.387 52.5082 233.112 52.8063 233.649 53.3378L244.854 64.4057C245.392 64.9381 246.118 65.2368 246.875 65.2371H268.508C269.953 65.2351 271.338 64.6596 272.359 63.6371C273.38 62.6145 273.954 61.2284 273.954 59.7833V33.7574C273.954 31.9023 273.217 30.1231 271.905 28.8114C270.593 27.4996 268.814 26.7627 266.959 26.7627H231.627Z" fill="#F49540"/>
<path d="M261.949 59.6075H250.309C249.081 59.6065 247.902 59.1214 247.029 58.2574L238.143 49.4854C236.852 48.1678 235.178 47.2921 233.36 46.9835C232.042 46.7718 230.692 46.8742 229.421 47.2825C228.15 47.6907 226.993 48.3932 226.045 49.3329L217.052 58.2116C216.149 59.1062 214.929 59.6079 213.657 59.6075H202.086C200.292 59.6075 198.571 58.8946 197.302 57.6258C196.033 56.357 195.32 54.636 195.32 52.8416V38.0743C195.322 36.5664 195.923 35.121 196.99 34.0556C198.057 32.9901 199.503 32.3916 201.011 32.3916H263.024C264.532 32.3916 265.978 32.9901 267.045 34.0556C268.112 35.121 268.713 36.5664 268.715 38.0743V52.8416C268.715 54.636 268.002 56.357 266.733 57.6258C265.464 58.8946 263.743 59.6075 261.949 59.6075Z" fill="#C4C3C3"/>
<path opacity="0.3" d="M213.414 32.3916L198.105 57.8378C199.356 58.979 200.989 59.6103 202.682 59.6075H209.334L225.68 32.3916H213.414Z" fill="white"/>
<path opacity="0.3" d="M246.489 32.3916L237.023 48.1201C237.574 48.4651 238.086 48.8692 238.549 49.3252L244.804 55.5266L258.755 32.3916H246.489Z" fill="white"/>
<path d="M189.31 35.9766H177.281V52.5136H189.31V35.9766Z" fill="#454444"/>
<path d="M169.173 39.3105H177.281V49.1732H169.173C168.799 49.1732 168.44 49.0246 168.175 48.7599C167.91 48.4953 167.762 48.1364 167.762 47.7621V40.7217C167.762 40.5364 167.798 40.3529 167.869 40.1817C167.94 40.0105 168.044 39.8549 168.175 39.7239C168.306 39.5928 168.462 39.4889 168.633 39.418C168.804 39.347 168.988 39.3105 169.173 39.3105Z" fill="#454444"/>
<path d="M273.955 52.5137H285.984V35.9767H273.955V52.5137Z" fill="#454444"/>
<path d="M294.093 49.1807H285.984V39.318H294.093C294.464 39.32 294.82 39.4685 295.083 39.7313C295.346 39.994 295.494 40.3499 295.496 40.7215V47.7695C295.496 48.1425 295.348 48.5002 295.085 48.7647C294.822 49.0291 294.466 49.1786 294.093 49.1807Z" fill="#454444"/>
<path d="M231.627 26.7627H196.303C194.448 26.7627 192.669 27.4996 191.357 28.8114C190.046 30.1231 189.309 31.9023 189.309 33.7574V59.7833C189.308 60.4991 189.448 61.2082 189.721 61.8698C189.994 62.5315 190.395 63.1327 190.901 63.6393C191.407 64.1458 192.008 64.5477 192.669 64.8218C193.33 65.096 194.039 65.2371 194.755 65.2371H216.387C217.144 65.2368 217.87 64.9381 218.409 64.4057L229.614 53.3378C230.151 52.8063 230.876 52.5082 231.631 52.5082C232.387 52.5082 233.112 52.8063 233.649 53.3378L244.854 64.4057C245.392 64.9381 246.118 65.2368 246.875 65.2371H268.508C269.953 65.2351 271.338 64.6596 272.359 63.6371C273.38 62.6145 273.954 61.2284 273.954 59.7833V33.7574C273.954 31.9023 273.217 30.1231 271.905 28.8114C270.593 27.4996 268.814 26.7627 266.959 26.7627H231.627Z" stroke="#1D1D1B" stroke-width="2" stroke-miterlimit="10"/>
<path d="M261.949 59.6075H250.309C249.081 59.6065 247.902 59.1214 247.029 58.2574L238.143 49.4854C236.852 48.1678 235.178 47.2921 233.36 46.9835C232.042 46.7718 230.692 46.8742 229.421 47.2825C228.15 47.6907 226.993 48.3932 226.045 49.3329L217.052 58.2116C216.149 59.1062 214.929 59.6079 213.657 59.6075H202.086C200.292 59.6075 198.571 58.8946 197.302 57.6258C196.033 56.357 195.32 54.636 195.32 52.8416V38.0743C195.322 36.5664 195.923 35.121 196.99 34.0556C198.057 32.9901 199.503 32.3916 201.011 32.3916H263.024C264.532 32.3916 265.978 32.9901 267.045 34.0556C268.112 35.121 268.713 36.5664 268.715 38.0743V52.8416C268.715 54.636 268.002 56.357 266.733 57.6258C265.464 58.8946 263.743 59.6075 261.949 59.6075V59.6075Z" stroke="#1D1D1B" stroke-width="2" stroke-miterlimit="10"/>
<path d="M189.31 35.9766H177.281V52.5136H189.31V35.9766Z" stroke="#1D1D1B" stroke-width="2" stroke-miterlimit="10"/>
<path d="M169.173 39.3105H177.281V49.1732H169.173C168.799 49.1732 168.44 49.0246 168.175 48.7599C167.91 48.4953 167.762 48.1364 167.762 47.7621V40.7217C167.762 40.5364 167.798 40.3529 167.869 40.1817C167.94 40.0105 168.044 39.8549 168.175 39.7239C168.306 39.5928 168.462 39.4889 168.633 39.418C168.804 39.347 168.988 39.3105 169.173 39.3105V39.3105Z" stroke="#1D1D1B" stroke-width="2" stroke-miterlimit="10"/>
<path d="M273.955 52.5137H285.984V35.9767H273.955V52.5137Z" stroke="#1D1D1B" stroke-width="2" stroke-miterlimit="10"/>
<path d="M294.093 49.1807H285.984V39.318H294.093C294.464 39.32 294.82 39.4685 295.083 39.7313C295.346 39.994 295.494 40.3499 295.496 40.7215V47.7695C295.496 48.1425 295.348 48.5002 295.085 48.7647C294.822 49.0291 294.466 49.1786 294.093 49.1807Z" stroke="#1D1D1B" stroke-width="2" stroke-miterlimit="10"/>
<path opacity="0.3" d="M213.414 32.3916L198.105 57.8378C199.356 58.979 200.989 59.6103 202.682 59.6075H209.334L225.68 32.3916H213.414Z" stroke="#1D1D1B" stroke-width="2" stroke-miterlimit="10"/>
<path opacity="0.3" d="M246.489 32.3916L237.023 48.1201C237.574 48.4651 238.086 48.8692 238.549 49.3252L244.827 55.519L258.755 32.3916H246.489Z" stroke="#1D1D1B" stroke-width="2" stroke-miterlimit="10"/>
</g>
<defs>
<clipPath id="clip0_699_383">
<rect width="109.632" height="100" fill="white" transform="translate(0 36.874) rotate(-19.6542)"/>
</clipPath>
<clipPath id="clip1_699_383">
<rect width="129.268" height="40" fill="white" transform="translate(167 26)"/>
</clipPath>
</defs>
</svg>
