<svg width="185" height="200" viewBox="0 0 185 200" fill="none" xmlns="http://www.w3.org/2000/svg">
<path fill-rule="evenodd" clip-rule="evenodd" d="M4.91381 31.4224L129.497 0.273001C130.089 0.0928528 130.704 0.000868279 131.322 1.24243e-05C132.543 -0.00247471 133.737 0.368506 134.741 1.06323L181.25 32.069C181.736 32.3522 182.18 32.7002 182.572 33.1035C183.141 33.6668 183.592 34.3384 183.898 35.0786C184.204 35.8189 184.359 36.6128 184.353 37.4138V162.672C184.352 163.502 184.18 164.323 183.849 165.084C183.518 165.845 183.034 166.531 182.428 167.098V167.098C182.104 167.407 181.747 167.682 181.365 167.917L134.741 198.951C134.432 199.156 134.105 199.334 133.764 199.483H133.678L133.06 199.713H132.802H132.73H131.911H131.652H131.322C130.704 199.712 130.089 199.62 129.497 199.44L4.59772 168.506C3.28347 168.184 2.11564 167.429 1.28181 166.363C0.447979 165.298 -0.00345356 163.982 1.98953e-05 162.629V162.629V37.0977V36.5661V36.4368V36.3219V36.1925V36.0489V35.9339V35.819V35.704V35.6322V35.5173V35.4023L0.100595 35.1724V35.0719V35V34.9138V34.842V34.7558V34.6552V34.5402V34.4397V34.3535L0.172434 34.2673V34.1954V34.1092L1.4368 33.4052L1.52301 33.319L1.60922 33.2328L1.75289 33.046H1.8391V32.9742H1.91094L1.99715 32.8879L2.09772 32.8017L2.1983 32.7299H2.2845H2.37071H2.87358H2.95979H3.046L3.24715 32.615H3.36209H3.4483H3.54887H3.64945H3.75002H3.83623L4.31036 31.6092H4.43968H4.56899L4.95692 31.523L4.91381 31.4224ZM137.371 17.3851V38.5345L162.356 34.0374L137.371 17.3851ZM137.371 50.9052V149.109L172.227 155.359V44.6408L137.371 50.9052ZM137.371 161.466V182.615L162.356 165.963L137.356 161.466H137.371ZM125.259 186.193V159.296L62.4282 147.989L26.3937 161.451L125.259 186.164V186.193ZM125.259 146.925V53.0747L68.0173 63.3477V136.624L125.259 146.897V146.925ZM125.259 40.704V13.8075L26.3937 38.5201L62.4282 51.9828L125.259 40.704ZM3.1322 32.0833L3.33335 31.9684L3.1322 32.0833ZM55.8908 62.4282L12.1265 46.0776V153.922L55.8908 137.572V62.4282Z" fill="#231F20"/>
</svg>
