<svg width="1512" height="44" viewBox="0 0 1512 44" fill="none" xmlns="http://www.w3.org/2000/svg">
<rect width="1512" height="44" fill="#9AB297"/>
<path d="M19.2513 21.78C19.2513 20.9133 19.4113 20.0667 19.7313 19.24C20.0513 18.4 20.518 17.64 21.1313 16.96C21.7446 16.28 22.4913 15.74 23.3713 15.34C24.2513 14.9267 25.2513 14.72 26.3713 14.72C27.7046 14.72 28.858 15.0067 29.8313 15.58C30.818 16.1533 31.5513 16.9 32.0313 17.82L29.5113 19.58C29.298 19.0733 29.0113 18.68 28.6513 18.4C28.3046 18.12 27.918 17.9267 27.4913 17.82C27.078 17.7 26.678 17.64 26.2913 17.64C25.6646 17.64 25.118 17.7667 24.6513 18.02C24.1846 18.26 23.798 18.5867 23.4913 19C23.1846 19.4133 22.958 19.8733 22.8113 20.38C22.6646 20.8867 22.5913 21.3933 22.5913 21.9C22.5913 22.46 22.678 23 22.8513 23.52C23.0246 24.04 23.2713 24.5 23.5913 24.9C23.9246 25.3 24.3246 25.62 24.7913 25.86C25.258 26.0867 25.7713 26.2 26.3313 26.2C26.7313 26.2 27.138 26.1333 27.5513 26C27.9646 25.8667 28.3446 25.66 28.6913 25.38C29.0513 25.0867 29.3246 24.7067 29.5113 24.24L32.1913 25.82C31.9113 26.5133 31.4513 27.1067 30.8113 27.6C30.1713 28.0933 29.4446 28.4733 28.6313 28.74C27.8313 28.9933 27.038 29.12 26.2513 29.12C25.2246 29.12 24.278 28.9133 23.4113 28.5C22.558 28.0733 21.818 27.5133 21.1913 26.82C20.578 26.1133 20.098 25.3267 19.7513 24.46C19.418 23.58 19.2513 22.6867 19.2513 21.78ZM34.4408 29V14.8H37.7208V29H34.4408ZM43.0969 14.8L46.4369 25.16L49.7369 14.8H53.1969L48.0369 29H44.8169L39.6169 14.8H43.0969ZM55.1135 29V14.8H58.3935V29H55.1135ZM61.7096 29V14.8H64.9896V26.12H71.8696V29H61.7096ZM88.6708 26.12V29H78.6908V14.8H88.4908V17.68H81.9708V20.44H87.5708V23.1H81.9708V26.12H88.6708ZM93.3435 14.8L96.4235 19.7L99.5035 14.8H103.063L98.3635 22L102.903 29H99.3435L96.4235 24.3L93.5035 29H89.9235L94.4635 22L89.7635 14.8H93.3435ZM104.891 29V14.8H110.951C111.631 14.8 112.251 14.94 112.811 15.22C113.384 15.4867 113.878 15.8533 114.291 16.32C114.704 16.7733 115.024 17.2867 115.251 17.86C115.478 18.4333 115.591 19.02 115.591 19.62C115.591 20.4333 115.398 21.2067 115.011 21.94C114.638 22.6733 114.111 23.2733 113.431 23.74C112.764 24.1933 111.971 24.42 111.051 24.42H108.171V29H104.891ZM108.171 21.56H110.851C111.104 21.56 111.338 21.4867 111.551 21.34C111.764 21.1933 111.938 20.9733 112.071 20.68C112.204 20.3867 112.271 20.0267 112.271 19.6C112.271 19.16 112.191 18.8 112.031 18.52C111.884 18.2267 111.691 18.0133 111.451 17.88C111.224 17.7467 110.984 17.68 110.731 17.68H108.171V21.56ZM124.172 29.12C123.105 29.12 122.138 28.92 121.272 28.52C120.418 28.1067 119.678 27.56 119.052 26.88C118.438 26.1867 117.965 25.4133 117.632 24.56C117.298 23.6933 117.132 22.8 117.132 21.88C117.132 20.9333 117.305 20.0333 117.652 19.18C118.012 18.3267 118.505 17.5667 119.132 16.9C119.772 16.22 120.525 15.6867 121.392 15.3C122.258 14.9133 123.205 14.72 124.232 14.72C125.285 14.72 126.238 14.9267 127.092 15.34C127.958 15.74 128.698 16.2867 129.312 16.98C129.938 17.6733 130.418 18.4533 130.752 19.32C131.085 20.1733 131.252 21.0467 131.252 21.94C131.252 22.8867 131.078 23.7867 130.732 24.64C130.385 25.4933 129.892 26.26 129.252 26.94C128.612 27.6067 127.858 28.14 126.992 28.54C126.138 28.9267 125.198 29.12 124.172 29.12ZM120.472 21.92C120.472 22.4667 120.552 23 120.712 23.52C120.872 24.0267 121.105 24.48 121.412 24.88C121.732 25.28 122.125 25.6 122.592 25.84C123.058 26.08 123.592 26.2 124.192 26.2C124.818 26.2 125.365 26.08 125.832 25.84C126.298 25.5867 126.685 25.2533 126.992 24.84C127.298 24.4267 127.525 23.9667 127.672 23.46C127.832 22.94 127.912 22.4133 127.912 21.88C127.912 21.3333 127.832 20.8067 127.672 20.3C127.512 19.7933 127.272 19.34 126.952 18.94C126.632 18.5267 126.238 18.2067 125.772 17.98C125.305 17.7533 124.778 17.64 124.192 17.64C123.565 17.64 123.018 17.76 122.552 18C122.098 18.24 121.712 18.5667 121.392 18.98C121.085 19.38 120.852 19.84 120.692 20.36C120.545 20.8667 120.472 21.3867 120.472 21.92ZM139.015 29V14.8H142.295V29H139.015ZM156.431 17.68H152.111V29H148.831V17.68H144.491V14.8H156.431V17.68ZM167.153 18.96C167.113 18.8933 166.973 18.7933 166.733 18.66C166.493 18.5133 166.193 18.36 165.833 18.2C165.473 18.04 165.08 17.9 164.653 17.78C164.226 17.66 163.8 17.6 163.373 17.6C162.813 17.6 162.38 17.7 162.073 17.9C161.766 18.0867 161.613 18.38 161.613 18.78C161.613 19.1 161.726 19.3533 161.953 19.54C162.193 19.7267 162.533 19.8933 162.973 20.04C163.413 20.1733 163.953 20.3333 164.593 20.52C165.5 20.76 166.286 21.0533 166.953 21.4C167.62 21.7333 168.126 22.1667 168.473 22.7C168.833 23.2333 169.013 23.94 169.013 24.82C169.013 25.62 168.866 26.3 168.573 26.86C168.28 27.4067 167.88 27.8533 167.373 28.2C166.88 28.5333 166.313 28.78 165.673 28.94C165.033 29.0867 164.373 29.16 163.693 29.16C163 29.16 162.286 29.0933 161.553 28.96C160.833 28.8133 160.14 28.6133 159.473 28.36C158.806 28.0933 158.193 27.7733 157.633 27.4L159.073 24.54C159.126 24.6067 159.3 24.7333 159.593 24.92C159.886 25.0933 160.246 25.28 160.673 25.48C161.113 25.6667 161.6 25.8333 162.133 25.98C162.666 26.1267 163.206 26.2 163.753 26.2C164.34 26.2 164.773 26.1067 165.053 25.92C165.346 25.7333 165.493 25.4733 165.493 25.14C165.493 24.78 165.34 24.5 165.033 24.3C164.74 24.1 164.333 23.92 163.813 23.76C163.306 23.6 162.72 23.42 162.053 23.22C161.186 22.9533 160.466 22.6533 159.893 22.32C159.333 21.9867 158.913 21.58 158.633 21.1C158.366 20.62 158.233 20.02 158.233 19.3C158.233 18.3 158.466 17.46 158.933 16.78C159.413 16.0867 160.053 15.5667 160.853 15.22C161.653 14.86 162.526 14.68 163.473 14.68C164.14 14.68 164.78 14.76 165.393 14.92C166.02 15.08 166.6 15.28 167.133 15.52C167.68 15.76 168.166 16 168.593 16.24L167.153 18.96ZM176.146 29C176.146 28.3733 176.192 27.8133 176.286 27.32C176.392 26.8267 176.559 26.38 176.786 25.98C177.026 25.5667 177.339 25.1867 177.726 24.84C178.126 24.48 178.626 24.14 179.226 23.82C179.852 23.4867 180.372 23.2067 180.786 22.98C181.212 22.74 181.552 22.54 181.806 22.38C182.059 22.22 182.232 22.0667 182.326 21.92C182.432 21.76 182.486 21.5867 182.486 21.4C182.486 21.1467 182.426 20.9267 182.306 20.74C182.186 20.5533 182.012 20.4133 181.786 20.32C181.559 20.2133 181.279 20.16 180.946 20.16C180.679 20.16 180.426 20.1933 180.186 20.26C179.946 20.3267 179.712 20.4267 179.486 20.56C179.272 20.6933 179.066 20.8533 178.866 21.04C178.666 21.2133 178.466 21.4133 178.266 21.64L176.246 19.28C176.472 19.0533 176.759 18.8267 177.106 18.6C177.466 18.3733 177.872 18.1733 178.326 18C178.779 17.8133 179.272 17.6667 179.806 17.56C180.352 17.44 180.919 17.38 181.506 17.38C182.466 17.38 183.272 17.5267 183.926 17.82C184.592 18.1 185.099 18.5 185.446 19.02C185.792 19.54 185.966 20.1533 185.966 20.86C185.966 21.3133 185.892 21.7133 185.746 22.06C185.612 22.3933 185.432 22.6933 185.206 22.96C184.979 23.2267 184.719 23.4667 184.426 23.68C184.146 23.8933 183.866 24.0867 183.586 24.26C183.266 24.42 182.966 24.58 182.686 24.74C182.406 24.8867 182.146 25.0333 181.906 25.18C181.666 25.3133 181.439 25.46 181.226 25.62C181.026 25.7667 180.832 25.9333 180.646 26.12H186.186V29H176.146ZM199.007 23.14C199.007 24.3133 198.781 25.36 198.327 26.28C197.874 27.1867 197.254 27.9 196.467 28.42C195.681 28.94 194.787 29.2 193.787 29.2C192.801 29.2 191.907 28.94 191.107 28.42C190.321 27.9 189.701 27.1867 189.247 26.28C188.794 25.36 188.567 24.3133 188.567 23.14C188.567 21.9667 188.794 20.9267 189.247 20.02C189.701 19.1 190.321 18.38 191.107 17.86C191.907 17.3267 192.801 17.06 193.787 17.06C194.787 17.06 195.681 17.3267 196.467 17.86C197.254 18.38 197.874 19.1 198.327 20.02C198.781 20.9267 199.007 21.9667 199.007 23.14ZM195.787 23.14C195.787 22.5133 195.701 21.9667 195.527 21.5C195.354 21.0333 195.114 20.6667 194.807 20.4C194.514 20.1333 194.174 20 193.787 20C193.387 20 193.034 20.1333 192.727 20.4C192.421 20.6667 192.181 21.0333 192.007 21.5C191.847 21.9667 191.767 22.5133 191.767 23.14C191.767 23.7667 191.847 24.3133 192.007 24.78C192.181 25.2467 192.421 25.6133 192.727 25.88C193.034 26.1333 193.387 26.26 193.787 26.26C194.174 26.26 194.514 26.1333 194.807 25.88C195.114 25.6133 195.354 25.2467 195.527 24.78C195.701 24.3133 195.787 23.7667 195.787 23.14ZM201.232 29C201.232 28.3733 201.279 27.8133 201.372 27.32C201.479 26.8267 201.646 26.38 201.872 25.98C202.112 25.5667 202.426 25.1867 202.812 24.84C203.212 24.48 203.712 24.14 204.312 23.82C204.939 23.4867 205.459 23.2067 205.872 22.98C206.299 22.74 206.639 22.54 206.892 22.38C207.146 22.22 207.319 22.0667 207.412 21.92C207.519 21.76 207.572 21.5867 207.572 21.4C207.572 21.1467 207.512 20.9267 207.392 20.74C207.272 20.5533 207.099 20.4133 206.872 20.32C206.646 20.2133 206.366 20.16 206.032 20.16C205.766 20.16 205.512 20.1933 205.272 20.26C205.032 20.3267 204.799 20.4267 204.572 20.56C204.359 20.6933 204.152 20.8533 203.952 21.04C203.752 21.2133 203.552 21.4133 203.352 21.64L201.332 19.28C201.559 19.0533 201.846 18.8267 202.192 18.6C202.552 18.3733 202.959 18.1733 203.412 18C203.866 17.8133 204.359 17.6667 204.892 17.56C205.439 17.44 206.006 17.38 206.592 17.38C207.552 17.38 208.359 17.5267 209.012 17.82C209.679 18.1 210.186 18.5 210.532 19.02C210.879 19.54 211.052 20.1533 211.052 20.86C211.052 21.3133 210.979 21.7133 210.832 22.06C210.699 22.3933 210.519 22.6933 210.292 22.96C210.066 23.2267 209.806 23.4667 209.512 23.68C209.232 23.8933 208.952 24.0867 208.672 24.26C208.352 24.42 208.052 24.58 207.772 24.74C207.492 24.8867 207.232 25.0333 206.992 25.18C206.752 25.3133 206.526 25.46 206.312 25.62C206.112 25.7667 205.919 25.9333 205.732 26.12H211.272V29H201.232ZM213.434 29C213.434 28.3733 213.481 27.8133 213.574 27.32C213.681 26.8267 213.847 26.38 214.074 25.98C214.314 25.5667 214.627 25.1867 215.014 24.84C215.414 24.48 215.914 24.14 216.514 23.82C217.141 23.4867 217.661 23.2067 218.074 22.98C218.501 22.74 218.841 22.54 219.094 22.38C219.347 22.22 219.521 22.0667 219.614 21.92C219.721 21.76 219.774 21.5867 219.774 21.4C219.774 21.1467 219.714 20.9267 219.594 20.74C219.474 20.5533 219.301 20.4133 219.074 20.32C218.847 20.2133 218.567 20.16 218.234 20.16C217.967 20.16 217.714 20.1933 217.474 20.26C217.234 20.3267 217.001 20.4267 216.774 20.56C216.561 20.6933 216.354 20.8533 216.154 21.04C215.954 21.2133 215.754 21.4133 215.554 21.64L213.534 19.28C213.761 19.0533 214.047 18.8267 214.394 18.6C214.754 18.3733 215.161 18.1733 215.614 18C216.067 17.8133 216.561 17.6667 217.094 17.56C217.641 17.44 218.207 17.38 218.794 17.38C219.754 17.38 220.561 17.5267 221.214 17.82C221.881 18.1 222.387 18.5 222.734 19.02C223.081 19.54 223.254 20.1533 223.254 20.86C223.254 21.3133 223.181 21.7133 223.034 22.06C222.901 22.3933 222.721 22.6933 222.494 22.96C222.267 23.2267 222.007 23.4667 221.714 23.68C221.434 23.8933 221.154 24.0867 220.874 24.26C220.554 24.42 220.254 24.58 219.974 24.74C219.694 24.8867 219.434 25.0333 219.194 25.18C218.954 25.3133 218.727 25.46 218.514 25.62C218.314 25.7667 218.121 25.9333 217.934 26.12H223.474V29H213.434ZM230.743 21.78C230.743 20.9133 230.903 20.0667 231.223 19.24C231.543 18.4 232.01 17.64 232.623 16.96C233.237 16.28 233.983 15.74 234.863 15.34C235.743 14.9267 236.743 14.72 237.863 14.72C239.197 14.72 240.35 15.0067 241.323 15.58C242.31 16.1533 243.043 16.9 243.523 17.82L241.003 19.58C240.79 19.0733 240.503 18.68 240.143 18.4C239.797 18.12 239.41 17.9267 238.983 17.82C238.57 17.7 238.17 17.64 237.783 17.64C237.157 17.64 236.61 17.7667 236.143 18.02C235.677 18.26 235.29 18.5867 234.983 19C234.677 19.4133 234.45 19.8733 234.303 20.38C234.157 20.8867 234.083 21.3933 234.083 21.9C234.083 22.46 234.17 23 234.343 23.52C234.517 24.04 234.763 24.5 235.083 24.9C235.417 25.3 235.817 25.62 236.283 25.86C236.75 26.0867 237.263 26.2 237.823 26.2C238.223 26.2 238.63 26.1333 239.043 26C239.457 25.8667 239.837 25.66 240.183 25.38C240.543 25.0867 240.817 24.7067 241.003 24.24L243.683 25.82C243.403 26.5133 242.943 27.1067 242.303 27.6C241.663 28.0933 240.937 28.4733 240.123 28.74C239.323 28.9933 238.53 29.12 237.743 29.12C236.717 29.12 235.77 28.9133 234.903 28.5C234.05 28.0733 233.31 27.5133 232.683 26.82C232.07 26.1133 231.59 25.3267 231.243 24.46C230.91 23.58 230.743 22.6867 230.743 21.78ZM245.933 29V14.8H249.213V29H245.933ZM254.589 14.8L257.929 25.16L261.229 14.8H264.689L259.529 29H256.309L251.109 14.8H254.589ZM266.606 29V14.8H269.886V29H266.606ZM273.202 29V14.8H276.482V26.12H283.362V29H273.202ZM300.163 26.12V29H290.183V14.8H299.983V17.68H293.463V20.44H299.063V23.1H293.463V26.12H300.163ZM304.836 14.8L307.916 19.7L310.996 14.8H314.556L309.856 22L314.396 29H310.836L307.916 24.3L304.996 29H301.416L305.956 22L301.256 14.8H304.836ZM316.383 29V14.8H322.443C323.123 14.8 323.743 14.94 324.303 15.22C324.876 15.4867 325.37 15.8533 325.783 16.32C326.196 16.7733 326.516 17.2867 326.743 17.86C326.97 18.4333 327.083 19.02 327.083 19.62C327.083 20.4333 326.89 21.2067 326.503 21.94C326.13 22.6733 325.603 23.2733 324.923 23.74C324.256 24.1933 323.463 24.42 322.543 24.42H319.663V29H316.383ZM319.663 21.56H322.343C322.596 21.56 322.83 21.4867 323.043 21.34C323.256 21.1933 323.43 20.9733 323.563 20.68C323.696 20.3867 323.763 20.0267 323.763 19.6C323.763 19.16 323.683 18.8 323.523 18.52C323.376 18.2267 323.183 18.0133 322.943 17.88C322.716 17.7467 322.476 17.68 322.223 17.68H319.663V21.56ZM335.664 29.12C334.597 29.12 333.631 28.92 332.764 28.52C331.911 28.1067 331.171 27.56 330.544 26.88C329.931 26.1867 329.457 25.4133 329.124 24.56C328.791 23.6933 328.624 22.8 328.624 21.88C328.624 20.9333 328.797 20.0333 329.144 19.18C329.504 18.3267 329.997 17.5667 330.624 16.9C331.264 16.22 332.017 15.6867 332.884 15.3C333.751 14.9133 334.697 14.72 335.724 14.72C336.777 14.72 337.731 14.9267 338.584 15.34C339.451 15.74 340.191 16.2867 340.804 16.98C341.431 17.6733 341.911 18.4533 342.244 19.32C342.577 20.1733 342.744 21.0467 342.744 21.94C342.744 22.8867 342.571 23.7867 342.224 24.64C341.877 25.4933 341.384 26.26 340.744 26.94C340.104 27.6067 339.351 28.14 338.484 28.54C337.631 28.9267 336.691 29.12 335.664 29.12ZM331.964 21.92C331.964 22.4667 332.044 23 332.204 23.52C332.364 24.0267 332.597 24.48 332.904 24.88C333.224 25.28 333.617 25.6 334.084 25.84C334.551 26.08 335.084 26.2 335.684 26.2C336.311 26.2 336.857 26.08 337.324 25.84C337.791 25.5867 338.177 25.2533 338.484 24.84C338.791 24.4267 339.017 23.9667 339.164 23.46C339.324 22.94 339.404 22.4133 339.404 21.88C339.404 21.3333 339.324 20.8067 339.164 20.3C339.004 19.7933 338.764 19.34 338.444 18.94C338.124 18.5267 337.731 18.2067 337.264 17.98C336.797 17.7533 336.271 17.64 335.684 17.64C335.057 17.64 334.511 17.76 334.044 18C333.591 18.24 333.204 18.5667 332.884 18.98C332.577 19.38 332.344 19.84 332.184 20.36C332.037 20.8667 331.964 21.3867 331.964 21.92ZM350.507 29V14.8H353.787V29H350.507ZM367.923 17.68H363.603V29H360.323V17.68H355.983V14.8H367.923V17.68ZM378.645 18.96C378.605 18.8933 378.465 18.7933 378.225 18.66C377.985 18.5133 377.685 18.36 377.325 18.2C376.965 18.04 376.572 17.9 376.145 17.78C375.719 17.66 375.292 17.6 374.865 17.6C374.305 17.6 373.872 17.7 373.565 17.9C373.259 18.0867 373.105 18.38 373.105 18.78C373.105 19.1 373.219 19.3533 373.445 19.54C373.685 19.7267 374.025 19.8933 374.465 20.04C374.905 20.1733 375.445 20.3333 376.085 20.52C376.992 20.76 377.779 21.0533 378.445 21.4C379.112 21.7333 379.619 22.1667 379.965 22.7C380.325 23.2333 380.505 23.94 380.505 24.82C380.505 25.62 380.359 26.3 380.065 26.86C379.772 27.4067 379.372 27.8533 378.865 28.2C378.372 28.5333 377.805 28.78 377.165 28.94C376.525 29.0867 375.865 29.16 375.185 29.16C374.492 29.16 373.779 29.0933 373.045 28.96C372.325 28.8133 371.632 28.6133 370.965 28.36C370.299 28.0933 369.685 27.7733 369.125 27.4L370.565 24.54C370.619 24.6067 370.792 24.7333 371.085 24.92C371.379 25.0933 371.739 25.28 372.165 25.48C372.605 25.6667 373.092 25.8333 373.625 25.98C374.159 26.1267 374.699 26.2 375.245 26.2C375.832 26.2 376.265 26.1067 376.545 25.92C376.839 25.7333 376.985 25.4733 376.985 25.14C376.985 24.78 376.832 24.5 376.525 24.3C376.232 24.1 375.825 23.92 375.305 23.76C374.799 23.6 374.212 23.42 373.545 23.22C372.679 22.9533 371.959 22.6533 371.385 22.32C370.825 21.9867 370.405 21.58 370.125 21.1C369.859 20.62 369.725 20.02 369.725 19.3C369.725 18.3 369.959 17.46 370.425 16.78C370.905 16.0867 371.545 15.5667 372.345 15.22C373.145 14.86 374.019 14.68 374.965 14.68C375.632 14.68 376.272 14.76 376.885 14.92C377.512 15.08 378.092 15.28 378.625 15.52C379.172 15.76 379.659 16 380.085 16.24L378.645 18.96ZM387.638 29C387.638 28.3733 387.685 27.8133 387.778 27.32C387.885 26.8267 388.051 26.38 388.278 25.98C388.518 25.5667 388.831 25.1867 389.218 24.84C389.618 24.48 390.118 24.14 390.718 23.82C391.345 23.4867 391.865 23.2067 392.278 22.98C392.705 22.74 393.045 22.54 393.298 22.38C393.551 22.22 393.725 22.0667 393.818 21.92C393.925 21.76 393.978 21.5867 393.978 21.4C393.978 21.1467 393.918 20.9267 393.798 20.74C393.678 20.5533 393.505 20.4133 393.278 20.32C393.051 20.2133 392.771 20.16 392.438 20.16C392.171 20.16 391.918 20.1933 391.678 20.26C391.438 20.3267 391.205 20.4267 390.978 20.56C390.765 20.6933 390.558 20.8533 390.358 21.04C390.158 21.2133 389.958 21.4133 389.758 21.64L387.738 19.28C387.965 19.0533 388.251 18.8267 388.598 18.6C388.958 18.3733 389.365 18.1733 389.818 18C390.271 17.8133 390.765 17.6667 391.298 17.56C391.845 17.44 392.411 17.38 392.998 17.38C393.958 17.38 394.765 17.5267 395.418 17.82C396.085 18.1 396.591 18.5 396.938 19.02C397.285 19.54 397.458 20.1533 397.458 20.86C397.458 21.3133 397.385 21.7133 397.238 22.06C397.105 22.3933 396.925 22.6933 396.698 22.96C396.471 23.2267 396.211 23.4667 395.918 23.68C395.638 23.8933 395.358 24.0867 395.078 24.26C394.758 24.42 394.458 24.58 394.178 24.74C393.898 24.8867 393.638 25.0333 393.398 25.18C393.158 25.3133 392.931 25.46 392.718 25.62C392.518 25.7667 392.325 25.9333 392.138 26.12H397.678V29H387.638ZM410.499 23.14C410.499 24.3133 410.273 25.36 409.819 26.28C409.366 27.1867 408.746 27.9 407.959 28.42C407.173 28.94 406.279 29.2 405.279 29.2C404.293 29.2 403.399 28.94 402.599 28.42C401.813 27.9 401.193 27.1867 400.739 26.28C400.286 25.36 400.059 24.3133 400.059 23.14C400.059 21.9667 400.286 20.9267 400.739 20.02C401.193 19.1 401.813 18.38 402.599 17.86C403.399 17.3267 404.293 17.06 405.279 17.06C406.279 17.06 407.173 17.3267 407.959 17.86C408.746 18.38 409.366 19.1 409.819 20.02C410.273 20.9267 410.499 21.9667 410.499 23.14ZM407.279 23.14C407.279 22.5133 407.193 21.9667 407.019 21.5C406.846 21.0333 406.606 20.6667 406.299 20.4C406.006 20.1333 405.666 20 405.279 20C404.879 20 404.526 20.1333 404.219 20.4C403.913 20.6667 403.673 21.0333 403.499 21.5C403.339 21.9667 403.259 22.5133 403.259 23.14C403.259 23.7667 403.339 24.3133 403.499 24.78C403.673 25.2467 403.913 25.6133 404.219 25.88C404.526 26.1333 404.879 26.26 405.279 26.26C405.666 26.26 406.006 26.1333 406.299 25.88C406.606 25.6133 406.846 25.2467 407.019 24.78C407.193 24.3133 407.279 23.7667 407.279 23.14ZM412.725 29C412.725 28.3733 412.771 27.8133 412.865 27.32C412.971 26.8267 413.138 26.38 413.365 25.98C413.605 25.5667 413.918 25.1867 414.305 24.84C414.705 24.48 415.205 24.14 415.805 23.82C416.431 23.4867 416.951 23.2067 417.365 22.98C417.791 22.74 418.131 22.54 418.385 22.38C418.638 22.22 418.811 22.0667 418.905 21.92C419.011 21.76 419.065 21.5867 419.065 21.4C419.065 21.1467 419.005 20.9267 418.885 20.74C418.765 20.5533 418.591 20.4133 418.365 20.32C418.138 20.2133 417.858 20.16 417.525 20.16C417.258 20.16 417.005 20.1933 416.765 20.26C416.525 20.3267 416.291 20.4267 416.065 20.56C415.851 20.6933 415.645 20.8533 415.445 21.04C415.245 21.2133 415.045 21.4133 414.845 21.64L412.825 19.28C413.051 19.0533 413.338 18.8267 413.685 18.6C414.045 18.3733 414.451 18.1733 414.905 18C415.358 17.8133 415.851 17.6667 416.385 17.56C416.931 17.44 417.498 17.38 418.085 17.38C419.045 17.38 419.851 17.5267 420.505 17.82C421.171 18.1 421.678 18.5 422.025 19.02C422.371 19.54 422.545 20.1533 422.545 20.86C422.545 21.3133 422.471 21.7133 422.325 22.06C422.191 22.3933 422.011 22.6933 421.785 22.96C421.558 23.2267 421.298 23.4667 421.005 23.68C420.725 23.8933 420.445 24.0867 420.165 24.26C419.845 24.42 419.545 24.58 419.265 24.74C418.985 24.8867 418.725 25.0333 418.485 25.18C418.245 25.3133 418.018 25.46 417.805 25.62C417.605 25.7667 417.411 25.9333 417.225 26.12H422.765V29H412.725ZM424.926 29C424.926 28.3733 424.973 27.8133 425.066 27.32C425.173 26.8267 425.339 26.38 425.566 25.98C425.806 25.5667 426.119 25.1867 426.506 24.84C426.906 24.48 427.406 24.14 428.006 23.82C428.633 23.4867 429.153 23.2067 429.566 22.98C429.993 22.74 430.333 22.54 430.586 22.38C430.839 22.22 431.013 22.0667 431.106 21.92C431.213 21.76 431.266 21.5867 431.266 21.4C431.266 21.1467 431.206 20.9267 431.086 20.74C430.966 20.5533 430.793 20.4133 430.566 20.32C430.339 20.2133 430.059 20.16 429.726 20.16C429.459 20.16 429.206 20.1933 428.966 20.26C428.726 20.3267 428.493 20.4267 428.266 20.56C428.053 20.6933 427.846 20.8533 427.646 21.04C427.446 21.2133 427.246 21.4133 427.046 21.64L425.026 19.28C425.253 19.0533 425.539 18.8267 425.886 18.6C426.246 18.3733 426.653 18.1733 427.106 18C427.559 17.8133 428.053 17.6667 428.586 17.56C429.133 17.44 429.699 17.38 430.286 17.38C431.246 17.38 432.053 17.5267 432.706 17.82C433.373 18.1 433.879 18.5 434.226 19.02C434.573 19.54 434.746 20.1533 434.746 20.86C434.746 21.3133 434.673 21.7133 434.526 22.06C434.393 22.3933 434.213 22.6933 433.986 22.96C433.759 23.2267 433.499 23.4667 433.206 23.68C432.926 23.8933 432.646 24.0867 432.366 24.26C432.046 24.42 431.746 24.58 431.466 24.74C431.186 24.8867 430.926 25.0333 430.686 25.18C430.446 25.3133 430.219 25.46 430.006 25.62C429.806 25.7667 429.613 25.9333 429.426 26.12H434.966V29H424.926ZM442.236 21.78C442.236 20.9133 442.396 20.0667 442.716 19.24C443.036 18.4 443.502 17.64 444.116 16.96C444.729 16.28 445.476 15.74 446.356 15.34C447.236 14.9267 448.236 14.72 449.356 14.72C450.689 14.72 451.842 15.0067 452.816 15.58C453.802 16.1533 454.536 16.9 455.016 17.82L452.496 19.58C452.282 19.0733 451.996 18.68 451.636 18.4C451.289 18.12 450.902 17.9267 450.476 17.82C450.062 17.7 449.662 17.64 449.276 17.64C448.649 17.64 448.102 17.7667 447.636 18.02C447.169 18.26 446.782 18.5867 446.476 19C446.169 19.4133 445.942 19.8733 445.796 20.38C445.649 20.8867 445.576 21.3933 445.576 21.9C445.576 22.46 445.662 23 445.836 23.52C446.009 24.04 446.256 24.5 446.576 24.9C446.909 25.3 447.309 25.62 447.776 25.86C448.242 26.0867 448.756 26.2 449.316 26.2C449.716 26.2 450.122 26.1333 450.536 26C450.949 25.8667 451.329 25.66 451.676 25.38C452.036 25.0867 452.309 24.7067 452.496 24.24L455.176 25.82C454.896 26.5133 454.436 27.1067 453.796 27.6C453.156 28.0933 452.429 28.4733 451.616 28.74C450.816 28.9933 450.022 29.12 449.236 29.12C448.209 29.12 447.262 28.9133 446.396 28.5C445.542 28.0733 444.802 27.5133 444.176 26.82C443.562 26.1133 443.082 25.3267 442.736 24.46C442.402 23.58 442.236 22.6867 442.236 21.78ZM457.425 29V14.8H460.705V29H457.425ZM466.081 14.8L469.421 25.16L472.721 14.8H476.181L471.021 29H467.801L462.601 14.8H466.081ZM478.098 29V14.8H481.378V29H478.098ZM484.694 29V14.8H487.974V26.12H494.854V29H484.694ZM511.655 26.12V29H501.675V14.8H511.475V17.68H504.955V20.44H510.555V23.1H504.955V26.12H511.655ZM516.328 14.8L519.408 19.7L522.488 14.8H526.048L521.348 22L525.888 29H522.328L519.408 24.3L516.488 29H512.908L517.448 22L512.748 14.8H516.328ZM527.875 29V14.8H533.935C534.615 14.8 535.235 14.94 535.795 15.22C536.369 15.4867 536.862 15.8533 537.275 16.32C537.689 16.7733 538.009 17.2867 538.235 17.86C538.462 18.4333 538.575 19.02 538.575 19.62C538.575 20.4333 538.382 21.2067 537.995 21.94C537.622 22.6733 537.095 23.2733 536.415 23.74C535.749 24.1933 534.955 24.42 534.035 24.42H531.155V29H527.875ZM531.155 21.56H533.835C534.089 21.56 534.322 21.4867 534.535 21.34C534.749 21.1933 534.922 20.9733 535.055 20.68C535.189 20.3867 535.255 20.0267 535.255 19.6C535.255 19.16 535.175 18.8 535.015 18.52C534.869 18.2267 534.675 18.0133 534.435 17.88C534.209 17.7467 533.969 17.68 533.715 17.68H531.155V21.56ZM547.156 29.12C546.09 29.12 545.123 28.92 544.256 28.52C543.403 28.1067 542.663 27.56 542.036 26.88C541.423 26.1867 540.95 25.4133 540.616 24.56C540.283 23.6933 540.116 22.8 540.116 21.88C540.116 20.9333 540.29 20.0333 540.636 19.18C540.996 18.3267 541.49 17.5667 542.116 16.9C542.756 16.22 543.51 15.6867 544.376 15.3C545.243 14.9133 546.19 14.72 547.216 14.72C548.27 14.72 549.223 14.9267 550.076 15.34C550.943 15.74 551.683 16.2867 552.296 16.98C552.923 17.6733 553.403 18.4533 553.736 19.32C554.07 20.1733 554.236 21.0467 554.236 21.94C554.236 22.8867 554.063 23.7867 553.716 24.64C553.37 25.4933 552.876 26.26 552.236 26.94C551.596 27.6067 550.843 28.14 549.976 28.54C549.123 28.9267 548.183 29.12 547.156 29.12ZM543.456 21.92C543.456 22.4667 543.536 23 543.696 23.52C543.856 24.0267 544.09 24.48 544.396 24.88C544.716 25.28 545.11 25.6 545.576 25.84C546.043 26.08 546.576 26.2 547.176 26.2C547.803 26.2 548.35 26.08 548.816 25.84C549.283 25.5867 549.67 25.2533 549.976 24.84C550.283 24.4267 550.51 23.9667 550.656 23.46C550.816 22.94 550.896 22.4133 550.896 21.88C550.896 21.3333 550.816 20.8067 550.656 20.3C550.496 19.7933 550.256 19.34 549.936 18.94C549.616 18.5267 549.223 18.2067 548.756 17.98C548.29 17.7533 547.763 17.64 547.176 17.64C546.55 17.64 546.003 17.76 545.536 18C545.083 18.24 544.696 18.5667 544.376 18.98C544.07 19.38 543.836 19.84 543.676 20.36C543.53 20.8667 543.456 21.3867 543.456 21.92ZM561.999 29V14.8H565.279V29H561.999ZM579.416 17.68H575.096V29H571.816V17.68H567.476V14.8H579.416V17.68ZM590.137 18.96C590.097 18.8933 589.957 18.7933 589.717 18.66C589.477 18.5133 589.177 18.36 588.817 18.2C588.457 18.04 588.064 17.9 587.637 17.78C587.211 17.66 586.784 17.6 586.357 17.6C585.797 17.6 585.364 17.7 585.057 17.9C584.751 18.0867 584.597 18.38 584.597 18.78C584.597 19.1 584.711 19.3533 584.937 19.54C585.177 19.7267 585.517 19.8933 585.957 20.04C586.397 20.1733 586.937 20.3333 587.577 20.52C588.484 20.76 589.271 21.0533 589.937 21.4C590.604 21.7333 591.111 22.1667 591.457 22.7C591.817 23.2333 591.997 23.94 591.997 24.82C591.997 25.62 591.851 26.3 591.557 26.86C591.264 27.4067 590.864 27.8533 590.357 28.2C589.864 28.5333 589.297 28.78 588.657 28.94C588.017 29.0867 587.357 29.16 586.677 29.16C585.984 29.16 585.271 29.0933 584.537 28.96C583.817 28.8133 583.124 28.6133 582.457 28.36C581.791 28.0933 581.177 27.7733 580.617 27.4L582.057 24.54C582.111 24.6067 582.284 24.7333 582.577 24.92C582.871 25.0933 583.231 25.28 583.657 25.48C584.097 25.6667 584.584 25.8333 585.117 25.98C585.651 26.1267 586.191 26.2 586.737 26.2C587.324 26.2 587.757 26.1067 588.037 25.92C588.331 25.7333 588.477 25.4733 588.477 25.14C588.477 24.78 588.324 24.5 588.017 24.3C587.724 24.1 587.317 23.92 586.797 23.76C586.291 23.6 585.704 23.42 585.037 23.22C584.171 22.9533 583.451 22.6533 582.877 22.32C582.317 21.9867 581.897 21.58 581.617 21.1C581.351 20.62 581.217 20.02 581.217 19.3C581.217 18.3 581.451 17.46 581.917 16.78C582.397 16.0867 583.037 15.5667 583.837 15.22C584.637 14.86 585.511 14.68 586.457 14.68C587.124 14.68 587.764 14.76 588.377 14.92C589.004 15.08 589.584 15.28 590.117 15.52C590.664 15.76 591.151 16 591.577 16.24L590.137 18.96ZM599.13 29C599.13 28.3733 599.177 27.8133 599.27 27.32C599.377 26.8267 599.543 26.38 599.77 25.98C600.01 25.5667 600.323 25.1867 600.71 24.84C601.11 24.48 601.61 24.14 602.21 23.82C602.837 23.4867 603.357 23.2067 603.77 22.98C604.197 22.74 604.537 22.54 604.79 22.38C605.043 22.22 605.217 22.0667 605.31 21.92C605.417 21.76 605.47 21.5867 605.47 21.4C605.47 21.1467 605.41 20.9267 605.29 20.74C605.17 20.5533 604.997 20.4133 604.77 20.32C604.543 20.2133 604.263 20.16 603.93 20.16C603.663 20.16 603.41 20.1933 603.17 20.26C602.93 20.3267 602.697 20.4267 602.47 20.56C602.257 20.6933 602.05 20.8533 601.85 21.04C601.65 21.2133 601.45 21.4133 601.25 21.64L599.23 19.28C599.457 19.0533 599.743 18.8267 600.09 18.6C600.45 18.3733 600.857 18.1733 601.31 18C601.763 17.8133 602.257 17.6667 602.79 17.56C603.337 17.44 603.903 17.38 604.49 17.38C605.45 17.38 606.257 17.5267 606.91 17.82C607.577 18.1 608.083 18.5 608.43 19.02C608.777 19.54 608.95 20.1533 608.95 20.86C608.95 21.3133 608.877 21.7133 608.73 22.06C608.597 22.3933 608.417 22.6933 608.19 22.96C607.963 23.2267 607.703 23.4667 607.41 23.68C607.13 23.8933 606.85 24.0867 606.57 24.26C606.25 24.42 605.95 24.58 605.67 24.74C605.39 24.8867 605.13 25.0333 604.89 25.18C604.65 25.3133 604.423 25.46 604.21 25.62C604.01 25.7667 603.817 25.9333 603.63 26.12H609.17V29H599.13ZM621.992 23.14C621.992 24.3133 621.765 25.36 621.312 26.28C620.858 27.1867 620.238 27.9 619.452 28.42C618.665 28.94 617.772 29.2 616.772 29.2C615.785 29.2 614.892 28.94 614.092 28.42C613.305 27.9 612.685 27.1867 612.232 26.28C611.778 25.36 611.552 24.3133 611.552 23.14C611.552 21.9667 611.778 20.9267 612.232 20.02C612.685 19.1 613.305 18.38 614.092 17.86C614.892 17.3267 615.785 17.06 616.772 17.06C617.772 17.06 618.665 17.3267 619.452 17.86C620.238 18.38 620.858 19.1 621.312 20.02C621.765 20.9267 621.992 21.9667 621.992 23.14ZM618.772 23.14C618.772 22.5133 618.685 21.9667 618.512 21.5C618.338 21.0333 618.098 20.6667 617.792 20.4C617.498 20.1333 617.158 20 616.772 20C616.372 20 616.018 20.1333 615.712 20.4C615.405 20.6667 615.165 21.0333 614.992 21.5C614.832 21.9667 614.752 22.5133 614.752 23.14C614.752 23.7667 614.832 24.3133 614.992 24.78C615.165 25.2467 615.405 25.6133 615.712 25.88C616.018 26.1333 616.372 26.26 616.772 26.26C617.158 26.26 617.498 26.1333 617.792 25.88C618.098 25.6133 618.338 25.2467 618.512 24.78C618.685 24.3133 618.772 23.7667 618.772 23.14ZM624.217 29C624.217 28.3733 624.263 27.8133 624.357 27.32C624.463 26.8267 624.63 26.38 624.857 25.98C625.097 25.5667 625.41 25.1867 625.797 24.84C626.197 24.48 626.697 24.14 627.297 23.82C627.923 23.4867 628.443 23.2067 628.857 22.98C629.283 22.74 629.623 22.54 629.877 22.38C630.13 22.22 630.303 22.0667 630.397 21.92C630.503 21.76 630.557 21.5867 630.557 21.4C630.557 21.1467 630.497 20.9267 630.377 20.74C630.257 20.5533 630.083 20.4133 629.857 20.32C629.63 20.2133 629.35 20.16 629.017 20.16C628.75 20.16 628.497 20.1933 628.257 20.26C628.017 20.3267 627.783 20.4267 627.557 20.56C627.343 20.6933 627.137 20.8533 626.937 21.04C626.737 21.2133 626.537 21.4133 626.337 21.64L624.317 19.28C624.543 19.0533 624.83 18.8267 625.177 18.6C625.537 18.3733 625.943 18.1733 626.397 18C626.85 17.8133 627.343 17.6667 627.877 17.56C628.423 17.44 628.99 17.38 629.577 17.38C630.537 17.38 631.343 17.5267 631.997 17.82C632.663 18.1 633.17 18.5 633.517 19.02C633.863 19.54 634.037 20.1533 634.037 20.86C634.037 21.3133 633.963 21.7133 633.817 22.06C633.683 22.3933 633.503 22.6933 633.277 22.96C633.05 23.2267 632.79 23.4667 632.497 23.68C632.217 23.8933 631.937 24.0867 631.657 24.26C631.337 24.42 631.037 24.58 630.757 24.74C630.477 24.8867 630.217 25.0333 629.977 25.18C629.737 25.3133 629.51 25.46 629.297 25.62C629.097 25.7667 628.903 25.9333 628.717 26.12H634.257V29H624.217ZM636.418 29C636.418 28.3733 636.465 27.8133 636.558 27.32C636.665 26.8267 636.832 26.38 637.058 25.98C637.298 25.5667 637.612 25.1867 637.998 24.84C638.398 24.48 638.898 24.14 639.498 23.82C640.125 23.4867 640.645 23.2067 641.058 22.98C641.485 22.74 641.825 22.54 642.078 22.38C642.332 22.22 642.505 22.0667 642.598 21.92C642.705 21.76 642.758 21.5867 642.758 21.4C642.758 21.1467 642.698 20.9267 642.578 20.74C642.458 20.5533 642.285 20.4133 642.058 20.32C641.832 20.2133 641.552 20.16 641.218 20.16C640.952 20.16 640.698 20.1933 640.458 20.26C640.218 20.3267 639.985 20.4267 639.758 20.56C639.545 20.6933 639.338 20.8533 639.138 21.04C638.938 21.2133 638.738 21.4133 638.538 21.64L636.518 19.28C636.745 19.0533 637.032 18.8267 637.378 18.6C637.738 18.3733 638.145 18.1733 638.598 18C639.052 17.8133 639.545 17.6667 640.078 17.56C640.625 17.44 641.192 17.38 641.778 17.38C642.738 17.38 643.545 17.5267 644.198 17.82C644.865 18.1 645.372 18.5 645.718 19.02C646.065 19.54 646.238 20.1533 646.238 20.86C646.238 21.3133 646.165 21.7133 646.018 22.06C645.885 22.3933 645.705 22.6933 645.478 22.96C645.252 23.2267 644.992 23.4667 644.698 23.68C644.418 23.8933 644.138 24.0867 643.858 24.26C643.538 24.42 643.238 24.58 642.958 24.74C642.678 24.8867 642.418 25.0333 642.178 25.18C641.938 25.3133 641.712 25.46 641.498 25.62C641.298 25.7667 641.105 25.9333 640.918 26.12H646.458V29H636.418ZM653.728 21.78C653.728 20.9133 653.888 20.0667 654.208 19.24C654.528 18.4 654.995 17.64 655.608 16.96C656.221 16.28 656.968 15.74 657.848 15.34C658.728 14.9267 659.728 14.72 660.848 14.72C662.181 14.72 663.335 15.0067 664.308 15.58C665.295 16.1533 666.028 16.9 666.508 17.82L663.988 19.58C663.775 19.0733 663.488 18.68 663.128 18.4C662.781 18.12 662.395 17.9267 661.968 17.82C661.555 17.7 661.155 17.64 660.768 17.64C660.141 17.64 659.595 17.7667 659.128 18.02C658.661 18.26 658.275 18.5867 657.968 19C657.661 19.4133 657.435 19.8733 657.288 20.38C657.141 20.8867 657.068 21.3933 657.068 21.9C657.068 22.46 657.155 23 657.328 23.52C657.501 24.04 657.748 24.5 658.068 24.9C658.401 25.3 658.801 25.62 659.268 25.86C659.735 26.0867 660.248 26.2 660.808 26.2C661.208 26.2 661.615 26.1333 662.028 26C662.441 25.8667 662.821 25.66 663.168 25.38C663.528 25.0867 663.801 24.7067 663.988 24.24L666.668 25.82C666.388 26.5133 665.928 27.1067 665.288 27.6C664.648 28.0933 663.921 28.4733 663.108 28.74C662.308 28.9933 661.515 29.12 660.728 29.12C659.701 29.12 658.755 28.9133 657.888 28.5C657.035 28.0733 656.295 27.5133 655.668 26.82C655.055 26.1133 654.575 25.3267 654.228 24.46C653.895 23.58 653.728 22.6867 653.728 21.78ZM668.917 29V14.8H672.197V29H668.917ZM677.574 14.8L680.914 25.16L684.214 14.8H687.674L682.514 29H679.294L674.094 14.8H677.574ZM689.59 29V14.8H692.87V29H689.59ZM696.186 29V14.8H699.466V26.12H706.346V29H696.186ZM723.147 26.12V29H713.167V14.8H722.967V17.68H716.447V20.44H722.047V23.1H716.447V26.12H723.147ZM727.82 14.8L730.9 19.7L733.98 14.8H737.54L732.84 22L737.38 29H733.82L730.9 24.3L727.98 29H724.4L728.94 22L724.24 14.8H727.82ZM739.367 29V14.8H745.427C746.107 14.8 746.727 14.94 747.287 15.22C747.861 15.4867 748.354 15.8533 748.767 16.32C749.181 16.7733 749.501 17.2867 749.727 17.86C749.954 18.4333 750.067 19.02 750.067 19.62C750.067 20.4333 749.874 21.2067 749.487 21.94C749.114 22.6733 748.587 23.2733 747.907 23.74C747.241 24.1933 746.447 24.42 745.527 24.42H742.647V29H739.367ZM742.647 21.56H745.327C745.581 21.56 745.814 21.4867 746.027 21.34C746.241 21.1933 746.414 20.9733 746.547 20.68C746.681 20.3867 746.747 20.0267 746.747 19.6C746.747 19.16 746.667 18.8 746.507 18.52C746.361 18.2267 746.167 18.0133 745.927 17.88C745.701 17.7467 745.461 17.68 745.207 17.68H742.647V21.56ZM758.648 29.12C757.582 29.12 756.615 28.92 755.748 28.52C754.895 28.1067 754.155 27.56 753.528 26.88C752.915 26.1867 752.442 25.4133 752.108 24.56C751.775 23.6933 751.608 22.8 751.608 21.88C751.608 20.9333 751.782 20.0333 752.128 19.18C752.488 18.3267 752.982 17.5667 753.608 16.9C754.248 16.22 755.002 15.6867 755.868 15.3C756.735 14.9133 757.682 14.72 758.708 14.72C759.762 14.72 760.715 14.9267 761.568 15.34C762.435 15.74 763.175 16.2867 763.788 16.98C764.415 17.6733 764.895 18.4533 765.228 19.32C765.562 20.1733 765.728 21.0467 765.728 21.94C765.728 22.8867 765.555 23.7867 765.208 24.64C764.862 25.4933 764.368 26.26 763.728 26.94C763.088 27.6067 762.335 28.14 761.468 28.54C760.615 28.9267 759.675 29.12 758.648 29.12ZM754.948 21.92C754.948 22.4667 755.028 23 755.188 23.52C755.348 24.0267 755.582 24.48 755.888 24.88C756.208 25.28 756.602 25.6 757.068 25.84C757.535 26.08 758.068 26.2 758.668 26.2C759.295 26.2 759.842 26.08 760.308 25.84C760.775 25.5867 761.162 25.2533 761.468 24.84C761.775 24.4267 762.002 23.9667 762.148 23.46C762.308 22.94 762.388 22.4133 762.388 21.88C762.388 21.3333 762.308 20.8067 762.148 20.3C761.988 19.7933 761.748 19.34 761.428 18.94C761.108 18.5267 760.715 18.2067 760.248 17.98C759.782 17.7533 759.255 17.64 758.668 17.64C758.042 17.64 757.495 17.76 757.028 18C756.575 18.24 756.188 18.5667 755.868 18.98C755.562 19.38 755.328 19.84 755.168 20.36C755.022 20.8667 754.948 21.3867 754.948 21.92ZM773.492 29V14.8H776.772V29H773.492ZM790.908 17.68H786.588V29H783.308V17.68H778.968V14.8H790.908V17.68ZM801.63 18.96C801.59 18.8933 801.45 18.7933 801.21 18.66C800.97 18.5133 800.67 18.36 800.31 18.2C799.95 18.04 799.556 17.9 799.13 17.78C798.703 17.66 798.276 17.6 797.85 17.6C797.29 17.6 796.856 17.7 796.55 17.9C796.243 18.0867 796.09 18.38 796.09 18.78C796.09 19.1 796.203 19.3533 796.43 19.54C796.67 19.7267 797.01 19.8933 797.45 20.04C797.89 20.1733 798.43 20.3333 799.07 20.52C799.976 20.76 800.763 21.0533 801.43 21.4C802.096 21.7333 802.603 22.1667 802.95 22.7C803.31 23.2333 803.49 23.94 803.49 24.82C803.49 25.62 803.343 26.3 803.05 26.86C802.756 27.4067 802.356 27.8533 801.85 28.2C801.356 28.5333 800.79 28.78 800.15 28.94C799.51 29.0867 798.85 29.16 798.17 29.16C797.476 29.16 796.763 29.0933 796.03 28.96C795.31 28.8133 794.616 28.6133 793.95 28.36C793.283 28.0933 792.67 27.7733 792.11 27.4L793.55 24.54C793.603 24.6067 793.776 24.7333 794.07 24.92C794.363 25.0933 794.723 25.28 795.15 25.48C795.59 25.6667 796.076 25.8333 796.61 25.98C797.143 26.1267 797.683 26.2 798.23 26.2C798.816 26.2 799.25 26.1067 799.53 25.92C799.823 25.7333 799.97 25.4733 799.97 25.14C799.97 24.78 799.816 24.5 799.51 24.3C799.216 24.1 798.81 23.92 798.29 23.76C797.783 23.6 797.196 23.42 796.53 23.22C795.663 22.9533 794.943 22.6533 794.37 22.32C793.81 21.9867 793.39 21.58 793.11 21.1C792.843 20.62 792.71 20.02 792.71 19.3C792.71 18.3 792.943 17.46 793.41 16.78C793.89 16.0867 794.53 15.5667 795.33 15.22C796.13 14.86 797.003 14.68 797.95 14.68C798.616 14.68 799.256 14.76 799.87 14.92C800.496 15.08 801.076 15.28 801.61 15.52C802.156 15.76 802.643 16 803.07 16.24L801.63 18.96ZM810.622 29C810.622 28.3733 810.669 27.8133 810.762 27.32C810.869 26.8267 811.036 26.38 811.262 25.98C811.502 25.5667 811.816 25.1867 812.202 24.84C812.602 24.48 813.102 24.14 813.702 23.82C814.329 23.4867 814.849 23.2067 815.262 22.98C815.689 22.74 816.029 22.54 816.282 22.38C816.536 22.22 816.709 22.0667 816.802 21.92C816.909 21.76 816.962 21.5867 816.962 21.4C816.962 21.1467 816.902 20.9267 816.782 20.74C816.662 20.5533 816.489 20.4133 816.262 20.32C816.036 20.2133 815.756 20.16 815.422 20.16C815.156 20.16 814.902 20.1933 814.662 20.26C814.422 20.3267 814.189 20.4267 813.962 20.56C813.749 20.6933 813.542 20.8533 813.342 21.04C813.142 21.2133 812.942 21.4133 812.742 21.64L810.722 19.28C810.949 19.0533 811.236 18.8267 811.582 18.6C811.942 18.3733 812.349 18.1733 812.802 18C813.256 17.8133 813.749 17.6667 814.282 17.56C814.829 17.44 815.396 17.38 815.982 17.38C816.942 17.38 817.749 17.5267 818.402 17.82C819.069 18.1 819.576 18.5 819.922 19.02C820.269 19.54 820.442 20.1533 820.442 20.86C820.442 21.3133 820.369 21.7133 820.222 22.06C820.089 22.3933 819.909 22.6933 819.682 22.96C819.456 23.2267 819.196 23.4667 818.902 23.68C818.622 23.8933 818.342 24.0867 818.062 24.26C817.742 24.42 817.442 24.58 817.162 24.74C816.882 24.8867 816.622 25.0333 816.382 25.18C816.142 25.3133 815.916 25.46 815.702 25.62C815.502 25.7667 815.309 25.9333 815.122 26.12H820.662V29H810.622ZM833.484 23.14C833.484 24.3133 833.257 25.36 832.804 26.28C832.35 27.1867 831.73 27.9 830.944 28.42C830.157 28.94 829.264 29.2 828.264 29.2C827.277 29.2 826.384 28.94 825.584 28.42C824.797 27.9 824.177 27.1867 823.724 26.28C823.27 25.36 823.044 24.3133 823.044 23.14C823.044 21.9667 823.27 20.9267 823.724 20.02C824.177 19.1 824.797 18.38 825.584 17.86C826.384 17.3267 827.277 17.06 828.264 17.06C829.264 17.06 830.157 17.3267 830.944 17.86C831.73 18.38 832.35 19.1 832.804 20.02C833.257 20.9267 833.484 21.9667 833.484 23.14ZM830.264 23.14C830.264 22.5133 830.177 21.9667 830.004 21.5C829.83 21.0333 829.59 20.6667 829.284 20.4C828.99 20.1333 828.65 20 828.264 20C827.864 20 827.51 20.1333 827.204 20.4C826.897 20.6667 826.657 21.0333 826.484 21.5C826.324 21.9667 826.244 22.5133 826.244 23.14C826.244 23.7667 826.324 24.3133 826.484 24.78C826.657 25.2467 826.897 25.6133 827.204 25.88C827.51 26.1333 827.864 26.26 828.264 26.26C828.65 26.26 828.99 26.1333 829.284 25.88C829.59 25.6133 829.83 25.2467 830.004 24.78C830.177 24.3133 830.264 23.7667 830.264 23.14ZM835.709 29C835.709 28.3733 835.756 27.8133 835.849 27.32C835.956 26.8267 836.122 26.38 836.349 25.98C836.589 25.5667 836.902 25.1867 837.289 24.84C837.689 24.48 838.189 24.14 838.789 23.82C839.416 23.4867 839.936 23.2067 840.349 22.98C840.776 22.74 841.116 22.54 841.369 22.38C841.622 22.22 841.796 22.0667 841.889 21.92C841.996 21.76 842.049 21.5867 842.049 21.4C842.049 21.1467 841.989 20.9267 841.869 20.74C841.749 20.5533 841.576 20.4133 841.349 20.32C841.122 20.2133 840.842 20.16 840.509 20.16C840.242 20.16 839.989 20.1933 839.749 20.26C839.509 20.3267 839.276 20.4267 839.049 20.56C838.836 20.6933 838.629 20.8533 838.429 21.04C838.229 21.2133 838.029 21.4133 837.829 21.64L835.809 19.28C836.036 19.0533 836.322 18.8267 836.669 18.6C837.029 18.3733 837.436 18.1733 837.889 18C838.342 17.8133 838.836 17.6667 839.369 17.56C839.916 17.44 840.482 17.38 841.069 17.38C842.029 17.38 842.836 17.5267 843.489 17.82C844.156 18.1 844.662 18.5 845.009 19.02C845.356 19.54 845.529 20.1533 845.529 20.86C845.529 21.3133 845.456 21.7133 845.309 22.06C845.176 22.3933 844.996 22.6933 844.769 22.96C844.542 23.2267 844.282 23.4667 843.989 23.68C843.709 23.8933 843.429 24.0867 843.149 24.26C842.829 24.42 842.529 24.58 842.249 24.74C841.969 24.8867 841.709 25.0333 841.469 25.18C841.229 25.3133 841.002 25.46 840.789 25.62C840.589 25.7667 840.396 25.9333 840.209 26.12H845.749V29H835.709ZM847.911 29C847.911 28.3733 847.957 27.8133 848.051 27.32C848.157 26.8267 848.324 26.38 848.551 25.98C848.791 25.5667 849.104 25.1867 849.491 24.84C849.891 24.48 850.391 24.14 850.991 23.82C851.617 23.4867 852.137 23.2067 852.551 22.98C852.977 22.74 853.317 22.54 853.571 22.38C853.824 22.22 853.997 22.0667 854.091 21.92C854.197 21.76 854.251 21.5867 854.251 21.4C854.251 21.1467 854.191 20.9267 854.071 20.74C853.951 20.5533 853.777 20.4133 853.551 20.32C853.324 20.2133 853.044 20.16 852.711 20.16C852.444 20.16 852.191 20.1933 851.951 20.26C851.711 20.3267 851.477 20.4267 851.251 20.56C851.037 20.6933 850.831 20.8533 850.631 21.04C850.431 21.2133 850.231 21.4133 850.031 21.64L848.011 19.28C848.237 19.0533 848.524 18.8267 848.871 18.6C849.231 18.3733 849.637 18.1733 850.091 18C850.544 17.8133 851.037 17.6667 851.571 17.56C852.117 17.44 852.684 17.38 853.271 17.38C854.231 17.38 855.037 17.5267 855.691 17.82C856.357 18.1 856.864 18.5 857.211 19.02C857.557 19.54 857.731 20.1533 857.731 20.86C857.731 21.3133 857.657 21.7133 857.511 22.06C857.377 22.3933 857.197 22.6933 856.971 22.96C856.744 23.2267 856.484 23.4667 856.191 23.68C855.911 23.8933 855.631 24.0867 855.351 24.26C855.031 24.42 854.731 24.58 854.451 24.74C854.171 24.8867 853.911 25.0333 853.671 25.18C853.431 25.3133 853.204 25.46 852.991 25.62C852.791 25.7667 852.597 25.9333 852.411 26.12H857.951V29H847.911ZM865.22 21.78C865.22 20.9133 865.38 20.0667 865.7 19.24C866.02 18.4 866.487 17.64 867.1 16.96C867.713 16.28 868.46 15.74 869.34 15.34C870.22 14.9267 871.22 14.72 872.34 14.72C873.673 14.72 874.827 15.0067 875.8 15.58C876.787 16.1533 877.52 16.9 878 17.82L875.48 19.58C875.267 19.0733 874.98 18.68 874.62 18.4C874.273 18.12 873.887 17.9267 873.46 17.82C873.047 17.7 872.647 17.64 872.26 17.64C871.633 17.64 871.087 17.7667 870.62 18.02C870.153 18.26 869.767 18.5867 869.46 19C869.153 19.4133 868.927 19.8733 868.78 20.38C868.633 20.8867 868.56 21.3933 868.56 21.9C868.56 22.46 868.647 23 868.82 23.52C868.993 24.04 869.24 24.5 869.56 24.9C869.893 25.3 870.293 25.62 870.76 25.86C871.227 26.0867 871.74 26.2 872.3 26.2C872.7 26.2 873.107 26.1333 873.52 26C873.933 25.8667 874.313 25.66 874.66 25.38C875.02 25.0867 875.293 24.7067 875.48 24.24L878.16 25.82C877.88 26.5133 877.42 27.1067 876.78 27.6C876.14 28.0933 875.413 28.4733 874.6 28.74C873.8 28.9933 873.007 29.12 872.22 29.12C871.193 29.12 870.247 28.9133 869.38 28.5C868.527 28.0733 867.787 27.5133 867.16 26.82C866.547 26.1133 866.067 25.3267 865.72 24.46C865.387 23.58 865.22 22.6867 865.22 21.78ZM880.41 29V14.8H883.69V29H880.41ZM889.066 14.8L892.406 25.16L895.706 14.8H899.166L894.006 29H890.786L885.586 14.8H889.066ZM901.082 29V14.8H904.362V29H901.082ZM907.678 29V14.8H910.958V26.12H917.838V29H907.678ZM934.64 26.12V29H924.66V14.8H934.46V17.68H927.94V20.44H933.54V23.1H927.94V26.12H934.64ZM939.312 14.8L942.392 19.7L945.472 14.8H949.032L944.332 22L948.872 29H945.312L942.392 24.3L939.472 29H935.892L940.432 22L935.732 14.8H939.312ZM950.86 29V14.8H956.92C957.6 14.8 958.22 14.94 958.78 15.22C959.353 15.4867 959.846 15.8533 960.26 16.32C960.673 16.7733 960.993 17.2867 961.22 17.86C961.446 18.4333 961.56 19.02 961.56 19.62C961.56 20.4333 961.366 21.2067 960.98 21.94C960.606 22.6733 960.08 23.2733 959.4 23.74C958.733 24.1933 957.94 24.42 957.02 24.42H954.14V29H950.86ZM954.14 21.56H956.82C957.073 21.56 957.306 21.4867 957.52 21.34C957.733 21.1933 957.906 20.9733 958.04 20.68C958.173 20.3867 958.24 20.0267 958.24 19.6C958.24 19.16 958.16 18.8 958 18.52C957.853 18.2267 957.66 18.0133 957.42 17.88C957.193 17.7467 956.953 17.68 956.7 17.68H954.14V21.56ZM970.141 29.12C969.074 29.12 968.107 28.92 967.241 28.52C966.387 28.1067 965.647 27.56 965.021 26.88C964.407 26.1867 963.934 25.4133 963.601 24.56C963.267 23.6933 963.101 22.8 963.101 21.88C963.101 20.9333 963.274 20.0333 963.621 19.18C963.981 18.3267 964.474 17.5667 965.101 16.9C965.741 16.22 966.494 15.6867 967.361 15.3C968.227 14.9133 969.174 14.72 970.201 14.72C971.254 14.72 972.207 14.9267 973.061 15.34C973.927 15.74 974.667 16.2867 975.281 16.98C975.907 17.6733 976.387 18.4533 976.721 19.32C977.054 20.1733 977.221 21.0467 977.221 21.94C977.221 22.8867 977.047 23.7867 976.701 24.64C976.354 25.4933 975.861 26.26 975.221 26.94C974.581 27.6067 973.827 28.14 972.961 28.54C972.107 28.9267 971.167 29.12 970.141 29.12ZM966.441 21.92C966.441 22.4667 966.521 23 966.681 23.52C966.841 24.0267 967.074 24.48 967.381 24.88C967.701 25.28 968.094 25.6 968.561 25.84C969.027 26.08 969.561 26.2 970.161 26.2C970.787 26.2 971.334 26.08 971.801 25.84C972.267 25.5867 972.654 25.2533 972.961 24.84C973.267 24.4267 973.494 23.9667 973.641 23.46C973.801 22.94 973.881 22.4133 973.881 21.88C973.881 21.3333 973.801 20.8067 973.641 20.3C973.481 19.7933 973.241 19.34 972.921 18.94C972.601 18.5267 972.207 18.2067 971.741 17.98C971.274 17.7533 970.747 17.64 970.161 17.64C969.534 17.64 968.987 17.76 968.521 18C968.067 18.24 967.681 18.5667 967.361 18.98C967.054 19.38 966.821 19.84 966.661 20.36C966.514 20.8667 966.441 21.3867 966.441 21.92ZM984.984 29V14.8H988.264V29H984.984ZM1002.4 17.68H998.08V29H994.8V17.68H990.46V14.8H1002.4V17.68ZM1013.12 18.96C1013.08 18.8933 1012.94 18.7933 1012.7 18.66C1012.46 18.5133 1012.16 18.36 1011.8 18.2C1011.44 18.04 1011.05 17.9 1010.62 17.78C1010.2 17.66 1009.77 17.6 1009.34 17.6C1008.78 17.6 1008.35 17.7 1008.04 17.9C1007.74 18.0867 1007.58 18.38 1007.58 18.78C1007.58 19.1 1007.7 19.3533 1007.92 19.54C1008.16 19.7267 1008.5 19.8933 1008.94 20.04C1009.38 20.1733 1009.92 20.3333 1010.56 20.52C1011.47 20.76 1012.26 21.0533 1012.92 21.4C1013.59 21.7333 1014.1 22.1667 1014.44 22.7C1014.8 23.2333 1014.98 23.94 1014.98 24.82C1014.98 25.62 1014.84 26.3 1014.54 26.86C1014.25 27.4067 1013.85 27.8533 1013.34 28.2C1012.85 28.5333 1012.28 28.78 1011.64 28.94C1011 29.0867 1010.34 29.16 1009.66 29.16C1008.97 29.16 1008.26 29.0933 1007.52 28.96C1006.8 28.8133 1006.11 28.6133 1005.44 28.36C1004.78 28.0933 1004.16 27.7733 1003.6 27.4L1005.04 24.54C1005.1 24.6067 1005.27 24.7333 1005.56 24.92C1005.86 25.0933 1006.22 25.28 1006.64 25.48C1007.08 25.6667 1007.57 25.8333 1008.1 25.98C1008.64 26.1267 1009.18 26.2 1009.72 26.2C1010.31 26.2 1010.74 26.1067 1011.02 25.92C1011.32 25.7333 1011.46 25.4733 1011.46 25.14C1011.46 24.78 1011.31 24.5 1011 24.3C1010.71 24.1 1010.3 23.92 1009.78 23.76C1009.28 23.6 1008.69 23.42 1008.02 23.22C1007.16 22.9533 1006.44 22.6533 1005.86 22.32C1005.3 21.9867 1004.88 21.58 1004.6 21.1C1004.34 20.62 1004.2 20.02 1004.2 19.3C1004.2 18.3 1004.44 17.46 1004.9 16.78C1005.38 16.0867 1006.02 15.5667 1006.82 15.22C1007.62 14.86 1008.5 14.68 1009.44 14.68C1010.11 14.68 1010.75 14.76 1011.36 14.92C1011.99 15.08 1012.57 15.28 1013.1 15.52C1013.65 15.76 1014.14 16 1014.56 16.24L1013.12 18.96ZM1022.11 29C1022.11 28.3733 1022.16 27.8133 1022.25 27.32C1022.36 26.8267 1022.53 26.38 1022.75 25.98C1022.99 25.5667 1023.31 25.1867 1023.69 24.84C1024.09 24.48 1024.59 24.14 1025.19 23.82C1025.82 23.4867 1026.34 23.2067 1026.75 22.98C1027.18 22.74 1027.52 22.54 1027.77 22.38C1028.03 22.22 1028.2 22.0667 1028.29 21.92C1028.4 21.76 1028.45 21.5867 1028.45 21.4C1028.45 21.1467 1028.39 20.9267 1028.27 20.74C1028.15 20.5533 1027.98 20.4133 1027.75 20.32C1027.53 20.2133 1027.25 20.16 1026.91 20.16C1026.65 20.16 1026.39 20.1933 1026.15 20.26C1025.91 20.3267 1025.68 20.4267 1025.45 20.56C1025.24 20.6933 1025.03 20.8533 1024.83 21.04C1024.63 21.2133 1024.43 21.4133 1024.23 21.64L1022.21 19.28C1022.44 19.0533 1022.73 18.8267 1023.07 18.6C1023.43 18.3733 1023.84 18.1733 1024.29 18C1024.75 17.8133 1025.24 17.6667 1025.77 17.56C1026.32 17.44 1026.89 17.38 1027.47 17.38C1028.43 17.38 1029.24 17.5267 1029.89 17.82C1030.56 18.1 1031.07 18.5 1031.41 19.02C1031.76 19.54 1031.93 20.1533 1031.93 20.86C1031.93 21.3133 1031.86 21.7133 1031.71 22.06C1031.58 22.3933 1031.4 22.6933 1031.17 22.96C1030.95 23.2267 1030.69 23.4667 1030.39 23.68C1030.11 23.8933 1029.83 24.0867 1029.55 24.26C1029.23 24.42 1028.93 24.58 1028.65 24.74C1028.37 24.8867 1028.11 25.0333 1027.87 25.18C1027.63 25.3133 1027.41 25.46 1027.19 25.62C1026.99 25.7667 1026.8 25.9333 1026.61 26.12H1032.15V29H1022.11ZM1044.98 23.14C1044.98 24.3133 1044.75 25.36 1044.3 26.28C1043.84 27.1867 1043.22 27.9 1042.44 28.42C1041.65 28.94 1040.76 29.2 1039.76 29.2C1038.77 29.2 1037.88 28.94 1037.08 28.42C1036.29 27.9 1035.67 27.1867 1035.22 26.28C1034.76 25.36 1034.54 24.3133 1034.54 23.14C1034.54 21.9667 1034.76 20.9267 1035.22 20.02C1035.67 19.1 1036.29 18.38 1037.08 17.86C1037.88 17.3267 1038.77 17.06 1039.76 17.06C1040.76 17.06 1041.65 17.3267 1042.44 17.86C1043.22 18.38 1043.84 19.1 1044.3 20.02C1044.75 20.9267 1044.98 21.9667 1044.98 23.14ZM1041.76 23.14C1041.76 22.5133 1041.67 21.9667 1041.5 21.5C1041.32 21.0333 1041.08 20.6667 1040.78 20.4C1040.48 20.1333 1040.14 20 1039.76 20C1039.36 20 1039 20.1333 1038.7 20.4C1038.39 20.6667 1038.15 21.0333 1037.98 21.5C1037.82 21.9667 1037.74 22.5133 1037.74 23.14C1037.74 23.7667 1037.82 24.3133 1037.98 24.78C1038.15 25.2467 1038.39 25.6133 1038.7 25.88C1039 26.1333 1039.36 26.26 1039.76 26.26C1040.14 26.26 1040.48 26.1333 1040.78 25.88C1041.08 25.6133 1041.32 25.2467 1041.5 24.78C1041.67 24.3133 1041.76 23.7667 1041.76 23.14ZM1047.2 29C1047.2 28.3733 1047.25 27.8133 1047.34 27.32C1047.45 26.8267 1047.61 26.38 1047.84 25.98C1048.08 25.5667 1048.39 25.1867 1048.78 24.84C1049.18 24.48 1049.68 24.14 1050.28 23.82C1050.91 23.4867 1051.43 23.2067 1051.84 22.98C1052.27 22.74 1052.61 22.54 1052.86 22.38C1053.11 22.22 1053.29 22.0667 1053.38 21.92C1053.49 21.76 1053.54 21.5867 1053.54 21.4C1053.54 21.1467 1053.48 20.9267 1053.36 20.74C1053.24 20.5533 1053.07 20.4133 1052.84 20.32C1052.61 20.2133 1052.33 20.16 1052 20.16C1051.73 20.16 1051.48 20.1933 1051.24 20.26C1051 20.3267 1050.77 20.4267 1050.54 20.56C1050.33 20.6933 1050.12 20.8533 1049.92 21.04C1049.72 21.2133 1049.52 21.4133 1049.32 21.64L1047.3 19.28C1047.53 19.0533 1047.81 18.8267 1048.16 18.6C1048.52 18.3733 1048.93 18.1733 1049.38 18C1049.83 17.8133 1050.33 17.6667 1050.86 17.56C1051.41 17.44 1051.97 17.38 1052.56 17.38C1053.52 17.38 1054.33 17.5267 1054.98 17.82C1055.65 18.1 1056.15 18.5 1056.5 19.02C1056.85 19.54 1057.02 20.1533 1057.02 20.86C1057.02 21.3133 1056.95 21.7133 1056.8 22.06C1056.67 22.3933 1056.49 22.6933 1056.26 22.96C1056.03 23.2267 1055.77 23.4667 1055.48 23.68C1055.2 23.8933 1054.92 24.0867 1054.64 24.26C1054.32 24.42 1054.02 24.58 1053.74 24.74C1053.46 24.8867 1053.2 25.0333 1052.96 25.18C1052.72 25.3133 1052.49 25.46 1052.28 25.62C1052.08 25.7667 1051.89 25.9333 1051.7 26.12H1057.24V29H1047.2ZM1059.4 29C1059.4 28.3733 1059.45 27.8133 1059.54 27.32C1059.65 26.8267 1059.82 26.38 1060.04 25.98C1060.28 25.5667 1060.6 25.1867 1060.98 24.84C1061.38 24.48 1061.88 24.14 1062.48 23.82C1063.11 23.4867 1063.63 23.2067 1064.04 22.98C1064.47 22.74 1064.81 22.54 1065.06 22.38C1065.32 22.22 1065.49 22.0667 1065.58 21.92C1065.69 21.76 1065.74 21.5867 1065.74 21.4C1065.74 21.1467 1065.68 20.9267 1065.56 20.74C1065.44 20.5533 1065.27 20.4133 1065.04 20.32C1064.82 20.2133 1064.54 20.16 1064.2 20.16C1063.94 20.16 1063.68 20.1933 1063.44 20.26C1063.2 20.3267 1062.97 20.4267 1062.74 20.56C1062.53 20.6933 1062.32 20.8533 1062.12 21.04C1061.92 21.2133 1061.72 21.4133 1061.52 21.64L1059.5 19.28C1059.73 19.0533 1060.02 18.8267 1060.36 18.6C1060.72 18.3733 1061.13 18.1733 1061.58 18C1062.04 17.8133 1062.53 17.6667 1063.06 17.56C1063.61 17.44 1064.18 17.38 1064.76 17.38C1065.72 17.38 1066.53 17.5267 1067.18 17.82C1067.85 18.1 1068.36 18.5 1068.7 19.02C1069.05 19.54 1069.22 20.1533 1069.22 20.86C1069.22 21.3133 1069.15 21.7133 1069 22.06C1068.87 22.3933 1068.69 22.6933 1068.46 22.96C1068.24 23.2267 1067.98 23.4667 1067.68 23.68C1067.4 23.8933 1067.12 24.0867 1066.84 24.26C1066.52 24.42 1066.22 24.58 1065.94 24.74C1065.66 24.8867 1065.4 25.0333 1065.16 25.18C1064.92 25.3133 1064.7 25.46 1064.48 25.62C1064.28 25.7667 1064.09 25.9333 1063.9 26.12H1069.44V29H1059.4ZM1076.71 21.78C1076.71 20.9133 1076.87 20.0667 1077.19 19.24C1077.51 18.4 1077.98 17.64 1078.59 16.96C1079.21 16.28 1079.95 15.74 1080.83 15.34C1081.71 14.9267 1082.71 14.72 1083.83 14.72C1085.17 14.72 1086.32 15.0067 1087.29 15.58C1088.28 16.1533 1089.01 16.9 1089.49 17.82L1086.97 19.58C1086.76 19.0733 1086.47 18.68 1086.11 18.4C1085.77 18.12 1085.38 17.9267 1084.95 17.82C1084.54 17.7 1084.14 17.64 1083.75 17.64C1083.13 17.64 1082.58 17.7667 1082.11 18.02C1081.65 18.26 1081.26 18.5867 1080.95 19C1080.65 19.4133 1080.42 19.8733 1080.27 20.38C1080.13 20.8867 1080.05 21.3933 1080.05 21.9C1080.05 22.46 1080.14 23 1080.31 23.52C1080.49 24.04 1080.73 24.5 1081.05 24.9C1081.39 25.3 1081.79 25.62 1082.25 25.86C1082.72 26.0867 1083.23 26.2 1083.79 26.2C1084.19 26.2 1084.6 26.1333 1085.01 26C1085.43 25.8667 1085.81 25.66 1086.15 25.38C1086.51 25.0867 1086.79 24.7067 1086.97 24.24L1089.65 25.82C1089.37 26.5133 1088.91 27.1067 1088.27 27.6C1087.63 28.0933 1086.91 28.4733 1086.09 28.74C1085.29 28.9933 1084.5 29.12 1083.71 29.12C1082.69 29.12 1081.74 28.9133 1080.87 28.5C1080.02 28.0733 1079.28 27.5133 1078.65 26.82C1078.04 26.1133 1077.56 25.3267 1077.21 24.46C1076.88 23.58 1076.71 22.6867 1076.71 21.78ZM1091.9 29V14.8H1095.18V29H1091.9ZM1100.56 14.8L1103.9 25.16L1107.2 14.8H1110.66L1105.5 29H1102.28L1097.08 14.8H1100.56ZM1112.57 29V14.8H1115.85V29H1112.57ZM1119.17 29V14.8H1122.45V26.12H1129.33V29H1119.17ZM1146.13 26.12V29H1136.15V14.8H1145.95V17.68H1139.43V20.44H1145.03V23.1H1139.43V26.12H1146.13ZM1150.8 14.8L1153.88 19.7L1156.96 14.8H1160.52L1155.82 22L1160.36 29H1156.8L1153.88 24.3L1150.96 29H1147.38L1151.92 22L1147.22 14.8H1150.8ZM1162.35 29V14.8H1168.41C1169.09 14.8 1169.71 14.94 1170.27 15.22C1170.85 15.4867 1171.34 15.8533 1171.75 16.32C1172.17 16.7733 1172.49 17.2867 1172.71 17.86C1172.94 18.4333 1173.05 19.02 1173.05 19.62C1173.05 20.4333 1172.86 21.2067 1172.47 21.94C1172.1 22.6733 1171.57 23.2733 1170.89 23.74C1170.23 24.1933 1169.43 24.42 1168.51 24.42H1165.63V29H1162.35ZM1165.63 21.56H1168.31C1168.57 21.56 1168.8 21.4867 1169.01 21.34C1169.23 21.1933 1169.4 20.9733 1169.53 20.68C1169.67 20.3867 1169.73 20.0267 1169.73 19.6C1169.73 19.16 1169.65 18.8 1169.49 18.52C1169.35 18.2267 1169.15 18.0133 1168.91 17.88C1168.69 17.7467 1168.45 17.68 1168.19 17.68H1165.63V21.56ZM1181.63 29.12C1180.57 29.12 1179.6 28.92 1178.73 28.52C1177.88 28.1067 1177.14 27.56 1176.51 26.88C1175.9 26.1867 1175.43 25.4133 1175.09 24.56C1174.76 23.6933 1174.59 22.8 1174.59 21.88C1174.59 20.9333 1174.77 20.0333 1175.11 19.18C1175.47 18.3267 1175.97 17.5667 1176.59 16.9C1177.23 16.22 1177.99 15.6867 1178.85 15.3C1179.72 14.9133 1180.67 14.72 1181.69 14.72C1182.75 14.72 1183.7 14.9267 1184.55 15.34C1185.42 15.74 1186.16 16.2867 1186.77 16.98C1187.4 17.6733 1187.88 18.4533 1188.21 19.32C1188.55 20.1733 1188.71 21.0467 1188.71 21.94C1188.71 22.8867 1188.54 23.7867 1188.19 24.64C1187.85 25.4933 1187.35 26.26 1186.71 26.94C1186.07 27.6067 1185.32 28.14 1184.45 28.54C1183.6 28.9267 1182.66 29.12 1181.63 29.12ZM1177.93 21.92C1177.93 22.4667 1178.01 23 1178.17 23.52C1178.33 24.0267 1178.57 24.48 1178.87 24.88C1179.19 25.28 1179.59 25.6 1180.05 25.84C1180.52 26.08 1181.05 26.2 1181.65 26.2C1182.28 26.2 1182.83 26.08 1183.29 25.84C1183.76 25.5867 1184.15 25.2533 1184.45 24.84C1184.76 24.4267 1184.99 23.9667 1185.13 23.46C1185.29 22.94 1185.37 22.4133 1185.37 21.88C1185.37 21.3333 1185.29 20.8067 1185.13 20.3C1184.97 19.7933 1184.73 19.34 1184.41 18.94C1184.09 18.5267 1183.7 18.2067 1183.23 17.98C1182.77 17.7533 1182.24 17.64 1181.65 17.64C1181.03 17.64 1180.48 17.76 1180.01 18C1179.56 18.24 1179.17 18.5667 1178.85 18.98C1178.55 19.38 1178.31 19.84 1178.15 20.36C1178.01 20.8667 1177.93 21.3867 1177.93 21.92ZM1196.48 29V14.8H1199.76V29H1196.48ZM1213.89 17.68H1209.57V29H1206.29V17.68H1201.95V14.8H1213.89V17.68ZM1224.61 18.96C1224.57 18.8933 1224.43 18.7933 1224.19 18.66C1223.95 18.5133 1223.65 18.36 1223.29 18.2C1222.93 18.04 1222.54 17.9 1222.11 17.78C1221.69 17.66 1221.26 17.6 1220.83 17.6C1220.27 17.6 1219.84 17.7 1219.53 17.9C1219.23 18.0867 1219.07 18.38 1219.07 18.78C1219.07 19.1 1219.19 19.3533 1219.41 19.54C1219.65 19.7267 1219.99 19.8933 1220.43 20.04C1220.87 20.1733 1221.41 20.3333 1222.05 20.52C1222.96 20.76 1223.75 21.0533 1224.41 21.4C1225.08 21.7333 1225.59 22.1667 1225.93 22.7C1226.29 23.2333 1226.47 23.94 1226.47 24.82C1226.47 25.62 1226.33 26.3 1226.03 26.86C1225.74 27.4067 1225.34 27.8533 1224.83 28.2C1224.34 28.5333 1223.77 28.78 1223.13 28.94C1222.49 29.0867 1221.83 29.16 1221.15 29.16C1220.46 29.16 1219.75 29.0933 1219.01 28.96C1218.29 28.8133 1217.6 28.6133 1216.93 28.36C1216.27 28.0933 1215.65 27.7733 1215.09 27.4L1216.53 24.54C1216.59 24.6067 1216.76 24.7333 1217.05 24.92C1217.35 25.0933 1217.71 25.28 1218.13 25.48C1218.57 25.6667 1219.06 25.8333 1219.59 25.98C1220.13 26.1267 1220.67 26.2 1221.21 26.2C1221.8 26.2 1222.23 26.1067 1222.51 25.92C1222.81 25.7333 1222.95 25.4733 1222.95 25.14C1222.95 24.78 1222.8 24.5 1222.49 24.3C1222.2 24.1 1221.79 23.92 1221.27 23.76C1220.77 23.6 1220.18 23.42 1219.51 23.22C1218.65 22.9533 1217.93 22.6533 1217.35 22.32C1216.79 21.9867 1216.37 21.58 1216.09 21.1C1215.83 20.62 1215.69 20.02 1215.69 19.3C1215.69 18.3 1215.93 17.46 1216.39 16.78C1216.87 16.0867 1217.51 15.5667 1218.31 15.22C1219.11 14.86 1219.99 14.68 1220.93 14.68C1221.6 14.68 1222.24 14.76 1222.85 14.92C1223.48 15.08 1224.06 15.28 1224.59 15.52C1225.14 15.76 1225.63 16 1226.05 16.24L1224.61 18.96ZM1233.61 29C1233.61 28.3733 1233.65 27.8133 1233.75 27.32C1233.85 26.8267 1234.02 26.38 1234.25 25.98C1234.49 25.5667 1234.8 25.1867 1235.19 24.84C1235.59 24.48 1236.09 24.14 1236.69 23.82C1237.31 23.4867 1237.83 23.2067 1238.25 22.98C1238.67 22.74 1239.01 22.54 1239.27 22.38C1239.52 22.22 1239.69 22.0667 1239.79 21.92C1239.89 21.76 1239.95 21.5867 1239.95 21.4C1239.95 21.1467 1239.89 20.9267 1239.77 20.74C1239.65 20.5533 1239.47 20.4133 1239.25 20.32C1239.02 20.2133 1238.74 20.16 1238.41 20.16C1238.14 20.16 1237.89 20.1933 1237.65 20.26C1237.41 20.3267 1237.17 20.4267 1236.95 20.56C1236.73 20.6933 1236.53 20.8533 1236.33 21.04C1236.13 21.2133 1235.93 21.4133 1235.73 21.64L1233.71 19.28C1233.93 19.0533 1234.22 18.8267 1234.57 18.6C1234.93 18.3733 1235.33 18.1733 1235.79 18C1236.24 17.8133 1236.73 17.6667 1237.27 17.56C1237.81 17.44 1238.38 17.38 1238.97 17.38C1239.93 17.38 1240.73 17.5267 1241.39 17.82C1242.05 18.1 1242.56 18.5 1242.91 19.02C1243.25 19.54 1243.43 20.1533 1243.43 20.86C1243.43 21.3133 1243.35 21.7133 1243.21 22.06C1243.07 22.3933 1242.89 22.6933 1242.67 22.96C1242.44 23.2267 1242.18 23.4667 1241.89 23.68C1241.61 23.8933 1241.33 24.0867 1241.05 24.26C1240.73 24.42 1240.43 24.58 1240.15 24.74C1239.87 24.8867 1239.61 25.0333 1239.37 25.18C1239.13 25.3133 1238.9 25.46 1238.69 25.62C1238.49 25.7667 1238.29 25.9333 1238.11 26.12H1243.65V29H1233.61ZM1256.47 23.14C1256.47 24.3133 1256.24 25.36 1255.79 26.28C1255.33 27.1867 1254.71 27.9 1253.93 28.42C1253.14 28.94 1252.25 29.2 1251.25 29.2C1250.26 29.2 1249.37 28.94 1248.57 28.42C1247.78 27.9 1247.16 27.1867 1246.71 26.28C1246.25 25.36 1246.03 24.3133 1246.03 23.14C1246.03 21.9667 1246.25 20.9267 1246.71 20.02C1247.16 19.1 1247.78 18.38 1248.57 17.86C1249.37 17.3267 1250.26 17.06 1251.25 17.06C1252.25 17.06 1253.14 17.3267 1253.93 17.86C1254.71 18.38 1255.33 19.1 1255.79 20.02C1256.24 20.9267 1256.47 21.9667 1256.47 23.14ZM1253.25 23.14C1253.25 22.5133 1253.16 21.9667 1252.99 21.5C1252.81 21.0333 1252.57 20.6667 1252.27 20.4C1251.97 20.1333 1251.63 20 1251.25 20C1250.85 20 1250.49 20.1333 1250.19 20.4C1249.88 20.6667 1249.64 21.0333 1249.47 21.5C1249.31 21.9667 1249.23 22.5133 1249.23 23.14C1249.23 23.7667 1249.31 24.3133 1249.47 24.78C1249.64 25.2467 1249.88 25.6133 1250.19 25.88C1250.49 26.1333 1250.85 26.26 1251.25 26.26C1251.63 26.26 1251.97 26.1333 1252.27 25.88C1252.57 25.6133 1252.81 25.2467 1252.99 24.78C1253.16 24.3133 1253.25 23.7667 1253.25 23.14ZM1258.69 29C1258.69 28.3733 1258.74 27.8133 1258.83 27.32C1258.94 26.8267 1259.11 26.38 1259.33 25.98C1259.57 25.5667 1259.89 25.1867 1260.27 24.84C1260.67 24.48 1261.17 24.14 1261.77 23.82C1262.4 23.4867 1262.92 23.2067 1263.33 22.98C1263.76 22.74 1264.1 22.54 1264.35 22.38C1264.61 22.22 1264.78 22.0667 1264.87 21.92C1264.98 21.76 1265.03 21.5867 1265.03 21.4C1265.03 21.1467 1264.97 20.9267 1264.85 20.74C1264.73 20.5533 1264.56 20.4133 1264.33 20.32C1264.11 20.2133 1263.83 20.16 1263.49 20.16C1263.23 20.16 1262.97 20.1933 1262.73 20.26C1262.49 20.3267 1262.26 20.4267 1262.03 20.56C1261.82 20.6933 1261.61 20.8533 1261.41 21.04C1261.21 21.2133 1261.01 21.4133 1260.81 21.64L1258.79 19.28C1259.02 19.0533 1259.31 18.8267 1259.65 18.6C1260.01 18.3733 1260.42 18.1733 1260.87 18C1261.33 17.8133 1261.82 17.6667 1262.35 17.56C1262.9 17.44 1263.47 17.38 1264.05 17.38C1265.01 17.38 1265.82 17.5267 1266.47 17.82C1267.14 18.1 1267.65 18.5 1267.99 19.02C1268.34 19.54 1268.51 20.1533 1268.51 20.86C1268.51 21.3133 1268.44 21.7133 1268.29 22.06C1268.16 22.3933 1267.98 22.6933 1267.75 22.96C1267.53 23.2267 1267.27 23.4667 1266.97 23.68C1266.69 23.8933 1266.41 24.0867 1266.13 24.26C1265.81 24.42 1265.51 24.58 1265.23 24.74C1264.95 24.8867 1264.69 25.0333 1264.45 25.18C1264.21 25.3133 1263.99 25.46 1263.77 25.62C1263.57 25.7667 1263.38 25.9333 1263.19 26.12H1268.73V29H1258.69ZM1270.89 29C1270.89 28.3733 1270.94 27.8133 1271.03 27.32C1271.14 26.8267 1271.31 26.38 1271.53 25.98C1271.77 25.5667 1272.09 25.1867 1272.47 24.84C1272.87 24.48 1273.37 24.14 1273.97 23.82C1274.6 23.4867 1275.12 23.2067 1275.53 22.98C1275.96 22.74 1276.3 22.54 1276.55 22.38C1276.81 22.22 1276.98 22.0667 1277.07 21.92C1277.18 21.76 1277.23 21.5867 1277.23 21.4C1277.23 21.1467 1277.17 20.9267 1277.05 20.74C1276.93 20.5533 1276.76 20.4133 1276.53 20.32C1276.31 20.2133 1276.03 20.16 1275.69 20.16C1275.43 20.16 1275.17 20.1933 1274.93 20.26C1274.69 20.3267 1274.46 20.4267 1274.23 20.56C1274.02 20.6933 1273.81 20.8533 1273.61 21.04C1273.41 21.2133 1273.21 21.4133 1273.01 21.64L1270.99 19.28C1271.22 19.0533 1271.51 18.8267 1271.85 18.6C1272.21 18.3733 1272.62 18.1733 1273.07 18C1273.53 17.8133 1274.02 17.6667 1274.55 17.56C1275.1 17.44 1275.67 17.38 1276.25 17.38C1277.21 17.38 1278.02 17.5267 1278.67 17.82C1279.34 18.1 1279.85 18.5 1280.19 19.02C1280.54 19.54 1280.71 20.1533 1280.71 20.86C1280.71 21.3133 1280.64 21.7133 1280.49 22.06C1280.36 22.3933 1280.18 22.6933 1279.95 22.96C1279.73 23.2267 1279.47 23.4667 1279.17 23.68C1278.89 23.8933 1278.61 24.0867 1278.33 24.26C1278.01 24.42 1277.71 24.58 1277.43 24.74C1277.15 24.8867 1276.89 25.0333 1276.65 25.18C1276.41 25.3133 1276.19 25.46 1275.97 25.62C1275.77 25.7667 1275.58 25.9333 1275.39 26.12H1280.93V29H1270.89ZM1288.2 21.78C1288.2 20.9133 1288.36 20.0667 1288.68 19.24C1289 18.4 1289.47 17.64 1290.08 16.96C1290.7 16.28 1291.44 15.74 1292.32 15.34C1293.2 14.9267 1294.2 14.72 1295.32 14.72C1296.66 14.72 1297.81 15.0067 1298.78 15.58C1299.77 16.1533 1300.5 16.9 1300.98 17.82L1298.46 19.58C1298.25 19.0733 1297.96 18.68 1297.6 18.4C1297.26 18.12 1296.87 17.9267 1296.44 17.82C1296.03 17.7 1295.63 17.64 1295.24 17.64C1294.62 17.64 1294.07 17.7667 1293.6 18.02C1293.14 18.26 1292.75 18.5867 1292.44 19C1292.14 19.4133 1291.91 19.8733 1291.76 20.38C1291.62 20.8867 1291.54 21.3933 1291.54 21.9C1291.54 22.46 1291.63 23 1291.8 23.52C1291.98 24.04 1292.22 24.5 1292.54 24.9C1292.88 25.3 1293.28 25.62 1293.74 25.86C1294.21 26.0867 1294.72 26.2 1295.28 26.2C1295.68 26.2 1296.09 26.1333 1296.5 26C1296.92 25.8667 1297.3 25.66 1297.64 25.38C1298 25.0867 1298.28 24.7067 1298.46 24.24L1301.14 25.82C1300.86 26.5133 1300.4 27.1067 1299.76 27.6C1299.12 28.0933 1298.4 28.4733 1297.58 28.74C1296.78 28.9933 1295.99 29.12 1295.2 29.12C1294.18 29.12 1293.23 28.9133 1292.36 28.5C1291.51 28.0733 1290.77 27.5133 1290.14 26.82C1289.53 26.1133 1289.05 25.3267 1288.7 24.46C1288.37 23.58 1288.2 22.6867 1288.2 21.78ZM1303.39 29V14.8H1306.67V29H1303.39ZM1312.05 14.8L1315.39 25.16L1318.69 14.8H1322.15L1316.99 29H1313.77L1308.57 14.8H1312.05ZM1324.07 29V14.8H1327.35V29H1324.07ZM1330.66 29V14.8H1333.94V26.12H1340.82V29H1330.66ZM1357.62 26.12V29H1347.64V14.8H1357.44V17.68H1350.92V20.44H1356.52V23.1H1350.92V26.12H1357.62ZM1362.3 14.8L1365.38 19.7L1368.46 14.8H1372.02L1367.32 22L1371.86 29H1368.3L1365.38 24.3L1362.46 29H1358.88L1363.42 22L1358.72 14.8H1362.3ZM1373.84 29V14.8H1379.9C1380.58 14.8 1381.2 14.94 1381.76 15.22C1382.34 15.4867 1382.83 15.8533 1383.24 16.32C1383.66 16.7733 1383.98 17.2867 1384.2 17.86C1384.43 18.4333 1384.54 19.02 1384.54 19.62C1384.54 20.4333 1384.35 21.2067 1383.96 21.94C1383.59 22.6733 1383.06 23.2733 1382.38 23.74C1381.72 24.1933 1380.92 24.42 1380 24.42H1377.12V29H1373.84ZM1377.12 21.56H1379.8C1380.06 21.56 1380.29 21.4867 1380.5 21.34C1380.72 21.1933 1380.89 20.9733 1381.02 20.68C1381.16 20.3867 1381.22 20.0267 1381.22 19.6C1381.22 19.16 1381.14 18.8 1380.98 18.52C1380.84 18.2267 1380.64 18.0133 1380.4 17.88C1380.18 17.7467 1379.94 17.68 1379.68 17.68H1377.12V21.56ZM1393.12 29.12C1392.06 29.12 1391.09 28.92 1390.22 28.52C1389.37 28.1067 1388.63 27.56 1388 26.88C1387.39 26.1867 1386.92 25.4133 1386.58 24.56C1386.25 23.6933 1386.08 22.8 1386.08 21.88C1386.08 20.9333 1386.26 20.0333 1386.6 19.18C1386.96 18.3267 1387.46 17.5667 1388.08 16.9C1388.72 16.22 1389.48 15.6867 1390.34 15.3C1391.21 14.9133 1392.16 14.72 1393.18 14.72C1394.24 14.72 1395.19 14.9267 1396.04 15.34C1396.91 15.74 1397.65 16.2867 1398.26 16.98C1398.89 17.6733 1399.37 18.4533 1399.7 19.32C1400.04 20.1733 1400.2 21.0467 1400.2 21.94C1400.2 22.8867 1400.03 23.7867 1399.68 24.64C1399.34 25.4933 1398.84 26.26 1398.2 26.94C1397.56 27.6067 1396.81 28.14 1395.94 28.54C1395.09 28.9267 1394.15 29.12 1393.12 29.12ZM1389.42 21.92C1389.42 22.4667 1389.5 23 1389.66 23.52C1389.82 24.0267 1390.06 24.48 1390.36 24.88C1390.68 25.28 1391.08 25.6 1391.54 25.84C1392.01 26.08 1392.54 26.2 1393.14 26.2C1393.77 26.2 1394.32 26.08 1394.78 25.84C1395.25 25.5867 1395.64 25.2533 1395.94 24.84C1396.25 24.4267 1396.48 23.9667 1396.62 23.46C1396.78 22.94 1396.86 22.4133 1396.86 21.88C1396.86 21.3333 1396.78 20.8067 1396.62 20.3C1396.46 19.7933 1396.22 19.34 1395.9 18.94C1395.58 18.5267 1395.19 18.2067 1394.72 17.98C1394.26 17.7533 1393.73 17.64 1393.14 17.64C1392.52 17.64 1391.97 17.76 1391.5 18C1391.05 18.24 1390.66 18.5667 1390.34 18.98C1390.04 19.38 1389.8 19.84 1389.64 20.36C1389.5 20.8667 1389.42 21.3867 1389.42 21.92ZM1407.97 29V14.8H1411.25V29H1407.97ZM1425.38 17.68H1421.06V29H1417.78V17.68H1413.44V14.8H1425.38V17.68ZM1436.11 18.96C1436.07 18.8933 1435.93 18.7933 1435.69 18.66C1435.45 18.5133 1435.15 18.36 1434.79 18.2C1434.43 18.04 1434.03 17.9 1433.61 17.78C1433.18 17.66 1432.75 17.6 1432.33 17.6C1431.77 17.6 1431.33 17.7 1431.03 17.9C1430.72 18.0867 1430.57 18.38 1430.57 18.78C1430.57 19.1 1430.68 19.3533 1430.91 19.54C1431.15 19.7267 1431.49 19.8933 1431.93 20.04C1432.37 20.1733 1432.91 20.3333 1433.55 20.52C1434.45 20.76 1435.24 21.0533 1435.91 21.4C1436.57 21.7333 1437.08 22.1667 1437.43 22.7C1437.79 23.2333 1437.97 23.94 1437.97 24.82C1437.97 25.62 1437.82 26.3 1437.53 26.86C1437.23 27.4067 1436.83 27.8533 1436.33 28.2C1435.83 28.5333 1435.27 28.78 1434.63 28.94C1433.99 29.0867 1433.33 29.16 1432.65 29.16C1431.95 29.16 1431.24 29.0933 1430.51 28.96C1429.79 28.8133 1429.09 28.6133 1428.43 28.36C1427.76 28.0933 1427.15 27.7733 1426.59 27.4L1428.03 24.54C1428.08 24.6067 1428.25 24.7333 1428.55 24.92C1428.84 25.0933 1429.2 25.28 1429.63 25.48C1430.07 25.6667 1430.55 25.8333 1431.09 25.98C1431.62 26.1267 1432.16 26.2 1432.71 26.2C1433.29 26.2 1433.73 26.1067 1434.01 25.92C1434.3 25.7333 1434.45 25.4733 1434.45 25.14C1434.45 24.78 1434.29 24.5 1433.99 24.3C1433.69 24.1 1433.29 23.92 1432.77 23.76C1432.26 23.6 1431.67 23.42 1431.01 23.22C1430.14 22.9533 1429.42 22.6533 1428.85 22.32C1428.29 21.9867 1427.87 21.58 1427.59 21.1C1427.32 20.62 1427.19 20.02 1427.19 19.3C1427.19 18.3 1427.42 17.46 1427.89 16.78C1428.37 16.0867 1429.01 15.5667 1429.81 15.22C1430.61 14.86 1431.48 14.68 1432.43 14.68C1433.09 14.68 1433.73 14.76 1434.35 14.92C1434.97 15.08 1435.55 15.28 1436.09 15.52C1436.63 15.76 1437.12 16 1437.55 16.24L1436.11 18.96ZM1445.1 29C1445.1 28.3733 1445.15 27.8133 1445.24 27.32C1445.35 26.8267 1445.51 26.38 1445.74 25.98C1445.98 25.5667 1446.29 25.1867 1446.68 24.84C1447.08 24.48 1447.58 24.14 1448.18 23.82C1448.81 23.4867 1449.33 23.2067 1449.74 22.98C1450.17 22.74 1450.51 22.54 1450.76 22.38C1451.01 22.22 1451.19 22.0667 1451.28 21.92C1451.39 21.76 1451.44 21.5867 1451.44 21.4C1451.44 21.1467 1451.38 20.9267 1451.26 20.74C1451.14 20.5533 1450.97 20.4133 1450.74 20.32C1450.51 20.2133 1450.23 20.16 1449.9 20.16C1449.63 20.16 1449.38 20.1933 1449.14 20.26C1448.9 20.3267 1448.67 20.4267 1448.44 20.56C1448.23 20.6933 1448.02 20.8533 1447.82 21.04C1447.62 21.2133 1447.42 21.4133 1447.22 21.64L1445.2 19.28C1445.43 19.0533 1445.71 18.8267 1446.06 18.6C1446.42 18.3733 1446.83 18.1733 1447.28 18C1447.73 17.8133 1448.23 17.6667 1448.76 17.56C1449.31 17.44 1449.87 17.38 1450.46 17.38C1451.42 17.38 1452.23 17.5267 1452.88 17.82C1453.55 18.1 1454.05 18.5 1454.4 19.02C1454.75 19.54 1454.92 20.1533 1454.92 20.86C1454.92 21.3133 1454.85 21.7133 1454.7 22.06C1454.57 22.3933 1454.39 22.6933 1454.16 22.96C1453.93 23.2267 1453.67 23.4667 1453.38 23.68C1453.1 23.8933 1452.82 24.0867 1452.54 24.26C1452.22 24.42 1451.92 24.58 1451.64 24.74C1451.36 24.8867 1451.1 25.0333 1450.86 25.18C1450.62 25.3133 1450.39 25.46 1450.18 25.62C1449.98 25.7667 1449.79 25.9333 1449.6 26.12H1455.14V29H1445.1ZM1467.96 23.14C1467.96 24.3133 1467.73 25.36 1467.28 26.28C1466.83 27.1867 1466.21 27.9 1465.42 28.42C1464.63 28.94 1463.74 29.2 1462.74 29.2C1461.75 29.2 1460.86 28.94 1460.06 28.42C1459.27 27.9 1458.65 27.1867 1458.2 26.28C1457.75 25.36 1457.52 24.3133 1457.52 23.14C1457.52 21.9667 1457.75 20.9267 1458.2 20.02C1458.65 19.1 1459.27 18.38 1460.06 17.86C1460.86 17.3267 1461.75 17.06 1462.74 17.06C1463.74 17.06 1464.63 17.3267 1465.42 17.86C1466.21 18.38 1466.83 19.1 1467.28 20.02C1467.73 20.9267 1467.96 21.9667 1467.96 23.14ZM1464.74 23.14C1464.74 22.5133 1464.65 21.9667 1464.48 21.5C1464.31 21.0333 1464.07 20.6667 1463.76 20.4C1463.47 20.1333 1463.13 20 1462.74 20C1462.34 20 1461.99 20.1333 1461.68 20.4C1461.37 20.6667 1461.13 21.0333 1460.96 21.5C1460.8 21.9667 1460.72 22.5133 1460.72 23.14C1460.72 23.7667 1460.8 24.3133 1460.96 24.78C1461.13 25.2467 1461.37 25.6133 1461.68 25.88C1461.99 26.1333 1462.34 26.26 1462.74 26.26C1463.13 26.26 1463.47 26.1333 1463.76 25.88C1464.07 25.6133 1464.31 25.2467 1464.48 24.78C1464.65 24.3133 1464.74 23.7667 1464.74 23.14ZM1470.19 29C1470.19 28.3733 1470.23 27.8133 1470.33 27.32C1470.43 26.8267 1470.6 26.38 1470.83 25.98C1471.07 25.5667 1471.38 25.1867 1471.77 24.84C1472.17 24.48 1472.67 24.14 1473.27 23.82C1473.89 23.4867 1474.41 23.2067 1474.83 22.98C1475.25 22.74 1475.59 22.54 1475.85 22.38C1476.1 22.22 1476.27 22.0667 1476.37 21.92C1476.47 21.76 1476.53 21.5867 1476.53 21.4C1476.53 21.1467 1476.47 20.9267 1476.35 20.74C1476.23 20.5533 1476.05 20.4133 1475.83 20.32C1475.6 20.2133 1475.32 20.16 1474.99 20.16C1474.72 20.16 1474.47 20.1933 1474.23 20.26C1473.99 20.3267 1473.75 20.4267 1473.53 20.56C1473.31 20.6933 1473.11 20.8533 1472.91 21.04C1472.71 21.2133 1472.51 21.4133 1472.31 21.64L1470.29 19.28C1470.51 19.0533 1470.8 18.8267 1471.15 18.6C1471.51 18.3733 1471.91 18.1733 1472.37 18C1472.82 17.8133 1473.31 17.6667 1473.85 17.56C1474.39 17.44 1474.96 17.38 1475.55 17.38C1476.51 17.38 1477.31 17.5267 1477.97 17.82C1478.63 18.1 1479.14 18.5 1479.49 19.02C1479.83 19.54 1480.01 20.1533 1480.01 20.86C1480.01 21.3133 1479.93 21.7133 1479.79 22.06C1479.65 22.3933 1479.47 22.6933 1479.25 22.96C1479.02 23.2267 1478.76 23.4667 1478.47 23.68C1478.19 23.8933 1477.91 24.0867 1477.63 24.26C1477.31 24.42 1477.01 24.58 1476.73 24.74C1476.45 24.8867 1476.19 25.0333 1475.95 25.18C1475.71 25.3133 1475.48 25.46 1475.27 25.62C1475.07 25.7667 1474.87 25.9333 1474.69 26.12H1480.23V29H1470.19ZM1482.39 29C1482.39 28.3733 1482.43 27.8133 1482.53 27.32C1482.63 26.8267 1482.8 26.38 1483.03 25.98C1483.27 25.5667 1483.58 25.1867 1483.97 24.84C1484.37 24.48 1484.87 24.14 1485.47 23.82C1486.09 23.4867 1486.61 23.2067 1487.03 22.98C1487.45 22.74 1487.79 22.54 1488.05 22.38C1488.3 22.22 1488.47 22.0667 1488.57 21.92C1488.67 21.76 1488.73 21.5867 1488.73 21.4C1488.73 21.1467 1488.67 20.9267 1488.55 20.74C1488.43 20.5533 1488.25 20.4133 1488.03 20.32C1487.8 20.2133 1487.52 20.16 1487.19 20.16C1486.92 20.16 1486.67 20.1933 1486.43 20.26C1486.19 20.3267 1485.95 20.4267 1485.73 20.56C1485.51 20.6933 1485.31 20.8533 1485.11 21.04C1484.91 21.2133 1484.71 21.4133 1484.51 21.64L1482.49 19.28C1482.71 19.0533 1483 18.8267 1483.35 18.6C1483.71 18.3733 1484.11 18.1733 1484.57 18C1485.02 17.8133 1485.51 17.6667 1486.05 17.56C1486.59 17.44 1487.16 17.38 1487.75 17.38C1488.71 17.38 1489.51 17.5267 1490.17 17.82C1490.83 18.1 1491.34 18.5 1491.69 19.02C1492.03 19.54 1492.21 20.1533 1492.21 20.86C1492.21 21.3133 1492.13 21.7133 1491.99 22.06C1491.85 22.3933 1491.67 22.6933 1491.45 22.96C1491.22 23.2267 1490.96 23.4667 1490.67 23.68C1490.39 23.8933 1490.11 24.0867 1489.83 24.26C1489.51 24.42 1489.21 24.58 1488.93 24.74C1488.65 24.8867 1488.39 25.0333 1488.15 25.18C1487.91 25.3133 1487.68 25.46 1487.47 25.62C1487.27 25.7667 1487.07 25.9333 1486.89 26.12H1492.43V29H1482.39Z" fill="white"/>
</svg>
