<svg width="272" height="251" viewBox="0 0 272 251" fill="none" xmlns="http://www.w3.org/2000/svg">
<path d="M192.22 169.93C175.451 169.935 159.371 176.6 147.515 188.459C135.66 200.319 129 216.401 129 233.17H255.46C255.46 224.865 253.824 216.641 250.646 208.969C247.468 201.296 242.81 194.325 236.937 188.452C231.065 182.58 224.094 177.922 216.421 174.744C208.748 171.565 200.525 169.93 192.22 169.93Z" fill="#EFDC70"/>
<path d="M192.22 169.93C175.451 169.935 159.371 176.6 147.515 188.459C135.66 200.319 129 216.401 129 233.17H255.46C255.46 224.865 253.824 216.641 250.646 208.969C247.468 201.296 242.81 194.325 236.937 188.452C231.065 182.58 224.094 177.922 216.421 174.744C208.748 171.565 200.525 169.93 192.22 169.93V169.93Z" stroke="#1D1D1B" stroke-width="2" stroke-miterlimit="10"/>
<path d="M192.221 213.64C188.508 213.64 184.947 212.165 182.321 209.539C179.696 206.914 178.221 203.353 178.221 199.64V175C178.221 171.287 179.696 167.726 182.321 165.101C184.947 162.475 188.508 161 192.221 161C195.934 161 199.495 162.475 202.12 165.101C204.746 167.726 206.221 171.287 206.221 175V199.64C206.221 203.353 204.746 206.914 202.12 209.539C199.495 212.165 195.934 213.64 192.221 213.64Z" fill="#EDB52B"/>
<path d="M150.22 217C150.464 216.143 150.536 215.245 150.433 214.36C150.33 213.474 150.053 212.618 149.618 211.839C149.184 211.061 148.6 210.376 147.9 209.824C147.2 209.271 146.398 208.862 145.54 208.62L135.27 205.66C131.125 214.237 128.981 223.644 129 233.17H145.62L150.22 217Z" fill="#EDB52B"/>
<path d="M234.219 217C233.729 215.268 233.947 213.413 234.825 211.841C235.702 210.27 237.168 209.111 238.899 208.62L249.179 205.71C253.324 214.288 255.471 223.693 255.459 233.22H238.819L234.219 217Z" fill="#EDB52B"/>
<path d="M192.221 213.64C188.508 213.64 184.947 212.165 182.321 209.539C179.696 206.914 178.221 203.353 178.221 199.64V175C178.221 171.287 179.696 167.726 182.321 165.101C184.947 162.475 188.508 161 192.221 161V161C195.934 161 199.495 162.475 202.12 165.101C204.746 167.726 206.221 171.287 206.221 175V199.64C206.221 203.353 204.746 206.914 202.12 209.539C199.495 212.165 195.934 213.64 192.221 213.64V213.64Z" stroke="#1D1D1B" stroke-width="2" stroke-miterlimit="10"/>
<path d="M150.22 217C150.464 216.143 150.536 215.245 150.433 214.36C150.33 213.474 150.053 212.618 149.618 211.839C149.184 211.061 148.6 210.376 147.9 209.824C147.2 209.271 146.398 208.862 145.54 208.62L135.27 205.66C131.125 214.237 128.981 223.644 129 233.17H145.62L150.22 217Z" stroke="#1D1D1B" stroke-width="2" stroke-miterlimit="10"/>
<path d="M234.219 217C233.729 215.268 233.947 213.413 234.825 211.841C235.702 210.27 237.168 209.111 238.899 208.62L249.179 205.71C253.324 214.288 255.471 223.693 255.459 233.22H238.819L234.219 217Z" stroke="#1D1D1B" stroke-width="2" stroke-miterlimit="10"/>
<path d="M266.18 233.17H118.26C115.907 233.17 114 235.077 114 237.43V245.16C114 247.513 115.907 249.42 118.26 249.42H266.18C268.533 249.42 270.44 247.513 270.44 245.16V237.43C270.44 235.077 268.533 233.17 266.18 233.17Z" fill="#EDB52B"/>
<path d="M266.18 233.17H118.26C115.907 233.17 114 235.077 114 237.43V245.16C114 247.513 115.907 249.42 118.26 249.42H266.18C268.533 249.42 270.44 247.513 270.44 245.16V237.43C270.44 235.077 268.533 233.17 266.18 233.17Z" stroke="#1D1D1B" stroke-width="2" stroke-miterlimit="10"/>
<path d="M206.086 227.502C213.74 219.848 213.74 207.438 206.086 199.783C198.431 192.129 186.021 192.129 178.367 199.783C170.713 207.438 170.713 219.848 178.367 227.502C186.021 235.156 198.431 235.156 206.086 227.502Z" fill="#454444"/>
<path d="M192.22 227.36C199.797 227.36 205.94 221.217 205.94 213.64C205.94 206.063 199.797 199.92 192.22 199.92C184.643 199.92 178.5 206.063 178.5 213.64C178.5 221.217 184.643 227.36 192.22 227.36Z" fill="#EDB52B"/>
<path opacity="0.3" d="M192.22 199.92C189.407 199.914 186.66 200.775 184.353 202.384C182.046 203.994 180.29 206.275 179.324 208.918C178.359 211.56 178.23 214.435 178.956 217.154C179.681 219.872 181.226 222.3 183.38 224.11L202.7 204.79C201.415 203.262 199.811 202.034 198 201.193C196.19 200.352 194.217 199.917 192.22 199.92Z" fill="#EDB52B"/>
<path d="M206.086 227.502C213.74 219.848 213.74 207.438 206.086 199.783C198.431 192.129 186.021 192.129 178.367 199.783C170.713 207.438 170.713 219.848 178.367 227.502C186.021 235.156 198.431 235.156 206.086 227.502Z" stroke="#1D1D1B" stroke-width="2" stroke-miterlimit="10"/>
<path d="M192.22 227.36C199.797 227.36 205.94 221.217 205.94 213.64C205.94 206.063 199.797 199.92 192.22 199.92C184.643 199.92 178.5 206.063 178.5 213.64C178.5 221.217 184.643 227.36 192.22 227.36Z" stroke="#1D1D1B" stroke-width="2" stroke-miterlimit="10"/>
<path opacity="0.3" d="M192.22 199.92C189.407 199.914 186.66 200.775 184.353 202.384C182.046 203.994 180.29 206.275 179.324 208.918C178.359 211.56 178.23 214.435 178.956 217.154C179.681 219.872 181.226 222.3 183.38 224.11L202.7 204.79C201.415 203.262 199.811 202.034 198 201.193C196.19 200.352 194.217 199.917 192.22 199.92V199.92Z" stroke="#1D1D1B" stroke-width="2" stroke-miterlimit="10"/>
<path d="M42.57 28.2373L26.831 10.4843L11.087 28.2373L-4.65197 10.4843L-18.4576 26.0567L-22.3242 21.6954L-4.65197 1.76172L11.087 19.5147L26.831 1.76172L42.57 19.5147L58.3089 1.76172L74.0529 19.5147L89.7919 1.76172L107.469 21.6954L103.598 26.0567L89.7919 10.4843L74.0529 28.2373L58.3089 10.4843L42.57 28.2373Z" fill="#65DB73" stroke="#231F20" stroke-width="2" stroke-miterlimit="10"/>
</svg>
