<svg width="417" height="641" viewBox="0 0 417 641" fill="none" xmlns="http://www.w3.org/2000/svg">
<g clip-path="url(#clip0_526_391)">
<path d="M117.307 438.365H117.065C112.916 438.263 108.963 435.69 106.218 431.241L101.229 423.228C100.238 421.633 99.0816 420.756 97.9568 420.756C96.8321 420.756 95.6819 421.633 94.6906 423.228L89.7022 431.241C86.9507 435.69 82.9981 438.231 78.8549 438.339H78.3783C74.2288 438.263 70.2762 435.69 67.5311 431.241L62.5427 423.228C61.5514 421.633 60.3694 420.756 59.2701 420.756C58.1708 420.756 56.9952 421.633 56.0038 423.228L51.0155 431.241C48.2957 435.69 44.3114 438.263 40.1682 438.358H39.6916C35.5421 438.27 31.5895 435.69 28.8443 431.241L23.856 423.228C22.8774 421.633 21.7018 420.756 20.5834 420.756C19.465 420.756 18.3021 421.633 17.3171 423.228L9.35483 436.045C7.80431 438.536 4.79859 439.108 2.64438 437.316C1.5835 436.355 0.892193 435.054 0.690252 433.637C0.488311 432.219 0.788457 430.776 1.53868 429.557L9.53275 416.74C12.3034 412.222 16.3449 409.636 20.5834 409.636C24.8219 409.636 28.8443 412.222 31.6721 416.74L36.6605 424.772C37.6327 426.342 38.7829 427.219 39.8823 427.238H39.9712C41.0769 427.238 42.2207 426.342 43.1994 424.772L48.1877 416.74C50.9901 412.222 55.0316 409.636 59.2701 409.636C63.5086 409.636 67.5311 412.222 70.3588 416.74L75.3472 424.772C76.3258 426.342 77.4696 427.219 78.5753 427.238H78.6579C79.7636 427.238 80.9075 426.342 81.8861 424.772L86.8744 416.74C89.6768 412.228 93.7183 409.636 97.9568 409.636C102.195 409.636 106.218 412.222 109.046 416.74L114.034 424.772C115.013 426.342 116.156 427.219 117.262 427.238H117.351C118.45 427.238 119.601 426.342 120.573 424.772L125.561 416.74C128.364 412.222 132.405 409.636 136.624 409.636C140.844 409.636 144.885 412.222 147.707 416.74L155.688 429.557C156.438 430.776 156.738 432.218 156.538 433.635C156.337 435.052 155.648 436.354 154.589 437.316C152.428 439.108 149.423 438.536 147.872 436.045L139.916 423.228C138.925 421.633 137.768 420.756 136.65 420.756C135.531 420.756 134.369 421.633 133.377 423.228L128.364 431.241C125.618 435.69 121.666 438.231 117.516 438.339L117.307 438.365Z" fill="#8E94DD" stroke="#231F20" stroke-width="2" stroke-miterlimit="10"/>
</g>
<g clip-path="url(#clip1_526_391)">
<path d="M259.559 274H247.199V136C247.199 134.361 247.85 132.789 249.009 131.63C250.168 130.471 251.74 129.82 253.379 129.82C255.018 129.82 256.59 130.471 257.749 131.63C258.908 132.789 259.559 134.361 259.559 136V274Z" fill="#C9C6C6"/>
<path d="M253.379 129.82C251.74 129.82 250.168 130.471 249.009 131.63C247.85 132.789 247.199 134.361 247.199 136V274H253.379V129.82Z" fill="#B4B3B3"/>
<path d="M161.579 274H149.219V136C149.219 134.361 149.87 132.789 151.029 131.63C152.188 130.471 153.76 129.82 155.399 129.82C157.038 129.82 158.61 130.471 159.769 131.63C160.928 132.789 161.579 134.361 161.579 136V274Z" fill="#C9C6C6"/>
<path d="M155.399 129.82C153.76 129.82 152.188 130.471 151.029 131.63C149.87 132.789 149.219 134.361 149.219 136V274H155.399V129.82Z" fill="#B4B3B3"/>
<path d="M259.559 274H247.199V136C247.199 134.361 247.85 132.789 249.009 131.63C250.168 130.471 251.74 129.82 253.379 129.82V129.82C255.018 129.82 256.59 130.471 257.749 131.63C258.908 132.789 259.559 134.361 259.559 136V274Z" stroke="#1D1D1B" stroke-width="2" stroke-miterlimit="10"/>
<path d="M253.379 129.82C251.74 129.82 250.168 130.471 249.009 131.63C247.85 132.789 247.199 134.361 247.199 136V274H253.379V129.82Z" stroke="#1D1D1B" stroke-width="2" stroke-miterlimit="10"/>
<path d="M161.579 274H149.219V136C149.219 134.361 149.87 132.789 151.029 131.63C152.188 130.471 153.76 129.82 155.399 129.82V129.82C157.038 129.82 158.61 130.471 159.769 131.63C160.928 132.789 161.579 134.361 161.579 136V274Z" stroke="#1D1D1B" stroke-width="2" stroke-miterlimit="10"/>
<path d="M155.399 129.82C153.76 129.82 152.188 130.471 151.029 131.63C149.87 132.789 149.219 134.361 149.219 136V274H155.399V129.82Z" stroke="#1D1D1B" stroke-width="2" stroke-miterlimit="10"/>
<path d="M284.539 147.12H124.229V175.14H284.539V147.12Z" fill="#EFDC70"/>
<path d="M134.429 147.12L124.229 157.32V175.14H128.229L156.249 147.12H134.429Z" fill="#454444"/>
<path d="M163.369 175.14L191.389 147.12H169.569L141.549 175.14H163.369Z" fill="#454444"/>
<path d="M198.509 175.14L226.529 147.12H204.709L176.689 175.14H198.509Z" fill="#454444"/>
<path d="M233.65 175.14L261.67 147.12H239.85L211.83 175.14H233.65Z" fill="#454444"/>
<path d="M268.789 175.14L284.549 159.39V147.12H274.989L246.969 175.14H268.789Z" fill="#454444"/>
<path d="M284.539 189.729H124.229V217.749H284.539V189.729Z" fill="#EFDC70"/>
<path d="M134.429 189.729L124.229 199.929V217.749H128.229L156.249 189.729H134.429Z" fill="#454444"/>
<path d="M163.369 217.749L191.389 189.729H169.569L141.549 217.749H163.369Z" fill="#454444"/>
<path d="M198.509 217.749L226.529 189.729H204.709L176.689 217.749H198.509Z" fill="#454444"/>
<path d="M233.65 217.749L261.67 189.729H239.85L211.83 217.749H233.65Z" fill="#454444"/>
<path d="M268.789 217.749L284.549 201.999V189.729H274.989L246.969 217.749H268.789Z" fill="#454444"/>
<path d="M136.499 139.92H132.359V147.13H136.499V139.92Z" stroke="#1D1D1B" stroke-width="2" stroke-miterlimit="10"/>
<path d="M140.639 139.92H132.359V147.13H140.639V139.92Z" fill="#C9C6C6"/>
<path d="M136.499 139.92H132.359V147.13H136.499V139.92Z" fill="#B4B3B3"/>
<path d="M140.639 139.92H132.359V147.13H140.639V139.92Z" stroke="#1D1D1B" stroke-width="2" stroke-miterlimit="10"/>
<path d="M147.534 133.018C148.549 126.928 144.434 121.168 138.344 120.153C132.253 119.138 126.493 123.253 125.478 129.343C124.463 135.434 128.578 141.194 134.669 142.209C140.759 143.223 146.519 139.109 147.534 133.018Z" fill="#454444"/>
<path d="M127.67 131.18C127.668 129.433 128.184 127.725 129.153 126.271C130.122 124.818 131.501 123.685 133.114 123.015C134.727 122.345 136.503 122.169 138.216 122.508C139.93 122.848 141.504 123.688 142.74 124.923C143.976 126.157 144.818 127.73 145.16 129.444C145.501 131.157 145.327 132.933 144.659 134.547C143.991 136.161 142.859 137.54 141.407 138.511C139.954 139.482 138.247 140 136.5 140C134.16 140 131.915 139.071 130.26 137.417C128.604 135.763 127.673 133.52 127.67 131.18Z" fill="#F08819"/>
<path opacity="0.3" d="M136.5 122.35C134.715 122.349 132.972 122.889 131.501 123.9C130.03 124.911 128.9 126.344 128.261 128.011C127.622 129.677 127.503 131.498 127.921 133.234C128.338 134.969 129.273 136.537 130.6 137.73L143.05 125.27C142.225 124.35 141.215 123.614 140.086 123.111C138.958 122.608 137.736 122.349 136.5 122.35Z" fill="white"/>
<path d="M277.509 139.92H269.229V147.13H277.509V139.92Z" fill="#C9C6C6"/>
<path d="M273.369 139.92H269.229V147.13H273.369V139.92Z" fill="#B4B3B3"/>
<path d="M273.369 139.92H269.229V147.13H273.369V139.92Z" stroke="#1D1D1B" stroke-width="2" stroke-miterlimit="10"/>
<path d="M277.509 139.92H269.229V147.13H277.509V139.92Z" stroke="#1D1D1B" stroke-width="2" stroke-miterlimit="10"/>
<path d="M281.845 138.46C285.869 133.777 285.335 126.719 280.651 122.695C275.968 118.671 268.91 119.205 264.886 123.888C260.862 128.572 261.396 135.63 266.079 139.654C270.763 143.678 277.821 143.144 281.845 138.46Z" fill="#454444"/>
<path d="M264.539 131.18C264.537 129.433 265.053 127.725 266.022 126.271C266.991 124.818 268.37 123.685 269.983 123.015C271.596 122.345 273.372 122.169 275.086 122.508C276.799 122.848 278.373 123.688 279.609 124.923C280.845 126.157 281.687 127.73 282.029 129.444C282.37 131.157 282.196 132.933 281.528 134.547C280.86 136.161 279.728 137.54 278.276 138.511C276.823 139.482 275.116 140 273.369 140C271.029 140 268.785 139.071 267.129 137.417C265.473 135.763 264.542 133.52 264.539 131.18Z" fill="#F08819"/>
<path opacity="0.3" d="M273.37 122.35C271.584 122.347 269.839 122.886 268.367 123.896C266.894 124.906 265.763 126.339 265.122 128.006C264.482 129.673 264.362 131.495 264.779 133.231C265.197 134.967 266.131 136.536 267.46 137.73L279.92 125.27C279.094 124.351 278.083 123.616 276.955 123.113C275.827 122.61 274.605 122.35 273.37 122.35Z" fill="white"/>
<path d="M284.31 147.16H124V175.18H284.31V147.16Z" stroke="#1D1D1B" stroke-width="2" stroke-miterlimit="10"/>
<path d="M284.31 189.77H124V217.79H284.31V189.77Z" stroke="#1D1D1B" stroke-width="2" stroke-miterlimit="10"/>
</g>
<path d="M563.045 161.004C578.513 217.493 643.367 267.94 673.078 301.861C700.259 332.846 744.179 406.779 731.619 447.351C718.939 487.75 671.837 518.894 623.335 509.735C602.245 505.709 582.751 495.026 561.731 490.735C494.272 476.982 440.267 531.08 374.608 543.009C298.9 556.667 219.029 511.732 166.764 456.83C133.689 421.877 106.543 380.139 104.558 336.424C102.573 292.709 131.914 248.084 180.125 239.607C223.638 232.01 281.809 250.243 306.34 218.787C323.399 196.823 309.679 165.579 311.945 138.283C315.473 95.6026 362.54 64.5908 411.725 64.3014C460.91 64.0121 509.246 89.4116 542.566 123.438C552.797 133.51 559.076 146.643 563.045 161.004Z" fill="url(#paint0_linear_526_391)"/>
<defs>
<linearGradient id="paint0_linear_526_391" x1="355" y1="429" x2="352.5" y2="541" gradientUnits="userSpaceOnUse">
<stop stop-color="#E9C3E7"/>
<stop offset="1" stop-color="#E9C3E7" stop-opacity="0"/>
</linearGradient>
<clipPath id="clip0_526_391">
<rect width="157.232" height="30" fill="white" transform="translate(0 409)"/>
</clipPath>
<clipPath id="clip1_526_391">
<rect width="162.31" height="155.04" fill="white" transform="translate(123 120)"/>
</clipPath>
</defs>
</svg>
