<svg width="82" height="83" viewBox="0 0 82 83" fill="none" xmlns="http://www.w3.org/2000/svg">
<path d="M26.9398 4.53473L30.6827 9.82935C30.8657 10.0876 31.1232 10.2826 31.4202 10.3878C31.7171 10.493 32.039 10.5033 32.342 10.4172C32.6449 10.3311 32.9141 10.1528 33.1129 9.90675C33.3116 9.66067 33.4302 9.35874 33.4525 9.04217L33.9017 2.57217C33.9241 2.21905 34.0663 1.88446 34.3044 1.62451C34.5424 1.36457 34.8619 1.1951 35.2092 1.14452C35.5565 1.09395 35.9105 1.16536 36.2118 1.34677C36.5131 1.52817 36.7434 1.80854 36.8639 2.14083L39.1097 8.22802C39.2192 8.52681 39.4179 8.78406 39.6783 8.96441C39.9387 9.14477 40.2481 9.23938 40.564 9.23524C40.8798 9.2311 41.1867 9.12842 41.4424 8.94131C41.698 8.7542 41.89 8.49184 41.9918 8.19028L44.0825 2.03839C44.1965 1.7057 44.4199 1.42236 44.7157 1.23543C45.0115 1.04849 45.3618 0.969226 45.7085 1.01079C46.0551 1.05236 46.3772 1.21225 46.6213 1.46392C46.8653 1.71559 47.0166 2.04387 47.0501 2.39424L47.6597 8.86424C47.6891 9.18089 47.815 9.48061 48.0199 9.72234C48.2249 9.96406 48.499 10.136 48.8046 10.2145C49.1103 10.293 49.4325 10.2743 49.7272 10.161C50.0219 10.0476 50.2747 9.84516 50.4508 9.58133L54.0547 4.18967C54.2503 3.89752 54.5392 3.68174 54.8734 3.57826C55.2075 3.47479 55.5667 3.48987 55.8912 3.62099C56.2157 3.75211 56.4858 3.99136 56.6566 4.29889C56.8274 4.60642 56.8885 4.96366 56.8299 5.31113L55.7604 11.711C55.7067 12.025 55.7508 12.348 55.8865 12.6357C56.0223 12.9234 56.2431 13.1616 56.5185 13.3176C56.794 13.4736 57.1106 13.5398 57.4249 13.507C57.7391 13.4742 58.0356 13.344 58.2736 13.1344L63.134 8.86963C63.3983 8.62723 63.7383 8.48575 64.0951 8.46972C64.452 8.45369 64.8032 8.56413 65.0877 8.78188C65.3722 8.99963 65.5722 9.31094 65.6529 9.66182C65.7336 10.0127 65.69 10.381 65.5295 10.7028L62.856 16.6336C62.7243 16.9229 62.6847 17.2462 62.7425 17.5591C62.8003 17.872 62.9527 18.1592 63.1788 18.3813C63.405 18.6034 63.6937 18.7495 64.0054 18.7996C64.3172 18.8496 64.6366 18.8012 64.92 18.6609L70.7055 15.8141C71.0194 15.6598 71.3762 15.6185 71.7166 15.697C72.0569 15.7755 72.3604 15.9692 72.5766 16.2457C72.7927 16.5222 72.9085 16.865 72.9047 17.2171C72.9009 17.5692 72.7777 17.9093 72.5556 18.181L68.4544 23.1845C68.2535 23.4294 68.1326 23.7309 68.1082 24.0478C68.0838 24.3647 68.1571 24.6814 68.3181 24.9546C68.479 25.2279 68.7198 25.4443 69.0074 25.5743C69.295 25.7043 69.6154 25.7415 69.9248 25.6808L76.2504 24.4462C76.5939 24.3755 76.951 24.4265 77.2616 24.5904C77.5722 24.7544 77.8172 25.0213 77.9554 25.3462C78.0936 25.671 78.1164 26.034 78.0201 26.3739C77.9238 26.7138 77.7143 27.0098 77.4267 27.2121L72.1813 30.9862C71.9252 31.1707 71.7317 31.4304 71.6274 31.7298C71.5231 32.0292 71.5129 32.3538 71.5983 32.6593C71.6837 32.9648 71.8605 33.2362 72.1045 33.4366C72.3486 33.6371 72.648 33.7567 72.9619 33.7791L79.3784 34.232C79.7286 34.2546 80.0604 34.398 80.3182 34.6381C80.576 34.8781 80.7441 35.2003 80.7942 35.5505C80.8444 35.9007 80.7736 36.2576 80.5937 36.5614C80.4138 36.8652 80.1357 37.0974 79.8062 37.219L73.7747 39.4835C73.4784 39.594 73.2233 39.7942 73.0444 40.0568C72.8655 40.3194 72.7717 40.6314 72.7758 40.9499C72.7799 41.2684 72.8817 41.5778 73.0673 41.8356C73.2529 42.0934 73.5131 42.287 73.8121 42.3896L79.8971 44.5031C80.227 44.6181 80.508 44.8434 80.6934 45.1417C80.8788 45.4399 80.9574 45.7932 80.9162 46.1427C80.875 46.4922 80.7164 46.817 80.4668 47.0631C80.2172 47.3092 79.8916 47.4618 79.5442 47.4955L73.1277 48.1102C72.8137 48.1399 72.5164 48.2668 72.2767 48.4735C72.037 48.6801 71.8665 48.9565 71.7886 49.2647C71.7107 49.5729 71.7293 49.8979 71.8417 50.195C71.9541 50.4922 72.1549 50.747 72.4165 50.9246L77.7636 54.5586C78.0524 54.7557 78.2657 55.0465 78.3681 55.3826C78.4706 55.7188 78.4559 56.0801 78.3267 56.4068C78.1975 56.7334 77.9615 57.0057 77.6578 57.1785C77.354 57.3513 77.0008 57.4143 76.6568 57.3569L70.3045 56.2785C69.9935 56.2258 69.6741 56.2713 69.3897 56.4087C69.1054 56.5461 68.8702 56.7688 68.7163 57.0462C68.5623 57.3236 68.4971 57.6423 68.5297 57.9585C68.5623 58.2747 68.691 58.573 68.8982 58.8126L73.1223 63.7136C73.3528 63.9794 73.4859 64.3169 73.4992 64.6698C73.5126 65.0226 73.4055 65.3693 73.1958 65.6521C72.9861 65.9348 72.6865 66.1365 72.3472 66.2233C72.0078 66.3101 71.6491 66.2769 71.3311 66.1291L65.4493 63.4333C65.1624 63.3005 64.8418 63.2606 64.5315 63.3188C64.2212 63.3771 63.9363 63.5308 63.7161 63.7588C63.4958 63.9868 63.3509 64.278 63.3013 64.5923C63.2516 64.9066 63.2997 65.2288 63.4388 65.5145L66.2621 71.3482C66.4151 71.6647 66.456 72.0245 66.3782 72.3678C66.3003 72.711 66.1083 73.017 65.834 73.235C65.5598 73.4529 65.2198 73.5697 64.8707 73.5658C64.5215 73.562 64.1842 73.4377 63.9147 73.2138L58.9473 69.0783C58.7044 68.8758 58.4054 68.7539 58.0911 68.7293C57.7769 68.7047 57.4628 68.7786 57.1918 68.9409C56.9208 69.1032 56.7062 69.346 56.5773 69.636C56.4483 69.926 56.4114 70.2491 56.4716 70.5611L57.7014 76.9394C57.768 77.2854 57.7151 77.6439 57.5514 77.9553C57.3877 78.2666 57.1232 78.5121 56.8019 78.6508C56.4806 78.7894 56.1219 78.8129 55.7855 78.7174C55.4491 78.6218 55.1553 78.413 54.953 78.1256L51.2101 72.8363C51.0278 72.576 50.77 72.379 50.4721 72.2725C50.1743 72.1659 49.851 72.1551 49.5467 72.2414C49.2425 72.3277 48.9723 72.5069 48.7732 72.7544C48.5741 73.0019 48.4559 73.3055 48.435 73.6235L47.9858 80.0935C47.9608 80.4443 47.8176 80.7758 47.58 81.0333C47.3424 81.2907 47.0246 81.4585 46.6795 81.5088C46.3343 81.5592 45.9825 81.4891 45.6823 81.3101C45.382 81.1311 45.1515 80.8541 45.0289 80.5249L42.7778 74.4431C42.6672 74.1461 42.4685 73.8908 42.2087 73.7119C41.949 73.533 41.6408 73.4392 41.3263 73.4434C41.0118 73.4475 40.7061 73.5493 40.4511 73.735C40.196 73.9206 40.004 74.1811 39.9011 74.4808L37.805 80.6165C37.6931 80.9523 37.47 81.2389 37.1732 81.4283C36.8764 81.6178 36.524 81.6984 36.1752 81.6566C35.8263 81.6149 35.5024 81.4533 35.2578 81.1991C35.0132 80.9449 34.8629 80.6135 34.8321 80.2607L34.2225 73.7907C34.1918 73.4804 34.0685 73.1869 33.8689 72.9487C33.6693 72.7105 33.4029 72.539 33.1046 72.4566C32.8064 72.3743 32.4904 72.3851 32.1984 72.4875C31.9063 72.5899 31.6519 72.7793 31.4688 73.0304L27.8702 78.4221C27.6747 78.7133 27.3863 78.9284 27.053 79.0317C26.7196 79.1349 26.3612 79.1202 26.0373 78.99C25.7134 78.8597 25.4433 78.6217 25.2719 78.3154C25.1006 78.0091 25.0382 77.653 25.0951 77.306L26.1645 70.9007C26.223 70.5854 26.1823 70.2595 26.0479 69.9688C25.9135 69.678 25.6922 69.4369 25.4151 69.2794C25.1379 69.1218 24.8188 69.0557 24.5026 69.0902C24.1863 69.1247 23.8886 69.2582 23.6514 69.4719L18.7909 73.7314C18.5273 73.9638 18.1926 74.0979 17.8427 74.1114C17.4928 74.1249 17.1489 74.0169 16.8685 73.8054C16.5881 73.594 16.3881 73.2919 16.302 72.9497C16.2159 72.6075 16.2489 72.2458 16.3954 71.9251L19.0689 65.9943C19.1868 65.7091 19.217 65.3946 19.1556 65.0919C19.0941 64.7891 18.9438 64.5119 18.7243 64.2963C18.5047 64.0807 18.2259 63.9366 17.9241 63.8827C17.6223 63.8288 17.3114 63.8676 17.0317 63.994L11.2408 66.8408C10.9269 66.9951 10.5702 67.0364 10.2298 66.9579C9.88937 66.8794 9.58587 66.6857 9.36972 66.4092C9.15357 66.1327 9.03779 65.7899 9.04161 65.4378C9.04544 65.0857 9.16864 64.7456 9.39075 64.4739L13.4919 59.465C13.6928 59.2201 13.8137 58.9186 13.8381 58.6017C13.8625 58.2849 13.7892 57.9681 13.6283 57.6949C13.4673 57.4216 13.2266 57.2052 12.9389 57.0752C12.6513 56.9452 12.3309 56.908 12.0215 56.9687L5.70128 58.2088C5.36006 58.277 5.00596 58.2259 4.69742 58.0639C4.38889 57.9019 4.14435 57.6386 4.00416 57.3176C3.86398 56.9966 3.83653 56.637 3.92635 56.2981C4.01616 55.9592 4.21787 55.6613 4.49819 55.4536L9.749 51.6795C10.0042 51.494 10.1968 51.2339 10.3005 50.9344C10.4042 50.6349 10.4142 50.3105 10.329 50.0051C10.2438 49.6997 10.0676 49.4281 9.82419 49.2271C9.58081 49.026 9.28204 48.9053 8.96833 48.8812L2.54117 48.4445C2.19332 48.4192 1.86449 48.2748 1.6092 48.0352C1.35392 47.7956 1.18751 47.4752 1.13758 47.1272C1.08765 46.7792 1.15719 46.4244 1.33467 46.1217C1.51216 45.819 1.78692 45.5865 2.1134 45.4629L8.15023 43.193C8.44471 43.0814 8.69791 42.8811 8.87532 42.6191C9.05274 42.3572 9.14574 42.0465 9.14165 41.7294C9.13756 41.4122 9.03657 41.104 8.85245 40.8469C8.66834 40.5897 8.41005 40.396 8.1128 40.2923L2.0225 38.1572C1.6942 38.04 1.4152 37.8137 1.23132 37.5154C1.04745 37.2172 0.969649 36.8648 1.0107 36.516C1.05175 36.1673 1.20922 35.8431 1.45722 35.5965C1.70523 35.35 2.02902 35.1958 2.37541 35.1594L8.79188 34.5447C9.10549 34.5141 9.40206 34.3865 9.64103 34.1795C9.88 33.9724 10.0497 33.696 10.127 33.3879C10.2042 33.0799 10.1852 32.7554 10.0726 32.4587C9.95993 32.162 9.75916 31.9076 9.49769 31.7303L4.15063 28.1017C3.85994 27.9045 3.64522 27.6126 3.5424 27.2749C3.43958 26.9371 3.45489 26.574 3.58576 26.2463C3.71664 25.9186 3.95516 25.6461 4.2614 25.4745C4.56765 25.3029 4.92305 25.2425 5.26817 25.3034L11.6151 26.3818C11.9255 26.4346 12.2445 26.3895 12.5285 26.2528C12.8126 26.116 13.0479 25.8942 13.2023 25.6176C13.3567 25.3411 13.4227 25.0232 13.3912 24.7074C13.3598 24.3916 13.2325 24.0932 13.0268 23.8531L8.79723 18.9467C8.55684 18.6802 8.41652 18.3374 8.40062 17.9775C8.38473 17.6177 8.49425 17.2636 8.7102 16.9767C8.92615 16.6898 9.23489 16.4881 9.58286 16.4068C9.93083 16.3254 10.2961 16.3694 10.6152 16.5312L16.497 19.227C16.7789 19.3394 17.0875 19.3648 17.3837 19.2999C17.6799 19.2351 17.9504 19.0829 18.1607 18.8628C18.3709 18.6427 18.5116 18.3645 18.5648 18.0636C18.618 17.7627 18.5813 17.4526 18.4594 17.1728L15.6361 11.3121C15.4831 10.9956 15.4421 10.6358 15.52 10.2925C15.5979 9.94932 15.7899 9.64329 16.0641 9.42533C16.3384 9.20738 16.6784 9.09063 17.0275 9.09449C17.3767 9.09835 17.714 9.22258 17.9835 9.44654L22.9455 13.5819C23.1884 13.7845 23.4875 13.9064 23.8017 13.931C24.1159 13.9556 24.4301 13.8817 24.701 13.7194C24.972 13.5571 25.1867 13.3143 25.3156 13.0243C25.4445 12.7343 25.4814 12.4112 25.4212 12.0992L24.1968 5.72629C24.1311 5.38132 24.1841 5.02407 24.3472 4.71366C24.5103 4.40325 24.7736 4.15829 25.0935 4.0193C25.4135 3.88032 25.7709 3.85566 26.1066 3.94939C26.4424 4.04312 26.7363 4.24962 26.9398 4.53473Z" fill="#8B0002" stroke="#8B0002" stroke-width="2" stroke-miterlimit="10"/>
<path d="M39.5003 53.9712C39.4844 54.7994 40.1429 55.4838 40.9712 55.4997C41.7994 55.5156 42.4838 54.8571 42.4997 54.0288L39.5003 53.9712ZM42.5808 26.9489C42.0064 26.352 41.0569 26.3337 40.4599 26.9082L30.7323 36.2689C30.1353 36.8433 30.1171 37.7929 30.6915 38.3898C31.2659 38.9867 32.2155 39.005 32.8124 38.4306L41.4592 30.1099L49.7799 38.7567C50.3543 39.3537 51.3039 39.3719 51.9008 38.7975C52.4977 38.2231 52.516 37.2735 51.9416 36.6766L42.5808 26.9489ZM42.4997 54.0288L42.9997 28.0178L40.0003 27.9602L39.5003 53.9712L42.4997 54.0288Z" fill="white"/>
</svg>
