<svg width="130" height="119" viewBox="0 0 130 119" fill="none" xmlns="http://www.w3.org/2000/svg">
<g clip-path="url(#clip0_409_516)">
<path d="M64.2896 10.76C89.4596 10.76 110.13 34.11 112.48 63.95C115.558 65.3724 118.353 67.3409 120.73 69.76V69.62C120.73 31.72 95.4596 1 64.2896 1C33.1196 1 7.84961 31.72 7.84961 69.62C7.84961 69.99 7.84961 70.35 7.84961 70.72C10.1702 68.1245 12.9544 65.9846 16.0596 64.41C18.2496 34.35 38.9996 10.76 64.2896 10.76Z" fill="#454444"/>
<path d="M0.740234 89.3701C0.740234 96.7962 3.69023 103.918 8.94125 109.169C14.1923 114.42 21.3142 117.37 28.7402 117.37V61.3701C21.3142 61.3701 14.1923 64.3201 8.94125 69.5711C3.69023 74.8221 0.740234 81.9441 0.740234 89.3701Z" fill="#EFDC70"/>
<path d="M32.1699 117.36V61.3604C33.9946 61.3604 35.7446 62.0852 37.0348 63.3755C38.3251 64.6657 39.0499 66.4157 39.0499 68.2403V110.45C39.0539 111.356 38.8788 112.254 38.5349 113.092C38.1909 113.931 37.6847 114.693 37.0455 115.335C36.4062 115.977 35.6464 116.486 34.8097 116.834C33.9731 117.181 33.0759 117.36 32.1699 117.36Z" fill="#C6AF3E"/>
<path d="M32.1705 61.3896H28.7305V117.36H32.1705V61.3896Z" fill="#454444"/>
<path d="M128.76 89.3701C128.76 96.7962 125.81 103.918 120.559 109.169C115.308 114.42 108.186 117.37 100.76 117.37V61.3701C108.186 61.3701 115.308 64.3201 120.559 69.5711C125.81 74.8221 128.76 81.9441 128.76 89.3701Z" fill="#EFDC70"/>
<path d="M97.3312 117.36C95.5065 117.36 93.7565 116.635 92.4663 115.345C91.176 114.054 90.4512 112.304 90.4512 110.48V68.2696C90.4512 66.445 91.176 64.695 92.4663 63.4048C93.7565 62.1145 95.5065 61.3896 97.3312 61.3896V117.36Z" fill="#C6AF3E"/>
<path d="M100.77 61.3896H97.3301V117.36H100.77V61.3896Z" fill="#454444"/>
<path d="M64.2896 10.76C89.4596 10.76 110.13 34.11 112.48 63.95C115.558 65.3724 118.353 67.3409 120.73 69.76V69.62C120.73 31.72 95.4596 1 64.2896 1C33.1196 1 7.84961 31.72 7.84961 69.62C7.84961 69.99 7.84961 70.35 7.84961 70.72C10.1702 68.1245 12.9544 65.9846 16.0596 64.41C18.2496 34.35 38.9996 10.76 64.2896 10.76Z" stroke="#1D1D1B" stroke-width="2" stroke-miterlimit="10"/>
<path d="M128.76 89.3701C128.76 96.7962 125.81 103.918 120.559 109.169C115.308 114.42 108.186 117.37 100.76 117.37V61.3701C108.186 61.3701 115.308 64.3201 120.559 69.5711C125.81 74.8221 128.76 81.9441 128.76 89.3701V89.3701Z" stroke="#1D1D1B" stroke-width="2" stroke-miterlimit="10"/>
<path d="M97.3312 117.36C95.5065 117.36 93.7565 116.635 92.4663 115.345C91.176 114.054 90.4512 112.304 90.4512 110.48V68.2696C90.4512 66.445 91.176 64.695 92.4663 63.4048C93.7565 62.1145 95.5065 61.3896 97.3312 61.3896V61.3896V117.36Z" stroke="#1D1D1B" stroke-width="2" stroke-miterlimit="10"/>
<path d="M100.77 61.3896H97.3301V117.36H100.77V61.3896Z" stroke="#1D1D1B" stroke-width="2" stroke-miterlimit="10"/>
<path d="M1 89.3701C1 96.7962 3.94999 103.918 9.20101 109.169C14.452 114.42 21.5739 117.37 29 117.37V61.3701C21.5739 61.3701 14.452 64.3201 9.20101 69.5711C3.94999 74.8221 1 81.9441 1 89.3701V89.3701Z" stroke="#1D1D1B" stroke-width="2" stroke-miterlimit="10"/>
<path d="M32.4297 117.36V61.3604C34.2544 61.3604 36.0043 62.0852 37.2946 63.3755C38.5848 64.6657 39.3097 66.4157 39.3097 68.2403V110.45C39.3136 111.356 39.1386 112.254 38.7946 113.092C38.4506 113.931 37.9445 114.693 37.3052 115.335C36.666 115.977 35.9062 116.486 35.0695 116.834C34.2328 117.181 33.3357 117.36 32.4297 117.36Z" stroke="#1D1D1B" stroke-width="2" stroke-miterlimit="10"/>
<path d="M32.4302 61.3896H28.9902V117.36H32.4302V61.3896Z" stroke="#1D1D1B" stroke-width="2" stroke-miterlimit="10"/>
</g>
<defs>
<clipPath id="clip0_409_516">
<rect width="129.76" height="118.36" fill="white"/>
</clipPath>
</defs>
</svg>
