<svg width="1512" height="1301" viewBox="0 0 1512 1301" fill="none" xmlns="http://www.w3.org/2000/svg">
<path d="M1100.17 136.856H1132.47L1164.55 223.055L1041.24 213.887C1041.24 213.887 1033.93 175.38 1054.09 139.161C1074.25 102.942 1100.17 136.856 1100.17 136.856Z" fill="#010101"/>
<path d="M1104.13 102.427L1147.59 208.433C1147.59 208.433 1169.16 249.76 1189.34 286.266H1221.74C1222.24 286.266 1222.71 286.266 1223.18 286.207C1228.05 285.845 1232.6 283.66 1235.92 280.088C1239.25 276.516 1241.1 271.82 1241.11 266.941V213.752C1236.97 209.277 1233.24 205.968 1231.29 204.845C1208.07 191.337 1197.24 203.215 1187.48 192.181C1174.46 177.449 1189.45 167.571 1182.48 147.84C1175.34 127.721 1160.05 128.135 1146 119.979C1133.01 112.499 1131.32 95.5464 1129.87 88.7416C1129.1 85.0944 1104.13 102.427 1104.13 102.427Z" fill="#010101"/>
<path d="M1128.53 98.0871C1129.86 95.1851 1130.32 91.9597 1129.86 88.8002C1129.37 85.7273 1128.6 82.7062 1127.55 79.775C1123.83 69.8718 1113.26 51.6525 1086.45 54.312C1049.96 57.9845 1054.1 123.483 1054.1 123.483L1119.34 118.501L1128.53 98.0871Z" fill="#010101"/>
<path d="M1066.71 182.683C1066.71 182.683 1068.75 186.643 1080.69 185.545C1099.07 183.856 1104.95 175.642 1104.95 175.642L1105.79 144.277L1100.16 145.366L1066.88 151.8L1066.82 167.098L1066.71 182.683Z" fill="#F8A792"/>
<path d="M1066.09 167.114C1074.84 166.27 1091.61 162.597 1098.43 148.355C1098.92 147.423 1099.25 146.42 1099.42 145.383L1066.14 151.816L1066.09 167.114Z" fill="#010101"/>
<path d="M1060.01 80.3585C1060.01 80.3585 1042.04 119.279 1048.09 141.272C1054.13 163.265 1074.7 159.956 1087.02 155.81C1099.34 151.665 1105.13 144.371 1105.13 144.371C1105.13 144.371 1116.54 148.237 1124.33 137.912C1132.13 127.587 1127.54 115.607 1121.03 112.829C1114.52 110.051 1106.68 114.593 1106.68 114.593L1112.91 103.289C1112.91 103.289 1087.92 45.389 1060.01 80.3585Z" fill="#F8A792"/>
<path d="M1084.32 101.034C1084.55 101.035 1084.79 100.977 1084.99 100.865C1085.34 100.685 1085.6 100.374 1085.72 100.001C1085.84 99.6276 1085.81 99.222 1085.63 98.8724C1082.9 93.5704 1076.2 94.9466 1075.93 95.0141C1075.74 95.0546 1075.56 95.1321 1075.4 95.2422C1075.24 95.3524 1075.11 95.493 1075 95.6561C1074.89 95.8192 1074.82 96.0015 1074.79 96.1926C1074.75 96.3838 1074.75 96.58 1074.79 96.7702C1074.83 96.9603 1074.91 97.1406 1075.02 97.3008C1075.13 97.461 1075.27 97.5979 1075.44 97.7037C1075.6 97.8096 1075.78 97.8823 1075.97 97.9176C1076.16 97.953 1076.36 97.9504 1076.55 97.9099C1076.74 97.8593 1081.31 96.9475 1083 100.232C1083.13 100.473 1083.31 100.675 1083.55 100.817C1083.78 100.958 1084.05 101.033 1084.32 101.034V101.034Z" fill="#010101"/>
<path d="M1056.47 96.5337C1056.71 96.5326 1056.95 96.4737 1057.16 96.362C1057.38 96.2504 1057.56 96.0892 1057.7 95.8921C1057.98 95.4869 1059 94.3302 1059.97 94.3302C1060.77 94.3302 1061.52 95.1745 1062 95.8921C1062.11 96.0523 1062.25 96.1891 1062.42 96.2947C1062.58 96.4003 1062.77 96.4726 1062.96 96.5075C1063.15 96.5424 1063.35 96.5391 1063.54 96.498C1063.73 96.4569 1063.91 96.3787 1064.07 96.2678C1064.23 96.1569 1064.36 96.0156 1064.47 95.8519C1064.57 95.6881 1064.65 95.5052 1064.68 95.3135C1064.72 95.1218 1064.71 94.9251 1064.67 94.7347C1064.63 94.5443 1064.55 94.3638 1064.44 94.2036C1063.15 92.3124 1061.65 91.3584 1059.97 91.3584C1057.26 91.3584 1055.44 93.8912 1055.25 94.212C1055.03 94.5357 1054.95 94.9335 1055.02 95.3182C1055.09 95.7028 1055.31 96.0428 1055.64 96.2636C1055.88 96.4344 1056.17 96.5284 1056.47 96.5337V96.5337Z" fill="#010101"/>
<path d="M1107.21 114.526C1107.21 114.526 1090.12 114.982 1078.51 96.2981C1066.89 77.6145 1068.21 72.8697 1068.21 72.8697L1056.54 92.178C1056.54 92.178 1053.94 78.7796 1059.29 70.2272C1064.64 61.6747 1070.19 63.473 1070.19 63.473L1107.22 72.7599L1116.97 102.436L1107.21 114.526Z" fill="#010101"/>
<path d="M1062.81 130.938C1063.2 130.94 1063.57 130.789 1063.85 130.517C1064.13 130.245 1064.29 129.874 1064.29 129.486C1064.4 121.938 1068.87 112.094 1068.92 111.993C1069.08 111.631 1069.1 111.219 1068.96 110.847C1068.89 110.662 1068.78 110.494 1068.65 110.35C1068.51 110.206 1068.35 110.09 1068.17 110.009C1067.81 109.844 1067.4 109.83 1067.03 109.969C1066.66 110.108 1066.35 110.39 1066.19 110.752C1066 111.174 1061.4 121.271 1061.29 129.435C1061.29 129.629 1061.33 129.822 1061.4 130.002C1061.47 130.182 1061.58 130.346 1061.71 130.485C1061.85 130.624 1062.01 130.734 1062.19 130.811C1062.37 130.887 1062.56 130.927 1062.75 130.929L1062.81 130.938Z" fill="#010101"/>
<path d="M1108.63 131.014C1108.83 131.014 1109.03 130.974 1109.21 130.897C1109.39 130.821 1109.56 130.708 1109.7 130.566L1120.39 119.591C1120.53 119.452 1120.63 119.287 1120.71 119.107C1120.78 118.927 1120.81 118.734 1120.81 118.54C1120.81 118.346 1120.77 118.154 1120.69 117.976C1120.61 117.798 1120.5 117.636 1120.36 117.501C1120.22 117.366 1120.06 117.259 1119.88 117.188C1119.7 117.116 1119.51 117.08 1119.31 117.083C1119.12 117.086 1118.93 117.127 1118.75 117.204C1118.57 117.28 1118.41 117.392 1118.27 117.531L1107.56 128.481C1107.42 128.617 1107.31 128.78 1107.24 128.959C1107.16 129.138 1107.12 129.33 1107.12 129.523C1107.12 129.717 1107.16 129.909 1107.24 130.088C1107.31 130.267 1107.42 130.43 1107.56 130.566C1107.7 130.711 1107.86 130.825 1108.05 130.902C1108.23 130.98 1108.43 131.017 1108.63 131.014V131.014Z" fill="#010101"/>
<path d="M1121.47 131.013C1121.82 131.013 1122.16 130.889 1122.42 130.664C1122.69 130.439 1122.87 130.128 1122.93 129.784C1122.98 129.441 1122.92 129.088 1122.74 128.788C1122.57 128.487 1122.29 128.259 1121.96 128.143L1112.4 124.766C1112.21 124.702 1112.02 124.674 1111.82 124.685C1111.63 124.696 1111.44 124.745 1111.26 124.829C1111.09 124.913 1110.93 125.031 1110.8 125.176C1110.67 125.321 1110.57 125.49 1110.51 125.674C1110.44 125.857 1110.42 126.051 1110.43 126.246C1110.44 126.44 1110.49 126.63 1110.57 126.805C1110.66 126.98 1110.77 127.137 1110.92 127.267C1111.06 127.396 1111.23 127.496 1111.42 127.56L1120.98 130.938C1121.14 130.991 1121.31 131.017 1121.47 131.013V131.013Z" fill="#010101"/>
<path d="M1056.9 113.284C1056.7 113.281 1056.5 113.237 1056.31 113.154C1056.13 113.071 1055.96 112.952 1055.82 112.803C1055.68 112.653 1055.58 112.478 1055.51 112.286C1055.44 112.095 1055.41 111.891 1055.42 111.689L1056.04 104.09C1056.08 103.702 1056.27 103.344 1056.57 103.091C1056.86 102.838 1057.25 102.709 1057.64 102.731C1058.03 102.765 1058.39 102.952 1058.64 103.251C1058.89 103.55 1059.02 103.936 1058.99 104.327L1058.38 111.883C1058.36 112.261 1058.2 112.618 1057.92 112.879C1057.65 113.139 1057.28 113.285 1056.9 113.284V113.284Z" fill="#010101"/>
<path d="M1079.28 114.204C1079.08 114.201 1078.88 114.157 1078.69 114.074C1078.51 113.991 1078.34 113.871 1078.2 113.722C1078.06 113.573 1077.96 113.397 1077.89 113.206C1077.82 113.014 1077.79 112.811 1077.81 112.608L1078.42 105.052C1078.46 104.663 1078.64 104.303 1078.94 104.049C1079.24 103.795 1079.62 103.667 1080.01 103.693C1080.4 103.725 1080.76 103.911 1081.02 104.21C1081.27 104.509 1081.4 104.897 1081.37 105.288L1080.75 112.845C1080.72 113.215 1080.56 113.561 1080.28 113.813C1080.01 114.065 1079.65 114.205 1079.28 114.204V114.204Z" fill="#010101"/>
<path d="M1076.32 68.8086C1078.36 73.8151 1090.27 101.921 1111.82 104.318C1113.79 104.533 1115.77 104.533 1117.73 104.318" stroke="#3D3D3C" stroke-width="0.25" stroke-miterlimit="10"/>
<path d="M1145.27 134.931C1152.49 136.923 1163.2 141.144 1166.92 150.431C1167.19 151.115 1167.59 152.23 1168.28 158.688C1170.24 176.992 1168.56 182.058 1171.33 189.994C1173.14 195.054 1176.08 199.641 1179.9 203.417" stroke="#3D3D3C" stroke-width="0.25" stroke-miterlimit="10"/>
<path d="M1077.98 604.3H1051.35V704.886H1077.98V604.3Z" fill="#F9B2A1"/>
<path d="M1148.98 604.3H1122.35V704.886H1148.98V604.3Z" fill="#F9B2A1"/>
<path d="M1155.61 633.352L1173.08 372.474L1034.45 358.535L1040.26 638.417C1040.26 638.417 1066.62 653.935 1085.12 636.45C1085.12 636.45 1095.9 442.556 1099.1 442.413C1102.3 442.269 1113.95 635.192 1113.95 635.192C1113.95 635.192 1136.96 647.527 1155.75 636.704" fill="#F0E1BA"/>
<path d="M1066.93 181.442C1066.93 181.442 1081.6 190.61 1106.01 172.357C1106.01 172.357 1142.63 186.963 1142.63 205.216C1142.63 223.469 1160.94 325.676 1145.69 362.182C1145.69 362.182 1096.85 387.738 1032.77 362.182C1032.77 362.182 1032.77 197.913 1048.03 190.61C1063.29 183.308 1066.93 181.442 1066.93 181.442Z" fill="#CCBCBC"/>
<path d="M1053.02 249.278C1053.02 249.278 1068.72 258.16 1121.07 243.368" stroke="#C8967D" stroke-miterlimit="10"/>
<path d="M1053.02 269.988C1053.02 269.988 1068.72 278.87 1121.07 264.078" stroke="#C8967D" stroke-miterlimit="10"/>
<path d="M1053.02 311.408C1053.02 311.408 1068.72 320.281 1121.07 305.498" stroke="#C8967D" stroke-miterlimit="10"/>
<path d="M1055.98 332.118C1055.98 332.118 1071.69 340.991 1124.03 326.208" stroke="#C8967D" stroke-miterlimit="10"/>
<path d="M1053.02 290.698C1053.02 290.698 1068.72 299.58 1121.07 284.788" stroke="#C8967D" stroke-miterlimit="10"/>
<path d="M1053.02 228.568C1053.02 228.568 1068.72 237.45 1121.07 222.658" stroke="#C8967D" stroke-miterlimit="10"/>
<path d="M1050.06 207.841C1050.06 207.841 1065.77 216.723 1118.11 201.932" stroke="#C8967D" stroke-miterlimit="10"/>
<path d="M968.635 136.215C970.416 142.851 973.582 153.311 973.582 153.311C973.422 156.216 972.839 168.289 972.164 183.089L993.676 173.895C993.676 173.895 992.832 149.833 993.803 148.339C994.588 147.072 996.006 148.592 1002.44 138.917C1004.3 136.122 1004.54 131.2 1004.54 131.2C1004.54 131.2 1004.8 125.147 1003.43 124.615C1002.78 124.412 1002.09 124.448 1001.47 124.716C1000.85 124.984 1000.34 125.467 1000.05 126.075C999.577 127.131 999.763 129.562 999.29 130.617C998.817 131.673 995.711 133.007 994.394 132.973C993.076 132.939 994.14 115.083 994.14 115.083C994.14 115.083 994.765 110.017 995.103 108.329C995.39 106.911 996.58 102.748 996.58 102.748C996.58 102.748 997.948 96.7118 996.074 96.2981C994.968 96.0533 992.283 100.992 990.485 106.201C988.551 111.824 987.513 117.751 986.922 117.692C985.529 117.531 986.078 107.746 986.078 107.746C986.078 107.746 987.352 103.238 987.268 101.127C988.517 98.5101 989.269 93.6893 986.964 93.3432C986.542 93.2841 983.646 99.4472 983.646 99.4472C983.646 99.4472 982.557 103.77 981.907 105.796C980.767 109.359 980.716 114.956 980.134 117.439C979.644 119.499 979.146 118.663 978.935 118.756C978.724 118.848 978.994 115.995 979.247 112.094C979.366 110.136 979.095 107.873 979.585 105.636C980.012 103.384 980.271 101.104 980.362 98.814C980.615 93.7484 977.449 94.3394 976.453 98.9829C976.073 100.756 975.676 102.689 975.288 104.648C973.751 112.246 973.962 119.558 973.152 119.642C972.088 119.743 972.485 106.438 972.485 106.438C972.485 106.438 970.687 99.118 969.226 105.982C968.18 110.811 967.738 115.751 967.909 120.689C968.103 122.639 966.862 129.587 968.635 136.215Z" fill="#F9B2A1"/>
<path d="M1062.81 144.209C1062.81 144.209 1074.14 150.676 1078.48 134.542Z" fill="#010101"/>
<path d="M1064.71 180.479C1041.46 190.792 1021.65 207.546 1007.62 228.762C1007.43 226.525 1007.05 222.008 1006.86 219.695C1003.98 185.359 1003.82 184.793 1003.84 180.403C1003.84 175.624 1004.11 162.521 1004.26 155.826C1004.26 155.598 1004.26 155.472 1004.26 155.472C997.619 155.776 990.401 155.826 982.676 155.472C975.921 155.168 969.632 154.627 963.781 153.851L963.452 248.408C963.198 250.671 961.611 267.109 972.848 277.113C976.212 280.251 980.41 282.35 984.938 283.158C993.381 284.509 1000.18 280.313 1005.34 277.113C1010.69 273.785 1015.32 269.419 1018.95 264.272L1017.86 387.433C1017.86 387.433 1068.83 412.643 1181.25 388.7L1171.72 209.429C1171.72 209.429 1159.9 172.999 1104.18 171.605C1104.18 171.605 1089.28 230.653 1088.52 268.434C1088.51 268.434 1077.93 189.994 1064.71 180.479Z" fill="#7A7B80"/>
<path d="M1181.41 388.954C1164.95 392.905 1148.23 395.7 1131.38 397.32C1123.58 398.063 1116.07 398.536 1108.87 398.781C1110.94 389.629 1119.94 354.879 1152.05 335.968C1160.21 331.207 1169.11 327.851 1178.38 326.039C1179.39 346.999 1180.4 367.971 1181.41 388.954Z" fill="#E8E9EC"/>
<path d="M1182.31 232.959C1182.18 232.967 1182.06 232.967 1181.93 232.959L1108.12 232.528C1108.12 219.391 1107.81 205.81 1107.21 191.784C1106.89 184.675 1106.49 177.69 1106.01 170.829C1106.01 170.829 1169.81 173.227 1182.31 232.959Z" fill="#7A7B80"/>
<path d="M1087.58 300.55L1091.61 398.78" stroke="#575960" stroke-width="0.75" stroke-miterlimit="10"/>
<path d="M1065.8 180.403L1048.46 213.65L1087.75 304.325C1088.07 291.458 1088.39 278.586 1088.7 265.708C1081.06 237.262 1073.42 208.827 1065.8 180.403Z" fill="#575960"/>
<path d="M1111.51 236.985C1114.87 239.218 1118.81 240.409 1122.84 240.409C1126.88 240.409 1130.82 239.218 1134.18 236.985C1132.39 240.258 1131.46 243.926 1131.46 247.653C1131.46 251.38 1132.39 255.047 1134.18 258.32C1130.82 256.093 1126.88 254.905 1122.84 254.905C1118.81 254.905 1114.87 256.093 1111.51 258.32C1113.26 255.037 1114.18 251.374 1114.18 247.653C1114.18 243.932 1113.26 240.268 1111.51 236.985V236.985Z" fill="#E8EB8F"/>
<path d="M1087.71 305.084L1127.75 211.371L1105.87 172.096C1103.66 180.904 1101.62 189.983 1099.72 199.332C1092.69 234.172 1088.67 269.554 1087.71 305.084V305.084Z" fill="#575960"/>
<path d="M1065.47 180.479L1049.93 212.139L1087.71 302.061L1090.17 264.196C1090.17 264.196 1071.94 175.261 1065.47 180.479Z" fill="#213D73"/>
<path d="M1087.71 302.813C1100.56 272.093 1113.4 241.365 1126.24 210.628L1104.33 171.336C1102.12 180.116 1100.07 189.198 1098.19 198.58C1091.37 232.91 1087.87 267.814 1087.71 302.813V302.813Z" fill="#213D73"/>
<path d="M1126.24 210.627L1120.22 200.049L1087.71 302.061L1126.24 210.627Z" fill="#848484"/>
<path d="M1054.99 292.335L1093.46 407.721C1093.46 407.721 1099.37 416.594 1108.25 410.676L1179.25 378.138C1180.61 377.555 1181.84 376.71 1182.88 375.651C1183.91 374.592 1184.72 373.34 1185.27 371.966C1185.82 370.593 1186.09 369.124 1186.07 367.645C1186.06 366.166 1185.75 364.706 1185.16 363.346C1172.35 330.803 1159.53 298.259 1146.71 265.716C1146.28 263.782 1144.92 258.869 1140.8 256.834C1137.57 255.255 1134.19 256.175 1131.92 256.834C1118.92 260.591 1107.05 265.057 1105.3 265.716C1101.92 266.973 1096.14 268.527 1084.59 271.625C1075.35 274.107 1067.32 276.066 1060.95 277.535C1060.43 277.738 1055.57 279.697 1054.19 284.872C1053.56 287.376 1053.85 290.022 1054.99 292.335V292.335Z" fill="#A9A8A8"/>
<path d="M1057.96 292.335C1070.76 330.8 1083.58 369.262 1096.41 407.721C1096.41 407.721 1102.32 416.594 1111.21 410.676L1182.22 378.138C1183.58 377.555 1184.81 376.71 1185.84 375.651C1186.87 374.592 1187.69 373.34 1188.24 371.966C1188.78 370.593 1189.06 369.124 1189.04 367.645C1189.02 366.166 1188.71 364.706 1188.13 363.346C1175.3 330.803 1162.48 298.259 1149.66 265.716C1149.23 263.782 1147.87 258.869 1143.75 256.834C1140.54 255.255 1137.16 256.175 1134.88 256.834C1121.88 260.591 1110.01 265.057 1108.25 265.716C1104.87 266.973 1099.09 268.527 1087.54 271.625C1078.31 274.107 1070.28 276.066 1063.9 277.535C1063.38 277.738 1058.52 279.697 1057.15 284.872C1056.52 287.377 1056.81 290.024 1057.96 292.335V292.335Z" fill="#D8D7D9"/>
<path d="M1124.52 339.674C1130.24 339.674 1134.87 335.04 1134.87 329.323C1134.87 323.607 1130.24 318.973 1124.52 318.973C1118.8 318.973 1114.17 323.607 1114.17 329.323C1114.17 335.04 1118.8 339.674 1124.52 339.674Z" fill="#A9A8A8"/>
<path d="M1128.34 380.511C1134.3 376.011 1143.53 368.523 1143.53 368.523C1146.53 367.501 1158.94 363.145 1174.15 357.775L1156.07 339.826C1156.07 339.826 1132.13 350.498 1130.24 350.168C1128.63 349.89 1129.59 347.838 1117.19 345.305C1113.61 344.579 1108.55 346.344 1108.55 346.344C1108.55 346.344 1102.33 348.564 1102.36 350.16C1102.42 350.893 1102.74 351.58 1103.27 352.095C1103.79 352.611 1104.49 352.922 1105.22 352.971C1106.48 352.971 1108.85 351.832 1110.11 351.874C1111.37 351.916 1113.98 354.5 1114.49 355.85C1115 357.201 1096.54 363.449 1096.54 363.449C1096.54 363.449 1091.17 364.901 1089.36 365.239C1087.81 365.526 1083.13 366.032 1083.13 366.032C1083.13 366.032 1076.48 367.121 1076.83 369.181C1077.03 370.397 1083.11 371.081 1089.11 370.769C1095.57 370.422 1101.98 369.038 1102.16 369.663C1102.57 371.123 1092.49 374.618 1092.49 374.618C1092.49 374.618 1087.42 375.176 1085.32 376.121C1082.17 375.935 1077 377.151 1077.6 379.616C1077.71 380.072 1085.11 380.461 1085.11 380.461C1085.11 380.461 1089.91 379.794 1092.22 379.616C1096.29 379.304 1101.95 377.084 1104.69 376.645C1106.97 376.29 1106.33 377.134 1106.51 377.32C1106.69 377.506 1103.7 378.384 1099.66 379.726C1097.64 380.402 1095.44 381.609 1093.01 382.023C1090.57 382.52 1088.16 383.194 1085.81 384.04C1080.6 385.856 1082.49 388.81 1087.58 387.907C1089.53 387.569 1091.64 387.173 1093.77 386.776C1102.08 385.205 1109.36 381.997 1109.77 382.791C1110.31 383.812 1096.73 388.861 1096.73 388.861C1096.73 388.861 1090.07 393.673 1097.57 392.331C1102.87 391.418 1108.04 389.844 1112.95 387.645C1114.85 386.615 1122.38 385.02 1128.34 380.511Z" fill="#F9B2A1"/>
<path d="M1164.33 703.324C1162.64 704.506 1155.65 705.561 1147.04 706.448C1129.87 708.212 1106.37 709.284 1106.37 709.284L1117.78 687.139L1116.65 683.906C1116.49 683.422 1116.44 682.905 1116.52 682.401C1116.61 681.897 1116.81 681.421 1117.12 681.015C1117.43 680.609 1117.84 680.286 1118.31 680.075C1118.77 679.863 1119.28 679.77 1119.79 679.803L1136.78 680.959L1147.28 669.562C1147.44 669.306 1147.67 669.097 1147.94 668.955C1148.21 668.813 1148.51 668.743 1148.81 668.753C1149.12 668.762 1149.41 668.85 1149.67 669.008C1149.93 669.166 1150.15 669.389 1150.29 669.655C1153 674.484 1158.45 684.455 1161.85 692.332C1164.26 697.887 1165.63 702.404 1164.33 703.324Z" fill="#E0E1E0"/>
<path d="M1164.33 703.324C1164.33 703.324 1137.24 728.652 1132.93 729.547C1128.62 730.442 1087.49 733.54 1086.64 730.923C1085.79 728.306 1087.62 725.199 1090.43 722.058C1096.25 715.574 1106.37 709.285 1106.37 709.285L1146.05 695.776L1154.64 699.339L1164.33 703.324Z" fill="#E0E1E0"/>
<path d="M1164.33 703.324C1164.33 703.324 1137.24 728.652 1132.93 729.547C1128.62 730.442 1087.49 733.541 1086.64 730.923C1085.79 728.306 1087.62 725.199 1090.43 722.059C1100.56 721.561 1126.62 720.167 1131.09 718.994C1133.57 718.344 1140.33 712.62 1147.05 706.448C1149.67 704.042 1152.3 701.577 1154.64 699.306C1157.61 696.477 1160.17 693.978 1161.84 692.332C1164.26 697.887 1165.64 702.404 1164.33 703.324Z" fill="#0C1B3F"/>
<path d="M1113.47 696.013C1113.38 695.987 1113.3 695.931 1113.24 695.855C1113.18 695.779 1113.15 695.686 1113.15 695.591C1113.15 695.495 1113.18 695.402 1113.24 695.326C1113.3 695.25 1113.38 695.195 1113.47 695.168L1123.25 694.839C1123.3 694.835 1123.36 694.842 1123.42 694.861C1123.47 694.88 1123.52 694.911 1123.57 694.95C1123.61 694.99 1123.64 695.038 1123.67 695.092C1123.69 695.145 1123.7 695.203 1123.7 695.261C1123.7 695.319 1123.69 695.377 1123.67 695.431C1123.65 695.485 1123.62 695.534 1123.58 695.577C1123.55 695.619 1123.5 695.653 1123.45 695.677C1123.39 695.702 1123.34 695.715 1123.28 695.717L1113.5 696.038L1113.47 696.013Z" fill="#5D6AA4"/>
<path d="M1081.13 709.268C1080.96 714.097 1080.36 717.61 1079 717.888C1073 719.096 1013.36 721.865 1010.27 721.088C1007.18 720.311 997.746 719.838 997.805 713.971C997.858 712.818 998.271 711.71 998.987 710.805C1001.93 706.752 1009.46 704.253 1009.46 704.253L1042.92 684.312C1042.92 684.312 1043.05 682.699 1043.2 680.935C1043.24 680.425 1043.41 679.933 1043.69 679.504C1043.97 679.074 1044.35 678.721 1044.8 678.475C1045.24 678.228 1045.75 678.098 1046.26 678.094C1046.77 678.09 1047.27 678.213 1047.73 678.453L1062.81 686.313L1077.02 680.116C1077.27 679.948 1077.57 679.848 1077.87 679.827C1078.17 679.805 1078.47 679.863 1078.75 679.994C1079.02 680.126 1079.26 680.326 1079.43 680.575C1079.6 680.824 1079.71 681.114 1079.73 681.416C1080.31 687.461 1081.43 700.522 1081.13 709.268Z" fill="#E0E1E0"/>
<path d="M1081.13 709.268C1080.96 714.097 1080.36 717.609 1079 717.888C1073 719.095 1013.36 721.864 1010.27 721.087C1007.18 720.311 997.746 719.838 997.805 713.97C997.858 712.817 998.271 711.71 998.987 710.804C1007.62 711.802 1016.3 712.301 1024.98 712.299C1040.02 712.425 1072.25 709.96 1081.13 709.268Z" fill="#0C1B3F"/>
<path d="M1043.39 692.559C1043.31 692.559 1043.24 692.539 1043.17 692.5L1036.46 688.397C1036.41 688.371 1036.36 688.333 1036.32 688.286C1036.27 688.24 1036.24 688.185 1036.23 688.125C1036.21 688.066 1036.2 688.003 1036.21 687.942C1036.22 687.88 1036.24 687.821 1036.27 687.768C1036.3 687.715 1036.35 687.67 1036.4 687.635C1036.45 687.6 1036.51 687.576 1036.57 687.565C1036.63 687.554 1036.69 687.557 1036.75 687.572C1036.81 687.587 1036.87 687.615 1036.92 687.654L1043.62 691.748C1043.73 691.779 1043.83 691.852 1043.89 691.953C1043.95 692.053 1043.96 692.173 1043.93 692.284C1043.9 692.396 1043.83 692.492 1043.73 692.55C1043.63 692.607 1043.51 692.623 1043.39 692.593V692.559Z" fill="#5D6AA4"/>
<path d="M1177.63 218.944L1151.94 224.989C1154.09 229.861 1157.35 237.451 1161.01 246.898C1165.35 258.11 1167.51 264.83 1171.59 276.371C1174.3 284.02 1178.34 295.19 1183.68 308.859C1178.21 314.966 1172.41 320.77 1166.3 326.242C1165.58 326.884 1155.57 335.791 1149.68 338.332C1145.4 340.172 1140.14 342.055 1140.14 342.055C1141.2 347.83 1142.18 352.516 1142.87 355.707C1144.71 364.107 1147.04 373.529 1147.05 373.555C1163.46 365.112 1212.64 337.775 1211.64 303.573C1211.43 296.499 1208.26 288.183 1201.81 271.838C1194.74 253.771 1186.67 236.112 1177.63 218.944V218.944Z" fill="#7A7B80"/>
<path d="M956.992 153.201H1008.37V169.073L956.232 168.322L956.992 153.201Z" fill="#213D73"/>
<path d="M1132.51 341.852L1142.11 377.151L1155.18 372.795L1145.15 337.513L1132.51 341.852Z" fill="#213D73"/>
<path d="M1017.86 388.202C1053.05 401.803 1086.2 398.781 1086.2 398.781C1065.8 330.015 1018.23 327.271 1018.23 327.271L1017.86 388.202Z" fill="#E8E9EC"/>
<path d="M1032.42 200.699C1032.89 206.854 1030.19 212.519 1025.45 215.204C1022.77 216.651 1019.69 217.167 1016.68 216.673C1019.33 213.515 1022.35 210.206 1025.75 206.854C1028.01 204.625 1030.25 202.573 1032.42 200.699Z" fill="#E8E9EC"/>
<path d="M1395.5 579.284H1368.87V679.87H1395.5V579.284Z" fill="#F9B2A1"/>
<path d="M1324.49 579.284H1297.87V679.87H1324.49V579.284Z" fill="#F9B2A1"/>
<path d="M1401.74 307.103L1404.37 646.269C1404.37 646.269 1388.59 668.296 1359.66 650.676C1359.66 650.676 1338.63 448.053 1336.02 421.627C1333.42 395.202 1330.76 399.6 1330.76 399.6L1333.39 650.676C1333.39 650.676 1301.83 668.296 1288.64 650.676C1275.46 633.056 1262.35 320.315 1262.35 320.315L1401.74 307.103Z" fill="#010101"/>
<path d="M1191.78 43.8433C1193.56 50.4707 1196.73 60.9396 1196.73 60.9396C1196.56 63.8439 1195.99 75.9169 1195.31 90.7168L1216.82 81.5228C1216.82 81.5228 1215.98 57.4612 1216.94 55.9585C1217.74 54.7005 1219.14 56.2202 1225.59 46.5449C1227.44 43.7504 1227.69 38.8283 1227.69 38.8283C1227.69 38.8283 1227.94 32.7749 1226.57 32.243C1225.93 32.0437 1225.24 32.0813 1224.62 32.3491C1224 32.617 1223.49 33.0974 1223.2 33.7036C1222.73 34.759 1222.91 37.1904 1222.45 38.2458C1221.98 39.3011 1218.87 40.635 1217.54 40.6013C1216.22 40.5675 1217.31 22.7113 1217.31 22.7113C1217.31 22.7113 1217.94 17.6457 1218.27 15.9572C1218.55 14.5388 1219.74 10.3766 1219.74 10.3766C1219.74 10.3766 1221.11 4.34853 1219.25 3.93484C1218.14 3.69001 1215.46 8.62896 1213.66 13.8381C1211.72 19.4609 1210.69 25.3876 1210.09 25.3201C1208.7 25.1681 1209.25 15.3831 1209.25 15.3831C1209.25 15.3831 1210.53 10.8747 1210.45 8.76404C1211.69 6.14682 1212.45 1.32606 1210.14 0.979915C1209.71 0.920816 1206.83 7.08395 1206.83 7.08395C1206.83 7.08395 1205.74 11.4066 1205.09 13.4328C1203.89 17.0378 1203.8 22.61 1203.25 25.0837C1202.77 27.1521 1202.27 26.3163 1202.05 26.4092C1201.83 26.502 1202.12 23.64 1202.36 19.7479C1202.49 17.7892 1202.21 15.5266 1202.71 13.2893C1203.13 11.0373 1203.39 8.75728 1203.48 6.46764C1203.74 1.40205 1200.56 1.99303 1199.57 6.63649C1199.19 8.40945 1198.8 10.3428 1198.4 12.3015C1196.86 19.8999 1197.08 27.2112 1196.27 27.2872C1195.21 27.397 1195.6 14.0914 1195.6 14.0914C1195.6 14.0914 1193.81 6.77157 1192.35 13.6354C1191.3 18.4609 1190.85 23.3988 1191.03 28.3341C1191.24 30.2675 1190.01 37.2158 1191.78 43.8433Z" fill="#F9B2A1"/>
<path d="M1272.83 150.938C1253.07 169.512 1234.6 184.785 1230.38 181.332C1230.08 181.077 1229.86 180.744 1229.73 180.369C1226.35 171.159 1226.35 63.6836 1226.35 63.6836C1212.85 66.6385 1202.65 67.7614 1198.81 67.8205C1195.15 67.8796 1192.23 67.9302 1188.91 66.7567C1188.46 66.5963 1188.38 66.5457 1188.22 66.5625C1184.3 66.9762 1185.23 94.9214 1185.51 118.958C1186.29 187.605 1181.46 201.822 1195.72 214.14C1207.18 224.086 1222.43 225.293 1225.7 225.571C1238.61 226.593 1258.44 223.646 1265.61 211.92C1269.45 205.655 1266.92 201.628 1267.17 186.524C1267.38 174.456 1269.29 162.477 1272.83 150.938V150.938Z" fill="#7A7B80"/>
<path d="M1404.51 232.671C1404.51 232.671 1406.56 270.57 1407.59 303.758C1408.29 326.275 1408.52 346.622 1407.33 351.527C1404.37 363.676 1277.15 379.869 1259.41 359.623C1259.41 359.623 1250.33 230.991 1254.87 230.535C1259.4 230.079 1404.51 232.671 1404.51 232.671Z" fill="#7A7B80"/>
<path d="M1253.49 234.732C1257.78 238.424 1262.29 241.844 1267 244.973H1405.8L1407.3 156.739C1371.84 131.174 1337.4 137.549 1337.4 137.549C1337.4 137.549 1292.21 132.263 1268.6 154.434C1265.1 157.706 1262.17 161.545 1259.95 165.789C1256.21 173.025 1254.35 202.076 1253.49 234.732Z" fill="#7A7B80"/>
<path d="M1305.33 217.432C1314.22 254.335 1319.11 261.545 1321.95 261.258C1324.64 260.979 1325.29 253.98 1331.02 240.101C1334.02 232.8 1337.56 225.729 1341.6 218.943C1345.37 196.784 1349.14 174.619 1352.93 152.449C1349.63 151.503 1307.67 139.827 1297.77 155.471C1296.66 157.219 1294.93 160.925 1297.77 181.162C1299.48 193.407 1302 205.524 1305.33 217.432V217.432Z" fill="#6977A8"/>
<path d="M1350.96 104.842L1351.62 137.312C1351.62 137.312 1345.95 146.76 1326.99 148.684C1312.87 150.12 1307.84 146.996 1307.84 146.996L1309.47 130.516L1311.09 114.475L1345.24 106.235L1350.96 104.842Z" fill="#F9B2A1"/>
<path d="M1286.7 82.7641C1287.47 73.3674 1293.46 66.1912 1300.13 66.7231H1303.55C1303.97 66.6935 1304.38 66.6935 1304.8 66.7231C1311.44 67.2718 1316.21 75.3261 1315.44 84.7228C1314.67 94.1195 1308.69 101.287 1302.01 100.764H1298.59C1298.17 100.793 1297.76 100.793 1297.34 100.764C1290.7 100.215 1285.93 92.1777 1286.7 82.7641Z" fill="#475982"/>
<path d="M1351.12 112.516C1337.74 109.984 1299.42 48.3522 1299.42 48.3522C1299.42 48.3522 1280.34 24.831 1285.49 21.7157C1290.64 18.6003 1295.53 23.4042 1295.53 23.4042C1306.37 21.7549 1317.28 20.6503 1328.22 20.0947C1330.21 20.0018 1332.16 19.9512 1334.06 19.9512C1339.8 19.9512 1345.03 20.2889 1348.6 21.3104C1362.78 25.3291 1372.29 48.5633 1372.29 48.5633C1372.29 48.5633 1379.4 47.9132 1382.43 57.5885C1385.46 67.2638 1364.49 114.973 1351.12 112.516Z" fill="#010101"/>
<path d="M1345.24 106.218C1345.12 107.305 1344.83 108.367 1344.39 109.367C1337.46 125.729 1317.67 129.629 1309.52 130.524L1311.14 114.483L1345.24 106.218Z" fill="#010101"/>
<path d="M1302.36 40.6011C1302.36 40.6011 1286.15 81.6493 1293.3 104.132C1300.45 126.615 1321.03 122.292 1333.26 117.463C1345.48 112.634 1350.98 104.799 1350.98 104.799C1350.98 104.799 1362.69 108.311 1370.03 97.2851C1377.38 86.259 1372.18 74.0762 1365.48 71.4843C1358.79 68.8924 1351.13 73.9327 1351.13 73.9327L1356.86 61.9695C1356.86 61.9695 1328.76 3.24238 1302.36 40.6011Z" fill="#F9B2A1"/>
<path d="M1302.36 40.6007C1302.36 40.6007 1315.02 35.5351 1320.38 39.9759C1325.74 44.4167 1332.13 82.0456 1351.08 73.966C1370.02 65.8864 1360.22 41.7742 1360.22 41.7742C1360.22 41.7742 1312.56 0.996187 1302.36 40.6007Z" fill="#010101"/>
<path d="M1352.53 92.1775C1352.15 92.1796 1351.78 92.0311 1351.5 91.7638C1351.23 91.4855 1351.07 91.1091 1351.07 90.7169C1351.07 90.3247 1351.23 89.9484 1351.5 89.67L1361.68 79.0661C1361.96 78.812 1362.33 78.6735 1362.7 78.6789C1363.08 78.6842 1363.44 78.8329 1363.71 79.0947C1363.98 79.3564 1364.14 79.7115 1364.16 80.0875C1364.17 80.4634 1364.05 80.8319 1363.8 81.1176L1353.58 91.7131C1353.44 91.8559 1353.28 91.9705 1353.1 92.0502C1352.92 92.1299 1352.73 92.1732 1352.53 92.1775Z" fill="#010101"/>
<path d="M1366.37 89.577C1366.24 89.5768 1366.11 89.5598 1365.99 89.5264L1357.17 87.2215C1356.78 87.1222 1356.46 86.8764 1356.26 86.5378C1356.06 86.1992 1356 85.7954 1356.1 85.4148C1356.15 85.2256 1356.23 85.0476 1356.35 84.8916C1356.47 84.7355 1356.61 84.6044 1356.78 84.506C1356.95 84.4077 1357.14 84.344 1357.33 84.3189C1357.52 84.2937 1357.72 84.3075 1357.91 84.3595L1366.75 86.6643C1367.1 86.7504 1367.41 86.9633 1367.61 87.2626C1367.82 87.5618 1367.91 87.9264 1367.86 88.2866C1367.82 88.6469 1367.64 88.9776 1367.37 89.2156C1367.09 89.4537 1366.74 89.5823 1366.38 89.577H1366.37Z" fill="#010101"/>
<path d="M1299.68 59.1242C1299.36 59.123 1299.04 59.0163 1298.79 58.8203C1298.48 58.5873 1298.28 58.2429 1298.22 57.862C1298.17 57.481 1298.27 57.0942 1298.5 56.7856C1298.61 56.6337 1301.31 53.1215 1308.05 54.1009C1308.24 54.1287 1308.43 54.1946 1308.59 54.2948C1308.76 54.3949 1308.91 54.5273 1309.02 54.6844C1309.14 54.8414 1309.22 55.0199 1309.27 55.2096C1309.32 55.3993 1309.33 55.5963 1309.3 55.7894C1309.23 56.1775 1309.02 56.526 1308.71 56.7608C1308.39 56.9957 1308 57.0985 1307.61 57.0473C1302.7 56.3213 1300.91 58.491 1300.85 58.5839C1300.71 58.7547 1300.53 58.8916 1300.33 58.985C1300.12 59.0784 1299.9 59.1259 1299.68 59.1242Z" fill="#010101"/>
<path d="M1330.26 59.5125C1329.91 59.5136 1329.58 59.3909 1329.31 59.1664C1328.26 58.2998 1327.02 57.6828 1325.69 57.3612C1324.36 57.0396 1322.97 57.0218 1321.64 57.309C1321.45 57.3627 1321.26 57.3785 1321.06 57.3556C1320.87 57.3327 1320.68 57.2714 1320.51 57.1755C1320.35 57.0796 1320.2 56.9509 1320.08 56.7969C1319.96 56.643 1319.87 56.4669 1319.82 56.279C1319.77 56.0922 1319.76 55.8968 1319.78 55.704C1319.8 55.5113 1319.86 55.3249 1319.96 55.1555C1320.05 54.9862 1320.18 54.8372 1320.33 54.717C1320.48 54.5969 1320.66 54.508 1320.84 54.4554C1322.64 54.0441 1324.51 54.0502 1326.31 54.4731C1328.11 54.896 1329.78 55.7246 1331.21 56.8953C1331.51 57.1481 1331.7 57.5091 1331.73 57.8997C1331.77 58.2904 1331.65 58.6789 1331.4 58.9807C1331.26 59.1464 1331.08 59.2798 1330.89 59.3716C1330.69 59.4634 1330.48 59.5115 1330.26 59.5125V59.5125Z" fill="#010101"/>
<path d="M1301.89 74.1941C1301.7 74.2034 1301.51 74.173 1301.33 74.1047C1301.14 74.0364 1300.98 73.9317 1300.84 73.7971C1300.7 73.6626 1300.59 73.501 1300.52 73.3224C1300.45 73.1438 1300.41 72.952 1300.41 72.7589L1301.03 66.0047C1301.09 65.6461 1301.29 65.3236 1301.57 65.1003C1301.86 64.877 1302.22 64.769 1302.58 64.7974C1302.77 64.7996 1302.95 64.8382 1303.12 64.911C1303.28 64.9838 1303.43 65.0893 1303.56 65.2213C1303.69 65.3534 1303.79 65.5094 1303.85 65.6801C1303.92 65.8509 1303.95 66.033 1303.94 66.2158L1303.33 72.9699C1303.28 73.3145 1303.11 73.6295 1302.84 73.8552C1302.58 74.0809 1302.24 74.2015 1301.89 74.1941V74.1941Z" fill="#010101"/>
<path d="M1324.25 76.2293C1324.04 76.2251 1323.84 76.1798 1323.66 76.0961C1323.47 76.0124 1323.31 75.892 1323.17 75.7422C1323.03 75.5924 1322.92 75.4162 1322.85 75.2242C1322.79 75.0323 1322.76 74.8285 1322.77 74.6252L1323.38 67.069C1323.42 66.6808 1323.6 66.3227 1323.9 66.0707C1324.2 65.8186 1324.58 65.6922 1324.97 65.7182C1325.17 65.7331 1325.36 65.786 1325.53 65.8739C1325.7 65.9618 1325.86 66.0828 1325.98 66.2302C1326.11 66.3776 1326.2 66.5484 1326.26 66.7329C1326.32 66.9174 1326.35 67.1119 1326.33 67.3054L1325.72 74.9038C1325.68 75.2673 1325.51 75.604 1325.24 75.8488C1324.97 76.0936 1324.61 76.2291 1324.25 76.2293V76.2293Z" fill="#010101"/>
<path d="M1306.45 93.3423C1306.17 93.3458 1305.89 93.268 1305.65 93.1182C1305.42 92.9684 1305.23 92.7531 1305.11 92.498C1300.35 81.8434 1307.48 73.2488 1307.79 72.8942C1307.92 72.7462 1308.07 72.6244 1308.25 72.5358C1308.42 72.4472 1308.61 72.3936 1308.8 72.3779C1308.99 72.3622 1309.19 72.3848 1309.37 72.4444C1309.56 72.504 1309.73 72.5995 1309.88 72.7253C1310.03 72.8512 1310.15 73.0049 1310.24 73.1778C1310.32 73.3507 1310.38 73.5394 1310.39 73.733C1310.41 73.9267 1310.39 74.1215 1310.33 74.3064C1310.27 74.4913 1310.17 74.6627 1310.05 74.8107C1309.79 75.1146 1303.82 82.3668 1307.8 91.2907C1307.88 91.4674 1307.93 91.6583 1307.93 91.8522C1307.94 92.0462 1307.91 92.2394 1307.84 92.4207C1307.77 92.602 1307.66 92.7679 1307.53 92.9087C1307.4 93.0495 1307.24 93.1624 1307.06 93.241C1306.87 93.3194 1306.66 93.354 1306.45 93.3423V93.3423Z" fill="#010101"/>
<path d="M1341.91 86.698C1342.02 96.12 1347.51 103.701 1354.17 103.583C1360.83 103.465 1366.16 95.8076 1366.06 86.3856C1365.95 76.9636 1360.47 69.3821 1353.8 69.4497C1347.13 69.5172 1341.81 77.2676 1341.91 86.698Z" fill="#475982"/>
<path d="M1353.8 69.4922L1358.46 69.7792L1358.83 103.913L1354.18 103.626L1348.49 98.9908L1344.45 80.6027L1353.8 69.4922Z" fill="#475982"/>
<path d="M1346.57 86.9775C1346.68 96.3995 1352.17 103.981 1358.83 103.913C1365.49 103.846 1370.82 96.1378 1370.72 86.7158C1370.62 77.2938 1365.13 69.7039 1358.46 69.7799C1351.79 69.8558 1346.49 77.5555 1346.57 86.9775Z" fill="#6977A8"/>
<path d="M1362.76 73.8823C1362.76 73.8823 1365.15 38.6933 1365.15 35.7384C1364.58 33.5892 1363.57 31.5788 1362.2 29.8285C1360.32 27.4691 1357.84 25.6629 1355.02 24.6025L1352.09 72.6665L1362.76 73.8823Z" fill="#6977A8"/>
<path d="M1305.96 100.823C1317.78 100.823 1323.69 94.9131 1323.69 94.9131C1323.69 94.9131 1323.69 106.733 1317.78 106.733C1311.87 106.733 1305.96 100.823 1305.96 100.823Z" fill="#010101"/>
<path d="M1309.86 138.848C1308.07 143.544 1306.73 148.397 1305.85 153.344C1305.16 157.237 1302.96 169.478 1305.72 169.504C1309.19 169.504 1314 153.344 1323.9 152.618C1332.67 152.011 1337.36 165.063 1344.62 162.986C1349.42 161.61 1352.12 154.543 1352.93 152.407C1353.9 149.745 1354.41 146.935 1354.44 144.1C1354.47 141.305 1354.05 138.525 1353.18 135.868C1352.17 136.822 1336.84 150.66 1320.39 145.307C1316.43 143.996 1312.82 141.785 1309.86 138.848V138.848Z" fill="#F3B06A"/>
<path d="M1438.7 361.413C1437.08 354.118 1434.13 342.577 1434.13 342.577C1434.44 339.428 1435.64 326.325 1437.08 310.259L1413.24 319.233C1413.24 319.233 1412.99 345.456 1411.9 347.035C1410.98 348.377 1409.52 346.647 1402.06 356.871C1399.9 359.826 1399.4 365.161 1399.4 365.161C1399.4 365.161 1398.84 371.738 1400.3 372.38C1400.99 372.628 1401.75 372.621 1402.43 372.359C1403.12 372.097 1403.69 371.598 1404.04 370.953C1404.6 369.822 1404.52 367.171 1405.08 366.048C1405.64 364.925 1409.08 363.616 1410.52 363.718C1411.97 363.819 1409.94 383.186 1409.94 383.186C1409.94 383.186 1409.02 388.674 1408.58 390.464C1408.2 391.992 1406.71 396.467 1406.71 396.467C1406.71 396.467 1404.93 402.959 1406.95 403.499C1408.14 403.82 1411.3 398.577 1413.5 392.988C1415.88 386.969 1417.28 380.569 1417.92 380.67C1419.43 380.898 1418.41 391.519 1418.41 391.519C1418.41 391.519 1416.8 396.365 1416.8 398.662C1415.32 401.456 1414.26 406.657 1416.8 407.147C1417.26 407.231 1420.7 400.663 1420.7 400.663C1420.7 400.663 1422.08 396.011 1422.88 393.841C1424.29 390.017 1424.62 383.938 1425.37 381.27C1426 379.05 1426.51 379.978 1426.74 379.885C1426.98 379.792 1426.54 382.891 1426.08 387.112C1425.86 389.24 1426.08 391.705 1425.41 394.12C1424.84 396.55 1424.45 399.019 1424.24 401.507C1423.72 407.003 1427.2 406.513 1428.46 401.507C1428.96 399.599 1429.49 397.522 1430.01 395.411C1432.04 387.197 1432.15 379.252 1433.04 379.201C1434.2 379.142 1433.13 393.554 1433.13 393.554C1433.13 393.554 1434.75 401.6 1436.65 394.196C1438.02 388.996 1438.74 383.648 1438.79 378.273C1438.64 376.204 1440.31 368.707 1438.7 361.413Z" fill="#F9B2A1"/>
<path d="M1407.33 156.738C1407.33 156.738 1433.96 185.798 1436.88 230.189C1439.8 274.581 1442.79 336.693 1442.79 336.693C1442.79 336.693 1428 348.513 1407.33 336.693C1407.33 336.685 1392.54 166.135 1407.33 156.738Z" fill="#7A7B80"/>
<path d="M1386.41 685.788C1386.37 685.796 1386.33 685.796 1386.28 685.788C1377.66 682.926 1367.27 685.788 1367.17 685.788C1367.11 685.801 1367.05 685.802 1366.98 685.79C1366.92 685.778 1366.86 685.753 1366.81 685.718C1366.76 685.682 1366.72 685.636 1366.68 685.583C1366.65 685.53 1366.63 685.47 1366.62 685.408C1366.59 685.282 1366.61 685.148 1366.67 685.033C1366.73 684.918 1366.83 684.829 1366.95 684.783C1367.06 684.783 1377.67 681.845 1386.54 684.783C1386.66 684.834 1386.76 684.927 1386.81 685.045C1386.87 685.163 1386.88 685.298 1386.85 685.425C1386.83 685.525 1386.77 685.615 1386.69 685.68C1386.61 685.746 1386.51 685.783 1386.41 685.788V685.788Z" fill="white"/>
<path d="M1294.31 680.994H1278.94C1278.88 681.002 1278.81 680.997 1278.75 680.979C1278.69 680.96 1278.63 680.928 1278.58 680.885C1278.53 680.843 1278.49 680.79 1278.47 680.731C1278.44 680.671 1278.43 680.607 1278.43 680.542C1278.43 680.477 1278.44 680.412 1278.47 680.353C1278.49 680.294 1278.53 680.241 1278.58 680.198C1278.63 680.155 1278.69 680.124 1278.75 680.105C1278.81 680.086 1278.88 680.081 1278.94 680.09H1294.31C1294.42 680.105 1294.52 680.159 1294.59 680.242C1294.66 680.325 1294.7 680.432 1294.7 680.542C1294.7 680.652 1294.66 680.759 1294.59 680.842C1294.52 680.925 1294.42 680.979 1294.31 680.994Z" fill="white"/>
<path d="M1297 676.552L1287.9 675.615C1287.84 675.609 1287.78 675.591 1287.72 675.561C1287.67 675.531 1287.62 675.49 1287.58 675.441C1287.53 675.392 1287.5 675.336 1287.49 675.275C1287.47 675.214 1287.46 675.151 1287.47 675.087C1287.47 675.024 1287.49 674.963 1287.52 674.907C1287.55 674.851 1287.59 674.801 1287.64 674.761C1287.69 674.72 1287.75 674.69 1287.81 674.671C1287.87 674.653 1287.93 674.647 1287.99 674.653L1297.05 675.581C1297.18 675.596 1297.3 675.661 1297.38 675.762C1297.47 675.863 1297.5 675.992 1297.49 676.122C1297.48 676.241 1297.42 676.351 1297.33 676.43C1297.24 676.51 1297.12 676.553 1297 676.552V676.552Z" fill="white"/>
<path d="M1413.03 693.1C1411.34 694.282 1404.35 695.338 1395.75 696.224C1378.58 697.98 1355.07 699.061 1355.07 699.061L1366.49 676.907C1366.49 676.907 1365.94 675.379 1365.36 673.682C1365.19 673.199 1365.14 672.681 1365.23 672.176C1365.31 671.67 1365.51 671.193 1365.82 670.787C1366.13 670.381 1366.54 670.058 1367.01 669.847C1367.47 669.636 1367.99 669.544 1368.5 669.579L1385.48 670.736L1395.98 659.338C1396.14 659.082 1396.37 658.873 1396.64 658.732C1396.91 658.59 1397.21 658.521 1397.51 658.53C1397.82 658.539 1398.12 658.627 1398.38 658.785C1398.64 658.943 1398.85 659.166 1399 659.431C1401.7 664.26 1407.16 674.231 1410.56 682.1C1412.96 687.663 1414.34 692.18 1413.03 693.1Z" fill="#0E3659"/>
<path d="M1413.03 693.1C1413.03 693.1 1385.93 718.428 1381.63 719.323C1377.33 720.218 1336.19 723.317 1335.33 720.699C1334.47 718.082 1336.31 714.975 1339.13 711.826C1344.94 705.342 1355.07 699.061 1355.07 699.061L1394.75 685.553L1403.36 689.073L1413.03 693.1Z" fill="#0E3659"/>
<path d="M1413.03 693.1C1413.03 693.1 1385.93 718.428 1381.63 719.323C1377.33 720.218 1336.19 723.317 1335.33 720.699C1334.47 718.082 1336.31 714.975 1339.13 711.826C1349.26 711.337 1375.33 709.943 1379.79 708.77C1382.27 708.12 1389.02 702.387 1395.75 696.224C1398.37 693.818 1401 691.344 1403.35 689.082C1406.31 686.253 1408.88 683.754 1410.54 682.1C1412.96 687.663 1414.34 692.18 1413.03 693.1Z" fill="#E0E1E0"/>
<path d="M1362.14 685.789C1362.05 685.763 1361.97 685.707 1361.91 685.631C1361.85 685.555 1361.82 685.462 1361.82 685.367C1361.82 685.271 1361.85 685.179 1361.91 685.102C1361.97 685.026 1362.05 684.971 1362.14 684.945L1371.92 684.624C1371.97 684.62 1372.03 684.629 1372.08 684.648C1372.14 684.668 1372.19 684.699 1372.23 684.738C1372.27 684.778 1372.31 684.825 1372.33 684.878C1372.35 684.931 1372.36 684.988 1372.36 685.046C1372.37 685.104 1372.36 685.161 1372.34 685.215C1372.32 685.269 1372.29 685.319 1372.25 685.361C1372.21 685.404 1372.16 685.438 1372.11 685.462C1372.05 685.486 1372 685.5 1371.94 685.502L1362.16 685.823L1362.14 685.789Z" fill="#E0E1E0"/>
<path d="M1329.83 699.035C1329.66 703.864 1329.05 707.385 1327.7 707.655C1321.7 708.862 1262.06 711.64 1258.97 710.855C1255.88 710.07 1246.45 709.614 1246.51 703.746C1246.56 702.593 1246.97 701.485 1247.68 700.58C1250.64 696.528 1258.16 694.029 1258.16 694.029L1291.61 674.087C1291.61 674.087 1291.74 672.466 1291.88 670.71C1291.91 670.196 1292.08 669.7 1292.35 669.265C1292.63 668.831 1293.01 668.471 1293.46 668.22C1293.91 667.969 1294.41 667.833 1294.92 667.826C1295.44 667.818 1295.95 667.939 1296.4 668.177L1311.48 676.079L1325.69 669.874C1325.95 669.706 1326.24 669.607 1326.54 669.586C1326.85 669.566 1327.15 669.624 1327.42 669.756C1327.7 669.888 1327.93 670.089 1328.1 670.339C1328.28 670.589 1328.38 670.88 1328.41 671.183C1329 677.253 1330.12 690.297 1329.83 699.035Z" fill="#0E3659"/>
<path d="M1329.83 699.035C1329.66 703.864 1329.05 707.385 1327.7 707.655C1321.7 708.862 1262.06 711.64 1258.97 710.855C1255.88 710.07 1246.45 709.614 1246.51 703.746C1246.56 702.594 1246.97 701.486 1247.68 700.58C1256.31 701.573 1264.99 702.072 1273.68 702.075C1288.74 702.201 1320.96 699.736 1329.83 699.035Z" fill="#E0E1E0"/>
<path d="M1292.11 682.319C1292.03 682.319 1291.95 682.299 1291.88 682.259L1285.12 678.156C1285.03 678.095 1284.96 677.998 1284.93 677.886C1284.9 677.774 1284.92 677.656 1284.98 677.557C1285.01 677.507 1285.05 677.463 1285.09 677.428C1285.14 677.393 1285.19 677.368 1285.25 677.354C1285.3 677.34 1285.36 677.337 1285.42 677.346C1285.48 677.355 1285.53 677.375 1285.58 677.405L1292.33 681.508C1292.38 681.538 1292.43 681.577 1292.46 681.623C1292.49 681.669 1292.52 681.722 1292.53 681.778C1292.55 681.833 1292.55 681.891 1292.54 681.948C1292.53 682.005 1292.51 682.059 1292.48 682.108C1292.44 682.173 1292.39 682.226 1292.32 682.263C1292.26 682.301 1292.18 682.32 1292.11 682.319Z" fill="#E0E1E0"/>
<path d="M1181.68 65.9461L1229.49 64.0127L1230.14 80.8136L1181.03 81.4552L1181.68 65.9461Z" fill="#213D73"/>
<path d="M1404.31 326.993V342.865L1446.63 344.377L1445.11 324.731L1404.31 323.971V326.993Z" fill="#213D73"/>
<path d="M1259.86 162.158C1260.78 168.456 1257.84 174.341 1252.89 176.663C1248.19 178.875 1243.51 177.009 1242.61 176.663C1245.98 174.257 1249.56 171.496 1253.19 168.347C1255.59 166.236 1257.84 164.176 1259.86 162.158Z" fill="#E8E9EC"/>
<path d="M1259.41 359.624L1256.15 308.022C1256.15 308.022 1304.38 321.818 1308.24 368.987C1308.26 368.987 1269.39 370.346 1259.41 359.624Z" fill="#E8E9EC"/>
<path d="M1407.33 351.528L1408.09 294.506C1408.09 294.506 1359.73 320.197 1367.29 364.031C1367.29 364.031 1401.29 359.438 1407.33 351.528Z" fill="#E8E9EC"/>
<path d="M1306.32 139.769L1286.43 169.073C1298.03 204.341 1309.61 239.603 1321.19 274.859C1322.44 229.364 1317.44 183.911 1306.32 139.777V139.769Z" fill="#575960"/>
<path d="M1356.68 137.852L1372.57 163.787C1355.45 200.806 1338.31 237.829 1321.16 274.859C1323.41 227.235 1335.49 180.59 1356.62 137.852H1356.68Z" fill="#575960"/>
<path d="M1319.92 270.612L1323.94 368.843" stroke="#575960" stroke-width="0.75" stroke-miterlimit="10"/>
<path d="M1355.16 136.341L1371.06 162.251C1354.18 198.51 1337.29 234.776 1320.41 271.052C1322.39 224.199 1334.22 178.29 1355.13 136.315L1355.16 136.341Z" fill="#213D73"/>
<path d="M1308.59 138.258L1288.71 167.562L1320.44 271.078C1324.36 226.454 1320.36 181.489 1308.62 138.258H1308.59Z" fill="#213D73"/>
<path d="M1365.37 153.303L1371.06 162.277L1321.78 269.828L1365.37 153.303Z" fill="#848484"/>
<path d="M1358.59 199.965C1361.95 202.192 1365.89 203.38 1369.93 203.38C1373.96 203.38 1377.9 202.192 1381.26 199.965C1379.48 203.237 1378.54 206.905 1378.54 210.632C1378.54 214.359 1379.48 218.027 1381.26 221.299C1377.71 219.645 1373.84 218.788 1369.93 218.788C1366.01 218.788 1362.14 219.645 1358.59 221.299C1360.34 218.017 1361.26 214.353 1361.26 210.632C1361.26 206.911 1360.34 203.248 1358.59 199.965V199.965Z" fill="#E8EB8F"/>
<path d="M1511.63 413.742V636.231L1501.28 708.23L1234.49 694.392L1166.06 690.846L931.166 678.672L902.072 677.161V630.414C930.676 642.326 961.753 645.087 992.51 641.22C1020.13 637.759 1047.48 628.945 1072.55 616.627C1075.05 615.394 1077.53 614.128 1079.99 612.828C1084.74 610.323 1089.4 607.717 1093.99 605.01C1161.07 565.574 1213.03 506.535 1271.9 456.487C1311.21 423.13 1357.46 394.425 1408.77 390.069C1422.42 388.948 1436.16 389.532 1449.66 391.808C1452.34 392.255 1455.01 392.753 1457.67 393.319C1460.91 394.011 1464.13 394.794 1467.34 395.666C1482.64 399.828 1497.38 405.82 1511.24 413.514L1511.63 413.742Z" fill="url(#paint0_linear_522_386)"/>
<path d="M1511.63 427.351V780.912H704C756.083 659.11 888.751 588.723 1021.16 607.551C1033.59 609.315 1046.17 611.772 1058.78 614.119C1063.37 614.963 1067.96 615.807 1072.56 616.652C1103.12 621.895 1133.53 624.782 1161.98 613.857C1173.8 609.315 1184.46 602.645 1194.32 594.76C1206.52 585.026 1217.51 573.459 1227.95 561.834C1252.19 534.817 1275.58 506.053 1303.28 483.064C1314.18 473.897 1325.97 465.839 1338.47 459.011C1367.29 443.493 1399.71 436.148 1432.4 432.838C1432.99 432.771 1433.59 432.712 1434.18 432.661C1439.77 432.112 1445.37 431.69 1450.96 431.361C1471.04 430.17 1491.32 430.12 1511.2 427.418L1511.63 427.351Z" fill="url(#paint1_linear_522_386)"/>
<path d="M821.834 780.912C851.552 746.06 884.31 713.894 920.799 686.303C924.215 683.72 927.671 681.187 931.166 678.705C950.648 664.702 971.154 652.183 992.511 641.253V641.253C1013.78 630.351 1035.95 621.288 1058.76 614.161V614.161C1070.35 610.564 1082.09 607.525 1093.98 605.043C1101.5 603.489 1109.08 602.169 1116.71 601.083C1142.3 597.47 1168.41 596.625 1194.28 594.776C1221.04 592.868 1247.55 589.897 1272.92 581.716C1274.61 581.153 1276.3 580.59 1277.99 580.027C1288.11 576.445 1297.93 572.055 1307.35 566.899C1361.02 537.628 1401.12 485.613 1434.15 432.661C1435.32 430.795 1436.48 428.921 1437.63 427.046C1443.71 417.18 1449.64 407.229 1455.43 397.193C1456.16 395.918 1456.91 394.66 1457.63 393.352C1477.07 359.457 1494.92 324.707 1511.18 289.102C1511.32 288.798 1511.46 288.486 1511.6 288.182" stroke="white" stroke-miterlimit="10"/>
<path d="M1511.63 182.784V780.912H1110.98C1125.91 748.83 1143.9 718.318 1166.05 690.846C1169.05 687.114 1172.13 683.442 1175.28 679.828C1202.89 648.202 1236.02 621.574 1269.76 595.638C1282.31 586.005 1294.92 576.482 1307.38 566.84C1355.04 529.988 1400.26 491.515 1429.01 439.171C1430.18 437.054 1431.3 434.924 1432.39 432.779C1438.11 421.545 1443.13 409.965 1447.41 398.106C1448.18 396.012 1448.93 393.884 1449.65 391.782C1473.36 323.194 1478.68 246.678 1511.63 182.784Z" fill="url(#paint2_linear_522_386)"/>
<path d="M1511.63 389.072C1496.91 391.605 1482.08 393.749 1467.35 395.666C1463.38 396.181 1459.43 396.679 1455.47 397.16L1453.48 397.405L1447.43 398.131C1413.98 402.175 1379.51 406.701 1351.48 425.105C1330.1 439.171 1314.66 459.881 1303.28 483.073C1296.92 496.238 1291.64 509.901 1287.51 523.927C1281.82 542.771 1277.42 562.248 1272.98 581.708C1271.91 586.369 1270.84 591.026 1269.76 595.681C1261.64 630.481 1252.39 664.691 1234.49 694.46C1230.73 700.713 1226.58 706.725 1222.07 712.46C1202.77 736.943 1176.81 755.264 1150.7 772.318C1146.23 775.233 1141.75 778.121 1137.26 780.98" stroke="white" stroke-miterlimit="10"/>
<path d="M1511.63 232.562H1511.21V477.399H1511.63V232.562Z" fill="#606161"/>
<path d="M-110.892 981.076C-216.363 1043.84 -299.986 1120.61 -279.234 1186.1C-258.482 1251.59 -95.1456 1291.28 47.2946 1248.74C188.407 1206.55 256.381 1106.6 407.808 1088.87C504.234 1077.59 574.327 1108.73 663.017 1114.62C774.747 1122.02 917.711 1082.9 978.476 1028.36C1007.03 1002.67 1022.44 972.438 1072.08 953.562C1121.07 934.938 1184.44 935.732 1231.02 944.276C1277.61 952.82 1316.16 967.619 1365.51 973.912C1510.05 992.416 1713.17 921.847 1758.72 844.669C1804.26 767.492 1708.74 698.992 1561.75 682.538C1414.78 666.234 1231.61 695.527 1082.49 746.399C989.551 778.155 904.845 818.546 803.936 841.169C624.831 881.258 446.658 855.271 263.32 872.254C111.975 886.009 -32.3683 934.171 -110.892 981.076Z" fill="url(#paint3_linear_522_386)"/>
<path d="M-104.867 1020.38C-224.293 992.091 -327.071 943.889 -326.886 875.186C-326.702 806.484 -182.747 719.705 -34.1049 717.632C113.164 715.618 207.953 790.625 357.739 762.187C453.116 744.066 510.668 693.371 593.52 661.182C697.908 620.667 846.026 615.173 920.334 649.008C955.269 664.972 979.027 689.196 1032.04 692.339C1084.36 695.436 1144.58 675.7 1186.47 653.596C1228.36 631.492 1260.71 605.824 1305.91 585.04C1438.28 524.097 1653.21 530.593 1719.77 590.588C1786.34 650.583 1715.72 744.547 1580.41 804.267C1445.07 863.839 1261.53 890.751 1104.02 886.873C1005.84 884.411 912.922 871.242 809.87 879.88C626.979 895.272 464.768 973.429 284.759 1012.13C136.242 1044.34 -15.9003 1041.62 -104.867 1020.38Z" fill="url(#paint4_linear_522_386)"/>
<path d="M1420.34 1124.75C1414.47 1127.35 1406.19 1132.78 1395 1133.65" stroke="#F28C25" stroke-width="8" stroke-linecap="round"/>
<path d="M1408.95 1084C1404.2 1092.28 1391.68 1110.71 1379.62 1118.16" stroke="#F28C25" stroke-width="8" stroke-linecap="round"/>
<path d="M1359.57 1106.39C1360.91 1101.07 1364.35 1089.55 1367.4 1086" stroke="#F28C25" stroke-width="8" stroke-linecap="round"/>
<g clip-path="url(#clip0_522_386)">
<path d="M1368.33 1204.18C1372.32 1194.22 1373.27 1183.31 1371.06 1172.81C1368.85 1162.32 1363.57 1152.72 1355.9 1145.22C1348.23 1137.73 1338.51 1132.67 1327.97 1130.7C1317.43 1128.73 1306.54 1129.93 1296.68 1134.14C1286.82 1138.36 1278.43 1145.41 1272.57 1154.39C1266.72 1163.38 1263.66 1173.9 1263.78 1184.62C1263.9 1195.34 1267.2 1205.79 1273.26 1214.64C1279.32 1223.49 1287.87 1230.34 1297.82 1234.33C1311.17 1239.68 1326.1 1239.51 1339.32 1233.86C1352.54 1228.2 1362.98 1217.52 1368.33 1204.18V1204.18ZM1312.21 1181.68C1312.67 1180.54 1313.46 1179.56 1314.47 1178.86C1315.49 1178.16 1316.69 1177.78 1317.92 1177.77C1319.15 1177.75 1320.36 1178.11 1321.39 1178.78C1322.43 1179.45 1323.24 1180.41 1323.72 1181.55C1324.2 1182.68 1324.34 1183.93 1324.12 1185.14C1323.89 1186.35 1323.31 1187.47 1322.45 1188.35C1321.59 1189.23 1320.49 1189.84 1319.28 1190.09C1318.08 1190.35 1316.82 1190.24 1315.68 1189.78C1314.15 1189.16 1312.92 1187.97 1312.27 1186.45C1311.62 1184.93 1311.6 1183.21 1312.21 1181.68V1181.68Z" fill="white" stroke="black" stroke-width="2" stroke-linecap="round" stroke-linejoin="round"/>
<path d="M1341 1193.23C1342.83 1188.67 1343.27 1183.68 1342.26 1178.88C1341.25 1174.09 1338.84 1169.69 1335.33 1166.27C1331.82 1162.84 1327.38 1160.53 1322.56 1159.62C1317.74 1158.72 1312.76 1159.27 1308.25 1161.2C1303.74 1163.12 1299.9 1166.35 1297.23 1170.45C1294.55 1174.56 1293.15 1179.37 1293.2 1184.28C1293.26 1189.18 1294.77 1193.96 1297.54 1198C1300.31 1202.05 1304.22 1205.18 1308.77 1207.01C1311.8 1208.22 1315.03 1208.82 1318.28 1208.79C1321.54 1208.75 1324.75 1208.07 1327.74 1206.79C1330.74 1205.51 1333.45 1203.65 1335.72 1201.33C1338 1199 1339.79 1196.25 1341 1193.23ZM1312.21 1181.68C1312.67 1180.54 1313.46 1179.56 1314.47 1178.86C1315.49 1178.16 1316.69 1177.78 1317.92 1177.77C1319.15 1177.75 1320.36 1178.11 1321.39 1178.78C1322.42 1179.45 1323.23 1180.41 1323.72 1181.55C1324.2 1182.68 1324.34 1183.93 1324.12 1185.14C1323.89 1186.35 1323.31 1187.47 1322.45 1188.35C1321.59 1189.23 1320.49 1189.84 1319.28 1190.09C1318.08 1190.35 1316.82 1190.24 1315.68 1189.78C1314.15 1189.16 1312.92 1187.97 1312.27 1186.45C1311.62 1184.93 1311.6 1183.21 1312.21 1181.68V1181.68Z" fill="#AA9DEA" stroke="black" stroke-width="2" stroke-linecap="round" stroke-linejoin="round"/>
<path d="M1334.83 1190.75C1336.17 1187.42 1336.48 1183.76 1335.74 1180.25C1335 1176.74 1333.24 1173.53 1330.68 1171.02C1328.11 1168.51 1324.86 1166.82 1321.33 1166.16C1317.8 1165.5 1314.16 1165.9 1310.86 1167.32C1307.56 1168.73 1304.76 1171.08 1302.8 1174.09C1300.84 1177.1 1299.82 1180.62 1299.86 1184.2C1299.9 1187.79 1301.01 1191.29 1303.03 1194.25C1305.06 1197.2 1307.92 1199.5 1311.25 1200.83C1315.72 1202.62 1320.71 1202.56 1325.13 1200.67C1329.55 1198.78 1333.04 1195.21 1334.83 1190.75V1190.75ZM1312.21 1181.68C1312.67 1180.54 1313.46 1179.56 1314.47 1178.86C1315.49 1178.16 1316.69 1177.78 1317.92 1177.77C1319.15 1177.75 1320.36 1178.11 1321.39 1178.78C1322.42 1179.45 1323.23 1180.41 1323.72 1181.55C1324.2 1182.68 1324.34 1183.93 1324.12 1185.14C1323.89 1186.35 1323.31 1187.47 1322.45 1188.35C1321.59 1189.23 1320.49 1189.84 1319.28 1190.09C1318.08 1190.35 1316.82 1190.24 1315.68 1189.78C1314.15 1189.16 1312.92 1187.97 1312.27 1186.45C1311.62 1184.93 1311.6 1183.21 1312.21 1181.68V1181.68Z" fill="#9880E0" stroke="black" stroke-width="2" stroke-linecap="round" stroke-linejoin="round"/>
</g>
<defs>
<linearGradient id="paint0_linear_522_386" x1="1127.04" y1="504.576" x2="1344.73" y2="615.876" gradientUnits="userSpaceOnUse">
<stop stop-color="#79C082"/>
<stop offset="1" stop-color="#9094C9"/>
</linearGradient>
<linearGradient id="paint1_linear_522_386" x1="1153.98" y1="849.711" x2="1089.36" y2="505.909" gradientUnits="userSpaceOnUse">
<stop stop-color="#79C082"/>
<stop offset="1" stop-color="#9094C9"/>
</linearGradient>
<linearGradient id="paint2_linear_522_386" x1="1220.45" y1="451.64" x2="1708.21" y2="613.815" gradientUnits="userSpaceOnUse">
<stop stop-color="#79C082"/>
<stop offset="1" stop-color="#9094C9"/>
</linearGradient>
<linearGradient id="paint3_linear_522_386" x1="712.709" y1="782.704" x2="767.812" y2="1142.23" gradientUnits="userSpaceOnUse">
<stop stop-color="#F3CE64"/>
<stop offset="1" stop-color="#F9E5D1"/>
</linearGradient>
<linearGradient id="paint4_linear_522_386" x1="740.34" y1="962.983" x2="685.237" y2="603.457" gradientUnits="userSpaceOnUse">
<stop stop-color="#F3CE64"/>
<stop offset="1" stop-color="#F9E5D1"/>
</linearGradient>
<clipPath id="clip0_522_386">
<rect width="110" height="110" fill="white" transform="translate(1263 1129)"/>
</clipPath>
</defs>
</svg>
