<svg width="513" height="1096" viewBox="0 0 513 1096" fill="none" xmlns="http://www.w3.org/2000/svg">
<path d="M-705.996 335.026C-723.597 354.143 -741.084 373.486 -761.385 389.126C-808.364 425.612 -846.173 475.119 -854.671 540.016C-865.819 625.029 -803.839 734.361 -724.691 739.141C-662.274 742.68 -590.64 691.204 -547.815 748.441C-530.586 771.343 -527.179 802.066 -537.005 825.801C-559.468 880.378 -613.008 892.569 -649.886 927.948C-720.174 995.249 -701.849 1149.07 -615.23 1218.95C-528.61 1288.82 -400.72 1253.1 -372.984 1151.19C-367.348 1130.42 -365.127 1107.1 -354.141 1089.9C-324.498 1042.52 -251.266 1064.22 -203.096 1103.4C-154.926 1142.57 -110.938 1196.95 -55.1792 1211.24C-11.997 1222.2 29.0412 1206.35 67.0871 1189.73C113.86 1169.29 160.926 1146.13 195.597 1107.31C230.456 1068.4 251.278 1010.1 237.584 950.979C220.005 874.756 150.943 814.808 135.898 738.446C111.905 617.079 233.858 531.987 219.627 410.252C212.2 347.123 169.34 290.757 123.609 246.083C58.6975 182.62 -22.8975 130.698 -101.396 137.542C-184.851 144.893 -243.094 214.945 -299.818 276.263C-356.543 337.581 -429.815 396.143 -515.156 374.85C-553.829 365.318 -589.837 339.931 -628.069 327.047C-656.489 317.184 -689.563 317.352 -705.996 335.026Z" fill="#ACC93F"/>
<circle cx="306" cy="751" r="29" stroke="#8E94DD" stroke-width="2"/>
<circle cx="337" cy="762" r="14" stroke="#8E94DD" stroke-width="2"/>
<g clip-path="url(#clip0_543_390)">
<path d="M244.161 1099.66H228.217V921.64C228.217 919.526 229.057 917.498 230.552 916.003C232.047 914.508 234.075 913.668 236.189 913.668C238.303 913.668 240.331 914.508 241.826 916.003C243.321 917.498 244.161 919.526 244.161 921.64V1099.66Z" fill="#C9C6C6"/>
<path d="M236.189 913.668C234.075 913.668 232.047 914.508 230.552 916.003C229.057 917.498 228.217 919.526 228.217 921.64V1099.66H236.189V913.668Z" fill="#B4B3B3"/>
<path d="M117.768 1099.66H101.824V921.64C101.824 919.526 102.664 917.498 104.159 916.003C105.654 914.508 107.682 913.668 109.796 913.668C111.911 913.668 113.938 914.508 115.434 916.003C116.929 917.498 117.768 919.526 117.768 921.64V1099.66Z" fill="#C9C6C6"/>
<path d="M109.796 913.668C107.682 913.668 105.654 914.508 104.159 916.003C102.664 917.498 101.824 919.526 101.824 921.64V1099.66H109.796V913.668Z" fill="#B4B3B3"/>
<path d="M244.161 1099.66H228.217V921.64C228.217 919.526 229.057 917.498 230.552 916.003C232.047 914.508 234.075 913.668 236.189 913.668V913.668C238.303 913.668 240.331 914.508 241.826 916.003C243.321 917.498 244.161 919.526 244.161 921.64V1099.66Z" stroke="#1D1D1B" stroke-width="2" stroke-miterlimit="10"/>
<path d="M236.189 913.668C234.075 913.668 232.047 914.508 230.552 916.003C229.057 917.498 228.217 919.526 228.217 921.64V1099.66H236.189V913.668Z" stroke="#1D1D1B" stroke-width="2" stroke-miterlimit="10"/>
<path d="M117.768 1099.66H101.824V921.64C101.824 919.526 102.664 917.498 104.159 916.003C105.654 914.508 107.682 913.668 109.796 913.668V913.668C111.911 913.668 113.938 914.508 115.434 916.003C116.929 917.498 117.768 919.526 117.768 921.64V1099.66Z" stroke="#1D1D1B" stroke-width="2" stroke-miterlimit="10"/>
<path d="M109.796 913.668C107.682 913.668 105.654 914.508 104.159 916.003C102.664 917.498 101.824 919.526 101.824 921.64V1099.66H109.796V913.668Z" stroke="#1D1D1B" stroke-width="2" stroke-miterlimit="10"/>
<path d="M276.386 935.984H69.5879V972.13H276.386V935.984Z" fill="#EFDC70"/>
<path d="M82.7458 935.984L69.5879 949.142V972.13H74.7478L110.893 935.984H82.7458Z" fill="#454444"/>
<path d="M120.077 972.13L156.223 935.984H128.075L91.9297 972.13H120.077Z" fill="#454444"/>
<path d="M165.407 972.13L201.553 935.984H173.405L137.26 972.13H165.407Z" fill="#454444"/>
<path d="M210.737 972.13L246.883 935.984H218.735L182.59 972.13H210.737Z" fill="#454444"/>
<path d="M256.067 972.13L276.398 951.813V935.984H264.065L227.92 972.13H256.067Z" fill="#454444"/>
<path d="M276.386 990.951H69.5879V1027.1H276.386V990.951Z" fill="#EFDC70"/>
<path d="M82.7458 990.951L69.5879 1004.11V1027.1H74.7478L110.893 990.951H82.7458Z" fill="#454444"/>
<path d="M120.077 1027.1L156.223 990.951H128.075L91.9297 1027.1H120.077Z" fill="#454444"/>
<path d="M165.407 1027.1L201.553 990.951H173.405L137.26 1027.1H165.407Z" fill="#454444"/>
<path d="M210.737 1027.1L246.883 990.951H218.735L182.59 1027.1H210.737Z" fill="#454444"/>
<path d="M256.067 1027.1L276.398 1006.78V990.951H264.065L227.92 1027.1H256.067Z" fill="#454444"/>
<path d="M85.4148 926.695H80.0742V935.996H85.4148V926.695Z" stroke="#1D1D1B" stroke-width="2" stroke-miterlimit="10"/>
<path d="M90.7553 926.695H80.0742V935.996H90.7553V926.695Z" fill="#C9C6C6"/>
<path d="M85.4148 926.695H80.0742V935.996H85.4148V926.695Z" fill="#B4B3B3"/>
<path d="M90.7553 926.695H80.0742V935.996H90.7553V926.695Z" stroke="#1D1D1B" stroke-width="2" stroke-miterlimit="10"/>
<path d="M99.6504 917.794C100.96 909.937 95.6517 902.507 87.7949 901.198C79.9381 899.889 72.5077 905.197 71.1985 913.053C69.8894 920.91 75.1973 928.341 83.0541 929.65C90.9109 930.959 98.3413 925.651 99.6504 917.794Z" fill="#454444"/>
<path d="M74.0254 915.421C74.0228 913.168 74.6887 910.964 75.9388 909.089C77.1889 907.214 78.9669 905.752 81.0481 904.888C83.1292 904.024 85.4199 903.797 87.6303 904.235C89.8407 904.673 91.8715 905.757 93.4658 907.349C95.0601 908.942 96.1462 910.971 96.5868 913.181C97.0274 915.391 96.8025 917.682 95.9408 919.764C95.079 921.846 93.6191 923.626 91.7456 924.878C89.8722 926.13 87.6694 926.799 85.416 926.799C82.3973 926.799 79.502 925.6 77.3662 923.467C75.2304 921.334 74.0288 918.44 74.0254 915.421Z" fill="#F08819"/>
<path opacity="0.3" d="M85.4165 904.031C83.1141 904.03 80.8655 904.728 78.9678 906.031C77.0701 907.335 75.6127 909.184 74.788 911.334C73.9634 913.484 73.8103 915.833 74.3491 918.071C74.8879 920.31 76.0931 922.332 77.8056 923.871L93.8659 907.798C92.8014 906.612 91.4987 905.663 90.0428 905.014C88.5869 904.365 87.0105 904.03 85.4165 904.031Z" fill="white"/>
<path d="M267.318 926.695H256.637V935.996H267.318V926.695Z" fill="#C9C6C6"/>
<path d="M261.977 926.695H256.637V935.996H261.977V926.695Z" fill="#B4B3B3"/>
<path d="M261.977 926.695H256.637V935.996H261.977V926.695Z" stroke="#1D1D1B" stroke-width="2" stroke-miterlimit="10"/>
<path d="M267.318 926.695H256.637V935.996H267.318V926.695Z" stroke="#1D1D1B" stroke-width="2" stroke-miterlimit="10"/>
<path d="M272.911 924.812C278.102 918.771 277.413 909.665 271.371 904.474C265.33 899.284 256.225 899.973 251.034 906.014C245.843 912.056 246.532 921.161 252.574 926.352C258.615 931.543 267.72 930.853 272.911 924.812Z" fill="#454444"/>
<path d="M250.586 915.421C250.583 913.168 251.249 910.964 252.499 909.089C253.749 907.214 255.527 905.752 257.609 904.888C259.69 904.024 261.98 903.797 264.191 904.235C266.401 904.673 268.432 905.757 270.026 907.349C271.621 908.942 272.707 910.971 273.147 913.181C273.588 915.391 273.363 917.682 272.501 919.764C271.64 921.846 270.18 923.626 268.306 924.878C266.433 926.13 264.23 926.799 261.977 926.799C258.958 926.799 256.063 925.6 253.927 923.467C251.791 921.334 250.589 918.44 250.586 915.421Z" fill="#F08819"/>
<path opacity="0.3" d="M261.976 904.031C259.673 904.028 257.422 904.723 255.523 906.026C253.623 907.329 252.163 909.178 251.337 911.328C250.511 913.478 250.357 915.828 250.895 918.068C251.434 920.308 252.639 922.332 254.352 923.871L270.426 907.798C269.36 906.613 268.057 905.665 266.602 905.016C265.146 904.367 263.57 904.032 261.976 904.031Z" fill="white"/>
<path d="M276.089 936.035H69.291V972.181H276.089V936.035Z" stroke="#1D1D1B" stroke-width="2" stroke-miterlimit="10"/>
<path d="M276.089 991.002H69.291V1027.15H276.089V991.002Z" stroke="#1D1D1B" stroke-width="2" stroke-miterlimit="10"/>
</g>
<defs>
<clipPath id="clip0_543_390">
<rect width="209.378" height="200" fill="white" transform="translate(68 901)"/>
</clipPath>
</defs>
</svg>
