<svg width="1425" height="144" viewBox="0 0 1425 144" fill="none" xmlns="http://www.w3.org/2000/svg">
<path d="M1063.15 140.95H1060.96C1023.35 140.462 987.53 128.109 962.651 106.758L917.441 68.2946C908.456 60.6386 897.975 56.4293 887.781 56.4293C877.587 56.4293 867.163 60.6386 858.179 68.2946L812.969 106.758C788.031 128.109 752.209 140.31 714.659 140.828H710.34C672.732 140.462 636.91 128.109 612.03 106.758L566.82 68.2946C557.836 60.6386 547.124 56.4293 537.16 56.4293C527.197 56.4293 516.543 60.6386 507.558 68.2946L462.348 106.758C437.699 128.109 401.589 140.462 364.039 140.92H359.719C322.112 140.493 286.29 128.109 261.41 106.758L216.2 68.2946C207.331 60.6386 196.676 56.4293 186.54 56.4293C176.404 56.4293 165.865 60.6386 156.938 68.2946L84.775 129.817C70.7225 141.774 43.4815 144.519 23.9578 135.918C14.3429 131.305 8.07759 125.057 6.24739 118.255C4.41718 111.453 7.13743 104.526 13.9368 98.6746L86.3876 37.152C111.498 15.4651 148.126 3.05078 186.54 3.05078C224.954 3.05078 261.41 15.4651 287.038 37.152L332.248 75.7066C341.06 83.2406 351.484 87.4499 361.447 87.5414H362.253C372.275 87.5414 382.641 83.2406 391.51 75.7066L436.72 37.152C462.118 15.4651 498.747 3.05078 537.16 3.05078C575.574 3.05078 612.03 15.4651 637.659 37.152L682.868 75.7066C691.738 83.2406 702.104 87.4499 712.125 87.5414H712.874C722.895 87.5414 733.261 83.2406 742.131 75.7066L787.34 37.152C812.738 15.4956 849.367 3.05078 887.781 3.05078C926.195 3.05078 962.651 15.4651 988.279 37.152L1033.49 75.7066C1042.36 83.2406 1052.72 87.4499 1062.75 87.5414H1063.55C1073.52 87.5414 1083.94 83.2406 1092.75 75.7066L1137.96 37.152C1163.36 15.4651 1199.99 3.05078 1238.23 3.05078C1276.47 3.05078 1313.1 15.4651 1338.67 37.152L1411 98.6746C1417.8 104.524 1420.52 111.447 1418.7 118.248C1416.88 125.048 1410.64 131.298 1401.04 135.918C1381.46 144.519 1354.22 141.774 1340.17 129.817L1268.06 68.2946C1259.08 60.6386 1248.59 56.4293 1238.46 56.4293C1228.32 56.4293 1217.78 60.6386 1208.8 68.2946L1163.36 106.758C1138.48 128.109 1102.66 140.31 1065.05 140.828L1063.15 140.95Z" fill="#F0D9DA" stroke="#B4B3B3" stroke-opacity="0.8" stroke-width="2" stroke-miterlimit="10"/>
</svg>
