<svg width="809" height="781" viewBox="0 0 809 781" fill="none" xmlns="http://www.w3.org/2000/svg">
<path d="M396.323 135.876H428.625L460.707 222.076L337.394 212.907C337.394 212.907 330.082 174.4 350.243 138.181C370.404 101.962 396.323 135.876 396.323 135.876Z" fill="#010101"/>
<path d="M400.283 101.448L443.746 207.454C443.746 207.454 465.317 248.78 485.495 285.286H517.889C518.387 285.286 518.86 285.286 519.333 285.227C524.199 284.866 528.75 282.68 532.075 279.108C535.399 275.536 537.253 270.841 537.265 265.961V212.772C533.12 208.298 529.397 204.988 527.446 203.865C504.221 190.357 493.389 202.236 483.629 191.201C470.61 176.469 485.605 166.591 478.631 146.861C471.497 126.742 456.199 127.155 442.15 119C429.166 111.52 427.477 94.5669 426.025 87.7621C425.257 84.1149 400.283 101.448 400.283 101.448Z" fill="#010101"/>
<path d="M424.681 97.1076C426.013 94.2056 426.476 90.9802 426.015 87.8207C425.522 84.7478 424.748 81.7267 423.702 78.7955C419.979 68.8923 409.408 50.673 382.603 53.3325C346.114 57.005 350.251 122.503 350.251 122.503L415.496 117.522L424.681 97.1076Z" fill="#010101"/>
<path d="M362.865 181.703C362.865 181.703 364.9 185.663 376.838 184.566C395.217 182.877 401.102 174.662 401.102 174.662L401.946 143.298L396.315 144.387L363.034 150.82L362.975 166.118L362.865 181.703Z" fill="#F8A792"/>
<path d="M362.242 166.135C370.989 165.29 387.764 161.618 394.586 147.375C395.071 146.443 395.404 145.44 395.574 144.403L362.293 150.837L362.242 166.135Z" fill="#010101"/>
<path d="M356.162 79.379C356.162 79.379 338.196 118.3 344.241 140.293C350.286 162.286 370.852 158.976 383.17 154.831C395.488 150.686 401.28 143.391 401.28 143.391C401.28 143.391 412.694 147.258 420.487 136.933C428.279 126.607 423.695 114.627 417.186 111.849C410.676 109.072 402.833 113.614 402.833 113.614L409.064 102.309C409.064 102.309 384.074 44.4095 356.162 79.379Z" fill="#F8A792"/>
<path d="M380.47 100.054C380.706 100.056 380.938 99.9976 381.145 99.8854C381.493 99.7051 381.756 99.3945 381.876 99.0213C381.997 98.6481 381.964 98.2425 381.787 97.8929C379.051 92.5909 372.356 93.9671 372.086 94.0346C371.896 94.0751 371.716 94.1526 371.556 94.2628C371.395 94.3729 371.258 94.5135 371.153 94.6766C371.047 94.8397 370.974 95.022 370.939 95.2131C370.903 95.4043 370.906 95.6005 370.946 95.7907C370.987 95.9808 371.064 96.1611 371.175 96.3213C371.285 96.4815 371.425 96.6184 371.588 96.7243C371.752 96.8301 371.934 96.9028 372.125 96.9381C372.316 96.9735 372.512 96.9709 372.703 96.9304C372.897 96.8798 377.464 95.968 379.153 99.2522C379.278 99.4936 379.467 99.696 379.699 99.8374C379.931 99.9788 380.198 100.054 380.47 100.054V100.054Z" fill="#010101"/>
<path d="M352.625 95.5543C352.865 95.5531 353.102 95.4942 353.315 95.3825C353.528 95.2709 353.711 95.1097 353.849 94.9126C354.128 94.5074 355.149 93.3507 356.12 93.3507C356.922 93.3507 357.674 94.195 358.155 94.9126C358.266 95.0728 358.407 95.2096 358.571 95.3152C358.734 95.4208 358.917 95.4931 359.109 95.528C359.301 95.5629 359.497 95.5597 359.688 95.5185C359.878 95.4774 360.059 95.3992 360.219 95.2883C360.379 95.1774 360.516 95.0361 360.622 94.8724C360.727 94.7086 360.799 94.5257 360.834 94.334C360.869 94.1423 360.866 93.9456 360.825 93.7552C360.784 93.5648 360.706 93.3843 360.595 93.2241C359.303 91.3329 357.8 90.3789 356.12 90.3789C353.41 90.3789 351.595 92.9117 351.401 93.2325C351.18 93.5562 351.097 93.954 351.17 94.3387C351.243 94.7233 351.466 95.0634 351.789 95.2841C352.035 95.4549 352.326 95.5489 352.625 95.5543V95.5543Z" fill="#010101"/>
<path d="M403.365 113.546C403.365 113.546 386.277 114.002 374.66 95.3186C363.043 76.635 364.36 71.8902 364.36 71.8902L352.692 91.1985C352.692 91.1985 350.092 77.8001 355.444 69.2477C360.797 60.6953 366.344 62.4935 366.344 62.4935L403.373 71.7805L413.125 101.456L403.365 113.546Z" fill="#010101"/>
<path d="M358.965 129.958C359.353 129.961 359.727 129.809 360.003 129.537C360.28 129.265 360.438 128.894 360.443 128.506C360.552 120.959 365.027 111.114 365.069 111.013C365.234 110.652 365.248 110.239 365.109 109.867C365.04 109.683 364.935 109.514 364.801 109.37C364.666 109.227 364.505 109.111 364.326 109.029C363.965 108.865 363.552 108.85 363.18 108.99C362.808 109.129 362.507 109.41 362.342 109.772C362.148 110.194 357.555 120.292 357.445 128.456C357.443 128.65 357.479 128.842 357.551 129.022C357.624 129.202 357.731 129.367 357.866 129.505C358.002 129.644 358.163 129.755 358.342 129.831C358.52 129.907 358.712 129.948 358.906 129.95L358.965 129.958Z" fill="#010101"/>
<path d="M404.784 130.034C404.982 130.034 405.178 129.995 405.361 129.918C405.544 129.841 405.709 129.728 405.848 129.587L416.544 118.611C416.68 118.472 416.786 118.308 416.858 118.127C416.93 117.947 416.965 117.754 416.962 117.56C416.96 117.366 416.919 117.175 416.842 116.996C416.765 116.818 416.654 116.657 416.515 116.522C416.376 116.386 416.211 116.28 416.031 116.208C415.851 116.136 415.658 116.101 415.464 116.104C415.27 116.106 415.078 116.147 414.9 116.224C414.722 116.301 414.561 116.412 414.425 116.551L403.712 127.501C403.574 127.638 403.465 127.8 403.39 127.979C403.316 128.158 403.277 128.35 403.277 128.544C403.277 128.738 403.316 128.93 403.39 129.109C403.465 129.288 403.574 129.45 403.712 129.587C403.85 129.731 404.016 129.846 404.201 129.923C404.385 130 404.584 130.038 404.784 130.034V130.034Z" fill="#010101"/>
<path d="M417.624 130.034C417.973 130.033 418.309 129.91 418.575 129.685C418.841 129.46 419.019 129.148 419.078 128.805C419.137 128.462 419.072 128.109 418.896 127.808C418.719 127.508 418.442 127.28 418.114 127.164L408.548 123.786C408.365 123.722 408.171 123.695 407.976 123.705C407.782 123.716 407.592 123.765 407.417 123.849C407.242 123.934 407.085 124.052 406.955 124.197C406.826 124.342 406.726 124.511 406.661 124.694C406.597 124.878 406.57 125.072 406.58 125.266C406.591 125.46 406.64 125.65 406.724 125.825C406.809 126.001 406.927 126.158 407.072 126.287C407.217 126.417 407.386 126.517 407.569 126.581L417.135 129.958C417.292 130.012 417.458 130.037 417.624 130.034V130.034Z" fill="#010101"/>
<path d="M353.055 112.305C352.851 112.302 352.651 112.257 352.465 112.175C352.279 112.092 352.112 111.972 351.974 111.823C351.836 111.674 351.73 111.498 351.662 111.307C351.593 111.115 351.565 110.912 351.577 110.709L352.193 103.111C352.234 102.723 352.422 102.365 352.719 102.112C353.016 101.859 353.399 101.73 353.789 101.751C354.179 101.786 354.54 101.973 354.793 102.271C355.046 102.57 355.17 102.957 355.14 103.347L354.532 110.903C354.513 111.282 354.348 111.638 354.073 111.899C353.798 112.16 353.434 112.305 353.055 112.305V112.305Z" fill="#010101"/>
<path d="M375.435 113.224C375.232 113.221 375.032 113.177 374.846 113.094C374.66 113.011 374.493 112.892 374.355 112.743C374.217 112.594 374.111 112.418 374.042 112.226C373.974 112.035 373.945 111.832 373.958 111.629L374.574 104.072C374.609 103.683 374.794 103.323 375.091 103.069C375.387 102.815 375.772 102.687 376.161 102.713C376.553 102.746 376.916 102.932 377.17 103.231C377.425 103.53 377.551 103.917 377.521 104.309L376.904 111.865C376.877 112.235 376.71 112.581 376.437 112.834C376.165 113.086 375.807 113.225 375.435 113.224V113.224Z" fill="#010101"/>
<path d="M372.473 67.8291C374.516 72.8356 386.42 100.941 407.974 103.339C409.938 103.554 411.92 103.554 413.884 103.339" stroke="#3D3D3C" stroke-width="0.25" stroke-miterlimit="10"/>
<path d="M441.424 133.951C448.642 135.944 459.348 140.165 463.071 149.452C463.341 150.136 463.738 151.25 464.43 157.709C466.397 176.012 464.717 181.078 467.478 189.014C469.296 194.074 472.228 198.662 476.056 202.438" stroke="#3D3D3C" stroke-width="0.25" stroke-miterlimit="10"/>
<path d="M374.128 603.32H347.5V703.906H374.128V603.32Z" fill="#F9B2A1"/>
<path d="M445.13 603.32H418.502V703.906H445.13V603.32Z" fill="#F9B2A1"/>
<path d="M451.758 632.372L469.234 371.494L330.598 357.556L336.415 637.438C336.415 637.438 362.773 652.956 381.27 635.471C381.27 635.471 392.052 441.577 395.251 441.433C398.451 441.29 410.102 634.213 410.102 634.213C410.102 634.213 433.117 646.548 451.902 635.724" fill="#F0E1BA"/>
<path d="M363.085 180.462C363.085 180.462 377.75 189.631 402.166 171.378C402.166 171.378 438.782 185.984 438.782 204.237C438.782 222.49 457.094 324.696 441.838 361.202C441.838 361.202 393.006 386.758 328.918 361.202C328.918 361.202 328.918 196.934 344.182 189.631C359.447 182.328 363.085 180.462 363.085 180.462Z" fill="#CCBCBC"/>
<path d="M349.172 248.299C349.172 248.299 364.875 257.18 417.22 242.389" stroke="#C8967D" stroke-miterlimit="10"/>
<path d="M349.172 269.008C349.172 269.008 364.875 277.89 417.22 263.099" stroke="#C8967D" stroke-miterlimit="10"/>
<path d="M349.172 310.428C349.172 310.428 364.875 319.302 417.22 304.519" stroke="#C8967D" stroke-miterlimit="10"/>
<path d="M352.135 331.138C352.135 331.138 367.838 340.012 420.183 325.229" stroke="#C8967D" stroke-miterlimit="10"/>
<path d="M349.172 289.718C349.172 289.718 364.875 298.6 417.22 283.809" stroke="#C8967D" stroke-miterlimit="10"/>
<path d="M349.172 227.589C349.172 227.589 364.875 236.47 417.22 221.679" stroke="#C8967D" stroke-miterlimit="10"/>
<path d="M346.217 206.862C346.217 206.862 361.92 215.744 414.265 200.952" stroke="#C8967D" stroke-miterlimit="10"/>
<path d="M264.787 135.235C266.569 141.871 269.735 152.332 269.735 152.332C269.574 155.236 268.992 167.309 268.316 182.109L289.828 172.915C289.828 172.915 288.984 148.853 289.955 147.359C290.74 146.093 292.158 147.612 298.592 137.937C300.449 135.143 300.694 130.221 300.694 130.221C300.694 130.221 300.956 124.167 299.58 123.635C298.935 123.432 298.239 123.468 297.619 123.736C296.999 124.005 296.496 124.487 296.202 125.096C295.73 126.151 295.915 128.583 295.443 129.638C294.97 130.693 291.863 132.027 290.546 131.994C289.229 131.96 290.293 114.104 290.293 114.104C290.293 114.104 290.917 109.038 291.255 107.349C291.542 105.931 292.733 101.769 292.733 101.769C292.733 101.769 294.1 95.7323 292.226 95.3186C291.12 95.0738 288.435 100.013 286.637 105.222C284.704 110.845 283.665 116.771 283.074 116.712C281.681 116.552 282.23 106.767 282.23 106.767C282.23 106.767 283.505 102.258 283.42 100.148C284.67 97.5306 285.421 92.7099 283.116 92.3637C282.694 92.3046 279.798 98.4677 279.798 98.4677C279.798 98.4677 278.709 102.79 278.059 104.817C276.919 108.379 276.869 113.977 276.286 116.459C275.797 118.519 275.298 117.683 275.087 117.776C274.876 117.869 275.146 115.015 275.4 111.115C275.518 109.156 275.248 106.894 275.737 104.656C276.164 102.405 276.424 100.124 276.514 97.8345C276.767 92.769 273.601 93.3599 272.605 98.0034C272.225 99.7764 271.829 101.71 271.44 103.668C269.904 111.267 270.115 118.578 269.304 118.663C268.24 118.764 268.637 105.458 268.637 105.458C268.637 105.458 266.839 98.1385 265.378 105.002C264.332 109.831 263.89 114.771 264.061 119.709C264.255 121.66 263.014 128.608 264.787 135.235Z" fill="#F9B2A1"/>
<path d="M358.965 143.229C358.965 143.229 370.295 149.696 374.634 133.562Z" fill="#010101"/>
<path d="M360.865 179.499C337.613 189.812 317.8 206.567 303.768 227.783C303.582 225.545 303.202 221.029 303.016 218.715C300.137 184.379 299.977 183.813 299.994 179.423C299.994 174.645 300.264 161.542 300.407 154.847C300.407 154.619 300.407 154.492 300.407 154.492C293.771 154.796 286.553 154.847 278.828 154.492C272.074 154.188 265.784 153.648 259.933 152.871L259.604 247.429C259.351 249.691 257.764 266.129 269.001 276.134C272.364 279.271 276.562 281.37 281.091 282.179C289.533 283.53 296.33 279.334 301.496 276.134C306.843 272.806 311.468 268.439 315.098 263.293L314.008 386.454C314.008 386.454 364.985 411.664 477.399 387.72L467.876 208.449C467.876 208.449 456.056 172.019 400.335 170.626C400.335 170.626 385.433 229.674 384.673 267.455C384.665 267.455 374.086 189.014 360.865 179.499Z" fill="#7A7B80"/>
<path d="M477.559 387.974C461.1 391.925 444.385 394.721 427.536 396.341C419.735 397.084 412.221 397.557 405.02 397.801C407.088 388.65 416.096 353.9 448.204 334.988C456.363 330.227 465.265 326.871 474.536 325.06C475.544 346.02 476.551 366.991 477.559 387.974Z" fill="#E8E9EC"/>
<path d="M478.462 231.979C478.336 231.987 478.209 231.987 478.082 231.979L404.268 231.548C404.268 218.412 403.967 204.83 403.365 190.804C403.044 183.696 402.644 176.711 402.166 169.85C402.166 169.85 465.967 172.247 478.462 231.979Z" fill="#7A7B80"/>
<path d="M383.736 299.57L387.763 397.801" stroke="#575960" stroke-width="0.75" stroke-miterlimit="10"/>
<path d="M361.954 179.424L344.613 212.671L383.905 303.345C384.226 290.478 384.541 277.606 384.851 264.728C377.208 236.282 369.575 207.847 361.954 179.424Z" fill="#575960"/>
<path d="M407.662 236.006C411.021 238.238 414.964 239.43 418.996 239.43C423.029 239.43 426.972 238.238 430.331 236.006C428.547 239.278 427.612 242.946 427.612 246.673C427.612 250.4 428.547 254.068 430.331 257.34C426.97 255.113 423.028 253.925 418.996 253.925C414.965 253.925 411.023 255.113 407.662 257.34C409.414 254.058 410.33 250.394 410.33 246.673C410.33 242.952 409.414 239.289 407.662 236.006V236.006Z" fill="#E8EB8F"/>
<path d="M383.863 304.105L423.907 210.391L402.023 171.116C399.817 179.925 397.768 189.003 395.877 198.352C388.84 233.192 384.821 268.574 383.863 304.105V304.105Z" fill="#575960"/>
<path d="M361.625 179.499L346.082 211.159L383.863 301.082L386.32 263.217C386.32 263.217 368.092 174.282 361.625 179.499Z" fill="#213D73"/>
<path d="M383.863 301.834C396.713 271.114 409.557 240.385 422.396 209.649L400.487 170.356C398.269 179.137 396.221 188.218 394.341 197.601C387.526 231.931 384.018 266.835 383.863 301.834V301.834Z" fill="#213D73"/>
<path d="M422.396 209.648L416.376 199.069L383.863 301.082L422.396 209.648Z" fill="#848484"/>
<path d="M351.147 291.356L389.611 406.741C389.611 406.741 395.521 415.615 404.403 409.696L475.406 377.158C476.765 376.575 477.996 375.73 479.029 374.671C480.062 373.612 480.875 372.36 481.424 370.987C481.973 369.613 482.246 368.145 482.227 366.666C482.209 365.187 481.899 363.726 481.316 362.367C468.5 329.823 455.681 297.28 442.859 264.736C442.429 262.803 441.069 257.889 436.949 255.854C433.724 254.276 430.347 255.196 428.068 255.854C415.075 259.611 403.204 264.077 401.448 264.736C398.071 265.994 392.288 267.547 380.738 270.646C371.502 273.128 363.473 275.087 357.099 276.556C356.584 276.758 351.721 278.717 350.345 283.892C349.715 286.396 350 289.043 351.147 291.356V291.356Z" fill="#A9A8A8"/>
<path d="M354.11 291.356C366.915 329.82 379.734 368.282 392.567 406.741C392.567 406.741 398.477 415.615 407.358 409.696L478.369 377.158C479.729 376.575 480.96 375.73 481.993 374.671C483.025 373.612 483.839 372.36 484.388 370.987C484.937 369.613 485.21 368.145 485.191 366.666C485.172 365.187 484.862 363.726 484.279 362.367C471.452 329.823 458.63 297.28 445.814 264.736C445.384 262.803 444.025 257.889 439.905 255.854C436.688 254.276 433.311 255.196 431.031 255.854C418.03 259.611 406.159 264.077 404.403 264.736C401.026 265.994 395.243 267.547 383.693 270.646C374.466 273.128 366.428 275.087 360.054 276.556C359.531 276.758 354.676 278.717 353.3 283.892C352.672 286.397 352.959 289.044 354.11 291.356V291.356Z" fill="#D8D7D9"/>
<path d="M420.673 338.695C426.389 338.695 431.024 334.06 431.024 328.344C431.024 322.627 426.389 317.993 420.673 317.993C414.956 317.993 410.322 322.627 410.322 328.344C410.322 334.06 414.956 338.695 420.673 338.695Z" fill="#A9A8A8"/>
<path d="M424.488 379.532C430.449 375.032 439.685 367.543 439.685 367.543C442.682 366.522 455.093 362.165 470.298 356.796L452.223 338.847C452.223 338.847 428.279 349.518 426.388 349.189C424.784 348.91 425.746 346.859 413.344 344.326C409.764 343.6 404.699 345.364 404.699 345.364C404.699 345.364 398.485 347.585 398.51 349.181C398.573 349.914 398.896 350.6 399.421 351.116C399.946 351.631 400.638 351.942 401.373 351.992C402.63 351.992 405.003 350.852 406.261 350.894C407.519 350.937 410.136 353.52 410.643 354.871C411.149 356.222 392.693 362.469 392.693 362.469C392.693 362.469 387.324 363.921 385.509 364.259C383.964 364.546 379.278 365.053 379.278 365.053C379.278 365.053 372.634 366.142 372.98 368.202C373.182 369.418 379.261 370.101 385.264 369.789C391.723 369.443 398.131 368.058 398.308 368.683C398.722 370.144 388.641 373.639 388.641 373.639C388.641 373.639 383.575 374.196 381.473 375.142C378.324 374.956 373.149 376.172 373.748 378.637C373.858 379.093 381.262 379.481 381.262 379.481C381.262 379.481 386.066 378.814 388.371 378.637C392.44 378.325 398.105 376.104 400.841 375.665C403.12 375.311 402.487 376.155 402.664 376.34C402.842 376.526 399.853 377.404 395.817 378.747C393.791 379.422 391.596 380.629 389.164 381.043C386.718 381.54 384.311 382.215 381.963 383.061C376.754 384.876 378.645 387.831 383.736 386.928C385.678 386.59 387.788 386.193 389.924 385.796C398.232 384.226 405.509 381.018 405.923 381.811C406.463 382.833 392.879 387.882 392.879 387.882C392.879 387.882 386.226 392.694 393.723 391.352C399.024 390.439 404.189 388.865 409.098 386.666C411.006 385.636 418.528 384.04 424.488 379.532Z" fill="#F9B2A1"/>
<path d="M460.478 702.344C458.79 703.526 451.799 704.582 443.196 705.468C426.024 707.233 402.52 708.305 402.52 708.305L413.934 686.16L412.803 682.926C412.638 682.443 412.595 681.926 412.677 681.421C412.76 680.917 412.966 680.441 413.276 680.035C413.587 679.629 413.993 679.307 414.458 679.095C414.923 678.884 415.433 678.79 415.943 678.823L432.93 679.98L443.433 668.582C443.596 668.326 443.824 668.117 444.092 667.975C444.361 667.834 444.662 667.764 444.966 667.773C445.27 667.783 445.566 667.871 445.825 668.029C446.085 668.187 446.299 668.41 446.447 668.675C449.148 673.504 454.602 683.475 458.005 691.352C460.411 696.907 461.787 701.424 460.478 702.344Z" fill="#E0E1E0"/>
<path d="M460.48 702.345C460.48 702.345 433.387 727.673 429.082 728.567C424.776 729.462 383.643 732.561 382.791 729.944C381.938 727.326 383.77 724.22 386.581 721.079C392.398 714.595 402.521 708.305 402.521 708.305L442.202 694.797L450.796 698.36L460.48 702.345Z" fill="#E0E1E0"/>
<path d="M460.48 702.345C460.48 702.345 433.387 727.673 429.082 728.568C424.776 729.463 383.643 732.561 382.791 729.944C381.938 727.327 383.77 724.22 386.581 721.079C396.713 720.581 422.775 719.188 427.241 718.014C429.723 717.364 436.477 711.64 443.198 705.469C445.823 703.063 448.449 700.597 450.796 698.326C453.76 695.498 456.326 692.999 457.989 691.353C460.412 696.908 461.788 701.425 460.48 702.345Z" fill="#0C1B3F"/>
<path d="M409.621 695.033C409.529 695.007 409.449 694.952 409.391 694.876C409.334 694.799 409.303 694.707 409.303 694.611C409.303 694.516 409.334 694.423 409.391 694.347C409.449 694.271 409.529 694.215 409.621 694.189L419.398 693.86C419.456 693.855 419.515 693.863 419.57 693.882C419.625 693.901 419.675 693.931 419.718 693.971C419.761 694.01 419.795 694.059 419.819 694.112C419.842 694.166 419.854 694.223 419.854 694.282C419.856 694.34 419.847 694.397 419.827 694.451C419.807 694.505 419.776 694.555 419.737 694.597C419.698 694.64 419.651 694.674 419.598 694.698C419.546 694.722 419.489 694.736 419.432 694.738L409.655 695.059L409.621 695.033Z" fill="#5D6AA4"/>
<path d="M377.286 708.288C377.109 713.117 376.51 716.629 375.15 716.908C369.156 718.115 309.509 720.884 306.419 720.108C303.329 719.331 293.898 718.858 293.957 712.99C294.01 711.837 294.424 710.73 295.139 709.824C298.086 705.772 305.608 703.273 305.608 703.273L339.075 683.331C339.075 683.331 339.201 681.719 339.353 679.954C339.395 679.444 339.562 678.953 339.84 678.523C340.118 678.094 340.499 677.74 340.947 677.494C341.396 677.248 341.899 677.117 342.41 677.113C342.922 677.11 343.426 677.233 343.879 677.472L358.966 685.332L373.175 679.135C373.427 678.967 373.719 678.868 374.021 678.846C374.324 678.825 374.627 678.883 374.9 679.014C375.173 679.145 375.408 679.345 375.581 679.594C375.753 679.844 375.858 680.133 375.885 680.435C376.459 686.48 377.582 699.541 377.286 708.288Z" fill="#E0E1E0"/>
<path d="M377.286 708.288C377.109 713.117 376.51 716.629 375.15 716.908C369.156 718.115 309.509 720.885 306.419 720.108C303.329 719.331 293.898 718.858 293.957 712.991C294.01 711.838 294.424 710.73 295.139 709.825C303.768 710.822 312.448 711.321 321.134 711.319C336.171 711.446 368.405 708.98 377.286 708.288Z" fill="#0C1B3F"/>
<path d="M339.547 691.58C339.467 691.581 339.388 691.561 339.319 691.521L332.615 687.418C332.559 687.392 332.509 687.355 332.468 687.308C332.427 687.261 332.396 687.206 332.378 687.147C332.36 687.087 332.355 687.025 332.363 686.963C332.371 686.902 332.392 686.842 332.424 686.789C332.457 686.737 332.5 686.691 332.551 686.656C332.603 686.621 332.661 686.598 332.722 686.587C332.783 686.576 332.846 686.578 332.906 686.594C332.966 686.609 333.023 686.637 333.071 686.675L339.775 690.77C339.887 690.8 339.982 690.874 340.04 690.974C340.098 691.075 340.113 691.194 340.083 691.306C340.053 691.418 339.979 691.513 339.879 691.571C339.778 691.629 339.659 691.644 339.547 691.614V691.58Z" fill="#5D6AA4"/>
<path d="M473.785 217.965L448.094 224.01C450.247 228.881 453.506 236.471 457.161 245.918C461.501 257.13 463.662 263.851 467.74 275.392C470.45 283.041 474.494 294.21 479.83 307.879C474.36 313.987 468.56 319.79 462.455 325.262C461.729 325.904 451.724 334.811 445.831 337.352C441.551 339.193 436.291 341.076 436.291 341.076C437.355 346.85 438.334 351.536 439.026 354.727C440.867 363.128 443.197 372.55 443.206 372.575C459.61 364.132 508.796 336.795 507.792 302.594C507.581 295.519 504.415 287.203 497.965 270.858C490.894 252.791 482.822 235.133 473.785 217.965V217.965Z" fill="#7A7B80"/>
<path d="M253.145 152.222H304.527V168.094L252.385 167.342L253.145 152.222Z" fill="#213D73"/>
<path d="M428.66 340.873L438.259 376.171L451.329 371.815L441.307 336.533L428.66 340.873Z" fill="#213D73"/>
<path d="M314.016 387.223C349.205 400.824 382.35 397.801 382.35 397.801C361.953 329.036 314.379 326.292 314.379 326.292L314.016 387.223Z" fill="#E8E9EC"/>
<path d="M328.571 199.72C329.044 205.874 326.342 211.539 321.606 214.224C318.925 215.671 315.84 216.188 312.834 215.693C315.485 212.536 318.499 209.226 321.901 205.874C324.164 203.646 326.401 201.594 328.571 199.72Z" fill="#E8E9EC"/>
<path d="M691.648 578.305H665.02V678.89H691.648V578.305Z" fill="#F9B2A1"/>
<path d="M620.646 578.305H594.018V678.89H620.646V578.305Z" fill="#F9B2A1"/>
<path d="M697.895 306.123L700.52 645.29C700.52 645.29 684.741 667.317 655.816 649.697C655.816 649.697 634.777 447.073 632.177 420.648C629.577 394.222 626.917 398.621 626.917 398.621L629.543 649.697C629.543 649.697 597.984 667.317 584.797 649.697C571.609 632.077 558.498 319.336 558.498 319.336L697.895 306.123Z" fill="#010101"/>
<path d="M487.935 42.8638C489.708 49.4912 492.882 59.9601 492.882 59.9601C492.713 62.8644 492.139 74.9374 491.464 89.7374L512.976 80.5433C512.976 80.5433 512.131 56.4818 513.094 54.979C513.887 53.721 515.297 55.2407 521.739 45.5654C523.596 42.7709 523.841 37.8488 523.841 37.8488C523.841 37.8488 524.095 31.7954 522.727 31.2636C522.082 31.0642 521.388 31.1018 520.768 31.3696C520.149 31.6375 519.646 32.1179 519.35 32.7241C518.885 33.7795 519.063 36.2109 518.598 37.2663C518.134 38.3216 515.019 39.6556 513.693 39.6218C512.368 39.588 513.465 21.7318 513.465 21.7318C513.465 21.7318 514.09 16.6662 514.419 14.9777C514.706 13.5593 515.897 9.39709 515.897 9.39709C515.897 9.39709 517.264 3.36904 515.399 2.95535C514.293 2.71051 511.608 7.64946 509.81 12.8586C507.868 18.4814 506.838 24.4081 506.247 24.3406C504.854 24.1886 505.403 14.4036 505.403 14.4036C505.403 14.4036 506.686 9.89521 506.601 7.78455C507.842 5.16732 508.602 0.346571 506.289 0.000422323C505.867 -0.0586762 502.979 6.10446 502.979 6.10446C502.979 6.10446 501.89 10.4271 501.24 12.4533C500.041 16.0583 499.957 21.6305 499.4 24.1042C498.919 26.1726 498.42 25.3368 498.201 25.4297C497.981 25.5226 498.268 22.6605 498.513 18.7684C498.64 16.8097 498.361 14.5471 498.859 12.3098C499.282 10.0578 499.539 7.77779 499.628 5.48815C499.889 0.422555 496.715 1.01354 495.727 5.657C495.347 7.42995 494.951 9.36332 494.554 11.322C493.017 18.9204 493.237 26.2317 492.418 26.3077C491.362 26.4175 491.751 13.1119 491.751 13.1119C491.751 13.1119 489.961 5.79208 488.5 12.656C487.45 17.4814 487.007 22.4193 487.183 27.3546C487.394 29.288 486.162 36.2363 487.935 42.8638Z" fill="#F9B2A1"/>
<path d="M568.983 149.959C549.219 168.533 530.755 183.805 526.534 180.352C526.232 180.098 526.007 179.765 525.884 179.39C522.507 170.179 522.507 62.7041 522.507 62.7041C508.998 65.659 498.8 66.7819 494.958 66.841C491.303 66.9001 488.381 66.9508 485.064 65.7772C484.608 65.6168 484.532 65.5662 484.371 65.583C480.454 65.9967 481.383 93.9419 481.661 117.978C482.438 186.625 477.617 200.843 491.868 213.161C503.333 223.106 518.581 224.313 521.857 224.592C534.765 225.613 554.589 222.667 561.765 210.94C565.598 204.676 563.074 200.649 563.327 185.545C563.535 173.476 565.439 161.497 568.983 149.959V149.959Z" fill="#7A7B80"/>
<path d="M700.665 231.692C700.665 231.692 702.716 269.591 703.746 302.779C704.447 325.295 704.675 345.642 703.484 350.547C700.521 362.696 573.307 378.889 555.561 358.644C555.561 358.644 546.485 230.012 551.019 229.556C555.552 229.1 700.665 231.692 700.665 231.692Z" fill="#7A7B80"/>
<path d="M549.643 233.752C553.927 237.444 558.439 240.865 563.151 243.993H701.948L703.451 155.759C667.992 130.195 633.554 136.569 633.554 136.569C633.554 136.569 588.361 131.284 564.755 153.454C561.253 156.726 558.327 160.565 556.101 164.81C552.361 172.045 550.504 201.096 549.643 233.752Z" fill="#7A7B80"/>
<path d="M601.48 216.453C610.37 253.355 615.266 260.565 618.103 260.278C620.788 260 621.438 253.001 627.171 239.121C630.177 231.821 633.713 224.749 637.749 217.964C641.52 195.805 645.297 173.64 649.079 151.47C645.787 150.524 603.827 138.848 593.923 154.492C592.809 156.24 591.087 159.946 593.923 180.183C595.632 192.428 598.156 204.544 601.48 216.453V216.453Z" fill="#6977A8"/>
<path d="M647.113 103.862L647.772 136.333C647.772 136.333 642.107 145.78 623.145 147.705C609.02 149.14 603.988 146.016 603.988 146.016L605.626 129.536L607.247 113.495L641.389 105.255L647.113 103.862Z" fill="#F9B2A1"/>
<path d="M582.855 81.7846C583.623 72.3879 589.609 65.2117 596.279 65.7436H599.706C600.119 65.714 600.534 65.714 600.947 65.7436C607.592 66.2923 612.362 74.3466 611.594 83.7433C610.825 93.14 604.839 100.308 598.161 99.7843H594.742C594.326 99.8138 593.908 99.8138 593.492 99.7843C586.848 99.2356 582.086 91.1982 582.855 81.7846Z" fill="#475982"/>
<path d="M647.273 111.537C633.892 109.004 595.57 47.3728 595.57 47.3728C595.57 47.3728 576.49 23.8515 581.64 20.7362C586.79 17.6209 591.687 22.4247 591.687 22.4247C602.521 20.7754 613.432 19.6709 624.377 19.1152C626.361 19.0223 628.311 18.9717 630.211 18.9717C635.952 18.9717 641.186 19.3094 644.757 20.3309C658.932 24.3496 668.447 47.5838 668.447 47.5838C668.447 47.5838 675.548 46.9337 678.578 56.609C681.609 66.2843 660.638 113.994 647.273 111.537Z" fill="#010101"/>
<path d="M641.389 105.238C641.272 106.325 640.987 107.388 640.545 108.387C633.613 124.749 613.824 128.65 605.668 129.545L607.289 113.504L641.389 105.238Z" fill="#010101"/>
<path d="M598.508 39.6216C598.508 39.6216 582.298 80.6698 589.449 103.153C596.6 125.635 617.183 121.313 629.408 116.484C641.633 111.654 647.137 103.82 647.137 103.82C647.137 103.82 658.839 107.332 666.184 96.3056C673.529 85.2795 668.328 73.0967 661.633 70.5048C654.938 67.9129 647.281 72.9532 647.281 72.9532L653.013 60.99C653.013 60.99 624.908 2.26289 598.508 39.6216Z" fill="#F9B2A1"/>
<path d="M598.508 39.6212C598.508 39.6212 611.172 34.5556 616.533 38.9964C621.894 43.4372 628.285 81.0661 647.23 72.9865C666.176 64.9069 656.374 40.7947 656.374 40.7947C656.374 40.7947 608.715 0.0166949 598.508 39.6212Z" fill="#010101"/>
<path d="M648.684 91.198C648.3 91.2001 647.93 91.0516 647.654 90.7843C647.378 90.506 647.223 90.1296 647.223 89.7374C647.223 89.3452 647.378 88.9689 647.654 88.6905L657.836 78.0866C658.114 77.8325 658.478 77.694 658.854 77.6994C659.23 77.7047 659.59 77.8534 659.861 78.1152C660.131 78.3769 660.292 78.732 660.309 79.108C660.327 79.4839 660.2 79.8524 659.955 80.1381L649.731 90.7336C649.596 90.8765 649.434 90.991 649.254 91.0707C649.074 91.1504 648.881 91.1937 648.684 91.198Z" fill="#010101"/>
<path d="M662.52 88.5975C662.392 88.5973 662.264 88.5803 662.14 88.5469L653.317 86.242C652.937 86.1427 652.612 85.8969 652.412 85.5583C652.213 85.2197 652.156 84.8159 652.254 84.4353C652.301 84.2461 652.385 84.0681 652.502 83.9121C652.619 83.756 652.766 83.6249 652.934 83.5265C653.103 83.4282 653.289 83.3645 653.482 83.3394C653.676 83.3142 653.872 83.328 654.06 83.38L662.9 85.6848C663.253 85.7709 663.561 85.9838 663.767 86.2831C663.973 86.5823 664.061 86.9469 664.015 87.3072C663.969 87.6674 663.792 87.9981 663.518 88.2361C663.244 88.4742 662.891 88.6028 662.528 88.5975H662.52Z" fill="#010101"/>
<path d="M595.832 58.1447C595.509 58.1435 595.195 58.0368 594.937 57.8408C594.631 57.6078 594.429 57.2634 594.376 56.8825C594.322 56.5015 594.421 56.1147 594.65 55.8061C594.76 55.6542 597.462 52.142 604.199 53.1214C604.392 53.1492 604.578 53.2151 604.746 53.3153C604.914 53.4154 605.06 53.5479 605.176 53.7049C605.292 53.8619 605.376 54.0404 605.423 54.2301C605.47 54.4198 605.478 54.6168 605.449 54.8099C605.386 55.198 605.175 55.5465 604.859 55.7813C604.544 56.0162 604.15 56.119 603.76 56.0678C598.855 55.3418 597.065 57.5115 597.006 57.6044C596.862 57.7752 596.682 57.9121 596.479 58.0055C596.277 58.0989 596.056 58.1464 595.832 58.1447Z" fill="#010101"/>
<path d="M626.411 58.5331C626.064 58.5341 625.729 58.4114 625.465 58.1869C624.408 57.3203 623.169 56.7033 621.84 56.3817C620.511 56.0601 619.127 56.0423 617.791 56.3295C617.604 56.3832 617.408 56.399 617.215 56.3761C617.022 56.3532 616.836 56.292 616.667 56.196C616.498 56.1001 616.349 55.9714 616.231 55.8174C616.112 55.6635 616.025 55.4874 615.975 55.2995C615.923 55.1127 615.907 54.9173 615.93 54.7246C615.953 54.5318 616.014 54.3454 616.108 54.176C616.203 54.0067 616.331 53.8577 616.483 53.7375C616.636 53.6174 616.81 53.5285 616.997 53.4759C618.797 53.0646 620.667 53.0707 622.464 53.4936C624.261 53.9165 625.937 54.7451 627.365 55.9158C627.665 56.1686 627.852 56.5296 627.887 56.9202C627.922 57.3109 627.801 57.6994 627.55 58.0012C627.41 58.1669 627.236 58.3003 627.039 58.3921C626.842 58.4839 626.628 58.532 626.411 58.5331V58.5331Z" fill="#010101"/>
<path d="M598.044 73.2146C597.851 73.2239 597.658 73.1935 597.478 73.1252C597.297 73.0569 597.132 72.9522 596.994 72.8176C596.855 72.6831 596.746 72.5215 596.673 72.3429C596.599 72.1643 596.563 71.9725 596.567 71.7794L597.183 65.0253C597.245 64.6667 597.439 64.3441 597.726 64.1208C598.013 63.8975 598.374 63.7895 598.736 63.818C598.919 63.8201 599.1 63.8587 599.268 63.9315C599.436 64.0043 599.587 64.1098 599.714 64.2418C599.84 64.3739 599.939 64.5299 600.005 64.7006C600.07 64.8714 600.101 65.0535 600.096 65.2363L599.479 71.9904C599.432 72.335 599.259 72.65 598.995 72.8757C598.73 73.1014 598.392 73.222 598.044 73.2146V73.2146Z" fill="#010101"/>
<path d="M620.4 75.2498C620.197 75.2456 619.996 75.2003 619.81 75.1166C619.624 75.0329 619.458 74.9125 619.32 74.7627C619.182 74.6129 619.075 74.4367 619.007 74.2447C618.939 74.0528 618.91 73.849 618.923 73.6457L619.531 66.0895C619.569 65.7013 619.757 65.3433 620.055 65.0912C620.353 64.8391 620.737 64.7127 621.126 64.7387C621.32 64.7536 621.508 64.8066 621.681 64.8944C621.855 64.9823 622.009 65.1034 622.135 65.2507C622.261 65.3981 622.357 65.569 622.417 65.7534C622.477 65.9379 622.501 66.1324 622.486 66.3259L621.869 73.9243C621.832 74.2878 621.661 74.6245 621.389 74.8693C621.118 75.1141 620.766 75.2496 620.4 75.2498V75.2498Z" fill="#010101"/>
<path d="M602.603 92.3628C602.321 92.3663 602.045 92.2885 601.807 92.1387C601.569 91.9889 601.379 91.7736 601.26 91.5185C596.499 80.8639 603.633 72.2693 603.945 71.9147C604.071 71.7667 604.225 71.6449 604.398 71.5563C604.57 71.4677 604.759 71.4141 604.953 71.3984C605.146 71.3827 605.341 71.4053 605.526 71.4649C605.711 71.5245 605.882 71.62 606.03 71.7458C606.178 71.8717 606.3 72.0254 606.389 72.1983C606.477 72.3712 606.531 72.5599 606.547 72.7535C606.562 72.9472 606.54 73.142 606.48 73.3269C606.42 73.5118 606.325 73.6832 606.199 73.8312C605.937 74.1351 599.969 81.3873 603.953 90.3112C604.034 90.4879 604.078 90.6788 604.084 90.8727C604.09 91.0667 604.058 91.2599 603.988 91.4412C603.919 91.6225 603.815 91.7884 603.682 91.9292C603.548 92.07 603.388 92.1829 603.21 92.2615C603.018 92.3399 602.81 92.3745 602.603 92.3628V92.3628Z" fill="#010101"/>
<path d="M638.062 85.7185C638.172 95.1405 643.659 102.722 650.321 102.604C656.982 102.486 662.309 94.8281 662.208 85.4061C662.107 75.9841 656.619 68.4026 649.949 68.4702C643.279 68.5377 637.961 76.2881 638.062 85.7185Z" fill="#475982"/>
<path d="M649.949 68.5127L654.61 68.7997L654.981 102.933L650.329 102.646L644.639 98.0113L640.604 79.6232L649.949 68.5127Z" fill="#475982"/>
<path d="M642.724 85.998C642.833 95.42 648.321 103.002 654.982 102.934C661.644 102.866 666.971 95.1583 666.87 85.7363C666.768 76.3143 661.281 68.7244 654.611 68.8004C647.941 68.8764 642.639 76.576 642.724 85.998Z" fill="#6977A8"/>
<path d="M658.916 72.9028C658.916 72.9028 661.305 37.7138 661.305 34.7589C660.729 32.6097 659.724 30.5993 658.35 28.849C656.475 26.4897 653.995 24.6834 651.174 23.623L648.244 71.6871L658.916 72.9028Z" fill="#6977A8"/>
<path d="M602.113 99.8434C613.933 99.8434 619.843 93.9336 619.843 93.9336C619.843 93.9336 619.843 105.753 613.933 105.753C608.023 105.753 602.113 99.8434 602.113 99.8434Z" fill="#010101"/>
<path d="M606.013 137.869C604.224 142.564 602.881 147.418 602.003 152.365C601.31 156.257 599.115 168.499 601.876 168.524C605.337 168.524 610.15 152.365 620.053 151.639C628.825 151.031 633.511 164.083 640.771 162.006C645.575 160.63 648.277 153.564 649.079 151.428C650.056 148.766 650.567 145.956 650.59 143.12C650.625 140.326 650.2 137.545 649.332 134.889C648.319 135.843 632.996 149.68 616.541 144.328C612.58 143.017 608.976 140.806 606.013 137.869V137.869Z" fill="#F3B06A"/>
<path d="M734.849 360.433C733.228 353.139 730.282 341.598 730.282 341.598C730.594 338.449 731.793 325.346 733.237 309.279L709.395 318.254C709.395 318.254 709.141 344.477 708.052 346.055C707.132 347.398 705.671 345.667 698.208 355.891C696.055 358.846 695.557 364.182 695.557 364.182C695.557 364.182 694.991 370.759 696.452 371.4C697.143 371.649 697.9 371.641 698.586 371.379C699.272 371.118 699.842 370.619 700.192 369.974C700.749 368.842 700.673 366.191 701.23 365.068C701.788 363.945 705.232 362.637 706.676 362.738C708.12 362.839 706.093 382.207 706.093 382.207C706.093 382.207 705.173 387.695 704.734 389.484C704.354 391.013 702.86 395.487 702.86 395.487C702.86 395.487 701.087 401.98 703.105 402.52C704.295 402.841 707.453 397.598 709.656 392.009C712.029 385.989 713.43 379.59 714.072 379.691C715.583 379.919 714.561 390.54 714.561 390.54C714.561 390.54 712.957 395.386 712.949 397.682C711.471 400.477 710.416 405.677 712.949 406.167C713.413 406.252 716.849 399.683 716.849 399.683C716.849 399.683 718.234 395.031 719.036 392.862C720.446 389.037 720.775 382.958 721.527 380.29C722.151 378.07 722.658 378.999 722.894 378.906C723.131 378.813 722.692 381.911 722.236 386.133C722.008 388.26 722.236 390.726 721.56 393.14C720.99 395.57 720.6 398.04 720.395 400.527C719.872 406.024 723.35 405.534 724.617 400.527C725.115 398.619 725.638 396.543 726.162 394.432C728.188 386.217 728.298 378.273 729.193 378.222C730.349 378.163 729.285 392.574 729.285 392.574C729.285 392.574 730.898 400.62 732.806 393.216C734.172 388.017 734.89 382.669 734.942 377.293C734.79 375.225 736.462 367.728 734.849 360.433Z" fill="#F9B2A1"/>
<path d="M703.484 155.759C703.484 155.759 730.112 184.818 733.033 229.21C735.955 273.601 738.943 335.714 738.943 335.714C738.943 335.714 724.152 347.534 703.484 335.714C703.484 335.705 688.693 165.155 703.484 155.759Z" fill="#7A7B80"/>
<path d="M682.563 684.809C682.521 684.817 682.478 684.817 682.436 684.809C673.808 681.946 663.423 684.809 663.322 684.809C663.261 684.822 663.198 684.823 663.136 684.81C663.075 684.798 663.016 684.774 662.965 684.738C662.913 684.702 662.87 684.657 662.837 684.603C662.804 684.55 662.782 684.491 662.773 684.429C662.742 684.302 662.759 684.169 662.819 684.054C662.88 683.939 662.981 683.85 663.102 683.804C663.212 683.804 673.825 680.866 682.689 683.804C682.811 683.855 682.909 683.948 682.967 684.066C683.024 684.184 683.037 684.319 683.002 684.445C682.978 684.546 682.922 684.635 682.843 684.701C682.764 684.766 682.665 684.804 682.563 684.809V684.809Z" fill="white"/>
<path d="M590.462 680.014H575.096C575.031 680.023 574.966 680.018 574.903 679.999C574.841 679.98 574.783 679.949 574.734 679.906C574.685 679.863 574.646 679.81 574.619 679.751C574.592 679.692 574.578 679.627 574.578 679.562C574.578 679.497 574.592 679.433 574.619 679.374C574.646 679.314 574.685 679.262 574.734 679.219C574.783 679.176 574.841 679.144 574.903 679.126C574.966 679.107 575.031 679.102 575.096 679.111H590.462C590.571 679.126 590.671 679.18 590.743 679.263C590.816 679.346 590.856 679.452 590.856 679.562C590.856 679.673 590.816 679.779 590.743 679.862C590.671 679.945 590.571 679.999 590.462 680.014Z" fill="white"/>
<path d="M593.155 675.573L584.054 674.636C583.991 674.63 583.93 674.611 583.874 674.581C583.818 674.551 583.768 674.511 583.728 674.462C583.687 674.413 583.657 674.356 583.638 674.296C583.62 674.235 583.613 674.171 583.619 674.108C583.626 674.045 583.644 673.983 583.674 673.927C583.704 673.871 583.744 673.822 583.793 673.781C583.842 673.741 583.899 673.711 583.959 673.692C584.02 673.673 584.084 673.667 584.147 673.673L593.206 674.602C593.335 674.617 593.454 674.682 593.536 674.783C593.618 674.884 593.657 675.013 593.645 675.142C593.631 675.262 593.573 675.371 593.482 675.451C593.392 675.53 593.276 675.574 593.155 675.573V675.573Z" fill="white"/>
<path d="M709.183 692.121C707.495 693.303 700.504 694.358 691.901 695.245C674.729 697.001 651.225 698.081 651.225 698.081L662.639 675.928C662.639 675.928 662.09 674.4 661.508 672.703C661.341 672.219 661.296 671.701 661.378 671.196C661.459 670.691 661.665 670.214 661.976 669.807C662.287 669.401 662.694 669.078 663.16 668.867C663.627 668.657 664.138 668.565 664.648 668.6L681.635 669.756L692.129 658.359C692.294 658.103 692.522 657.894 692.792 657.752C693.061 657.611 693.363 657.541 693.667 657.551C693.971 657.56 694.268 657.648 694.528 657.806C694.788 657.964 695.003 658.186 695.152 658.452C697.853 663.281 703.307 673.251 706.71 681.12C709.116 686.684 710.492 691.201 709.183 692.121Z" fill="#0E3659"/>
<path d="M709.183 692.121C709.183 692.121 682.082 717.449 677.784 718.344C673.487 719.239 632.346 722.337 631.485 719.72C630.624 717.103 632.464 713.996 635.284 710.847C641.093 704.363 651.224 698.081 651.224 698.081L690.904 684.573L699.516 688.094L709.183 692.121Z" fill="#0E3659"/>
<path d="M709.183 692.121C709.183 692.121 682.082 717.449 677.784 718.344C673.487 719.239 632.346 722.337 631.485 719.72C630.624 717.103 632.464 713.996 635.284 710.847C645.415 710.357 671.478 708.964 675.944 707.79C678.418 707.14 685.172 701.408 691.901 695.245C694.526 692.838 697.152 690.365 699.499 688.102C702.462 685.274 705.029 682.775 706.692 681.12C709.115 686.684 710.491 691.201 709.183 692.121Z" fill="#E0E1E0"/>
<path d="M658.291 684.809C658.199 684.783 658.119 684.728 658.061 684.652C658.004 684.576 657.973 684.483 657.973 684.387C657.973 684.292 658.004 684.199 658.061 684.123C658.119 684.047 658.199 683.991 658.291 683.965L668.068 683.644C668.125 683.641 668.183 683.649 668.237 683.669C668.291 683.689 668.341 683.719 668.383 683.759C668.425 683.798 668.458 683.846 668.481 683.899C668.504 683.952 668.515 684.009 668.515 684.066C668.517 684.124 668.508 684.182 668.488 684.236C668.468 684.29 668.438 684.34 668.399 684.382C668.359 684.424 668.312 684.458 668.26 684.483C668.207 684.507 668.151 684.52 668.093 684.522L658.316 684.843L658.291 684.809Z" fill="#E0E1E0"/>
<path d="M625.981 698.055C625.812 702.885 625.204 706.405 623.853 706.675C617.851 707.883 558.212 710.66 555.122 709.875C552.032 709.09 542.601 708.634 542.66 702.767C542.709 701.614 543.119 700.506 543.834 699.601C546.789 695.548 554.311 693.049 554.311 693.049L587.761 673.107C587.761 673.107 587.888 671.486 588.031 669.73C588.067 669.217 588.23 668.721 588.505 668.286C588.781 667.851 589.16 667.492 589.609 667.24C590.058 666.989 590.563 666.853 591.077 666.846C591.592 666.839 592.1 666.959 592.556 667.198L607.635 675.1L621.844 668.895C622.098 668.727 622.391 668.628 622.694 668.607C622.997 668.586 623.301 668.645 623.575 668.777C623.849 668.909 624.084 669.109 624.257 669.359C624.43 669.609 624.536 669.9 624.563 670.203C625.154 676.273 626.276 689.317 625.981 698.055Z" fill="#0E3659"/>
<path d="M625.981 698.056C625.812 702.885 625.204 706.405 623.853 706.676C617.851 707.883 558.212 710.661 555.122 709.875C552.032 709.09 542.601 708.634 542.66 702.767C542.709 701.614 543.119 700.506 543.834 699.601C552.463 700.593 561.143 701.092 569.829 701.095C584.891 701.222 617.108 698.756 625.981 698.056Z" fill="#E0E1E0"/>
<path d="M588.259 681.339C588.179 681.34 588.101 681.319 588.031 681.28L581.277 677.177C581.179 677.116 581.109 677.019 581.082 676.907C581.056 676.794 581.074 676.676 581.133 676.577C581.162 676.527 581.201 676.484 581.247 676.449C581.293 676.414 581.345 676.389 581.401 676.375C581.457 676.36 581.515 676.358 581.572 676.366C581.629 676.375 581.684 676.395 581.733 676.425L588.487 680.529C588.536 680.558 588.579 680.597 588.613 680.643C588.647 680.69 588.672 680.742 588.685 680.798C588.698 680.854 588.701 680.912 588.691 680.969C588.682 681.025 588.661 681.079 588.631 681.128C588.593 681.193 588.539 681.247 588.474 681.284C588.408 681.321 588.334 681.34 588.259 681.339Z" fill="#E0E1E0"/>
<path d="M477.828 64.9666L525.647 63.0332L526.297 79.8341L477.178 80.4757L477.828 64.9666Z" fill="#213D73"/>
<path d="M700.463 326.014V341.886L742.777 343.397L741.266 323.751L700.463 322.991V326.014Z" fill="#213D73"/>
<path d="M556.008 161.179C556.928 167.477 553.99 173.361 549.043 175.683C544.34 177.895 539.663 176.029 538.76 175.683C542.137 173.277 545.708 170.516 549.338 167.367C551.745 165.257 553.99 163.197 556.008 161.179Z" fill="#E8E9EC"/>
<path d="M555.56 358.644L552.301 307.043C552.301 307.043 600.534 320.838 604.392 368.007C604.417 368.007 565.547 369.367 555.56 358.644Z" fill="#E8E9EC"/>
<path d="M703.486 350.548L704.245 293.526C704.245 293.526 655.886 319.217 663.442 363.052C663.442 363.052 697.441 358.459 703.486 350.548Z" fill="#E8E9EC"/>
<path d="M602.475 138.789L582.584 168.094C594.179 203.361 605.765 238.623 617.342 273.88C618.595 228.384 613.593 182.932 602.475 138.798V138.789Z" fill="#575960"/>
<path d="M652.829 136.872L668.726 162.808C651.599 199.826 634.46 236.85 617.311 273.879C619.565 226.255 631.637 179.611 652.77 136.872H652.829Z" fill="#575960"/>
<path d="M616.068 269.633L620.095 367.863" stroke="#575960" stroke-width="0.75" stroke-miterlimit="10"/>
<path d="M651.317 135.361L667.214 161.272C650.329 197.53 633.444 233.797 616.559 270.072C618.543 223.22 630.374 177.311 651.283 135.336L651.317 135.361Z" fill="#213D73"/>
<path d="M604.74 137.278L584.857 166.583L616.593 270.098C620.51 225.474 616.509 180.509 604.774 137.278H604.74Z" fill="#213D73"/>
<path d="M661.526 152.323L667.216 161.298L617.928 268.849L661.526 152.323Z" fill="#848484"/>
<path d="M654.744 198.985C658.105 201.213 662.047 202.401 666.078 202.401C670.11 202.401 674.052 201.213 677.413 198.985C675.629 202.258 674.694 205.926 674.694 209.653C674.694 213.38 675.629 217.047 677.413 220.32C673.863 218.666 669.994 217.808 666.078 217.808C662.162 217.808 658.294 218.666 654.744 220.32C656.496 217.037 657.412 213.374 657.412 209.653C657.412 205.932 656.496 202.268 654.744 198.985V198.985Z" fill="#E8EB8F"/>
<path d="M807.784 412.762V635.251L797.433 707.25L530.646 693.413L462.209 689.867L227.318 677.693L198.225 676.181V629.434C226.828 641.347 257.906 644.108 288.662 640.241C316.278 636.78 343.632 627.965 368.699 615.648C371.203 614.415 373.685 613.149 376.145 611.848C380.89 609.344 385.556 606.738 390.143 604.03C457.22 564.595 509.184 505.555 568.055 455.507C607.364 422.15 653.613 393.445 704.927 389.089C718.576 387.968 732.311 388.553 745.815 390.828C748.491 391.276 751.159 391.774 753.819 392.339C757.061 393.032 760.286 393.814 763.494 394.687C778.792 398.848 793.533 404.841 807.396 412.534L807.784 412.762Z" fill="url(#paint0_linear_780_384)"/>
<path d="M807.785 426.371V779.932H0.152344C52.2351 658.13 184.903 587.744 317.309 606.571C329.745 608.336 342.325 610.792 354.929 613.139C359.522 613.984 364.115 614.828 368.708 615.672C399.27 620.915 429.681 623.802 458.132 612.878C469.952 608.336 480.615 601.666 490.476 593.78C502.676 584.046 513.66 572.48 524.103 560.854C548.342 533.838 571.728 505.073 599.429 482.084C610.333 472.917 622.124 464.86 634.626 458.031C663.441 442.513 695.861 435.168 728.55 431.859C729.141 431.791 729.741 431.732 730.332 431.682C735.921 431.133 741.518 430.711 747.107 430.381C767.192 429.191 787.472 429.14 807.354 426.439L807.785 426.371Z" fill="url(#paint1_linear_780_384)"/>
<path d="M117.986 779.933C147.704 745.082 180.462 712.915 216.951 685.325C220.368 682.741 223.823 680.208 227.319 677.726C246.8 663.724 267.306 651.205 288.663 640.275V640.275C309.934 629.373 332.098 620.309 354.912 613.182V613.182C366.501 609.586 378.242 606.546 390.135 604.064C397.655 602.511 405.231 601.191 412.863 600.105C438.452 596.491 464.566 595.647 490.434 593.798C517.197 591.89 543.699 588.918 569.077 580.737C570.766 580.174 572.454 579.612 574.143 579.049C584.266 575.466 594.086 571.076 603.506 565.92C657.176 536.65 697.27 484.635 730.306 431.682C731.472 429.816 732.637 427.942 733.785 426.068C739.858 416.201 745.79 406.25 751.582 396.215C752.316 394.94 753.059 393.682 753.785 392.373C773.22 358.479 791.068 323.729 807.329 288.123C807.472 287.819 807.607 287.507 807.751 287.203" stroke="white" stroke-miterlimit="10"/>
<path d="M807.785 181.805V779.933H407.131C422.057 747.851 440.057 717.339 462.202 689.866C465.202 686.135 468.278 682.462 471.43 678.849C499.046 647.223 532.175 620.595 565.912 594.659C578.458 585.026 591.071 575.502 603.532 565.861C651.191 529.009 696.41 490.536 725.166 438.191C726.331 436.075 727.456 433.944 728.543 431.8C734.266 420.566 739.282 408.985 743.562 397.126C744.33 395.032 745.082 392.905 745.799 390.802C769.515 322.214 774.834 245.699 807.785 181.805Z" fill="url(#paint2_linear_780_384)"/>
<path d="M807.785 388.093C793.061 390.626 778.235 392.77 763.503 394.686C759.535 395.201 755.584 395.7 751.624 396.181L749.632 396.426L743.587 397.152C710.128 401.196 675.666 405.721 647.627 424.126C626.251 438.191 610.809 458.901 599.437 482.093C593.071 495.258 587.794 508.922 583.658 522.947C577.976 541.791 573.569 561.268 569.128 580.729C568.064 585.389 566.992 590.047 565.911 594.701C557.789 629.502 548.545 663.712 530.638 693.48C526.881 699.734 522.736 705.745 518.227 711.48C498.919 735.964 472.966 754.284 446.853 771.338C442.384 774.254 437.904 777.141 433.412 780.001" stroke="white" stroke-miterlimit="10"/>
<path d="M807.783 231.583H807.361V476.42H807.783V231.583Z" fill="#606161"/>
<defs>
<linearGradient id="paint0_linear_780_384" x1="423.196" y1="503.597" x2="640.881" y2="614.896" gradientUnits="userSpaceOnUse">
<stop stop-color="#79C082"/>
<stop offset="1" stop-color="#9094C9"/>
</linearGradient>
<linearGradient id="paint1_linear_780_384" x1="450.137" y1="848.732" x2="385.509" y2="504.93" gradientUnits="userSpaceOnUse">
<stop stop-color="#79C082"/>
<stop offset="1" stop-color="#9094C9"/>
</linearGradient>
<linearGradient id="paint2_linear_780_384" x1="516.607" y1="450.661" x2="1004.36" y2="612.836" gradientUnits="userSpaceOnUse">
<stop stop-color="#79C082"/>
<stop offset="1" stop-color="#9094C9"/>
</linearGradient>
</defs>
</svg>
