<svg width="182" height="50" viewBox="0 0 182 50" fill="none" xmlns="http://www.w3.org/2000/svg">
<g clip-path="url(#clip0_466_404)">
<path fill-rule="evenodd" clip-rule="evenodd" d="M1.22845 7.85561L32.3743 0.0682502C32.5222 0.0232132 32.6759 0.00021707 32.8305 3.10607e-06C33.1359 -0.000618678 33.4342 0.0921265 33.6854 0.265808L45.3161 8.01725C45.4362 8.08988 45.5472 8.17671 45.6466 8.27587C45.7878 8.41736 45.8995 8.58546 45.9754 8.77042C46.0512 8.95538 46.0896 9.15355 46.0884 9.35345V40.6681C46.0879 40.8756 46.045 41.0808 45.9622 41.2711C45.8794 41.4614 45.7586 41.6327 45.607 41.7744C45.5249 41.8496 45.4359 41.9169 45.3412 41.9756L33.6854 49.7378C33.6072 49.7889 33.5256 49.8345 33.4411 49.8743H33.4195L33.2651 49.9318H33.222H33.2004H32.9777H32.9131H32.8305C32.6758 49.9333 32.5218 49.9103 32.3743 49.8635L1.14943 42.1264C0.820867 42.0459 0.528909 41.8573 0.320452 41.5908C0.111995 41.3244 -0.00086339 40.9956 4.97383e-06 40.6573V9.27443V9.14153V9.1092V9.08046V9.04814V9.01222V8.98348V8.95834V8.9296V8.90805V8.89009V8.86135V8.83262L0.0251487 8.77515V8.7536V8.73564V8.71049V8.69253V8.67098V8.64584V8.6171V8.59196V8.57041V8.54885V8.53089V8.50575L0.3592 8.3513L0.37716 8.32975L0.398712 8.3046L0.438223 8.2615H0.456183L0.477735 8.24354H0.499287L0.52443 8.22199L0.549574 8.20403H0.571126H0.592677H0.718396H0.739947H0.718396H0.736356L0.786643 8.17529H0.815379H0.83693H0.862074H0.887218H0.912361H0.933913L1.07759 7.9023H1.10992H1.14225L1.23923 7.88075L1.22845 7.85561ZM34.3427 4.34627V9.63362L40.5891 8.51293L34.3427 4.34627ZM34.3427 12.7263V37.2773L43.0568 38.8398V11.1602L34.3427 12.7263ZM34.3427 40.3664V45.6537L40.5891 41.4907L34.3391 40.3664H34.3427ZM31.3147 46.5481V39.824L15.607 36.9971L6.59842 40.3628L31.3147 46.541V46.5481ZM31.3147 36.7313V13.2687L17.0043 15.8369V34.1559L31.3147 36.7206V36.7313ZM31.3147 10.176V3.45187L6.59842 9.63003L15.607 12.9957L31.3147 10.176ZM0.783051 8.02084L0.833338 7.9921L0.783051 8.02084ZM13.9727 15.607L3.02802 11.5194V38.4806L13.9727 34.393V15.607Z" fill="#231F20"/>
<path fill-rule="evenodd" clip-rule="evenodd" d="M175.341 10.7939L172.371 15.0756L169.379 10.7939H163.897L169.608 19.0159L163.326 27.9707H168.807L172.371 22.9312L175.912 27.9707H181.394L175.111 19.0159L180.823 10.7939H175.341Z" fill="#231F20"/>
<path fill-rule="evenodd" clip-rule="evenodd" d="M138.604 27.9455H149.246V24.271H143.104V21.1172H148.539V17.3241H143.104V14.5152H149.246V10.7939H138.604V27.9455Z" fill="#231F20"/>
<path fill-rule="evenodd" clip-rule="evenodd" d="M119.774 10.7939L115.252 20.5569L110.751 10.7939H106.229L114.224 27.9707H116.279L124.249 10.7939H119.774Z" fill="#231F20"/>
<path d="M91.9011 10.7939H87.4004V27.924H91.9011V10.7939Z" fill="#231F20"/>
<path fill-rule="evenodd" clip-rule="evenodd" d="M71.5591 13.2901C70.7688 12.4975 69.8292 11.8694 68.7946 11.4421C67.7601 11.0149 66.6511 10.7969 65.5318 10.8008C64.1206 10.7986 62.7307 11.1449 61.4856 11.8092C60.2405 12.4735 59.1788 13.435 58.3948 14.6084C57.6108 15.7818 57.1288 17.1308 56.9917 18.5353C56.8546 19.9398 57.0666 21.3565 57.6088 22.6594C58.1511 23.9623 59.0068 25.111 60.0999 26.0035C61.1931 26.896 62.4898 27.5047 63.8748 27.7754C65.2598 28.0461 66.6902 27.9704 68.039 27.5551C69.3877 27.1398 70.6129 26.3978 71.6058 25.3949L68.409 22.2448C67.8372 22.7961 67.1167 23.1683 66.3361 23.3154C65.5555 23.4625 64.749 23.3782 64.0157 23.0728C63.2825 22.7674 62.6545 22.2543 62.2091 21.5967C61.7637 20.939 61.5203 20.1655 61.5088 19.3712C61.4908 18.8382 61.5825 18.3072 61.7784 17.8111C61.9742 17.3151 62.2699 16.8646 62.6472 16.4876C63.0245 16.1107 63.4753 15.8154 63.9715 15.62C64.4677 15.4246 64.9988 15.3333 65.5318 15.3518C66.0611 15.3392 66.5877 15.4318 67.0809 15.6242C67.5742 15.8166 68.0244 16.1049 68.4054 16.4725L71.5591 13.2901Z" fill="#231F20"/>
<path d="M62.3069 33.7647C62.1856 33.6472 62.0422 33.5549 61.885 33.4933C61.7277 33.4316 61.5598 33.4018 61.391 33.4056C61.1815 33.4086 60.9759 33.4629 60.7922 33.5638C60.6086 33.6647 60.4525 33.809 60.3375 33.9842C60.2225 34.1594 60.1523 34.3601 60.1328 34.5687C60.1134 34.7773 60.1453 34.9875 60.2259 35.1809C60.3065 35.3744 60.4333 35.5451 60.5951 35.6782C60.7569 35.8113 60.9489 35.9027 61.1542 35.9444C61.3596 35.9861 61.572 35.9769 61.7729 35.9175C61.9739 35.8582 62.1572 35.7504 62.3069 35.6038L63.327 36.606C63.0118 36.9267 62.6222 37.1645 62.1928 37.2982C61.7634 37.4318 61.3076 37.4572 60.8661 37.372C60.4245 37.2868 60.0109 37.0937 59.662 36.8099C59.3132 36.5261 59.04 36.1604 58.8667 35.7454C58.6935 35.3304 58.6255 34.879 58.669 34.4314C58.7125 33.9839 58.866 33.554 59.1159 33.1801C59.3658 32.8062 59.7043 32.4999 60.1013 32.2886C60.4982 32.0773 60.9413 31.9674 61.391 31.9688C61.7479 31.9674 62.1015 32.0368 62.4314 32.1731C62.7612 32.3094 63.0608 32.5097 63.3127 32.7626L62.3069 33.7647Z" fill="#231F20"/>
<path d="M68.4121 31.9688H69.8489V37.4249H68.4121V31.9688Z" fill="#231F20"/>
<path d="M80.2012 31.9688L77.6653 37.4321H77.0115L74.4648 31.9688H75.9016L77.3384 35.0758L78.7752 31.9688H80.2012Z" fill="#231F20"/>
<path d="M84.8242 31.9688H86.261V37.4249H84.8242V31.9688Z" fill="#231F20"/>
<path d="M91.3574 31.9688H92.7942V35.9846H94.7554V37.4213H91.361L91.3574 31.9688Z" fill="#231F20"/>
<path d="M107.058 31.9688H110.445V33.1541H108.476V34.0449H110.208V35.2518H108.476V36.254H110.434V37.4249H107.047L107.058 31.9688Z" fill="#231F20"/>
<path d="M120.556 31.9688L118.739 34.5801L120.739 37.4249H118.994L117.866 35.8265L116.738 37.4142H114.992L116.993 34.5693L115.168 31.9688H116.914L117.866 33.3301L118.814 31.9688H120.556Z" fill="#231F20"/>
<path d="M125.359 31.9688H127.658C127.921 31.9669 128.182 32.0169 128.426 32.1159C128.67 32.2149 128.892 32.3609 129.08 32.5457C129.267 32.7305 129.416 32.9504 129.519 33.1928C129.621 33.4353 129.675 33.6955 129.677 33.9587C129.679 34.222 129.629 34.483 129.53 34.7269C129.431 34.9708 129.285 35.1928 129.1 35.3802C128.915 35.5677 128.695 35.7169 128.453 35.8194C128.21 35.9218 127.95 35.9755 127.687 35.9774H126.796V37.4142H125.359V31.9688ZM126.796 34.7418H127.687C127.794 34.7491 127.901 34.7342 128.002 34.6983C128.104 34.6623 128.196 34.6059 128.275 34.5327C128.353 34.4594 128.415 34.3708 128.458 34.2724C128.501 34.174 128.523 34.0678 128.523 33.9605C128.523 33.8532 128.501 33.7471 128.458 33.6487C128.415 33.5503 128.353 33.4617 128.275 33.3884C128.196 33.3152 128.104 33.2588 128.002 33.2228C127.901 33.1868 127.794 33.172 127.687 33.1793H126.796V34.7418Z" fill="#231F20"/>
<path d="M137.052 31.9688C137.593 31.9653 138.122 32.1224 138.574 32.4204C139.025 32.7183 139.378 33.1436 139.587 33.6423C139.796 34.141 139.853 34.6907 139.749 35.2215C139.645 35.7523 139.387 36.2404 139.005 36.6238C138.624 37.0073 138.137 37.2688 137.607 37.3752C137.076 37.4816 136.527 37.4281 136.027 37.2214C135.527 37.0148 135.1 36.6644 134.799 36.2146C134.499 35.7648 134.339 35.2359 134.34 34.6951C134.344 33.9757 134.63 33.2866 135.137 32.7765C135.645 32.2664 136.332 31.9763 137.052 31.9688ZM137.052 33.4056C136.794 33.4056 136.542 33.4821 136.327 33.6253C136.113 33.7686 135.946 33.9722 135.847 34.2105C135.748 34.4488 135.723 34.7109 135.773 34.9638C135.823 35.2168 135.947 35.4491 136.13 35.6315C136.312 35.8138 136.544 35.938 136.797 35.9883C137.05 36.0386 137.312 36.0128 137.551 35.9141C137.789 35.8154 137.993 35.6483 138.136 35.4339C138.279 35.2194 138.356 34.9674 138.356 34.7095C138.359 34.5363 138.328 34.3642 138.264 34.2033C138.2 34.0424 138.104 33.8959 137.983 33.7724C137.861 33.649 137.716 33.551 137.556 33.4843C137.397 33.4176 137.225 33.3835 137.052 33.384V33.4056Z" fill="#231F20"/>
<path d="M154.186 34.2928C154.331 34.1412 154.416 33.9421 154.426 33.7324C154.416 33.5662 154.345 33.4097 154.225 33.294C154.105 33.1782 153.946 33.1116 153.78 33.1074C153.695 33.1079 153.611 33.1253 153.532 33.1589C153.454 33.1924 153.384 33.2412 153.325 33.3025C153.266 33.3638 153.22 33.4363 153.189 33.5157C153.159 33.5951 153.145 33.6798 153.148 33.7648H151.977C151.978 33.5275 152.026 33.2928 152.118 33.0742C152.21 32.8555 152.345 32.6571 152.513 32.4903C152.682 32.3236 152.882 32.1917 153.102 32.1022C153.322 32.0127 153.557 31.9674 153.794 31.9688C154.031 31.9702 154.266 32.0183 154.485 32.1104C154.703 32.2025 154.902 32.3368 155.068 32.5056C155.235 32.6744 155.367 32.8743 155.457 33.0941C155.546 33.3138 155.591 33.549 155.59 33.7863C155.581 34.1451 155.468 34.4935 155.263 34.7885L154.222 36.2648H155.762V37.4214H151.991L154.186 34.2928Z" fill="#231F20"/>
<path d="M160.805 33.7397C160.849 33.2966 161.057 32.8859 161.387 32.5872C161.717 32.2885 162.146 32.123 162.592 32.123C163.037 32.123 163.466 32.2885 163.797 32.5872C164.127 32.8859 164.334 33.2966 164.379 33.7397V35.6326C164.334 36.0757 164.127 36.4864 163.797 36.7851C163.466 37.0838 163.037 37.2492 162.592 37.2492C162.146 37.2492 161.717 37.0838 161.387 36.7851C161.057 36.4864 160.849 36.0757 160.805 35.6326V33.7397ZM161.947 35.6254C161.959 35.7872 162.032 35.9384 162.151 36.0487C162.27 36.1591 162.426 36.2204 162.588 36.2204C162.75 36.2204 162.907 36.1591 163.025 36.0487C163.144 35.9384 163.217 35.7872 163.229 35.6254V33.7648C163.217 33.603 163.144 33.4518 163.025 33.3415C162.907 33.2312 162.75 33.1699 162.588 33.1699C162.426 33.1699 162.27 33.2312 162.151 33.3415C162.032 33.4518 161.959 33.603 161.947 33.7648V35.6254Z" fill="#231F20"/>
<path d="M171.646 34.2928C171.791 34.1412 171.876 33.9421 171.886 33.7324C171.876 33.5662 171.804 33.4097 171.685 33.294C171.565 33.1782 171.406 33.1116 171.24 33.1074C171.156 33.1093 171.073 33.1278 170.996 33.162C170.919 33.1961 170.849 33.2451 170.792 33.3063C170.734 33.3674 170.689 33.4394 170.659 33.5181C170.629 33.5968 170.615 33.6807 170.618 33.7648H169.447C169.449 33.5275 169.497 33.2928 169.589 33.0742C169.681 32.8555 169.815 32.6571 169.984 32.4903C170.153 32.3236 170.353 32.1917 170.573 32.1022C170.792 32.0127 171.028 31.9674 171.265 31.9688C171.502 31.9702 171.737 32.0183 171.955 32.1104C172.174 32.2025 172.372 32.3368 172.539 32.5056C172.706 32.6744 172.838 32.8743 172.927 33.0941C173.017 33.3138 173.062 33.549 173.061 33.7863C173.052 34.1451 172.938 34.4935 172.734 34.7885L171.692 36.2648H173.233V37.4214H169.462L171.646 34.2928Z" fill="#231F20"/>
<path d="M180.376 34.2928C180.519 34.1399 180.603 33.9414 180.613 33.7324C180.604 33.5659 180.533 33.4089 180.413 33.293C180.293 33.1771 180.134 33.1108 179.967 33.1074C179.882 33.1079 179.798 33.1253 179.72 33.1589C179.641 33.1924 179.571 33.2412 179.512 33.3025C179.453 33.3638 179.407 33.4363 179.376 33.5157C179.346 33.5951 179.332 33.6798 179.335 33.7648H178.16C178.163 33.2856 178.356 32.8272 178.697 32.4903C178.866 32.3236 179.066 32.1917 179.285 32.1022C179.505 32.0127 179.74 31.9674 179.978 31.9688C180.215 31.9702 180.45 32.0183 180.668 32.1104C180.887 32.2025 181.085 32.3368 181.252 32.5056C181.419 32.6744 181.551 32.8743 181.64 33.0941C181.73 33.3138 181.775 33.549 181.774 33.7863C181.765 34.1451 181.651 34.4935 181.447 34.7885L180.409 36.2648H181.95V37.4214H178.178L180.376 34.2928Z" fill="#231F20"/>
</g>
<defs>
<clipPath id="clip0_466_404">
<rect width="181.954" height="50" fill="white"/>
</clipPath>
</defs>
</svg>
