<svg width="808" height="782" viewBox="0 0 808 782" fill="none" xmlns="http://www.w3.org/2000/svg">
<path d="M396.171 136.856H428.473L460.555 223.055L337.241 213.887C337.241 213.887 329.93 175.38 350.091 139.161C370.252 102.942 396.171 136.856 396.171 136.856Z" fill="#010101"/>
<path d="M400.131 102.427L443.594 208.433C443.594 208.433 465.165 249.76 485.343 286.266H517.737C518.235 286.266 518.708 286.266 519.181 286.207C524.047 285.845 528.598 283.66 531.922 280.088C535.247 276.516 537.101 271.82 537.113 266.941V213.752C532.968 209.277 529.244 205.968 527.294 204.845C504.068 191.337 493.236 203.215 483.477 192.181C470.458 177.449 485.452 167.571 478.479 147.84C471.345 127.721 456.047 128.135 441.998 119.979C429.013 112.499 427.325 95.5464 425.872 88.7416C425.104 85.0944 400.131 102.427 400.131 102.427Z" fill="#010101"/>
<path d="M424.529 98.0871C425.861 95.1851 426.324 91.9597 425.863 88.8002C425.37 85.7273 424.595 82.7062 423.549 79.775C419.826 69.8718 409.256 51.6525 382.451 54.312C345.961 57.9845 350.098 123.483 350.098 123.483L415.343 118.501L424.529 98.0871Z" fill="#010101"/>
<path d="M362.713 182.683C362.713 182.683 364.748 186.643 376.685 185.545C395.065 183.856 400.95 175.642 400.95 175.642L401.794 144.277L396.163 145.366L362.882 151.8L362.823 167.098L362.713 182.683Z" fill="#F8A792"/>
<path d="M362.09 167.114C370.836 166.27 387.612 162.597 394.434 148.355C394.918 147.423 395.252 146.42 395.421 145.383L362.14 151.816L362.09 167.114Z" fill="#010101"/>
<path d="M356.01 80.3585C356.01 80.3585 338.044 119.279 344.089 141.272C350.134 163.265 370.7 159.956 383.018 155.81C395.336 151.665 401.127 144.371 401.127 144.371C401.127 144.371 412.542 148.237 420.334 137.912C428.127 127.587 423.543 115.607 417.033 112.829C410.524 110.051 402.681 114.593 402.681 114.593L408.911 103.289C408.911 103.289 383.921 45.389 356.01 80.3585Z" fill="#F8A792"/>
<path d="M380.317 101.034C380.553 101.035 380.786 100.977 380.993 100.865C381.341 100.685 381.604 100.374 381.724 100.001C381.844 99.6276 381.812 99.222 381.635 98.8724C378.899 93.5704 372.204 94.9466 371.934 95.0141C371.744 95.0546 371.563 95.1321 371.403 95.2422C371.243 95.3524 371.106 95.493 371 95.6561C370.894 95.8192 370.822 96.0015 370.786 96.1926C370.751 96.3838 370.754 96.58 370.794 96.7702C370.835 96.9603 370.912 97.1406 371.022 97.3008C371.132 97.461 371.273 97.5979 371.436 97.7037C371.599 97.8096 371.782 97.8823 371.973 97.9176C372.164 97.953 372.36 97.9504 372.55 97.9099C372.744 97.8593 377.312 96.9475 379 100.232C379.126 100.473 379.315 100.675 379.547 100.817C379.779 100.958 380.046 101.033 380.317 101.034Z" fill="#010101"/>
<path d="M352.472 96.5337C352.713 96.5326 352.95 96.4737 353.163 96.362C353.376 96.2504 353.559 96.0892 353.697 95.8921C353.975 95.4869 354.997 94.3302 355.968 94.3302C356.77 94.3302 357.521 95.1745 358.002 95.8921C358.113 96.0523 358.255 96.1891 358.418 96.2947C358.582 96.4003 358.765 96.4726 358.957 96.5075C359.148 96.5424 359.345 96.5391 359.535 96.498C359.726 96.4569 359.906 96.3787 360.067 96.2678C360.227 96.1569 360.364 96.0156 360.469 95.8519C360.575 95.6881 360.647 95.5052 360.682 95.3135C360.717 95.1218 360.714 94.9251 360.673 94.7347C360.631 94.5443 360.553 94.3638 360.442 94.2036C359.151 92.3124 357.648 91.3584 355.968 91.3584C353.258 91.3584 351.442 93.8912 351.248 94.212C351.028 94.5357 350.945 94.9335 351.018 95.3182C351.091 95.7028 351.313 96.0428 351.637 96.2636C351.882 96.4344 352.173 96.5284 352.472 96.5337Z" fill="#010101"/>
<path d="M403.212 114.526C403.212 114.526 386.125 114.982 374.507 96.2981C362.89 77.6145 364.207 72.8697 364.207 72.8697L352.54 92.178C352.54 92.178 349.939 78.7796 355.292 70.2271C360.645 61.6747 366.191 63.473 366.191 63.473L403.221 72.7599L412.972 102.436L403.212 114.526Z" fill="#010101"/>
<path d="M358.813 130.938C359.201 130.94 359.574 130.789 359.851 130.517C360.128 130.245 360.286 129.874 360.29 129.486C360.4 121.938 364.875 112.094 364.917 111.993C365.081 111.631 365.096 111.219 364.956 110.847C364.887 110.662 364.783 110.494 364.648 110.35C364.514 110.206 364.353 110.09 364.174 110.009C363.812 109.844 363.4 109.83 363.028 109.969C362.656 110.108 362.354 110.39 362.19 110.752C361.996 111.174 357.403 121.271 357.293 129.435C357.291 129.629 357.327 129.822 357.399 130.002C357.471 130.182 357.578 130.346 357.714 130.485C357.849 130.624 358.011 130.734 358.19 130.811C358.368 130.887 358.56 130.927 358.754 130.929L358.813 130.938Z" fill="#010101"/>
<path d="M404.631 131.014C404.83 131.014 405.026 130.974 405.209 130.897C405.391 130.821 405.557 130.708 405.695 130.566L416.392 119.591C416.527 119.452 416.634 119.287 416.706 119.107C416.777 118.927 416.813 118.734 416.81 118.54C416.807 118.346 416.766 118.154 416.69 117.976C416.613 117.798 416.502 117.636 416.362 117.501C416.223 117.366 416.059 117.259 415.879 117.188C415.698 117.116 415.506 117.08 415.312 117.083C415.118 117.086 414.926 117.127 414.748 117.204C414.57 117.28 414.408 117.392 414.273 117.531L403.559 128.481C403.422 128.617 403.312 128.78 403.238 128.959C403.163 129.138 403.125 129.33 403.125 129.523C403.125 129.717 403.163 129.909 403.238 130.088C403.312 130.267 403.422 130.43 403.559 130.566C403.697 130.711 403.864 130.825 404.048 130.902C404.233 130.98 404.431 131.017 404.631 131.014Z" fill="#010101"/>
<path d="M417.472 131.013C417.82 131.013 418.157 130.889 418.423 130.664C418.689 130.439 418.867 130.128 418.926 129.784C418.984 129.441 418.92 129.088 418.743 128.788C418.567 128.487 418.29 128.259 417.962 128.143L408.396 124.766C408.213 124.702 408.018 124.674 407.824 124.685C407.63 124.696 407.44 124.745 407.265 124.829C407.089 124.913 406.932 125.031 406.803 125.176C406.673 125.321 406.573 125.49 406.509 125.674C406.445 125.857 406.417 126.051 406.428 126.246C406.439 126.44 406.488 126.63 406.572 126.805C406.656 126.98 406.774 127.137 406.919 127.267C407.064 127.396 407.233 127.496 407.417 127.56L416.982 130.938C417.14 130.991 417.305 131.017 417.472 131.013Z" fill="#010101"/>
<path d="M352.902 113.284C352.699 113.281 352.498 113.237 352.313 113.154C352.127 113.071 351.96 112.952 351.822 112.803C351.684 112.653 351.577 112.478 351.509 112.286C351.441 112.095 351.412 111.891 351.425 111.689L352.041 104.09C352.082 103.702 352.27 103.344 352.567 103.091C352.864 102.838 353.247 102.709 353.637 102.731C354.027 102.765 354.387 102.952 354.64 103.251C354.893 103.55 355.018 103.936 354.988 104.327L354.38 111.883C354.36 112.261 354.196 112.618 353.921 112.879C353.646 113.139 353.281 113.285 352.902 113.284Z" fill="#010101"/>
<path d="M375.283 114.204C375.08 114.201 374.879 114.157 374.694 114.074C374.508 113.991 374.341 113.871 374.203 113.722C374.065 113.573 373.958 113.397 373.89 113.206C373.822 113.014 373.793 112.811 373.806 112.608L374.422 105.052C374.456 104.663 374.642 104.303 374.938 104.049C375.235 103.795 375.619 103.667 376.009 103.693C376.401 103.725 376.763 103.911 377.018 104.21C377.273 104.509 377.399 104.897 377.368 105.288L376.752 112.845C376.724 113.215 376.557 113.561 376.285 113.813C376.012 114.065 375.654 114.205 375.283 114.204Z" fill="#010101"/>
<path d="M372.32 68.8086C374.363 73.8151 386.268 101.921 407.822 104.318C409.786 104.533 411.767 104.533 413.732 104.318" stroke="#3D3D3C" stroke-width="0.25" stroke-miterlimit="10"/>
<path d="M441.271 134.931C448.49 136.923 459.195 141.144 462.918 150.431C463.189 151.115 463.585 152.23 464.278 158.688C466.245 176.992 464.565 182.058 467.326 189.994C469.144 195.054 472.075 199.641 475.903 203.417" stroke="#3D3D3C" stroke-width="0.25" stroke-miterlimit="10"/>
<path d="M373.976 604.3H347.348V704.886H373.976V604.3Z" fill="#F9B2A1"/>
<path d="M444.978 604.3H418.35V704.886H444.978V604.3Z" fill="#F9B2A1"/>
<path d="M451.606 633.352L469.082 372.474L330.445 358.535L336.262 638.417C336.262 638.417 362.62 653.935 381.118 636.45C381.118 636.45 391.899 442.556 395.099 442.413C398.299 442.269 409.95 635.192 409.95 635.192C409.95 635.192 432.964 647.527 451.749 636.704" fill="#F0E1BA"/>
<path d="M362.933 181.442C362.933 181.442 377.598 190.61 402.014 172.357C402.014 172.357 438.63 186.963 438.63 205.216C438.63 223.469 456.942 325.676 441.686 362.182C441.686 362.182 392.854 387.738 328.766 362.182C328.766 362.182 328.766 197.913 344.03 190.61C359.294 183.308 362.933 181.442 362.933 181.442Z" fill="#CCBCBC"/>
<path d="M349.02 249.278C349.02 249.278 364.723 258.16 417.067 243.368" stroke="#C8967D" stroke-miterlimit="10"/>
<path d="M349.02 269.988C349.02 269.988 364.723 278.87 417.067 264.078" stroke="#C8967D" stroke-miterlimit="10"/>
<path d="M349.02 311.408C349.02 311.408 364.723 320.281 417.067 305.498" stroke="#C8967D" stroke-miterlimit="10"/>
<path d="M351.982 332.118C351.982 332.118 367.686 340.991 420.03 326.208" stroke="#C8967D" stroke-miterlimit="10"/>
<path d="M349.02 290.698C349.02 290.698 364.723 299.58 417.067 284.788" stroke="#C8967D" stroke-miterlimit="10"/>
<path d="M349.02 228.568C349.02 228.568 364.723 237.45 417.067 222.658" stroke="#C8967D" stroke-miterlimit="10"/>
<path d="M346.064 207.841C346.064 207.841 361.768 216.723 414.112 201.932" stroke="#C8967D" stroke-miterlimit="10"/>
<path d="M264.635 136.215C266.416 142.851 269.582 153.311 269.582 153.311C269.422 156.216 268.839 168.289 268.164 183.089L289.676 173.895C289.676 173.895 288.832 149.833 289.803 148.339C290.588 147.072 292.006 148.592 298.439 138.917C300.297 136.122 300.542 131.2 300.542 131.2C300.542 131.2 300.803 125.147 299.427 124.615C298.783 124.412 298.087 124.448 297.467 124.716C296.846 124.984 296.344 125.467 296.05 126.075C295.577 127.131 295.763 129.562 295.29 130.617C294.817 131.673 291.711 133.007 290.394 132.973C289.076 132.939 290.14 115.083 290.14 115.083C290.14 115.083 290.765 110.017 291.103 108.329C291.39 106.911 292.58 102.748 292.58 102.748C292.58 102.748 293.948 96.7118 292.074 96.2981C290.968 96.0533 288.283 100.992 286.485 106.201C284.551 111.824 283.513 117.751 282.922 117.692C281.529 117.531 282.078 107.746 282.078 107.746C282.078 107.746 283.352 103.238 283.268 101.127C284.517 98.5101 285.269 93.6893 282.964 93.3432C282.542 93.2841 279.646 99.4472 279.646 99.4472C279.646 99.4472 278.557 103.77 277.907 105.796C276.767 109.359 276.716 114.956 276.134 117.439C275.644 119.499 275.146 118.663 274.935 118.756C274.724 118.848 274.994 115.995 275.247 112.094C275.366 110.136 275.095 107.873 275.585 105.636C276.012 103.384 276.271 101.104 276.362 98.814C276.615 93.7484 273.449 94.3394 272.453 98.9829C272.073 100.756 271.676 102.689 271.288 104.648C269.751 112.246 269.962 119.558 269.152 119.642C268.088 119.743 268.485 106.438 268.485 106.438C268.485 106.438 266.687 99.118 265.226 105.982C264.18 110.811 263.738 115.751 263.909 120.689C264.103 122.639 262.862 129.587 264.635 136.215Z" fill="#F9B2A1"/>
<path d="M358.812 144.209C358.812 144.209 370.143 150.676 374.482 134.542L358.812 144.209Z" fill="#010101"/>
<path d="M360.713 180.479C337.461 190.792 317.647 207.546 303.615 228.762C303.429 226.525 303.05 222.008 302.864 219.695C299.985 185.359 299.824 184.793 299.841 180.403C299.841 175.624 300.112 162.521 300.255 155.826C300.255 155.598 300.255 155.472 300.255 155.472C293.619 155.776 286.401 155.826 278.676 155.472C271.921 155.168 265.632 154.627 259.781 153.851L259.452 248.408C259.198 250.671 257.611 267.109 268.848 277.113C272.212 280.251 276.41 282.35 280.938 283.158C289.381 284.509 296.177 280.313 301.344 277.113C306.691 273.785 311.316 269.419 314.945 264.272L313.856 387.433C313.856 387.433 364.833 412.643 477.247 388.7L467.723 209.429C467.723 209.429 455.904 172.999 400.182 171.605C400.182 171.605 385.281 230.653 384.521 268.434C384.513 268.434 373.934 189.994 360.713 180.479Z" fill="#7A7B80"/>
<path d="M477.406 388.954C460.948 392.905 444.233 395.7 427.384 397.32C419.583 398.063 412.069 398.536 404.867 398.781C406.936 389.629 415.944 354.879 448.051 335.968C456.211 331.207 465.112 327.851 474.384 326.039C475.391 346.999 476.399 367.971 477.406 388.954Z" fill="#E8E9EC"/>
<path d="M478.31 232.959C478.183 232.967 478.056 232.967 477.93 232.959L404.116 232.528C404.116 219.391 403.815 205.81 403.213 191.784C402.892 184.675 402.492 177.69 402.014 170.829C402.014 170.829 465.815 173.227 478.31 232.959Z" fill="#7A7B80"/>
<path d="M383.584 300.55L387.611 398.78" stroke="#575960" stroke-width="0.75" stroke-miterlimit="10"/>
<path d="M361.802 180.403L344.461 213.65L383.753 304.325C384.074 291.458 384.389 278.586 384.699 265.708C377.055 237.262 369.423 208.827 361.802 180.403Z" fill="#575960"/>
<path d="M407.51 236.985C410.868 239.218 414.811 240.409 418.844 240.409C422.877 240.409 426.82 239.218 430.178 236.985C428.394 240.258 427.46 243.926 427.46 247.653C427.46 251.38 428.394 255.047 430.178 258.32C426.818 256.093 422.876 254.905 418.844 254.905C414.812 254.905 410.87 256.093 407.51 258.32C409.261 255.037 410.178 251.374 410.178 247.653C410.178 243.932 409.261 240.268 407.51 236.985Z" fill="#E8EB8F"/>
<path d="M383.711 305.084L423.754 211.371L401.871 172.096C399.665 180.904 397.616 189.983 395.725 199.332C388.688 234.172 384.669 269.554 383.711 305.084Z" fill="#575960"/>
<path d="M361.473 180.479L345.93 212.139L383.711 302.061L386.167 264.196C386.167 264.196 367.94 175.261 361.473 180.479Z" fill="#213D73"/>
<path d="M383.711 302.813C396.561 272.093 409.405 241.365 422.243 210.628L400.335 171.336C398.117 180.116 396.068 189.198 394.188 198.58C387.374 232.91 383.865 267.814 383.711 302.813Z" fill="#213D73"/>
<path d="M422.243 210.627L416.224 200.049L383.711 302.061L422.243 210.627Z" fill="#848484"/>
<path d="M350.994 292.335L389.459 407.721C389.459 407.721 395.369 416.594 404.251 410.676L475.253 378.138C476.613 377.555 477.844 376.71 478.877 375.651C479.909 374.592 480.723 373.34 481.272 371.966C481.821 370.593 482.094 369.124 482.075 367.645C482.056 366.166 481.746 364.706 481.163 363.346C468.347 330.803 455.529 298.259 442.707 265.716C442.276 263.782 440.917 258.869 436.797 256.834C433.572 255.255 430.195 256.175 427.915 256.834C414.922 260.591 403.052 265.057 401.296 265.716C397.919 266.973 392.135 268.527 380.586 271.625C371.35 274.108 363.321 276.066 356.946 277.535C356.431 277.738 351.569 279.697 350.192 284.872C349.563 287.376 349.848 290.022 350.994 292.335Z" fill="#A9A8A8"/>
<path d="M353.958 292.335C366.763 330.8 379.582 369.262 392.414 407.721C392.414 407.721 398.324 416.594 407.206 410.676L478.217 378.138C479.576 377.555 480.807 376.71 481.84 375.651C482.873 374.592 483.687 373.34 484.236 371.966C484.784 370.593 485.057 369.124 485.039 367.645C485.02 366.166 484.71 364.706 484.127 363.346C471.3 330.803 458.478 298.259 445.662 265.716C445.232 263.782 443.872 258.869 439.752 256.834C436.536 255.255 433.159 256.175 430.879 256.834C417.877 260.591 406.007 265.057 404.251 265.716C400.874 266.973 395.091 268.527 383.541 271.625C374.313 274.108 366.276 276.066 359.902 277.535C359.378 277.738 354.524 279.697 353.148 284.872C352.519 287.377 352.807 290.024 353.958 292.335Z" fill="#D8D7D9"/>
<path d="M420.521 339.674C426.237 339.674 430.871 335.04 430.871 329.323C430.871 323.607 426.237 318.973 420.521 318.973C414.804 318.973 410.17 323.607 410.17 329.323C410.17 335.04 414.804 339.674 420.521 339.674Z" fill="#A9A8A8"/>
<path d="M424.336 380.511C430.297 376.011 439.533 368.523 439.533 368.523C442.53 367.501 454.941 363.145 470.146 357.775L452.07 339.826C452.07 339.826 428.127 350.498 426.236 350.168C424.632 349.89 425.594 347.838 413.192 345.305C409.612 344.579 404.547 346.344 404.547 346.344C404.547 346.344 398.333 348.564 398.358 350.16C398.421 350.893 398.744 351.58 399.269 352.095C399.794 352.611 400.486 352.922 401.22 352.971C402.478 352.971 404.85 351.832 406.108 351.874C407.366 351.916 409.984 354.5 410.49 355.85C410.997 357.201 392.541 363.449 392.541 363.449C392.541 363.449 387.172 364.901 385.356 365.239C383.811 365.526 379.126 366.032 379.126 366.032C379.126 366.032 372.481 367.121 372.828 369.181C373.03 370.397 379.109 371.081 385.112 370.769C391.57 370.422 397.978 369.038 398.155 369.663C398.569 371.123 388.489 374.618 388.489 374.618C388.489 374.618 383.423 375.176 381.321 376.121C378.172 375.935 372.996 377.151 373.596 379.616C373.706 380.072 381.11 380.461 381.11 380.461C381.11 380.461 385.914 379.794 388.218 379.616C392.288 379.304 397.953 377.084 400.688 376.645C402.968 376.29 402.335 377.134 402.512 377.32C402.689 377.506 399.7 378.384 395.665 379.726C393.639 380.402 391.444 381.609 389.012 382.023C386.566 382.52 384.159 383.194 381.81 384.04C376.601 385.856 378.493 388.81 383.583 387.907C385.525 387.569 387.636 387.173 389.772 386.776C398.079 385.205 405.357 381.997 405.771 382.791C406.311 383.812 392.727 388.861 392.727 388.861C392.727 388.861 386.074 393.673 393.571 392.331C398.872 391.418 404.037 389.844 408.945 387.645C410.853 386.615 418.376 385.02 424.336 380.511Z" fill="#F9B2A1"/>
<path d="M460.326 703.324C458.637 704.506 451.647 705.561 443.044 706.448C425.872 708.212 402.367 709.284 402.367 709.284L413.782 687.139L412.65 683.906C412.485 683.422 412.442 682.905 412.525 682.401C412.608 681.897 412.813 681.421 413.124 681.015C413.434 680.609 413.84 680.286 414.306 680.075C414.771 679.863 415.281 679.77 415.791 679.803L432.778 680.959L443.28 669.562C443.444 669.306 443.671 669.097 443.94 668.955C444.209 668.813 444.51 668.743 444.814 668.753C445.117 668.762 445.413 668.85 445.673 669.008C445.933 669.166 446.147 669.389 446.294 669.655C448.996 674.484 454.45 684.455 457.852 692.332C460.258 697.887 461.635 702.404 460.326 703.324Z" fill="#E0E1E0"/>
<path d="M460.328 703.324C460.328 703.324 433.235 728.652 428.929 729.547C424.624 730.442 383.491 733.54 382.638 730.923C381.786 728.306 383.618 725.199 386.429 722.058C392.246 715.574 402.369 709.285 402.369 709.285L442.049 695.776L450.644 699.339L460.328 703.324Z" fill="#E0E1E0"/>
<path d="M460.328 703.324C460.328 703.324 433.235 728.652 428.929 729.547C424.624 730.442 383.491 733.541 382.638 730.923C381.786 728.306 383.618 725.199 386.429 722.059C396.56 721.561 422.623 720.167 427.089 718.994C429.571 718.344 436.325 712.62 443.045 706.448C445.671 704.042 448.297 701.577 450.644 699.306C453.607 696.477 456.174 693.978 457.837 692.332C460.26 697.887 461.636 702.404 460.328 703.324Z" fill="#0C1B3F"/>
<path d="M409.469 696.013C409.377 695.987 409.296 695.931 409.239 695.855C409.181 695.779 409.15 695.686 409.15 695.591C409.15 695.495 409.181 695.402 409.239 695.326C409.296 695.25 409.377 695.195 409.469 695.168L419.245 694.839C419.304 694.835 419.362 694.842 419.417 694.861C419.473 694.88 419.523 694.911 419.566 694.95C419.609 694.99 419.643 695.038 419.666 695.092C419.69 695.145 419.701 695.203 419.701 695.261C419.704 695.319 419.694 695.377 419.674 695.431C419.654 695.485 419.624 695.534 419.585 695.577C419.546 695.619 419.498 695.653 419.446 695.677C419.394 695.702 419.337 695.715 419.279 695.717L409.503 696.038L409.469 696.013Z" fill="#5D6AA4"/>
<path d="M377.134 709.268C376.957 714.097 376.357 717.61 374.998 717.888C369.004 719.096 309.356 721.865 306.266 721.088C303.176 720.311 293.746 719.838 293.805 713.971C293.858 712.818 294.271 711.71 294.987 710.805C297.933 706.752 305.456 704.253 305.456 704.253L338.922 684.312C338.922 684.312 339.049 682.699 339.201 680.935C339.242 680.425 339.41 679.933 339.688 679.504C339.966 679.074 340.346 678.721 340.795 678.475C341.244 678.228 341.746 678.098 342.258 678.094C342.77 678.09 343.274 678.213 343.726 678.453L358.813 686.313L373.022 680.116C373.275 679.948 373.566 679.848 373.869 679.827C374.171 679.805 374.474 679.863 374.748 679.994C375.021 680.126 375.256 680.326 375.428 680.575C375.601 680.824 375.706 681.114 375.732 681.416C376.307 687.461 377.429 700.522 377.134 709.268Z" fill="#E0E1E0"/>
<path d="M377.134 709.268C376.957 714.097 376.357 717.609 374.998 717.888C369.004 719.095 309.356 721.864 306.266 721.087C303.176 720.311 293.746 719.838 293.805 713.97C293.858 712.817 294.271 711.71 294.987 710.804C303.616 711.802 312.295 712.301 320.982 712.299C336.018 712.425 368.252 709.96 377.134 709.268Z" fill="#0C1B3F"/>
<path d="M339.394 692.559C339.315 692.559 339.236 692.539 339.167 692.5L332.463 688.397C332.407 688.371 332.356 688.333 332.315 688.286C332.275 688.24 332.244 688.185 332.226 688.125C332.208 688.066 332.203 688.003 332.211 687.942C332.218 687.88 332.239 687.821 332.272 687.768C332.304 687.715 332.348 687.67 332.399 687.635C332.45 687.6 332.509 687.576 332.57 687.565C332.631 687.554 332.694 687.557 332.754 687.572C332.814 687.587 332.87 687.615 332.919 687.654L339.622 691.748C339.734 691.779 339.83 691.852 339.888 691.953C339.945 692.053 339.961 692.173 339.931 692.284C339.9 692.396 339.827 692.492 339.726 692.55C339.626 692.607 339.506 692.623 339.394 692.593V692.559Z" fill="#5D6AA4"/>
<path d="M473.632 218.944L447.941 224.989C450.094 229.861 453.353 237.451 457.009 246.898C461.348 258.11 463.51 264.83 467.588 276.371C470.298 284.02 474.342 295.19 479.677 308.859C474.208 314.966 468.408 320.77 462.302 326.242C461.576 326.884 451.572 335.791 445.679 338.332C441.398 340.172 436.139 342.055 436.139 342.055C437.202 347.83 438.182 352.516 438.874 355.707C440.715 364.107 443.045 373.529 443.053 373.555C459.457 365.112 508.644 337.775 507.639 303.573C507.428 296.499 504.262 288.183 497.812 271.838C490.742 253.771 482.67 236.112 473.632 218.944Z" fill="#7A7B80"/>
<path d="M252.992 153.201H304.374V169.073L252.232 168.322L252.992 153.201Z" fill="#213D73"/>
<path d="M428.508 341.852L438.107 377.151L451.176 372.795L441.155 337.513L428.508 341.852Z" fill="#213D73"/>
<path d="M313.863 388.202C349.052 401.803 382.198 398.781 382.198 398.781C361.801 330.015 314.226 327.271 314.226 327.271L313.863 388.202Z" fill="#E8E9EC"/>
<path d="M328.419 200.699C328.892 206.854 326.19 212.519 321.454 215.204C318.773 216.651 315.688 217.167 312.682 216.673C315.333 213.515 318.347 210.206 321.749 206.854C324.012 204.625 326.249 202.573 328.419 200.699Z" fill="#E8E9EC"/>
<path d="M691.495 579.284H664.867V679.87H691.495V579.284Z" fill="#F9B2A1"/>
<path d="M620.493 579.284H593.865V679.87H620.493V579.284Z" fill="#F9B2A1"/>
<path d="M697.742 307.103L700.368 646.269C700.368 646.269 684.589 668.296 655.664 650.676C655.664 650.676 634.625 448.053 632.025 421.627C629.424 395.202 626.765 399.6 626.765 399.6L629.391 650.676C629.391 650.676 597.832 668.296 584.645 650.676C571.457 633.056 558.346 320.315 558.346 320.315L697.742 307.103Z" fill="#010101"/>
<path d="M487.782 43.8433C489.555 50.4707 492.73 60.9396 492.73 60.9396C492.561 63.8439 491.987 75.9169 491.311 90.7168L512.823 81.5228C512.823 81.5228 511.979 57.4612 512.941 55.9585C513.735 54.7005 515.145 56.2202 521.587 46.5449C523.444 43.7504 523.689 38.8283 523.689 38.8283C523.689 38.8283 523.942 32.7749 522.574 32.243C521.93 32.0437 521.235 32.0813 520.616 32.3491C519.997 32.617 519.494 33.0974 519.197 33.7036C518.733 34.759 518.91 37.1904 518.446 38.2458C517.982 39.3011 514.866 40.635 513.541 40.6013C512.215 40.5675 513.313 22.7113 513.313 22.7113C513.313 22.7113 513.938 17.6457 514.267 15.9572C514.554 14.5388 515.744 10.3766 515.744 10.3766C515.744 10.3766 517.112 4.34853 515.246 3.93484C514.14 3.69001 511.456 8.62896 509.657 13.8381C507.715 19.4609 506.685 25.3876 506.094 25.3201C504.701 25.1681 505.25 15.3831 505.25 15.3831C505.25 15.3831 506.533 10.8747 506.449 8.76404C507.69 6.14682 508.45 1.32606 506.137 0.979915C505.715 0.920816 502.827 7.08395 502.827 7.08395C502.827 7.08395 501.738 11.4066 501.088 13.4328C499.889 17.0378 499.805 22.61 499.247 25.0837C498.766 27.1521 498.268 26.3163 498.049 26.4092C497.829 26.502 498.116 23.64 498.361 19.7479C498.488 17.7892 498.209 15.5266 498.707 13.2893C499.13 11.0373 499.387 8.75728 499.475 6.46764C499.737 1.40205 496.563 1.99303 495.575 6.63649C495.195 8.40945 494.798 10.3428 494.401 12.3015C492.865 19.8999 493.084 27.2112 492.265 27.2872C491.21 27.397 491.598 14.0914 491.598 14.0914C491.598 14.0914 489.809 6.77157 488.348 13.6354C487.297 18.4609 486.855 23.3988 487.031 28.3341C487.242 30.2675 486.009 37.2158 487.782 43.8433Z" fill="#F9B2A1"/>
<path d="M568.831 150.938C549.067 169.512 530.603 184.785 526.381 181.332C526.08 181.077 525.855 180.744 525.731 180.369C522.354 171.159 522.354 63.6836 522.354 63.6836C508.846 66.6385 498.647 67.7614 494.806 67.8205C491.15 67.8796 488.229 67.9302 484.911 66.7567C484.455 66.5963 484.379 66.5457 484.219 66.5625C480.301 66.9762 481.23 94.9214 481.509 118.958C482.286 187.605 477.465 201.822 491.716 214.14C503.181 224.086 518.429 225.293 521.704 225.571C534.613 226.593 554.436 223.646 561.613 211.92C565.446 205.655 562.921 201.628 563.175 186.524C563.383 174.456 565.287 162.477 568.831 150.938Z" fill="#7A7B80"/>
<path d="M700.512 232.671C700.512 232.671 702.564 270.57 703.594 303.758C704.295 326.275 704.522 346.622 703.332 351.527C700.369 363.676 573.155 379.869 555.408 359.623C555.408 359.623 546.333 230.991 550.866 230.535C555.4 230.079 700.512 232.671 700.512 232.671Z" fill="#7A7B80"/>
<path d="M549.49 234.732C553.775 238.424 558.287 241.844 562.998 244.973H701.796L703.298 156.739C667.839 131.174 633.402 137.549 633.402 137.549C633.402 137.549 588.208 132.263 564.603 154.434C561.101 157.706 558.175 161.545 555.949 165.789C552.209 173.025 550.351 202.076 549.49 234.732Z" fill="#7A7B80"/>
<path d="M601.327 217.432C610.217 254.335 615.114 261.545 617.951 261.258C620.636 260.979 621.286 253.98 627.018 240.101C630.025 232.8 633.56 225.729 637.597 218.943C641.368 196.784 645.145 174.619 648.927 152.449C645.634 151.503 603.674 139.827 593.771 155.471C592.657 157.219 590.934 160.925 593.771 181.162C595.479 193.407 598.004 205.524 601.327 217.432Z" fill="#6977A8"/>
<path d="M646.961 104.842L647.62 137.312C647.62 137.312 641.955 146.76 622.992 148.684C608.868 150.12 603.836 146.996 603.836 146.996L605.474 130.516L607.095 114.475L641.237 106.235L646.961 104.842Z" fill="#F9B2A1"/>
<path d="M582.702 82.7641C583.471 73.3674 589.457 66.1912 596.126 66.7231H599.554C599.967 66.6935 600.382 66.6935 600.795 66.7231C607.439 67.2718 612.209 75.3261 611.441 84.7228C610.673 94.1195 604.687 101.287 598.009 100.764H594.59C594.174 100.793 593.756 100.793 593.34 100.764C586.696 100.215 581.934 92.1777 582.702 82.7641Z" fill="#475982"/>
<path d="M647.121 112.516C633.739 109.984 595.418 48.3522 595.418 48.3522C595.418 48.3522 576.338 24.831 581.488 21.7157C586.638 18.6003 591.534 23.4042 591.534 23.4042C602.369 21.7549 613.279 20.6503 624.224 20.0947C626.208 20.0018 628.159 19.9512 630.058 19.9512C635.799 19.9512 641.034 20.2889 644.605 21.3104C658.78 25.3291 668.295 48.5633 668.295 48.5633C668.295 48.5633 675.395 47.9132 678.426 57.5885C681.457 67.2638 660.485 114.973 647.121 112.516Z" fill="#010101"/>
<path d="M641.236 106.218C641.119 107.305 640.835 108.367 640.392 109.367C633.461 125.729 613.671 129.629 605.516 130.524L607.137 114.483L641.236 106.218Z" fill="#010101"/>
<path d="M598.355 40.6011C598.355 40.6011 582.145 81.6493 589.296 104.132C596.447 126.615 617.03 122.292 629.255 117.463C641.48 112.634 646.985 104.799 646.985 104.799C646.985 104.799 658.686 108.311 666.032 97.2851C673.377 86.259 668.176 74.0762 661.481 71.4843C654.786 68.8924 647.128 73.9327 647.128 73.9327L652.861 61.9695C652.861 61.9695 624.755 3.24238 598.355 40.6011Z" fill="#F9B2A1"/>
<path d="M598.355 40.6007C598.355 40.6007 611.019 35.5351 616.381 39.9759C621.742 44.4167 628.133 82.0456 647.078 73.966C666.023 65.8864 656.221 41.7742 656.221 41.7742C656.221 41.7742 608.563 0.996187 598.355 40.6007Z" fill="#010101"/>
<path d="M648.532 92.1775C648.147 92.1796 647.778 92.0311 647.502 91.7638C647.225 91.4855 647.07 91.1091 647.07 90.7169C647.07 90.3247 647.225 89.9484 647.502 89.67L657.684 79.0661C657.961 78.812 658.325 78.6735 658.702 78.6789C659.078 78.6842 659.438 78.8329 659.708 79.0947C659.979 79.3564 660.139 79.7115 660.157 80.0875C660.174 80.4634 660.048 80.8319 659.803 81.1176L649.579 91.7131C649.444 91.8559 649.281 91.9705 649.102 92.0502C648.922 92.1299 648.728 92.1732 648.532 92.1775Z" fill="#010101"/>
<path d="M662.368 89.577C662.239 89.5768 662.111 89.5598 661.988 89.5264L653.165 87.2215C652.785 87.1222 652.459 86.8764 652.26 86.5378C652.061 86.1992 652.004 85.7954 652.101 85.4148C652.148 85.2256 652.233 85.0476 652.35 84.8916C652.467 84.7355 652.614 84.6044 652.782 84.506C652.95 84.4077 653.137 84.344 653.33 84.3189C653.524 84.2937 653.72 84.3075 653.908 84.3595L662.747 86.6643C663.1 86.7504 663.409 86.9633 663.615 87.2626C663.821 87.5618 663.909 87.9264 663.863 88.2866C663.817 88.6469 663.64 88.9776 663.366 89.2156C663.091 89.4537 662.739 89.5823 662.376 89.577H662.368Z" fill="#010101"/>
<path d="M595.68 59.1242C595.357 59.123 595.042 59.0163 594.785 58.8203C594.479 58.5873 594.277 58.2429 594.223 57.862C594.17 57.481 594.268 57.0942 594.498 56.7856C594.608 56.6337 597.309 53.1215 604.047 54.1009C604.24 54.1287 604.426 54.1946 604.594 54.2948C604.761 54.3949 604.908 54.5273 605.024 54.6844C605.14 54.8414 605.224 55.0199 605.271 55.2096C605.317 55.3993 605.326 55.5963 605.296 55.7894C605.234 56.1775 605.022 56.526 604.707 56.7608C604.392 56.9957 603.998 57.0985 603.608 57.0473C598.703 56.3213 596.913 58.491 596.854 58.5839C596.71 58.7547 596.53 58.8916 596.327 58.985C596.124 59.0784 595.903 59.1259 595.68 59.1242Z" fill="#010101"/>
<path d="M626.258 59.5125C625.912 59.5136 625.577 59.3909 625.313 59.1664C624.255 58.2998 623.016 57.6828 621.688 57.3612C620.359 57.0396 618.975 57.0218 617.638 57.309C617.452 57.3627 617.256 57.3785 617.063 57.3556C616.87 57.3327 616.683 57.2714 616.514 57.1755C616.345 57.0796 616.197 56.9509 616.078 56.7969C615.96 56.643 615.873 56.4669 615.823 56.279C615.77 56.0922 615.755 55.8968 615.778 55.704C615.801 55.5113 615.861 55.3249 615.956 55.1555C616.051 54.9862 616.178 54.8372 616.331 54.717C616.483 54.5969 616.658 54.508 616.845 54.4554C618.644 54.0441 620.514 54.0502 622.311 54.4731C624.109 54.896 625.785 55.7246 627.212 56.8953C627.512 57.1481 627.7 57.5091 627.735 57.8997C627.77 58.2904 627.649 58.6789 627.398 58.9807C627.258 59.1464 627.083 59.2798 626.887 59.3716C626.69 59.4634 626.475 59.5115 626.258 59.5125Z" fill="#010101"/>
<path d="M597.892 74.1941C597.699 74.2034 597.506 74.173 597.325 74.1047C597.145 74.0364 596.98 73.9317 596.842 73.7971C596.703 73.6626 596.594 73.501 596.52 73.3224C596.447 73.1438 596.411 72.952 596.414 72.7589L597.031 66.0047C597.093 65.6461 597.286 65.3236 597.574 65.1003C597.861 64.877 598.221 64.769 598.584 64.7974C598.767 64.7996 598.948 64.8382 599.115 64.911C599.283 64.9838 599.435 65.0893 599.561 65.2213C599.688 65.3534 599.787 65.5094 599.852 65.6801C599.918 65.8509 599.949 66.033 599.943 66.2158L599.327 72.9699C599.28 73.3145 599.107 73.6295 598.842 73.8552C598.578 74.0809 598.239 74.2015 597.892 74.1941Z" fill="#010101"/>
<path d="M620.248 76.2293C620.044 76.2251 619.844 76.1798 619.658 76.0961C619.472 76.0124 619.305 75.892 619.167 75.7422C619.029 75.5924 618.923 75.4162 618.855 75.2242C618.787 75.0323 618.758 74.8285 618.77 74.6252L619.378 67.069C619.417 66.6808 619.605 66.3227 619.903 66.0707C620.201 65.8186 620.585 65.6922 620.974 65.7182C621.168 65.7331 621.356 65.786 621.529 65.8739C621.702 65.9618 621.856 66.0828 621.982 66.2302C622.109 66.3776 622.205 66.5484 622.265 66.7329C622.325 66.9174 622.348 67.1119 622.333 67.3054L621.717 74.9038C621.679 75.2673 621.508 75.604 621.237 75.8488C620.966 76.0936 620.613 76.2291 620.248 76.2293Z" fill="#010101"/>
<path d="M602.45 93.3423C602.169 93.3458 601.893 93.268 601.655 93.1182C601.416 92.9684 601.227 92.7531 601.108 92.498C596.346 81.8434 603.48 73.2488 603.793 72.8942C603.918 72.7462 604.072 72.6244 604.245 72.5358C604.418 72.4472 604.607 72.3936 604.8 72.3779C604.994 72.3622 605.189 72.3848 605.374 72.4444C605.559 72.504 605.73 72.5995 605.878 72.7253C606.026 72.8512 606.148 73.0049 606.236 73.1778C606.325 73.3507 606.379 73.5394 606.394 73.733C606.41 73.9267 606.387 74.1215 606.328 74.3064C606.268 74.4913 606.173 74.6627 606.047 74.8107C605.785 75.1146 599.816 82.3668 603.801 91.2907C603.881 91.4674 603.926 91.6583 603.932 91.8522C603.938 92.0462 603.905 92.2394 603.836 92.4207C603.767 92.602 603.663 92.7679 603.529 92.9087C603.396 93.0495 603.236 93.1624 603.058 93.241C602.866 93.3194 602.658 93.354 602.45 93.3423Z" fill="#010101"/>
<path d="M637.91 86.698C638.019 96.12 643.507 103.701 650.168 103.583C656.83 103.465 662.157 95.8076 662.056 86.3856C661.954 76.9636 656.467 69.3821 649.797 69.4497C643.127 69.5172 637.808 77.2676 637.91 86.698Z" fill="#475982"/>
<path d="M649.797 69.4922L654.458 69.7792L654.829 103.913L650.177 103.626L644.487 98.9908L640.451 80.6027L649.797 69.4922Z" fill="#475982"/>
<path d="M642.571 86.9775C642.681 96.3995 648.169 103.981 654.83 103.913C661.491 103.846 666.819 96.1378 666.717 86.7158C666.616 77.2938 661.128 69.7039 654.459 69.7799C647.789 69.8558 642.487 77.5555 642.571 86.9775Z" fill="#6977A8"/>
<path d="M658.763 73.8823C658.763 73.8823 661.153 38.6933 661.153 35.7384C660.577 33.5892 659.571 31.5788 658.198 29.8285C656.323 27.4691 653.842 25.6629 651.021 24.6025L648.092 72.6665L658.763 73.8823Z" fill="#6977A8"/>
<path d="M601.961 100.823C613.781 100.823 619.691 94.9131 619.691 94.9131C619.691 94.9131 619.691 106.733 613.781 106.733C607.871 106.733 601.961 100.823 601.961 100.823Z" fill="#010101"/>
<path d="M605.86 138.848C604.071 143.544 602.729 148.397 601.85 153.344C601.158 157.237 598.963 169.478 601.724 169.504C605.185 169.504 609.997 153.344 619.901 152.618C628.673 152.011 633.358 165.063 640.619 162.986C645.423 161.61 648.124 154.543 648.926 152.407C649.903 149.745 650.415 146.935 650.438 144.1C650.472 141.305 650.047 138.525 649.18 135.868C648.167 136.822 632.843 150.66 616.388 145.307C612.428 143.996 608.824 141.785 605.86 138.848Z" fill="#F3B06A"/>
<path d="M734.697 361.413C733.076 354.118 730.129 342.577 730.129 342.577C730.442 339.428 731.641 326.325 733.084 310.259L709.242 319.233C709.242 319.233 708.989 345.456 707.9 347.035C706.98 348.377 705.519 346.647 698.056 356.871C695.903 359.826 695.405 365.161 695.405 365.161C695.405 365.161 694.839 371.738 696.3 372.38C696.991 372.628 697.748 372.621 698.434 372.359C699.12 372.097 699.69 371.598 700.04 370.953C700.597 369.822 700.521 367.171 701.078 366.048C701.635 364.925 705.08 363.616 706.524 363.718C707.967 363.819 705.941 383.186 705.941 383.186C705.941 383.186 705.021 388.674 704.582 390.464C704.202 391.992 702.708 396.467 702.708 396.467C702.708 396.467 700.935 402.959 702.952 403.499C704.143 403.82 707.3 398.577 709.504 392.988C711.876 386.969 713.278 380.569 713.919 380.67C715.431 380.898 714.409 391.519 714.409 391.519C714.409 391.519 712.805 396.365 712.797 398.662C711.319 401.456 710.264 406.657 712.797 407.147C713.261 407.231 716.697 400.663 716.697 400.663C716.697 400.663 718.082 396.011 718.884 393.841C720.294 390.017 720.623 383.938 721.374 381.27C721.999 379.05 722.506 379.978 722.742 379.885C722.978 379.792 722.539 382.891 722.083 387.112C721.855 389.24 722.083 391.705 721.408 394.12C720.837 396.55 720.448 399.019 720.243 401.507C719.719 407.003 723.198 406.513 724.464 401.507C724.962 399.599 725.486 397.522 726.009 395.411C728.035 387.197 728.145 379.252 729.04 379.201C730.197 379.142 729.133 393.554 729.133 393.554C729.133 393.554 730.746 401.6 732.654 394.196C734.02 388.996 734.737 383.648 734.79 378.273C734.638 376.204 736.309 368.707 734.697 361.413Z" fill="#F9B2A1"/>
<path d="M703.332 156.738C703.332 156.738 729.96 185.798 732.881 230.189C735.802 274.581 738.791 336.693 738.791 336.693C738.791 336.693 723.999 348.513 703.332 336.693C703.332 336.685 688.54 166.135 703.332 156.738Z" fill="#7A7B80"/>
<path d="M682.41 685.788C682.369 685.796 682.326 685.796 682.284 685.788C673.655 682.926 663.271 685.788 663.17 685.788C663.108 685.801 663.045 685.802 662.984 685.79C662.922 685.778 662.864 685.753 662.813 685.718C662.761 685.682 662.717 685.636 662.684 685.583C662.651 685.53 662.63 685.47 662.621 685.408C662.59 685.282 662.606 685.148 662.667 685.033C662.728 684.918 662.828 684.829 662.95 684.783C663.06 684.783 673.672 681.845 682.537 684.783C682.658 684.834 682.757 684.927 682.814 685.045C682.872 685.163 682.884 685.298 682.849 685.425C682.826 685.525 682.77 685.615 682.691 685.68C682.612 685.746 682.513 685.783 682.41 685.788Z" fill="white"/>
<path d="M590.309 680.994H574.944C574.879 681.002 574.813 680.997 574.751 680.979C574.689 680.96 574.631 680.928 574.582 680.885C574.533 680.843 574.494 680.79 574.467 680.731C574.44 680.671 574.426 680.607 574.426 680.542C574.426 680.477 574.44 680.412 574.467 680.353C574.494 680.294 574.533 680.241 574.582 680.198C574.631 680.155 574.689 680.124 574.751 680.105C574.813 680.086 574.879 680.081 574.944 680.09H590.309C590.418 680.105 590.518 680.159 590.591 680.242C590.663 680.325 590.703 680.432 590.703 680.542C590.703 680.652 590.663 680.759 590.591 680.842C590.518 680.925 590.418 680.979 590.309 680.994Z" fill="white"/>
<path d="M593.003 676.552L583.902 675.615C583.839 675.609 583.777 675.591 583.721 675.561C583.665 675.531 583.616 675.49 583.575 675.441C583.535 675.392 583.505 675.336 583.486 675.275C583.467 675.214 583.461 675.151 583.467 675.087C583.473 675.024 583.492 674.963 583.521 674.907C583.551 674.851 583.592 674.801 583.641 674.761C583.69 674.72 583.746 674.69 583.807 674.671C583.868 674.653 583.932 674.647 583.995 674.653L593.054 675.581C593.183 675.596 593.301 675.661 593.383 675.762C593.465 675.863 593.505 675.992 593.493 676.122C593.478 676.241 593.42 676.351 593.33 676.43C593.24 676.51 593.123 676.553 593.003 676.552Z" fill="white"/>
<path d="M709.031 693.1C707.343 694.282 700.352 695.338 691.749 696.224C674.577 697.98 651.072 699.061 651.072 699.061L662.487 676.907C662.487 676.907 661.938 675.379 661.355 673.682C661.188 673.199 661.144 672.681 661.225 672.176C661.307 671.67 661.512 671.193 661.824 670.787C662.135 670.381 662.542 670.058 663.008 669.847C663.474 669.636 663.986 669.544 664.496 669.579L681.483 670.736L691.977 659.338C692.142 659.082 692.37 658.873 692.639 658.732C692.909 658.59 693.21 658.521 693.514 658.53C693.819 658.539 694.115 658.627 694.375 658.785C694.636 658.943 694.851 659.166 694.999 659.431C697.701 664.26 703.155 674.231 706.557 682.1C708.964 687.663 710.34 692.18 709.031 693.1Z" fill="#0E3659"/>
<path d="M709.03 693.1C709.03 693.1 681.929 718.428 677.632 719.323C673.335 720.218 632.194 723.317 631.333 720.699C630.471 718.082 632.312 714.975 635.132 711.826C640.94 705.342 651.071 699.061 651.071 699.061L690.752 685.553L699.363 689.073L709.03 693.1Z" fill="#0E3659"/>
<path d="M709.03 693.1C709.03 693.1 681.929 718.428 677.632 719.323C673.335 720.218 632.194 723.317 631.333 720.699C630.471 718.082 632.312 714.975 635.132 711.826C645.263 711.337 671.325 709.943 675.792 708.77C678.265 708.12 685.019 702.387 691.748 696.224C694.374 693.818 697 691.344 699.347 689.082C702.31 686.253 704.877 683.754 706.54 682.1C708.963 687.663 710.339 692.18 709.03 693.1Z" fill="#E0E1E0"/>
<path d="M658.139 685.789C658.047 685.763 657.966 685.707 657.909 685.631C657.851 685.555 657.82 685.462 657.82 685.367C657.82 685.271 657.851 685.179 657.909 685.102C657.966 685.026 658.047 684.971 658.139 684.945L667.915 684.624C667.973 684.62 668.03 684.629 668.085 684.648C668.139 684.668 668.188 684.699 668.23 684.738C668.272 684.778 668.306 684.825 668.328 684.878C668.351 684.931 668.363 684.988 668.363 685.046C668.365 685.104 668.356 685.161 668.336 685.215C668.316 685.269 668.285 685.319 668.246 685.361C668.207 685.404 668.16 685.438 668.107 685.462C668.055 685.486 667.998 685.5 667.941 685.502L658.164 685.823L658.139 685.789Z" fill="#E0E1E0"/>
<path d="M625.829 699.035C625.66 703.864 625.052 707.385 623.701 707.655C617.698 708.862 558.059 711.64 554.969 710.855C551.879 710.07 542.449 709.614 542.508 703.746C542.556 702.593 542.967 701.485 543.682 700.58C546.637 696.528 554.159 694.029 554.159 694.029L587.609 674.087C587.609 674.087 587.735 672.466 587.879 670.71C587.914 670.196 588.077 669.7 588.353 669.265C588.628 668.831 589.008 668.471 589.457 668.22C589.906 667.969 590.41 667.833 590.925 667.826C591.44 667.818 591.948 667.939 592.404 668.177L607.483 676.079L621.692 669.874C621.945 669.706 622.238 669.607 622.542 669.586C622.845 669.566 623.149 669.624 623.423 669.756C623.697 669.888 623.932 670.089 624.105 670.339C624.278 670.589 624.383 670.88 624.41 671.183C625.001 677.253 626.124 690.297 625.829 699.035Z" fill="#0E3659"/>
<path d="M625.829 699.035C625.66 703.864 625.052 707.385 623.701 707.655C617.698 708.862 558.059 711.64 554.969 710.855C551.879 710.07 542.449 709.614 542.508 703.746C542.556 702.594 542.967 701.486 543.682 700.58C552.311 701.573 560.99 702.072 569.677 702.075C584.738 702.201 616.955 699.736 625.829 699.035Z" fill="#E0E1E0"/>
<path d="M588.107 682.319C588.027 682.319 587.948 682.299 587.879 682.259L581.125 678.156C581.027 678.095 580.957 677.998 580.93 677.886C580.903 677.774 580.922 677.656 580.981 677.557C581.01 677.507 581.048 677.463 581.094 677.428C581.14 677.393 581.193 677.368 581.249 677.354C581.305 677.34 581.363 677.337 581.42 677.346C581.477 677.355 581.531 677.375 581.581 677.405L588.335 681.508C588.384 681.538 588.427 681.577 588.461 681.623C588.495 681.669 588.519 681.722 588.533 681.778C588.546 681.833 588.548 681.891 588.539 681.948C588.529 682.005 588.509 682.059 588.478 682.108C588.441 682.173 588.386 682.226 588.321 682.263C588.256 682.301 588.182 682.32 588.107 682.319Z" fill="#E0E1E0"/>
<path d="M477.675 65.9461L525.495 64.0127L526.145 80.8136L477.025 81.4552L477.675 65.9461Z" fill="#213D73"/>
<path d="M700.311 326.993V342.865L742.625 344.377L741.114 324.731L700.311 323.971V326.993Z" fill="#213D73"/>
<path d="M555.856 162.158C556.776 168.456 553.838 174.341 548.891 176.663C544.188 178.875 539.511 177.009 538.607 176.663C541.984 174.257 545.556 171.496 549.186 168.347C551.592 166.236 553.838 164.176 555.856 162.158Z" fill="#E8E9EC"/>
<path d="M555.407 359.624L552.148 308.022C552.148 308.022 600.381 321.818 604.24 368.987C604.265 368.987 565.395 370.346 555.407 359.624Z" fill="#E8E9EC"/>
<path d="M703.333 351.528L704.093 294.506C704.093 294.506 655.734 320.197 663.29 364.031C663.29 364.031 697.288 359.438 703.333 351.528Z" fill="#E8E9EC"/>
<path d="M602.323 139.769L582.432 169.073C594.026 204.341 605.612 239.603 617.19 274.859C618.443 229.364 613.44 183.911 602.323 139.777V139.769Z" fill="#575960"/>
<path d="M652.676 137.852L668.574 163.787C651.447 200.806 634.308 237.829 617.158 274.859C619.413 227.235 631.485 180.59 652.617 137.852H652.676Z" fill="#575960"/>
<path d="M615.916 270.612L619.943 368.843" stroke="#575960" stroke-width="0.75" stroke-miterlimit="10"/>
<path d="M651.165 136.341L667.062 162.251C650.177 198.51 633.292 234.776 616.406 271.052C618.39 224.199 630.222 178.29 651.131 136.315L651.165 136.341Z" fill="#213D73"/>
<path d="M604.588 138.258L584.705 167.562L616.441 271.078C620.358 226.454 616.356 181.489 604.621 138.258H604.588Z" fill="#213D73"/>
<path d="M661.373 153.303L667.064 162.277L617.775 269.828L661.373 153.303Z" fill="#848484"/>
<path d="M654.592 199.965C657.952 202.192 661.894 203.38 665.926 203.38C669.958 203.38 673.9 202.192 677.26 199.965C675.476 203.237 674.542 206.905 674.542 210.632C674.542 214.359 675.476 218.027 677.26 221.299C673.711 219.645 669.842 218.788 665.926 218.788C662.01 218.788 658.141 219.645 654.592 221.299C656.343 218.017 657.26 214.353 657.26 210.632C657.26 206.911 656.343 203.248 654.592 199.965Z" fill="#E8EB8F"/>
<path d="M807.632 413.742V636.231L797.281 708.23L530.493 694.392L462.057 690.846L227.166 678.672L198.072 677.161V630.414C226.676 642.326 257.753 645.087 288.51 641.22C316.126 637.759 343.48 628.945 368.546 616.627C371.051 615.394 373.533 614.128 375.993 612.828C380.737 610.323 385.403 607.717 389.991 605.01C457.067 565.574 509.032 506.535 567.903 456.487C607.212 423.13 653.46 394.425 704.775 390.069C718.423 388.948 732.159 389.532 745.663 391.808C748.339 392.255 751.007 392.753 753.666 393.319C756.908 394.011 760.133 394.794 763.342 395.666C778.64 399.828 793.381 405.82 807.243 413.514L807.632 413.742Z" fill="url(#paint0_linear_360_476)"/>
<path d="M807.632 427.351V780.912H0C52.0827 659.11 184.751 588.723 317.157 607.551C329.593 609.315 342.172 611.772 354.777 614.119C359.37 614.963 363.963 615.807 368.555 616.652C399.118 621.895 429.528 624.782 457.98 613.857C469.8 609.315 480.463 602.645 490.324 594.76C502.523 585.026 513.507 573.459 523.951 561.834C548.19 534.817 571.576 506.053 599.276 483.064C610.181 473.897 621.971 465.839 634.474 459.011C663.288 443.493 695.708 436.148 728.398 432.838C728.989 432.771 729.589 432.712 730.18 432.661C735.769 432.112 741.366 431.69 746.955 431.361C767.04 430.17 787.319 430.12 807.202 427.418L807.632 427.351Z" fill="url(#paint1_linear_360_476)"/>
<path d="M117.834 780.912C147.552 746.06 180.31 713.894 216.799 686.303C220.215 683.72 223.671 681.187 227.166 678.705C246.648 664.702 267.154 652.183 288.511 641.253V641.253C309.782 630.351 331.945 621.288 354.76 614.161V614.161C366.349 610.564 378.09 607.525 389.983 605.043C397.502 603.489 405.078 602.169 412.71 601.083C438.3 597.47 464.413 596.625 490.281 594.776C517.045 592.868 543.546 589.897 568.925 581.716C570.613 581.153 572.302 580.59 573.99 580.027C584.114 576.445 593.934 572.055 603.354 566.899C657.024 537.628 697.118 485.613 730.154 432.661C731.319 430.795 732.484 428.921 733.632 427.046C739.706 417.18 745.638 407.229 751.43 397.193C752.164 395.918 752.907 394.66 753.633 393.352C773.068 359.457 790.916 324.707 807.176 289.102C807.32 288.798 807.455 288.486 807.599 288.182" stroke="white" stroke-miterlimit="10"/>
<path d="M807.633 182.784V780.912H406.979C421.905 748.83 439.905 718.318 462.05 690.846C465.05 687.114 468.126 683.442 471.278 679.828C498.894 648.202 532.023 621.574 565.759 595.638C578.305 586.005 590.919 576.482 603.38 566.84C651.039 529.988 696.258 491.515 725.013 439.171C726.178 437.054 727.304 434.924 728.39 432.779C734.114 421.545 739.13 409.965 743.41 398.106C744.178 396.012 744.929 393.884 745.647 391.782C769.362 323.194 774.681 246.678 807.633 182.784Z" fill="url(#paint2_linear_360_476)"/>
<path d="M807.632 389.072C792.908 391.605 778.083 393.749 763.35 395.666C759.382 396.181 755.431 396.679 751.472 397.16L749.479 397.405L743.434 398.131C709.976 402.175 675.513 406.701 647.475 425.105C626.098 439.171 610.657 459.881 599.285 483.073C592.919 496.238 587.642 509.901 583.505 523.927C577.823 542.771 573.416 562.248 568.975 581.708C567.912 586.369 566.839 591.026 565.759 595.681C557.637 630.481 548.392 664.691 530.485 694.46C526.729 700.713 522.584 706.725 518.075 712.46C498.766 736.943 472.814 755.264 446.7 772.318C442.231 775.233 437.751 778.121 433.26 780.98" stroke="white" stroke-miterlimit="10"/>
<path d="M807.631 232.562H807.209V477.399H807.631V232.562Z" fill="#606161"/>
<defs>
<linearGradient id="paint0_linear_360_476" x1="423.044" y1="504.576" x2="640.729" y2="615.876" gradientUnits="userSpaceOnUse">
<stop stop-color="#79C082"/>
<stop offset="1" stop-color="#9094C9"/>
</linearGradient>
<linearGradient id="paint1_linear_360_476" x1="449.985" y1="849.711" x2="385.356" y2="505.909" gradientUnits="userSpaceOnUse">
<stop stop-color="#79C082"/>
<stop offset="1" stop-color="#9094C9"/>
</linearGradient>
<linearGradient id="paint2_linear_360_476" x1="516.454" y1="451.64" x2="1004.21" y2="613.815" gradientUnits="userSpaceOnUse">
<stop stop-color="#79C082"/>
<stop offset="1" stop-color="#9094C9"/>
</linearGradient>
</defs>
</svg>
