<svg width="1858" height="720" viewBox="0 0 1858 720" fill="none" xmlns="http://www.w3.org/2000/svg">
<g clip-path="url(#clip0_782_637)">
<path d="M45.2604 437.541C-60.2104 500.301 -143.834 577.071 -123.082 642.565C-102.33 708.059 61.0068 747.741 203.447 705.2C344.559 663.016 412.533 563.063 563.96 545.336C660.387 534.059 730.479 565.191 819.17 571.089C930.899 578.48 1073.86 539.362 1134.63 484.824C1163.18 459.13 1178.59 428.903 1228.23 410.026C1277.22 391.402 1340.59 392.197 1387.17 400.741C1433.76 409.285 1472.32 424.084 1521.67 430.377C1666.2 448.881 1869.32 378.311 1914.87 301.134C1960.41 223.957 1864.89 155.456 1717.9 139.003C1570.94 122.699 1387.76 151.992 1238.65 202.864C1145.7 234.62 1061 275.011 960.089 297.634C780.983 337.723 602.81 311.736 419.472 328.719C268.128 342.474 123.784 390.635 45.2604 437.541Z" fill="url(#paint0_linear_782_637)"/>
<path d="M51.285 476.847C-68.1409 448.556 -170.918 400.354 -170.734 331.651C-170.55 262.949 -26.595 176.17 122.047 174.097C269.316 172.083 364.106 247.09 513.891 218.651C609.269 200.531 666.82 149.836 749.673 117.647C854.06 77.132 1002.18 71.6374 1076.49 105.473C1111.42 121.437 1135.18 145.661 1188.19 148.804C1240.51 151.901 1300.73 132.165 1342.62 110.061C1384.51 87.9567 1416.87 62.2888 1462.07 41.5044C1594.43 -19.4385 1809.36 -12.9419 1875.93 47.0528C1942.49 107.048 1871.87 201.011 1736.56 260.732C1601.22 320.303 1417.68 347.216 1260.18 343.338C1161.99 340.876 1069.07 327.707 966.022 336.345C783.131 351.737 620.92 429.894 440.911 468.598C292.394 500.802 140.252 498.082 51.285 476.847Z" fill="url(#paint1_linear_782_637)"/>
</g>
<defs>
<linearGradient id="paint0_linear_782_637" x1="868.861" y1="239.169" x2="923.964" y2="598.695" gradientUnits="userSpaceOnUse">
<stop stop-color="#F3CE64"/>
<stop offset="1" stop-color="#F9E5D1"/>
</linearGradient>
<linearGradient id="paint1_linear_782_637" x1="896.492" y1="419.448" x2="841.389" y2="59.9223" gradientUnits="userSpaceOnUse">
<stop stop-color="#F3CE64"/>
<stop offset="1" stop-color="#F9E5D1"/>
</linearGradient>
<clipPath id="clip0_782_637">
<rect width="1858" height="720" fill="white"/>
</clipPath>
</defs>
</svg>
