<svg width="502" height="1096" viewBox="0 0 502 1096" fill="none" xmlns="http://www.w3.org/2000/svg">
<path d="M281.02 633.632C283.927 633.853 287.049 634.01 290.584 634.136C287.895 631.682 285.655 629.556 283.57 627.593C284.981 624.068 286.271 620.467 287.445 616.638C283.383 618.602 280.208 620.279 277.338 621.86C275.166 619.948 272.848 618.026 270.04 615.89C270.54 619.117 271.036 622.168 271.537 625.137C268.581 626.825 265.507 628.568 261.583 630.631C265.665 631.575 269.292 632.268 272.987 632.785C273.784 636.578 274.723 640.404 275.943 644.502C277.758 640.743 279.449 637.178 281.02 633.632Z" fill="#EFDC70" stroke="#231F20" stroke-miterlimit="10"/>
<path d="M299.004 109.026C281.403 128.143 263.916 147.486 243.615 163.126C196.636 199.612 158.827 249.119 150.329 314.016C139.181 399.029 201.161 508.361 280.309 513.141C342.726 516.68 414.36 465.204 457.185 522.441C474.414 545.343 477.821 576.066 467.995 599.801C445.532 654.378 391.992 666.569 355.114 701.948C284.826 769.249 303.151 923.068 389.77 992.946C476.39 1062.82 604.28 1027.1 632.016 925.188C637.652 904.419 639.873 881.103 650.859 863.898C680.502 816.516 753.734 838.221 801.904 877.398C850.074 916.575 894.062 970.949 949.821 985.243C993.003 996.201 1034.04 980.352 1072.09 963.735C1118.86 943.288 1165.93 920.132 1200.6 881.313C1235.46 842.399 1256.28 784.096 1242.58 724.979C1225 648.756 1155.94 588.808 1140.9 512.446C1116.91 391.079 1238.86 305.987 1224.63 184.252C1217.2 121.123 1174.34 64.7572 1128.61 20.0825C1063.7 -43.38 982.102 -95.3025 903.604 -88.458C820.149 -81.1074 761.906 -11.0554 705.182 50.2629C648.457 111.581 575.185 170.143 489.844 148.85C451.171 139.318 415.163 113.931 376.931 101.047C348.511 91.1844 315.437 91.3516 299.004 109.026Z" fill="#ACC93F"/>
<circle cx="107.387" cy="459.078" r="29" transform="rotate(112.082 107.387 459.078)" stroke="#8E94DD" stroke-width="2"/>
<circle cx="85.5394" cy="483.667" r="14" transform="rotate(112.082 85.5394 483.667)" stroke="#8E94DD" stroke-width="2"/>
</svg>
