<svg width="355" height="1052" viewBox="0 0 355 1052" fill="none" xmlns="http://www.w3.org/2000/svg">
<g clip-path="url(#clip0_188_2865)">
<path d="M152.85 -27.276C151.414 -18.4418 149.369 -9.69463 146.366 -1.25207C138.011 21.9867 141.623 49.5774 157.42 68.5949C176.698 91.7467 212.949 99.1883 239.104 84.2615C248.982 78.6041 257.599 69.5523 259.601 58.3681C261.342 48.707 258.034 38.8283 253.987 29.8636C237.319 -7.34464 207.509 -38.4603 171.041 -56.6944C169.431 -57.5213 167.647 -58 165.819 -58C160.423 -57.9565 159.335 -54.2139 158.421 -50.776C156.201 -42.3334 153.938 -33.8473 152.85 -27.276Z" fill="#F3CE64"/>
<path d="M115.226 253.724C116.662 262.558 118.707 271.305 121.71 279.748C130.066 302.987 126.454 330.577 110.656 349.595C91.3778 372.747 55.127 380.188 28.9725 365.262C19.0938 359.604 10.4771 350.552 8.47531 339.368C6.73457 329.707 10.042 319.828 14.0892 310.864C30.7567 273.655 60.5668 242.54 97.0352 224.306C98.6454 223.479 100.43 223 102.257 223C107.654 223.044 108.742 226.786 109.656 230.224C111.875 238.667 114.138 247.153 115.226 253.724Z" fill="#1C92D4"/>
<path d="M358.423 -8.01052C347.504 -13.1707 334.484 -14.5095 323.254 -10.0879C312.024 -5.66626 303.032 4.89373 301.957 16.9239C301.2 25.673 304.409 34.1928 305.575 42.8781C307.138 54.4998 304.953 66.5561 299.426 76.9039C295.182 84.832 288.985 91.9009 286.877 100.613C284.421 110.697 288.403 122.159 296.871 128.186C305.34 134.213 317.821 134.035 325.835 127.427C333.388 121.193 336.16 110.901 337.356 101.199C338.52 91.4822 338.625 81.3967 342.485 72.3967C347.218 61.4113 356.917 53.5009 364.971 44.6327C373.025 35.7646 379.929 23.9469 377.034 12.3343C374.253 1.26287 363.487 -5.61597 358.423 -8.01052Z" fill="#ACC93F"/>
<circle cx="285" cy="184" r="25" fill="#9880E0"/>
<circle cx="58" cy="793" r="25" fill="#9880E0"/>
<path d="M93.4232 695.011C82.5038 700.171 69.4844 701.509 58.2543 697.088C47.0243 692.666 38.0315 682.106 36.957 670.076C36.1997 661.327 39.4087 652.807 40.5751 644.122C42.1384 632.5 39.9526 620.444 34.4257 610.096C30.1817 602.168 23.9847 595.099 21.877 586.387C19.4205 576.303 23.4028 564.841 31.8713 558.814C40.3397 552.787 52.8205 552.965 60.8347 559.573C68.3876 565.807 71.1596 576.099 72.3557 585.801C73.5197 595.518 73.6249 605.603 77.4849 614.603C82.2176 625.589 91.9174 633.499 99.9711 642.367C108.025 651.235 114.929 663.053 112.034 674.666C109.253 685.737 98.4867 692.616 93.4232 695.011Z" fill="#ACC93F"/>
<circle r="25" transform="matrix(1 0 0 -1 20 503)" fill="#9880E0"/>
<circle r="25" transform="matrix(1 0 0 -1 58 453)" fill="#CE6256"/>
<path d="M256.604 762.989C267.524 757.829 280.543 756.491 291.773 760.912C303.003 765.334 311.996 775.894 313.07 787.924C313.828 796.673 310.619 805.193 309.452 813.878C307.889 825.5 310.075 837.556 315.602 847.904C319.846 855.832 326.043 862.901 328.15 871.613C330.607 881.697 326.625 893.159 318.156 899.186C309.688 905.213 297.207 905.035 289.193 898.427C281.64 892.193 278.868 881.901 277.672 872.199C276.508 862.482 276.402 852.397 272.542 843.397C267.81 832.411 258.11 824.501 250.056 815.633C242.002 806.765 235.099 794.947 237.994 783.334C240.775 772.263 251.541 765.384 256.604 762.989Z" fill="#ACC93F"/>
<circle r="25" transform="matrix(-1 0 0 1 330.027 1026.82)" fill="#CE6256"/>
<path d="M81.4232 -26.0105C70.5038 -31.1707 57.4844 -32.5095 46.2543 -28.0879C35.0243 -23.6663 26.0315 -13.1063 24.957 -1.07605C24.1997 7.67303 27.4087 16.1928 28.5751 24.8781C30.1384 36.4998 27.9526 48.5561 22.4257 58.9039C18.1817 66.832 11.9847 73.9009 9.877 82.6134C7.42053 92.6967 11.4028 104.159 19.8713 110.186C28.3397 116.213 40.8205 116.035 48.8347 109.427C56.3876 103.193 59.1596 92.9012 60.3557 83.1985C61.5197 73.4822 61.6249 63.3967 65.4849 54.3967C70.2176 43.4113 79.9174 35.5009 87.9711 26.6327C96.0249 17.7646 102.929 5.94689 100.034 -5.66568C97.2526 -16.7371 86.4867 -23.616 81.4232 -26.0105Z" fill="#ACC93F"/>
<circle cx="8" cy="166" r="25" fill="#9880E0"/>
<path d="M161.602 158.989C172.522 153.829 185.541 152.491 196.771 156.912C208.001 161.334 216.994 171.894 218.068 183.924C218.826 192.673 215.617 201.193 214.45 209.878C212.887 221.5 215.073 233.556 220.6 243.904C224.844 251.832 231.041 258.901 233.148 267.613C235.605 277.697 231.623 289.159 223.154 295.186C214.686 301.213 202.205 301.035 194.191 294.427C186.638 288.193 183.866 277.901 182.67 268.199C181.506 258.482 181.4 248.397 177.54 239.397C172.808 228.411 163.108 220.501 155.054 211.633C147.001 202.765 140.097 190.947 142.992 179.334C145.773 168.263 156.539 161.384 161.602 158.989Z" fill="#F28C25"/>
<path d="M130.303 389.724C128.807 398.558 126.676 407.305 123.548 415.748C114.844 438.987 118.607 466.577 135.063 485.595C155.145 508.747 192.908 516.188 220.153 501.262C230.444 495.604 239.42 486.552 241.505 475.368C243.318 465.707 239.873 455.828 235.657 446.864C218.294 409.655 187.241 378.54 149.252 360.306C147.575 359.479 145.716 359 143.812 359C138.191 359.044 137.057 362.786 136.105 366.224C133.793 374.667 131.436 383.153 130.303 389.724Z" fill="#F3CE64"/>
<path d="M34.8503 992.276C33.4142 983.442 31.3688 974.695 28.366 966.252C20.0105 943.013 23.6226 915.423 39.4197 896.405C58.6984 873.253 94.9492 865.812 121.104 880.738C130.982 886.396 139.599 895.448 141.601 906.632C143.342 916.293 140.034 926.172 135.987 935.136C119.319 972.345 89.5094 1003.46 53.041 1021.69C51.4308 1022.52 49.6466 1023 47.8188 1023C42.4225 1022.96 41.3345 1019.21 40.4207 1015.78C38.2012 1007.33 35.9382 998.847 34.8503 992.276Z" fill="#F3CE64"/>
<path d="M287.697 678.276C289.193 669.442 291.324 660.695 294.452 652.252C303.156 629.013 299.393 601.423 282.937 582.405C262.855 559.253 225.092 551.812 197.847 566.738C187.556 572.396 178.58 581.448 176.495 592.632C174.682 602.293 178.127 612.172 182.343 621.136C199.706 658.345 230.759 689.46 268.748 707.694C270.425 708.521 272.284 709 274.188 709C279.809 708.956 280.943 705.214 281.895 701.776C284.207 693.333 286.564 684.847 287.697 678.276Z" fill="#1C92D4"/>
<circle cx="292" cy="309" r="25" fill="#CE6256"/>
<circle cx="310" cy="405" r="25" fill="#9880E0"/>
<path d="M189.423 679.989C178.504 674.829 165.484 673.491 154.254 677.912C143.024 682.334 134.032 692.894 132.957 704.924C132.2 713.673 135.409 722.193 136.575 730.878C138.138 742.5 135.953 754.556 130.426 764.904C126.182 772.832 119.985 779.901 117.877 788.613C115.421 798.697 119.403 810.159 127.871 816.186C136.34 822.213 148.821 822.035 156.835 815.427C164.388 809.193 167.16 798.901 168.356 789.199C169.52 779.482 169.625 769.397 173.485 760.397C178.218 749.411 187.917 741.501 195.971 732.633C204.025 723.765 210.929 711.947 208.034 700.334C205.253 689.263 194.487 682.384 189.423 679.989Z" fill="#F28C25"/>
<path d="M227.423 913.989C216.504 908.829 203.484 907.491 192.254 911.912C181.024 916.334 172.032 926.894 170.957 938.924C170.2 947.673 173.409 956.193 174.575 964.878C176.138 976.5 173.953 988.556 168.426 998.904C164.182 1006.83 157.985 1013.9 155.877 1022.61C153.421 1032.7 157.403 1044.16 165.871 1050.19C174.34 1056.21 186.821 1056.04 194.835 1049.43C202.388 1043.19 205.16 1032.9 206.356 1023.2C207.52 1013.48 207.625 1003.4 211.485 994.397C216.218 983.411 225.917 975.501 233.971 966.633C242.025 957.765 248.929 945.947 246.034 934.334C243.253 923.263 232.487 916.384 227.423 913.989Z" fill="#F28C25"/>
<path d="M273.386 503.394C279.514 492.987 289.528 484.559 301.301 481.901C313.074 479.244 326.448 482.92 334.101 492.264C339.646 499.073 341.783 507.923 345.702 515.761C350.944 526.251 359.53 534.992 369.919 540.441C377.886 544.611 386.985 546.973 393.627 552.992C401.328 559.949 404.48 571.668 400.866 581.413C397.251 591.158 386.83 598.029 376.487 597.07C366.737 596.163 358.657 589.21 352.213 581.859C345.787 574.478 340.029 566.197 331.777 560.925C321.686 554.502 309.217 553.414 297.571 550.609C285.924 547.804 273.57 541.913 269.435 530.682C265.51 519.963 270.545 508.221 273.386 503.394Z" fill="#ACC93F"/>
</g>
<defs>
<clipPath id="clip0_188_2865">
<rect width="355" height="1052" fill="white"/>
</clipPath>
</defs>
</svg>
