<svg width="83" height="106" viewBox="0 0 83 106" fill="none" xmlns="http://www.w3.org/2000/svg">
<g clip-path="url(#clip0_388_1714)">
<path fill-rule="evenodd" clip-rule="evenodd" d="M41.1978 80.7434C44.3691 92.5016 50.3317 99.503 52.5803 101.829C52.1711 102.49 51.7623 103.186 51.3539 103.915C51.3539 103.915 42.5132 96.1825 38.7176 80.5803L41.1978 80.7434Z" fill="#C6C6C5"/>
<path fill-rule="evenodd" clip-rule="evenodd" d="M41.1978 80.7434C44.3691 92.5016 50.3317 99.503 52.5803 101.829C52.1711 102.49 51.7623 103.186 51.3539 103.915C51.3539 103.915 42.5132 96.1825 38.7176 80.5803L41.1978 80.7434Z" stroke="#1D1D1B" stroke-width="2" stroke-miterlimit="10"/>
<path fill-rule="evenodd" clip-rule="evenodd" d="M63.8857 80.9532C63.8857 80.9532 54.2172 68.1739 48.9321 58.0253C43.6469 47.8766 39.3515 39.4533 39.7822 39.2046C40.2128 38.956 47.2438 37.4869 47.2438 37.4869C47.2438 37.4869 53.3979 50.8534 57.0608 56.2031C60.7236 61.5529 70.82 74.0787 70.82 74.0787L63.8857 80.9532Z" fill="#EFDC70"/>
<path fill-rule="evenodd" clip-rule="evenodd" d="M63.8857 80.9532C63.8857 80.9532 54.2172 68.1739 48.9321 58.0253C43.6469 47.8766 39.3515 39.4533 39.7822 39.2046C40.2128 38.956 47.2438 37.4869 47.2438 37.4869C47.2438 37.4869 53.3979 50.8534 57.0608 56.2031C60.7236 61.5529 70.82 74.0787 70.82 74.0787L63.8857 80.9532Z" stroke="#1D1D1B" stroke-width="2" stroke-miterlimit="10"/>
<path fill-rule="evenodd" clip-rule="evenodd" d="M73.4367 72.2806L77.8104 78.7511C77.8104 78.7511 77.9597 78.8882 77.8288 79.1807C77.7858 79.5087 77.6711 79.8232 77.4929 80.1019C77.077 80.7185 67.4274 86.8128 66.9564 86.9253C66.6586 86.9951 66.3812 87.034 66.0499 87.1232C62.9967 89.2497 57.4226 93.176 51.3485 103.905C51.3485 103.905 42.5077 96.1729 38.7292 80.5671L41.1979 80.7432C47.0453 81.7438 58.9103 84.0615 61.4084 78.9955L71.8538 72.18L72.6481 71.7215C72.6481 71.7215 72.8698 71.4977 73.4367 72.2806Z" fill="#3E3A39"/>
<path fill-rule="evenodd" clip-rule="evenodd" d="M73.4367 72.2806L77.8104 78.7511C77.8104 78.7511 77.9597 78.8882 77.8288 79.1807C77.7858 79.5087 77.6711 79.8232 77.4929 80.1019C77.077 80.7185 67.4274 86.8128 66.9564 86.9253C66.6586 86.9951 66.3812 87.034 66.0499 87.1232C62.9967 89.2497 57.4226 93.176 51.3485 103.905C51.3485 103.905 42.5077 96.1729 38.7292 80.5671L41.1979 80.7432C47.0453 81.7438 58.9103 84.0615 61.4084 78.9955L71.8538 72.18L72.6481 71.7215C72.6481 71.7215 72.8698 71.4977 73.4367 72.2806Z" stroke="#1D1D1B" stroke-width="2" stroke-miterlimit="10"/>
<path fill-rule="evenodd" clip-rule="evenodd" d="M47.9606 39.0511C45.4482 40.1252 42.1081 41.3901 39.9023 42.2106C39.7624 41.9022 39.6309 41.6081 39.4946 41.3168C37.5042 36.9409 33.4252 27.71 29.943 23.2257C29.943 23.2257 26.2326 18.6116 22.4109 15.8928C22.4109 15.8928 20.552 14.4523 20.3357 13.9009C19.1543 10.838 24.2332 5.75563 26.8123 4.2666C26.9446 4.17458 27.0955 4.11262 27.2543 4.08507C27.4131 4.05752 27.576 4.06505 27.7316 4.10713C27.8872 4.1492 28.0317 4.22481 28.155 4.32865C28.2783 4.43248 28.3774 4.56203 28.4453 4.70822C29.0862 5.81832 32.9659 12.3061 35.1294 15.5229C37.2929 18.7398 42.583 27.2396 45.2764 33.098C46.1127 34.9885 47.0318 37.0226 47.9606 39.0511Z" fill="#3E3A39"/>
<path fill-rule="evenodd" clip-rule="evenodd" d="M47.9606 39.0511C45.4482 40.1252 42.1081 41.3901 39.9023 42.2106C39.7624 41.9022 39.6309 41.6081 39.4946 41.3168C37.5042 36.9409 33.4252 27.71 29.943 23.2257C29.943 23.2257 26.2326 18.6116 22.4109 15.8928C22.4109 15.8928 20.552 14.4523 20.3357 13.9009C19.1543 10.838 24.2332 5.75563 26.8123 4.2666C26.9446 4.17458 27.0955 4.11262 27.2543 4.08507C27.4131 4.05752 27.576 4.06505 27.7316 4.10713C27.8872 4.1492 28.0317 4.22481 28.155 4.32865C28.2783 4.43248 28.3774 4.56204 28.4453 4.70821C29.0862 5.81832 32.9659 12.3061 35.1294 15.5229C37.2929 18.7398 42.583 27.2396 45.2764 33.098C46.1127 34.9885 47.0318 37.0226 47.9606 39.0511Z" stroke="#1D1D1B" stroke-width="2" stroke-miterlimit="10"/>
<path fill-rule="evenodd" clip-rule="evenodd" d="M42.5654 41.2092L39.9026 42.2106C39.7628 41.9022 39.6313 41.6081 39.4949 41.3167C37.5045 36.9409 33.4255 27.71 29.9433 23.2257C29.9433 23.2257 26.233 18.6115 22.4112 15.8927C22.4112 15.8927 20.5523 14.4523 20.3361 13.9008C19.19 10.9323 23.9314 6.08316 26.5666 4.415C25.3208 6.30176 22.0089 11.1295 22.1489 12.5543C22.3222 14.3683 29.7159 17.4173 35.5089 27.4067C38.2072 32.0693 40.3998 36.5963 42.5654 41.2092Z" fill="#373331"/>
<path fill-rule="evenodd" clip-rule="evenodd" d="M42.5654 41.2092L39.9026 42.2106C39.7628 41.9022 39.6313 41.6081 39.4949 41.3167C37.5045 36.9409 33.4255 27.71 29.9433 23.2257C29.9433 23.2257 26.233 18.6115 22.4112 15.8927C22.4112 15.8927 20.5523 14.4523 20.3361 13.9008C19.19 10.9323 23.9314 6.08316 26.5666 4.41501C25.3208 6.30175 22.0089 11.1295 22.1489 12.5543C22.3221 14.3683 29.7159 17.4173 35.5089 27.4067C38.2072 32.0693 40.3998 36.5963 42.5654 41.2092Z" stroke="#1D1D1B" stroke-width="2" stroke-miterlimit="10"/>
<path fill-rule="evenodd" clip-rule="evenodd" d="M39.902 42.2099C40.8222 41.9629 41.7249 41.6548 42.6042 41.2878C45.1129 46.6276 47.5899 52.0559 50.7288 57.7911C54.6105 64.8902 60.4074 72.8422 63.8304 77.4117L61.408 78.9953C57.2495 73.8705 53.5154 68.4155 50.2428 62.6844C46.3997 56.0669 42.9469 49.2304 39.902 42.2099Z" fill="#DDBD57"/>
<path fill-rule="evenodd" clip-rule="evenodd" d="M39.902 42.2099C40.8222 41.9629 41.7249 41.6548 42.6042 41.2878C45.1129 46.6276 47.5899 52.0559 50.7288 57.7911C54.6105 64.8902 60.4074 72.8422 63.8304 77.4117L61.408 78.9953C57.2495 73.8705 53.5154 68.4155 50.2428 62.6844C46.3997 56.0669 42.9469 49.2304 39.902 42.2099V42.2099Z" stroke="#1D1D1B" stroke-width="2" stroke-miterlimit="10"/>
<path fill-rule="evenodd" clip-rule="evenodd" d="M41.8331 82.9284C41.6072 82.2167 41.3977 81.4891 41.2066 80.7382C47.0445 81.7443 58.9095 84.0619 61.4075 78.9959L63.8395 77.4068L70.2451 73.23L70.47 73.1002L70.2617 73.2587C69.5486 73.7917 67.1765 75.595 65.1319 77.3688C64.3788 78.0205 63.6676 78.6672 63.1007 79.2433C60.6911 81.6999 59.3113 83.4982 54.9724 84.0829C52.0129 84.4709 45.634 83.5666 41.8331 82.9284Z" fill="#373331"/>
<path fill-rule="evenodd" clip-rule="evenodd" d="M67.9198 72.3842C66.7055 73.2552 65.4458 74.0613 64.1462 74.799C64.1462 74.799 56.8175 65.122 52.9102 57.6804C49.003 50.2387 44.0538 42.5948 44.9003 42.3039C45.7467 42.013 47.4775 41.1541 47.4775 41.1541C47.4775 41.1541 53.5748 54.4002 58.5444 60.3225C63.5139 66.2449 65.4741 67.9714 66.5822 69.6475C67.1792 70.4778 67.6314 71.4031 67.9198 72.3842Z" fill="#EFDC70"/>
<path fill-rule="evenodd" clip-rule="evenodd" d="M46.4872 38.1016C46.0821 38.2398 43.2258 39.6465 43.2258 39.6465C43.2258 39.6465 38.1656 28.462 33.1506 22.03C28.1355 15.598 24.3731 14.1975 24.1564 12.4851C23.9398 10.7728 26.7321 5.00094 27.3673 5.89109C33.3736 14.4048 43.3417 28.7528 46.4872 38.1016Z" fill="#3F3E3D"/>
</g>
<defs>
<clipPath id="clip0_388_1714">
<rect width="38.0905" height="100" fill="white" transform="matrix(0.866025 -0.5 -0.5 -0.866025 50 105.647)"/>
</clipPath>
</defs>
</svg>
