<svg width="95" height="112" viewBox="0 0 95 112" fill="none" xmlns="http://www.w3.org/2000/svg">
<path fill-rule="evenodd" clip-rule="evenodd" d="M39.4653 55.6144L47.3345 60.0395L64.0612 28.3406L57.6553 24.6718L39.4653 55.6144Z" fill="url(#paint0_linear_388_1700)"/>
<path fill-rule="evenodd" clip-rule="evenodd" d="M39.4653 55.6144L47.3345 60.0395L64.0612 28.3406L57.6553 24.6718L39.4653 55.6144Z" stroke="#1D1D1B" stroke-width="2" stroke-miterlimit="10"/>
<path fill-rule="evenodd" clip-rule="evenodd" d="M50.3857 53.9409L42.9213 49.7496C42.2373 49.436 37.7256 52.3463 36.2626 54.8802C34.7585 57.5752 25.7719 75.9702 24.7857 77.7296C23.7995 79.489 18.4744 88.4946 16.9128 90.1879C13.02 94.4462 27.7333 103.458 29.684 97.3396C31.323 93.0665 33.9511 86.9395 36.0371 83.7746C40.1357 77.5208 46.8454 68.5754 49.2205 62.5537C49.9183 60.82 51.4887 55.2061 50.3857 53.9409Z" fill="#3E3A39"/>
<path fill-rule="evenodd" clip-rule="evenodd" d="M50.3857 53.9409L42.9213 49.7496C42.2373 49.436 37.7256 52.3463 36.2626 54.8802C34.7585 57.5752 25.7719 75.9702 24.7857 77.7296C23.7995 79.489 18.4744 88.4946 16.9128 90.1879C13.02 94.4462 27.7333 103.458 29.684 97.3396C31.323 93.0665 33.9511 86.9395 36.0371 83.7746C40.1357 77.5208 46.8454 68.5754 49.2205 62.5537C49.9183 60.82 51.4887 55.2061 50.3857 53.9409Z" stroke="#1D1D1B" stroke-width="2" stroke-miterlimit="10"/>
<path fill-rule="evenodd" clip-rule="evenodd" d="M79.2794 22.2295C75.4922 16.5091 72.5175 13.4536 68.3078 10.9492C64.0981 8.44478 62.3174 10.6326 58.9682 8.75071C55.619 6.86879 54.4424 3.5798 52.6696 2.57844C50.8968 1.57709 48.8353 0.845242 47.8884 2.5238C46.9414 4.20235 44.0532 9.35852 44.0532 9.35852C44.0532 9.35852 43.0859 10.8035 44.0033 12.0059C44.2676 12.4523 44.6539 12.8139 45.1168 13.048L47.4893 14.3808C48.7203 15.0915 51.158 13.904 52.8088 14.8349C54.2775 15.504 55.5559 16.5293 56.528 17.8176C57.515 19.4373 57.9897 21.8035 56.9163 25.3017L57.066 25.3881L57.0372 25.438L58.7672 26.4368L58.7928 26.3924L64.1763 29.4119C64.1763 29.4119 68.1744 25.7393 71.0113 26.4087C73.8481 27.0781 75.7103 27.9758 77.8344 34.9761C80.8806 43.5806 81.1045 46.9701 81.6032 46.9771C84.2832 47.0089 82.9039 28.987 79.2794 22.2295Z" fill="#D2D2D1"/>
<path fill-rule="evenodd" clip-rule="evenodd" d="M79.2794 22.2295C75.4922 16.5091 72.5175 13.4536 68.3078 10.9492C64.0981 8.44478 62.3174 10.6326 58.9682 8.75071C55.619 6.86879 54.4424 3.5798 52.6696 2.57844C50.8968 1.57709 48.8353 0.845242 47.8884 2.5238C46.9414 4.20235 44.0532 9.35852 44.0532 9.35852C44.0532 9.35852 43.0859 10.8035 44.0033 12.0059C44.2676 12.4523 44.6539 12.8139 45.1168 13.048L47.4893 14.3808C48.7203 15.0915 51.158 13.904 52.8088 14.8349C54.2775 15.504 55.5559 16.5293 56.528 17.8176C57.515 19.4373 57.9897 21.8035 56.9163 25.3017L57.066 25.3881L57.0372 25.438L58.7672 26.4368L58.7928 26.3924L64.1763 29.4119C64.1763 29.4119 68.1744 25.7393 71.0113 26.4087C73.8481 27.0781 75.7103 27.9758 77.8344 34.9761C80.8806 43.5806 81.1045 46.9701 81.6032 46.9771C84.2832 47.0089 82.9039 28.987 79.2794 22.2295Z" stroke="#1D1D1B" stroke-width="2" stroke-miterlimit="10"/>
<path fill-rule="evenodd" clip-rule="evenodd" d="M24.62 78.0782L27.4503 79.668C28.2426 80.1127 28.8258 80.8538 29.0715 81.7285C29.3173 82.6031 29.2056 83.5396 28.7609 84.3318C28.3163 85.1241 27.5751 85.7073 26.7004 85.953C25.8258 86.1988 24.8894 86.0871 24.0971 85.6424L21.1083 83.9686C22.5801 81.5729 23.9917 79.1793 24.62 78.0782Z" fill="#F4A103"/>
<path fill-rule="evenodd" clip-rule="evenodd" d="M24.62 78.0782L27.4503 79.668C28.2426 80.1127 28.8258 80.8538 29.0715 81.7285C29.3173 82.6031 29.2056 83.5396 28.7609 84.3318C28.3163 85.1241 27.5751 85.7073 26.7004 85.953C25.8258 86.1988 24.8894 86.0871 24.0971 85.6424L21.1083 83.9686C22.5801 81.5729 23.9917 79.1793 24.62 78.0782Z" stroke="#1D1D1B" stroke-width="2" stroke-miterlimit="10"/>
<path fill-rule="evenodd" clip-rule="evenodd" d="M29.4033 77.5136L25.9265 75.5581C26.7109 74.0075 27.8007 71.8126 28.9827 69.4195L32.7597 71.5337C33.5133 71.9987 34.0579 72.7371 34.2797 73.5944C34.5016 74.4516 34.3834 75.3615 33.95 76.1337C33.5166 76.9059 32.8014 77.4807 31.9541 77.7378C31.1067 77.995 30.1928 77.9147 29.4033 77.5136Z" fill="#F4A103"/>
<path fill-rule="evenodd" clip-rule="evenodd" d="M29.4033 77.5136L25.9265 75.5581C26.7109 74.0075 27.8007 71.8126 28.9827 69.4195L32.7597 71.5337C33.5133 71.9987 34.0579 72.7371 34.2797 73.5944C34.5016 74.4516 34.3834 75.3615 33.95 76.1337C33.5166 76.9059 32.8014 77.4807 31.9541 77.7378C31.1067 77.995 30.1928 77.9147 29.4033 77.5136V77.5136Z" stroke="#1D1D1B" stroke-width="2" stroke-miterlimit="10"/>
<path fill-rule="evenodd" clip-rule="evenodd" d="M38.3571 67.5865C37.9108 68.3767 37.1702 68.9583 36.2968 69.2047C35.4233 69.451 34.4879 69.342 33.6945 68.9014L30.2122 66.9427C31.2595 64.8342 32.3228 62.6979 33.2684 60.8041L37.0509 62.9215C37.8402 63.3693 38.4205 64.111 38.6652 64.9848C38.9099 65.8587 38.7992 66.7939 38.3571 67.5865Z" fill="#F4A103"/>
<path fill-rule="evenodd" clip-rule="evenodd" d="M38.3571 67.5865C37.9108 68.3767 37.1702 68.9583 36.2968 69.2047C35.4233 69.451 34.4879 69.342 33.6945 68.9014L30.2122 66.9427C31.2595 64.8342 32.3228 62.6979 33.2684 60.8041L37.0509 62.9215C37.8402 63.3693 38.4205 64.111 38.6652 64.9848C38.9099 65.8587 38.7992 66.7939 38.3571 67.5865V67.5865Z" stroke="#1D1D1B" stroke-width="2" stroke-miterlimit="10"/>
<defs>
<linearGradient id="paint0_linear_388_1700" x1="92.8385" y1="65.0196" x2="43.0604" y2="37.0564" gradientUnits="userSpaceOnUse">
<stop stop-color="#F8BB03"/>
<stop offset="0.01" stop-color="#F8BB03"/>
<stop offset="0.98" stop-color="#F39D05"/>
<stop offset="1" stop-color="#F39D05"/>
</linearGradient>
</defs>
</svg>
