<svg width="120" height="120" viewBox="0 0 120 120" fill="none" xmlns="http://www.w3.org/2000/svg">
<g clip-path="url(#clip0_388_1871)">
<path d="M114.908 82.0104C119.261 71.151 120.296 59.2445 117.883 47.7966C115.469 36.3487 109.715 25.8736 101.348 17.6959C92.9816 9.51824 82.3776 4.00527 70.8775 1.85418C59.3774 -0.296916 47.4977 1.01048 36.7407 5.61103C25.9836 10.2116 16.8324 17.8987 10.4442 27.7002C4.05595 37.5017 0.717687 48.9774 0.851529 60.6762C0.985371 72.375 4.5853 83.7713 11.1961 93.4241C17.8069 103.077 27.1316 110.553 37.9911 114.906C52.5531 120.743 68.8375 120.557 83.2622 114.388C97.6868 108.219 109.07 96.5723 114.908 82.0104ZM53.688 57.4695C54.1878 56.2221 55.0462 55.151 56.1547 54.3915C57.2632 53.6319 58.572 53.2181 59.9156 53.2023C61.2593 53.1866 62.5774 53.5696 63.7035 54.3029C64.8295 55.0362 65.7128 56.0869 66.2417 57.3222C66.7706 58.5575 66.9213 59.9218 66.6749 61.2428C66.4285 62.5638 65.7959 63.782 64.8572 64.7435C63.9184 65.7049 62.7157 66.3665 61.401 66.6445C60.0864 66.9225 58.7188 66.8044 57.4712 66.3052C55.799 65.6338 54.4615 64.3263 53.7522 62.6698C53.0429 61.0133 53.0198 59.143 53.688 57.4695Z" fill="white" stroke="black" stroke-width="2" stroke-linecap="round" stroke-linejoin="round"/>
<path d="M85.1003 70.0637C87.0928 65.0987 87.568 59.6543 86.4659 54.4191C85.3638 49.184 82.7339 44.3933 78.9088 40.653C75.0837 36.9126 70.2353 34.3908 64.9767 33.4062C59.7182 32.4217 54.2858 33.0189 49.3667 35.1221C44.4476 37.2253 40.2627 40.7401 37.3414 45.222C34.4201 49.7039 32.8935 54.9515 32.9549 60.301C33.0163 65.6506 34.6627 70.8617 37.6861 75.2754C40.7095 79.6891 44.9739 83.107 49.9399 85.0969C53.2357 86.4186 56.7595 87.0782 60.3102 87.038C63.8608 86.9979 67.3688 86.2587 70.6338 84.8627C73.8988 83.4667 76.8568 81.4413 79.339 78.9021C81.8212 76.3628 83.7789 73.3595 85.1003 70.0637ZM53.6899 57.4697C54.1897 56.2223 55.0481 55.1512 56.1566 54.3916C57.2651 53.6321 58.5739 53.2183 59.9176 53.2025C61.2612 53.1867 62.5794 53.5697 63.7054 54.303C64.8314 55.0364 65.7147 56.0871 66.2436 57.3224C66.7725 58.5576 66.9233 59.922 66.6769 61.243C66.4304 62.5639 65.7979 63.7821 64.8591 64.7436C63.9204 65.7051 62.7177 66.3667 61.403 66.6446C60.0883 66.9226 58.7207 66.8046 57.4731 66.3054C55.8009 65.6339 54.4634 64.3265 53.7541 62.67C53.0449 61.0134 53.0218 59.1432 53.6899 57.4697Z" fill="#AA9DEA" stroke="black" stroke-width="2" stroke-linecap="round" stroke-linejoin="round"/>
<path d="M78.362 67.3584C79.8195 63.7258 80.1669 59.7425 79.3603 55.9124C78.5537 52.0823 76.6292 48.5775 73.8304 45.8413C71.0316 43.105 67.4841 41.2604 63.6367 40.5406C59.7894 39.8208 55.815 40.2582 52.2162 41.7976C48.6175 43.3369 45.5562 45.9089 43.4194 49.1884C41.2827 52.4678 40.1666 56.3073 40.2123 60.2211C40.258 64.135 41.4634 67.9474 43.6761 71.176C45.8888 74.4047 49.0093 76.9046 52.643 78.3595C57.5125 80.3092 62.957 80.2457 67.7797 78.1828C72.6025 76.1199 76.4088 72.2266 78.362 67.3584ZM53.6883 57.469C54.1881 56.2217 55.0465 55.1505 56.155 54.391C57.2635 53.6314 58.5723 53.2176 59.916 53.2019C61.2596 53.1861 62.5778 53.5691 63.7038 54.3024C64.8298 55.0357 65.7131 56.0864 66.242 57.3217C66.7709 58.557 66.9217 59.9214 66.6753 61.2423C66.4288 62.5633 65.7963 63.7815 64.8575 64.743C63.9188 65.7045 62.7161 66.366 61.4014 66.644C60.0867 66.922 58.7191 66.8039 57.4715 66.3047C55.7993 65.6333 54.4618 64.3258 53.7525 62.6693C53.0433 61.0128 53.0202 59.1425 53.6883 57.469Z" fill="#9880E0" stroke="black" stroke-width="2" stroke-linecap="round" stroke-linejoin="round"/>
</g>
<defs>
<clipPath id="clip0_388_1871">
<rect width="120" height="120" fill="white"/>
</clipPath>
</defs>
</svg>
