<svg width="139" height="251" viewBox="0 0 139 251" fill="none" xmlns="http://www.w3.org/2000/svg">
<path d="M-36.3786 30.7692C-49.1522 56.4552 -81.9887 72.7694 -98.2334 85.543C-113.09 97.2058 -139.748 127.751 -138.984 149.272C-138.151 170.723 -121.837 192.105 -100.455 193.91C-91.1523 194.674 -81.7804 191.966 -72.4779 192.591C-42.6265 194.605 -25.9653 228.135 0.276123 242.506C30.544 259.028 69.0731 247.365 97.1195 227.233C114.891 214.39 130.928 197.451 136.62 176.277C142.313 155.104 134.954 129.417 115.655 119.004C98.2303 109.632 71.7806 111.021 64.9772 92.4157C60.2565 79.4338 69.4896 65.8966 71.5723 52.2205C74.8351 30.8386 58.521 9.52611 37.9027 3.00046C17.2845 -3.52518 -5.83301 2.65335 -23.605 15.0104C-29.0199 18.6204 -33.1157 24.2435 -36.3786 30.7692Z" fill="#79CDF2"/>
</svg>
