<svg width="1513" height="1461" viewBox="0 0 1513 1461" fill="none" xmlns="http://www.w3.org/2000/svg">
<path d="M1 179.146C99.247 153.209 199.341 129.833 300.484 106.738C399.906 84.1074 485.743 46.6064 564.542 1" stroke="#A6DD9B" stroke-miterlimit="10"/>
<path d="M1 545.057C237.817 497.635 479.028 558.22 720.224 581.131C1028.03 609.23 1058.81 306.628 1153.95 141.278C1182.96 91.3807 1217.66 43.2346 1260.93 1" stroke="#A6DD9B" stroke-miterlimit="10"/>
<path d="M1 312.766C135.68 284.754 274.768 265.744 416.542 252.592C567.648 238.542 694.969 176.941 787.312 79.6765C812.496 53.3393 836.744 26.9589 860.921 1" stroke="#A6DD9B" stroke-miterlimit="10"/>
<path d="M1 1265.68C26.8704 1268.99 51.9131 1275.4 75.224 1284.68C210.94 1338.72 343.857 1398.16 499.161 1387.35C744.009 1368.98 955.278 1282.52 1159.55 1169.04C1299.7 1090.31 1409.04 999.673 1512.13 903.305" stroke="#A6DD9B" stroke-miterlimit="10"/>
<path d="M1 767.08C175.444 702.236 393.638 707.024 549.46 809.163C613.82 851.311 661.39 906.428 743.939 922.639C882.453 950.737 992.985 866.441 1075.53 790.791C1242.03 637.328 1282.6 447.121 1376.35 268.802C1406.48 210.668 1452.81 158.373 1512.06 115.632" stroke="#A6DD9B" stroke-miterlimit="10"/>
<path d="M1384.17 1459.97C1426.92 1440.37 1469.55 1419.74 1512.06 1398.07" stroke="#A6DD9B" stroke-miterlimit="10"/>
<path d="M119.884 1C80.2235 14.3001 40.5954 27.5317 1 40.6949" stroke="#A6DD9B" stroke-miterlimit="10"/>
<path d="M1 882.641C35.1015 870.35 69.1704 857.741 103.207 844.816C275.3 779.972 469.779 844.816 557.924 973.422C583.109 1011.25 623.684 1043.67 679.649 1052.31C846.146 1075.01 980.462 983.148 1088.2 896.69C1265.89 756.197 1344.24 575.716 1432.38 398.478C1452.78 356.86 1479.56 317.277 1512.13 280.571" stroke="#A6DD9B" stroke-miterlimit="10"/>
<path d="M1 431.44C80.0929 416.991 161.285 408.961 244.519 409.296C475.376 409.296 781.786 453.606 906.308 253.673C958.468 169.376 1008.21 80.1844 1073.24 1" stroke="#A6DD9B" stroke-miterlimit="10"/>
<path d="M1 1380.12C6.59653 1381.34 12.1931 1382.67 17.7896 1384.11C209.471 1432.74 403.95 1474.89 608.223 1435.98C972.669 1366.82 1259.39 1208.25 1512.06 1011.88" stroke="#A6DD9B" stroke-miterlimit="10"/>
<path d="M1 1079.83C56.2657 1068.11 111.895 1056.95 167.567 1045.84C201.146 1039.36 236.124 1038.28 268.304 1050.16C346.656 1080.42 360.647 1152.83 416.612 1201.46C468.38 1243.61 545.332 1253.34 618.087 1243.61C825.159 1218.76 995.853 1133.38 1148.36 1026.39C1308 914.781 1407.81 781.766 1512.13 643.207" stroke="#A6DD9B" stroke-miterlimit="10"/>
<path d="M1183.55 1459.97C1296.27 1412.27 1405.25 1358.61 1512.06 1300.93" stroke="#A6DD9B" stroke-miterlimit="10"/>
<path d="M1 654.198C246.855 595.472 506.52 664.011 738.413 749.723C963.673 831.858 1103.59 601.665 1165.15 459.01C1235.79 295.302 1277.64 106.176 1470.16 1" stroke="#A6DD9B" stroke-miterlimit="10"/>
<path d="M1 1167.87C23.7779 1164.71 46.6537 1161.86 69.6274 1159.32C133.987 1151.75 196.948 1169.04 237.523 1210.11C461.384 1438.14 834.953 1276.04 1077 1145.27C1265.73 1043.68 1390.91 917.02 1512.13 783.086" stroke="#A6DD9B" stroke-miterlimit="10"/>
<path d="M987.275 1459.97C1176.07 1391.6 1347.64 1303.2 1512.06 1204.31" stroke="#A6DD9B" stroke-miterlimit="10"/>
<path d="M1 989.362C10.8406 986.588 20.6578 983.796 30.4517 980.986C126.992 952.888 230.528 895.61 335.463 936.677C425.007 972.341 447.393 1049.07 504.757 1109.59C550.929 1157.14 626.482 1169.03 699.237 1157.14C1035.03 1098.79 1250.49 885.883 1393.21 662.174C1433.54 599.427 1469.74 532.639 1512.13 469.514" stroke="#A6DD9B" stroke-miterlimit="10"/>
<path d="M775.309 1459.97C1056.53 1386.42 1293.59 1260.12 1512.06 1111.24" stroke="#A6DD9B" stroke-miterlimit="10"/>
<path d="M1 247.091C122.025 219.262 246.883 196.578 374.568 173.699C489.297 152.085 588.635 111.017 671.184 46.1741C690.646 31.4223 709.506 16.3138 727.975 1" stroke="#A6DD9B" stroke-miterlimit="10"/>
<path d="M1 598.812C230.332 552.578 476.047 591.809 693.64 664.347C890.918 730.271 1037.83 582.212 1095.19 452.525C1165.15 297.982 1204.88 117.794 1357.75 1" stroke="#A6DD9B" stroke-miterlimit="10"/>
<path d="M1 370.942C4.27397 370.39 7.56193 369.861 10.8639 369.31C188.554 340.13 356.449 341.211 531.341 327.162C764.618 307.255 865.16 142.077 973.089 1" stroke="#A6DD9B" stroke-miterlimit="10"/>
<path d="M1 1329.79C4.73102 1330.58 8.46204 1331.41 12.1931 1332.29C196.878 1375.51 370.371 1444.68 573.245 1411.18C964.232 1347.51 1256.25 1174.11 1512.06 960.355" stroke="#A6DD9B" stroke-miterlimit="10"/>
<path d="M1 825.223C16.8568 819.214 32.737 813.14 48.6404 807.002C251.515 728.109 479.573 784.307 612.491 933.446C742.61 1076.1 960.875 956.141 1075.6 856.715C1253.29 701.091 1316.25 507.642 1411.4 322.839C1435.44 276.144 1469.49 232.912 1512.13 194.957" stroke="#A6DD9B" stroke-miterlimit="10"/>
<path d="M1512.06 1447.59C1503.61 1451.72 1495.13 1455.85 1486.63 1459.96" stroke="#A6DD9B" stroke-miterlimit="10"/>
<path d="M1 110.391C121.451 76.4127 242.168 44.6827 356.24 1" stroke="#A6DD9B" stroke-miterlimit="10"/>
<path d="M1 936.494C57.2638 918.424 113.719 900.117 170.365 881.572C329.866 830.778 464.183 932.366 528.543 1038.28C581.71 1123.65 718.825 1123.65 819.562 1090.15C1184.74 966.949 1342.84 675.154 1489.75 410.377C1496.53 397.906 1503.99 385.658 1512.13 373.633" stroke="#A6DD9B" stroke-miterlimit="10"/>
<path d="M1 488.438C203.874 454.265 403.642 473.599 608.293 495.754C764.996 514.126 904.909 449.283 966.471 339.05C1029.05 226.838 1079.31 102.22 1166.84 1" stroke="#A6DD9B" stroke-miterlimit="10"/>
<path d="M646.504 1459.97C989.473 1388.39 1263.52 1239.09 1512.06 1060.39" stroke="#A6DD9B" stroke-miterlimit="10"/>
<path d="M1 1431.45C63.2614 1440.4 124.739 1450.91 186.091 1459.97" stroke="#A6DD9B" stroke-miterlimit="10"/>
<path d="M1 1123.24C41.2577 1116.04 81.8558 1109.33 122.794 1103.12C173.163 1095.55 226.33 1100.96 259.909 1131.22C324.269 1187.42 362.046 1266.31 468.38 1278.2C711.829 1305.21 924.497 1200.38 1110.58 1087.99C1284.26 983.03 1399.75 855.634 1512.13 718.383" stroke="#A6DD9B" stroke-miterlimit="10"/>
<path d="M1276.38 1459.97C1356.07 1425.11 1434.63 1388 1512.06 1348.66" stroke="#A6DD9B" stroke-miterlimit="10"/>
<path d="M1 709.11C28.1055 702.049 55.6853 696.125 83.6187 691.364C304.682 651.378 511.753 707.575 683.846 816.728C737.013 850.23 806.97 867.522 872.729 844.827C1152.56 748.643 1208.52 492.512 1299.46 289.336C1342.84 195.313 1403 103.452 1510.22 45.1473C1510.83 44.8339 1511.45 44.5096 1512.06 44.207" stroke="#A6DD9B" stroke-miterlimit="10"/>
<path d="M1 1208.62C45.6043 1209.7 88.9914 1218.58 129.79 1239.29C269.703 1309.54 405.419 1376.54 578.911 1349.52C988.857 1286.19 1268.99 1088.92 1512.13 849.982" stroke="#A6DD9B" stroke-miterlimit="10"/>
<path d="M1082.22 1459.97C1143.21 1436.52 1203.69 1410.92 1264.44 1383.03C1352.85 1342.73 1433.95 1299.27 1512.09 1253.55" stroke="#A6DD9B" stroke-miterlimit="10"/>
<path d="M1 1036.31L14.9913 1032.87C63.9609 1019.9 112.931 1006.93 160.501 990.724C320.002 937.769 385.761 1076.1 468.31 1152.83C602.627 1278.2 827.887 1170.12 976.195 1095.55C1238.18 963.479 1383.34 767.382 1512.06 561.051" stroke="#A6DD9B" stroke-miterlimit="10"/>
<path d="M887.98 1459.97C1119.31 1386.18 1321.22 1279.11 1512.06 1157.09" stroke="#A6DD9B" stroke-miterlimit="10"/>
</svg>
