<svg width="178" height="119" viewBox="0 0 178 119" fill="none" xmlns="http://www.w3.org/2000/svg">
<g clip-path="url(#clip0_650_592)">
<path d="M124.408 39.1531H124.086C118.553 39.0175 113.283 35.5861 109.623 29.6551L102.972 18.9709C101.65 16.8443 100.108 15.675 98.6084 15.675C97.1088 15.675 95.5752 16.8443 94.2534 18.9709L87.6023 29.6551C83.9336 35.5861 78.6635 38.9752 73.1393 39.1192H72.5038C66.9711 39.0175 61.701 35.5861 58.0408 29.6551L51.3896 18.9709C50.0679 16.8443 48.4919 15.675 47.0261 15.675C45.5604 15.675 43.9929 16.8443 42.6711 18.9709L36.02 29.6551C32.3937 35.5861 27.0812 39.0175 21.557 39.1446H20.9215C15.3888 39.026 10.1187 35.5861 6.45847 29.6551L-0.192663 18.9709C-1.49747 16.8443 -3.06494 15.675 -4.55615 15.675C-6.04736 15.675 -7.59788 16.8443 -8.91116 18.9709L-19.5276 36.0605C-21.5949 39.3819 -25.6025 40.1444 -28.4748 37.7551C-29.8893 36.4738 -30.8111 34.7381 -31.0803 32.8487C-31.3496 30.9593 -30.9494 29.0352 -29.9491 27.4098L-19.2903 10.3202C-15.5962 4.29608 -10.2075 0.847656 -4.55615 0.847656C1.0952 0.847656 6.45847 4.29608 10.2289 10.3202L16.88 21.0298C18.1763 23.1226 19.7099 24.2918 21.1757 24.3173H21.2943C22.7686 24.3173 24.2937 23.1226 25.5985 21.0298L32.2496 10.3202C35.9861 4.29608 41.3748 0.847656 47.0261 0.847656C52.6775 0.847656 58.0408 4.29608 61.8111 10.3202L68.4623 21.0298C69.7671 23.1226 71.2922 24.2918 72.7665 24.3173H72.8766C74.3509 24.3173 75.876 23.1226 77.1808 21.0298L83.8319 10.3202C87.5684 4.30455 92.9571 0.847656 98.6084 0.847656C104.26 0.847656 109.623 4.29608 113.393 10.3202L120.045 21.0298C121.349 23.1226 122.874 24.2918 124.349 24.3173H124.467C125.933 24.3173 127.467 23.1226 128.763 21.0298L135.414 10.3202C139.151 4.29608 144.539 0.847656 150.165 0.847656C155.791 0.847656 161.18 4.29608 164.942 10.3202L175.584 27.4098C176.583 29.0347 176.984 30.9578 176.716 32.8468C176.449 34.7357 175.53 36.4718 174.118 37.7551C171.237 40.1444 167.229 39.3819 165.162 36.0605L154.554 18.9709C153.232 16.8443 151.69 15.675 150.199 15.675C148.708 15.675 147.157 16.8443 145.836 18.9709L139.151 29.6551C135.49 35.5861 130.22 38.9752 124.688 39.1192L124.408 39.1531Z" fill="#F0BCB7" stroke="#231F20" stroke-width="2" stroke-miterlimit="10"/>
</g>
<g clip-path="url(#clip1_650_592)">
<path d="M76.4081 118.153H76.0861C70.5534 118.018 65.2833 114.586 61.623 108.655L54.9719 97.9709C53.6502 95.8443 52.1081 94.675 50.6084 94.675C49.1088 94.675 47.5752 95.8443 46.2534 97.9709L39.6023 108.655C35.9336 114.586 30.6635 117.975 25.1393 118.119H24.5038C18.9711 118.018 13.701 114.586 10.0408 108.655L3.38963 97.9709C2.06787 95.8443 0.491934 94.675 -0.973857 94.675C-2.43965 94.675 -4.00711 95.8443 -5.32887 97.9709L-11.98 108.655C-15.6063 114.586 -20.9188 118.018 -26.443 118.145H-27.0785C-32.6112 118.026 -37.8813 114.586 -41.5415 108.655L-48.1927 97.9709C-49.4975 95.8443 -51.0649 94.675 -52.5561 94.675C-54.0474 94.675 -55.5979 95.8443 -56.9112 97.9709L-67.5276 115.061C-69.5949 118.382 -73.6025 119.144 -76.4748 116.755C-77.8893 115.474 -78.8111 113.738 -79.0803 111.849C-79.3496 109.959 -78.9494 108.035 -77.9491 106.41L-67.2903 89.3202C-63.5962 83.2961 -58.2075 79.8477 -52.5561 79.8477C-46.9048 79.8477 -41.5415 83.2961 -37.7711 89.3202L-31.12 100.03C-29.8237 102.123 -28.2901 103.292 -26.8243 103.317H-26.7057C-25.2314 103.317 -23.7063 102.123 -22.4015 100.03L-15.7504 89.3202C-12.0139 83.2961 -6.6252 79.8477 -0.973857 79.8477C4.67749 79.8477 10.0408 83.2961 13.8111 89.3202L20.4623 100.03C21.7671 102.123 23.2922 103.292 24.7665 103.317H24.8766C26.3509 103.317 27.876 102.123 29.1808 100.03L35.8319 89.3202C39.5684 83.3046 44.9571 79.8477 50.6084 79.8477C56.2598 79.8477 61.6231 83.2961 65.3934 89.3202L72.0446 100.03C73.3494 102.123 74.8745 103.292 76.3487 103.317H76.4674C77.9332 103.317 79.4667 102.123 80.7631 100.03L87.4142 89.3202C91.1507 83.2961 96.5394 79.8477 102.165 79.8477C107.791 79.8477 113.18 83.2961 116.942 89.3202L127.584 106.41C128.583 108.035 128.984 109.958 128.716 111.847C128.449 113.736 127.53 115.472 126.118 116.755C123.237 119.144 119.229 118.382 117.162 115.061L106.554 97.9709C105.232 95.8443 103.69 94.675 102.199 94.675C100.708 94.675 99.1575 95.8443 97.8357 97.9709L91.1507 108.655C87.4905 114.586 82.2204 117.975 76.6877 118.119L76.4081 118.153Z" fill="#F7A491" stroke="#231F20" stroke-width="2" stroke-miterlimit="10"/>
</g>
<defs>
<clipPath id="clip0_650_592">
<rect width="209.642" height="40" fill="white" transform="translate(-32)"/>
</clipPath>
<clipPath id="clip1_650_592">
<rect width="209.642" height="40" fill="white" transform="translate(-80 79)"/>
</clipPath>
</defs>
</svg>
