<svg width="182" height="121" viewBox="0 0 182 121" fill="none" xmlns="http://www.w3.org/2000/svg">
<path d="M205.406 40.1531H205.084C199.551 40.0175 194.281 36.5861 190.621 30.6551L183.97 19.9709C182.648 17.8443 181.106 16.675 179.606 16.675C178.107 16.675 176.573 17.8443 175.251 19.9709L168.6 30.6551C164.932 36.5861 159.662 39.9752 154.137 40.1192H153.502C147.969 40.0175 142.699 36.5861 139.039 30.6551L132.388 19.9709C131.066 17.8443 129.49 16.675 128.024 16.675C126.558 16.675 124.991 17.8443 123.669 19.9709L117.018 30.6551C113.392 36.5861 108.079 40.0175 102.555 40.1446H101.92C96.3868 40.026 91.1168 36.5861 87.4565 30.6551L80.8054 19.9709C79.5006 17.8443 77.9331 16.675 76.4419 16.675C74.9507 16.675 73.4002 17.8443 72.0869 19.9709L61.4705 37.0605C59.4031 40.3819 55.3955 41.1444 52.5232 38.7551C51.1087 37.4738 50.187 35.7381 49.9177 33.8487C49.6485 31.9593 50.0487 30.0352 51.049 28.4098L61.7077 11.3202C65.4019 5.29608 70.7906 1.84766 76.4419 1.84766C82.0932 1.84766 87.4565 5.29608 91.2269 11.3202L97.878 22.0298C99.1744 24.1226 100.708 25.2918 102.174 25.3173H102.292C103.767 25.3173 105.292 24.1226 106.597 22.0298L113.248 11.3202C116.984 5.29608 122.373 1.84766 128.024 1.84766C133.676 1.84766 139.039 5.29608 142.809 11.3202L149.46 22.0298C150.765 24.1226 152.29 25.2918 153.765 25.3173H153.875C155.349 25.3173 156.874 24.1226 158.179 22.0298L164.83 11.3202C168.566 5.30455 173.955 1.84766 179.606 1.84766C185.258 1.84766 190.621 5.29608 194.391 11.3202L201.043 22.0298C202.347 24.1226 203.873 25.2918 205.347 25.3173H205.465C206.931 25.3173 208.465 24.1226 209.761 22.0298L216.412 11.3202C220.149 5.29608 225.537 1.84766 231.163 1.84766C236.789 1.84766 242.178 5.29608 245.94 11.3202L256.582 28.4098C257.581 30.0347 257.982 31.9578 257.714 33.8468C257.447 35.7357 256.528 37.4718 255.116 38.7551C252.235 41.1444 248.228 40.3819 246.16 37.0605L235.552 19.9709C234.23 17.8443 232.688 16.675 231.197 16.675C229.706 16.675 228.156 17.8443 226.834 19.9709L220.149 30.6551C216.489 36.5861 211.218 39.9752 205.686 40.1192L205.406 40.1531Z" fill="#F0BCB7" stroke="#231F20" stroke-width="2" stroke-miterlimit="10"/>
<path d="M157.406 119.153H157.084C151.551 119.018 146.281 115.586 142.621 109.655L135.97 98.9709C134.648 96.8443 133.106 95.675 131.606 95.675C130.107 95.675 128.573 96.8443 127.251 98.9709L120.6 109.655C116.932 115.586 111.662 118.975 106.137 119.119H105.502C99.9691 119.018 94.699 115.586 91.0388 109.655L84.3877 98.9709C83.0659 96.8443 81.49 95.675 80.0242 95.675C78.5584 95.675 76.9909 96.8443 75.6692 98.9709L69.018 109.655C65.3917 115.586 60.0793 119.018 54.555 119.145H53.9196C48.3868 119.026 43.1168 115.586 39.4565 109.655L32.8054 98.9709C31.5006 96.8443 29.9331 95.675 28.4419 95.675C26.9507 95.675 25.4002 96.8443 24.0869 98.9709L13.4705 116.061C11.4031 119.382 7.39551 120.144 4.52324 117.755C3.10873 116.474 2.18699 114.738 1.91773 112.849C1.64848 110.959 2.04867 109.035 3.04897 107.41L13.7077 90.3202C17.4019 84.2961 22.7906 80.8477 28.4419 80.8477C34.0932 80.8477 39.4565 84.2961 43.2269 90.3202L49.878 101.03C51.1744 103.123 52.7079 104.292 54.1737 104.317H54.2924C55.7666 104.317 57.2917 103.123 58.5965 101.03L65.2477 90.3202C68.9842 84.2961 74.3728 80.8477 80.0242 80.8477C85.6755 80.8477 91.0388 84.2961 94.8092 90.3202L101.46 101.03C102.765 103.123 104.29 104.292 105.765 104.317H105.875C107.349 104.317 108.874 103.123 110.179 101.03L116.83 90.3202C120.566 84.3046 125.955 80.8477 131.606 80.8477C137.258 80.8477 142.621 84.2961 146.391 90.3202L153.043 101.03C154.347 103.123 155.873 104.292 157.347 104.317H157.465C158.931 104.317 160.465 103.123 161.761 101.03L168.412 90.3202C172.149 84.2961 177.537 80.8477 183.163 80.8477C188.789 80.8477 194.178 84.2961 197.94 90.3202L208.582 107.41C209.581 109.035 209.982 110.958 209.714 112.847C209.447 114.736 208.528 116.472 207.116 117.755C204.235 120.144 200.228 119.382 198.16 116.061L187.552 98.9709C186.23 96.8443 184.688 95.675 183.197 95.675C181.706 95.675 180.156 96.8443 178.834 98.9709L172.149 109.655C168.489 115.586 163.218 118.975 157.686 119.119L157.406 119.153Z" fill="#F7A491" stroke="#231F20" stroke-width="2" stroke-miterlimit="10"/>
</svg>
