<svg width="139" height="251" viewBox="0 0 139 251" fill="none" xmlns="http://www.w3.org/2000/svg">
<path d="M148.464 5.41772C132.921 -0.253516 115.977 -1.23373 100.503 4.43751C74.8779 13.8896 52.8231 33.4938 41.7607 58.6293C38.75 65.4208 36.5095 73.1925 38.82 80.264C45.0514 99.6582 80.8291 103.999 68.2264 128.995C64.7957 135.856 57.7241 139.917 50.0224 140.617C23.2066 143.068 1.92203 167.433 0.801784 193.619C-0.178429 215.393 12.8444 237.168 32.4486 246.62C38.0499 249.281 44.2112 251.101 50.3725 250.541C69.4867 248.791 79.779 226.806 97.0027 218.404C125.149 204.751 155.605 231.217 186.342 236.958C213.648 242.069 243.405 228.556 257.548 204.681C271.691 180.806 269.31 148.179 251.736 126.684C248.656 122.973 245.155 119.403 243.615 114.782C240.464 105.469 246.485 95.8074 252.507 88.0357C266.65 69.7617 283.663 47.847 272.951 25.8622C268.47 16.6202 259.928 10.1087 250.196 6.88804C226.741 -0.883649 203.846 6.95806 180.601 8.70844C169.398 9.54862 157.216 8.5684 148.464 5.41772Z" fill="#79CDF2"/>
</svg>
