<svg width="135" height="250" viewBox="0 0 135 250" fill="none" xmlns="http://www.w3.org/2000/svg">
<path d="M84.1937 6.95086C69.1455 13.9244 63.1508 35.4567 72.51 49.2203C75.0181 52.9517 78.6272 57.0502 77.2202 61.2711C76.4862 63.4732 74.5287 65.0025 72.6324 66.3483C48.7755 83.5374 18.8627 94.9153 3.99807 120.301C0.0831032 126.969 -2.7309 135.044 4.48733 142.874C7.9741 146.666 12.8678 148.991 17.945 149.786C30.1181 151.621 41.6185 146.483 53.5469 145.259C53.6693 145.259 53.7304 145.259 53.8528 145.259C67.9834 143.975 75.6297 161.531 65.3529 171.318L55.5044 180.8C44.9217 190.954 34.0332 201.476 30.5464 216.402C29.0783 222.825 29.3842 229.676 32.2592 235.671C42.4137 257.02 71.8983 251.881 87.9252 237.384C102.668 224.048 111.598 205.085 126.83 192.3C131.54 188.324 137.107 184.96 143.224 184.226C153.868 183.002 163.533 189.853 172.281 195.97C190.571 208.694 211.247 220.072 234.247 217.013C245.319 215.545 255.718 210.223 262.386 201.231C280.493 176.64 259.144 145.993 236.816 134.432C229.231 130.517 223.97 122.871 223.114 114.368C221.279 96.1388 240.058 92.7743 251.62 83.721C263.487 74.4841 267.953 56.9279 262.019 43.1031C256.024 29.2784 240.181 20.5309 225.316 22.8554C215.162 24.4459 206.292 30.5018 196.871 34.6003C187.451 38.76 175.706 40.7786 167.326 34.7838C161.943 30.93 159.068 24.507 155.336 19.0628C138.759 -5.09991 105.175 -2.83656 84.1937 6.95086Z" fill="#79CDF2"/>
</svg>
