<svg width="108" height="101" viewBox="0 0 108 101" fill="none" xmlns="http://www.w3.org/2000/svg">
<g clip-path="url(#clip0_388_1525)">
<path fill-rule="evenodd" clip-rule="evenodd" d="M61.9061 49.3977L73.7144 55.9845C73.7144 55.9845 76.8941 99.0286 76.6439 99.3269C76.6178 99.3481 76.5877 99.3638 76.5554 99.3731C76.5231 99.3823 76.4893 99.3849 76.4559 99.3807C76.4226 99.3765 76.3905 99.3656 76.3615 99.3486C76.3325 99.3316 76.3072 99.3089 76.2873 99.2819C74.0087 96.1693 55.758 66.1666 55.7174 65.4839C55.6767 64.8012 58.2393 51.334 59.0395 50.349C59.8397 49.364 61.2657 48.8866 61.9061 49.3977Z" fill="#727172"/>
<path fill-rule="evenodd" clip-rule="evenodd" d="M61.918 49.511L73.7479 56.0721C73.7479 56.0721 76.918 99.1695 76.6763 99.4575C76.6507 99.4781 76.6212 99.4935 76.5896 99.5026C76.5579 99.5117 76.5248 99.5145 76.4921 99.5107C76.4594 99.5069 76.4278 99.4966 76.3991 99.4805C76.3704 99.4644 76.3452 99.4427 76.3249 99.4168C74.0507 96.299 55.8 66.2963 55.7628 65.5991C55.7256 64.9018 58.2591 51.4276 59.079 50.4504C59.8989 49.4732 61.2982 49.0172 61.918 49.511Z" stroke="#1D1D1B" stroke-width="2" stroke-miterlimit="10"/>
<path fill-rule="evenodd" clip-rule="evenodd" d="M61.5607 49.3517L73.3639 55.9342C73.3639 55.9342 76.5264 98.9989 76.289 99.2818C76.0517 99.5646 55.4065 66.1592 55.3712 65.4284C55.3358 64.6977 57.8974 51.2734 58.6976 50.2884C59.4978 49.3034 60.9487 48.8382 61.5607 49.3517Z" fill="#DADBDB"/>
<path fill-rule="evenodd" clip-rule="evenodd" d="M61.5598 49.4661L73.3725 56.0477C73.3725 56.0477 76.5393 99.1073 76.2933 99.4005C76.0473 99.6936 55.4305 66.2857 55.3841 65.5369C55.3376 64.788 57.906 51.3869 58.7105 50.3968C59.5151 49.4067 60.94 48.9723 61.5598 49.4661Z" stroke="#1D1D1B" stroke-width="2" stroke-miterlimit="10"/>
<path fill-rule="evenodd" clip-rule="evenodd" d="M45.6947 46.556C45.4212 46.8709 45.2285 47.2475 45.1331 47.6535C45.1966 47.8481 45.2801 48.0356 45.3822 48.2131C45.3822 48.2131 45.4893 48.5659 46.2646 48.8221C47.04 49.0783 48.5274 48.2143 49.1223 47.7143C49.2929 47.5933 49.422 47.4225 49.4918 47.2253C49.5616 47.0281 49.5686 46.8141 49.512 46.6128L49.1498 45.6866C49.1498 45.6866 47.5688 45.4818 47.016 45.7541C46.5601 45.9951 46.1189 46.2629 45.6947 46.556Z" fill="#5A5958"/>
<path fill-rule="evenodd" clip-rule="evenodd" d="M45.7303 46.6476C45.456 46.9619 45.2631 47.3388 45.1687 47.7451C45.2271 47.9426 45.3093 48.1322 45.4135 48.3098C45.4135 48.3098 45.5206 48.6626 46.296 48.9188C47.0713 49.1751 48.5631 48.3059 49.1795 47.7802C49.3502 47.6592 49.4792 47.4884 49.549 47.2912C49.6188 47.094 49.6258 46.88 49.5692 46.6787L49.2027 45.7576C49.2027 45.7576 47.626 45.5477 47.0733 45.82C46.6094 46.0686 46.1609 46.3449 45.7303 46.6476V46.6476Z" stroke="#1D1D1B" stroke-width="2" stroke-miterlimit="10"/>
<path fill-rule="evenodd" clip-rule="evenodd" d="M60.0729 52.3984C57.9086 52.3352 50.0414 51.6319 48.8148 51.339C47.5883 51.046 46.7977 49.9619 46.2111 48.0499C45.8363 47.0343 48.6458 46.1928 48.7973 46.618C48.8632 47.0067 49.0241 47.3731 49.2659 47.6845C49.5077 47.996 49.8227 48.2428 50.183 48.4029C51.3066 48.8812 59.352 48.5157 60.8924 49.0195C63.355 49.8238 62.2569 52.4694 60.0729 52.3984Z" fill="#C8C8C9"/>
<path fill-rule="evenodd" clip-rule="evenodd" d="M60.1019 52.5101C57.9325 52.4426 50.0866 51.7661 48.8352 51.461C47.5838 51.1559 46.8224 50.0788 46.2358 48.1668C45.861 47.1512 48.6705 46.3097 48.822 46.7349C48.886 47.1205 49.0447 47.4843 49.2839 47.7935C49.523 48.1028 49.8351 48.3479 50.1922 48.5068C51.3158 48.9852 59.3612 48.6196 60.8965 49.1191C63.3642 49.9278 62.2713 52.5776 60.1019 52.5101Z" stroke="#1D1D1B" stroke-width="2" stroke-miterlimit="10"/>
<path fill-rule="evenodd" clip-rule="evenodd" d="M39.9276 37.8684C39.9276 37.8684 45.9447 49.2889 45.3556 48.1109C44.7664 46.933 49.0564 44.9851 49.508 46.4419C49.9595 47.8988 46.1135 35.259 46.1135 35.259L39.9276 37.8684Z" fill="#3E3A39"/>
<path fill-rule="evenodd" clip-rule="evenodd" d="M39.9397 37.9766C39.9397 37.9766 45.9422 49.3936 45.3736 48.2329C44.8051 47.0722 49.0797 45.1114 49.5312 46.5682C49.9827 48.025 46.1359 35.3758 46.1359 35.3758L39.9397 37.9766Z" stroke="#1D1D1B" stroke-width="2" stroke-miterlimit="10"/>
<path fill-rule="evenodd" clip-rule="evenodd" d="M25.3071 9.02974C27.1998 15.4118 39.4391 39.1259 40.7093 39.4818C40.2373 37.7361 45.4416 35.1268 46.5785 36.7381C47.4363 34.9952 36.3162 6.97053 34.305 4.08233C32.7104 1.8153 24.1021 4.95114 25.3071 9.02974Z" fill="#CC712D"/>
<path fill-rule="evenodd" clip-rule="evenodd" d="M25.3231 9.13776C27.2158 15.5198 39.4508 39.2391 40.7252 39.5898C40.2481 37.8398 45.4575 35.2348 46.5944 36.8461C47.423 35.0962 36.3235 7.08884 34.3124 4.20063C32.7264 1.92332 24.1137 5.06431 25.3231 9.13776Z" stroke="#1D1D1B" stroke-width="2" stroke-miterlimit="10"/>
<path fill-rule="evenodd" clip-rule="evenodd" d="M28.3916 4.35195C32.7471 12.7393 41.6119 29.8006 42.6127 32.253C43.9298 35.4879 43.5573 36.3496 43.5573 36.3496L43.6596 36.5933C44.8689 36.1443 46.0915 36.066 46.5757 36.7527C47.4335 35.0098 36.3133 6.98515 34.3022 4.09694C33.463 2.89323 30.6683 3.19492 28.3916 4.35195Z" fill="#BF6829"/>
<path fill-rule="evenodd" clip-rule="evenodd" d="M28.4233 4.47279C32.7788 12.8601 41.6281 29.9085 42.6246 32.366C43.946 35.5958 43.5735 36.4575 43.5735 36.4575L43.6715 36.7063C44.9108 36.2738 46.1077 36.1739 46.5919 36.8606C47.424 35.0961 36.3244 7.08872 34.3133 4.20051C33.4741 2.9968 30.6932 3.29252 28.4233 4.47279Z" stroke="#1D1D1B" stroke-width="2" stroke-miterlimit="10"/>
<path fill-rule="evenodd" clip-rule="evenodd" d="M46.56 36.7632C46.0758 36.0764 44.8532 36.1548 43.644 36.6037L47.3759 45.5983L47.5857 46.0899C48.3618 45.8647 49.1502 45.8339 49.4323 46.281C49.4614 46.3302 49.4852 46.3825 49.5032 46.4368C49.5089 46.4769 49.5203 46.5161 49.5371 46.553C49.5824 46.6348 47.5141 39.8249 46.56 36.7632Z" fill="#363434"/>
<path fill-rule="evenodd" clip-rule="evenodd" d="M46.5851 36.8569C46.1009 36.1701 44.8783 36.2485 43.6647 36.7025L47.4086 45.7247L47.6089 46.2171C48.4118 45.9705 49.1829 45.9603 49.4599 46.403C49.4893 46.4556 49.5133 46.511 49.5315 46.5683C49.5403 46.6066 49.5531 46.6438 49.5699 46.6793L46.5851 36.8569Z" stroke="#1D1D1B" stroke-width="2" stroke-miterlimit="10"/>
<path fill-rule="evenodd" clip-rule="evenodd" d="M49.4316 46.2812C49.1495 45.8341 48.3784 45.8444 47.585 46.0901L47.5228 46.6865C48.1235 46.4719 48.7142 46.4154 48.7884 46.6091C48.8822 46.9575 49.0188 47.2928 49.195 47.6076C49.3509 47.4862 49.4668 47.3209 49.5277 47.1329C49.5886 46.9449 49.5916 46.7429 49.5364 46.5532L49.4316 46.2812Z" fill="#4F4849"/>
<path fill-rule="evenodd" clip-rule="evenodd" d="M49.4594 46.403C49.1823 45.9602 48.4113 45.9705 47.6084 46.2171L47.5514 46.8177C48.1564 46.598 48.7471 46.5416 48.8213 46.7352C48.905 47.0908 49.036 47.4335 49.2106 47.7543C49.3659 47.6324 49.4812 47.4669 49.542 47.2791C49.6028 47.0913 49.6063 46.8897 49.552 46.6999L49.4594 46.403Z" stroke="#1D1D1B" stroke-width="2" stroke-miterlimit="10"/>
<path fill-rule="evenodd" clip-rule="evenodd" d="M50.1927 48.4118C49.7978 48.2464 49.4624 47.965 49.2309 47.6048C49.0547 47.29 48.9181 46.9547 48.8243 46.6063C48.7501 46.4127 48.1594 46.4691 47.5587 46.6837C47.8216 47.1993 48.1325 47.6891 48.4872 48.1464C48.6438 48.3567 48.827 48.598 49.0358 48.8609C49.9054 49.9762 55.6385 50.0893 59.1474 49.8348L59.6066 49.7994C60.3188 49.7748 61.0259 49.6681 61.7137 49.4816C61.5896 49.3794 61.4541 49.2921 61.3097 49.2215C61.1754 49.1474 61.0327 49.0895 60.8848 49.049C59.3616 48.5246 51.3162 48.8901 50.1927 48.4118Z" fill="#B5B6B6"/>
<path fill-rule="evenodd" clip-rule="evenodd" d="M50.1926 48.5068C49.7977 48.3414 49.4624 48.06 49.2309 47.6998C49.0519 47.3864 48.9152 47.0506 48.8242 46.7013C48.7501 46.5077 48.1594 46.5641 47.5543 46.7838C47.8216 47.2963 48.1338 47.7841 48.4872 48.2415C48.6438 48.4517 48.8218 48.6887 49.0315 48.9611C49.8745 50.0453 55.6342 50.1895 59.1474 49.9298C59.3056 49.9223 59.4569 49.9091 59.6014 49.8901C60.3286 49.858 61.0493 49.739 61.7482 49.5354C61.6241 49.4333 61.4885 49.346 61.3442 49.2753C61.2051 49.2065 61.0614 49.1475 60.9141 49.0985C59.377 48.6326 51.3316 48.9981 50.1926 48.5068Z" stroke="#1D1D1B" stroke-width="2" stroke-miterlimit="10"/>
<path fill-rule="evenodd" clip-rule="evenodd" d="M56.7788 65.4962C57.0257 66.9567 74.5383 96.0947 74.7487 95.3948C74.9591 94.695 62.2468 52.5563 61.4459 52.9885C58.9605 54.3211 56.4276 63.3349 56.7788 65.4962Z" fill="#EDEDEE"/>
</g>
<defs>
<clipPath id="clip0_388_1525">
<rect width="47.3313" height="100" fill="white" transform="translate(0 36.2578) rotate(-50)"/>
</clipPath>
</defs>
</svg>
