<svg width="129" height="128" viewBox="0 0 129 128" fill="none" xmlns="http://www.w3.org/2000/svg">
<g clip-path="url(#clip0_360_4577)" filter="url(#filter0_d_360_4577)">
<path d="M63.9968 119.357C96.7805 119.357 123.357 92.7805 123.357 59.9968C123.357 27.2131 96.7805 0.636719 63.9968 0.636719C31.2131 0.636719 4.63672 27.2131 4.63672 59.9968C4.63672 92.7805 31.2131 119.357 63.9968 119.357Z" fill="white" stroke="#231F20" stroke-width="2" stroke-miterlimit="10"/>
<path d="M77.0554 25.1947C94.0363 32.4659 104.319 51.9809 102.555 70.1016C102.555 70.4199 102.492 70.7383 102.454 71.0694C101.384 79.6394 97.0416 87.6938 89.4011 92.0807C85.0715 94.5511 80.1561 95.8627 75.228 96.6395C67.9377 97.7919 60.3928 97.8238 53.2362 96.0028C46.0796 94.1818 39.2987 90.4953 34.4279 84.9496C22.9672 71.878 21.9102 49.988 33.0972 36.4899C35.8882 33.1509 39.2623 30.3463 43.0552 28.2127C53.2043 22.4696 66.1549 20.5213 77.0554 25.1947Z" fill="#EFDC70" stroke="#231F20" stroke-width="2" stroke-miterlimit="10"/>
<path d="M79.1114 56.9275C76.3353 61.8684 73.9795 63.7212 71.8848 62.5433C69.6436 61.2699 71.1717 56.5392 73.4511 52.477C75.202 49.3635 78.4237 46.8676 80.1365 47.829C82.4796 49.147 81.3908 52.8781 79.1114 56.9275Z" fill="#231F20"/>
<path d="M61.9653 47.32C59.2211 52.2417 56.8716 54.1136 54.7641 52.9357C52.5229 51.6623 54.0574 46.9316 56.3304 42.8694C58.0814 39.7559 61.3286 37.2664 63.0158 38.2342C65.3589 39.5394 64.2702 43.2578 61.9653 47.32Z" fill="#231F20"/>
<path d="M67.2379 76.6465C65.2323 77.8053 62.781 77.9836 60.4952 77.7098C56.305 77.1915 52.4047 75.2996 49.4038 72.3297C47.6839 70.6292 46.3184 68.6045 45.3861 66.3728C44.4539 64.1411 43.9735 61.7467 43.9727 59.3281" stroke="#231F20" stroke-width="2" stroke-miterlimit="10" stroke-linecap="round"/>
<path d="M27.2956 32.3061L21.96 27.622L23.042 26.3895L27.2954 30.1236L29.5649 27.5385L30.6471 28.4885L27.2956 32.3061Z" fill="black"/>
<path d="M32.5237 27.0689C32.1891 27.3648 31.8409 27.5749 31.4791 27.6992C31.1223 27.8191 30.7701 27.8637 30.4225 27.833C30.0749 27.8023 29.7454 27.7065 29.4341 27.5458C29.1277 27.3807 28.8553 27.1633 28.6168 26.8937C28.3738 26.619 28.189 26.3196 28.0624 25.9955C27.9409 25.6669 27.886 25.3282 27.8979 24.9794C27.9098 24.6307 27.9969 24.2865 28.1594 23.947C28.3268 23.603 28.5778 23.283 28.9124 22.987C29.2469 22.6911 29.5926 22.4832 29.9494 22.3633C30.3062 22.2434 30.6584 22.1989 31.0061 22.2296C31.3537 22.2603 31.6831 22.356 31.9945 22.5167C32.3058 22.6774 32.5829 22.8951 32.8259 23.1697C33.0644 23.4394 33.2445 23.7385 33.3661 24.0671C33.4877 24.3956 33.5425 24.7343 33.5306 25.0831C33.5188 25.4318 33.4316 25.776 33.2691 26.1156C33.1067 26.4551 32.8582 26.7729 32.5237 27.0689ZM29.845 25.807C30.0262 26.0117 30.2226 26.1583 30.4345 26.2468C30.6513 26.3309 30.8622 26.358 31.0671 26.328C31.272 26.298 31.4594 26.208 31.6291 26.0578C31.7939 25.912 31.9036 25.7392 31.9584 25.5395C32.0137 25.3303 32.0103 25.1153 31.9482 24.8942C31.8862 24.6732 31.7668 24.4628 31.5901 24.2631C31.409 24.0583 31.2125 23.9117 31.0007 23.8232C30.7888 23.7347 30.578 23.7076 30.3681 23.742C30.1631 23.772 29.9783 23.8598 29.8135 24.0056C29.6438 24.1558 29.5315 24.3308 29.4768 24.5305C29.4221 24.7303 29.4233 24.9429 29.4803 25.1683C29.5424 25.3894 29.6639 25.6022 29.845 25.807Z" fill="black"/>
<path d="M35.1159 20.0828C34.8015 20.3079 34.5537 20.5631 34.3727 20.8485C34.1878 21.1285 34.1083 21.4068 34.1341 21.6834L35.9678 24.2447L34.6669 25.1761L31.6107 20.9073L32.806 20.0516L33.423 20.9135C33.3637 20.5214 33.3924 20.1606 33.509 19.8311C33.6257 19.5016 33.8095 19.2429 34.0604 19.0551C34.12 19.0124 34.1634 18.9814 34.1905 18.962C34.223 18.9387 34.252 18.922 34.2776 18.9119L35.1159 20.0828Z" fill="black"/>
<path d="M39.7112 21.994C39.3243 22.2172 38.9457 22.3547 38.5755 22.4067C38.2019 22.4529 37.8467 22.4308 37.5097 22.3404C37.1786 22.2466 36.8782 22.0928 36.6086 21.8789C36.3356 21.6593 36.1109 21.3964 35.9343 21.0904C35.6811 20.6515 35.5466 20.1981 35.5306 19.7301C35.517 19.253 35.6289 18.7998 35.8661 18.3705C36.1 17.9354 36.4739 17.5697 36.9878 17.2732C37.5018 16.9767 38.0011 16.8349 38.4857 16.8478C38.9761 16.8573 39.4198 16.9862 39.8169 17.2343C40.2107 17.4766 40.5275 17.8056 40.7674 18.2214C40.814 18.3023 40.8549 18.3864 40.89 18.4739C40.9275 18.5523 40.96 18.6221 40.9876 18.6832L37.6267 20.622C37.7606 20.8141 37.9138 20.9528 38.0861 21.0381C38.2642 21.1201 38.45 21.1553 38.6435 21.1437C38.8336 21.1264 39.0124 21.0695 39.1798 20.9728C39.3877 20.8529 39.5529 20.6922 39.6753 20.4908C39.8034 20.286 39.8538 20.0799 39.8265 19.8725L41.1944 19.522C41.2155 19.8254 41.1725 20.1311 41.0655 20.4392C40.9609 20.7381 40.7942 21.0229 40.5654 21.2934C40.3424 21.5606 40.0577 21.7941 39.7112 21.994ZM37.1024 19.7931L39.0773 18.6538C38.9443 18.4766 38.7945 18.3436 38.6279 18.255C38.458 18.1606 38.2792 18.1175 38.0915 18.1257C37.9005 18.1282 37.7184 18.1794 37.5452 18.2793C37.3662 18.3826 37.2278 18.5163 37.1301 18.6804C37.0348 18.8354 36.9855 19.0101 36.9821 19.2044C36.9755 19.393 37.0155 19.5892 37.1024 19.7931Z" fill="black"/>
<path d="M49.694 17.3254L48.2167 17.94L47.0835 15.2163C46.9529 14.9024 46.7984 14.6959 46.62 14.5968C46.4416 14.4978 46.2601 14.4867 46.0754 14.5635C45.8785 14.6454 45.7179 14.8061 45.5936 15.0455C45.4694 15.285 45.4198 15.5475 45.4448 15.8332L46.601 18.6122L45.1238 19.2268L43.9906 16.5032C43.8574 16.1831 43.7029 15.9766 43.527 15.8837C43.3486 15.7846 43.1671 15.7735 42.9824 15.8503C42.7916 15.9297 42.6341 16.0891 42.5099 16.3286C42.3857 16.568 42.333 16.8318 42.3518 17.12L43.508 19.8991L42.0308 20.5137L40.0141 15.6665L41.3436 15.1133L41.6816 15.9258C41.7398 15.5623 41.8876 15.2408 42.1252 14.9614C42.3664 14.6733 42.6901 14.4448 43.0963 14.2758C43.4964 14.1093 43.8439 14.0767 44.1387 14.1779C44.431 14.2729 44.6604 14.4338 44.8269 14.6605C44.8861 14.2821 45.0332 13.9501 45.2682 13.6646C45.5068 13.3704 45.8169 13.1439 46.1986 12.9851C46.5063 12.857 46.7799 12.8118 47.0194 12.8494C47.2563 12.8808 47.4624 12.9683 47.6377 13.112C47.813 13.2557 47.964 13.4275 48.0905 13.6276C48.2145 13.8215 48.3188 14.02 48.4033 14.2232L49.694 17.3254Z" fill="black"/>
<path d="M51.7967 16.9206L50.4902 11.8358L52.0398 11.4376L53.3463 16.5224L51.7967 16.9206ZM50.3409 11.2546L49.98 9.85025L51.5297 9.45208L51.8905 10.8565L50.3409 11.2546Z" fill="black"/>
<path d="M57.4044 15.7993C57.0167 15.8659 56.6642 15.8419 56.3469 15.7273C56.0285 15.6061 55.7623 15.415 55.5484 15.1541L56.0527 18.0912L54.4758 18.3619L53.2268 11.0884L54.5968 10.8532L54.7406 11.6909C54.8804 11.3625 55.0807 11.0914 55.3416 10.8774C55.6025 10.6635 55.9268 10.5233 56.3145 10.4567C56.6627 10.3969 56.9932 10.4112 57.306 10.4995C57.6254 10.5868 57.9143 10.7333 58.1729 10.9392C58.4315 11.145 58.6475 11.3988 58.8211 11.7005C58.9947 12.0021 59.1136 12.3402 59.1779 12.7147C59.2659 13.2272 59.2496 13.7035 59.129 14.1436C59.0084 14.5837 58.7976 14.9513 58.4966 15.2465C58.2021 15.5406 57.838 15.7249 57.4044 15.7993ZM56.6437 14.5602C56.8145 14.5309 56.9627 14.4682 57.0883 14.3723C57.2193 14.2686 57.3266 14.1453 57.4103 14.0024C57.494 13.8595 57.548 13.7014 57.5724 13.5281C57.6022 13.3472 57.6013 13.1647 57.5697 12.9807C57.537 12.7902 57.4742 12.6217 57.3815 12.4753C57.2952 12.3277 57.1861 12.2044 57.0541 12.1053C56.921 11.9997 56.7732 11.927 56.6108 11.8872C56.4484 11.8475 56.2785 11.8428 56.1011 11.8733C55.996 11.8913 55.8904 11.9264 55.7843 11.9784C55.6848 12.0293 55.5915 12.0961 55.5042 12.1787C55.4224 12.2536 55.3494 12.3406 55.2852 12.4395C55.221 12.5385 55.1722 12.6483 55.1388 12.7691L55.3216 13.8335C55.4243 13.9985 55.5467 14.1398 55.6887 14.2575C55.8306 14.3751 55.9845 14.4637 56.1503 14.5232C56.315 14.5761 56.4794 14.5884 56.6437 14.5602Z" fill="black"/>
<path d="M61.6994 15.3951C61.2537 15.4251 60.8131 15.3811 60.3776 15.2634C59.9421 15.1456 59.5684 14.9535 59.2565 14.6872L59.7376 13.6426C60.0725 13.854 60.3937 14.0095 60.701 14.1091C61.0151 14.2083 61.3051 14.249 61.5712 14.2311C61.7774 14.2173 61.9348 14.1733 62.0434 14.0992C62.152 14.0251 62.2016 13.9182 62.1922 13.7785C62.1855 13.6787 62.1472 13.6045 62.0771 13.5557C62.0065 13.5003 61.8999 13.454 61.757 13.4168C61.6209 13.3792 61.4512 13.3405 61.2481 13.3007C60.8401 13.1944 60.4988 13.087 60.2242 12.9785C59.9497 12.87 59.7399 12.7304 59.5948 12.5597C59.4493 12.3824 59.3667 12.1474 59.347 11.8547C59.3234 11.5022 59.3893 11.1904 59.5448 10.9194C59.7066 10.6413 59.9455 10.4181 60.2616 10.2499C60.5777 10.0817 60.9619 9.98238 61.4142 9.95202C61.7734 9.92791 62.1264 9.96101 62.4733 10.0513C62.8267 10.1412 63.1621 10.3091 63.4793 10.5551L62.9276 11.5944C62.6145 11.4082 62.3383 11.2764 62.0993 11.1989C61.8602 11.1214 61.6309 11.0901 61.4114 11.1048C61.2984 11.1124 61.1961 11.1326 61.1048 11.1655C61.0135 11.1983 60.9401 11.25 60.8847 11.3206C60.8355 11.384 60.8143 11.4656 60.821 11.5654C60.8276 11.6651 60.8596 11.7432 60.9168 11.7995C60.9807 11.8553 61.0741 11.9025 61.197 11.941C61.326 11.9725 61.4857 12.0119 61.6759 12.0592C62.1168 12.1566 62.4847 12.2622 62.7796 12.376C63.0741 12.4832 63.2977 12.6286 63.4503 12.8121C63.6092 12.9885 63.6991 13.233 63.7201 13.5457C63.7558 14.0778 63.591 14.5098 63.2258 14.8417C62.8667 15.1664 62.3579 15.3509 61.6994 15.3951Z" fill="black"/>
<path d="M64.0444 13.2704L64.1868 9.91341L65.7854 9.98125L65.6578 12.9885C65.6442 13.3083 65.697 13.5574 65.8162 13.7359C65.9357 13.9078 66.112 13.9987 66.3451 14.0086C66.4917 14.0148 66.6325 13.9974 66.7677 13.9565C66.9032 13.9088 67.0366 13.8311 67.168 13.7232C67.2993 13.6154 67.4188 13.4736 67.5263 13.298L67.6637 10.061L69.2623 10.1288L69.1151 13.5957C69.1084 13.7555 69.1269 13.8698 69.1707 13.9383C69.2214 14.0005 69.3098 14.041 69.4358 14.0597L69.3794 15.3885C69.2317 15.4089 69.101 15.4234 68.9872 15.4319C68.88 15.4407 68.7832 15.4433 68.6966 15.4396C68.4168 15.4277 68.1961 15.3616 68.0344 15.2413C67.873 15.1144 67.7768 14.9435 67.7459 14.7286L67.7295 14.4077C67.475 14.7438 67.1644 14.9876 66.7976 15.1388C66.4378 15.2837 66.0381 15.3468 65.5985 15.3281C65.0657 15.3055 64.6666 15.1184 64.4012 14.7669C64.1359 14.4153 64.017 13.9165 64.0444 13.2704Z" fill="black"/>
<path d="M77.497 17.0377L75.9307 16.7108L76.5335 13.8231C76.603 13.4902 76.5921 13.2326 76.5008 13.0501C76.4095 12.8675 76.2659 12.7559 76.0701 12.715C75.8613 12.6714 75.638 12.7133 75.4003 12.8408C75.1626 12.9682 74.9734 13.1569 74.8327 13.4068L74.2177 16.3532L72.6514 16.0263L73.2542 13.1386C73.325 12.7992 73.3141 12.5415 73.2214 12.3656C73.1301 12.1831 72.9866 12.0714 72.7908 12.0305C72.5885 11.9883 72.3685 12.0309 72.1308 12.1583C71.893 12.2858 71.7006 12.4738 71.5534 12.7223L70.9383 15.6688L69.3721 15.3418L70.4448 10.2026L71.8544 10.4968L71.6746 11.3583C71.9279 11.091 72.2314 10.9092 72.5853 10.8128C72.947 10.7113 73.3432 10.7054 73.7739 10.7953C74.1981 10.8839 74.5033 11.0531 74.6895 11.3031C74.877 11.5466 74.9755 11.8089 74.9849 12.0901C75.2475 11.8112 75.5563 11.6202 75.9115 11.5173C76.2746 11.4092 76.6584 11.3974 77.063 11.4819C77.3893 11.55 77.6407 11.6671 77.8171 11.8334C77.9949 11.993 78.1156 12.1817 78.1791 12.3993C78.2427 12.6168 78.2702 12.8439 78.2617 13.0805C78.2545 13.3106 78.2285 13.5333 78.1835 13.7486L77.497 17.0377Z" fill="black"/>
<path d="M80.0586 15.3982C80.2765 14.9334 80.5624 14.5594 80.9161 14.2761C81.2726 13.9868 81.6588 13.807 82.0745 13.7369C82.4903 13.6667 82.9034 13.7279 83.3139 13.9204C83.6459 14.076 83.9095 14.299 84.1047 14.5893C84.3027 14.8736 84.4103 15.1781 84.4274 15.5027L85.6628 12.868L87.1115 13.5472L84.7681 18.5451C84.7002 18.69 84.6762 18.8039 84.6962 18.8869C84.719 18.9639 84.782 19.0339 84.8849 19.0969L84.3203 20.3011C84.0442 20.2305 83.8276 20.1584 83.6707 20.0849C83.4232 19.9688 83.2465 19.8197 83.1405 19.6375C83.0405 19.4581 83.0177 19.2633 83.072 19.0531L83.1595 18.796C82.8518 19.0125 82.5191 19.1253 82.1615 19.1343C81.8038 19.1433 81.465 19.0728 81.1451 18.9228C80.8192 18.77 80.5457 18.5681 80.3246 18.3172C80.1124 18.0631 79.9561 17.7763 79.8555 17.4567C79.7611 17.14 79.7303 16.8052 79.7631 16.4525C79.796 16.0997 79.8945 15.7483 80.0586 15.3982ZM83.4134 17.6891L83.8804 16.6931C83.8964 16.5018 83.8754 16.3189 83.8173 16.1444C83.7653 15.9728 83.6838 15.8168 83.5729 15.6764C83.468 15.5389 83.3432 15.4361 83.1983 15.3682C83.0414 15.2946 82.8809 15.2599 82.717 15.2641C82.5591 15.271 82.4036 15.3122 82.2504 15.3877C82.1 15.4571 81.9623 15.5545 81.8372 15.6799C81.7182 15.8082 81.6191 15.9568 81.5398 16.1258C81.4577 16.3009 81.4085 16.4766 81.3921 16.653C81.3845 16.8261 81.4052 16.9941 81.454 17.1569C81.5057 17.3137 81.5868 17.4548 81.6973 17.5802C81.8078 17.7057 81.9446 17.8066 82.1076 17.883C82.2102 17.9312 82.3168 17.9628 82.4276 17.9779C82.5411 17.9869 82.6529 17.9841 82.7629 17.9694C82.8789 17.9575 82.9929 17.9263 83.105 17.8758C83.217 17.8252 83.3198 17.763 83.4134 17.6891Z" fill="black"/>
<path d="M86.4239 21.7906C86.0448 21.5543 85.7442 21.2804 85.522 20.969C85.3054 20.6612 85.1623 20.3363 85.0927 19.9943C85.0231 19.6523 85.021 19.3093 85.0863 18.965C85.1574 18.6244 85.2881 18.3013 85.4786 17.9958C85.6726 17.6847 85.9069 17.4222 86.1816 17.2085C86.4619 16.9984 86.7709 16.8493 87.1086 16.7613C87.4463 16.6733 87.801 16.6588 88.1728 16.7178C88.5502 16.7803 88.9284 16.9297 89.3075 17.166C89.6865 17.4023 89.9843 17.6744 90.2009 17.9823C90.4174 18.2902 90.5605 18.6151 90.6301 18.9571C90.6997 19.299 90.7019 19.6421 90.6365 19.9863C90.5712 20.3305 90.4415 20.6582 90.2475 20.9693C90.057 21.2748 89.8216 21.5327 89.5413 21.7428C89.2609 21.953 88.9519 22.1021 88.6142 22.1901C88.2766 22.2781 87.9218 22.2926 87.5501 22.2336C87.1783 22.1746 86.8029 22.027 86.4239 21.7906ZM86.8702 18.8635C86.7256 19.0955 86.641 19.3256 86.6165 19.5538C86.5977 19.7857 86.6318 19.9955 86.719 20.1834C86.8061 20.3713 86.9458 20.5252 87.1382 20.6451C87.3248 20.7615 87.5217 20.8175 87.7288 20.813C87.945 20.8064 88.1502 20.7419 88.3444 20.6194C88.5386 20.497 88.7063 20.3226 88.8474 20.0963C88.992 19.8644 89.0765 19.6343 89.101 19.406C89.1255 19.1777 89.0914 18.9679 88.9986 18.7765C88.9115 18.5886 88.7746 18.4364 88.5879 18.32C88.3956 18.2001 88.1959 18.1424 87.9888 18.1468C87.7818 18.1513 87.5783 18.213 87.3784 18.3319C87.1842 18.4544 87.0148 18.6316 86.8702 18.8635Z" fill="black"/>
<path d="M93.2594 17.537L94.5326 18.5059L91.2444 22.827C91.1112 23.0021 91.0481 23.151 91.0553 23.2737C91.0624 23.3964 91.1243 23.5022 91.2411 23.591C91.3206 23.6516 91.4083 23.7015 91.504 23.7409C91.6091 23.7789 91.7056 23.8063 91.7935 23.8229L91.2339 24.905C91.0182 24.8582 90.7908 24.7772 90.5516 24.6622C90.3124 24.5472 90.1026 24.4211 89.9222 24.2838C89.5614 24.0093 89.3529 23.6998 89.2967 23.3554C89.2497 23.0098 89.3615 22.6592 89.632 22.3038L93.2594 17.537Z" fill="black"/>
<path d="M92.9924 26.894C92.6614 26.594 92.4143 26.271 92.251 25.9251C92.0927 25.5836 92.0096 25.2384 92.002 24.8895C91.9943 24.5406 92.0532 24.2026 92.1787 23.8755C92.3092 23.5529 92.4953 23.2582 92.7371 22.9915C92.9834 22.7198 93.2606 22.5033 93.5689 22.3418C93.8822 22.1849 94.2128 22.0931 94.5607 22.0666C94.9087 22.0401 95.2603 22.0889 95.6157 22.213C95.976 22.3417 96.3216 22.556 96.6525 22.8559C96.9835 23.1559 97.2281 23.4767 97.3865 23.8181C97.5448 24.1596 97.6279 24.5048 97.6355 24.8537C97.6432 25.2026 97.5843 25.5406 97.4588 25.8677C97.3332 26.1948 97.1473 26.4942 96.9011 26.7658C96.6593 27.0326 96.3818 27.2444 96.0686 27.4014C95.7553 27.5583 95.4247 27.6501 95.0768 27.6766C94.7288 27.7031 94.3772 27.6543 94.0218 27.5302C93.6665 27.406 93.3233 27.1939 92.9924 26.894ZM93.9522 24.0929C93.7686 24.2954 93.6445 24.5068 93.5798 24.7271C93.52 24.9519 93.5163 25.1644 93.5686 25.3648C93.6209 25.5652 93.7311 25.7415 93.899 25.8937C94.062 26.0415 94.2458 26.1316 94.4503 26.164C94.6643 26.196 94.8777 26.169 95.0906 26.083C95.3035 25.9971 95.4995 25.8553 95.6786 25.6577C95.8621 25.4552 95.9863 25.2438 96.051 25.0235C96.1157 24.8032 96.1194 24.5907 96.0621 24.3858C96.0098 24.1854 95.9022 24.0113 95.7392 23.8636C95.5712 23.7114 95.385 23.619 95.1804 23.5866C94.9759 23.5542 94.7647 23.5787 94.5469 23.6602C94.334 23.7461 94.1358 23.8904 93.9522 24.0929Z" fill="black"/>
<path d="M100.25 28.6501C99.9869 28.3672 99.702 28.1543 99.3958 28.0113C99.0944 27.8639 98.8082 27.8207 98.5371 27.8818L96.2322 30.0289L95.1417 28.8581L98.9832 25.2797L99.9851 26.3553L99.2095 27.0778C99.5908 26.9687 99.9522 26.9509 100.294 27.0243C100.636 27.0978 100.916 27.2468 101.134 27.4716C101.184 27.5252 101.221 27.5643 101.243 27.5886C101.271 27.6179 101.291 27.6446 101.304 27.6686L100.25 28.6501Z" fill="black"/>
<path d="M99.9313 34.7072C99.6683 34.3461 99.4705 33.95 99.3378 33.5188C99.2051 33.0876 99.1683 32.669 99.2273 32.2631L100.368 32.113C100.367 32.5091 100.407 32.8637 100.487 33.1768C100.57 33.4953 100.691 33.7624 100.848 33.9779C100.969 34.145 101.09 34.2547 101.211 34.307C101.332 34.3594 101.448 34.3444 101.562 34.2619C101.642 34.203 101.685 34.131 101.689 34.0457C101.698 33.9565 101.68 33.8415 101.635 33.7009C101.595 33.5657 101.537 33.4015 101.462 33.2084C101.335 32.8066 101.243 32.4606 101.189 32.1705C101.134 31.8804 101.14 31.6284 101.207 31.4147C101.28 31.197 101.435 31.0018 101.672 30.8291C101.957 30.6211 102.256 30.5106 102.568 30.4976C102.89 30.4861 103.206 30.5692 103.517 30.7469C103.828 30.9246 104.117 31.1967 104.384 31.5631C104.596 31.8541 104.756 32.1703 104.864 32.5119C104.977 32.8588 105.014 33.2321 104.975 33.6315L103.801 33.7192C103.792 33.355 103.756 33.0511 103.694 32.8076C103.632 32.564 103.536 32.3533 103.407 32.1755C103.34 32.0839 103.269 32.0082 103.192 31.9485C103.116 31.8887 103.033 31.8542 102.944 31.845C102.864 31.8372 102.783 31.8628 102.702 31.9216C102.622 31.9805 102.573 32.0492 102.556 32.1276C102.542 32.2114 102.552 32.3156 102.585 32.44C102.627 32.566 102.679 32.7221 102.741 32.9083C102.893 33.3331 103 33.7006 103.061 34.0109C103.128 34.3171 103.124 34.5838 103.05 34.8108C102.986 35.0392 102.827 35.2457 102.573 35.4302C102.142 35.7442 101.689 35.8352 101.213 35.7032C100.747 35.5727 100.32 35.2407 99.9313 34.7072Z" fill="black"/>
<path d="M101.39 36.6788L105.806 33.8398L106.671 35.1857L102.255 38.0247L101.39 36.6788ZM106.31 33.5154L107.53 32.7313L108.395 34.0772L107.176 34.8613L106.31 33.5154Z" fill="black"/>
<path d="M104.614 41.5905C104.49 41.4922 104.357 41.3793 104.217 41.2519C104.079 41.1303 103.949 40.9935 103.825 40.8414C103.695 40.6926 103.584 40.5369 103.493 40.3742C103.362 40.1419 103.278 39.9057 103.243 39.6656C103.216 39.4282 103.26 39.2006 103.375 38.983C103.493 38.7712 103.7 38.5819 103.996 38.4151L106.383 37.0704L106.055 36.4867L107.109 35.8929L107.438 36.4767L108.893 35.6571L109.678 37.0512L108.223 37.8707L108.748 38.803L107.694 39.3968L107.169 38.4645L105.26 39.5393C105.109 39.6243 105.02 39.7242 104.993 39.839C104.972 39.9505 104.994 40.0643 105.059 40.1805C105.115 40.2793 105.191 40.374 105.288 40.4647C105.388 40.5613 105.482 40.6388 105.568 40.6972L104.614 41.5905Z" fill="black"/>
<path d="M106.745 42.9399C107.065 42.8056 107.382 42.7772 107.696 42.8548C108.011 42.9323 108.302 43.0994 108.569 43.356C108.842 43.6101 109.063 43.9399 109.234 44.3456C109.316 44.5423 109.379 44.7436 109.423 44.9497C109.472 45.1531 109.495 45.3384 109.493 45.5056L109.705 45.4165C109.97 45.3055 110.139 45.1403 110.213 44.9212C110.287 44.702 110.256 44.4295 110.119 44.1037C110.006 43.8333 109.852 43.5976 109.659 43.3966C109.469 43.2018 109.232 43.0084 108.949 42.8164L109.704 41.9788C110.047 42.2106 110.343 42.4767 110.592 42.7769C110.844 43.0834 111.051 43.4302 111.214 43.8174C111.518 44.5427 111.58 45.1786 111.397 45.7253C111.223 46.2756 110.808 46.6889 110.15 46.9652L108.887 47.4959C108.739 47.5578 108.644 47.6233 108.601 47.6921C108.566 47.7645 108.567 47.8617 108.604 47.9836L107.378 48.4988C107.301 48.3862 107.234 48.2772 107.175 48.1717C107.119 48.0724 107.074 47.9828 107.04 47.9029C106.924 47.6263 106.891 47.391 106.939 47.197C106.99 47.0092 107.104 46.8568 107.279 46.7399L107.479 46.6231C107.112 46.5242 106.792 46.3552 106.517 46.116C106.252 45.8804 106.051 45.5997 105.914 45.2739C105.78 44.9543 105.726 44.637 105.753 44.3221C105.782 44.0133 105.883 43.7361 106.054 43.4904C106.226 43.2448 106.456 43.0613 106.745 42.9399ZM107.792 45.9491C107.876 45.9935 107.961 46.023 108.046 46.0376C108.132 46.0522 108.206 46.0466 108.267 46.0208L108.701 45.8387C108.698 45.6951 108.677 45.5414 108.637 45.3774C108.606 45.217 108.563 45.0722 108.509 44.9431C108.395 44.6727 108.239 44.4742 108.041 44.3476C107.85 44.2184 107.656 44.1952 107.459 44.2778C107.348 44.3243 107.26 44.3976 107.193 44.4978C107.127 44.598 107.088 44.712 107.077 44.8397C107.068 44.9736 107.095 45.1143 107.156 45.2618C107.218 45.4093 107.308 45.5452 107.425 45.6694C107.543 45.7937 107.665 45.8869 107.792 45.9491Z" fill="black"/>
<path d="M109.727 56.5128L109.284 54.9754L112.119 54.1583C112.445 54.0641 112.668 53.934 112.787 53.768C112.905 53.602 112.937 53.4229 112.882 53.2307C112.823 53.0257 112.681 52.8479 112.457 52.6974C112.233 52.5468 111.978 52.4677 111.692 52.4602L108.799 53.2939L108.356 51.7565L111.191 50.9394C111.524 50.8434 111.747 50.7133 111.859 50.5491C111.977 50.383 112.009 50.2039 111.954 50.0118C111.896 49.8132 111.756 49.6386 111.532 49.488C111.308 49.3375 111.052 49.2552 110.764 49.2412L107.872 50.0749L107.428 48.5375L112.473 47.0834L112.872 48.4671L112.026 48.7108C112.381 48.8098 112.683 48.9931 112.934 49.2609C113.193 49.5331 113.383 49.8807 113.505 50.3035C113.625 50.7198 113.618 51.0687 113.484 51.3502C113.357 51.6298 113.171 51.8395 112.927 51.9792C113.296 52.0809 113.609 52.2647 113.866 52.5306C114.132 52.801 114.321 53.1348 114.436 53.532C114.528 53.8523 114.542 54.1293 114.478 54.3629C114.42 54.5948 114.309 54.7896 114.147 54.9475C113.984 55.1054 113.796 55.2359 113.583 55.3389C113.376 55.4401 113.167 55.5212 112.956 55.5822L109.727 56.5128Z" fill="black"/>
<path d="M109.883 58.9437C109.812 58.5028 109.817 58.1 109.9 57.7355C109.99 57.3699 110.137 57.0456 110.341 56.7627C110.546 56.4865 110.796 56.2603 111.092 56.0842C111.394 55.907 111.72 55.7902 112.069 55.7339C112.569 55.653 113.041 55.6882 113.484 55.8395C113.934 55.9962 114.318 56.2617 114.635 56.6359C114.959 57.009 115.168 57.4885 115.263 58.0742C115.358 58.6599 115.313 59.177 115.129 59.6255C114.946 60.0805 114.668 60.4496 114.295 60.7327C113.928 61.0148 113.508 61.1941 113.034 61.2707C112.942 61.2856 112.849 61.2939 112.755 61.2956C112.668 61.3029 112.591 61.3085 112.525 61.3126L111.906 57.4823C111.678 57.5393 111.494 57.6332 111.353 57.764C111.214 57.9014 111.115 58.0626 111.057 58.2475C111.005 58.4314 110.995 58.6188 111.026 58.8096C111.064 59.0465 111.156 59.258 111.301 59.4439C111.447 59.6364 111.621 59.7568 111.825 59.8049L111.667 61.2081C111.376 61.1201 111.105 60.9713 110.855 60.7619C110.613 60.5579 110.406 60.301 110.234 59.9911C110.064 59.6877 109.947 59.3386 109.883 58.9437ZM112.867 57.2865L113.23 59.5373C113.443 59.4758 113.621 59.383 113.763 59.2587C113.911 59.1334 114.015 58.9816 114.074 58.8032C114.14 58.6238 114.156 58.4354 114.125 58.2379C114.092 58.0339 114.016 57.8571 113.897 57.7075C113.786 57.5633 113.64 57.4552 113.46 57.3831C113.286 57.3099 113.088 57.2777 112.867 57.2865Z" fill="black"/>
<path d="M110.901 65.0758C110.83 64.9344 110.757 64.7764 110.683 64.6017C110.609 64.4337 110.548 64.2547 110.499 64.0647C110.444 63.8751 110.409 63.6873 110.394 63.5013C110.373 63.2354 110.396 62.9861 110.465 62.7532C110.54 62.5265 110.676 62.3384 110.871 62.189C111.067 62.0463 111.334 61.9614 111.673 61.9343L114.405 61.7158L114.351 61.0479L115.557 60.9514L115.611 61.6193L117.275 61.4861L117.403 63.081L115.738 63.2142L115.824 64.2808L114.617 64.3773L114.532 63.3107L112.349 63.4853C112.176 63.4991 112.054 63.5524 111.981 63.6452C111.915 63.7374 111.887 63.85 111.897 63.9829C111.906 64.0959 111.936 64.2139 111.986 64.337C112.036 64.4667 112.089 64.5762 112.143 64.6655L110.901 65.0758Z" fill="black"/>
<path d="M109.209 65.5376L110.585 65.8186L110.575 65.3288L112.184 65.2948L112.213 66.6445L110.603 66.6785L109.224 66.2375L109.209 65.5376Z" fill="black"/>
<path d="M110.239 72.1814C110.284 71.737 110.396 71.3496 110.577 71.0192C110.757 70.6889 110.986 70.4136 111.262 70.1933C111.538 69.9797 111.845 69.8262 112.183 69.7326C112.52 69.6391 112.872 69.6106 113.236 69.6471C113.714 69.6948 114.148 69.8487 114.537 70.1088C114.926 70.3754 115.225 70.7303 115.435 71.1735C115.646 71.6166 115.721 72.1333 115.662 72.7237C115.603 73.3207 115.423 73.812 115.123 74.1974C114.829 74.5901 114.466 74.8687 114.034 75.0332L113.722 73.4342C113.891 73.3506 114.027 73.2335 114.129 73.0829C114.23 72.939 114.291 72.7708 114.31 72.5784C114.332 72.3595 114.295 72.1549 114.201 71.9645C114.105 71.7808 113.963 71.6259 113.775 71.4998C113.586 71.3804 113.352 71.3068 113.073 71.2789C112.801 71.2517 112.557 71.2809 112.341 71.3665C112.125 71.4521 111.948 71.5751 111.812 71.7357C111.682 71.8968 111.606 72.0869 111.584 72.3058C111.57 72.4385 111.578 72.5632 111.607 72.6799C111.641 72.804 111.693 72.9164 111.764 73.0173C111.833 73.1247 111.915 73.21 112.01 73.273L111.377 74.7775C111.124 74.6249 110.903 74.4186 110.715 74.1586C110.533 73.9058 110.398 73.6143 110.31 73.2839C110.222 72.9536 110.199 72.5861 110.239 72.1814Z" fill="black"/>
<path d="M109.391 76.9848C109.489 76.549 109.648 76.1748 109.869 75.8621C110.088 75.556 110.347 75.3136 110.647 75.1349C110.947 74.9562 111.27 74.8408 111.616 74.7888C111.961 74.7432 112.309 74.7599 112.661 74.8387C113.018 74.919 113.344 75.0535 113.636 75.2421C113.927 75.4372 114.17 75.6796 114.364 75.9693C114.559 76.2589 114.69 76.5889 114.757 76.9593C114.823 77.3362 114.807 77.7425 114.709 78.1783C114.611 78.6142 114.453 78.9851 114.234 79.2913C114.015 79.5974 113.755 79.8398 113.456 80.0185C113.156 80.1972 112.833 80.3126 112.486 80.3646C112.14 80.4167 111.788 80.4026 111.43 80.3223C111.079 80.2434 110.758 80.1065 110.467 79.9113C110.176 79.7162 109.933 79.4738 109.738 79.1841C109.543 78.8945 109.413 78.5645 109.345 78.1941C109.278 77.8237 109.293 77.4206 109.391 76.9848ZM112.301 76.4389C112.035 76.379 111.79 76.3753 111.566 76.4276C111.341 76.4864 111.154 76.588 111.006 76.7323C110.857 76.8766 110.758 77.0593 110.709 77.2805C110.66 77.4951 110.673 77.6994 110.745 77.8934C110.823 78.0953 110.952 78.2677 111.131 78.4105C111.311 78.5533 111.531 78.6539 111.791 78.7123C112.058 78.7722 112.303 78.776 112.527 78.7236C112.75 78.6713 112.937 78.5698 113.087 78.419C113.235 78.2747 113.334 78.0952 113.382 77.8805C113.432 77.6593 113.42 77.4518 113.348 77.2578C113.275 77.0639 113.149 76.8923 112.971 76.7429C112.791 76.6001 112.568 76.4987 112.301 76.4389Z" fill="black"/>
<path d="M107.041 84.4172L107.607 82.9205L110.367 83.9632C110.691 84.0858 110.948 84.1118 111.139 84.0413C111.333 83.9793 111.468 83.8486 111.544 83.649C111.595 83.5118 111.611 83.3574 111.59 83.1856C111.57 83.0139 111.516 82.8441 111.43 82.6761C111.342 82.5144 111.225 82.3705 111.08 82.2445L108.264 81.1806L108.83 79.6838L113.741 81.5396L113.232 82.8866L112.409 82.5756C112.555 82.7733 112.661 82.9917 112.728 83.2306C112.794 83.4696 112.816 83.7236 112.793 83.9927C112.776 84.2642 112.713 84.5434 112.605 84.8303C112.484 85.1483 112.329 85.3816 112.137 85.5302C111.949 85.6873 111.743 85.7804 111.518 85.8095C111.291 85.8449 111.063 85.8369 110.833 85.7856C110.606 85.7429 110.39 85.6826 110.185 85.6049L107.041 84.4172Z" fill="black"/>
<path d="M105.82 86.3078C106.034 85.9157 106.307 85.5675 106.641 85.2632C106.974 84.9589 107.336 84.7467 107.728 84.6265L108.352 85.5931C107.993 85.7622 107.69 85.9497 107.441 86.1556C107.189 86.3673 106.999 86.5902 106.871 86.8243C106.772 87.0057 106.725 87.1621 106.729 87.2936C106.733 87.425 106.797 87.5242 106.919 87.5913C107.007 87.6392 107.091 87.6466 107.169 87.6137C107.254 87.5839 107.35 87.5187 107.458 87.4182C107.563 87.3235 107.687 87.2011 107.829 87.0511C108.138 86.7639 108.412 86.5335 108.651 86.3601C108.89 86.1867 109.12 86.0846 109.342 86.0538C109.57 86.0261 109.812 86.0826 110.07 86.2231C110.38 86.3923 110.608 86.6153 110.753 86.892C110.901 87.1777 110.961 87.4991 110.933 87.8561C110.905 88.2131 110.783 88.5906 110.566 88.9885C110.393 89.3045 110.176 89.5846 109.914 89.8288C109.648 90.0788 109.326 90.2716 108.949 90.4073L108.368 89.384C108.693 89.2197 108.952 89.0574 109.146 88.8973C109.34 88.7372 109.489 88.5606 109.595 88.3675C109.649 88.268 109.687 88.1709 109.708 88.0762C109.729 87.9815 109.725 87.8918 109.695 87.8072C109.668 87.7317 109.611 87.6699 109.523 87.622C109.435 87.5741 109.352 87.5592 109.274 87.5773C109.192 87.6012 109.103 87.6547 109.004 87.7377C108.908 87.8297 108.789 87.9433 108.647 88.0784C108.329 88.3981 108.042 88.6518 107.788 88.8396C107.539 89.0306 107.296 89.1412 107.06 89.1715C106.826 89.2108 106.571 89.1555 106.296 89.0054C105.828 88.7499 105.552 88.379 105.468 87.8927C105.386 87.4154 105.504 86.8871 105.82 86.3078Z" fill="black"/>
<path d="M103.216 90.2434C103.485 89.8873 103.781 89.6133 104.101 89.4214C104.428 89.2336 104.764 89.1158 105.109 89.068C105.451 89.0255 105.787 89.0504 106.119 89.1426C106.456 89.2388 106.765 89.3935 107.047 89.6068C107.451 89.9126 107.751 90.278 107.948 90.7029C108.146 91.1371 108.219 91.5981 108.167 92.0859C108.121 92.5777 107.919 93.0601 107.561 93.5332C107.203 94.0062 106.798 94.3311 106.346 94.5077C105.891 94.6896 105.432 94.7435 104.97 94.6694C104.513 94.5993 104.093 94.4194 103.71 94.1297C103.636 94.0734 103.565 94.0117 103.499 93.9447C103.434 93.8871 103.377 93.8355 103.328 93.79L105.67 90.6966C105.472 90.5717 105.277 90.5034 105.085 90.4919C104.889 90.4857 104.704 90.5255 104.53 90.6114C104.362 90.7013 104.219 90.8233 104.102 90.9774C103.958 91.1688 103.868 91.3811 103.834 91.6142C103.795 91.8527 103.829 92.0622 103.935 92.2427L102.811 93.0976C102.673 92.8263 102.594 92.5279 102.573 92.2025C102.553 91.8864 102.596 91.5593 102.701 91.2211C102.803 90.8882 102.974 90.5623 103.216 90.2434ZM106.475 91.2562L105.099 93.074C105.29 93.1855 105.48 93.2497 105.668 93.2666C105.861 93.2875 106.043 93.2576 106.212 93.177C106.387 93.1005 106.535 92.9825 106.656 92.8231C106.781 92.6583 106.856 92.4813 106.882 92.2921C106.91 92.1122 106.887 91.9321 106.815 91.7518C106.748 91.5755 106.634 91.4103 106.475 91.2562Z" fill="black"/>
<path d="M99.7381 93.957C100.065 93.6526 100.405 93.4359 100.759 93.3069C101.112 93.1779 101.466 93.1221 101.819 93.1393C102.167 93.1611 102.499 93.2483 102.814 93.401C103.13 93.5537 103.412 93.7642 103.662 94.0325C103.989 94.3837 104.213 94.7856 104.334 95.238C104.45 95.6949 104.441 96.1592 104.306 96.6308C104.171 97.1025 103.887 97.5405 103.453 97.9449C103.014 98.3539 102.554 98.6041 102.075 98.6956C101.595 98.7965 101.138 98.7662 100.705 98.6046L101.526 97.1974C101.709 97.2463 101.888 97.2479 102.064 97.2023C102.235 97.1612 102.392 97.0747 102.533 96.943C102.694 96.793 102.802 96.6152 102.856 96.4096C102.906 96.2085 102.902 95.9985 102.843 95.7794C102.78 95.5649 102.653 95.3552 102.462 95.1503C102.276 94.9503 102.073 94.8111 101.854 94.7326C101.636 94.654 101.422 94.63 101.213 94.6603C101.009 94.6955 100.827 94.7881 100.666 94.938C100.568 95.0289 100.491 95.1276 100.436 95.2341C100.38 95.3501 100.345 95.4691 100.331 95.5913C100.312 95.718 100.318 95.8361 100.347 95.9456L98.8781 96.6577C98.7891 96.3762 98.7596 96.0757 98.7898 95.756C98.8197 95.4457 98.9108 95.1376 99.0632 94.8317C99.2155 94.5258 99.4405 94.2342 99.7381 93.957Z" fill="black"/>
<path d="M95.363 97.7656C95.4492 97.6326 95.5491 97.4901 95.6626 97.3381C95.7707 97.1899 95.8946 97.0469 96.0343 96.9092C96.1702 96.766 96.3148 96.6411 96.4681 96.5346C96.6871 96.3824 96.9143 96.2772 97.1499 96.219C97.3839 96.17 97.6145 96.1924 97.842 96.286C98.0639 96.3834 98.272 96.5716 98.466 96.8508L100.03 99.1007L100.58 98.7182L101.271 99.7118L100.721 100.094L101.674 101.465L100.36 102.379L99.4068 101.007L98.5282 101.618L97.8376 100.625L98.7162 100.014L97.4662 98.2157C97.3672 98.0733 97.2593 97.9941 97.1425 97.9778C97.0295 97.9671 96.9183 97.9998 96.8088 98.0759C96.7157 98.1406 96.6286 98.2255 96.5474 98.3306C96.4608 98.4396 96.3924 98.5398 96.3424 98.6314L95.363 97.7656Z" fill="black"/>
<path d="M92.9306 98.5304C93.3293 98.3289 93.7148 98.2124 94.0874 98.1809C94.4629 98.1554 94.8164 98.197 95.1478 98.3058C95.4733 98.4177 95.7648 98.5878 96.0222 98.8162C96.2826 99.0506 96.4926 99.3254 96.652 99.6408C96.8806 100.093 96.99 100.553 96.9802 101.021C96.9674 101.498 96.8308 101.945 96.5703 102.36C96.3128 102.782 95.9193 103.126 95.3898 103.394C94.8603 103.662 94.354 103.776 93.8708 103.736C93.3817 103.7 92.9457 103.547 92.5629 103.277C92.183 103.013 91.8848 102.667 91.6682 102.239C91.6261 102.156 91.59 102.069 91.5597 101.98C91.5266 101.9 91.4979 101.828 91.4738 101.766L94.9364 100.015C94.8132 99.816 94.668 99.669 94.5006 99.5744C94.3273 99.4827 94.1437 99.4373 93.9499 99.4382C93.7591 99.445 93.5775 99.492 93.4049 99.5793C93.1907 99.6876 93.017 99.8389 92.8837 100.033C92.7445 100.231 92.6828 100.434 92.6986 100.642L91.3135 100.917C91.3091 100.613 91.3689 100.31 91.4928 100.008C91.6137 99.7155 91.7958 99.4404 92.0391 99.1829C92.2765 98.9284 92.5737 98.7109 92.9306 98.5304ZM95.4143 100.872L93.3796 101.9C93.5026 102.085 93.6449 102.226 93.8063 102.323C93.9708 102.427 94.1469 102.48 94.3347 102.482C94.5256 102.49 94.7103 102.449 94.8887 102.359C95.0732 102.266 95.2187 102.14 95.3253 101.981C95.429 101.832 95.4879 101.66 95.5019 101.466C95.5189 101.278 95.4897 101.08 95.4143 100.872Z" fill="black"/>
<path d="M87.408 101.216C87.5244 101.108 87.6564 100.995 87.8041 100.876C87.9455 100.759 88.1009 100.651 88.2704 100.552C88.4375 100.447 88.6086 100.362 88.7834 100.297C89.0333 100.203 89.2795 100.158 89.5222 100.16C89.7609 100.17 89.9789 100.249 90.1761 100.396C90.367 100.545 90.5219 100.779 90.6408 101.098L91.5991 103.665L92.2268 103.43L92.6499 104.564L92.0222 104.798L92.6063 106.363L91.1073 106.922L90.5233 105.358L89.5208 105.732L89.0977 104.598L90.1001 104.224L89.3342 102.172C89.2736 102.01 89.1887 101.906 89.0795 101.862C88.9727 101.823 88.8568 101.828 88.7319 101.874C88.6257 101.914 88.5203 101.975 88.4156 102.056C88.3047 102.14 88.2137 102.221 88.1426 102.297L87.408 101.216Z" fill="black"/>
<path d="M87.7353 102.8L88.6111 106.044L87.0664 106.461L86.2818 103.555C86.1984 103.246 86.073 103.024 85.9055 102.89C85.7397 102.762 85.5442 102.728 85.319 102.789C85.1774 102.827 85.0483 102.886 84.9318 102.966C84.8169 103.053 84.7131 103.167 84.6204 103.309C84.5277 103.452 84.4565 103.623 84.4069 103.823L85.2514 106.951L83.7068 107.368L82.8022 104.018C82.7605 103.863 82.7084 103.76 82.646 103.708C82.5789 103.664 82.4824 103.652 82.3567 103.672L82.01 102.388C82.1446 102.324 82.2649 102.271 82.3708 102.228C82.4704 102.188 82.5619 102.156 82.6456 102.133C82.9159 102.06 83.1463 102.057 83.3368 102.123C83.5289 102.195 83.6722 102.329 83.7664 102.525L83.8788 102.826C84.0201 102.429 84.2428 102.103 84.5469 101.848C84.8463 101.601 85.2084 101.421 85.6332 101.306C86.1481 101.167 86.585 101.225 86.944 101.48C87.3029 101.736 87.5667 102.175 87.7353 102.8Z" fill="black"/>
<path d="M79.3086 102.718C79.7482 102.639 80.151 102.638 80.5169 102.714C80.8841 102.797 81.2108 102.939 81.4972 103.138C81.777 103.338 82.0075 103.585 82.1888 103.877C82.3712 104.176 82.4936 104.5 82.5561 104.848C82.6456 105.346 82.6186 105.818 82.4752 106.264C82.3263 106.718 82.0676 107.106 81.6989 107.43C81.3315 107.76 80.8558 107.977 80.2718 108.082C79.6878 108.187 79.17 108.151 78.7184 107.975C78.2602 107.8 77.8864 107.528 77.5968 107.16C77.3084 106.799 77.1217 106.382 77.0369 105.91C77.0204 105.818 77.0105 105.725 77.0071 105.631C76.9983 105.544 76.9914 105.467 76.9861 105.401L80.8051 104.715C80.7441 104.489 80.647 104.306 80.5138 104.168C80.3739 104.03 80.2111 103.934 80.0251 103.88C79.8404 103.832 79.6529 103.825 79.4626 103.859C79.2264 103.901 79.0166 103.996 78.8332 104.144C78.6432 104.294 78.526 104.471 78.4814 104.675L77.0757 104.541C77.1586 104.249 77.3026 103.976 77.5077 103.722C77.7074 103.476 77.9607 103.265 78.2675 103.088C78.5678 102.912 78.9149 102.789 79.3086 102.718ZM81.0176 105.672L78.7735 106.075C78.8387 106.287 78.9346 106.463 79.0613 106.603C79.1892 106.749 79.3428 106.85 79.5221 106.906C79.7027 106.969 79.8914 106.982 80.0882 106.947C80.2916 106.91 80.4671 106.831 80.6147 106.71C80.7568 106.596 80.8624 106.449 80.9314 106.267C81.0015 106.092 81.0303 105.894 81.0176 105.672Z" fill="black"/>
<path d="M73.6169 107.535C74.0007 107.487 74.3403 107.382 74.6358 107.218C74.9321 107.06 75.135 106.854 75.2446 106.598L74.8591 103.472L76.447 103.276L77.0896 108.487L75.6306 108.667L75.5009 107.615C75.3655 107.987 75.1678 108.291 74.9077 108.524C74.6477 108.758 74.3626 108.897 74.0525 108.942C73.9797 108.951 73.9267 108.957 73.8937 108.962C73.854 108.966 73.8205 108.967 73.7932 108.964L73.6169 107.535Z" fill="black"/>
<path d="M71.2245 105.435C71.2384 105.782 71.1539 106.088 70.9711 106.356C70.7883 106.624 70.53 106.837 70.1961 106.997C69.8625 107.164 69.4759 107.256 69.0362 107.274C68.8231 107.283 68.6125 107.271 68.4044 107.239C68.1965 107.214 68.0147 107.171 67.8588 107.111L67.868 107.341C67.8794 107.627 67.9748 107.844 68.1542 107.99C68.3335 108.136 68.5997 108.202 68.9527 108.188C69.2458 108.176 69.5203 108.115 69.7761 108.005C70.0252 107.895 70.2892 107.741 70.5682 107.543L71.0886 108.543C70.7513 108.783 70.3984 108.968 70.0299 109.096C69.6547 109.224 69.2573 109.297 68.8376 109.314C68.0516 109.345 67.4345 109.18 66.9863 108.817C66.5317 108.462 66.2902 107.928 66.2617 107.215L66.2069 105.846C66.2005 105.686 66.1727 105.574 66.1234 105.509C66.0677 105.451 65.9763 105.418 65.8492 105.41L65.796 104.081C65.9282 104.049 66.054 104.024 66.1733 104.006C66.286 103.988 66.3857 103.977 66.4723 103.974C66.7721 103.962 67.0043 104.013 67.1689 104.126C67.3269 104.24 67.4301 104.399 67.4783 104.604L67.5175 104.833C67.7386 104.524 68.0092 104.283 68.3292 104.11C68.6428 103.944 68.9762 103.854 69.3292 103.84C69.6756 103.826 69.9916 103.887 70.2773 104.022C70.5562 104.157 70.7807 104.349 70.9507 104.595C71.1207 104.842 71.212 105.122 71.2245 105.435ZM68.039 105.362C67.9682 105.425 67.9109 105.494 67.8672 105.569C67.8235 105.645 67.803 105.715 67.8056 105.782L67.8244 106.252C67.9598 106.3 68.1113 106.334 68.2789 106.354C68.4401 106.381 68.5906 106.391 68.7305 106.386C69.0236 106.374 69.2641 106.298 69.4519 106.157C69.64 106.022 69.7298 105.849 69.7213 105.635C69.7165 105.515 69.6788 105.407 69.6082 105.31C69.5376 105.212 69.4445 105.136 69.3288 105.081C69.2065 105.025 69.0654 105.001 68.9055 105.007C68.7457 105.014 68.587 105.05 68.4295 105.117C68.2721 105.183 68.1419 105.265 68.039 105.362Z" fill="black"/>
<path d="M65.826 106.691C65.8055 107.204 65.6872 107.66 65.4711 108.058C65.2547 108.463 64.9686 108.779 64.6126 109.005C64.2566 109.231 63.8521 109.335 63.3992 109.316C63.0328 109.302 62.7033 109.199 62.4107 109.007C62.1179 108.821 61.9006 108.583 61.7589 108.29L61.6426 111.198L60.0438 111.134L60.2645 105.618C60.2709 105.458 60.2487 105.344 60.1981 105.275C60.1472 105.213 60.0621 105.173 59.9427 105.155L59.9959 103.826C60.2778 103.784 60.5053 103.766 60.6785 103.773C60.9516 103.784 61.1724 103.853 61.3408 103.98C61.5025 104.106 61.5991 104.277 61.6306 104.492L61.6498 104.763C61.8493 104.444 62.1122 104.211 62.4383 104.064C62.7645 103.917 63.1041 103.85 63.4571 103.864C63.8168 103.879 64.1472 103.959 64.4483 104.104C64.7425 104.256 64.9979 104.46 65.2145 104.715C65.4245 104.971 65.5827 105.267 65.6893 105.605C65.7959 105.943 65.8415 106.305 65.826 106.691ZM61.8452 105.882L61.8012 106.981C61.8607 107.163 61.951 107.324 62.0722 107.462C62.1868 107.6 62.3224 107.712 62.4791 107.798C62.6291 107.885 62.784 107.931 62.9439 107.937C63.1171 107.944 63.2785 107.914 63.4279 107.846C63.5708 107.779 63.6981 107.68 63.81 107.551C63.9217 107.429 64.0108 107.286 64.0774 107.122C64.1374 106.957 64.1711 106.782 64.1785 106.595C64.1863 106.402 64.1635 106.221 64.1102 106.052C64.05 105.89 63.9658 105.743 63.8576 105.612C63.7491 105.487 63.6196 105.389 63.4691 105.316C63.3186 105.243 63.1534 105.203 62.9735 105.196C62.8603 105.192 62.7497 105.204 62.6418 105.233C62.5336 105.269 62.4317 105.315 62.336 105.371C62.2337 105.427 62.1407 105.5 62.057 105.59C61.9734 105.68 61.9028 105.777 61.8452 105.882Z" fill="black"/>
<path d="M59.7985 103.693L59.2215 108.912L57.6312 108.736L58.2082 103.518L59.7985 103.693ZM59.1555 109.508L58.9962 110.949L57.4059 110.773L57.5652 109.332L59.1555 109.508Z" fill="black"/>
<path d="M54.134 102.753C54.5209 102.824 54.8435 102.968 55.102 103.185C55.3592 103.408 55.5433 103.679 55.6543 103.998L56.1922 101.067L57.7659 101.356L56.4337 108.614L55.0665 108.364L55.22 107.528C54.9757 107.788 54.6942 107.973 54.3756 108.084C54.057 108.195 53.7043 108.215 53.3174 108.144C52.9699 108.08 52.6645 107.953 52.4012 107.763C52.1314 107.571 51.9106 107.334 51.7387 107.051C51.5669 106.769 51.4514 106.456 51.3924 106.113C51.3333 105.77 51.3381 105.412 51.4067 105.038C51.5005 104.527 51.6799 104.085 51.9446 103.714C52.2094 103.342 52.5339 103.069 52.9182 102.896C53.296 102.721 53.7012 102.674 54.134 102.753ZM54.4214 104.178C54.251 104.147 54.0902 104.155 53.9393 104.202C53.7806 104.254 53.6374 104.333 53.5096 104.438C53.3818 104.543 53.2766 104.673 53.1941 104.827C53.1038 104.987 53.0418 105.159 53.0081 105.342C52.9732 105.533 52.9741 105.712 53.0108 105.882C53.0409 106.05 53.1009 106.203 53.1907 106.342C53.2793 106.487 53.393 106.606 53.5318 106.699C53.6705 106.792 53.8285 106.855 54.0055 106.888C54.1104 106.907 54.2216 106.911 54.3391 106.898C54.45 106.885 54.5607 106.854 54.6711 106.807C54.7737 106.764 54.8722 106.708 54.9665 106.637C55.0609 106.566 55.1445 106.48 55.2174 106.378L55.4124 105.316C55.3727 105.126 55.3065 104.951 55.2138 104.791C55.121 104.632 55.0071 104.496 54.8719 104.383C54.7355 104.277 54.5854 104.208 54.4214 104.178Z" fill="black"/>
<path d="M51.805 102.336L50.4947 107.42L48.9453 107.021L50.2556 101.937L51.805 102.336ZM50.3449 108.001L49.9831 109.405L48.4337 109.006L48.7956 107.602L50.3449 108.001Z" fill="black"/>
<path d="M47.5919 100.961C48.0149 101.104 48.4048 101.314 48.7617 101.59C49.1186 101.866 49.3898 102.187 49.5754 102.553L48.73 103.332C48.502 103.009 48.2652 102.742 48.0197 102.532C47.7679 102.319 47.5157 102.17 47.2632 102.085C47.0675 102.018 46.9053 101.998 46.7765 102.025C46.6478 102.052 46.5609 102.131 46.5159 102.264C46.4838 102.359 46.4907 102.442 46.5367 102.514C46.5805 102.592 46.6612 102.676 46.7788 102.765C46.89 102.852 47.0318 102.953 47.204 103.068C47.5399 103.323 47.8138 103.553 48.0256 103.759C48.2374 103.964 48.3775 104.174 48.4459 104.387C48.5121 104.607 48.4981 104.855 48.4038 105.133C48.2903 105.468 48.1096 105.73 47.8619 105.921C47.6057 106.115 47.2994 106.23 46.943 106.264C46.5865 106.297 46.1936 106.242 45.7643 106.096C45.4234 105.98 45.1102 105.814 44.8247 105.597C44.5329 105.379 44.2878 105.095 44.0894 104.746L44.9979 103.998C45.2156 104.29 45.4199 104.518 45.6108 104.681C45.8018 104.845 46.0014 104.962 46.2097 105.033C46.3171 105.069 46.4192 105.09 46.5161 105.094C46.6131 105.099 46.7007 105.08 46.7789 105.036C46.8487 104.996 46.8997 104.929 46.9318 104.834C46.964 104.739 46.9644 104.655 46.9332 104.581C46.8957 104.505 46.8276 104.426 46.729 104.343C46.6219 104.264 46.4896 104.167 46.3321 104.05C45.9625 103.791 45.6634 103.552 45.4348 103.333C45.2041 103.121 45.0535 102.901 44.9831 102.673C44.9042 102.449 44.9151 102.189 45.0158 101.892C45.1873 101.387 45.5053 101.052 45.9701 100.885C46.4263 100.724 46.967 100.749 47.5919 100.961Z" fill="black"/>
<path d="M43.0856 99.1342C43.4926 99.3183 43.8238 99.5486 44.0792 99.8251C44.3346 100.102 44.5225 100.406 44.6428 100.739C44.7571 101.068 44.8046 101.408 44.7853 101.758C44.7661 102.108 44.6809 102.45 44.5298 102.784C44.332 103.221 44.0477 103.583 43.6769 103.869C43.3 104.152 42.868 104.322 42.3809 104.38C41.8939 104.438 41.38 104.344 40.8394 104.1C40.2928 103.852 39.8847 103.525 39.6153 103.118C39.337 102.714 39.1889 102.281 39.171 101.819L40.786 102.034C40.8112 102.221 40.8788 102.387 40.9889 102.532C41.0928 102.674 41.2329 102.785 41.4091 102.865C41.6095 102.955 41.8151 102.986 42.0258 102.957C42.2304 102.925 42.4226 102.84 42.6022 102.702C42.7757 102.561 42.9202 102.363 43.0356 102.108C43.1482 101.859 43.1986 101.618 43.1866 101.386C43.1746 101.154 43.1143 100.947 43.0058 100.766C42.8946 100.592 42.7388 100.459 42.5384 100.368C42.4169 100.313 42.2963 100.281 42.1765 100.271C42.0479 100.264 41.9247 100.277 41.8066 100.312C41.6826 100.343 41.5756 100.394 41.4858 100.463L40.2623 99.3826C40.4876 99.1919 40.7536 99.0488 41.0602 98.9533C41.3579 98.8612 41.6773 98.8264 42.0183 98.849C42.3594 98.8715 42.7151 98.9666 43.0856 99.1342Z" fill="black"/>
<path d="M40.7667 98.0893L38.2198 102.68L36.8207 101.904L39.3676 97.3131L40.7667 98.0893ZM37.9288 103.205L37.2253 104.473L35.8262 103.697L36.5296 102.429L37.9288 103.205Z" fill="black"/>
<path d="M34.4827 94.1083L35.8068 95.0064L34.1508 97.4478C33.9562 97.7347 33.871 97.979 33.8953 98.1807C33.9103 98.3842 34.006 98.5459 34.1826 98.6656C34.304 98.748 34.4506 98.7991 34.6224 98.8189C34.7942 98.8388 34.9718 98.8264 35.1552 98.7816C35.3331 98.7331 35.5001 98.6531 35.6564 98.5416L37.3461 96.0506L38.6702 96.9487L35.723 101.293L34.5313 100.485L35.0253 99.7569C34.799 99.8531 34.5619 99.9057 34.314 99.9148C34.0662 99.9239 33.8141 99.8858 33.5577 99.8006C33.2977 99.7208 33.0407 99.5949 32.7869 99.4227C32.5056 99.2318 32.3149 99.026 32.215 98.8052C32.1058 98.5861 32.0632 98.3639 32.0872 98.1385C32.1057 97.9093 32.1666 97.6889 32.27 97.4771C32.3642 97.267 32.473 97.071 32.5965 96.8889L34.4827 94.1083Z" fill="black"/>
<path d="M32.8136 92.5586C33.0719 92.7898 33.2635 93.0506 33.3882 93.3411C33.5085 93.6366 33.5656 93.9427 33.5596 94.2593C33.5442 94.5765 33.472 94.8921 33.3431 95.2062C33.2142 95.5202 33.0275 95.8139 32.783 96.0871C32.5252 96.3753 32.2426 96.6011 31.9354 96.7645C31.6281 96.9279 31.3128 97.0304 30.9893 97.072C30.6564 97.1141 30.3363 97.0871 30.0287 96.9908C29.7118 96.8951 29.4192 96.7273 29.1509 96.4872C28.8578 96.2249 28.6572 95.9292 28.5492 95.6C28.4368 95.2757 28.4135 94.9418 28.4794 94.5982L27.906 95.2391L26.8701 94.3123L30.1307 90.668C30.4863 90.2706 30.8899 90.0145 31.3415 89.8997C31.7881 89.7804 32.2518 89.7972 32.7324 89.9499C33.2125 90.0932 33.6761 90.3648 34.1232 90.7649C34.5406 91.1383 34.8385 91.5302 35.0171 91.9404C35.1952 92.3413 35.2849 92.766 35.2862 93.2144L34.0652 93.2893C34.0678 92.9965 34.0045 92.7073 33.8754 92.4217C33.7506 92.1312 33.5665 91.877 33.3231 91.6592C33.1293 91.4858 32.9194 91.3606 32.6932 91.2835C32.467 91.2063 32.2378 91.2025 32.0056 91.2721C31.7684 91.3372 31.5409 91.4915 31.3231 91.7349L30.983 92.115C31.2934 92.008 31.614 91.9997 31.9448 92.0899C32.2706 92.1757 32.5602 92.3319 32.8136 92.5586ZM31.5569 93.1383C31.4625 93.0539 31.3644 92.9885 31.2627 92.9422C31.1516 92.8964 31.0412 92.8648 30.9317 92.8473C30.8176 92.8347 30.7019 92.8341 30.5845 92.8453C30.4627 92.8615 30.3488 92.8938 30.2429 92.9422L29.5094 93.762C29.4346 93.9455 29.4 94.1292 29.4055 94.3131C29.4065 94.5019 29.4397 94.6747 29.5051 94.8316C29.5705 94.9885 29.6653 95.1225 29.7895 95.2336C29.9137 95.3448 30.0549 95.4219 30.2131 95.465C30.3713 95.5082 30.5368 95.5132 30.7097 95.48C30.8731 95.4473 31.0327 95.3888 31.1886 95.3046C31.3395 95.216 31.4749 95.1046 31.5949 94.9704C31.7238 94.8264 31.8193 94.6747 31.8813 94.5154C31.9383 94.3518 31.9668 94.1849 31.9668 94.015C31.9623 93.85 31.9252 93.6915 31.8554 93.5396C31.7855 93.3877 31.686 93.2539 31.5569 93.1383Z" fill="black"/>
<path d="M27.4002 86.5193C27.6682 86.8767 27.8503 87.236 27.9463 87.5973C28.0369 87.9627 28.0576 88.318 28.0083 88.6633C27.9549 89.0033 27.8383 89.32 27.6583 89.6133C27.4729 89.9107 27.2389 90.1653 26.9563 90.3773C26.5509 90.6813 26.1169 90.8693 25.6542 90.9413C25.1822 91.012 24.7189 90.9553 24.2642 90.7713C23.8042 90.5913 23.3962 90.264 23.0402 89.7893C22.6842 89.3147 22.4836 88.836 22.4382 88.3533C22.3889 87.8653 22.4636 87.4093 22.6622 86.9853C22.8556 86.5653 23.1442 86.2113 23.5282 85.9233C23.6029 85.8673 23.6816 85.8167 23.7642 85.7713C23.8376 85.7247 23.9029 85.684 23.9602 85.6493L26.2882 88.7533C26.4629 88.5973 26.5822 88.4287 26.6462 88.2473C26.7062 88.0607 26.7189 87.872 26.6842 87.6813C26.6442 87.4947 26.5662 87.324 26.4502 87.1693C26.3062 86.9773 26.1269 86.8327 25.9122 86.7353C25.6936 86.6327 25.4829 86.6073 25.2802 86.6593L24.7682 85.3433C25.0669 85.286 25.3756 85.292 25.6942 85.3613C26.0036 85.4293 26.3062 85.5607 26.6022 85.7553C26.8942 85.9447 27.1602 86.1993 27.4002 86.5193ZM25.5282 89.3733L24.1602 87.5493C24.0002 87.7027 23.8862 87.8673 23.8182 88.0433C23.7449 88.2233 23.7236 88.406 23.7542 88.5913C23.7796 88.7807 23.8522 88.9553 23.9722 89.1153C24.0962 89.2807 24.2456 89.402 24.4202 89.4793C24.5856 89.5553 24.7649 89.5833 24.9582 89.5633C25.1462 89.5473 25.3362 89.484 25.5282 89.3733Z" fill="black"/>
<path d="M19.4975 88.0867L18.6656 86.72L23.3038 83.8966C23.4917 83.7822 23.6048 83.6666 23.6429 83.5497C23.681 83.4329 23.6619 83.3118 23.5857 83.1865C23.5337 83.1011 23.4703 83.0226 23.3955 82.9511C23.3116 82.8773 23.2317 82.8166 23.156 82.7691L24.0718 81.9657C24.2555 82.088 24.4377 82.2464 24.6185 82.4407C24.7992 82.6351 24.9485 82.8291 25.0664 83.0227C25.3021 83.4099 25.3833 83.7741 25.3101 84.1153C25.2276 84.4543 24.9956 84.7399 24.6141 84.9721L19.4975 88.0867Z" fill="black"/>
<path d="M24.1901 81.6634L19.5418 84.1039L18.798 82.6872L23.4463 80.2468L24.1901 81.6634ZM19.0105 84.3828L17.7267 85.0568L16.9829 83.6402L18.2668 82.9661L19.0105 84.3828Z" fill="black"/>
<path d="M21.4433 76.5039C21.5574 76.6138 21.6782 76.739 21.8058 76.8794C21.9307 77.0138 22.0474 77.1626 22.156 77.326C22.2707 77.4868 22.3657 77.6525 22.4411 77.8233C22.5488 78.0672 22.6088 78.3104 22.621 78.5527C22.6245 78.7917 22.5586 79.0139 22.4234 79.2193C22.2855 79.4187 22.061 79.587 21.75 79.7243L19.2434 80.8309L19.514 81.4438L18.4071 81.9325L18.1365 81.3196L16.6087 81.994L15.9625 80.5303L17.4903 79.8559L17.0582 78.877L18.1651 78.3883L18.5972 79.3672L20.6007 78.4827C20.7592 78.4127 20.8576 78.3219 20.8958 78.2103C20.9279 78.1014 20.917 77.986 20.8632 77.864C20.8174 77.7603 20.7506 77.6586 20.6629 77.5589C20.5724 77.4531 20.487 77.3669 20.4066 77.3004L21.4433 76.5039Z" fill="black"/>
<path d="M22.8759 75.5477L21.4832 75.7299L21.6524 76.1897L20.1414 76.7456L19.6752 75.4787L21.1862 74.9228L22.6342 74.8908L22.8759 75.5477Z" fill="black"/>
<path d="M19.9459 70.0577C20.0489 70.4924 20.0783 70.9342 20.034 71.3832C19.9898 71.8321 19.862 72.2324 19.6507 72.584L18.5411 72.2818C18.6943 71.9166 18.7947 71.5742 18.8422 71.2547C18.8882 70.9286 18.8805 70.6358 18.819 70.3763C18.7713 70.1752 18.7019 70.0272 18.6109 69.9323C18.5199 69.8375 18.4063 69.8062 18.2701 69.8385C18.1728 69.8615 18.1058 69.9117 18.0693 69.9888C18.0263 70.0675 17.9983 70.1804 17.9852 70.3274C17.9705 70.4679 17.9603 70.6416 17.9546 70.8485C17.9171 71.2685 17.8675 71.6228 17.8058 71.9115C17.7441 72.2002 17.641 72.4302 17.4967 72.6014C17.3458 72.7742 17.1276 72.8945 16.8422 72.9622C16.4984 73.0437 16.18 73.0301 15.8871 72.9214C15.5861 72.8078 15.3265 72.609 15.1084 72.325C14.8904 72.041 14.729 71.6784 14.6244 71.2373C14.5414 70.887 14.5158 70.5334 14.5476 70.1764C14.5779 69.8129 14.6882 69.4545 14.8784 69.1011L15.9945 69.4736C15.8626 69.8132 15.7782 70.1073 15.7412 70.3559C15.7042 70.6044 15.7111 70.8358 15.7619 71.0498C15.788 71.1601 15.8248 71.2576 15.8723 71.3422C15.9198 71.4269 15.9829 71.4907 16.0616 71.5337C16.1323 71.5718 16.2163 71.5793 16.3136 71.5562C16.4109 71.5331 16.4826 71.4887 16.5287 71.423C16.5732 71.3508 16.6043 71.2509 16.622 71.1233C16.6317 70.9909 16.6442 70.8269 16.6596 70.6314C16.6828 70.1806 16.7263 69.8003 16.7899 69.4906C16.847 69.1824 16.9534 68.9379 17.1093 68.7571C17.257 68.5713 17.4834 68.4423 17.7883 68.37C18.3072 68.2469 18.7605 68.3382 19.1481 68.6436C19.5277 68.9442 19.7936 69.4155 19.9459 70.0577Z" fill="black"/>
<path d="M19.0429 65.2841C19.1041 65.7266 19.089 66.1291 18.9978 66.4917C18.9 66.8551 18.7458 67.1759 18.5352 67.4541C18.3238 67.7256 18.0682 67.946 17.7686 68.1153C17.4623 68.2855 17.1342 68.3948 16.7842 68.4431C16.2823 68.5125 15.8116 68.4665 15.372 68.3052C14.9249 68.1382 14.5472 67.864 14.2387 67.4826C13.9236 67.1022 13.7255 66.6181 13.6442 66.0304C13.563 65.4426 13.6196 64.9267 13.8139 64.4825C14.0073 64.0318 14.2937 63.6692 14.673 63.3947C15.0457 63.1211 15.4698 62.9514 15.9453 62.8857C16.0378 62.8729 16.1311 62.8667 16.2254 62.8671C16.3122 62.8619 16.389 62.858 16.456 62.8555L16.9873 66.6989C17.2157 66.6471 17.4018 66.5575 17.5457 66.4299C17.6887 66.2957 17.7912 66.1369 17.8533 65.9533C17.9088 65.7706 17.9234 65.5836 17.8969 65.392C17.864 65.1543 17.7773 64.9408 17.6368 64.7516C17.4953 64.5558 17.3233 64.4315 17.1208 64.3788L17.311 62.9795C17.6001 63.0742 17.8671 63.2291 18.1122 63.4442C18.3498 63.6537 18.5508 63.9153 18.7154 64.229C18.879 64.5362 18.9881 64.8879 19.0429 65.2841ZM16.022 66.8727L15.7098 64.6142C15.4955 64.6707 15.316 64.7595 15.1712 64.8805C15.0198 65.0023 14.9125 65.1518 14.8495 65.3287C14.7799 65.5066 14.7588 65.6946 14.7861 65.8927C14.8144 66.0974 14.8862 66.2759 15.0015 66.4283C15.1093 66.5749 15.2525 66.6863 15.4313 66.7626C15.6035 66.8397 15.8004 66.8764 16.022 66.8727Z" fill="black"/>
<path d="M15.9865 62.9102C15.4734 62.9229 15.011 62.8344 14.5995 62.6445C14.1814 62.4548 13.848 62.1897 13.5995 61.849C13.351 61.5084 13.2211 61.1115 13.2099 60.6583C13.2008 60.2918 13.2825 59.9563 13.455 59.6519C13.6209 59.3477 13.8452 59.1154 14.128 58.9551L11.2189 59.0272L11.1792 57.4277L16.6975 57.2909C16.8575 57.2869 16.9701 57.2574 17.0354 57.2025C17.0941 57.1477 17.1286 57.0601 17.1389 56.9398L18.4685 56.9069C18.5288 57.1855 18.5611 57.4114 18.5654 57.5847C18.5721 57.8579 18.5177 58.0827 18.402 58.2589C18.2862 58.4285 18.1221 58.5359 17.9099 58.5812L17.6407 58.6179C17.9719 58.7964 18.2214 59.0436 18.3893 59.3596C18.5572 59.6755 18.6455 60.0101 18.6542 60.3633C18.6632 60.7232 18.6048 61.0581 18.4791 61.368C18.3466 61.6713 18.1598 61.9394 17.9188 62.1721C17.6777 62.3981 17.392 62.5753 17.0617 62.7035C16.7315 62.8317 16.3731 62.9006 15.9865 62.9102ZM16.537 58.8853L15.4373 58.9126C15.259 58.9837 15.1048 59.0842 14.9746 59.2142C14.8443 59.3374 14.7412 59.48 14.6651 59.642C14.589 59.7972 14.5529 59.9548 14.5568 60.1148C14.5611 60.2881 14.6017 60.4471 14.6787 60.5919C14.7555 60.7301 14.8618 60.8508 14.9978 60.9541C15.127 61.0576 15.2757 61.1373 15.4438 61.1931C15.6118 61.2423 15.789 61.2646 15.9756 61.26C16.1689 61.2552 16.3481 61.2207 16.5132 61.1566C16.6715 61.086 16.8126 60.9925 16.9364 60.876C17.0536 60.7598 17.1436 60.6242 17.2064 60.4692C17.2693 60.3143 17.2985 60.1469 17.294 59.9669C17.2912 59.8536 17.2718 59.7441 17.2358 59.6382C17.1932 59.5326 17.1407 59.4339 17.0785 59.3421C17.016 59.2436 16.9371 59.1555 16.8418 59.0778C16.7465 59.0002 16.6449 58.936 16.537 58.8853Z" fill="black"/>
<path d="M16.0225 54.619C15.5142 54.5475 15.0726 54.3845 14.6977 54.1298C14.3162 53.8742 14.0308 53.5581 13.8414 53.1814C13.6519 52.8047 13.5888 52.3919 13.6519 51.943C13.7029 51.5799 13.8384 51.2623 14.0584 50.9903C14.2718 50.7173 14.5311 50.5249 14.8363 50.4129L11.9547 50.0079L12.1773 48.4235L17.6436 49.1918C17.8021 49.214 17.918 49.2034 17.9914 49.1599C18.0583 49.1154 18.1067 49.0347 18.1366 48.9177L19.4536 49.1028C19.4675 49.3875 19.4623 49.6157 19.4382 49.7873C19.4002 50.058 19.3097 50.2708 19.1667 50.4257C19.0247 50.5741 18.8453 50.6532 18.6284 50.6631L18.3569 50.6553C18.6544 50.8856 18.8601 51.1703 18.974 51.5095C19.0879 51.8486 19.1203 52.1931 19.0711 52.543C19.021 52.8995 18.9086 53.2203 18.7339 53.5055C18.5535 53.7831 18.3254 54.0169 18.0496 54.2071C17.7747 54.3906 17.4639 54.5186 17.1171 54.591C16.7703 54.6635 16.4054 54.6728 16.0225 54.619ZM17.2243 50.7384L16.135 50.5854C15.9475 50.6263 15.7789 50.7002 15.6292 50.8071C15.4805 50.9074 15.3553 51.0312 15.2539 51.1785C15.1533 51.3192 15.0919 51.4688 15.0696 51.6272C15.0455 51.7989 15.0595 51.9624 15.1117 52.1179C15.1649 52.2667 15.25 52.4032 15.3672 52.5274C15.4778 52.6507 15.6115 52.7536 15.7682 52.8362C15.9258 52.9122 16.097 52.9632 16.2819 52.9892C16.4733 53.0161 16.6557 53.0114 16.8291 52.9752C16.9969 52.9315 17.1513 52.8623 17.2925 52.7677C17.4271 52.6722 17.5381 52.5531 17.6255 52.4106C17.7128 52.268 17.769 52.1076 17.7941 51.9293C17.8099 51.8171 17.8087 51.7059 17.7905 51.5956C17.7657 51.4844 17.7301 51.3784 17.6837 51.2776C17.6382 51.1703 17.5748 51.0705 17.4935 50.9783C17.4122 50.886 17.3225 50.8061 17.2243 50.7384Z" fill="black"/>
<path d="M19.5956 48.9711L14.4831 47.7776L14.8468 46.2195L19.9594 47.413L19.5956 48.9711ZM13.8988 47.6412L12.4868 47.3116L12.8505 45.7535L14.2625 46.0831L13.8988 47.6412Z" fill="black"/>
<path d="M18.5355 46.4734C18.2059 46.3658 17.9475 46.1798 17.7603 45.9154C17.5731 45.6509 17.4626 45.3343 17.4286 44.9656C17.3883 44.5948 17.4364 44.2003 17.5729 43.782C17.6391 43.5792 17.7232 43.3857 17.8254 43.2017C17.9212 43.0155 18.0246 42.8599 18.1355 42.7348L17.9169 42.6635C17.6443 42.5746 17.4083 42.5887 17.2088 42.7059C17.0092 42.8231 16.8546 43.0497 16.745 43.3856C16.654 43.6645 16.6157 43.943 16.6302 44.2212C16.6466 44.493 16.6991 44.7942 16.7877 45.1246L15.6691 45.2645C15.5611 44.8646 15.5112 44.4697 15.5193 44.0796C15.5294 43.6832 15.5996 43.2853 15.7299 42.8861C15.974 42.1382 16.3438 41.6172 16.8395 41.3232C17.3309 41.0207 17.9157 40.9801 18.5938 41.2014L19.8962 41.6264C20.0483 41.676 20.1633 41.689 20.2412 41.6653C20.3148 41.6332 20.3775 41.559 20.4295 41.4427L21.6939 41.8553C21.6779 41.9904 21.6576 42.117 21.6331 42.2352C21.6106 42.3471 21.5859 42.4442 21.559 42.5266C21.4659 42.8118 21.3375 43.0118 21.1738 43.1267C21.0122 43.2353 20.8269 43.2765 20.618 43.2504L20.3901 43.2076C20.6029 43.5225 20.7347 43.86 20.7855 44.2202C20.832 44.572 20.8004 44.9158 20.6908 45.2517C20.5833 45.5813 20.4163 45.8564 20.19 46.0771C19.9658 46.2914 19.7085 46.4354 19.418 46.5089C19.1275 46.5824 18.8334 46.5706 18.5355 46.4734ZM19.7121 43.5123C19.6778 43.424 19.6331 43.3462 19.5778 43.2791C19.5226 43.212 19.4633 43.1681 19.3999 43.1474L18.9531 43.0016C18.861 43.1118 18.7765 43.242 18.6994 43.3922C18.6181 43.534 18.5557 43.6714 18.5123 43.8045C18.4213 44.0834 18.4092 44.3354 18.4759 44.5605C18.5364 44.7836 18.668 44.9283 18.8708 44.9944C18.9849 45.0317 19.0998 45.0341 19.2156 45.0017C19.3313 44.9694 19.4353 44.9086 19.5275 44.8195C19.6217 44.724 19.6937 44.6003 19.7433 44.4481C19.793 44.296 19.8141 44.1346 19.8067 43.9639C19.7993 43.7932 19.7677 43.6427 19.7121 43.5123Z" fill="black"/>
<path d="M25.4241 34.4683L24.6935 35.8917L22.069 34.5446C21.7665 34.3894 21.5152 34.3316 21.315 34.3712C21.1148 34.4108 20.969 34.5196 20.8777 34.6975C20.7803 34.8873 20.7615 35.1137 20.8213 35.3768C20.8812 35.6398 21.0129 35.8722 21.2165 36.0741L23.8944 37.4486L23.1637 38.8721L20.5393 37.525C20.2309 37.3667 19.9795 37.3089 19.7853 37.3516C19.5851 37.3912 19.4393 37.5 19.348 37.6779C19.2536 37.8618 19.2364 38.0852 19.2962 38.3482C19.356 38.6112 19.4862 38.8466 19.6868 39.0545L22.3646 40.429L21.634 41.8524L16.9633 39.4551L17.6209 38.174L18.4038 38.5758C18.2133 38.2607 18.1185 37.9198 18.1194 37.5531C18.1174 37.1774 18.2169 36.7938 18.4178 36.4024C18.6157 36.0169 18.8598 35.7675 19.1502 35.6543C19.4347 35.538 19.7137 35.5126 19.9874 35.5781C19.7881 35.251 19.6859 34.9026 19.6809 34.5328C19.6729 34.1541 19.7633 33.7809 19.9521 33.4131C20.1043 33.1166 20.2839 32.9053 20.491 32.7793C20.6921 32.6502 20.906 32.5839 21.1326 32.5803C21.3593 32.5768 21.5855 32.6105 21.8114 32.6814C22.0313 32.7493 22.2391 32.8335 22.4348 32.934L25.4241 34.4683Z" fill="black"/>
<path d="M56.1582 117.906C56.1618 109.453 57.9697 101.098 61.461 93.4C64.9523 85.7019 70.0466 78.8377 76.4034 73.2663C82.7602 67.6948 90.233 63.5445 98.3224 61.0926C106.412 58.6407 114.931 57.9438 123.312 59.0484H123.343C107.808 72.9732 75.3358 102.052 56.1709 119.096C56.1677 119.041 56.1677 118.986 56.1709 118.931C56.1582 118.568 56.1582 118.243 56.1582 117.906Z" fill="white"/>
<path d="M123.618 58.5136L123.458 58.4436H123.357C114.893 57.3342 106.29 58.0431 98.1222 60.5231C89.9544 63.003 82.4097 67.197 75.9917 72.8249C69.5738 78.4528 64.4304 85.3851 60.9048 93.1591C57.3793 100.933 55.5528 109.37 55.5473 117.906C55.5473 118.243 55.5473 118.542 55.5473 118.892C55.5441 118.95 55.5441 119.007 55.5473 119.064V119.351C55.7447 119.351 55.9357 119.415 56.1331 119.434H56.5597L103.294 77.7804L105.484 75.8257L123.726 59.5133L124.063 59.2013V58.7556L123.618 58.5136ZM115.512 59.1504C117.661 59.1489 119.807 59.2637 121.943 59.4942C106.968 72.9096 75.75 100.842 56.7635 117.721C56.8291 102.176 63.0454 87.2899 74.0538 76.3148C85.0623 65.3398 99.9676 59.1687 115.512 59.1504Z" fill="#231F20"/>
</g>
<defs>
<filter id="filter0_d_360_4577" x="0" y="0" width="128.096" height="128" filterUnits="userSpaceOnUse" color-interpolation-filters="sRGB">
<feFlood flood-opacity="0" result="BackgroundImageFix"/>
<feColorMatrix in="SourceAlpha" type="matrix" values="0 0 0 0 0 0 0 0 0 0 0 0 0 0 0 0 0 0 127 0" result="hardAlpha"/>
<feOffset dy="4"/>
<feGaussianBlur stdDeviation="2"/>
<feComposite in2="hardAlpha" operator="out"/>
<feColorMatrix type="matrix" values="0 0 0 0 0 0 0 0 0 0 0 0 0 0 0 0 0 0 0.25 0"/>
<feBlend mode="normal" in2="BackgroundImageFix" result="effect1_dropShadow_360_4577"/>
<feBlend mode="normal" in="SourceGraphic" in2="effect1_dropShadow_360_4577" result="shape"/>
</filter>
<clipPath id="clip0_360_4577">
<rect width="120.096" height="120" fill="white" transform="translate(4)"/>
</clipPath>
</defs>
</svg>
