<svg width="138" height="251" viewBox="0 0 138 251" fill="none" xmlns="http://www.w3.org/2000/svg">
<path d="M-10.3936 5.41772C5.14977 -0.253516 22.0935 -1.23373 37.5668 4.43751C63.1924 13.8896 85.2472 33.4938 96.3096 58.6293C99.3203 65.4208 101.561 73.1925 99.2503 80.264C93.019 99.6582 57.2412 103.999 69.8439 128.995C73.2747 135.856 80.3462 139.917 88.0479 140.617C114.864 143.068 136.148 167.433 137.269 193.619C138.249 215.393 125.226 237.168 105.622 246.62C100.02 249.281 93.8591 251.101 87.6978 250.541C68.5836 248.791 58.2913 226.806 41.0676 218.404C12.9215 204.751 -17.5352 231.217 -48.2719 236.958C-75.5778 242.069 -105.334 228.556 -119.477 204.681C-133.62 180.806 -131.24 148.179 -113.666 126.684C-110.585 122.973 -107.085 119.403 -105.544 114.782C-102.394 105.469 -108.415 95.8074 -114.436 88.0357C-128.579 69.7617 -145.593 47.847 -134.881 25.8622C-130.4 16.6202 -121.858 10.1087 -112.126 6.88804C-88.6706 -0.883649 -65.7756 6.95806 -42.5305 8.70844C-31.3281 9.54862 -19.1455 8.5684 -10.3936 5.41772Z" fill="#A2E5B2"/>
</svg>
