<svg width="1512" height="1729" viewBox="0 0 1512 1729" fill="none" xmlns="http://www.w3.org/2000/svg">
<path d="M0.308594 211.558C98.5556 180.842 198.65 153.159 299.793 125.808C399.215 99.0086 485.052 54.5981 563.851 0.588867" stroke="#E29793" stroke-miterlimit="10"/>
<path d="M0.308594 644.886C237.126 588.727 478.336 660.474 719.532 687.607C1027.34 720.883 1058.12 362.528 1153.26 166.712C1182.27 107.622 1216.97 50.605 1260.24 0.588867" stroke="#E29793" stroke-miterlimit="10"/>
<path d="M0.308594 369.797C134.989 336.624 274.077 314.111 415.851 298.536C566.957 281.898 694.278 208.947 786.621 93.7612C811.805 62.5715 836.052 31.3306 860.229 0.588867" stroke="#E29793" stroke-miterlimit="10"/>
<path d="M0.308594 1498.28C26.179 1502.21 51.2217 1509.8 74.5325 1520.78C210.248 1584.78 343.166 1655.17 498.47 1642.37C743.318 1620.61 954.587 1518.22 1158.86 1383.84C1299.01 1290.6 1408.35 1183.26 1511.44 1069.14" stroke="#E29793" stroke-miterlimit="10"/>
<path d="M0.308594 907.817C174.752 831.026 392.947 836.696 548.768 957.654C613.128 1007.57 660.699 1072.84 743.248 1092.04C881.762 1125.31 992.293 1025.49 1074.84 935.896C1241.34 754.159 1281.91 528.907 1375.66 317.734C1405.79 248.889 1452.12 186.958 1511.37 136.342" stroke="#E29793" stroke-miterlimit="10"/>
<path d="M1383.48 1728.37C1426.22 1705.16 1468.86 1680.72 1511.37 1655.06" stroke="#E29793" stroke-miterlimit="10"/>
<path d="M119.193 0.588867C79.5321 16.3394 39.904 32.0089 0.308594 47.5974" stroke="#E29793" stroke-miterlimit="10"/>
<path d="M0.308594 1044.67C34.4101 1030.11 68.479 1015.18 102.515 999.875C274.608 923.085 469.088 999.875 557.233 1152.18C582.417 1196.97 622.992 1235.37 678.958 1245.6C845.454 1272.48 979.771 1163.69 1087.5 1061.31C1265.19 894.929 1343.55 681.195 1431.69 471.301C1452.09 422.016 1478.87 375.139 1511.44 331.671" stroke="#E29793" stroke-miterlimit="10"/>
<path d="M0.308594 510.336C79.4015 493.225 160.593 483.716 243.828 484.113C474.684 484.113 781.094 536.586 905.617 299.815C957.777 199.988 1007.52 94.3628 1072.55 0.588867" stroke="#E29793" stroke-miterlimit="10"/>
<path d="M0.308594 1633.81C5.90512 1635.26 11.5016 1636.83 17.0982 1638.53C208.779 1696.12 403.259 1746.03 607.532 1699.96C971.978 1618.05 1258.7 1430.27 1511.37 1197.73" stroke="#E29793" stroke-miterlimit="10"/>
<path d="M0.308594 1278.19C55.5743 1264.32 111.204 1251.1 166.875 1237.94C200.454 1230.26 235.433 1228.98 267.613 1243.06C345.964 1278.89 359.955 1364.64 415.921 1422.24C467.689 1472.15 544.641 1483.67 617.396 1472.15C824.467 1442.71 995.161 1341.61 1147.67 1214.9C1307.31 1082.73 1407.12 925.209 1511.44 761.121" stroke="#E29793" stroke-miterlimit="10"/>
<path d="M1182.86 1728.37C1295.58 1671.88 1404.56 1608.34 1511.37 1540.03" stroke="#E29793" stroke-miterlimit="10"/>
<path d="M0.308594 774.137C246.164 704.59 505.829 785.758 737.721 887.262C962.981 984.53 1102.89 711.924 1164.46 542.985C1235.1 349.115 1276.95 125.143 1469.47 0.588867" stroke="#E29793" stroke-miterlimit="10"/>
<path d="M0.308594 1382.44C23.0865 1378.71 45.9623 1375.33 68.936 1372.32C133.296 1363.36 196.257 1383.84 236.832 1432.47C460.693 1702.52 834.261 1510.54 1076.31 1355.68C1265.04 1235.38 1390.22 1085.38 1511.44 926.771" stroke="#E29793" stroke-miterlimit="10"/>
<path d="M986.586 1728.37C1175.38 1647.4 1346.95 1542.72 1511.37 1425.6" stroke="#E29793" stroke-miterlimit="10"/>
<path d="M0.308594 1171.05C10.1492 1167.77 19.9664 1164.46 29.7603 1161.13C126.3 1127.86 229.836 1060.03 334.771 1108.66C424.316 1150.9 446.702 1241.76 504.066 1313.44C550.237 1369.75 625.791 1383.83 698.545 1369.75C1034.34 1300.64 1249.8 1048.51 1392.51 783.582C1432.85 709.274 1469.05 630.18 1511.44 555.425" stroke="#E29793" stroke-miterlimit="10"/>
<path d="M774.617 1728.37C1055.84 1641.27 1292.9 1491.69 1511.37 1315.38" stroke="#E29793" stroke-miterlimit="10"/>
<path d="M0.308594 292.021C121.334 259.065 246.192 232.202 373.877 205.107C488.606 179.511 587.944 130.877 670.493 54.0862C689.955 36.6164 708.815 18.7242 727.284 0.588867" stroke="#E29793" stroke-miterlimit="10"/>
<path d="M0.308594 708.545C229.64 653.794 475.356 700.252 692.949 786.155C890.226 864.225 1037.14 688.887 1094.5 535.306C1164.46 352.289 1204.19 138.901 1357.06 0.588867" stroke="#E29793" stroke-miterlimit="10"/>
<path d="M0.308594 438.691C3.58256 438.038 6.87052 437.411 10.1725 436.758C187.862 402.203 355.758 403.483 530.65 386.845C763.927 363.27 864.468 167.659 972.397 0.588867" stroke="#E29793" stroke-miterlimit="10"/>
<path d="M0.308594 1574.2C4.03961 1575.14 7.77063 1576.13 11.5016 1577.16C196.187 1628.35 369.679 1710.26 572.554 1670.59C963.541 1595.19 1255.55 1389.84 1511.37 1136.7" stroke="#E29793" stroke-miterlimit="10"/>
<path d="M0.308594 976.672C16.1654 969.556 32.0456 962.364 47.949 955.094C250.823 861.666 478.882 928.218 611.799 1104.84C741.919 1273.77 960.183 1131.71 1074.91 1013.97C1252.6 829.67 1315.56 600.578 1410.7 381.726C1434.75 326.428 1468.8 275.23 1511.44 230.282" stroke="#E29793" stroke-miterlimit="10"/>
<path d="M1511.37 1713.71C1502.92 1718.6 1494.44 1723.49 1485.93 1728.36" stroke="#E29793" stroke-miterlimit="10"/>
<path d="M0.308594 130.134C120.76 89.8961 241.477 52.32 355.548 0.588867" stroke="#E29793" stroke-miterlimit="10"/>
<path d="M0.308594 1108.44C56.5724 1087.05 113.027 1065.36 169.674 1043.4C329.175 983.25 463.491 1103.56 527.851 1228.98C581.018 1330.09 718.133 1330.09 818.871 1290.41C1184.04 1144.51 1342.15 798.953 1489.06 485.392C1495.84 470.623 1503.3 456.118 1511.44 441.878" stroke="#E29793" stroke-miterlimit="10"/>
<path d="M0.308594 577.835C203.183 537.367 402.951 560.263 607.602 586.5C764.305 608.257 904.218 531.467 965.78 400.923C1028.36 268.037 1078.62 120.459 1166.15 0.588867" stroke="#E29793" stroke-miterlimit="10"/>
<path d="M645.812 1728.37C988.782 1643.6 1262.83 1466.8 1511.37 1255.17" stroke="#E29793" stroke-miterlimit="10"/>
<path d="M0.308594 1694.6C62.57 1705.19 124.048 1717.63 185.4 1728.37" stroke="#E29793" stroke-miterlimit="10"/>
<path d="M0.308594 1329.6C40.5663 1321.07 81.1644 1313.12 122.103 1305.77C172.472 1296.81 225.639 1303.21 259.218 1339.05C323.578 1405.6 361.355 1499.03 467.689 1513.1C711.138 1545.1 923.806 1420.96 1109.89 1287.85C1283.56 1163.55 1399.06 1012.69 1511.44 850.146" stroke="#E29793" stroke-miterlimit="10"/>
<path d="M1275.69 1728.37C1355.38 1687.09 1433.94 1643.14 1511.37 1596.55" stroke="#E29793" stroke-miterlimit="10"/>
<path d="M0.308594 839.166C27.4141 830.804 54.9939 823.789 82.9273 818.151C303.99 770.797 511.062 837.348 683.155 966.612C736.322 1006.29 806.279 1026.76 872.038 999.888C1151.86 885.982 1207.83 582.66 1298.77 342.05C1342.15 230.704 1402.31 121.918 1509.52 52.8703C1510.14 52.4991 1510.76 52.1152 1511.37 51.7568" stroke="#E29793" stroke-miterlimit="10"/>
<path d="M0.308594 1430.71C44.9129 1431.99 88.3 1442.51 129.099 1467.03C269.012 1550.22 404.728 1629.57 578.22 1597.57C988.166 1522.58 1268.3 1288.95 1511.44 1005.99" stroke="#E29793" stroke-miterlimit="10"/>
<path d="M1081.53 1728.37C1142.52 1700.6 1203 1670.28 1263.75 1637.25C1352.17 1589.52 1433.26 1538.06 1511.4 1483.92" stroke="#E29793" stroke-miterlimit="10"/>
<path d="M0.308594 1226.65L14.2999 1222.58C63.2695 1207.22 112.239 1191.86 159.81 1172.67C319.311 1109.95 385.07 1273.77 467.619 1364.64C601.935 1513.1 827.196 1385.12 975.504 1296.81C1237.49 1140.4 1382.65 908.174 1511.37 663.827" stroke="#E29793" stroke-miterlimit="10"/>
<path d="M887.289 1728.37C1118.62 1640.99 1320.53 1514.19 1511.37 1369.69" stroke="#E29793" stroke-miterlimit="10"/>
</svg>
