<svg width="153" height="250" viewBox="0 0 153 250" fill="none" xmlns="http://www.w3.org/2000/svg">
<path d="M89.876 0.535476C83.3241 2.58651 76.7721 4.69451 69.9923 5.777C54.2677 8.34079 39.1699 14.4369 29.2566 26.5722C16.2667 42.4676 17.9189 70.6123 36.3782 79.5571C50.9633 86.5648 74.4363 83.4883 77.7977 99.2698C79.165 105.594 76.2593 112.089 71.0178 115.849C58.9965 124.509 44.6394 121.546 31.4786 124.908C6.41045 131.289 -7.83284 163.934 4.53031 186.666C16.8935 209.399 51.9888 215.153 71.0178 197.548C74.892 193.959 78.2534 189.515 82.9822 187.179C95.8581 180.684 110.842 192.421 117.679 205.126C124.516 217.831 128.504 233.156 140.183 241.645C149.242 248.197 161.035 249.166 172.202 249.679C185.933 250.305 200.062 250.419 213.109 246.146C226.212 241.873 238.291 232.302 242.165 219.084C247.179 202.049 237.835 183.077 243.475 166.27C252.42 139.55 292.073 134.821 303.411 109.012C309.279 95.6235 305.804 80.0129 300.22 66.4533C292.301 47.1964 278.97 28.5662 259.257 22.0143C238.291 15.0636 215.786 23.2108 194.706 29.7627C173.626 36.3146 148.9 40.6445 130.953 27.7686C122.806 21.9574 117.223 13.2405 109.589 6.80251C103.948 1.9598 95.9721 -1.34463 89.876 0.535476Z" fill="#A2E5B2"/>
</svg>
