<svg width="140" height="251" viewBox="0 0 140 251" fill="none" xmlns="http://www.w3.org/2000/svg">
<path d="M175.871 30.7692C188.644 56.4552 221.481 72.7694 237.726 85.543C252.582 97.2058 279.24 127.751 278.476 149.272C277.643 170.723 261.329 192.105 239.947 193.91C230.645 194.674 221.273 191.966 211.97 192.591C182.119 194.605 165.457 228.135 139.216 242.506C108.948 259.028 70.4191 247.365 42.3727 227.233C24.6007 214.39 8.56431 197.451 2.87173 176.277C-2.82085 155.104 4.53782 129.417 23.8371 119.004C41.2619 109.632 67.7116 111.021 74.515 92.4157C79.2356 79.4338 70.0025 65.8966 67.9199 52.2205C64.6571 30.8386 80.9712 9.52611 101.589 3.00046C122.208 -3.52518 145.325 2.65335 163.097 15.0104C168.512 18.6204 172.608 24.2435 175.871 30.7692Z" fill="#A2E5B2"/>
</svg>
