<svg width="307" height="260" viewBox="0 0 307 260" fill="none" xmlns="http://www.w3.org/2000/svg">
<path d="M72.7852 32.8844C36.9874 51.4491 10.3546 86.8552 2.36471 126.413C-0.925234 142.784 -1.16027 160.017 4.08798 175.84C9.96289 193.779 22.5743 208.897 37.1441 220.881C75.2918 251.979 126.991 262.319 176.105 259.578C215.193 257.384 255.926 246.418 282.715 217.905C309.505 189.392 316.163 140.043 289.138 111.765C278.407 100.485 263.759 93.6701 252.244 83.1736C224.515 57.8724 214.018 11.3431 177.672 1.70826C166.549 -1.26836 154.721 0.141614 143.441 2.17825C112.813 7.66149 88.4516 24.6596 72.7852 32.8844Z" fill="white" fill-opacity="0.5"/>
<path d="M208.477 93.6591L189.159 81.8409L174.841 73.0909L146.659 55.9318C144.614 54.6818 142.227 54 139.727 54C137.341 54 134.955 54.6818 132.796 55.9318L70.9773 93.6591C68.4773 95.1364 67 97.8637 67 100.705V173.545C67 178.205 69.5001 182.523 73.3637 184.909L135.409 222.75C136.659 223.545 138.25 224 139.727 224C141.205 224 142.682 223.545 144.046 222.75L168.136 208.091L182.455 199.341L206.091 184.909C209.955 182.523 212.455 178.205 212.455 173.545V100.705C212.455 97.8637 210.977 95.1364 208.477 93.6591ZM205.068 173.545C205.068 175.591 204.045 177.523 202.227 178.545L172.341 196.727L158.023 205.477L139.727 216.614L77.2273 178.545C75.5227 177.523 74.3864 175.591 74.3864 173.545V100.25L136.659 62.2954C137.568 61.7273 138.591 61.3864 139.727 61.3864C140.75 61.3864 141.887 61.7273 142.796 62.2954L164.727 75.7046L179.046 84.4545L205.068 100.25V173.545Z" fill="#231F20"/>
<path d="M201.319 69.0003C202.001 69.0003 202.796 69.2275 203.364 69.6821L205.296 70.9321L237.683 92.523C238.705 93.2048 239.273 94.3412 239.273 95.5912V187.296C239.273 188.546 238.592 189.682 237.569 190.478L203.251 213.318C202.683 213.773 201.887 213.887 201.205 213.887C200.864 213.887 200.523 213.887 200.069 213.773L171.774 206.728L168.705 205.932L164.614 204.909L173.364 199.455L181.887 201.614L184.955 202.409L199.614 206.046L200.637 206.273L201.432 205.705L230.978 186.046L232.001 185.364V184.114V98.8866V97.6366L230.978 96.9548L201.432 77.2957L200.637 76.7275L199.614 76.9548L191.66 78.8866L188.592 79.6821L179.501 81.9548L170.637 76.6139L175.41 75.3639L178.478 74.5684L200.41 69.1139C200.751 69.0002 200.978 69.0003 201.319 69.0003ZM201.319 66.7275C200.864 66.7275 200.41 66.8412 199.842 66.9548L177.91 72.4094L174.842 73.2048L164.728 75.7048L179.046 84.4548L189.16 81.9548L192.228 81.1593L200.183 79.2275L229.728 98.8866V184.114L200.183 203.773L185.523 200.137L182.455 199.341L173.023 196.955L158.819 205.705L168.137 208.091L171.205 208.887L199.501 215.932C200.069 216.159 200.637 216.159 201.205 216.159C202.342 216.159 203.478 215.818 204.501 215.137L238.819 192.296C240.524 191.273 241.546 189.341 241.546 187.296V95.5912C241.546 93.6594 240.637 91.7275 238.932 90.5912L204.501 67.6366C203.705 67.0684 202.569 66.7275 201.319 66.7275ZM172.342 196.841L172.91 196.955L172.342 196.841ZM158.023 205.478L158.251 205.932L158.819 205.591L158.023 205.478Z" fill="#231F20"/>
<path d="M105.411 159.795L70.752 138.659V98.0908L105.411 119.227V159.795ZM74.161 136.727L102.002 153.659V121.045L74.161 104.114V136.727Z" fill="#231F20"/>
<path d="M139.956 221.159L105.297 200.022V159.454L139.956 180.59V221.159ZM108.592 198.09L136.433 215.022V182.409L108.592 165.477V198.09Z" fill="#231F20"/>
<path d="M139.843 98.3182L105.184 77.1818L133.934 59.6818C137.57 57.5227 142.002 57.5227 145.638 59.6818L174.388 77.1818L139.843 98.3182ZM111.661 77.1818L139.729 94.3409L167.797 77.1818L143.82 62.5227C141.32 60.9318 138.138 60.9318 135.638 62.5227L111.661 77.1818Z" fill="#231F20"/>
<path d="M139.843 140.364L105.184 119.227L139.843 98.0908L174.502 119.227L139.843 140.364ZM111.661 119.227L139.729 136.386L167.797 119.227L139.729 102.068L111.661 119.227Z" fill="#231F20"/>
<path d="M139.729 180.818V140.25L174.388 119.113V159.681L139.729 180.818ZM143.138 142.068V174.681L170.979 157.75V125.136L143.138 142.068Z" fill="#231F20"/>
<path d="M174.16 200.136V159.568L208.819 138.432V172.75C208.819 176.613 206.774 180.363 203.365 182.409L174.16 200.136ZM177.569 161.5V194.113L201.66 179.454C203.933 178.091 205.41 175.477 205.41 172.75V144.568L177.569 161.5Z" fill="#231F20"/>
<path d="M174.16 159.795V119.227L208.819 98.0908V138.659L174.16 159.795ZM177.569 121.045V153.659L205.41 136.727V104.114L177.569 121.045Z" fill="#231F20"/>
<path d="M139.729 221.159V180.59L174.388 159.454V200.022L139.729 221.159ZM143.138 182.522V215.136L170.979 198.204V165.59L143.138 182.522Z" fill="#231F20"/>
<path d="M174.274 119.34L139.615 98.2038L174.274 77.0674L208.933 98.2038L174.274 119.34ZM146.206 98.2038L174.274 115.363L202.342 98.2038L174.274 81.0447L146.206 98.2038Z" fill="#231F20"/>
<path d="M105.296 119.34L70.6367 98.2038L105.296 77.0674L139.955 98.2038L105.296 119.34ZM77.2274 98.2038L105.296 115.363L133.364 98.2038L105.296 81.0447L77.2274 98.2038Z" fill="#231F20"/>
<path d="M139.956 180.818L105.297 159.681V119.113L139.956 140.25V180.818ZM108.592 157.75L136.433 174.681V142.068L108.592 125.136V157.75Z" fill="#231F20"/>
<path d="M105.409 200.137L76.091 182.296C72.7956 180.25 70.6367 176.614 70.6367 172.637V138.318L105.296 159.455V200.137H105.409ZM74.1593 144.455V172.637C74.1593 175.364 75.6366 177.977 77.9093 179.341L102 194V161.387L74.1593 144.455Z" fill="#231F20"/>
</svg>
