<svg width="307" height="260" viewBox="0 0 307 260" fill="none" xmlns="http://www.w3.org/2000/svg">
<path d="M233.617 32.8844C269.415 51.4491 296.048 86.8552 304.038 126.413C307.328 142.784 307.563 160.017 302.314 175.84C296.439 193.779 283.828 208.897 269.258 220.881C231.111 251.979 179.411 262.319 130.297 259.578C91.2094 257.384 50.4767 246.418 23.6872 217.905C-3.10242 189.392 -9.76071 140.043 17.2639 111.765C27.9954 100.485 42.6434 93.6701 54.1583 83.1736C81.8878 57.8724 92.3844 11.3431 128.73 1.70826C139.854 -1.26836 151.682 0.141614 162.962 2.17825C193.589 7.66149 217.951 24.6596 233.617 32.8844Z" fill="white" fill-opacity="0.5"/>
<path d="M148.32 218.183L137.226 215.41V60.2327H104.914V207.089L93.8203 204.316V54.8243C93.8203 51.6348 96.4551 49 99.6446 49H142.634C145.823 49 148.458 51.6348 148.458 54.8243V218.183H148.32Z" fill="#231F20"/>
<path d="M139.158 122.318L95.834 158.272L102.919 166.809L146.243 130.855L139.158 122.318Z" fill="#231F20"/>
<path d="M103.016 86.4436L95.9316 94.9805L139.256 130.935L146.341 122.398L103.016 86.4436Z" fill="#231F20"/>
<path d="M139.137 50.354L95.8125 86.3086L102.897 94.8454L146.222 58.8909L139.137 50.354Z" fill="#231F20"/>
<path d="M102.971 158.014L95.8867 166.551L139.211 202.505L146.296 193.968L102.971 158.014Z" fill="#231F20"/>
<path d="M230.141 109.462C232.637 109.462 234.717 111.542 234.717 114.038V193.776C234.717 195.302 233.884 196.688 232.636 197.659L190.757 225.533C190.063 226.088 189.092 226.226 188.26 226.226C187.844 226.226 187.428 226.226 186.874 226.088H186.735L75.2404 198.214C73.2989 197.659 71.7735 195.856 71.7735 193.915V114.177C71.7735 111.681 73.8537 109.601 76.3498 109.601H230.141V109.462ZM187.29 216.796L188.26 216.103L224.316 192.112L225.564 191.28V189.755V121.249V118.476H222.791H83.5609H80.7874V121.249V187.952V190.171L82.8675 190.725L186.042 216.519L187.29 216.796ZM230.141 106.688H76.3498C72.3283 106.688 69 110.017 69 114.038V193.776C69 197.104 71.2188 200.017 74.547 200.849L186.042 228.722C186.735 229 187.429 229 188.122 229C189.509 229 190.895 228.584 192.143 227.752L234.023 199.878C236.103 198.63 237.352 196.272 237.352 193.776V114.038C237.352 109.878 234.162 106.688 230.141 106.688ZM186.735 213.745L83.5609 187.952V121.249H222.791V189.755L186.735 213.745Z" fill="#231F20"/>
<path d="M200.88 96.8427H142.775V85.7487H200.88C206.15 85.7487 210.448 81.4498 210.448 76.1801C210.448 70.9105 206.15 66.6116 200.88 66.6116H142.775V55.5176H200.88C212.251 55.5176 221.542 64.8088 221.542 76.1801C221.542 87.5515 212.251 96.8427 200.88 96.8427Z" fill="#231F20"/>
<path d="M200.879 96.0107H181.188V108.908H200.879V96.0107Z" fill="#231F20"/>
<path d="M196.86 99.8936H185.211V112.79H196.86V99.8936Z" fill="#231F20"/>
<path d="M193.115 110.71H188.955V131.373H193.115V110.71Z" fill="#231F20"/>
<path d="M201.157 146.905C199.77 151.204 195.748 154.254 191.033 154.254C185.209 154.254 180.356 149.54 180.356 143.577C180.356 137.752 185.209 132.899 191.033 132.899C191.727 132.899 192.42 132.899 193.114 133.176V129.016C192.42 128.877 191.727 128.877 191.033 128.877C190.34 128.877 189.647 128.877 188.953 129.016C181.742 129.986 176.195 136.227 176.195 143.715C176.195 151.897 182.852 158.553 191.033 158.553C198.106 158.553 203.93 153.561 205.456 147.043H201.157V146.905Z" fill="#231F20"/>
</svg>
