<svg width="290" height="235" viewBox="0 0 290 235" fill="none" xmlns="http://www.w3.org/2000/svg">
<path d="M289.636 97.4587C289.636 175.111 250.468 194.798 153.362 229.408C88.7015 245.336 38.7188 229.408 30.2989 153.404C-4.30984 109.356 -18.603 53.115 38.7188 21.7505C112.264 -31.2456 289.636 19.8069 289.636 97.4587Z" fill="white" fill-opacity="0.5"/>
<path d="M174.051 60.7172C174.756 60.7172 175.579 60.9522 176.166 61.3047L178.047 62.4797L211.769 84.9225C212.827 85.6275 213.414 86.8026 213.414 88.0951V182.919C213.414 184.211 212.709 185.386 211.652 186.209L176.166 209.827C175.579 210.297 174.756 210.414 174.051 210.414C173.699 210.414 173.346 210.414 172.876 210.297H172.759L78.2876 186.679C76.6425 186.209 75.35 184.681 75.35 183.036V88.2126C75.35 86.3326 76.6427 84.8051 78.4052 84.4526H78.5228H78.6401L173.112 60.8347C173.464 60.7172 173.816 60.7172 174.051 60.7172ZM173.347 202.542L174.169 201.954L204.719 181.626L205.777 180.921V179.629V91.5026V90.2101L204.719 89.5051L174.169 69.1773L173.347 68.5898L172.289 68.8249L84.8678 90.6801L83.1053 91.1502V93.0302V178.219V180.099L84.8678 180.569L172.289 202.424L173.347 202.542ZM174.051 58.3672C173.581 58.3672 173.112 58.4847 172.524 58.6022L78.0526 82.22C75.2326 82.8075 73 85.275 73 88.3301V183.154C73 185.974 74.88 188.441 77.7001 189.146L172.172 212.764C172.759 212.999 173.347 212.999 173.934 212.999C175.109 212.999 176.284 212.647 177.341 211.942L212.827 188.324C214.589 187.266 215.647 185.269 215.647 183.154V88.3301C215.647 86.3326 214.707 84.335 212.945 83.16L177.459 59.4247C176.519 58.7197 175.344 58.3672 174.051 58.3672ZM172.876 199.957L85.4553 178.101V93.0302L172.876 71.1749L203.427 91.5026V179.629L172.876 199.957Z" fill="#231F20"/>
<path d="M79.3448 109.247H209.654C213.062 109.247 215.882 112.067 215.882 115.475V183.038C215.882 185.271 214.707 187.151 213.062 188.208L177.576 211.826C175.931 212.883 174.051 213.118 172.288 212.648L77.8173 189.031C74.9972 188.326 73.1172 185.858 73.1172 183.038V115.475C73.1172 112.067 75.9373 109.247 79.3448 109.247ZM203.426 121.585H85.4549V178.103L172.876 199.958L203.426 179.631V121.585Z" fill="#231F20"/>
<path d="M124.585 166.47C120.707 166.47 116.947 164.942 114.127 162.122C111.307 159.302 109.779 155.66 109.779 151.665V78.9311C109.779 75.0536 111.307 71.2935 114.127 68.4735C116.947 65.6534 120.59 64.126 124.585 64.126C128.462 64.126 132.222 65.6534 135.042 68.4735C137.862 71.2935 139.39 74.9361 139.39 78.9311V151.782C139.39 155.66 137.862 159.42 135.042 162.24C132.105 164.942 128.462 166.47 124.585 166.47ZM124.585 74.3486C123.292 74.3486 122.117 74.8186 121.295 75.7586C120.354 76.6986 119.885 77.8736 119.885 79.0486V151.782C119.885 153.075 120.354 154.25 121.295 155.072C122.235 156.012 123.41 156.482 124.585 156.482C125.76 156.482 127.052 156.012 127.875 155.072C128.815 154.132 129.285 152.957 129.285 151.782V79.0486C129.285 77.7561 128.815 76.5811 127.875 75.7586C126.935 74.8186 125.76 74.3486 124.585 74.3486Z" fill="#231F20"/>
<path d="M174.051 207.712C170.174 207.712 166.414 206.185 163.594 203.365C160.774 200.545 159.246 196.902 159.246 192.907V37.8052C159.246 33.9276 160.774 30.1675 163.594 27.3475C166.414 24.5275 170.056 23 174.051 23C178.046 23 181.689 24.5275 184.509 27.3475C187.329 30.1675 188.856 33.8101 188.856 37.8052V192.907C188.856 196.785 187.329 200.545 184.509 203.365C181.689 206.185 178.046 207.712 174.051 207.712ZM174.051 33.1051C172.759 33.1051 171.584 33.5751 170.761 34.5151C169.821 35.4552 169.351 36.6302 169.351 37.8052V192.907C169.351 194.2 169.821 195.375 170.761 196.197C171.701 197.137 172.876 197.607 174.051 197.607C175.226 197.607 176.519 197.137 177.341 196.197C178.281 195.257 178.751 194.082 178.751 192.907V37.8052C178.751 36.5127 178.281 35.3377 177.341 34.5151C176.519 33.5751 175.344 33.1051 174.051 33.1051Z" fill="#231F20"/>
</svg>
