<svg width="138" height="196" viewBox="0 0 138 196" fill="none" xmlns="http://www.w3.org/2000/svg">
<g clip-path="url(#clip0_604_382)">
<path d="M84.4081 39.1531H84.0861C78.5534 39.0175 73.2833 35.5861 69.623 29.6551L62.9719 18.9709C61.6502 16.8443 60.1081 15.675 58.6084 15.675C57.1087 15.675 55.5752 16.8443 54.2534 18.9709L47.6023 29.6551C43.9336 35.5861 38.6635 38.9752 33.1393 39.1192H32.5038C26.9711 39.0175 21.701 35.5861 18.0408 29.6551L11.3896 18.9709C10.0679 16.8443 8.49194 15.675 7.02615 15.675C5.56035 15.675 3.99289 16.8443 2.67113 18.9709L-3.98 29.6551C-7.60635 35.5861 -12.9188 39.0175 -18.443 39.1446H-19.0785C-24.6112 39.026 -29.8813 35.5861 -33.5415 29.6551L-40.1927 18.9709C-41.4975 16.8443 -43.0649 15.675 -44.5561 15.675C-46.0474 15.675 -47.5979 16.8443 -48.9112 18.9709L-59.5276 36.0605C-61.5949 39.3819 -65.6025 40.1444 -68.4748 37.7551C-69.8893 36.4739 -70.8111 34.7381 -71.0803 32.8487C-71.3496 30.9593 -70.9494 29.0352 -69.9491 27.4098L-59.2903 10.3202C-55.5962 4.29608 -50.2075 0.847656 -44.5561 0.847656C-38.9048 0.847656 -33.5415 4.29608 -29.7711 10.3202L-23.12 21.0298C-21.8237 23.1226 -20.2901 24.2918 -18.8243 24.3173H-18.7057C-17.2314 24.3173 -15.7063 23.1226 -14.4015 21.0298L-7.75038 10.3202C-4.01389 4.29608 1.37479 0.847656 7.02615 0.847656C12.6775 0.847656 18.0408 4.29608 21.8111 10.3202L28.4623 21.0298C29.7671 23.1226 31.2922 24.2918 32.7665 24.3173H32.8766C34.3509 24.3173 35.876 23.1226 37.1808 21.0298L43.8319 10.3202C47.5684 4.30455 52.9571 0.847656 58.6084 0.847656C64.2598 0.847656 69.6231 4.29608 73.3934 10.3202L80.0446 21.0298C81.3494 23.1226 82.8745 24.2918 84.3487 24.3173H84.4674C85.9332 24.3173 87.4667 23.1226 88.7631 21.0298L95.4142 10.3202C99.1507 4.29608 104.539 0.847656 110.165 0.847656C115.791 0.847656 121.18 4.29608 124.942 10.3202L135.584 27.4098C136.583 29.0347 136.984 30.9578 136.716 32.8468C136.449 34.7357 135.53 36.4718 134.118 37.7551C131.237 40.1444 127.229 39.3819 125.162 36.0605L114.554 18.9709C113.232 16.8443 111.69 15.675 110.199 15.675C108.708 15.675 107.157 16.8443 105.836 18.9709L99.1507 29.6551C95.4904 35.5861 90.2204 38.9752 84.6877 39.1192L84.4081 39.1531Z" fill="#8E94DD" stroke="#231F20" stroke-width="2" stroke-miterlimit="10"/>
</g>
<g clip-path="url(#clip1_604_382)">
<path d="M84.4081 117.153H84.0861C78.5534 117.018 73.2833 113.586 69.623 107.655L62.9719 96.9709C61.6502 94.8443 60.1081 93.675 58.6084 93.675C57.1087 93.675 55.5752 94.8443 54.2534 96.9709L47.6023 107.655C43.9336 113.586 38.6635 116.975 33.1393 117.119H32.5038C26.9711 117.018 21.701 113.586 18.0408 107.655L11.3896 96.9709C10.0679 94.8443 8.49194 93.675 7.02615 93.675C5.56035 93.675 3.99289 94.8443 2.67113 96.9709L-3.98 107.655C-7.60635 113.586 -12.9188 117.018 -18.443 117.145H-19.0785C-24.6112 117.026 -29.8813 113.586 -33.5415 107.655L-40.1927 96.9709C-41.4975 94.8443 -43.0649 93.675 -44.5561 93.675C-46.0474 93.675 -47.5979 94.8443 -48.9112 96.9709L-59.5276 114.061C-61.5949 117.382 -65.6025 118.144 -68.4748 115.755C-69.8893 114.474 -70.8111 112.738 -71.0803 110.849C-71.3496 108.959 -70.9494 107.035 -69.9491 105.41L-59.2903 88.3202C-55.5962 82.2961 -50.2075 78.8477 -44.5561 78.8477C-38.9048 78.8477 -33.5415 82.2961 -29.7711 88.3202L-23.12 99.0298C-21.8237 101.123 -20.2901 102.292 -18.8243 102.317H-18.7057C-17.2314 102.317 -15.7063 101.123 -14.4015 99.0298L-7.75038 88.3202C-4.01389 82.2961 1.37479 78.8477 7.02615 78.8477C12.6775 78.8477 18.0408 82.2961 21.8111 88.3202L28.4623 99.0298C29.7671 101.123 31.2922 102.292 32.7665 102.317H32.8766C34.3509 102.317 35.876 101.123 37.1808 99.0298L43.8319 88.3202C47.5684 82.3046 52.9571 78.8477 58.6084 78.8477C64.2598 78.8477 69.6231 82.2961 73.3934 88.3202L80.0446 99.0298C81.3494 101.123 82.8745 102.292 84.3487 102.317H84.4674C85.9332 102.317 87.4667 101.123 88.7631 99.0298L95.4142 88.3202C99.1507 82.2961 104.539 78.8477 110.165 78.8477C115.791 78.8477 121.18 82.2961 124.942 88.3202L135.584 105.41C136.583 107.035 136.984 108.958 136.716 110.847C136.449 112.736 135.53 114.472 134.118 115.755C131.237 118.144 127.229 117.382 125.162 114.061L114.554 96.9709C113.232 94.8443 111.69 93.675 110.199 93.675C108.708 93.675 107.157 94.8443 105.836 96.9709L99.1507 107.655C95.4904 113.586 90.2204 116.975 84.6877 117.119L84.4081 117.153Z" fill="#8E94DD" stroke="#231F20" stroke-width="2" stroke-miterlimit="10"/>
</g>
<g clip-path="url(#clip2_604_382)">
<path d="M83.4081 195.153H83.0861C77.5534 195.018 72.2833 191.586 68.623 185.655L61.9719 174.971C60.6502 172.844 59.1081 171.675 57.6084 171.675C56.1087 171.675 54.5752 172.844 53.2534 174.971L46.6023 185.655C42.9336 191.586 37.6635 194.975 32.1393 195.119H31.5038C25.9711 195.018 20.701 191.586 17.0408 185.655L10.3896 174.971C9.06787 172.844 7.49194 171.675 6.02615 171.675C4.56035 171.675 2.99289 172.844 1.67113 174.971L-4.98 185.655C-8.60635 191.586 -13.9188 195.018 -19.443 195.145H-20.0785C-25.6112 195.026 -30.8813 191.586 -34.5415 185.655L-41.1927 174.971C-42.4975 172.844 -44.0649 171.675 -45.5561 171.675C-47.0474 171.675 -48.5979 172.844 -49.9112 174.971L-60.5276 192.061C-62.5949 195.382 -66.6025 196.144 -69.4748 193.755C-70.8893 192.474 -71.8111 190.738 -72.0803 188.849C-72.3496 186.959 -71.9494 185.035 -70.9491 183.41L-60.2903 166.32C-56.5962 160.296 -51.2075 156.848 -45.5561 156.848C-39.9048 156.848 -34.5415 160.296 -30.7711 166.32L-24.12 177.03C-22.8237 179.123 -21.2901 180.292 -19.8243 180.317H-19.7057C-18.2314 180.317 -16.7063 179.123 -15.4015 177.03L-8.75038 166.32C-5.01389 160.296 0.374794 156.848 6.02615 156.848C11.6775 156.848 17.0408 160.296 20.8111 166.32L27.4623 177.03C28.7671 179.123 30.2922 180.292 31.7665 180.317H31.8766C33.3509 180.317 34.876 179.123 36.1808 177.03L42.8319 166.32C46.5684 160.305 51.9571 156.848 57.6084 156.848C63.2598 156.848 68.6231 160.296 72.3934 166.32L79.0446 177.03C80.3494 179.123 81.8745 180.292 83.3487 180.317H83.4674C84.9332 180.317 86.4667 179.123 87.7631 177.03L94.4142 166.32C98.1507 160.296 103.539 156.848 109.165 156.848C114.791 156.848 120.18 160.296 123.942 166.32L134.584 183.41C135.583 185.035 135.984 186.958 135.716 188.847C135.449 190.736 134.53 192.472 133.118 193.755C130.237 196.144 126.229 195.382 124.162 192.061L113.554 174.971C112.232 172.844 110.69 171.675 109.199 171.675C107.708 171.675 106.157 172.844 104.836 174.971L98.1507 185.655C94.4904 191.586 89.2204 194.975 83.6877 195.119L83.4081 195.153Z" fill="#8E94DD" stroke="#231F20" stroke-width="2" stroke-miterlimit="10"/>
</g>
<defs>
<clipPath id="clip0_604_382">
<rect width="209.642" height="40" fill="white" transform="translate(-72)"/>
</clipPath>
<clipPath id="clip1_604_382">
<rect width="209.642" height="40" fill="white" transform="translate(-72 78)"/>
</clipPath>
<clipPath id="clip2_604_382">
<rect width="209.642" height="40" fill="white" transform="translate(-73 156)"/>
</clipPath>
</defs>
</svg>
