<svg width="331" height="471" viewBox="0 0 331 471" fill="none" xmlns="http://www.w3.org/2000/svg">
<path d="M97.5515 1.39224C114.57 6.72491 131.588 12.2057 149.198 15.0202C190.042 21.6861 229.258 37.536 255.007 69.0876C288.748 110.416 284.456 183.592 236.509 206.848C198.625 225.068 137.655 217.069 128.924 258.101C125.373 274.544 132.92 291.431 146.535 301.207C177.759 323.723 215.051 316.02 249.236 324.76C314.349 341.35 351.345 426.229 319.233 485.333C287.12 544.437 195.961 559.398 146.535 513.626C136.472 504.293 127.741 492.739 115.458 486.666C82.0132 469.779 43.093 500.294 25.3348 533.327C7.57667 566.36 -2.78227 606.207 -33.1191 628.278C-56.6487 645.313 -87.2815 647.831 -116.287 649.164C-151.951 650.794 -188.651 651.09 -222.54 639.98C-256.576 628.871 -287.949 603.985 -298.012 569.619C-311.035 525.328 -286.765 476.001 -301.415 432.302C-324.649 362.829 -427.647 350.534 -457.095 283.432C-472.338 248.621 -463.311 208.033 -448.808 172.779C-428.238 122.711 -393.61 74.2722 -342.407 57.2372C-287.949 39.1654 -229.495 60.348 -174.741 77.383C-119.986 94.4179 -55.7605 105.676 -9.14532 72.1984C12.0165 57.0892 26.519 34.4252 46.349 17.6865C60.9995 5.09548 81.7171 -3.49605 97.5515 1.39224Z" fill="#F3CE64"/>
</svg>
