<svg width="292" height="270" viewBox="0 0 292 270" fill="none" xmlns="http://www.w3.org/2000/svg">
<path d="M107.28 58.8034C49.791 61.6918 11.9618 87.2219 3.85557 112.845C-4.15751 138.282 0.873911 166.607 13.8253 189.901C26.7766 213.195 46.9957 231.737 69.2646 246.365C86.6884 257.826 105.976 267.237 126.66 269.473C146.879 271.616 167.099 266.864 186.852 261.739C212.195 255.124 237.725 247.67 259.715 233.6C277.698 222.14 294.19 202.759 290.463 181.795C287.295 163.905 270.337 150.674 267.448 132.785C263.442 107.627 288.04 86.6628 291.301 61.4123C295.122 31.9689 258.597 1.68696 238.378 0.289327C163.651 -4.74214 134.021 57.499 107.28 58.8034Z" fill="white" fill-opacity="0.5"/>
<path d="M80.5766 178.032C77.1689 178.884 73.6393 176.937 72.7874 173.529C71.9354 170.122 73.8826 166.592 77.2903 165.74C77.412 165.74 107.96 157.464 135.1 171.46C146.783 177.545 162.605 180.101 177.209 179.006C190.597 178.032 202.767 174.016 208.974 166.836C211.287 164.158 215.303 163.915 217.98 166.227C220.658 168.539 220.901 172.556 218.589 175.233C209.948 184.969 194.613 190.446 178.061 191.663C161.266 192.88 143.011 189.838 129.136 182.657C106.621 170.973 80.6983 178.032 80.5766 178.032Z" fill="#231F20"/>
<path d="M194.613 151.258V206.877L181.834 215.396V151.258C181.834 147.728 184.755 144.808 188.284 144.808C191.814 144.808 194.613 147.728 194.613 151.258Z" fill="#231F20"/>
<path d="M110.271 151.258V202.86L97.4922 199.696V151.258C97.4922 147.728 100.413 144.808 103.943 144.808C107.35 144.808 110.271 147.728 110.271 151.258Z" fill="#231F20"/>
<path d="M137.654 151.258V209.676L124.875 206.511V151.258C124.875 147.728 127.796 144.808 131.325 144.808C134.855 144.808 137.654 147.728 137.654 151.258Z" fill="#231F20"/>
<path d="M166.621 151.258V216.978L153.842 213.814V151.38C153.842 147.85 156.641 144.929 160.292 144.929C163.7 144.808 166.621 147.729 166.621 151.258Z" fill="#231F20"/>
<path d="M34.4504 157.586C30.921 157.586 28 154.665 28 151.136C28 147.606 30.921 144.686 34.4504 144.686H258.386C261.915 144.686 264.836 147.606 264.836 151.136C264.836 154.665 261.915 157.586 258.386 157.586H34.4504Z" fill="#231F20"/>
<path d="M194.614 151.258C194.614 154.787 191.693 157.708 188.163 157.708C184.634 157.708 181.713 154.787 181.713 151.258V56.4503C181.713 52.9209 184.634 50 188.163 50C191.693 50 194.614 52.9209 194.614 56.4503V151.258Z" fill="#231F20"/>
<path d="M110.272 151.258C110.272 154.787 107.351 157.708 103.821 157.708C100.292 157.708 97.3711 154.787 97.3711 151.258V56.4503C97.3711 52.9209 100.292 50 103.821 50C107.351 50 110.272 52.9209 110.272 56.4503V151.258Z" fill="#231F20"/>
<path d="M37.6161 156.735C34.5735 158.438 30.6791 157.465 28.8535 154.422C27.1497 151.38 28.1232 147.485 31.1658 145.659C49.0562 135.436 62.4437 122.536 72.9103 107.323C83.4985 91.9881 91.1657 74.2193 97.7377 54.5033C98.8331 51.0956 102.484 49.27 105.77 50.3654C109.178 51.4607 111.003 55.1118 109.908 58.3978C103.093 79.2092 94.8169 97.9516 83.4984 114.503C71.9366 131.298 57.2105 145.538 37.6161 156.735Z" fill="#231F20"/>
<path d="M260.82 145.659C263.862 147.363 264.958 151.258 263.132 154.422C261.428 157.465 257.534 158.56 254.369 156.735C234.775 145.538 220.049 131.298 208.487 114.503C197.047 97.9516 188.893 79.0875 182.077 58.3978C180.982 54.9901 182.807 51.4607 186.215 50.3654C189.623 49.27 193.152 51.0956 194.248 54.5033C200.698 74.2193 208.487 91.9881 219.075 107.323C229.542 122.536 242.929 135.436 260.82 145.659Z" fill="#231F20"/>
<path d="M190.962 145.416C194.126 146.876 195.465 150.771 194.004 153.935C192.544 157.099 188.649 158.438 185.485 156.978C161.753 145.781 143.984 131.663 130.11 114.99C116.236 98.4381 106.256 79.574 97.9799 58.7626C96.6411 55.4766 98.2235 51.8255 101.509 50.4867C104.795 49.148 108.447 50.7301 109.785 54.0162C117.696 73.6105 127.067 91.3792 139.968 106.714C152.747 122.17 169.055 135.071 190.962 145.416Z" fill="#231F20"/>
<path d="M106.621 156.978C103.457 158.438 99.6839 157.1 98.1018 153.935C96.6413 150.771 97.9801 146.998 101.144 145.416C123.051 135.071 139.481 122.049 152.26 106.836C165.161 91.5013 174.532 73.7325 182.443 54.1382C183.781 50.8522 187.433 49.2701 190.719 50.6088C194.005 51.9476 195.587 55.5987 194.248 58.8847C185.972 79.696 175.871 98.5601 162.118 115.112C148 131.664 130.232 145.781 106.621 156.978Z" fill="#231F20"/>
<path d="M176.722 72.272C177.574 72.272 178.304 72.5154 179.034 73.0022L215.667 97.343C216.763 98.0732 217.493 99.2902 217.493 100.629V102.698V198.722C217.493 200.061 216.763 201.278 215.667 202.13L178.912 226.592C178.304 227.079 177.452 227.201 176.722 227.201C176.357 227.201 175.992 227.201 175.505 227.079H175.383L77.5333 202.617C75.8295 202.13 74.4907 200.548 74.4907 198.722V100.507C74.4907 98.56 75.8293 96.9779 77.6548 96.6127H77.7767H77.8982L175.748 72.1503C176.113 72.3937 176.357 72.272 176.722 72.272ZM175.992 219.29L176.844 218.682L208.487 197.627L209.582 196.897V195.558V104.28V102.941L208.487 102.211L176.844 81.1563L175.992 80.5478L174.896 80.7912L84.3486 103.428L82.523 103.915V105.862V193.976V195.923L84.3486 196.41L174.896 219.047L175.992 219.29ZM176.722 69.8379C176.235 69.8379 175.748 69.9596 175.14 70.0813L77.2897 94.5438C74.3688 95.1523 72.0566 97.7081 72.0566 100.872V199.087C72.0566 202.008 74.0039 204.564 76.9248 205.294L174.775 229.757C175.383 230 175.992 230 176.6 230C177.817 230 179.034 229.635 180.129 228.905L216.884 204.442C218.71 203.347 219.805 201.278 219.805 199.087V100.872C219.805 98.8034 218.831 96.7345 217.006 95.5174L180.373 71.1766C179.399 70.3247 178.061 69.8379 176.722 69.8379ZM175.505 216.613L84.9571 193.976V105.741L175.505 83.1036L207.148 104.158V195.436L175.505 216.613Z" fill="#231F20"/>
</svg>
