<svg width="452" height="523" viewBox="0 0 452 523" fill="none" xmlns="http://www.w3.org/2000/svg">
<path d="M440.556 507.945C465.646 500.309 491.173 495.509 517.355 494.2C552.482 492.673 587.608 474.129 612.699 448.385C646.517 413.914 666.153 368.535 685.134 324.247C719.17 245.271 751.897 149.277 703.68 77.9357C668.989 26.4481 603.754 7.03113 544.409 -11.9495C450.591 -42.2748 349.575 -91.1444 318.375 -184.52C310.739 -207.428 307.248 -232.954 292.193 -251.934C279.539 -267.86 259.903 -277.46 239.83 -280.95C152.995 -297.095 78.8137 -215.064 44.3412 -133.469C16.1961 -66.7095 0.923462 5.72223 0.0507202 78.154C-0.38562 107.17 1.79614 136.841 14.2324 163.021C45.6503 228.472 129.213 248.325 201.867 250.288C277.139 252.252 358.738 245.052 420.701 289.34C427.901 294.358 434.01 300.685 437.501 308.757C449.501 337.119 421.355 359.591 397.138 373.771L266.884 450.13C259.466 454.494 252.921 460.82 249.43 468.893C234.376 504.018 282.812 523.216 317.72 522.998C362.011 522.78 405.865 518.417 440.556 507.945Z" fill="#F3CE64"/>
</svg>
