<svg width="161" height="521" viewBox="0 0 161 521" fill="none" xmlns="http://www.w3.org/2000/svg">
<g clip-path="url(#clip0_604_384)">
<path d="M73.9053 21.8418L40.5208 10.2976C38.7675 9.69136 36.8453 9.80641 35.1768 10.6174C33.5084 11.4285 32.2305 12.8691 31.6243 14.6223L23.1188 39.2192C22.8839 39.8954 22.7846 40.6113 22.8267 41.3259C22.8687 42.0405 23.0512 42.7399 23.3637 43.3839C23.6762 44.0279 24.1126 44.604 24.648 45.0793C25.1833 45.5545 25.8071 45.9195 26.4836 46.1534L46.9282 53.223C47.6437 53.4701 48.4277 53.4251 49.1103 53.0979L63.3173 46.2996C63.9984 45.9728 64.7811 45.928 65.4951 46.1749C66.2092 46.4218 66.797 46.9405 67.1308 47.6183L74.1037 61.7404C74.4382 62.4194 75.027 62.9391 75.7423 63.1868L96.1868 70.2564C97.5533 70.7267 99.0505 70.6355 100.35 70.0028C101.649 69.3701 102.644 68.2476 103.116 66.8818L111.622 42.2849C112.228 40.5317 112.113 38.6094 111.302 36.941C110.491 35.2726 109.05 33.9947 107.297 33.3885L73.9053 21.8418Z" fill="#F49540"/>
<path d="M91.8257 62.793L80.8249 58.989C79.6643 58.5866 78.7091 57.743 78.1663 56.6411L72.6346 45.4467C71.8457 43.7797 70.5497 42.405 68.9322 41.5192C67.7556 40.8883 66.4467 40.5441 65.112 40.5145C63.7773 40.4849 62.4545 40.7708 61.2511 41.3489L49.8501 46.8011C48.7042 47.3515 47.3873 47.4269 46.186 47.011L35.25 43.2295C33.5541 42.643 32.1607 41.407 31.3762 39.7931C30.5917 38.1793 30.4804 36.3199 31.0668 34.624L35.8929 20.6675C36.3875 19.2431 37.4273 18.0733 38.7839 17.415C40.1404 16.7567 41.7028 16.6637 43.1279 17.1565L101.737 37.423C103.162 37.9158 104.333 38.954 104.993 40.3097C105.653 41.6653 105.748 43.2276 105.257 44.6533L100.431 58.6098C99.8447 60.3057 98.6087 61.6991 96.9948 62.4836C95.381 63.2681 93.5216 63.3794 91.8257 62.793Z" fill="#C4C3C3"/>
<path opacity="0.3" d="M54.8472 21.2091L32.0629 40.2551C32.8721 41.7423 34.2089 42.8726 35.8099 43.4232L42.0961 45.5969L66.4392 25.2175L54.8472 21.2091Z" fill="white"/>
<path opacity="0.3" d="M86.1064 32.0184L72.02 43.7896C72.4278 44.2958 72.7792 44.8449 73.0679 45.4272L76.9526 53.3322L97.6984 36.0268L86.1064 32.0184Z" fill="white"/>
<path d="M30.8958 16.7202L19.5273 12.7891L14.1229 28.418L25.4914 32.3492L30.8958 16.7202Z" fill="#454444"/>
<path d="M10.7751 13.2893L18.4382 15.9391L15.215 25.2603L7.55187 22.6104C7.19816 22.4881 6.90753 22.2303 6.7439 21.8937C6.58028 21.5571 6.55707 21.1693 6.67938 20.8156L8.98024 14.1618C9.0408 13.9866 9.13526 13.8251 9.25824 13.6865C9.38121 13.5479 9.53029 13.4348 9.69695 13.3538C9.86362 13.2728 10.0446 13.2254 10.2296 13.2143C10.4146 13.2033 10.5999 13.2287 10.7751 13.2893Z" fill="#454444"/>
<path d="M105.491 60.0122L116.859 63.9434L122.264 48.3144L110.895 44.3832L105.491 60.0122Z" fill="#454444"/>
<path d="M125.611 63.4427L117.948 60.7928L121.171 51.4717L128.834 54.1215C129.185 54.2449 129.473 54.5015 129.635 54.8357C129.797 55.17 129.822 55.5548 129.702 55.9067L127.399 62.5677C127.277 62.9202 127.02 63.2101 126.685 63.374C126.35 63.538 125.964 63.5627 125.611 63.4427Z" fill="#454444"/>
<path d="M73.9053 21.8418L40.5208 10.2976C38.7675 9.69136 36.8453 9.80641 35.1768 10.6174C33.5084 11.4285 32.2305 12.8691 31.6243 14.6223L23.1188 39.2192C22.8839 39.8954 22.7847 40.6113 22.8267 41.3259C22.8687 42.0405 23.0512 42.7399 23.3637 43.3839C23.6762 44.0279 24.1126 44.604 24.648 45.0793C25.1833 45.5545 25.8071 45.9195 26.4836 46.1534L46.9282 53.223C47.6437 53.4701 48.4277 53.4251 49.1103 53.0979L63.3173 46.2996C63.9984 45.9728 64.7811 45.928 65.4951 46.1749C66.2092 46.4218 66.797 46.9405 67.1308 47.6183L74.1037 61.7404C74.4382 62.4194 75.027 62.9391 75.7423 63.1868L96.1868 70.2564C97.5533 70.7267 99.0505 70.6355 100.35 70.0028C101.649 69.3701 102.644 68.2476 103.116 66.8818L111.622 42.2849C112.228 40.5317 112.113 38.6094 111.302 36.941C110.491 35.2726 109.05 33.9947 107.297 33.3885L73.9053 21.8418Z" stroke="#1D1D1B" stroke-width="2" stroke-miterlimit="10"/>
<path d="M91.8257 62.793L80.8249 58.989C79.6643 58.5866 78.7091 57.743 78.1663 56.6411L72.6346 45.4467C71.8457 43.7797 70.5498 42.405 68.9322 41.5192C67.7556 40.8883 66.4467 40.5441 65.112 40.5145C63.7773 40.4849 62.4545 40.7708 61.2511 41.3489L49.8501 46.8011C48.7042 47.3515 47.3873 47.4269 46.186 47.011L35.25 43.2295C33.5541 42.643 32.1607 41.407 31.3762 39.7931C30.5917 38.1793 30.4804 36.3199 31.0668 34.624L35.8929 20.6675C36.3875 19.2431 37.4273 18.0733 38.7839 17.415C40.1404 16.7567 41.7028 16.6637 43.1279 17.1565L101.737 37.423C103.162 37.9158 104.333 38.954 104.993 40.3097C105.653 41.6653 105.748 43.2276 105.257 44.6533L100.431 58.6098C99.8447 60.3057 98.6087 61.6991 96.9948 62.4836C95.381 63.2681 93.5216 63.3794 91.8257 62.793V62.793Z" stroke="#1D1D1B" stroke-width="2" stroke-miterlimit="10"/>
<path d="M30.8958 16.7202L19.5273 12.7891L14.1229 28.418L25.4914 32.3492L30.8958 16.7202Z" stroke="#1D1D1B" stroke-width="2" stroke-miterlimit="10"/>
<path d="M10.7751 13.2893L18.4382 15.9391L15.215 25.2603L7.55187 22.6104C7.19816 22.4881 6.90753 22.2303 6.7439 21.8937C6.58028 21.5571 6.55707 21.1693 6.67938 20.8156L8.98024 14.1618C9.0408 13.9866 9.13526 13.8251 9.25824 13.6865C9.38121 13.5479 9.53029 13.4348 9.69695 13.3538C9.86362 13.2728 10.0446 13.2254 10.2296 13.2143C10.4146 13.2033 10.5999 13.2287 10.7751 13.2893V13.2893Z" stroke="#1D1D1B" stroke-width="2" stroke-miterlimit="10"/>
<path d="M105.491 60.0122L116.859 63.9434L122.264 48.3144L110.895 44.3832L105.491 60.0122Z" stroke="#1D1D1B" stroke-width="2" stroke-miterlimit="10"/>
<path d="M125.611 63.4427L117.948 60.7928L121.171 51.4717L128.834 54.1215C129.185 54.2449 129.473 54.5015 129.635 54.8357C129.797 55.17 129.822 55.5548 129.702 55.9067L127.399 62.5677C127.277 62.9202 127.02 63.2101 126.685 63.374C126.35 63.538 125.964 63.5627 125.611 63.4427Z" stroke="#1D1D1B" stroke-width="2" stroke-miterlimit="10"/>
<path opacity="0.3" d="M54.8472 21.2091L32.0629 40.2551C32.8721 41.7423 34.2089 42.8726 35.8099 43.4232L42.0961 45.5969L66.4392 25.2175L54.8472 21.2091Z" stroke="#1D1D1B" stroke-width="2" stroke-miterlimit="10"/>
<path opacity="0.3" d="M86.1064 32.0184L72.02 43.7896C72.4278 44.2958 72.7792 44.8449 73.0679 45.4272L76.9767 53.3324L97.6984 36.0268L86.1064 32.0184Z" stroke="#1D1D1B" stroke-width="2" stroke-miterlimit="10"/>
</g>
<g clip-path="url(#clip1_604_384)">
<path fill-rule="evenodd" clip-rule="evenodd" d="M96.7478 154.149L78.8398 222.154L146.69 203.663L96.7478 154.149Z" fill="#72B9ED" stroke="#231F20" stroke-width="2" stroke-miterlimit="10"/>
</g>
<path d="M85.2656 117C87.8699 122.873 93.2977 131.157 94.1716 142.342" stroke="#F2887C" stroke-width="5" stroke-linecap="round"/>
<path d="M48.9995 122.051C57.2819 126.804 75.7102 139.322 83.1643 151.376" stroke="#F2887C" stroke-width="5" stroke-linecap="round"/>
<path d="M76.4803 161.429C71.1623 160.089 59.6391 156.648 56.0901 153.601" stroke="#F2887C" stroke-width="5" stroke-linecap="round"/>
<g clip-path="url(#clip2_604_384)">
<path d="M92.6977 451.982C103.17 448.222 114.708 448.774 124.773 453.519C134.838 458.263 142.607 466.811 146.37 477.283L67.4017 505.667C65.5377 500.481 64.7133 494.979 64.9757 489.474C65.2382 483.97 66.5822 478.571 68.9312 473.586C71.2801 468.601 74.5879 464.127 78.6658 460.42C82.7437 456.713 87.5117 453.846 92.6977 451.982Z" fill="#EFDC70"/>
<path d="M92.6977 451.982C103.17 448.222 114.708 448.774 124.773 453.519C134.838 458.263 142.607 466.811 146.37 477.283L67.4017 505.667C65.5377 500.481 64.7133 494.979 64.9757 489.474C65.2382 483.97 66.5822 478.571 68.9312 473.586C71.2801 468.601 74.5879 464.127 78.6658 460.42C82.7437 456.713 87.5117 453.846 92.6977 451.982V451.982Z" stroke="#1D1D1B" stroke-width="2" stroke-miterlimit="10"/>
<path d="M102.51 479.277C104.829 478.444 106.722 476.724 107.772 474.495C108.822 472.266 108.944 469.711 108.11 467.393L102.58 452.006C101.746 449.687 100.026 447.795 97.7973 446.745C95.5685 445.694 93.0137 445.573 90.6951 446.406C88.3765 447.239 86.4839 448.96 85.4337 451.189C84.3835 453.417 84.2617 455.972 85.0951 458.291L90.6257 473.677C91.4591 475.996 93.1795 477.889 95.4083 478.939C97.6371 479.989 100.192 480.111 102.51 479.277Z" fill="#EDB52B"/>
<path d="M129.49 471.948C129.145 471.467 128.898 470.923 128.764 470.347C128.63 469.771 128.61 469.174 128.707 468.59C128.804 468.006 129.015 467.448 129.328 466.946C129.641 466.444 130.05 466.008 130.531 465.664L136.28 461.511C140.794 465.937 144.244 471.329 146.37 477.282L135.992 481.013L129.49 471.948Z" fill="#EDB52B"/>
<path d="M77.0381 490.802C76.9553 489.611 76.4028 488.501 75.5021 487.717C74.6014 486.932 73.4262 486.538 72.2347 486.619L65.1622 487.11C64.4995 493.396 65.2698 499.752 67.4154 505.698L77.8063 501.963L77.0381 490.802Z" fill="#EDB52B"/>
<path d="M102.51 479.277C104.829 478.444 106.722 476.724 107.772 474.495C108.822 472.266 108.944 469.711 108.11 467.393L102.58 452.006C101.746 449.687 100.026 447.795 97.7973 446.745C95.5685 445.694 93.0137 445.573 90.6951 446.406V446.406C88.3765 447.239 86.4839 448.96 85.4337 451.189C84.3835 453.417 84.2617 455.972 85.0951 458.291L90.6257 473.677C91.4591 475.996 93.1795 477.889 95.4083 478.939C97.6371 479.989 100.192 480.111 102.51 479.277V479.277Z" stroke="#1D1D1B" stroke-width="2" stroke-miterlimit="10"/>
<path d="M129.49 471.948C129.145 471.467 128.898 470.923 128.764 470.347C128.63 469.771 128.61 469.174 128.707 468.59C128.804 468.006 129.015 467.448 129.328 466.946C129.641 466.444 130.05 466.008 130.531 465.664L136.28 461.511C140.794 465.937 144.244 471.329 146.37 477.282L135.992 481.013L129.49 471.948Z" stroke="#1D1D1B" stroke-width="2" stroke-miterlimit="10"/>
<path d="M77.0381 490.802C76.9553 489.611 76.4028 488.501 75.5021 487.717C74.6014 486.932 73.4262 486.538 72.2347 486.619L65.1622 487.11C64.4995 493.396 65.2698 499.752 67.4154 505.698L77.8063 501.963L77.0381 490.802Z" stroke="#1D1D1B" stroke-width="2" stroke-miterlimit="10"/>
<path d="M60.7087 508.074L153.078 474.872C154.547 474.344 156.166 475.107 156.694 476.576L158.43 481.403C158.958 482.872 158.195 484.492 156.726 485.02L64.3561 518.221C62.8869 518.749 61.2678 517.986 60.7397 516.517L59.0047 511.69C58.4766 510.221 59.2395 508.602 60.7087 508.074Z" fill="#EDB52B"/>
<path d="M60.7087 508.074L153.078 474.872C154.547 474.344 156.166 475.107 156.694 476.576L158.43 481.403C158.958 482.872 158.195 484.492 156.726 485.02L64.3561 518.221C62.8869 518.749 61.2678 517.986 60.7397 516.517L59.0047 511.69C58.4766 510.221 59.2395 508.602 60.7087 508.074Z" stroke="#1D1D1B" stroke-width="2" stroke-miterlimit="10"/>
<path d="M96.9637 491.045C90.4659 487.983 87.6804 480.233 90.7421 473.736C93.8038 467.238 101.553 464.452 108.051 467.514C114.549 470.576 117.334 478.325 114.273 484.823C111.211 491.321 103.461 494.106 96.9637 491.045Z" fill="#454444"/>
<path d="M105.588 487.844C100.856 489.545 95.6414 487.088 93.9406 482.356C92.2398 477.625 94.6968 472.41 99.4286 470.709C104.16 469.009 109.375 471.466 111.076 476.197C112.776 480.929 110.319 486.144 105.588 487.844Z" fill="#EDB52B"/>
<path opacity="0.3" d="M99.4313 470.709C101.187 470.074 103.095 469.995 104.897 470.482C106.699 470.97 108.308 472 109.504 473.433C110.7 474.867 111.426 476.633 111.583 478.494C111.74 480.354 111.32 482.217 110.381 483.831L93.9801 476.103C94.4398 474.86 95.166 473.733 96.1078 472.802C97.0495 471.87 98.184 471.156 99.4313 470.709Z" fill="#EDB52B"/>
<path d="M96.9637 491.045C90.4659 487.983 87.6804 480.233 90.7421 473.736C93.8038 467.238 101.553 464.452 108.051 467.514C114.549 470.576 117.334 478.325 114.273 484.823C111.211 491.321 103.461 494.106 96.9637 491.045Z" stroke="#1D1D1B" stroke-width="2" stroke-miterlimit="10"/>
<path d="M105.588 487.844C100.856 489.545 95.6414 487.088 93.9406 482.356C92.2398 477.625 94.6968 472.41 99.4286 470.709C104.16 469.009 109.375 471.466 111.076 476.197C112.776 480.929 110.319 486.144 105.588 487.844Z" stroke="#1D1D1B" stroke-width="2" stroke-miterlimit="10"/>
<path opacity="0.3" d="M99.4313 470.709C101.187 470.074 103.095 469.995 104.897 470.482C106.699 470.97 108.308 472 109.504 473.433C110.7 474.867 111.426 476.633 111.583 478.494C111.74 480.354 111.32 482.217 110.381 483.831L93.9801 476.103C94.4398 474.86 95.166 473.733 96.1078 472.802C97.0495 471.87 98.184 471.156 99.4313 470.709V470.709Z" stroke="#1D1D1B" stroke-width="2" stroke-miterlimit="10"/>
</g>
<g clip-path="url(#clip3_604_384)">
<path fill-rule="evenodd" clip-rule="evenodd" d="M122.754 308.861L92.6602 381.735L20.0807 351.763L45.9432 289.135L59.5383 282.756L122.754 308.861Z" fill="#D9E7E7" stroke="#1D1D1B" stroke-width="2" stroke-miterlimit="10"/>
<path d="M113.748 313.874C112.901 313.524 112.497 312.553 112.847 311.706C113.197 310.858 114.168 310.455 115.016 310.805C115.864 311.155 116.267 312.126 115.917 312.973C115.567 313.821 114.596 314.224 113.748 313.874Z" fill="white"/>
<path d="M89.9398 303.817C89.0921 303.467 88.6887 302.496 89.0388 301.648C89.3888 300.8 90.3597 300.397 91.2074 300.747C92.055 301.097 92.4584 302.068 92.1084 302.916C91.7583 303.763 90.7874 304.167 89.9398 303.817Z" fill="white"/>
<path d="M58.2757 290.51C57.4281 290.16 57.0247 289.189 57.3747 288.341C57.7248 287.494 58.6957 287.09 59.5433 287.44C60.391 287.79 60.7944 288.761 60.4443 289.609C60.0943 290.457 59.1234 290.86 58.2757 290.51Z" fill="white"/>
<path d="M66.1312 293.754C65.2835 293.404 64.8801 292.433 65.2302 291.586C65.5802 290.738 66.5511 290.335 67.3988 290.685C68.2464 291.035 68.6498 292.006 68.2998 292.853C67.9497 293.701 66.9788 294.104 66.1312 293.754Z" fill="white"/>
<path d="M74.182 297.078C73.3343 296.728 72.9309 295.757 73.281 294.91C73.631 294.062 74.6019 293.659 75.4496 294.009C76.2972 294.359 76.7006 295.33 76.3506 296.177C76.0005 297.025 75.0296 297.428 74.182 297.078Z" fill="white"/>
<path d="M82.0101 300.311C81.1624 299.961 80.7591 298.99 81.1091 298.142C81.4591 297.295 82.4301 296.891 83.2777 297.241C84.1253 297.591 84.5287 298.562 84.1787 299.41C83.8286 300.257 82.8577 300.661 82.0101 300.311Z" fill="white"/>
<path d="M105.795 310.59C104.948 310.24 104.544 309.269 104.894 308.421C105.244 307.574 106.215 307.17 107.063 307.52C107.911 307.871 108.314 308.841 107.964 309.689C107.614 310.537 106.643 310.94 105.795 310.59Z" fill="white"/>
<path d="M97.8695 307.318C97.0218 306.968 96.6184 305.997 96.9685 305.149C97.3185 304.301 98.2894 303.898 99.1371 304.248C99.9847 304.598 100.388 305.569 100.038 306.417C99.688 307.264 98.7171 307.668 97.8695 307.318Z" fill="white"/>
<path fill-rule="evenodd" clip-rule="evenodd" d="M59.5705 282.77L46.2707 288.964C46.2707 288.964 54.9739 294.173 56.4797 292.679C57.9855 291.185 61.3268 283.382 59.5705 282.77Z" fill="#96A6A6" stroke="#1D1D1B" stroke-width="2" stroke-miterlimit="10"/>
<path d="M102.202 318.264L104.641 319.271L84.5796 367.85L82.141 366.843L102.202 318.264Z" fill="#6A8086" stroke="#1D1D1B" stroke-width="2" stroke-miterlimit="10"/>
<path d="M36.9066 345.308L83.1484 364.404L82.1414 366.843L35.8995 347.747L36.9066 345.308Z" fill="#6A8086" stroke="#1D1D1B" stroke-width="2" stroke-miterlimit="10"/>
<path d="M55.9585 299.168L58.3008 300.136L39.2468 346.276L36.9045 345.309L55.9585 299.168Z" fill="#6A8086" stroke="#1D1D1B" stroke-width="2" stroke-miterlimit="10"/>
<path d="M45.4859 331.155L70.7539 341.59L69.8264 343.836L44.5583 333.401L45.4859 331.155Z" fill="#6A8086" stroke="#1D1D1B" stroke-width="2" stroke-miterlimit="10"/>
<path d="M67.1917 342.742L69.8281 343.831L64.5103 356.708L61.8739 355.62L67.1917 342.742Z" fill="#6A8086" stroke="#1D1D1B" stroke-width="2" stroke-miterlimit="10"/>
<path d="M72.1741 330.696L85.9766 336.396L84.9099 338.978L71.1074 333.279L72.1741 330.696Z" fill="#6A8086" stroke="#1D1D1B" stroke-width="2" stroke-miterlimit="10"/>
<path d="M69.7758 358.883L75.6797 361.321L74.6727 363.76L68.7688 361.322L69.7758 358.883Z" fill="#C63633"/>
<path d="M85.976 336.396L93.4414 339.479L92.3748 342.061L84.9093 338.979L85.976 336.396Z" fill="#C63633"/>
<path d="M58.2997 300.135L102.199 318.264L101.232 320.606L57.3324 302.477L58.2997 300.135Z" fill="#6A8086" stroke="#1D1D1B" stroke-width="2" stroke-miterlimit="10"/>
<path d="M94.0036 314.879L99.8594 317.297L98.8921 319.639L93.0363 317.221L94.0036 314.879Z" fill="#C63633"/>
<path d="M71.7631 305.694L78.1055 308.313L77.1382 310.656L70.7958 308.037L71.7631 305.694Z" fill="#C63633"/>
<path d="M79.9612 311.817L82.5977 312.905L74.802 331.783L72.1656 330.694L79.9612 311.817Z" fill="#6A8086" stroke="#1D1D1B" stroke-width="2" stroke-miterlimit="10"/>
<path d="M60.9568 317.758L75.1016 323.6L74.0437 326.161L59.899 320.32L60.9568 317.758Z" fill="#6A8086" stroke="#1D1D1B" stroke-width="2" stroke-miterlimit="10"/>
<path d="M59.8985 320.32L62.043 321.205L56.1201 335.548L53.9756 334.662L59.8985 320.32Z" fill="#6A8086" stroke="#1D1D1B" stroke-width="2" stroke-miterlimit="10"/>
<path d="M56.7579 327.93L58.9023 328.815L56.122 335.548L53.9775 334.663L56.7579 327.93Z" fill="#C63633"/>
</g>
<defs>
<clipPath id="clip0_604_384">
<rect width="129.268" height="40" fill="white" transform="translate(13.0703) rotate(19.075)"/>
</clipPath>
<clipPath id="clip1_604_384">
<rect width="69.8392" height="70" fill="white" transform="translate(78 153)"/>
</clipPath>
<clipPath id="clip2_604_384">
<rect width="105.136" height="60" fill="white" transform="matrix(-0.941054 0.338255 0.338255 0.941054 139.938 428)"/>
</clipPath>
<clipPath id="clip3_604_384">
<rect width="80.0289" height="80" fill="white" transform="matrix(-0.924289 -0.381693 -0.381693 0.924289 123.508 308.547)"/>
</clipPath>
</defs>
</svg>
