<svg width="102" height="106" viewBox="0 0 102 106" fill="none" xmlns="http://www.w3.org/2000/svg">
<path d="M98 37.9258C94.4906 39.1769 89.3007 42.1881 83.1767 41.668" stroke="#EDB52B" stroke-width="8" stroke-linecap="round"/>
<path d="M97.4571 7.81577C93.7717 13.2151 84.528 25.0304 77.0365 29.0965" stroke="#EDB52B" stroke-width="8" stroke-linecap="round"/>
<path d="M67.889 18.6876C69.3366 15.0462 72.7623 7.21071 74.8836 5.00006" stroke="#EDB52B" stroke-width="8" stroke-linecap="round"/>
<path d="M0.998857 57.0245C1.00085 52.9649 1.80241 48.9456 3.35776 45.1958C4.91311 41.4461 7.19179 38.0394 10.0637 35.1703C12.9356 32.3012 16.3445 30.0259 20.0958 28.4742C23.8471 26.9226 27.8672 26.125 31.9267 26.127C35.9862 26.129 40.0056 26.9305 43.7553 28.4859C47.5051 30.0412 50.9117 32.3199 53.7808 35.1918C56.6499 38.0637 58.9253 41.4726 60.4769 45.2239C62.0286 48.9752 62.8262 52.9953 62.8242 57.0548C62.8242 65.2614 59.8478 72.6357 55.7961 79.6881C51.3414 87.3107 46.1558 94.4819 40.3124 101.1C39.2641 102.299 37.9705 103.258 36.5193 103.914C35.0681 104.569 33.4931 104.906 31.9007 104.9C30.3084 104.894 28.7358 104.546 27.2894 103.88C25.843 103.215 24.5564 102.246 23.5167 101.04C18.4674 95.2643 13.8812 89.0999 9.80068 82.6038C5.39065 75.5028 1.07782 67.2112 1.011 58.6402C1.011 58.373 1.011 58.0996 1.011 57.8324C1.011 57.5651 0.998857 57.2857 0.998857 57.0245Z" fill="#79BF81" stroke="#231F20" stroke-width="2" stroke-miterlimit="10"/>
<path d="M28.7109 90.9922C29.3183 92.0977 30.4967 93.2093 31.8027 93.2762C33.1087 93.343 34.5241 92.116 35.1133 90.9922" stroke="#231F20" stroke-miterlimit="10" stroke-linecap="round"/>
<path d="M15.5613 80.9207C11.7159 77.0754 10.7217 71.8351 13.3406 69.2162C15.9595 66.5972 21.1999 67.5915 25.0452 71.4368C28.8905 75.2821 29.8848 80.5225 27.2658 83.1414C24.6469 85.7603 19.4066 84.7661 15.5613 80.9207Z" fill="#02925D"/>
<path d="M15.5613 80.9207C11.7159 77.0754 10.7217 71.8351 13.3406 69.2162C15.9595 66.5972 21.1999 67.5915 25.0452 71.4368C28.8905 75.2821 29.8848 80.5225 27.2658 83.1414C24.6469 85.7603 19.4066 84.7661 15.5613 80.9207Z" fill="#231F20"/>
<path d="M13.8223 74.0264C14.2281 75.3164 14.9483 76.4854 15.918 77.428" stroke="white" stroke-miterlimit="10" stroke-linecap="round"/>
<path d="M36.5594 83.1383C33.9405 80.5194 34.9347 75.2791 38.78 71.4338C42.6254 67.5884 47.8657 66.5942 50.4846 69.2131C53.1035 71.832 52.1093 77.0723 48.264 80.9177C44.4186 84.763 39.1783 85.7573 36.5594 83.1383Z" fill="#02925D"/>
<path d="M36.5594 83.1383C33.9405 80.5194 34.9347 75.2791 38.78 71.4338C42.6254 67.5884 47.8657 66.5942 50.4846 69.2131C53.1035 71.832 52.1093 77.0723 48.264 80.9177C44.4186 84.763 39.1783 85.7573 36.5594 83.1383Z" fill="#231F20"/>
<path d="M50 74.0264C49.5942 75.3164 48.874 76.4854 47.9043 77.428" stroke="white" stroke-miterlimit="10" stroke-linecap="round"/>
</svg>
