<svg width="103" height="106" viewBox="0 0 103 106" fill="none" xmlns="http://www.w3.org/2000/svg">
<path d="M4.21094 37.9258C7.72031 39.1769 12.9102 42.1881 19.0342 41.668" stroke="#EDB52B" stroke-width="8" stroke-linecap="round"/>
<path d="M4.75386 7.81577C8.43927 13.2151 17.683 25.0304 25.1744 29.0965" stroke="#EDB52B" stroke-width="8" stroke-linecap="round"/>
<path d="M34.322 18.6876C32.8743 15.0462 29.4487 7.21071 27.3274 5.00006" stroke="#EDB52B" stroke-width="8" stroke-linecap="round"/>
<path d="M101.212 57.0245C101.21 52.9649 100.409 48.9456 98.8532 45.1958C97.2978 41.4461 95.0191 38.0394 92.1472 35.1703C89.2753 32.3012 85.8664 30.0259 82.1151 28.4742C78.3639 26.9226 74.3437 26.125 70.2842 26.127C66.2247 26.129 62.2053 26.9305 58.4556 28.4859C54.7059 30.0412 51.2992 32.3199 48.4301 35.1918C45.561 38.0637 43.2857 41.4726 41.734 45.2239C40.1823 48.9752 39.3847 52.9953 39.3867 57.0548C39.3867 65.2614 42.3632 72.6357 46.4148 79.6881C50.8695 87.3107 56.0551 94.4819 61.8985 101.1C62.9469 102.299 64.2404 103.258 65.6916 103.914C67.1428 104.569 68.7179 104.906 70.3102 104.9C71.9026 104.894 73.4751 104.546 74.9216 103.88C76.368 103.215 77.6545 102.246 78.6942 101.04C83.7436 95.2643 88.3298 89.0999 92.4103 82.6038C96.8203 75.5028 101.133 67.2112 101.2 58.6402C101.2 58.373 101.2 58.0996 101.2 57.8324C101.2 57.5651 101.212 57.2857 101.212 57.0245Z" fill="#79BF81" stroke="#231F20" stroke-width="2" stroke-miterlimit="10"/>
<path d="M73.5001 90.9922C72.8926 92.0977 71.7142 93.2093 70.4082 93.2762C69.1022 93.343 67.6869 92.116 67.0977 90.9922" stroke="#231F20" stroke-miterlimit="10" stroke-linecap="round"/>
<path d="M86.6497 80.9207C90.495 77.0754 91.4892 71.8351 88.8703 69.2162C86.2514 66.5972 81.0111 67.5915 77.1657 71.4368C73.3204 75.2821 72.3262 80.5225 74.9451 83.1414C77.564 85.7603 82.8043 84.7661 86.6497 80.9207Z" fill="#02925D"/>
<path d="M86.6497 80.9207C90.495 77.0754 91.4892 71.8351 88.8703 69.2162C86.2514 66.5972 81.0111 67.5915 77.1657 71.4368C73.3204 75.2821 72.3262 80.5225 74.9451 83.1414C77.564 85.7603 82.8043 84.7661 86.6497 80.9207Z" fill="#231F20"/>
<path d="M88.3886 74.0264C87.9828 75.3164 87.2627 76.4854 86.293 77.428" stroke="white" stroke-miterlimit="10" stroke-linecap="round"/>
<path d="M65.6516 83.1383C68.2705 80.5194 67.2763 75.2791 63.4309 71.4338C59.5856 67.5884 54.3453 66.5942 51.7263 69.2131C49.1074 71.832 50.1016 77.0723 53.947 80.9177C57.7923 84.763 63.0326 85.7573 65.6516 83.1383Z" fill="#02925D"/>
<path d="M65.6516 83.1383C68.2705 80.5194 67.2763 75.2791 63.4309 71.4338C59.5856 67.5884 54.3453 66.5942 51.7263 69.2131C49.1074 71.832 50.1016 77.0723 53.947 80.9177C57.7923 84.763 63.0326 85.7573 65.6516 83.1383Z" fill="#231F20"/>
<path d="M52.2109 74.0264C52.6167 75.3164 53.3369 76.4854 54.3066 77.428" stroke="white" stroke-miterlimit="10" stroke-linecap="round"/>
</svg>
