<svg width="72" height="108" viewBox="0 0 72 108" fill="none" xmlns="http://www.w3.org/2000/svg">
<g clip-path="url(#clip0_260_4065)">
<path fill-rule="evenodd" clip-rule="evenodd" d="M13.9405 36.2837C6.74356 26.4594 5.00457 17.4289 4.59451 14.2202C3.82235 14.1261 3.02405 14.0106 2.19958 13.8737C2.19958 13.8737 2.71021 25.6076 12.5177 38.3218L13.9405 36.2837Z" fill="#C6C6C5"/>
<path fill-rule="evenodd" clip-rule="evenodd" d="M13.9405 36.2837C6.74356 26.4594 5.00457 17.4289 4.59451 14.2202C3.82235 14.1261 3.02405 14.0106 2.19958 13.8737C2.19958 13.8737 2.71021 25.6076 12.5177 38.3218L13.9405 36.2837Z" stroke="#1D1D1B" stroke-width="2" stroke-miterlimit="10"/>
<path fill-rule="evenodd" clip-rule="evenodd" d="M27.9552 18.4423C27.9552 18.4423 31.8885 33.9767 36.5077 44.4453C41.127 54.9138 45.018 63.5314 45.4812 63.3507C45.9444 63.1699 51.4856 58.5994 51.4856 58.5994C51.4856 58.5994 44.8974 45.4414 43.0105 39.2386C41.1235 33.0357 37.6555 17.3256 37.6555 17.3256L27.9552 18.4423Z" fill="#EFDC70"/>
<path fill-rule="evenodd" clip-rule="evenodd" d="M27.9552 18.4423C27.9552 18.4423 31.8885 33.9767 36.5077 44.4453C41.127 54.9138 45.018 63.5314 45.4812 63.3507C45.9444 63.1699 51.4856 58.5994 51.4856 58.5994C51.4856 58.5994 44.8974 45.4414 43.0105 39.2386C41.1235 33.0357 37.6555 17.3256 37.6555 17.3256L27.9552 18.4423Z" stroke="#1D1D1B" stroke-width="2" stroke-miterlimit="10"/>
<path fill-rule="evenodd" clip-rule="evenodd" d="M40.6956 16.406L38.378 8.94771C38.378 8.94771 38.3643 8.74546 38.0541 8.66487C37.7712 8.49345 37.454 8.38639 37.1251 8.35129C36.3838 8.29066 25.5955 12.0146 25.2133 12.312C24.9727 12.5008 24.7689 12.693 24.4923 12.8959C20.9241 13.9504 14.3753 15.8477 2.2036 13.884C2.2036 13.884 2.71423 25.6179 12.5351 38.3209L13.9405 36.2837C16.814 31.0936 22.4202 20.3829 27.9362 21.599L39.7848 17.7044L40.6392 17.371C40.6392 17.371 40.9524 17.3377 40.6956 16.406Z" fill="#3E3A39"/>
<path fill-rule="evenodd" clip-rule="evenodd" d="M40.6956 16.406L38.378 8.94771C38.378 8.94771 38.3643 8.74546 38.0541 8.66487C37.7712 8.49345 37.454 8.38639 37.1251 8.35129C36.3838 8.29066 25.5955 12.0146 25.2133 12.312C24.9727 12.5008 24.7689 12.693 24.4923 12.8959C20.9241 13.9504 14.3753 15.8477 2.2036 13.884C2.2036 13.884 2.71423 25.6179 12.5351 38.3209L13.9405 36.2837C16.814 31.0936 22.4202 20.3829 27.9362 21.599L39.7848 17.7044L40.6392 17.371C40.6392 17.371 40.9524 17.3377 40.6956 16.406Z" stroke="#1D1D1B" stroke-width="2" stroke-miterlimit="10"/>
<path fill-rule="evenodd" clip-rule="evenodd" d="M50.7146 57.0623C48.3059 58.3522 45.231 60.1691 43.2118 61.3782C43.3652 61.6801 43.5126 61.9666 43.6548 62.2551C45.8267 66.5437 50.4834 75.4971 51.8077 81.0181C51.8077 81.0181 53.0908 86.7983 52.8246 91.4809C52.8246 91.4809 52.7873 93.8323 53.0826 94.3457C54.7352 97.1823 61.8769 96.3939 64.6512 95.3112C64.8058 95.2654 64.9484 95.1864 65.0692 95.0796C65.1899 94.9729 65.2859 94.841 65.3503 94.6932C65.4147 94.5454 65.446 94.3854 65.442 94.2242C65.438 94.0631 65.3988 93.9048 65.3271 93.7604C64.8611 92.5663 62.2212 85.4829 61.0622 81.7835C59.9032 78.0841 56.5742 68.6422 53.6842 62.8782C52.7311 61.0439 51.7177 59.0551 50.7146 57.0623Z" fill="#3E3A39"/>
<path fill-rule="evenodd" clip-rule="evenodd" d="M50.7146 57.0623C48.3059 58.3522 45.231 60.1691 43.2118 61.3782C43.3652 61.6801 43.5126 61.9666 43.6548 62.2551C45.8267 66.5437 50.4834 75.4971 51.8077 81.0181C51.8077 81.0181 53.0908 86.7983 52.8246 91.4809C52.8246 91.4809 52.7873 93.8323 53.0826 94.3457C54.7352 97.1823 61.8769 96.3939 64.6512 95.3112C64.8058 95.2654 64.9484 95.1864 65.0692 95.0796C65.1899 94.9729 65.2859 94.841 65.3503 94.6932C65.4147 94.5454 65.446 94.3854 65.442 94.2242C65.438 94.0631 65.3988 93.9048 65.3271 93.7604C64.8611 92.5663 62.2212 85.4829 61.0622 81.7835C59.9032 78.0841 56.5742 68.6422 53.6842 62.8782C52.7311 61.0439 51.7177 59.0551 50.7146 57.0623Z" stroke="#1D1D1B" stroke-width="2" stroke-miterlimit="10"/>
<path fill-rule="evenodd" clip-rule="evenodd" d="M45.6573 59.9248L43.2113 61.3776C43.3647 61.6795 43.5121 61.966 43.6543 62.2545C45.8262 66.5432 50.4829 75.4966 51.8071 81.0175C51.8071 81.0175 53.0902 86.7977 52.824 91.4803C52.824 91.4803 52.7868 93.8317 53.0821 94.3452C54.6831 97.0951 61.4319 96.4245 64.381 95.4099C62.1296 95.2032 56.291 94.7713 55.2662 93.7715C53.9584 92.5026 56.1993 84.8252 52.0217 74.0597C50.0684 69.0393 47.9047 64.4983 45.6573 59.9248Z" fill="#373331"/>
<path fill-rule="evenodd" clip-rule="evenodd" d="M45.6573 59.9248L43.2113 61.3776C43.3647 61.6795 43.5121 61.966 43.6543 62.2545C45.8262 66.5432 50.4829 75.4966 51.8071 81.0175C51.8071 81.0175 53.0902 86.7977 52.824 91.4803C52.824 91.4803 52.7868 93.8317 53.0821 94.3452C54.6831 97.0951 61.4319 96.4245 64.381 95.4099C62.1296 95.2032 56.291 94.7713 55.2662 93.7715C53.9584 92.5026 56.1993 84.8252 52.0217 74.0597C50.0684 69.0393 47.9047 64.4983 45.6573 59.9248Z" stroke="#1D1D1B" stroke-width="2" stroke-miterlimit="10"/>
<path fill-rule="evenodd" clip-rule="evenodd" d="M43.21 61.3782C43.978 60.8143 44.7827 60.3021 45.6187 59.8451C43.0182 54.5494 40.3287 49.2232 37.8134 43.1884C34.6977 35.7213 32.1131 26.2262 30.6852 20.6982L27.935 21.5995C29.3366 28.0487 31.2612 34.3729 33.6898 40.5096C36.4538 47.6454 39.6326 54.6135 43.21 61.3782Z" fill="#DDBD57"/>
<path fill-rule="evenodd" clip-rule="evenodd" d="M43.21 61.3782C43.978 60.8143 44.7827 60.3021 45.6187 59.8451C43.0182 54.5494 40.3287 49.2232 37.8134 43.1884C34.6977 35.7213 32.1131 26.2262 30.6852 20.6982L27.935 21.5995C29.3366 28.0487 31.2612 34.3729 33.6898 40.5096C36.4538 47.6454 39.6326 54.6135 43.21 61.3782V61.3782Z" stroke="#1D1D1B" stroke-width="2" stroke-miterlimit="10"/>
<path fill-rule="evenodd" clip-rule="evenodd" d="M12.6328 34.4214C13.0472 35.0425 13.4842 35.6608 13.951 36.2793C16.8142 31.0933 22.4204 20.3825 27.9363 21.5987L30.6968 20.6933L37.9607 18.3033L38.2027 18.2089L37.9487 18.2725C37.087 18.4961 34.1967 19.2207 31.5341 19.7082C30.5548 19.8888 29.6055 20.0398 28.8014 20.1223C25.3777 20.468 23.1116 20.4212 19.9434 23.4428C17.7908 25.5106 14.51 31.0554 12.6328 34.4214Z" fill="#373331"/>
<path fill-rule="evenodd" clip-rule="evenodd" d="M37.166 20.6481C35.7271 21.0517 34.3106 21.5312 32.9225 22.0847C32.9225 22.0847 35.8963 33.8537 39.2636 41.5548C42.6308 49.2558 45.5048 57.8967 46.2609 57.4177C47.017 56.9388 48.7691 56.1245 48.7691 56.1245C48.7691 56.1245 42.2395 43.0861 40.7222 35.5053C39.205 27.9245 39.0823 25.3152 38.4663 23.4027C38.1913 22.4177 37.7517 21.4864 37.166 20.6481Z" fill="#EFDC70"/>
<path fill-rule="evenodd" clip-rule="evenodd" d="M50.5338 58.8046C50.1727 59.0344 47.2895 60.385 47.2895 60.385C47.2895 60.385 52.8579 71.3253 54.7447 79.2601C56.6314 87.195 55.3732 91.0074 56.5745 92.2467C57.7758 93.486 64.0267 94.9135 63.7288 93.8614C60.8366 83.8517 55.8659 67.1029 50.5338 58.8046Z" fill="#3F3E3D"/>
</g>
<defs>
<clipPath id="clip0_260_4065">
<rect width="38.0905" height="100" fill="white" transform="translate(0 13.8477) rotate(-21.3188)"/>
</clipPath>
</defs>
</svg>
