<svg width="104" height="112" viewBox="0 0 104 112" fill="none" xmlns="http://www.w3.org/2000/svg">
<g clip-path="url(#clip0_260_4050)">
<path fill-rule="evenodd" clip-rule="evenodd" d="M54.4905 62.8061L47.4014 57.2159L70.3382 29.675L76.1706 34.2002L54.4905 62.8061Z" fill="url(#paint0_linear_260_4050)"/>
<path fill-rule="evenodd" clip-rule="evenodd" d="M54.4905 62.8061L47.4014 57.2159L70.3382 29.675L76.1706 34.2002L54.4905 62.8061Z" stroke="#1D1D1B" stroke-width="2" stroke-miterlimit="10"/>
<path fill-rule="evenodd" clip-rule="evenodd" d="M51.8809 52.0752L58.5998 57.3802C59.1502 57.8931 58.1781 63.1733 56.3926 65.4912C54.4738 67.9086 40.8892 83.225 39.6382 84.8071C38.3871 86.3892 32.0891 94.7434 31.1184 96.8323C28.6641 102.054 14.7265 91.883 19.6409 87.7485C22.9674 84.6052 27.6312 79.8413 29.7628 76.7069C33.9837 70.535 39.6986 60.9235 44.3615 56.4336C45.6986 55.1279 50.291 51.5374 51.8809 52.0752Z" fill="#3E3A39"/>
<path fill-rule="evenodd" clip-rule="evenodd" d="M51.8809 52.0752L58.5998 57.3802C59.1502 57.8931 58.1781 63.1733 56.3926 65.4912C54.4738 67.9086 40.8892 83.225 39.6382 84.8071C38.3871 86.3892 32.0891 94.7434 31.1184 96.8323C28.6641 102.054 14.7265 91.883 19.6409 87.7485C22.9674 84.6052 27.6312 79.8413 29.7628 76.7069C33.9837 70.535 39.6986 60.9235 44.3615 56.4336C45.6986 55.1279 50.291 51.5374 51.8809 52.0752Z" stroke="#1D1D1B" stroke-width="2" stroke-miterlimit="10"/>
<path fill-rule="evenodd" clip-rule="evenodd" d="M70.1932 13.278C76.9249 14.6005 80.8833 16.1869 84.8025 19.1251C88.7217 22.0633 87.3772 24.5432 90.3931 26.9229C93.409 29.3027 96.8981 29.1376 98.4993 30.3953C100.101 31.653 101.563 33.2803 100.371 34.7952C99.18 36.3102 95.5129 40.9448 95.5129 40.9448C95.5129 40.9448 94.5453 42.3897 93.0841 41.9995C92.5707 41.9252 92.0892 41.7058 91.6964 41.3669L89.5603 39.6811C88.4343 38.8137 88.6036 36.1074 87.114 34.9357C85.9358 33.8326 84.5009 33.0412 82.9394 32.6332C81.0659 32.3376 78.6972 32.8001 75.8717 35.1251L75.7348 35.0196L75.6996 35.0653L74.1171 33.8462L74.1484 33.8057L69.3058 29.9783C69.3058 29.9783 71.1784 24.8826 69.4788 22.5147C67.7792 20.1467 66.2397 18.7669 58.9582 19.4697C49.8421 19.9311 46.6228 21.0153 46.4263 20.5568C45.376 18.091 62.5644 12.501 70.1932 13.278Z" fill="#D2D2D1"/>
<path fill-rule="evenodd" clip-rule="evenodd" d="M70.1932 13.278C76.9249 14.6005 80.8833 16.1869 84.8025 19.1251C88.7217 22.0633 87.3772 24.5432 90.3931 26.9229C93.409 29.3027 96.8981 29.1376 98.4993 30.3953C100.101 31.653 101.563 33.2803 100.371 34.7952C99.18 36.3102 95.5129 40.9448 95.5129 40.9448C95.5129 40.9448 94.5453 42.3897 93.0841 41.9995C92.5707 41.9252 92.0892 41.7058 91.6964 41.3669L89.5603 39.6811C88.4343 38.8137 88.6036 36.1074 87.114 34.9357C85.9358 33.8326 84.5009 33.0412 82.9394 32.6332C81.0659 32.3376 78.6972 32.8001 75.8717 35.1251L75.7348 35.0196L75.6996 35.0653L74.1171 33.8462L74.1484 33.8057L69.3058 29.9783C69.3058 29.9783 71.1784 24.8826 69.4788 22.5147C67.7792 20.1467 66.2397 18.7669 58.9582 19.4697C49.8421 19.9311 46.6228 21.0153 46.4263 20.5569C45.376 18.091 62.5644 12.501 70.1932 13.278Z" stroke="#1D1D1B" stroke-width="2" stroke-miterlimit="10"/>
<path fill-rule="evenodd" clip-rule="evenodd" d="M39.3767 85.0913L36.8286 83.0799C36.1157 82.5168 35.2082 82.26 34.3059 82.3659C33.4036 82.4718 32.5803 82.9319 32.0172 83.6448C31.454 84.3578 31.1972 85.2652 31.3031 86.1675C31.4091 87.0698 31.8691 87.8931 32.5821 88.4562L35.2683 90.5821C36.9226 88.3085 38.598 86.0916 39.3767 85.0913Z" fill="#F4A103"/>
<path fill-rule="evenodd" clip-rule="evenodd" d="M39.3767 85.0913L36.8286 83.0799C36.1157 82.5168 35.2082 82.26 34.3059 82.3659C33.4036 82.4718 32.5803 82.9319 32.0172 83.6448C31.454 84.3578 31.1972 85.2652 31.3031 86.1675C31.4091 87.0698 31.8691 87.8931 32.582 88.4562L35.2683 90.5821C36.9226 88.3085 38.598 86.0916 39.3767 85.0913Z" stroke="#1D1D1B" stroke-width="2" stroke-miterlimit="10"/>
<path fill-rule="evenodd" clip-rule="evenodd" d="M38.076 80.4533L41.2085 82.9229C42.3434 81.607 43.9577 79.7632 45.72 77.7587L42.3264 75.0719C41.6094 74.5523 40.7192 74.33 39.8421 74.4515C38.9649 74.5729 38.1687 75.0288 37.6198 75.7237C37.0709 76.4186 36.8119 77.2988 36.8969 78.1802C36.982 79.0616 37.4044 79.8761 38.076 80.4533Z" fill="#F4A103"/>
<path fill-rule="evenodd" clip-rule="evenodd" d="M38.076 80.4533L41.2085 82.9229C42.3434 81.607 43.9577 79.7632 45.72 77.7587L42.3264 75.0719C41.6094 74.5523 40.7192 74.33 39.8421 74.4515C38.9649 74.5729 38.1687 75.0288 37.6198 75.7237C37.0709 76.4186 36.8119 77.2988 36.8969 78.1802C36.982 79.0616 37.4044 79.8761 38.076 80.4533V80.4533Z" stroke="#1D1D1B" stroke-width="2" stroke-miterlimit="10"/>
<path fill-rule="evenodd" clip-rule="evenodd" d="M43.8434 68.3923C43.2828 69.106 43.0271 70.0123 43.1321 70.9138C43.237 71.8152 43.6942 72.6385 44.4037 73.2043L47.5414 75.6778C49.0919 73.9063 50.662 72.1093 52.0528 70.5137L48.6542 67.8229C47.9395 67.2637 47.0327 67.0097 46.1315 67.1164C45.2303 67.223 44.4078 67.6817 43.8434 68.3923Z" fill="#F4A103"/>
<path fill-rule="evenodd" clip-rule="evenodd" d="M43.8434 68.3923C43.2828 69.106 43.0271 70.0123 43.1321 70.9138C43.237 71.8152 43.6942 72.6385 44.4037 73.2043L47.5414 75.6778C49.0919 73.9063 50.662 72.1093 52.0528 70.5137L48.6542 67.8229C47.9395 67.2637 47.0327 67.0097 46.1315 67.1164C45.2303 67.223 44.4078 67.6817 43.8434 68.3923V68.3923Z" stroke="#1D1D1B" stroke-width="2" stroke-miterlimit="10"/>
</g>
<defs>
<linearGradient id="paint0_linear_260_4050" x1="25.4623" y1="17.0402" x2="70.2797" y2="52.4125" gradientUnits="userSpaceOnUse">
<stop stop-color="#F8BB03"/>
<stop offset="0.01" stop-color="#F8BB03"/>
<stop offset="0.98" stop-color="#F39D05"/>
<stop offset="1" stop-color="#F39D05"/>
</linearGradient>
<clipPath id="clip0_260_4050">
<rect width="53.0444" height="100" fill="white" transform="translate(61.0234) rotate(37.6078)"/>
</clipPath>
</defs>
</svg>
