<svg width="92" height="50" viewBox="0 0 92 50" fill="none" xmlns="http://www.w3.org/2000/svg">
<g clip-path="url(#clip0_295_564)">
<path d="M42.5948 12.0286L19.3882 18.3311C18.1695 18.6621 17.131 19.4596 16.5013 20.5481C15.8716 21.6366 15.7022 22.927 16.0304 24.1355L20.6346 41.0889C20.7606 41.5554 20.9781 41.9922 21.2747 42.3745C21.5713 42.7567 21.9411 43.0768 22.363 43.3166C22.7849 43.5563 23.2507 43.7108 23.7336 43.7715C24.2165 43.8321 24.7072 43.7975 25.1774 43.6698L39.389 39.8102C39.8863 39.6749 40.3106 39.3508 40.5699 38.908L45.9733 29.6991C46.232 29.257 46.6556 28.9335 47.1519 28.7987C47.6483 28.6639 48.1773 28.7287 48.6242 28.9791L57.9435 34.1896C58.3912 34.4404 58.9212 34.5054 59.4186 34.3705L73.6302 30.5109C74.5792 30.2518 75.3875 29.6297 75.8774 28.7814C76.3674 27.9331 76.499 26.9279 76.2433 25.9865L71.6391 9.03312C71.3109 7.8247 70.512 6.79726 69.4182 6.17682C68.3243 5.55638 67.0251 5.39376 65.8064 5.72475L42.5948 12.0286Z" fill="#F49540"/>
<path d="M68.3254 28.0146L60.6784 30.0914C59.8712 30.3099 59.0112 30.2042 58.2847 29.7971L50.8949 25.6685C49.8141 25.0405 48.5594 24.7687 47.3103 24.8921C46.4069 24.9893 45.5384 25.2968 44.7756 25.7896C44.0127 26.2823 43.3771 26.9463 42.9202 27.7276L38.5828 35.1158C38.1478 35.8597 37.4351 36.4042 36.5998 36.6307L28.9979 38.6952C27.8191 39.0154 26.5624 38.8581 25.5043 38.2579C24.4463 37.6578 23.6735 36.664 23.3561 35.4951L20.7436 25.8756C20.4782 24.893 20.6169 23.8443 21.1293 22.9599C21.6418 22.0755 22.486 21.4276 23.4766 21.1586L64.2172 10.0941C65.2078 9.82511 66.2638 9.95693 67.1532 10.4606C68.0426 10.9643 68.6927 11.7988 68.9608 12.7806L71.5733 22.4001C71.8908 23.569 71.7269 24.8172 71.1178 25.8701C70.5087 26.923 69.5042 27.6944 68.3254 28.0146Z" fill="#C4C3C3"/>
<path opacity="0.3" d="M31.6238 18.9454L26.0681 38.2525C27.0917 38.7727 28.276 38.8927 29.3879 38.5887L33.7576 37.402L39.6817 16.757L31.6238 18.9454Z" fill="white"/>
<path opacity="0.3" d="M53.3516 13.0445L49.9153 24.979C50.3382 25.1055 50.7458 25.2775 51.1308 25.4919L56.337 28.4155L61.4096 10.8561L53.3516 13.0445Z" fill="white"/>
<path d="M16.4221 25.5813L8.51953 27.7275L11.4451 38.4998L19.3477 36.3536L16.4221 25.5813Z" fill="#454444"/>
<path d="M3.78253 31.3459L9.10938 29.8992L10.8542 36.3238L5.52734 37.7705C5.28147 37.8373 5.01937 37.8045 4.79869 37.6793C4.57801 37.5541 4.41684 37.3468 4.35063 37.103L3.10511 32.5169C3.07233 32.3962 3.06385 32.2701 3.08015 32.1459C3.09645 32.0218 3.13721 31.9019 3.20012 31.7931C3.26302 31.6844 3.34683 31.5889 3.44676 31.5122C3.54669 31.4355 3.66079 31.3789 3.78253 31.3459Z" fill="#454444"/>
<path d="M74.9568 21.2517L82.8594 19.1055L79.9338 8.3332L72.0312 10.4794L74.9568 21.2517Z" fill="#454444"/>
<path d="M87.5975 15.4867L82.2706 16.9334L80.5258 10.5088L85.8527 9.06213C86.0972 8.99714 86.3572 9.03039 86.5763 9.15468C86.7954 9.27897 86.956 9.48426 87.023 9.72597L88.2699 14.3171C88.3359 14.56 88.3022 14.8194 88.1762 15.0386C88.0502 15.2578 87.8421 15.4189 87.5975 15.4867Z" fill="#454444"/>
<path d="M42.5948 12.0286L19.3882 18.3311C18.1695 18.6621 17.131 19.4596 16.5013 20.5481C15.8716 21.6366 15.7022 22.927 16.0304 24.1355L20.6346 41.0889C20.7606 41.5554 20.9781 41.9922 21.2747 42.3745C21.5713 42.7567 21.9411 43.0768 22.363 43.3166C22.7849 43.5563 23.2507 43.7108 23.7336 43.7715C24.2165 43.8321 24.7072 43.7975 25.1774 43.6698L39.389 39.8102C39.8863 39.6749 40.3106 39.3508 40.5699 38.908L45.9733 29.6991C46.232 29.257 46.6556 28.9335 47.1519 28.7987C47.6483 28.6639 48.1773 28.7287 48.6242 28.9791L57.9435 34.1896C58.3912 34.4404 58.9212 34.5054 59.4186 34.3705L73.6302 30.5109C74.5792 30.2518 75.3875 29.6297 75.8774 28.7814C76.3674 27.9331 76.499 26.9279 76.2433 25.9865L71.6391 9.03312C71.3109 7.8247 70.512 6.79726 69.4182 6.17682C68.3243 5.55638 67.0251 5.39376 65.8064 5.72475L42.5948 12.0286Z" stroke="#1D1D1B" stroke-width="2" stroke-miterlimit="10"/>
<path d="M68.3254 28.0146L60.6784 30.0914C59.8712 30.3099 59.0112 30.2042 58.2847 29.7971L50.8949 25.6685C49.8141 25.0405 48.5594 24.7687 47.3103 24.8921C46.4069 24.9893 45.5384 25.2968 44.7756 25.7896C44.0127 26.2823 43.3771 26.9463 42.9202 27.7276L38.5828 35.1158C38.1478 35.8597 37.4351 36.4042 36.5998 36.6307L28.9979 38.6952C27.8191 39.0154 26.5624 38.8581 25.5043 38.2579C24.4463 37.6578 23.6735 36.664 23.3561 35.4951L20.7436 25.8756C20.4782 24.893 20.6169 23.8443 21.1293 22.9599C21.6418 22.0755 22.486 21.4276 23.4766 21.1586L64.2172 10.0941C65.2078 9.82511 66.2638 9.95693 67.1532 10.4606C68.0426 10.9643 68.6927 11.7988 68.9608 12.7806L71.5733 22.4001C71.8908 23.569 71.7269 24.8172 71.1178 25.8701C70.5087 26.923 69.5042 27.6944 68.3254 28.0146V28.0146Z" stroke="#1D1D1B" stroke-width="2" stroke-miterlimit="10"/>
<path d="M16.4221 25.5813L8.51953 27.7275L11.4451 38.4998L19.3477 36.3536L16.4221 25.5813Z" stroke="#1D1D1B" stroke-width="2" stroke-miterlimit="10"/>
<path d="M3.78253 31.3459L9.10938 29.8992L10.8542 36.3238L5.52734 37.7705C5.28147 37.8373 5.01937 37.8045 4.79869 37.6793C4.57801 37.5541 4.41684 37.3468 4.35063 37.103L3.10511 32.5169C3.07233 32.3962 3.06385 32.2701 3.08015 32.1459C3.09645 32.0218 3.13721 31.9019 3.20012 31.7931C3.26302 31.6844 3.34683 31.5889 3.44676 31.5122C3.54669 31.4355 3.66079 31.3789 3.78253 31.3459V31.3459Z" stroke="#1D1D1B" stroke-width="2" stroke-miterlimit="10"/>
<path d="M74.9568 21.2517L82.8594 19.1055L79.9338 8.3332L72.0312 10.4794L74.9568 21.2517Z" stroke="#1D1D1B" stroke-width="2" stroke-miterlimit="10"/>
<path d="M87.5975 15.4867L82.2706 16.9334L80.5258 10.5088L85.8527 9.06213C86.0972 8.99714 86.3572 9.03039 86.5763 9.15468C86.7954 9.27897 86.956 9.48426 87.023 9.72597L88.2699 14.3171C88.3359 14.56 88.3022 14.8194 88.1762 15.0386C88.0502 15.2578 87.8421 15.4189 87.5975 15.4867Z" stroke="#1D1D1B" stroke-width="2" stroke-miterlimit="10"/>
<path opacity="0.3" d="M31.6238 18.9454L26.0681 38.2525C27.0917 38.7727 28.276 38.8927 29.3879 38.5887L33.7576 37.402L39.6817 16.757L31.6238 18.9454Z" stroke="#1D1D1B" stroke-width="2" stroke-miterlimit="10"/>
<path opacity="0.3" d="M53.3516 13.0445L49.9153 24.979C50.3382 25.1055 50.7458 25.2775 51.1308 25.4919L56.3507 28.4064L61.4096 10.8561L53.3516 13.0445Z" stroke="#1D1D1B" stroke-width="2" stroke-miterlimit="10"/>
</g>
<defs>
<clipPath id="clip0_295_564">
<rect width="88" height="27" fill="white" transform="translate(0 23.0635) rotate(-15.194)"/>
</clipPath>
</defs>
</svg>
