<svg width="145" height="142" viewBox="0 0 145 142" fill="none" xmlns="http://www.w3.org/2000/svg">
<g clip-path="url(#clip0_260_3959)">
<path d="M51.5874 35.5292C70.004 24.8964 94.992 33.2495 109.317 54.0903C112.17 53.8306 115.047 54.0902 117.808 54.8563L117.749 54.7538C101.738 27.0229 70.2711 15.2205 47.4644 28.388C24.6577 41.5554 19.1453 74.7079 35.1558 102.439C35.3121 102.71 35.4642 102.973 35.6205 103.244C36.222 100.364 37.3552 97.6224 38.962 95.1585C27.8659 72.2389 33.0831 46.2127 51.5874 35.5292Z" fill="#454444"/>
<path d="M38.2971 119.894C41.4341 125.327 46.6012 129.292 52.6615 130.916C58.7219 132.54 65.1791 131.69 70.6126 128.552L46.956 87.5779C41.5224 90.715 37.5576 95.882 35.9338 101.942C34.3099 108.003 35.16 114.46 38.2971 119.894Z" fill="#EFDC70"/>
<path d="M73.1176 127.097L49.4609 86.1221C50.796 85.3512 52.3827 85.1424 53.8718 85.5414C55.3609 85.9404 56.6305 86.9146 57.4013 88.2497L75.2325 119.134C75.6182 119.795 75.8694 120.526 75.9718 121.285C76.0742 122.044 76.0257 122.815 75.8292 123.555C75.6327 124.295 75.292 124.988 74.8267 125.596C74.3613 126.204 73.7805 126.714 73.1176 127.097Z" fill="#C6AF3E"/>
<path d="M49.474 86.1435L46.957 87.5967L70.601 128.549L73.118 127.096L49.474 86.1435Z" fill="#454444"/>
<path d="M131.968 65.8132C135.105 71.2468 135.955 77.704 134.331 83.7643C132.707 89.8247 128.743 94.9917 123.309 98.1288L99.6523 57.1543C105.086 54.0172 111.543 53.1671 117.603 54.791C123.664 56.4149 128.831 60.3797 131.968 65.8132Z" fill="#EFDC70"/>
<path d="M120.795 99.5696C119.46 100.34 117.873 100.549 116.384 100.15C114.895 99.7513 113.626 98.7771 112.855 97.442L95.0236 66.5574C94.2528 65.2223 94.0439 63.6357 94.4429 62.1466C94.8419 60.6575 95.8161 59.3879 97.1512 58.617L120.795 99.5696Z" fill="#C6AF3E"/>
<path d="M99.6654 57.164L97.1484 58.6172L120.792 99.5697L123.309 98.1166L99.6654 57.164Z" fill="#454444"/>
<path d="M51.5874 35.5292C70.004 24.8964 94.992 33.2495 109.317 54.0903C112.17 53.8306 115.047 54.0902 117.808 54.8563L117.749 54.7538C101.738 27.0229 70.2711 15.2205 47.4644 28.388C24.6577 41.5554 19.1453 74.7079 35.1558 102.439C35.3121 102.71 35.4642 102.973 35.6205 103.244C36.222 100.364 37.3552 97.6224 38.962 95.1585C27.8659 72.2389 33.0831 46.2127 51.5874 35.5292Z" stroke="#1D1D1B" stroke-width="2" stroke-miterlimit="10"/>
<path d="M131.968 65.8132C135.105 71.2468 135.955 77.704 134.331 83.7643C132.707 89.8247 128.743 94.9917 123.309 98.1288L99.6523 57.1543C105.086 54.0172 111.543 53.1671 117.603 54.791C123.664 56.4149 128.831 60.3797 131.968 65.8132V65.8132Z" stroke="#1D1D1B" stroke-width="2" stroke-miterlimit="10"/>
<path d="M120.795 99.5696C119.46 100.34 117.873 100.549 116.384 100.15C114.895 99.7513 113.626 98.7771 112.855 97.442L95.0236 66.5574C94.2528 65.2223 94.0439 63.6357 94.4429 62.1466C94.8419 60.6575 95.8161 59.3879 97.1512 58.617V58.617L120.795 99.5696Z" stroke="#1D1D1B" stroke-width="2" stroke-miterlimit="10"/>
<path d="M99.6654 57.164L97.1484 58.6172L120.792 99.5697L123.309 98.1166L99.6654 57.164Z" stroke="#1D1D1B" stroke-width="2" stroke-miterlimit="10"/>
<path d="M38.4846 119.784C41.6216 125.218 46.7887 129.183 52.849 130.806C58.9094 132.43 65.3666 131.58 70.8001 128.443L47.1435 87.4686C41.7099 90.6056 37.7451 95.7727 36.1213 101.833C34.4974 107.893 35.3475 114.351 38.4846 119.784V119.784Z" stroke="#1D1D1B" stroke-width="2" stroke-miterlimit="10"/>
<path d="M73.309 126.986L49.6523 86.0117C50.9874 85.2409 52.5741 85.032 54.0632 85.431C55.5523 85.83 56.8219 86.8042 57.5927 88.1393L75.4239 119.024C75.8096 119.685 76.0608 120.416 76.1632 121.175C76.2656 121.933 76.2171 122.705 76.0206 123.444C75.8241 124.184 75.4834 124.878 75.0181 125.486C74.5527 126.094 73.9719 126.603 73.309 126.986Z" stroke="#1D1D1B" stroke-width="2" stroke-miterlimit="10"/>
<path d="M49.6615 86.0341L47.1445 87.4873L70.7885 128.44L73.3055 126.987L49.6615 86.0341Z" stroke="#1D1D1B" stroke-width="2" stroke-miterlimit="10"/>
</g>
<defs>
<clipPath id="clip0_260_3959">
<rect width="109.632" height="100" fill="white" transform="translate(0 54.8154) rotate(-30)"/>
</clipPath>
</defs>
</svg>
