<svg width="72" height="62" viewBox="0 0 72 62" fill="none" xmlns="http://www.w3.org/2000/svg">
<g clip-path="url(#clip0_295_583)">
<path d="M1.85384 30.5691C19.3617 36.8286 36.2968 47.2813 52.8554 60.6122C53.6162 61.9485 65.179 39.0779 63.5134 38.061C62.239 37.3103 44.8774 40.4547 45.6397 38.8232C43.3513 30.0294 42.3749 22.3006 43.0321 15.8679C43.0428 15.76 43.0221 15.6511 42.9725 15.5541C42.9229 15.457 42.8465 15.376 42.7523 15.3205C42.6581 15.265 42.5501 15.2374 42.4412 15.2411C42.3323 15.2448 42.227 15.2795 42.1378 15.3411C36.3206 19.7403 29.5655 22.7621 22.3797 24.1798C18.4936 18.4866 15.9219 12.5663 16.6328 6.09366C16.6372 6.04479 16.6258 5.99566 16.6004 5.95334C16.575 5.91103 16.5368 5.87773 16.4913 5.85824C16.4458 5.83875 16.3954 5.83408 16.3474 5.8449C16.2994 5.85572 16.2562 5.88148 16.224 5.91846C10.0618 13.2563 5.20302 21.5911 1.85384 30.5691Z" fill="#EFDC70" stroke="#231F20" stroke-width="2" stroke-miterlimit="10"/>
</g>
<defs>
<clipPath id="clip0_295_583">
<rect width="62" height="35" fill="white" transform="translate(17.7656) rotate(30.5007)"/>
</clipPath>
</defs>
</svg>
