<svg width="1482" height="44" viewBox="0 0 1482 44" fill="none" xmlns="http://www.w3.org/2000/svg">
<rect width="1482" height="44" fill="#F7A491"/>
<path d="M4.54 21.78C4.54 20.9133 4.7 20.0667 5.02 19.24C5.34 18.4 5.80667 17.64 6.42 16.96C7.03333 16.28 7.78 15.74 8.66 15.34C9.54 14.9267 10.54 14.72 11.66 14.72C12.9933 14.72 14.1467 15.0067 15.12 15.58C16.1067 16.1533 16.84 16.9 17.32 17.82L14.8 19.58C14.5867 19.0733 14.3 18.68 13.94 18.4C13.5933 18.12 13.2067 17.9267 12.78 17.82C12.3667 17.7 11.9667 17.64 11.58 17.64C10.9533 17.64 10.4067 17.7667 9.94 18.02C9.47333 18.26 9.08667 18.5867 8.78 19C8.47333 19.4133 8.24667 19.8733 8.1 20.38C7.95333 20.8867 7.88 21.3933 7.88 21.9C7.88 22.46 7.96667 23 8.14 23.52C8.31333 24.04 8.56 24.5 8.88 24.9C9.21333 25.3 9.61333 25.62 10.08 25.86C10.5467 26.0867 11.06 26.2 11.62 26.2C12.02 26.2 12.4267 26.1333 12.84 26C13.2533 25.8667 13.6333 25.66 13.98 25.38C14.34 25.0867 14.6133 24.7067 14.8 24.24L17.48 25.82C17.2 26.5133 16.74 27.1067 16.1 27.6C15.46 28.0933 14.7333 28.4733 13.92 28.74C13.12 28.9933 12.3267 29.12 11.54 29.12C10.5133 29.12 9.56667 28.9133 8.7 28.5C7.84667 28.0733 7.10667 27.5133 6.48 26.82C5.86667 26.1133 5.38667 25.3267 5.04 24.46C4.70667 23.58 4.54 22.6867 4.54 21.78ZM19.7295 29V14.8H23.0095V29H19.7295ZM28.3856 14.8L31.7256 25.16L35.0256 14.8H38.4856L33.3256 29H30.1056L24.9056 14.8H28.3856ZM40.4022 29V14.8H43.6822V29H40.4022ZM46.9983 29V14.8H50.2783V26.12H57.1583V29H46.9983ZM73.9595 26.12V29H63.9795V14.8H73.7795V17.68H67.2595V20.44H72.8595V23.1H67.2595V26.12H73.9595ZM78.6322 14.8L81.7122 19.7L84.7922 14.8H88.3522L83.6522 22L88.1922 29H84.6322L81.7122 24.3L78.7922 29H75.2122L79.7522 22L75.0522 14.8H78.6322ZM90.1795 29V14.8H96.2395C96.9195 14.8 97.5395 14.94 98.0995 15.22C98.6729 15.4867 99.1662 15.8533 99.5795 16.32C99.9929 16.7733 100.313 17.2867 100.54 17.86C100.766 18.4333 100.88 19.02 100.88 19.62C100.88 20.4333 100.686 21.2067 100.3 21.94C99.9262 22.6733 99.3995 23.2733 98.7195 23.74C98.0529 24.1933 97.2595 24.42 96.3395 24.42H93.4595V29H90.1795ZM93.4595 21.56H96.1395C96.3929 21.56 96.6262 21.4867 96.8395 21.34C97.0529 21.1933 97.2262 20.9733 97.3595 20.68C97.4929 20.3867 97.5595 20.0267 97.5595 19.6C97.5595 19.16 97.4795 18.8 97.3195 18.52C97.1729 18.2267 96.9795 18.0133 96.7395 17.88C96.5129 17.7467 96.2729 17.68 96.0195 17.68H93.4595V21.56ZM109.46 29.12C108.394 29.12 107.427 28.92 106.56 28.52C105.707 28.1067 104.967 27.56 104.34 26.88C103.727 26.1867 103.254 25.4133 102.92 24.56C102.587 23.6933 102.42 22.8 102.42 21.88C102.42 20.9333 102.594 20.0333 102.94 19.18C103.3 18.3267 103.794 17.5667 104.42 16.9C105.06 16.22 105.814 15.6867 106.68 15.3C107.547 14.9133 108.494 14.72 109.52 14.72C110.574 14.72 111.527 14.9267 112.38 15.34C113.247 15.74 113.987 16.2867 114.6 16.98C115.227 17.6733 115.707 18.4533 116.04 19.32C116.374 20.1733 116.54 21.0467 116.54 21.94C116.54 22.8867 116.367 23.7867 116.02 24.64C115.674 25.4933 115.18 26.26 114.54 26.94C113.9 27.6067 113.147 28.14 112.28 28.54C111.427 28.9267 110.487 29.12 109.46 29.12ZM105.76 21.92C105.76 22.4667 105.84 23 106 23.52C106.16 24.0267 106.394 24.48 106.7 24.88C107.02 25.28 107.414 25.6 107.88 25.84C108.347 26.08 108.88 26.2 109.48 26.2C110.107 26.2 110.654 26.08 111.12 25.84C111.587 25.5867 111.974 25.2533 112.28 24.84C112.587 24.4267 112.814 23.9667 112.96 23.46C113.12 22.94 113.2 22.4133 113.2 21.88C113.2 21.3333 113.12 20.8067 112.96 20.3C112.8 19.7933 112.56 19.34 112.24 18.94C111.92 18.5267 111.527 18.2067 111.06 17.98C110.594 17.7533 110.067 17.64 109.48 17.64C108.854 17.64 108.307 17.76 107.84 18C107.387 18.24 107 18.5667 106.68 18.98C106.374 19.38 106.14 19.84 105.98 20.36C105.834 20.8667 105.76 21.3867 105.76 21.92ZM124.304 29V14.8H127.584V29H124.304ZM141.72 17.68H137.4V29H134.12V17.68H129.78V14.8H141.72V17.68ZM152.442 18.96C152.402 18.8933 152.262 18.7933 152.022 18.66C151.782 18.5133 151.482 18.36 151.122 18.2C150.762 18.04 150.368 17.9 149.942 17.78C149.515 17.66 149.088 17.6 148.662 17.6C148.102 17.6 147.668 17.7 147.362 17.9C147.055 18.0867 146.902 18.38 146.902 18.78C146.902 19.1 147.015 19.3533 147.242 19.54C147.482 19.7267 147.822 19.8933 148.262 20.04C148.702 20.1733 149.242 20.3333 149.882 20.52C150.788 20.76 151.575 21.0533 152.242 21.4C152.908 21.7333 153.415 22.1667 153.762 22.7C154.122 23.2333 154.302 23.94 154.302 24.82C154.302 25.62 154.155 26.3 153.862 26.86C153.568 27.4067 153.168 27.8533 152.662 28.2C152.168 28.5333 151.602 28.78 150.962 28.94C150.322 29.0867 149.662 29.16 148.982 29.16C148.288 29.16 147.575 29.0933 146.842 28.96C146.122 28.8133 145.428 28.6133 144.762 28.36C144.095 28.0933 143.482 27.7733 142.922 27.4L144.362 24.54C144.415 24.6067 144.588 24.7333 144.882 24.92C145.175 25.0933 145.535 25.28 145.962 25.48C146.402 25.6667 146.888 25.8333 147.422 25.98C147.955 26.1267 148.495 26.2 149.042 26.2C149.628 26.2 150.062 26.1067 150.342 25.92C150.635 25.7333 150.782 25.4733 150.782 25.14C150.782 24.78 150.628 24.5 150.322 24.3C150.028 24.1 149.622 23.92 149.102 23.76C148.595 23.6 148.008 23.42 147.342 23.22C146.475 22.9533 145.755 22.6533 145.182 22.32C144.622 21.9867 144.202 21.58 143.922 21.1C143.655 20.62 143.522 20.02 143.522 19.3C143.522 18.3 143.755 17.46 144.222 16.78C144.702 16.0867 145.342 15.5667 146.142 15.22C146.942 14.86 147.815 14.68 148.762 14.68C149.428 14.68 150.068 14.76 150.682 14.92C151.308 15.08 151.888 15.28 152.422 15.52C152.968 15.76 153.455 16 153.882 16.24L152.442 18.96ZM161.434 29C161.434 28.3733 161.481 27.8133 161.574 27.32C161.681 26.8267 161.848 26.38 162.074 25.98C162.314 25.5667 162.628 25.1867 163.014 24.84C163.414 24.48 163.914 24.14 164.514 23.82C165.141 23.4867 165.661 23.2067 166.074 22.98C166.501 22.74 166.841 22.54 167.094 22.38C167.348 22.22 167.521 22.0667 167.614 21.92C167.721 21.76 167.774 21.5867 167.774 21.4C167.774 21.1467 167.714 20.9267 167.594 20.74C167.474 20.5533 167.301 20.4133 167.074 20.32C166.848 20.2133 166.568 20.16 166.234 20.16C165.968 20.16 165.714 20.1933 165.474 20.26C165.234 20.3267 165.001 20.4267 164.774 20.56C164.561 20.6933 164.354 20.8533 164.154 21.04C163.954 21.2133 163.754 21.4133 163.554 21.64L161.534 19.28C161.761 19.0533 162.048 18.8267 162.394 18.6C162.754 18.3733 163.161 18.1733 163.614 18C164.068 17.8133 164.561 17.6667 165.094 17.56C165.641 17.44 166.208 17.38 166.794 17.38C167.754 17.38 168.561 17.5267 169.214 17.82C169.881 18.1 170.388 18.5 170.734 19.02C171.081 19.54 171.254 20.1533 171.254 20.86C171.254 21.3133 171.181 21.7133 171.034 22.06C170.901 22.3933 170.721 22.6933 170.494 22.96C170.268 23.2267 170.008 23.4667 169.714 23.68C169.434 23.8933 169.154 24.0867 168.874 24.26C168.554 24.42 168.254 24.58 167.974 24.74C167.694 24.8867 167.434 25.0333 167.194 25.18C166.954 25.3133 166.728 25.46 166.514 25.62C166.314 25.7667 166.121 25.9333 165.934 26.12H171.474V29H161.434ZM184.296 23.14C184.296 24.3133 184.069 25.36 183.616 26.28C183.163 27.1867 182.543 27.9 181.756 28.42C180.969 28.94 180.076 29.2 179.076 29.2C178.089 29.2 177.196 28.94 176.396 28.42C175.609 27.9 174.989 27.1867 174.536 26.28C174.083 25.36 173.856 24.3133 173.856 23.14C173.856 21.9667 174.083 20.9267 174.536 20.02C174.989 19.1 175.609 18.38 176.396 17.86C177.196 17.3267 178.089 17.06 179.076 17.06C180.076 17.06 180.969 17.3267 181.756 17.86C182.543 18.38 183.163 19.1 183.616 20.02C184.069 20.9267 184.296 21.9667 184.296 23.14ZM181.076 23.14C181.076 22.5133 180.989 21.9667 180.816 21.5C180.643 21.0333 180.403 20.6667 180.096 20.4C179.803 20.1333 179.463 20 179.076 20C178.676 20 178.323 20.1333 178.016 20.4C177.709 20.6667 177.469 21.0333 177.296 21.5C177.136 21.9667 177.056 22.5133 177.056 23.14C177.056 23.7667 177.136 24.3133 177.296 24.78C177.469 25.2467 177.709 25.6133 178.016 25.88C178.323 26.1333 178.676 26.26 179.076 26.26C179.463 26.26 179.803 26.1333 180.096 25.88C180.403 25.6133 180.643 25.2467 180.816 24.78C180.989 24.3133 181.076 23.7667 181.076 23.14ZM186.521 29C186.521 28.3733 186.568 27.8133 186.661 27.32C186.768 26.8267 186.934 26.38 187.161 25.98C187.401 25.5667 187.714 25.1867 188.101 24.84C188.501 24.48 189.001 24.14 189.601 23.82C190.228 23.4867 190.748 23.2067 191.161 22.98C191.588 22.74 191.928 22.54 192.181 22.38C192.434 22.22 192.608 22.0667 192.701 21.92C192.808 21.76 192.861 21.5867 192.861 21.4C192.861 21.1467 192.801 20.9267 192.681 20.74C192.561 20.5533 192.388 20.4133 192.161 20.32C191.934 20.2133 191.654 20.16 191.321 20.16C191.054 20.16 190.801 20.1933 190.561 20.26C190.321 20.3267 190.088 20.4267 189.861 20.56C189.648 20.6933 189.441 20.8533 189.241 21.04C189.041 21.2133 188.841 21.4133 188.641 21.64L186.621 19.28C186.848 19.0533 187.134 18.8267 187.481 18.6C187.841 18.3733 188.248 18.1733 188.701 18C189.154 17.8133 189.648 17.6667 190.181 17.56C190.728 17.44 191.294 17.38 191.881 17.38C192.841 17.38 193.648 17.5267 194.301 17.82C194.968 18.1 195.474 18.5 195.821 19.02C196.168 19.54 196.341 20.1533 196.341 20.86C196.341 21.3133 196.268 21.7133 196.121 22.06C195.988 22.3933 195.808 22.6933 195.581 22.96C195.354 23.2267 195.094 23.4667 194.801 23.68C194.521 23.8933 194.241 24.0867 193.961 24.26C193.641 24.42 193.341 24.58 193.061 24.74C192.781 24.8867 192.521 25.0333 192.281 25.18C192.041 25.3133 191.814 25.46 191.601 25.62C191.401 25.7667 191.208 25.9333 191.021 26.12H196.561V29H186.521ZM198.723 29C198.723 28.3733 198.769 27.8133 198.863 27.32C198.969 26.8267 199.136 26.38 199.363 25.98C199.603 25.5667 199.916 25.1867 200.303 24.84C200.703 24.48 201.203 24.14 201.803 23.82C202.429 23.4867 202.949 23.2067 203.363 22.98C203.789 22.74 204.129 22.54 204.383 22.38C204.636 22.22 204.809 22.0667 204.903 21.92C205.009 21.76 205.063 21.5867 205.063 21.4C205.063 21.1467 205.003 20.9267 204.883 20.74C204.763 20.5533 204.589 20.4133 204.363 20.32C204.136 20.2133 203.856 20.16 203.523 20.16C203.256 20.16 203.003 20.1933 202.763 20.26C202.523 20.3267 202.289 20.4267 202.063 20.56C201.849 20.6933 201.643 20.8533 201.443 21.04C201.243 21.2133 201.043 21.4133 200.843 21.64L198.823 19.28C199.049 19.0533 199.336 18.8267 199.683 18.6C200.043 18.3733 200.449 18.1733 200.903 18C201.356 17.8133 201.849 17.6667 202.383 17.56C202.929 17.44 203.496 17.38 204.083 17.38C205.043 17.38 205.849 17.5267 206.503 17.82C207.169 18.1 207.676 18.5 208.023 19.02C208.369 19.54 208.543 20.1533 208.543 20.86C208.543 21.3133 208.469 21.7133 208.323 22.06C208.189 22.3933 208.009 22.6933 207.783 22.96C207.556 23.2267 207.296 23.4667 207.003 23.68C206.723 23.8933 206.443 24.0867 206.163 24.26C205.843 24.42 205.543 24.58 205.263 24.74C204.983 24.8867 204.723 25.0333 204.483 25.18C204.243 25.3133 204.016 25.46 203.803 25.62C203.603 25.7667 203.409 25.9333 203.223 26.12H208.763V29H198.723ZM216.032 21.78C216.032 20.9133 216.192 20.0667 216.512 19.24C216.832 18.4 217.299 17.64 217.912 16.96C218.526 16.28 219.272 15.74 220.152 15.34C221.032 14.9267 222.032 14.72 223.152 14.72C224.486 14.72 225.639 15.0067 226.612 15.58C227.599 16.1533 228.332 16.9 228.812 17.82L226.292 19.58C226.079 19.0733 225.792 18.68 225.432 18.4C225.086 18.12 224.699 17.9267 224.272 17.82C223.859 17.7 223.459 17.64 223.072 17.64C222.446 17.64 221.899 17.7667 221.432 18.02C220.966 18.26 220.579 18.5867 220.272 19C219.966 19.4133 219.739 19.8733 219.592 20.38C219.446 20.8867 219.372 21.3933 219.372 21.9C219.372 22.46 219.459 23 219.632 23.52C219.806 24.04 220.052 24.5 220.372 24.9C220.706 25.3 221.106 25.62 221.572 25.86C222.039 26.0867 222.552 26.2 223.112 26.2C223.512 26.2 223.919 26.1333 224.332 26C224.746 25.8667 225.126 25.66 225.472 25.38C225.832 25.0867 226.106 24.7067 226.292 24.24L228.972 25.82C228.692 26.5133 228.232 27.1067 227.592 27.6C226.952 28.0933 226.226 28.4733 225.412 28.74C224.612 28.9933 223.819 29.12 223.032 29.12C222.006 29.12 221.059 28.9133 220.192 28.5C219.339 28.0733 218.599 27.5133 217.972 26.82C217.359 26.1133 216.879 25.3267 216.532 24.46C216.199 23.58 216.032 22.6867 216.032 21.78ZM231.222 29V14.8H234.502V29H231.222ZM239.878 14.8L243.218 25.16L246.518 14.8H249.978L244.818 29H241.598L236.398 14.8H239.878ZM251.894 29V14.8H255.174V29H251.894ZM258.49 29V14.8H261.77V26.12H268.65V29H258.49ZM285.452 26.12V29H275.472V14.8H285.272V17.68H278.752V20.44H284.352V23.1H278.752V26.12H285.452ZM290.124 14.8L293.204 19.7L296.284 14.8H299.844L295.144 22L299.684 29H296.124L293.204 24.3L290.284 29H286.704L291.244 22L286.544 14.8H290.124ZM301.672 29V14.8H307.732C308.412 14.8 309.032 14.94 309.592 15.22C310.165 15.4867 310.658 15.8533 311.072 16.32C311.485 16.7733 311.805 17.2867 312.032 17.86C312.258 18.4333 312.372 19.02 312.372 19.62C312.372 20.4333 312.178 21.2067 311.792 21.94C311.418 22.6733 310.892 23.2733 310.212 23.74C309.545 24.1933 308.752 24.42 307.832 24.42H304.952V29H301.672ZM304.952 21.56H307.632C307.885 21.56 308.118 21.4867 308.332 21.34C308.545 21.1933 308.718 20.9733 308.852 20.68C308.985 20.3867 309.052 20.0267 309.052 19.6C309.052 19.16 308.972 18.8 308.812 18.52C308.665 18.2267 308.472 18.0133 308.232 17.88C308.005 17.7467 307.765 17.68 307.512 17.68H304.952V21.56ZM320.953 29.12C319.886 29.12 318.919 28.92 318.053 28.52C317.199 28.1067 316.459 27.56 315.833 26.88C315.219 26.1867 314.746 25.4133 314.413 24.56C314.079 23.6933 313.913 22.8 313.913 21.88C313.913 20.9333 314.086 20.0333 314.433 19.18C314.793 18.3267 315.286 17.5667 315.913 16.9C316.553 16.22 317.306 15.6867 318.173 15.3C319.039 14.9133 319.986 14.72 321.013 14.72C322.066 14.72 323.019 14.9267 323.873 15.34C324.739 15.74 325.479 16.2867 326.093 16.98C326.719 17.6733 327.199 18.4533 327.533 19.32C327.866 20.1733 328.033 21.0467 328.033 21.94C328.033 22.8867 327.859 23.7867 327.513 24.64C327.166 25.4933 326.673 26.26 326.033 26.94C325.393 27.6067 324.639 28.14 323.773 28.54C322.919 28.9267 321.979 29.12 320.953 29.12ZM317.253 21.92C317.253 22.4667 317.333 23 317.493 23.52C317.653 24.0267 317.886 24.48 318.193 24.88C318.513 25.28 318.906 25.6 319.373 25.84C319.839 26.08 320.373 26.2 320.973 26.2C321.599 26.2 322.146 26.08 322.613 25.84C323.079 25.5867 323.466 25.2533 323.773 24.84C324.079 24.4267 324.306 23.9667 324.453 23.46C324.613 22.94 324.693 22.4133 324.693 21.88C324.693 21.3333 324.613 20.8067 324.453 20.3C324.293 19.7933 324.053 19.34 323.733 18.94C323.413 18.5267 323.019 18.2067 322.553 17.98C322.086 17.7533 321.559 17.64 320.973 17.64C320.346 17.64 319.799 17.76 319.333 18C318.879 18.24 318.493 18.5667 318.173 18.98C317.866 19.38 317.633 19.84 317.473 20.36C317.326 20.8667 317.253 21.3867 317.253 21.92ZM335.796 29V14.8H339.076V29H335.796ZM353.212 17.68H348.892V29H345.612V17.68H341.272V14.8H353.212V17.68ZM363.934 18.96C363.894 18.8933 363.754 18.7933 363.514 18.66C363.274 18.5133 362.974 18.36 362.614 18.2C362.254 18.04 361.861 17.9 361.434 17.78C361.007 17.66 360.581 17.6 360.154 17.6C359.594 17.6 359.161 17.7 358.854 17.9C358.547 18.0867 358.394 18.38 358.394 18.78C358.394 19.1 358.507 19.3533 358.734 19.54C358.974 19.7267 359.314 19.8933 359.754 20.04C360.194 20.1733 360.734 20.3333 361.374 20.52C362.281 20.76 363.067 21.0533 363.734 21.4C364.401 21.7333 364.907 22.1667 365.254 22.7C365.614 23.2333 365.794 23.94 365.794 24.82C365.794 25.62 365.647 26.3 365.354 26.86C365.061 27.4067 364.661 27.8533 364.154 28.2C363.661 28.5333 363.094 28.78 362.454 28.94C361.814 29.0867 361.154 29.16 360.474 29.16C359.781 29.16 359.067 29.0933 358.334 28.96C357.614 28.8133 356.921 28.6133 356.254 28.36C355.587 28.0933 354.974 27.7733 354.414 27.4L355.854 24.54C355.907 24.6067 356.081 24.7333 356.374 24.92C356.667 25.0933 357.027 25.28 357.454 25.48C357.894 25.6667 358.381 25.8333 358.914 25.98C359.447 26.1267 359.987 26.2 360.534 26.2C361.121 26.2 361.554 26.1067 361.834 25.92C362.127 25.7333 362.274 25.4733 362.274 25.14C362.274 24.78 362.121 24.5 361.814 24.3C361.521 24.1 361.114 23.92 360.594 23.76C360.087 23.6 359.501 23.42 358.834 23.22C357.967 22.9533 357.247 22.6533 356.674 22.32C356.114 21.9867 355.694 21.58 355.414 21.1C355.147 20.62 355.014 20.02 355.014 19.3C355.014 18.3 355.247 17.46 355.714 16.78C356.194 16.0867 356.834 15.5667 357.634 15.22C358.434 14.86 359.307 14.68 360.254 14.68C360.921 14.68 361.561 14.76 362.174 14.92C362.801 15.08 363.381 15.28 363.914 15.52C364.461 15.76 364.947 16 365.374 16.24L363.934 18.96ZM372.927 29C372.927 28.3733 372.973 27.8133 373.067 27.32C373.173 26.8267 373.34 26.38 373.567 25.98C373.807 25.5667 374.12 25.1867 374.507 24.84C374.907 24.48 375.407 24.14 376.007 23.82C376.633 23.4867 377.153 23.2067 377.567 22.98C377.993 22.74 378.333 22.54 378.587 22.38C378.84 22.22 379.013 22.0667 379.107 21.92C379.213 21.76 379.267 21.5867 379.267 21.4C379.267 21.1467 379.207 20.9267 379.087 20.74C378.967 20.5533 378.793 20.4133 378.567 20.32C378.34 20.2133 378.06 20.16 377.727 20.16C377.46 20.16 377.207 20.1933 376.967 20.26C376.727 20.3267 376.493 20.4267 376.267 20.56C376.053 20.6933 375.847 20.8533 375.647 21.04C375.447 21.2133 375.247 21.4133 375.047 21.64L373.027 19.28C373.253 19.0533 373.54 18.8267 373.887 18.6C374.247 18.3733 374.653 18.1733 375.107 18C375.56 17.8133 376.053 17.6667 376.587 17.56C377.133 17.44 377.7 17.38 378.287 17.38C379.247 17.38 380.053 17.5267 380.707 17.82C381.373 18.1 381.88 18.5 382.227 19.02C382.573 19.54 382.747 20.1533 382.747 20.86C382.747 21.3133 382.673 21.7133 382.527 22.06C382.393 22.3933 382.213 22.6933 381.987 22.96C381.76 23.2267 381.5 23.4667 381.207 23.68C380.927 23.8933 380.647 24.0867 380.367 24.26C380.047 24.42 379.747 24.58 379.467 24.74C379.187 24.8867 378.927 25.0333 378.687 25.18C378.447 25.3133 378.22 25.46 378.007 25.62C377.807 25.7667 377.613 25.9333 377.427 26.12H382.967V29H372.927ZM395.788 23.14C395.788 24.3133 395.561 25.36 395.108 26.28C394.655 27.1867 394.035 27.9 393.248 28.42C392.461 28.94 391.568 29.2 390.568 29.2C389.581 29.2 388.688 28.94 387.888 28.42C387.101 27.9 386.481 27.1867 386.028 26.28C385.575 25.36 385.348 24.3133 385.348 23.14C385.348 21.9667 385.575 20.9267 386.028 20.02C386.481 19.1 387.101 18.38 387.888 17.86C388.688 17.3267 389.581 17.06 390.568 17.06C391.568 17.06 392.461 17.3267 393.248 17.86C394.035 18.38 394.655 19.1 395.108 20.02C395.561 20.9267 395.788 21.9667 395.788 23.14ZM392.568 23.14C392.568 22.5133 392.481 21.9667 392.308 21.5C392.135 21.0333 391.895 20.6667 391.588 20.4C391.295 20.1333 390.955 20 390.568 20C390.168 20 389.815 20.1333 389.508 20.4C389.201 20.6667 388.961 21.0333 388.788 21.5C388.628 21.9667 388.548 22.5133 388.548 23.14C388.548 23.7667 388.628 24.3133 388.788 24.78C388.961 25.2467 389.201 25.6133 389.508 25.88C389.815 26.1333 390.168 26.26 390.568 26.26C390.955 26.26 391.295 26.1333 391.588 25.88C391.895 25.6133 392.135 25.2467 392.308 24.78C392.481 24.3133 392.568 23.7667 392.568 23.14ZM398.013 29C398.013 28.3733 398.06 27.8133 398.153 27.32C398.26 26.8267 398.427 26.38 398.653 25.98C398.893 25.5667 399.207 25.1867 399.593 24.84C399.993 24.48 400.493 24.14 401.093 23.82C401.72 23.4867 402.24 23.2067 402.653 22.98C403.08 22.74 403.42 22.54 403.673 22.38C403.927 22.22 404.1 22.0667 404.193 21.92C404.3 21.76 404.353 21.5867 404.353 21.4C404.353 21.1467 404.293 20.9267 404.173 20.74C404.053 20.5533 403.88 20.4133 403.653 20.32C403.427 20.2133 403.147 20.16 402.813 20.16C402.547 20.16 402.293 20.1933 402.053 20.26C401.813 20.3267 401.58 20.4267 401.353 20.56C401.14 20.6933 400.933 20.8533 400.733 21.04C400.533 21.2133 400.333 21.4133 400.133 21.64L398.113 19.28C398.34 19.0533 398.627 18.8267 398.973 18.6C399.333 18.3733 399.74 18.1733 400.193 18C400.647 17.8133 401.14 17.6667 401.673 17.56C402.22 17.44 402.787 17.38 403.373 17.38C404.333 17.38 405.14 17.5267 405.793 17.82C406.46 18.1 406.967 18.5 407.313 19.02C407.66 19.54 407.833 20.1533 407.833 20.86C407.833 21.3133 407.76 21.7133 407.613 22.06C407.48 22.3933 407.3 22.6933 407.073 22.96C406.847 23.2267 406.587 23.4667 406.293 23.68C406.013 23.8933 405.733 24.0867 405.453 24.26C405.133 24.42 404.833 24.58 404.553 24.74C404.273 24.8867 404.013 25.0333 403.773 25.18C403.533 25.3133 403.307 25.46 403.093 25.62C402.893 25.7667 402.7 25.9333 402.513 26.12H408.053V29H398.013ZM410.215 29C410.215 28.3733 410.261 27.8133 410.355 27.32C410.461 26.8267 410.628 26.38 410.855 25.98C411.095 25.5667 411.408 25.1867 411.795 24.84C412.195 24.48 412.695 24.14 413.295 23.82C413.921 23.4867 414.441 23.2067 414.855 22.98C415.281 22.74 415.621 22.54 415.875 22.38C416.128 22.22 416.301 22.0667 416.395 21.92C416.501 21.76 416.555 21.5867 416.555 21.4C416.555 21.1467 416.495 20.9267 416.375 20.74C416.255 20.5533 416.081 20.4133 415.855 20.32C415.628 20.2133 415.348 20.16 415.015 20.16C414.748 20.16 414.495 20.1933 414.255 20.26C414.015 20.3267 413.781 20.4267 413.555 20.56C413.341 20.6933 413.135 20.8533 412.935 21.04C412.735 21.2133 412.535 21.4133 412.335 21.64L410.315 19.28C410.541 19.0533 410.828 18.8267 411.175 18.6C411.535 18.3733 411.941 18.1733 412.395 18C412.848 17.8133 413.341 17.6667 413.875 17.56C414.421 17.44 414.988 17.38 415.575 17.38C416.535 17.38 417.341 17.5267 417.995 17.82C418.661 18.1 419.168 18.5 419.515 19.02C419.861 19.54 420.035 20.1533 420.035 20.86C420.035 21.3133 419.961 21.7133 419.815 22.06C419.681 22.3933 419.501 22.6933 419.275 22.96C419.048 23.2267 418.788 23.4667 418.495 23.68C418.215 23.8933 417.935 24.0867 417.655 24.26C417.335 24.42 417.035 24.58 416.755 24.74C416.475 24.8867 416.215 25.0333 415.975 25.18C415.735 25.3133 415.508 25.46 415.295 25.62C415.095 25.7667 414.901 25.9333 414.715 26.12H420.255V29H410.215ZM427.524 21.78C427.524 20.9133 427.684 20.0667 428.004 19.24C428.324 18.4 428.791 17.64 429.404 16.96C430.018 16.28 430.764 15.74 431.644 15.34C432.524 14.9267 433.524 14.72 434.644 14.72C435.978 14.72 437.131 15.0067 438.104 15.58C439.091 16.1533 439.824 16.9 440.304 17.82L437.784 19.58C437.571 19.0733 437.284 18.68 436.924 18.4C436.578 18.12 436.191 17.9267 435.764 17.82C435.351 17.7 434.951 17.64 434.564 17.64C433.938 17.64 433.391 17.7667 432.924 18.02C432.458 18.26 432.071 18.5867 431.764 19C431.458 19.4133 431.231 19.8733 431.084 20.38C430.938 20.8867 430.864 21.3933 430.864 21.9C430.864 22.46 430.951 23 431.124 23.52C431.298 24.04 431.544 24.5 431.864 24.9C432.198 25.3 432.598 25.62 433.064 25.86C433.531 26.0867 434.044 26.2 434.604 26.2C435.004 26.2 435.411 26.1333 435.824 26C436.238 25.8667 436.618 25.66 436.964 25.38C437.324 25.0867 437.598 24.7067 437.784 24.24L440.464 25.82C440.184 26.5133 439.724 27.1067 439.084 27.6C438.444 28.0933 437.718 28.4733 436.904 28.74C436.104 28.9933 435.311 29.12 434.524 29.12C433.498 29.12 432.551 28.9133 431.684 28.5C430.831 28.0733 430.091 27.5133 429.464 26.82C428.851 26.1133 428.371 25.3267 428.024 24.46C427.691 23.58 427.524 22.6867 427.524 21.78ZM442.714 29V14.8H445.994V29H442.714ZM451.37 14.8L454.71 25.16L458.01 14.8H461.47L456.31 29H453.09L447.89 14.8H451.37ZM463.387 29V14.8H466.667V29H463.387ZM469.983 29V14.8H473.263V26.12H480.143V29H469.983ZM496.944 26.12V29H486.964V14.8H496.764V17.68H490.244V20.44H495.844V23.1H490.244V26.12H496.944ZM501.617 14.8L504.697 19.7L507.777 14.8H511.337L506.637 22L511.177 29H507.617L504.697 24.3L501.777 29H498.197L502.737 22L498.037 14.8H501.617ZM513.164 29V14.8H519.224C519.904 14.8 520.524 14.94 521.084 15.22C521.657 15.4867 522.151 15.8533 522.564 16.32C522.977 16.7733 523.297 17.2867 523.524 17.86C523.751 18.4333 523.864 19.02 523.864 19.62C523.864 20.4333 523.671 21.2067 523.284 21.94C522.911 22.6733 522.384 23.2733 521.704 23.74C521.037 24.1933 520.244 24.42 519.324 24.42H516.444V29H513.164ZM516.444 21.56H519.124C519.377 21.56 519.611 21.4867 519.824 21.34C520.037 21.1933 520.211 20.9733 520.344 20.68C520.477 20.3867 520.544 20.0267 520.544 19.6C520.544 19.16 520.464 18.8 520.304 18.52C520.157 18.2267 519.964 18.0133 519.724 17.88C519.497 17.7467 519.257 17.68 519.004 17.68H516.444V21.56ZM532.445 29.12C531.378 29.12 530.412 28.92 529.545 28.52C528.692 28.1067 527.952 27.56 527.325 26.88C526.712 26.1867 526.238 25.4133 525.905 24.56C525.572 23.6933 525.405 22.8 525.405 21.88C525.405 20.9333 525.578 20.0333 525.925 19.18C526.285 18.3267 526.778 17.5667 527.405 16.9C528.045 16.22 528.798 15.6867 529.665 15.3C530.532 14.9133 531.478 14.72 532.505 14.72C533.558 14.72 534.512 14.9267 535.365 15.34C536.232 15.74 536.972 16.2867 537.585 16.98C538.212 17.6733 538.692 18.4533 539.025 19.32C539.358 20.1733 539.525 21.0467 539.525 21.94C539.525 22.8867 539.352 23.7867 539.005 24.64C538.658 25.4933 538.165 26.26 537.525 26.94C536.885 27.6067 536.132 28.14 535.265 28.54C534.412 28.9267 533.472 29.12 532.445 29.12ZM528.745 21.92C528.745 22.4667 528.825 23 528.985 23.52C529.145 24.0267 529.378 24.48 529.685 24.88C530.005 25.28 530.398 25.6 530.865 25.84C531.332 26.08 531.865 26.2 532.465 26.2C533.092 26.2 533.638 26.08 534.105 25.84C534.572 25.5867 534.958 25.2533 535.265 24.84C535.572 24.4267 535.798 23.9667 535.945 23.46C536.105 22.94 536.185 22.4133 536.185 21.88C536.185 21.3333 536.105 20.8067 535.945 20.3C535.785 19.7933 535.545 19.34 535.225 18.94C534.905 18.5267 534.512 18.2067 534.045 17.98C533.578 17.7533 533.052 17.64 532.465 17.64C531.838 17.64 531.292 17.76 530.825 18C530.372 18.24 529.985 18.5667 529.665 18.98C529.358 19.38 529.125 19.84 528.965 20.36C528.818 20.8667 528.745 21.3867 528.745 21.92ZM547.288 29V14.8H550.568V29H547.288ZM564.704 17.68H560.384V29H557.104V17.68H552.764V14.8H564.704V17.68ZM575.426 18.96C575.386 18.8933 575.246 18.7933 575.006 18.66C574.766 18.5133 574.466 18.36 574.106 18.2C573.746 18.04 573.353 17.9 572.926 17.78C572.499 17.66 572.073 17.6 571.646 17.6C571.086 17.6 570.653 17.7 570.346 17.9C570.039 18.0867 569.886 18.38 569.886 18.78C569.886 19.1 569.999 19.3533 570.226 19.54C570.466 19.7267 570.806 19.8933 571.246 20.04C571.686 20.1733 572.226 20.3333 572.866 20.52C573.773 20.76 574.559 21.0533 575.226 21.4C575.893 21.7333 576.399 22.1667 576.746 22.7C577.106 23.2333 577.286 23.94 577.286 24.82C577.286 25.62 577.139 26.3 576.846 26.86C576.553 27.4067 576.153 27.8533 575.646 28.2C575.153 28.5333 574.586 28.78 573.946 28.94C573.306 29.0867 572.646 29.16 571.966 29.16C571.273 29.16 570.559 29.0933 569.826 28.96C569.106 28.8133 568.413 28.6133 567.746 28.36C567.079 28.0933 566.466 27.7733 565.906 27.4L567.346 24.54C567.399 24.6067 567.573 24.7333 567.866 24.92C568.159 25.0933 568.519 25.28 568.946 25.48C569.386 25.6667 569.873 25.8333 570.406 25.98C570.939 26.1267 571.479 26.2 572.026 26.2C572.613 26.2 573.046 26.1067 573.326 25.92C573.619 25.7333 573.766 25.4733 573.766 25.14C573.766 24.78 573.613 24.5 573.306 24.3C573.013 24.1 572.606 23.92 572.086 23.76C571.579 23.6 570.993 23.42 570.326 23.22C569.459 22.9533 568.739 22.6533 568.166 22.32C567.606 21.9867 567.186 21.58 566.906 21.1C566.639 20.62 566.506 20.02 566.506 19.3C566.506 18.3 566.739 17.46 567.206 16.78C567.686 16.0867 568.326 15.5667 569.126 15.22C569.926 14.86 570.799 14.68 571.746 14.68C572.413 14.68 573.053 14.76 573.666 14.92C574.293 15.08 574.873 15.28 575.406 15.52C575.953 15.76 576.439 16 576.866 16.24L575.426 18.96ZM584.419 29C584.419 28.3733 584.465 27.8133 584.559 27.32C584.665 26.8267 584.832 26.38 585.059 25.98C585.299 25.5667 585.612 25.1867 585.999 24.84C586.399 24.48 586.899 24.14 587.499 23.82C588.125 23.4867 588.645 23.2067 589.059 22.98C589.485 22.74 589.825 22.54 590.079 22.38C590.332 22.22 590.505 22.0667 590.599 21.92C590.705 21.76 590.759 21.5867 590.759 21.4C590.759 21.1467 590.699 20.9267 590.579 20.74C590.459 20.5533 590.285 20.4133 590.059 20.32C589.832 20.2133 589.552 20.16 589.219 20.16C588.952 20.16 588.699 20.1933 588.459 20.26C588.219 20.3267 587.985 20.4267 587.759 20.56C587.545 20.6933 587.339 20.8533 587.139 21.04C586.939 21.2133 586.739 21.4133 586.539 21.64L584.519 19.28C584.745 19.0533 585.032 18.8267 585.379 18.6C585.739 18.3733 586.145 18.1733 586.599 18C587.052 17.8133 587.545 17.6667 588.079 17.56C588.625 17.44 589.192 17.38 589.779 17.38C590.739 17.38 591.545 17.5267 592.199 17.82C592.865 18.1 593.372 18.5 593.719 19.02C594.065 19.54 594.239 20.1533 594.239 20.86C594.239 21.3133 594.165 21.7133 594.019 22.06C593.885 22.3933 593.705 22.6933 593.479 22.96C593.252 23.2267 592.992 23.4667 592.699 23.68C592.419 23.8933 592.139 24.0867 591.859 24.26C591.539 24.42 591.239 24.58 590.959 24.74C590.679 24.8867 590.419 25.0333 590.179 25.18C589.939 25.3133 589.712 25.46 589.499 25.62C589.299 25.7667 589.105 25.9333 588.919 26.12H594.459V29H584.419ZM607.28 23.14C607.28 24.3133 607.054 25.36 606.6 26.28C606.147 27.1867 605.527 27.9 604.74 28.42C603.954 28.94 603.06 29.2 602.06 29.2C601.074 29.2 600.18 28.94 599.38 28.42C598.594 27.9 597.974 27.1867 597.52 26.28C597.067 25.36 596.84 24.3133 596.84 23.14C596.84 21.9667 597.067 20.9267 597.52 20.02C597.974 19.1 598.594 18.38 599.38 17.86C600.18 17.3267 601.074 17.06 602.06 17.06C603.06 17.06 603.954 17.3267 604.74 17.86C605.527 18.38 606.147 19.1 606.6 20.02C607.054 20.9267 607.28 21.9667 607.28 23.14ZM604.06 23.14C604.06 22.5133 603.974 21.9667 603.8 21.5C603.627 21.0333 603.387 20.6667 603.08 20.4C602.787 20.1333 602.447 20 602.06 20C601.66 20 601.307 20.1333 601 20.4C600.694 20.6667 600.454 21.0333 600.28 21.5C600.12 21.9667 600.04 22.5133 600.04 23.14C600.04 23.7667 600.12 24.3133 600.28 24.78C600.454 25.2467 600.694 25.6133 601 25.88C601.307 26.1333 601.66 26.26 602.06 26.26C602.447 26.26 602.787 26.1333 603.08 25.88C603.387 25.6133 603.627 25.2467 603.8 24.78C603.974 24.3133 604.06 23.7667 604.06 23.14ZM609.505 29C609.505 28.3733 609.552 27.8133 609.645 27.32C609.752 26.8267 609.919 26.38 610.145 25.98C610.385 25.5667 610.699 25.1867 611.085 24.84C611.485 24.48 611.985 24.14 612.585 23.82C613.212 23.4867 613.732 23.2067 614.145 22.98C614.572 22.74 614.912 22.54 615.165 22.38C615.419 22.22 615.592 22.0667 615.685 21.92C615.792 21.76 615.845 21.5867 615.845 21.4C615.845 21.1467 615.785 20.9267 615.665 20.74C615.545 20.5533 615.372 20.4133 615.145 20.32C614.919 20.2133 614.639 20.16 614.305 20.16C614.039 20.16 613.785 20.1933 613.545 20.26C613.305 20.3267 613.072 20.4267 612.845 20.56C612.632 20.6933 612.425 20.8533 612.225 21.04C612.025 21.2133 611.825 21.4133 611.625 21.64L609.605 19.28C609.832 19.0533 610.119 18.8267 610.465 18.6C610.825 18.3733 611.232 18.1733 611.685 18C612.139 17.8133 612.632 17.6667 613.165 17.56C613.712 17.44 614.279 17.38 614.865 17.38C615.825 17.38 616.632 17.5267 617.285 17.82C617.952 18.1 618.459 18.5 618.805 19.02C619.152 19.54 619.325 20.1533 619.325 20.86C619.325 21.3133 619.252 21.7133 619.105 22.06C618.972 22.3933 618.792 22.6933 618.565 22.96C618.339 23.2267 618.079 23.4667 617.785 23.68C617.505 23.8933 617.225 24.0867 616.945 24.26C616.625 24.42 616.325 24.58 616.045 24.74C615.765 24.8867 615.505 25.0333 615.265 25.18C615.025 25.3133 614.799 25.46 614.585 25.62C614.385 25.7667 614.192 25.9333 614.005 26.12H619.545V29H609.505ZM621.707 29C621.707 28.3733 621.754 27.8133 621.847 27.32C621.954 26.8267 622.12 26.38 622.347 25.98C622.587 25.5667 622.9 25.1867 623.287 24.84C623.687 24.48 624.187 24.14 624.787 23.82C625.414 23.4867 625.934 23.2067 626.347 22.98C626.774 22.74 627.114 22.54 627.367 22.38C627.62 22.22 627.794 22.0667 627.887 21.92C627.994 21.76 628.047 21.5867 628.047 21.4C628.047 21.1467 627.987 20.9267 627.867 20.74C627.747 20.5533 627.574 20.4133 627.347 20.32C627.12 20.2133 626.84 20.16 626.507 20.16C626.24 20.16 625.987 20.1933 625.747 20.26C625.507 20.3267 625.274 20.4267 625.047 20.56C624.834 20.6933 624.627 20.8533 624.427 21.04C624.227 21.2133 624.027 21.4133 623.827 21.64L621.807 19.28C622.034 19.0533 622.32 18.8267 622.667 18.6C623.027 18.3733 623.434 18.1733 623.887 18C624.34 17.8133 624.834 17.6667 625.367 17.56C625.914 17.44 626.48 17.38 627.067 17.38C628.027 17.38 628.834 17.5267 629.487 17.82C630.154 18.1 630.66 18.5 631.007 19.02C631.354 19.54 631.527 20.1533 631.527 20.86C631.527 21.3133 631.454 21.7133 631.307 22.06C631.174 22.3933 630.994 22.6933 630.767 22.96C630.54 23.2267 630.28 23.4667 629.987 23.68C629.707 23.8933 629.427 24.0867 629.147 24.26C628.827 24.42 628.527 24.58 628.247 24.74C627.967 24.8867 627.707 25.0333 627.467 25.18C627.227 25.3133 627 25.46 626.787 25.62C626.587 25.7667 626.394 25.9333 626.207 26.12H631.747V29H621.707ZM639.017 21.78C639.017 20.9133 639.177 20.0667 639.497 19.24C639.817 18.4 640.283 17.64 640.897 16.96C641.51 16.28 642.257 15.74 643.137 15.34C644.017 14.9267 645.017 14.72 646.137 14.72C647.47 14.72 648.623 15.0067 649.597 15.58C650.583 16.1533 651.317 16.9 651.797 17.82L649.277 19.58C649.063 19.0733 648.777 18.68 648.417 18.4C648.07 18.12 647.683 17.9267 647.257 17.82C646.843 17.7 646.443 17.64 646.057 17.64C645.43 17.64 644.883 17.7667 644.417 18.02C643.95 18.26 643.563 18.5867 643.257 19C642.95 19.4133 642.723 19.8733 642.577 20.38C642.43 20.8867 642.357 21.3933 642.357 21.9C642.357 22.46 642.443 23 642.617 23.52C642.79 24.04 643.037 24.5 643.357 24.9C643.69 25.3 644.09 25.62 644.557 25.86C645.023 26.0867 645.537 26.2 646.097 26.2C646.497 26.2 646.903 26.1333 647.317 26C647.73 25.8667 648.11 25.66 648.457 25.38C648.817 25.0867 649.09 24.7067 649.277 24.24L651.957 25.82C651.677 26.5133 651.217 27.1067 650.577 27.6C649.937 28.0933 649.21 28.4733 648.397 28.74C647.597 28.9933 646.803 29.12 646.017 29.12C644.99 29.12 644.043 28.9133 643.177 28.5C642.323 28.0733 641.583 27.5133 640.957 26.82C640.343 26.1133 639.863 25.3267 639.517 24.46C639.183 23.58 639.017 22.6867 639.017 21.78ZM654.206 29V14.8H657.486V29H654.206ZM662.862 14.8L666.202 25.16L669.502 14.8H672.962L667.802 29H664.582L659.382 14.8H662.862ZM674.879 29V14.8H678.159V29H674.879ZM681.475 29V14.8H684.755V26.12H691.635V29H681.475ZM708.436 26.12V29H698.456V14.8H708.256V17.68H701.736V20.44H707.336V23.1H701.736V26.12H708.436ZM713.109 14.8L716.189 19.7L719.269 14.8H722.829L718.129 22L722.669 29H719.109L716.189 24.3L713.269 29H709.689L714.229 22L709.529 14.8H713.109ZM724.656 29V14.8H730.716C731.396 14.8 732.016 14.94 732.576 15.22C733.149 15.4867 733.643 15.8533 734.056 16.32C734.469 16.7733 734.789 17.2867 735.016 17.86C735.243 18.4333 735.356 19.02 735.356 19.62C735.356 20.4333 735.163 21.2067 734.776 21.94C734.403 22.6733 733.876 23.2733 733.196 23.74C732.529 24.1933 731.736 24.42 730.816 24.42H727.936V29H724.656ZM727.936 21.56H730.616C730.869 21.56 731.103 21.4867 731.316 21.34C731.529 21.1933 731.703 20.9733 731.836 20.68C731.969 20.3867 732.036 20.0267 732.036 19.6C732.036 19.16 731.956 18.8 731.796 18.52C731.649 18.2267 731.456 18.0133 731.216 17.88C730.989 17.7467 730.749 17.68 730.496 17.68H727.936V21.56ZM743.937 29.12C742.87 29.12 741.904 28.92 741.037 28.52C740.184 28.1067 739.444 27.56 738.817 26.88C738.204 26.1867 737.73 25.4133 737.397 24.56C737.064 23.6933 736.897 22.8 736.897 21.88C736.897 20.9333 737.07 20.0333 737.417 19.18C737.777 18.3267 738.27 17.5667 738.897 16.9C739.537 16.22 740.29 15.6867 741.157 15.3C742.024 14.9133 742.97 14.72 743.997 14.72C745.05 14.72 746.004 14.9267 746.857 15.34C747.724 15.74 748.464 16.2867 749.077 16.98C749.704 17.6733 750.184 18.4533 750.517 19.32C750.85 20.1733 751.017 21.0467 751.017 21.94C751.017 22.8867 750.844 23.7867 750.497 24.64C750.15 25.4933 749.657 26.26 749.017 26.94C748.377 27.6067 747.624 28.14 746.757 28.54C745.904 28.9267 744.964 29.12 743.937 29.12ZM740.237 21.92C740.237 22.4667 740.317 23 740.477 23.52C740.637 24.0267 740.87 24.48 741.177 24.88C741.497 25.28 741.89 25.6 742.357 25.84C742.824 26.08 743.357 26.2 743.957 26.2C744.584 26.2 745.13 26.08 745.597 25.84C746.064 25.5867 746.45 25.2533 746.757 24.84C747.064 24.4267 747.29 23.9667 747.437 23.46C747.597 22.94 747.677 22.4133 747.677 21.88C747.677 21.3333 747.597 20.8067 747.437 20.3C747.277 19.7933 747.037 19.34 746.717 18.94C746.397 18.5267 746.004 18.2067 745.537 17.98C745.07 17.7533 744.544 17.64 743.957 17.64C743.33 17.64 742.784 17.76 742.317 18C741.864 18.24 741.477 18.5667 741.157 18.98C740.85 19.38 740.617 19.84 740.457 20.36C740.31 20.8667 740.237 21.3867 740.237 21.92ZM758.78 29V14.8H762.06V29H758.78ZM776.196 17.68H771.876V29H768.596V17.68H764.256V14.8H776.196V17.68ZM786.918 18.96C786.878 18.8933 786.738 18.7933 786.498 18.66C786.258 18.5133 785.958 18.36 785.598 18.2C785.238 18.04 784.845 17.9 784.418 17.78C783.992 17.66 783.565 17.6 783.138 17.6C782.578 17.6 782.145 17.7 781.838 17.9C781.532 18.0867 781.378 18.38 781.378 18.78C781.378 19.1 781.492 19.3533 781.718 19.54C781.958 19.7267 782.298 19.8933 782.738 20.04C783.178 20.1733 783.718 20.3333 784.358 20.52C785.265 20.76 786.052 21.0533 786.718 21.4C787.385 21.7333 787.892 22.1667 788.238 22.7C788.598 23.2333 788.778 23.94 788.778 24.82C788.778 25.62 788.632 26.3 788.338 26.86C788.045 27.4067 787.645 27.8533 787.138 28.2C786.645 28.5333 786.078 28.78 785.438 28.94C784.798 29.0867 784.138 29.16 783.458 29.16C782.765 29.16 782.052 29.0933 781.318 28.96C780.598 28.8133 779.905 28.6133 779.238 28.36C778.572 28.0933 777.958 27.7733 777.398 27.4L778.838 24.54C778.892 24.6067 779.065 24.7333 779.358 24.92C779.652 25.0933 780.012 25.28 780.438 25.48C780.878 25.6667 781.365 25.8333 781.898 25.98C782.432 26.1267 782.972 26.2 783.518 26.2C784.105 26.2 784.538 26.1067 784.818 25.92C785.112 25.7333 785.258 25.4733 785.258 25.14C785.258 24.78 785.105 24.5 784.798 24.3C784.505 24.1 784.098 23.92 783.578 23.76C783.072 23.6 782.485 23.42 781.818 23.22C780.952 22.9533 780.232 22.6533 779.658 22.32C779.098 21.9867 778.678 21.58 778.398 21.1C778.132 20.62 777.998 20.02 777.998 19.3C777.998 18.3 778.232 17.46 778.698 16.78C779.178 16.0867 779.818 15.5667 780.618 15.22C781.418 14.86 782.292 14.68 783.238 14.68C783.905 14.68 784.545 14.76 785.158 14.92C785.785 15.08 786.365 15.28 786.898 15.52C787.445 15.76 787.932 16 788.358 16.24L786.918 18.96ZM795.911 29C795.911 28.3733 795.958 27.8133 796.051 27.32C796.158 26.8267 796.324 26.38 796.551 25.98C796.791 25.5667 797.104 25.1867 797.491 24.84C797.891 24.48 798.391 24.14 798.991 23.82C799.618 23.4867 800.138 23.2067 800.551 22.98C800.978 22.74 801.318 22.54 801.571 22.38C801.824 22.22 801.998 22.0667 802.091 21.92C802.198 21.76 802.251 21.5867 802.251 21.4C802.251 21.1467 802.191 20.9267 802.071 20.74C801.951 20.5533 801.778 20.4133 801.551 20.32C801.324 20.2133 801.044 20.16 800.711 20.16C800.444 20.16 800.191 20.1933 799.951 20.26C799.711 20.3267 799.478 20.4267 799.251 20.56C799.038 20.6933 798.831 20.8533 798.631 21.04C798.431 21.2133 798.231 21.4133 798.031 21.64L796.011 19.28C796.238 19.0533 796.524 18.8267 796.871 18.6C797.231 18.3733 797.638 18.1733 798.091 18C798.544 17.8133 799.038 17.6667 799.571 17.56C800.118 17.44 800.684 17.38 801.271 17.38C802.231 17.38 803.038 17.5267 803.691 17.82C804.358 18.1 804.864 18.5 805.211 19.02C805.558 19.54 805.731 20.1533 805.731 20.86C805.731 21.3133 805.658 21.7133 805.511 22.06C805.378 22.3933 805.198 22.6933 804.971 22.96C804.744 23.2267 804.484 23.4667 804.191 23.68C803.911 23.8933 803.631 24.0867 803.351 24.26C803.031 24.42 802.731 24.58 802.451 24.74C802.171 24.8867 801.911 25.0333 801.671 25.18C801.431 25.3133 801.204 25.46 800.991 25.62C800.791 25.7667 800.598 25.9333 800.411 26.12H805.951V29H795.911ZM818.772 23.14C818.772 24.3133 818.546 25.36 818.092 26.28C817.639 27.1867 817.019 27.9 816.232 28.42C815.446 28.94 814.552 29.2 813.552 29.2C812.566 29.2 811.672 28.94 810.872 28.42C810.086 27.9 809.466 27.1867 809.012 26.28C808.559 25.36 808.332 24.3133 808.332 23.14C808.332 21.9667 808.559 20.9267 809.012 20.02C809.466 19.1 810.086 18.38 810.872 17.86C811.672 17.3267 812.566 17.06 813.552 17.06C814.552 17.06 815.446 17.3267 816.232 17.86C817.019 18.38 817.639 19.1 818.092 20.02C818.546 20.9267 818.772 21.9667 818.772 23.14ZM815.552 23.14C815.552 22.5133 815.466 21.9667 815.292 21.5C815.119 21.0333 814.879 20.6667 814.572 20.4C814.279 20.1333 813.939 20 813.552 20C813.152 20 812.799 20.1333 812.492 20.4C812.186 20.6667 811.946 21.0333 811.772 21.5C811.612 21.9667 811.532 22.5133 811.532 23.14C811.532 23.7667 811.612 24.3133 811.772 24.78C811.946 25.2467 812.186 25.6133 812.492 25.88C812.799 26.1333 813.152 26.26 813.552 26.26C813.939 26.26 814.279 26.1333 814.572 25.88C814.879 25.6133 815.119 25.2467 815.292 24.78C815.466 24.3133 815.552 23.7667 815.552 23.14ZM820.998 29C820.998 28.3733 821.044 27.8133 821.138 27.32C821.244 26.8267 821.411 26.38 821.638 25.98C821.878 25.5667 822.191 25.1867 822.578 24.84C822.978 24.48 823.478 24.14 824.078 23.82C824.704 23.4867 825.224 23.2067 825.638 22.98C826.064 22.74 826.404 22.54 826.658 22.38C826.911 22.22 827.084 22.0667 827.178 21.92C827.284 21.76 827.338 21.5867 827.338 21.4C827.338 21.1467 827.278 20.9267 827.158 20.74C827.038 20.5533 826.864 20.4133 826.638 20.32C826.411 20.2133 826.131 20.16 825.798 20.16C825.531 20.16 825.278 20.1933 825.038 20.26C824.798 20.3267 824.564 20.4267 824.338 20.56C824.124 20.6933 823.918 20.8533 823.718 21.04C823.518 21.2133 823.318 21.4133 823.118 21.64L821.098 19.28C821.324 19.0533 821.611 18.8267 821.958 18.6C822.318 18.3733 822.724 18.1733 823.178 18C823.631 17.8133 824.124 17.6667 824.658 17.56C825.204 17.44 825.771 17.38 826.358 17.38C827.318 17.38 828.124 17.5267 828.778 17.82C829.444 18.1 829.951 18.5 830.298 19.02C830.644 19.54 830.818 20.1533 830.818 20.86C830.818 21.3133 830.744 21.7133 830.598 22.06C830.464 22.3933 830.284 22.6933 830.058 22.96C829.831 23.2267 829.571 23.4667 829.278 23.68C828.998 23.8933 828.718 24.0867 828.438 24.26C828.118 24.42 827.818 24.58 827.538 24.74C827.258 24.8867 826.998 25.0333 826.758 25.18C826.518 25.3133 826.291 25.46 826.078 25.62C825.878 25.7667 825.684 25.9333 825.498 26.12H831.038V29H820.998ZM833.199 29C833.199 28.3733 833.246 27.8133 833.339 27.32C833.446 26.8267 833.613 26.38 833.839 25.98C834.079 25.5667 834.393 25.1867 834.779 24.84C835.179 24.48 835.679 24.14 836.279 23.82C836.906 23.4867 837.426 23.2067 837.839 22.98C838.266 22.74 838.606 22.54 838.859 22.38C839.113 22.22 839.286 22.0667 839.379 21.92C839.486 21.76 839.539 21.5867 839.539 21.4C839.539 21.1467 839.479 20.9267 839.359 20.74C839.239 20.5533 839.066 20.4133 838.839 20.32C838.613 20.2133 838.333 20.16 837.999 20.16C837.733 20.16 837.479 20.1933 837.239 20.26C836.999 20.3267 836.766 20.4267 836.539 20.56C836.326 20.6933 836.119 20.8533 835.919 21.04C835.719 21.2133 835.519 21.4133 835.319 21.64L833.299 19.28C833.526 19.0533 833.813 18.8267 834.159 18.6C834.519 18.3733 834.926 18.1733 835.379 18C835.833 17.8133 836.326 17.6667 836.859 17.56C837.406 17.44 837.973 17.38 838.559 17.38C839.519 17.38 840.326 17.5267 840.979 17.82C841.646 18.1 842.153 18.5 842.499 19.02C842.846 19.54 843.019 20.1533 843.019 20.86C843.019 21.3133 842.946 21.7133 842.799 22.06C842.666 22.3933 842.486 22.6933 842.259 22.96C842.033 23.2267 841.773 23.4667 841.479 23.68C841.199 23.8933 840.919 24.0867 840.639 24.26C840.319 24.42 840.019 24.58 839.739 24.74C839.459 24.8867 839.199 25.0333 838.959 25.18C838.719 25.3133 838.493 25.46 838.279 25.62C838.079 25.7667 837.886 25.9333 837.699 26.12H843.239V29H833.199ZM850.509 21.78C850.509 20.9133 850.669 20.0667 850.989 19.24C851.309 18.4 851.775 17.64 852.389 16.96C853.002 16.28 853.749 15.74 854.629 15.34C855.509 14.9267 856.509 14.72 857.629 14.72C858.962 14.72 860.115 15.0067 861.089 15.58C862.075 16.1533 862.809 16.9 863.289 17.82L860.769 19.58C860.555 19.0733 860.269 18.68 859.909 18.4C859.562 18.12 859.175 17.9267 858.749 17.82C858.335 17.7 857.935 17.64 857.549 17.64C856.922 17.64 856.375 17.7667 855.909 18.02C855.442 18.26 855.055 18.5867 854.749 19C854.442 19.4133 854.215 19.8733 854.069 20.38C853.922 20.8867 853.849 21.3933 853.849 21.9C853.849 22.46 853.935 23 854.109 23.52C854.282 24.04 854.529 24.5 854.849 24.9C855.182 25.3 855.582 25.62 856.049 25.86C856.515 26.0867 857.029 26.2 857.589 26.2C857.989 26.2 858.395 26.1333 858.809 26C859.222 25.8667 859.602 25.66 859.949 25.38C860.309 25.0867 860.582 24.7067 860.769 24.24L863.449 25.82C863.169 26.5133 862.709 27.1067 862.069 27.6C861.429 28.0933 860.702 28.4733 859.889 28.74C859.089 28.9933 858.295 29.12 857.509 29.12C856.482 29.12 855.535 28.9133 854.669 28.5C853.815 28.0733 853.075 27.5133 852.449 26.82C851.835 26.1133 851.355 25.3267 851.009 24.46C850.675 23.58 850.509 22.6867 850.509 21.78ZM865.698 29V14.8H868.978V29H865.698ZM874.354 14.8L877.694 25.16L880.994 14.8H884.454L879.294 29H876.074L870.874 14.8H874.354ZM886.371 29V14.8H889.651V29H886.371ZM892.967 29V14.8H896.247V26.12H903.127V29H892.967ZM919.928 26.12V29H909.948V14.8H919.748V17.68H913.228V20.44H918.828V23.1H913.228V26.12H919.928ZM924.601 14.8L927.681 19.7L930.761 14.8H934.321L929.621 22L934.161 29H930.601L927.681 24.3L924.761 29H921.181L925.721 22L921.021 14.8H924.601ZM936.148 29V14.8H942.208C942.888 14.8 943.508 14.94 944.068 15.22C944.642 15.4867 945.135 15.8533 945.548 16.32C945.962 16.7733 946.282 17.2867 946.508 17.86C946.735 18.4333 946.848 19.02 946.848 19.62C946.848 20.4333 946.655 21.2067 946.268 21.94C945.895 22.6733 945.368 23.2733 944.688 23.74C944.022 24.1933 943.228 24.42 942.308 24.42H939.428V29H936.148ZM939.428 21.56H942.108C942.362 21.56 942.595 21.4867 942.808 21.34C943.022 21.1933 943.195 20.9733 943.328 20.68C943.462 20.3867 943.528 20.0267 943.528 19.6C943.528 19.16 943.448 18.8 943.288 18.52C943.142 18.2267 942.948 18.0133 942.708 17.88C942.482 17.7467 942.242 17.68 941.988 17.68H939.428V21.56ZM955.429 29.12C954.363 29.12 953.396 28.92 952.529 28.52C951.676 28.1067 950.936 27.56 950.309 26.88C949.696 26.1867 949.223 25.4133 948.889 24.56C948.556 23.6933 948.389 22.8 948.389 21.88C948.389 20.9333 948.563 20.0333 948.909 19.18C949.269 18.3267 949.763 17.5667 950.389 16.9C951.029 16.22 951.783 15.6867 952.649 15.3C953.516 14.9133 954.463 14.72 955.489 14.72C956.543 14.72 957.496 14.9267 958.349 15.34C959.216 15.74 959.956 16.2867 960.569 16.98C961.196 17.6733 961.676 18.4533 962.009 19.32C962.343 20.1733 962.509 21.0467 962.509 21.94C962.509 22.8867 962.336 23.7867 961.989 24.64C961.643 25.4933 961.149 26.26 960.509 26.94C959.869 27.6067 959.116 28.14 958.249 28.54C957.396 28.9267 956.456 29.12 955.429 29.12ZM951.729 21.92C951.729 22.4667 951.809 23 951.969 23.52C952.129 24.0267 952.363 24.48 952.669 24.88C952.989 25.28 953.383 25.6 953.849 25.84C954.316 26.08 954.849 26.2 955.449 26.2C956.076 26.2 956.623 26.08 957.089 25.84C957.556 25.5867 957.943 25.2533 958.249 24.84C958.556 24.4267 958.783 23.9667 958.929 23.46C959.089 22.94 959.169 22.4133 959.169 21.88C959.169 21.3333 959.089 20.8067 958.929 20.3C958.769 19.7933 958.529 19.34 958.209 18.94C957.889 18.5267 957.496 18.2067 957.029 17.98C956.563 17.7533 956.036 17.64 955.449 17.64C954.823 17.64 954.276 17.76 953.809 18C953.356 18.24 952.969 18.5667 952.649 18.98C952.343 19.38 952.109 19.84 951.949 20.36C951.803 20.8667 951.729 21.3867 951.729 21.92ZM970.272 29V14.8H973.552V29H970.272ZM987.689 17.68H983.369V29H980.089V17.68H975.749V14.8H987.689V17.68ZM998.41 18.96C998.37 18.8933 998.23 18.7933 997.99 18.66C997.75 18.5133 997.45 18.36 997.09 18.2C996.73 18.04 996.337 17.9 995.91 17.78C995.484 17.66 995.057 17.6 994.63 17.6C994.07 17.6 993.637 17.7 993.33 17.9C993.024 18.0867 992.87 18.38 992.87 18.78C992.87 19.1 992.984 19.3533 993.21 19.54C993.45 19.7267 993.79 19.8933 994.23 20.04C994.67 20.1733 995.21 20.3333 995.85 20.52C996.757 20.76 997.544 21.0533 998.21 21.4C998.877 21.7333 999.384 22.1667 999.73 22.7C1000.09 23.2333 1000.27 23.94 1000.27 24.82C1000.27 25.62 1000.12 26.3 999.83 26.86C999.537 27.4067 999.137 27.8533 998.63 28.2C998.137 28.5333 997.57 28.78 996.93 28.94C996.29 29.0867 995.63 29.16 994.95 29.16C994.257 29.16 993.544 29.0933 992.81 28.96C992.09 28.8133 991.397 28.6133 990.73 28.36C990.064 28.0933 989.45 27.7733 988.89 27.4L990.33 24.54C990.384 24.6067 990.557 24.7333 990.85 24.92C991.144 25.0933 991.504 25.28 991.93 25.48C992.37 25.6667 992.857 25.8333 993.39 25.98C993.924 26.1267 994.464 26.2 995.01 26.2C995.597 26.2 996.03 26.1067 996.31 25.92C996.604 25.7333 996.75 25.4733 996.75 25.14C996.75 24.78 996.597 24.5 996.29 24.3C995.997 24.1 995.59 23.92 995.07 23.76C994.564 23.6 993.977 23.42 993.31 23.22C992.444 22.9533 991.724 22.6533 991.15 22.32C990.59 21.9867 990.17 21.58 989.89 21.1C989.624 20.62 989.49 20.02 989.49 19.3C989.49 18.3 989.724 17.46 990.19 16.78C990.67 16.0867 991.31 15.5667 992.11 15.22C992.91 14.86 993.784 14.68 994.73 14.68C995.397 14.68 996.037 14.76 996.65 14.92C997.277 15.08 997.857 15.28 998.39 15.52C998.937 15.76 999.424 16 999.85 16.24L998.41 18.96ZM1007.4 29C1007.4 28.3733 1007.45 27.8133 1007.54 27.32C1007.65 26.8267 1007.82 26.38 1008.04 25.98C1008.28 25.5667 1008.6 25.1867 1008.98 24.84C1009.38 24.48 1009.88 24.14 1010.48 23.82C1011.11 23.4867 1011.63 23.2067 1012.04 22.98C1012.47 22.74 1012.81 22.54 1013.06 22.38C1013.32 22.22 1013.49 22.0667 1013.58 21.92C1013.69 21.76 1013.74 21.5867 1013.74 21.4C1013.74 21.1467 1013.68 20.9267 1013.56 20.74C1013.44 20.5533 1013.27 20.4133 1013.04 20.32C1012.82 20.2133 1012.54 20.16 1012.2 20.16C1011.94 20.16 1011.68 20.1933 1011.44 20.26C1011.2 20.3267 1010.97 20.4267 1010.74 20.56C1010.53 20.6933 1010.32 20.8533 1010.12 21.04C1009.92 21.2133 1009.72 21.4133 1009.52 21.64L1007.5 19.28C1007.73 19.0533 1008.02 18.8267 1008.36 18.6C1008.72 18.3733 1009.13 18.1733 1009.58 18C1010.04 17.8133 1010.53 17.6667 1011.06 17.56C1011.61 17.44 1012.18 17.38 1012.76 17.38C1013.72 17.38 1014.53 17.5267 1015.18 17.82C1015.85 18.1 1016.36 18.5 1016.7 19.02C1017.05 19.54 1017.22 20.1533 1017.22 20.86C1017.22 21.3133 1017.15 21.7133 1017 22.06C1016.87 22.3933 1016.69 22.6933 1016.46 22.96C1016.24 23.2267 1015.98 23.4667 1015.68 23.68C1015.4 23.8933 1015.12 24.0867 1014.84 24.26C1014.52 24.42 1014.22 24.58 1013.94 24.74C1013.66 24.8867 1013.4 25.0333 1013.16 25.18C1012.92 25.3133 1012.7 25.46 1012.48 25.62C1012.28 25.7667 1012.09 25.9333 1011.9 26.12H1017.44V29H1007.4ZM1030.26 23.14C1030.26 24.3133 1030.04 25.36 1029.58 26.28C1029.13 27.1867 1028.51 27.9 1027.72 28.42C1026.94 28.94 1026.04 29.2 1025.04 29.2C1024.06 29.2 1023.16 28.94 1022.36 28.42C1021.58 27.9 1020.96 27.1867 1020.5 26.28C1020.05 25.36 1019.82 24.3133 1019.82 23.14C1019.82 21.9667 1020.05 20.9267 1020.5 20.02C1020.96 19.1 1021.58 18.38 1022.36 17.86C1023.16 17.3267 1024.06 17.06 1025.04 17.06C1026.04 17.06 1026.94 17.3267 1027.72 17.86C1028.51 18.38 1029.13 19.1 1029.58 20.02C1030.04 20.9267 1030.26 21.9667 1030.26 23.14ZM1027.04 23.14C1027.04 22.5133 1026.96 21.9667 1026.78 21.5C1026.61 21.0333 1026.37 20.6667 1026.06 20.4C1025.77 20.1333 1025.43 20 1025.04 20C1024.64 20 1024.29 20.1333 1023.98 20.4C1023.68 20.6667 1023.44 21.0333 1023.26 21.5C1023.1 21.9667 1023.02 22.5133 1023.02 23.14C1023.02 23.7667 1023.1 24.3133 1023.26 24.78C1023.44 25.2467 1023.68 25.6133 1023.98 25.88C1024.29 26.1333 1024.64 26.26 1025.04 26.26C1025.43 26.26 1025.77 26.1333 1026.06 25.88C1026.37 25.6133 1026.61 25.2467 1026.78 24.78C1026.96 24.3133 1027.04 23.7667 1027.04 23.14ZM1032.49 29C1032.49 28.3733 1032.54 27.8133 1032.63 27.32C1032.74 26.8267 1032.9 26.38 1033.13 25.98C1033.37 25.5667 1033.68 25.1867 1034.07 24.84C1034.47 24.48 1034.97 24.14 1035.57 23.82C1036.2 23.4867 1036.72 23.2067 1037.13 22.98C1037.56 22.74 1037.9 22.54 1038.15 22.38C1038.4 22.22 1038.58 22.0667 1038.67 21.92C1038.78 21.76 1038.83 21.5867 1038.83 21.4C1038.83 21.1467 1038.77 20.9267 1038.65 20.74C1038.53 20.5533 1038.36 20.4133 1038.13 20.32C1037.9 20.2133 1037.62 20.16 1037.29 20.16C1037.02 20.16 1036.77 20.1933 1036.53 20.26C1036.29 20.3267 1036.06 20.4267 1035.83 20.56C1035.62 20.6933 1035.41 20.8533 1035.21 21.04C1035.01 21.2133 1034.81 21.4133 1034.61 21.64L1032.59 19.28C1032.82 19.0533 1033.1 18.8267 1033.45 18.6C1033.81 18.3733 1034.22 18.1733 1034.67 18C1035.12 17.8133 1035.62 17.6667 1036.15 17.56C1036.7 17.44 1037.26 17.38 1037.85 17.38C1038.81 17.38 1039.62 17.5267 1040.27 17.82C1040.94 18.1 1041.44 18.5 1041.79 19.02C1042.14 19.54 1042.31 20.1533 1042.31 20.86C1042.31 21.3133 1042.24 21.7133 1042.09 22.06C1041.96 22.3933 1041.78 22.6933 1041.55 22.96C1041.32 23.2267 1041.06 23.4667 1040.77 23.68C1040.49 23.8933 1040.21 24.0867 1039.93 24.26C1039.61 24.42 1039.31 24.58 1039.03 24.74C1038.75 24.8867 1038.49 25.0333 1038.25 25.18C1038.01 25.3133 1037.78 25.46 1037.57 25.62C1037.37 25.7667 1037.18 25.9333 1036.99 26.12H1042.53V29H1032.49ZM1044.69 29C1044.69 28.3733 1044.74 27.8133 1044.83 27.32C1044.94 26.8267 1045.1 26.38 1045.33 25.98C1045.57 25.5667 1045.88 25.1867 1046.27 24.84C1046.67 24.48 1047.17 24.14 1047.77 23.82C1048.4 23.4867 1048.92 23.2067 1049.33 22.98C1049.76 22.74 1050.1 22.54 1050.35 22.38C1050.6 22.22 1050.78 22.0667 1050.87 21.92C1050.98 21.76 1051.03 21.5867 1051.03 21.4C1051.03 21.1467 1050.97 20.9267 1050.85 20.74C1050.73 20.5533 1050.56 20.4133 1050.33 20.32C1050.1 20.2133 1049.82 20.16 1049.49 20.16C1049.22 20.16 1048.97 20.1933 1048.73 20.26C1048.49 20.3267 1048.26 20.4267 1048.03 20.56C1047.82 20.6933 1047.61 20.8533 1047.41 21.04C1047.21 21.2133 1047.01 21.4133 1046.81 21.64L1044.79 19.28C1045.02 19.0533 1045.3 18.8267 1045.65 18.6C1046.01 18.3733 1046.42 18.1733 1046.87 18C1047.32 17.8133 1047.82 17.6667 1048.35 17.56C1048.9 17.44 1049.46 17.38 1050.05 17.38C1051.01 17.38 1051.82 17.5267 1052.47 17.82C1053.14 18.1 1053.64 18.5 1053.99 19.02C1054.34 19.54 1054.51 20.1533 1054.51 20.86C1054.51 21.3133 1054.44 21.7133 1054.29 22.06C1054.16 22.3933 1053.98 22.6933 1053.75 22.96C1053.52 23.2267 1053.26 23.4667 1052.97 23.68C1052.69 23.8933 1052.41 24.0867 1052.13 24.26C1051.81 24.42 1051.51 24.58 1051.23 24.74C1050.95 24.8867 1050.69 25.0333 1050.45 25.18C1050.21 25.3133 1049.98 25.46 1049.77 25.62C1049.57 25.7667 1049.38 25.9333 1049.19 26.12H1054.73V29H1044.69ZM1062 21.78C1062 20.9133 1062.16 20.0667 1062.48 19.24C1062.8 18.4 1063.27 17.64 1063.88 16.96C1064.49 16.28 1065.24 15.74 1066.12 15.34C1067 14.9267 1068 14.72 1069.12 14.72C1070.45 14.72 1071.61 15.0067 1072.58 15.58C1073.57 16.1533 1074.3 16.9 1074.78 17.82L1072.26 19.58C1072.05 19.0733 1071.76 18.68 1071.4 18.4C1071.05 18.12 1070.67 17.9267 1070.24 17.82C1069.83 17.7 1069.43 17.64 1069.04 17.64C1068.41 17.64 1067.87 17.7667 1067.4 18.02C1066.93 18.26 1066.55 18.5867 1066.24 19C1065.93 19.4133 1065.71 19.8733 1065.56 20.38C1065.41 20.8867 1065.34 21.3933 1065.34 21.9C1065.34 22.46 1065.43 23 1065.6 23.52C1065.77 24.04 1066.02 24.5 1066.34 24.9C1066.67 25.3 1067.07 25.62 1067.54 25.86C1068.01 26.0867 1068.52 26.2 1069.08 26.2C1069.48 26.2 1069.89 26.1333 1070.3 26C1070.71 25.8667 1071.09 25.66 1071.44 25.38C1071.8 25.0867 1072.07 24.7067 1072.26 24.24L1074.94 25.82C1074.66 26.5133 1074.2 27.1067 1073.56 27.6C1072.92 28.0933 1072.19 28.4733 1071.38 28.74C1070.58 28.9933 1069.79 29.12 1069 29.12C1067.97 29.12 1067.03 28.9133 1066.16 28.5C1065.31 28.0733 1064.57 27.5133 1063.94 26.82C1063.33 26.1133 1062.85 25.3267 1062.5 24.46C1062.17 23.58 1062 22.6867 1062 21.78ZM1077.19 29V14.8H1080.47V29H1077.19ZM1085.85 14.8L1089.19 25.16L1092.49 14.8H1095.95L1090.79 29H1087.57L1082.37 14.8H1085.85ZM1097.86 29V14.8H1101.14V29H1097.86ZM1104.46 29V14.8H1107.74V26.12H1114.62V29H1104.46ZM1131.42 26.12V29H1121.44V14.8H1131.24V17.68H1124.72V20.44H1130.32V23.1H1124.72V26.12H1131.42ZM1136.09 14.8L1139.17 19.7L1142.25 14.8H1145.81L1141.11 22L1145.65 29H1142.09L1139.17 24.3L1136.25 29H1132.67L1137.21 22L1132.51 14.8H1136.09ZM1147.64 29V14.8H1153.7C1154.38 14.8 1155 14.94 1155.56 15.22C1156.13 15.4867 1156.63 15.8533 1157.04 16.32C1157.45 16.7733 1157.77 17.2867 1158 17.86C1158.23 18.4333 1158.34 19.02 1158.34 19.62C1158.34 20.4333 1158.15 21.2067 1157.76 21.94C1157.39 22.6733 1156.86 23.2733 1156.18 23.74C1155.51 24.1933 1154.72 24.42 1153.8 24.42H1150.92V29H1147.64ZM1150.92 21.56H1153.6C1153.85 21.56 1154.09 21.4867 1154.3 21.34C1154.51 21.1933 1154.69 20.9733 1154.82 20.68C1154.95 20.3867 1155.02 20.0267 1155.02 19.6C1155.02 19.16 1154.94 18.8 1154.78 18.52C1154.63 18.2267 1154.44 18.0133 1154.2 17.88C1153.97 17.7467 1153.73 17.68 1153.48 17.68H1150.92V21.56ZM1166.92 29.12C1165.85 29.12 1164.89 28.92 1164.02 28.52C1163.17 28.1067 1162.43 27.56 1161.8 26.88C1161.19 26.1867 1160.71 25.4133 1160.38 24.56C1160.05 23.6933 1159.88 22.8 1159.88 21.88C1159.88 20.9333 1160.05 20.0333 1160.4 19.18C1160.76 18.3267 1161.25 17.5667 1161.88 16.9C1162.52 16.22 1163.27 15.6867 1164.14 15.3C1165.01 14.9133 1165.95 14.72 1166.98 14.72C1168.03 14.72 1168.99 14.9267 1169.84 15.34C1170.71 15.74 1171.45 16.2867 1172.06 16.98C1172.69 17.6733 1173.17 18.4533 1173.5 19.32C1173.83 20.1733 1174 21.0467 1174 21.94C1174 22.8867 1173.83 23.7867 1173.48 24.64C1173.13 25.4933 1172.64 26.26 1172 26.94C1171.36 27.6067 1170.61 28.14 1169.74 28.54C1168.89 28.9267 1167.95 29.12 1166.92 29.12ZM1163.22 21.92C1163.22 22.4667 1163.3 23 1163.46 23.52C1163.62 24.0267 1163.85 24.48 1164.16 24.88C1164.48 25.28 1164.87 25.6 1165.34 25.84C1165.81 26.08 1166.34 26.2 1166.94 26.2C1167.57 26.2 1168.11 26.08 1168.58 25.84C1169.05 25.5867 1169.43 25.2533 1169.74 24.84C1170.05 24.4267 1170.27 23.9667 1170.42 23.46C1170.58 22.94 1170.66 22.4133 1170.66 21.88C1170.66 21.3333 1170.58 20.8067 1170.42 20.3C1170.26 19.7933 1170.02 19.34 1169.7 18.94C1169.38 18.5267 1168.99 18.2067 1168.52 17.98C1168.05 17.7533 1167.53 17.64 1166.94 17.64C1166.31 17.64 1165.77 17.76 1165.3 18C1164.85 18.24 1164.46 18.5667 1164.14 18.98C1163.83 19.38 1163.6 19.84 1163.44 20.36C1163.29 20.8667 1163.22 21.3867 1163.22 21.92ZM1181.76 29V14.8H1185.04V29H1181.76ZM1199.18 17.68H1194.86V29H1191.58V17.68H1187.24V14.8H1199.18V17.68ZM1209.9 18.96C1209.86 18.8933 1209.72 18.7933 1209.48 18.66C1209.24 18.5133 1208.94 18.36 1208.58 18.2C1208.22 18.04 1207.83 17.9 1207.4 17.78C1206.98 17.66 1206.55 17.6 1206.12 17.6C1205.56 17.6 1205.13 17.7 1204.82 17.9C1204.52 18.0867 1204.36 18.38 1204.36 18.78C1204.36 19.1 1204.48 19.3533 1204.7 19.54C1204.94 19.7267 1205.28 19.8933 1205.72 20.04C1206.16 20.1733 1206.7 20.3333 1207.34 20.52C1208.25 20.76 1209.04 21.0533 1209.7 21.4C1210.37 21.7333 1210.88 22.1667 1211.22 22.7C1211.58 23.2333 1211.76 23.94 1211.76 24.82C1211.76 25.62 1211.62 26.3 1211.32 26.86C1211.03 27.4067 1210.63 27.8533 1210.12 28.2C1209.63 28.5333 1209.06 28.78 1208.42 28.94C1207.78 29.0867 1207.12 29.16 1206.44 29.16C1205.75 29.16 1205.04 29.0933 1204.3 28.96C1203.58 28.8133 1202.89 28.6133 1202.22 28.36C1201.56 28.0933 1200.94 27.7733 1200.38 27.4L1201.82 24.54C1201.88 24.6067 1202.05 24.7333 1202.34 24.92C1202.64 25.0933 1203 25.28 1203.42 25.48C1203.86 25.6667 1204.35 25.8333 1204.88 25.98C1205.42 26.1267 1205.96 26.2 1206.5 26.2C1207.09 26.2 1207.52 26.1067 1207.8 25.92C1208.1 25.7333 1208.24 25.4733 1208.24 25.14C1208.24 24.78 1208.09 24.5 1207.78 24.3C1207.49 24.1 1207.08 23.92 1206.56 23.76C1206.06 23.6 1205.47 23.42 1204.8 23.22C1203.94 22.9533 1203.22 22.6533 1202.64 22.32C1202.08 21.9867 1201.66 21.58 1201.38 21.1C1201.12 20.62 1200.98 20.02 1200.98 19.3C1200.98 18.3 1201.22 17.46 1201.68 16.78C1202.16 16.0867 1202.8 15.5667 1203.6 15.22C1204.4 14.86 1205.28 14.68 1206.22 14.68C1206.89 14.68 1207.53 14.76 1208.14 14.92C1208.77 15.08 1209.35 15.28 1209.88 15.52C1210.43 15.76 1210.92 16 1211.34 16.24L1209.9 18.96ZM1218.9 29C1218.9 28.3733 1218.94 27.8133 1219.04 27.32C1219.14 26.8267 1219.31 26.38 1219.54 25.98C1219.78 25.5667 1220.09 25.1867 1220.48 24.84C1220.88 24.48 1221.38 24.14 1221.98 23.82C1222.6 23.4867 1223.12 23.2067 1223.54 22.98C1223.96 22.74 1224.3 22.54 1224.56 22.38C1224.81 22.22 1224.98 22.0667 1225.08 21.92C1225.18 21.76 1225.24 21.5867 1225.24 21.4C1225.24 21.1467 1225.18 20.9267 1225.06 20.74C1224.94 20.5533 1224.76 20.4133 1224.54 20.32C1224.31 20.2133 1224.03 20.16 1223.7 20.16C1223.43 20.16 1223.18 20.1933 1222.94 20.26C1222.7 20.3267 1222.46 20.4267 1222.24 20.56C1222.02 20.6933 1221.82 20.8533 1221.62 21.04C1221.42 21.2133 1221.22 21.4133 1221.02 21.64L1219 19.28C1219.22 19.0533 1219.51 18.8267 1219.86 18.6C1220.22 18.3733 1220.62 18.1733 1221.08 18C1221.53 17.8133 1222.02 17.6667 1222.56 17.56C1223.1 17.44 1223.67 17.38 1224.26 17.38C1225.22 17.38 1226.02 17.5267 1226.68 17.82C1227.34 18.1 1227.85 18.5 1228.2 19.02C1228.54 19.54 1228.72 20.1533 1228.72 20.86C1228.72 21.3133 1228.64 21.7133 1228.5 22.06C1228.36 22.3933 1228.18 22.6933 1227.96 22.96C1227.73 23.2267 1227.47 23.4667 1227.18 23.68C1226.9 23.8933 1226.62 24.0867 1226.34 24.26C1226.02 24.42 1225.72 24.58 1225.44 24.74C1225.16 24.8867 1224.9 25.0333 1224.66 25.18C1224.42 25.3133 1224.19 25.46 1223.98 25.62C1223.78 25.7667 1223.58 25.9333 1223.4 26.12H1228.94V29H1218.9ZM1241.76 23.14C1241.76 24.3133 1241.53 25.36 1241.08 26.28C1240.62 27.1867 1240 27.9 1239.22 28.42C1238.43 28.94 1237.54 29.2 1236.54 29.2C1235.55 29.2 1234.66 28.94 1233.86 28.42C1233.07 27.9 1232.45 27.1867 1232 26.28C1231.54 25.36 1231.32 24.3133 1231.32 23.14C1231.32 21.9667 1231.54 20.9267 1232 20.02C1232.45 19.1 1233.07 18.38 1233.86 17.86C1234.66 17.3267 1235.55 17.06 1236.54 17.06C1237.54 17.06 1238.43 17.3267 1239.22 17.86C1240 18.38 1240.62 19.1 1241.08 20.02C1241.53 20.9267 1241.76 21.9667 1241.76 23.14ZM1238.54 23.14C1238.54 22.5133 1238.45 21.9667 1238.28 21.5C1238.1 21.0333 1237.86 20.6667 1237.56 20.4C1237.26 20.1333 1236.92 20 1236.54 20C1236.14 20 1235.78 20.1333 1235.48 20.4C1235.17 20.6667 1234.93 21.0333 1234.76 21.5C1234.6 21.9667 1234.52 22.5133 1234.52 23.14C1234.52 23.7667 1234.6 24.3133 1234.76 24.78C1234.93 25.2467 1235.17 25.6133 1235.48 25.88C1235.78 26.1333 1236.14 26.26 1236.54 26.26C1236.92 26.26 1237.26 26.1333 1237.56 25.88C1237.86 25.6133 1238.1 25.2467 1238.28 24.78C1238.45 24.3133 1238.54 23.7667 1238.54 23.14ZM1243.98 29C1243.98 28.3733 1244.03 27.8133 1244.12 27.32C1244.23 26.8267 1244.4 26.38 1244.62 25.98C1244.86 25.5667 1245.18 25.1867 1245.56 24.84C1245.96 24.48 1246.46 24.14 1247.06 23.82C1247.69 23.4867 1248.21 23.2067 1248.62 22.98C1249.05 22.74 1249.39 22.54 1249.64 22.38C1249.9 22.22 1250.07 22.0667 1250.16 21.92C1250.27 21.76 1250.32 21.5867 1250.32 21.4C1250.32 21.1467 1250.26 20.9267 1250.14 20.74C1250.02 20.5533 1249.85 20.4133 1249.62 20.32C1249.4 20.2133 1249.12 20.16 1248.78 20.16C1248.52 20.16 1248.26 20.1933 1248.02 20.26C1247.78 20.3267 1247.55 20.4267 1247.32 20.56C1247.11 20.6933 1246.9 20.8533 1246.7 21.04C1246.5 21.2133 1246.3 21.4133 1246.1 21.64L1244.08 19.28C1244.31 19.0533 1244.6 18.8267 1244.94 18.6C1245.3 18.3733 1245.71 18.1733 1246.16 18C1246.62 17.8133 1247.11 17.6667 1247.64 17.56C1248.19 17.44 1248.76 17.38 1249.34 17.38C1250.3 17.38 1251.11 17.5267 1251.76 17.82C1252.43 18.1 1252.94 18.5 1253.28 19.02C1253.63 19.54 1253.8 20.1533 1253.8 20.86C1253.8 21.3133 1253.73 21.7133 1253.58 22.06C1253.45 22.3933 1253.27 22.6933 1253.04 22.96C1252.82 23.2267 1252.56 23.4667 1252.26 23.68C1251.98 23.8933 1251.7 24.0867 1251.42 24.26C1251.1 24.42 1250.8 24.58 1250.52 24.74C1250.24 24.8867 1249.98 25.0333 1249.74 25.18C1249.5 25.3133 1249.28 25.46 1249.06 25.62C1248.86 25.7667 1248.67 25.9333 1248.48 26.12H1254.02V29H1243.98ZM1256.18 29C1256.18 28.3733 1256.23 27.8133 1256.32 27.32C1256.43 26.8267 1256.6 26.38 1256.82 25.98C1257.06 25.5667 1257.38 25.1867 1257.76 24.84C1258.16 24.48 1258.66 24.14 1259.26 23.82C1259.89 23.4867 1260.41 23.2067 1260.82 22.98C1261.25 22.74 1261.59 22.54 1261.84 22.38C1262.1 22.22 1262.27 22.0667 1262.36 21.92C1262.47 21.76 1262.52 21.5867 1262.52 21.4C1262.52 21.1467 1262.46 20.9267 1262.34 20.74C1262.22 20.5533 1262.05 20.4133 1261.82 20.32C1261.6 20.2133 1261.32 20.16 1260.98 20.16C1260.72 20.16 1260.46 20.1933 1260.22 20.26C1259.98 20.3267 1259.75 20.4267 1259.52 20.56C1259.31 20.6933 1259.1 20.8533 1258.9 21.04C1258.7 21.2133 1258.5 21.4133 1258.3 21.64L1256.28 19.28C1256.51 19.0533 1256.8 18.8267 1257.14 18.6C1257.5 18.3733 1257.91 18.1733 1258.36 18C1258.82 17.8133 1259.31 17.6667 1259.84 17.56C1260.39 17.44 1260.96 17.38 1261.54 17.38C1262.5 17.38 1263.31 17.5267 1263.96 17.82C1264.63 18.1 1265.14 18.5 1265.48 19.02C1265.83 19.54 1266 20.1533 1266 20.86C1266 21.3133 1265.93 21.7133 1265.78 22.06C1265.65 22.3933 1265.47 22.6933 1265.24 22.96C1265.02 23.2267 1264.76 23.4667 1264.46 23.68C1264.18 23.8933 1263.9 24.0867 1263.62 24.26C1263.3 24.42 1263 24.58 1262.72 24.74C1262.44 24.8867 1262.18 25.0333 1261.94 25.18C1261.7 25.3133 1261.48 25.46 1261.26 25.62C1261.06 25.7667 1260.87 25.9333 1260.68 26.12H1266.22V29H1256.18ZM1273.49 21.78C1273.49 20.9133 1273.65 20.0667 1273.97 19.24C1274.29 18.4 1274.76 17.64 1275.37 16.96C1275.99 16.28 1276.73 15.74 1277.61 15.34C1278.49 14.9267 1279.49 14.72 1280.61 14.72C1281.95 14.72 1283.1 15.0067 1284.07 15.58C1285.06 16.1533 1285.79 16.9 1286.27 17.82L1283.75 19.58C1283.54 19.0733 1283.25 18.68 1282.89 18.4C1282.55 18.12 1282.16 17.9267 1281.73 17.82C1281.32 17.7 1280.92 17.64 1280.53 17.64C1279.91 17.64 1279.36 17.7667 1278.89 18.02C1278.43 18.26 1278.04 18.5867 1277.73 19C1277.43 19.4133 1277.2 19.8733 1277.05 20.38C1276.91 20.8867 1276.83 21.3933 1276.83 21.9C1276.83 22.46 1276.92 23 1277.09 23.52C1277.27 24.04 1277.51 24.5 1277.83 24.9C1278.17 25.3 1278.57 25.62 1279.03 25.86C1279.5 26.0867 1280.01 26.2 1280.57 26.2C1280.97 26.2 1281.38 26.1333 1281.79 26C1282.21 25.8667 1282.59 25.66 1282.93 25.38C1283.29 25.0867 1283.57 24.7067 1283.75 24.24L1286.43 25.82C1286.15 26.5133 1285.69 27.1067 1285.05 27.6C1284.41 28.0933 1283.69 28.4733 1282.87 28.74C1282.07 28.9933 1281.28 29.12 1280.49 29.12C1279.47 29.12 1278.52 28.9133 1277.65 28.5C1276.8 28.0733 1276.06 27.5133 1275.43 26.82C1274.82 26.1133 1274.34 25.3267 1273.99 24.46C1273.66 23.58 1273.49 22.6867 1273.49 21.78ZM1288.68 29V14.8H1291.96V29H1288.68ZM1297.34 14.8L1300.68 25.16L1303.98 14.8H1307.44L1302.28 29H1299.06L1293.86 14.8H1297.34ZM1309.36 29V14.8H1312.64V29H1309.36ZM1315.95 29V14.8H1319.23V26.12H1326.11V29H1315.95ZM1342.91 26.12V29H1332.93V14.8H1342.73V17.68H1336.21V20.44H1341.81V23.1H1336.21V26.12H1342.91ZM1347.59 14.8L1350.67 19.7L1353.75 14.8H1357.31L1352.61 22L1357.15 29H1353.59L1350.67 24.3L1347.75 29H1344.17L1348.71 22L1344.01 14.8H1347.59ZM1359.13 29V14.8H1365.19C1365.87 14.8 1366.49 14.94 1367.05 15.22C1367.63 15.4867 1368.12 15.8533 1368.53 16.32C1368.95 16.7733 1369.27 17.2867 1369.49 17.86C1369.72 18.4333 1369.83 19.02 1369.83 19.62C1369.83 20.4333 1369.64 21.2067 1369.25 21.94C1368.88 22.6733 1368.35 23.2733 1367.67 23.74C1367.01 24.1933 1366.21 24.42 1365.29 24.42H1362.41V29H1359.13ZM1362.41 21.56H1365.09C1365.35 21.56 1365.58 21.4867 1365.79 21.34C1366.01 21.1933 1366.18 20.9733 1366.31 20.68C1366.45 20.3867 1366.51 20.0267 1366.51 19.6C1366.51 19.16 1366.43 18.8 1366.27 18.52C1366.13 18.2267 1365.93 18.0133 1365.69 17.88C1365.47 17.7467 1365.23 17.68 1364.97 17.68H1362.41V21.56ZM1378.41 29.12C1377.35 29.12 1376.38 28.92 1375.51 28.52C1374.66 28.1067 1373.92 27.56 1373.29 26.88C1372.68 26.1867 1372.21 25.4133 1371.87 24.56C1371.54 23.6933 1371.37 22.8 1371.37 21.88C1371.37 20.9333 1371.55 20.0333 1371.89 19.18C1372.25 18.3267 1372.75 17.5667 1373.37 16.9C1374.01 16.22 1374.77 15.6867 1375.63 15.3C1376.5 14.9133 1377.45 14.72 1378.47 14.72C1379.53 14.72 1380.48 14.9267 1381.33 15.34C1382.2 15.74 1382.94 16.2867 1383.55 16.98C1384.18 17.6733 1384.66 18.4533 1384.99 19.32C1385.33 20.1733 1385.49 21.0467 1385.49 21.94C1385.49 22.8867 1385.32 23.7867 1384.97 24.64C1384.63 25.4933 1384.13 26.26 1383.49 26.94C1382.85 27.6067 1382.1 28.14 1381.23 28.54C1380.38 28.9267 1379.44 29.12 1378.41 29.12ZM1374.71 21.92C1374.71 22.4667 1374.79 23 1374.95 23.52C1375.11 24.0267 1375.35 24.48 1375.65 24.88C1375.97 25.28 1376.37 25.6 1376.83 25.84C1377.3 26.08 1377.83 26.2 1378.43 26.2C1379.06 26.2 1379.61 26.08 1380.07 25.84C1380.54 25.5867 1380.93 25.2533 1381.23 24.84C1381.54 24.4267 1381.77 23.9667 1381.91 23.46C1382.07 22.94 1382.15 22.4133 1382.15 21.88C1382.15 21.3333 1382.07 20.8067 1381.91 20.3C1381.75 19.7933 1381.51 19.34 1381.19 18.94C1380.87 18.5267 1380.48 18.2067 1380.01 17.98C1379.55 17.7533 1379.02 17.64 1378.43 17.64C1377.81 17.64 1377.26 17.76 1376.79 18C1376.34 18.24 1375.95 18.5667 1375.63 18.98C1375.33 19.38 1375.09 19.84 1374.93 20.36C1374.79 20.8667 1374.71 21.3867 1374.71 21.92ZM1393.26 29V14.8H1396.54V29H1393.26ZM1410.67 17.68H1406.35V29H1403.07V17.68H1398.73V14.8H1410.67V17.68ZM1421.39 18.96C1421.35 18.8933 1421.21 18.7933 1420.97 18.66C1420.73 18.5133 1420.43 18.36 1420.07 18.2C1419.71 18.04 1419.32 17.9 1418.89 17.78C1418.47 17.66 1418.04 17.6 1417.61 17.6C1417.05 17.6 1416.62 17.7 1416.31 17.9C1416.01 18.0867 1415.85 18.38 1415.85 18.78C1415.85 19.1 1415.97 19.3533 1416.19 19.54C1416.43 19.7267 1416.77 19.8933 1417.21 20.04C1417.65 20.1733 1418.19 20.3333 1418.83 20.52C1419.74 20.76 1420.53 21.0533 1421.19 21.4C1421.86 21.7333 1422.37 22.1667 1422.71 22.7C1423.07 23.2333 1423.25 23.94 1423.25 24.82C1423.25 25.62 1423.11 26.3 1422.81 26.86C1422.52 27.4067 1422.12 27.8533 1421.61 28.2C1421.12 28.5333 1420.55 28.78 1419.91 28.94C1419.27 29.0867 1418.61 29.16 1417.93 29.16C1417.24 29.16 1416.53 29.0933 1415.79 28.96C1415.07 28.8133 1414.38 28.6133 1413.71 28.36C1413.05 28.0933 1412.43 27.7733 1411.87 27.4L1413.31 24.54C1413.37 24.6067 1413.54 24.7333 1413.83 24.92C1414.13 25.0933 1414.49 25.28 1414.91 25.48C1415.35 25.6667 1415.84 25.8333 1416.37 25.98C1416.91 26.1267 1417.45 26.2 1417.99 26.2C1418.58 26.2 1419.01 26.1067 1419.29 25.92C1419.59 25.7333 1419.73 25.4733 1419.73 25.14C1419.73 24.78 1419.58 24.5 1419.27 24.3C1418.98 24.1 1418.57 23.92 1418.05 23.76C1417.55 23.6 1416.96 23.42 1416.29 23.22C1415.43 22.9533 1414.71 22.6533 1414.13 22.32C1413.57 21.9867 1413.15 21.58 1412.87 21.1C1412.61 20.62 1412.47 20.02 1412.47 19.3C1412.47 18.3 1412.71 17.46 1413.17 16.78C1413.65 16.0867 1414.29 15.5667 1415.09 15.22C1415.89 14.86 1416.77 14.68 1417.71 14.68C1418.38 14.68 1419.02 14.76 1419.63 14.92C1420.26 15.08 1420.84 15.28 1421.37 15.52C1421.92 15.76 1422.41 16 1422.83 16.24L1421.39 18.96ZM1430.39 29C1430.39 28.3733 1430.43 27.8133 1430.53 27.32C1430.63 26.8267 1430.8 26.38 1431.03 25.98C1431.27 25.5667 1431.58 25.1867 1431.97 24.84C1432.37 24.48 1432.87 24.14 1433.47 23.82C1434.09 23.4867 1434.61 23.2067 1435.03 22.98C1435.45 22.74 1435.79 22.54 1436.05 22.38C1436.3 22.22 1436.47 22.0667 1436.57 21.92C1436.67 21.76 1436.73 21.5867 1436.73 21.4C1436.73 21.1467 1436.67 20.9267 1436.55 20.74C1436.43 20.5533 1436.25 20.4133 1436.03 20.32C1435.8 20.2133 1435.52 20.16 1435.19 20.16C1434.92 20.16 1434.67 20.1933 1434.43 20.26C1434.19 20.3267 1433.95 20.4267 1433.73 20.56C1433.51 20.6933 1433.31 20.8533 1433.11 21.04C1432.91 21.2133 1432.71 21.4133 1432.51 21.64L1430.49 19.28C1430.71 19.0533 1431 18.8267 1431.35 18.6C1431.71 18.3733 1432.11 18.1733 1432.57 18C1433.02 17.8133 1433.51 17.6667 1434.05 17.56C1434.59 17.44 1435.16 17.38 1435.75 17.38C1436.71 17.38 1437.51 17.5267 1438.17 17.82C1438.83 18.1 1439.34 18.5 1439.69 19.02C1440.03 19.54 1440.21 20.1533 1440.21 20.86C1440.21 21.3133 1440.13 21.7133 1439.99 22.06C1439.85 22.3933 1439.67 22.6933 1439.45 22.96C1439.22 23.2267 1438.96 23.4667 1438.67 23.68C1438.39 23.8933 1438.11 24.0867 1437.83 24.26C1437.51 24.42 1437.21 24.58 1436.93 24.74C1436.65 24.8867 1436.39 25.0333 1436.15 25.18C1435.91 25.3133 1435.68 25.46 1435.47 25.62C1435.27 25.7667 1435.07 25.9333 1434.89 26.12H1440.43V29H1430.39ZM1453.25 23.14C1453.25 24.3133 1453.02 25.36 1452.57 26.28C1452.12 27.1867 1451.5 27.9 1450.71 28.42C1449.92 28.94 1449.03 29.2 1448.03 29.2C1447.04 29.2 1446.15 28.94 1445.35 28.42C1444.56 27.9 1443.94 27.1867 1443.49 26.28C1443.04 25.36 1442.81 24.3133 1442.81 23.14C1442.81 21.9667 1443.04 20.9267 1443.49 20.02C1443.94 19.1 1444.56 18.38 1445.35 17.86C1446.15 17.3267 1447.04 17.06 1448.03 17.06C1449.03 17.06 1449.92 17.3267 1450.71 17.86C1451.5 18.38 1452.12 19.1 1452.57 20.02C1453.02 20.9267 1453.25 21.9667 1453.25 23.14ZM1450.03 23.14C1450.03 22.5133 1449.94 21.9667 1449.77 21.5C1449.6 21.0333 1449.36 20.6667 1449.05 20.4C1448.76 20.1333 1448.42 20 1448.03 20C1447.63 20 1447.28 20.1333 1446.97 20.4C1446.66 20.6667 1446.42 21.0333 1446.25 21.5C1446.09 21.9667 1446.01 22.5133 1446.01 23.14C1446.01 23.7667 1446.09 24.3133 1446.25 24.78C1446.42 25.2467 1446.66 25.6133 1446.97 25.88C1447.28 26.1333 1447.63 26.26 1448.03 26.26C1448.42 26.26 1448.76 26.1333 1449.05 25.88C1449.36 25.6133 1449.6 25.2467 1449.77 24.78C1449.94 24.3133 1450.03 23.7667 1450.03 23.14ZM1455.47 29C1455.47 28.3733 1455.52 27.8133 1455.61 27.32C1455.72 26.8267 1455.89 26.38 1456.11 25.98C1456.35 25.5667 1456.67 25.1867 1457.05 24.84C1457.45 24.48 1457.95 24.14 1458.55 23.82C1459.18 23.4867 1459.7 23.2067 1460.11 22.98C1460.54 22.74 1460.88 22.54 1461.13 22.38C1461.39 22.22 1461.56 22.0667 1461.65 21.92C1461.76 21.76 1461.81 21.5867 1461.81 21.4C1461.81 21.1467 1461.75 20.9267 1461.63 20.74C1461.51 20.5533 1461.34 20.4133 1461.11 20.32C1460.89 20.2133 1460.61 20.16 1460.27 20.16C1460.01 20.16 1459.75 20.1933 1459.51 20.26C1459.27 20.3267 1459.04 20.4267 1458.81 20.56C1458.6 20.6933 1458.39 20.8533 1458.19 21.04C1457.99 21.2133 1457.79 21.4133 1457.59 21.64L1455.57 19.28C1455.8 19.0533 1456.09 18.8267 1456.43 18.6C1456.79 18.3733 1457.2 18.1733 1457.65 18C1458.11 17.8133 1458.6 17.6667 1459.13 17.56C1459.68 17.44 1460.25 17.38 1460.83 17.38C1461.79 17.38 1462.6 17.5267 1463.25 17.82C1463.92 18.1 1464.43 18.5 1464.77 19.02C1465.12 19.54 1465.29 20.1533 1465.29 20.86C1465.29 21.3133 1465.22 21.7133 1465.07 22.06C1464.94 22.3933 1464.76 22.6933 1464.53 22.96C1464.31 23.2267 1464.05 23.4667 1463.75 23.68C1463.47 23.8933 1463.19 24.0867 1462.91 24.26C1462.59 24.42 1462.29 24.58 1462.01 24.74C1461.73 24.8867 1461.47 25.0333 1461.23 25.18C1460.99 25.3133 1460.77 25.46 1460.55 25.62C1460.35 25.7667 1460.16 25.9333 1459.97 26.12H1465.51V29H1455.47ZM1467.68 29C1467.68 28.3733 1467.72 27.8133 1467.82 27.32C1467.92 26.8267 1468.09 26.38 1468.32 25.98C1468.56 25.5667 1468.87 25.1867 1469.26 24.84C1469.66 24.48 1470.16 24.14 1470.76 23.82C1471.38 23.4867 1471.9 23.2067 1472.32 22.98C1472.74 22.74 1473.08 22.54 1473.34 22.38C1473.59 22.22 1473.76 22.0667 1473.86 21.92C1473.96 21.76 1474.02 21.5867 1474.02 21.4C1474.02 21.1467 1473.96 20.9267 1473.84 20.74C1473.72 20.5533 1473.54 20.4133 1473.32 20.32C1473.09 20.2133 1472.81 20.16 1472.48 20.16C1472.21 20.16 1471.96 20.1933 1471.72 20.26C1471.48 20.3267 1471.24 20.4267 1471.02 20.56C1470.8 20.6933 1470.6 20.8533 1470.4 21.04C1470.2 21.2133 1470 21.4133 1469.8 21.64L1467.78 19.28C1468 19.0533 1468.29 18.8267 1468.64 18.6C1469 18.3733 1469.4 18.1733 1469.86 18C1470.31 17.8133 1470.8 17.6667 1471.34 17.56C1471.88 17.44 1472.45 17.38 1473.04 17.38C1474 17.38 1474.8 17.5267 1475.46 17.82C1476.12 18.1 1476.63 18.5 1476.98 19.02C1477.32 19.54 1477.5 20.1533 1477.5 20.86C1477.5 21.3133 1477.42 21.7133 1477.28 22.06C1477.14 22.3933 1476.96 22.6933 1476.74 22.96C1476.51 23.2267 1476.25 23.4667 1475.96 23.68C1475.68 23.8933 1475.4 24.0867 1475.12 24.26C1474.8 24.42 1474.5 24.58 1474.22 24.74C1473.94 24.8867 1473.68 25.0333 1473.44 25.18C1473.2 25.3133 1472.97 25.46 1472.76 25.62C1472.56 25.7667 1472.36 25.9333 1472.18 26.12H1477.72V29H1467.68Z" fill="white"/>
</svg>
