<svg width="89" height="73" viewBox="0 0 89 73" fill="none" xmlns="http://www.w3.org/2000/svg">
<g clip-path="url(#clip0_295_604)">
<path d="M71.853 66.0971L51.1641 58.8418L50.2565 61.4299L70.9454 68.6852L71.853 66.0971Z" fill="#B19F81"/>
<path d="M71.7984 65.9662L51.1094 58.7109L50.2018 61.299L70.8908 68.5543L71.7984 65.9662Z" stroke="#1D1D1B" stroke-width="2" stroke-miterlimit="10"/>
<path d="M73.011 66.5025L70.6953 65.6904L68.8819 70.8614L71.1976 71.6734L73.011 66.5025Z" fill="#3B3C3C"/>
<path d="M72.9641 66.3736L70.6484 65.5615L68.8351 70.7325L71.1507 71.5445L72.9641 66.3736Z" stroke="#1D1D1B" stroke-width="2" stroke-miterlimit="10"/>
<path d="M45.3711 62.6164C48.7159 63.7894 52.3783 62.0288 53.5513 58.684C54.7243 55.3391 52.9637 51.6767 49.6188 50.5037C46.274 49.3308 42.6116 51.0914 41.4386 54.4362C40.2657 57.781 42.0263 61.4434 45.3711 62.6164Z" fill="#323030"/>
<path d="M45.3203 62.4875C48.6651 63.6605 52.3275 61.8999 53.5005 58.555C54.6735 55.2102 52.9129 51.5478 49.5681 50.3748C46.2232 49.2019 42.5608 50.9625 41.3879 54.3073C40.2149 57.6521 41.9755 61.3145 45.3203 62.4875Z" stroke="#1D1D1B" stroke-width="2" stroke-miterlimit="10"/>
<path fill-rule="evenodd" clip-rule="evenodd" d="M9.77725 21.2532L2.99962 40.5801C2.99962 40.5801 0.758171 46.9717 8.38098 49.6449L45.5363 62.6747L54.1273 38.1769C55.057 32.7091 54.4324 27.0901 52.3249 21.9599C48.8098 13.6966 27.7159 -2.87283 9.77725 21.2532Z" fill="#3B3C3C"/>
<path fill-rule="evenodd" clip-rule="evenodd" d="M9.72376 21.1402L2.95348 40.4461C2.95348 40.4461 0.710197 46.843 8.33301 49.5162L45.4883 62.546L54.0793 38.0482C55.01 32.5789 54.3861 26.9581 52.2787 21.8259C48.7584 13.5608 27.6698 -3.00677 9.72376 21.1402Z" stroke="#1D1D1B" stroke-width="2" stroke-miterlimit="10"/>
<path d="M54.083 17.899L52.9961 13.7129L50.0621 14.4747L51.149 18.6608L54.083 17.899Z" fill="#F3952A"/>
<path d="M54.0322 17.7701L52.9453 13.584L50.0113 14.3458L51.0982 18.5319L54.0322 17.7701Z" stroke="#1D1D1B" stroke-width="2" stroke-miterlimit="10"/>
<path d="M55.3104 19.5495L49.2422 12.4883L45.7937 15.4518L51.8619 22.5131L55.3104 19.5495Z" fill="#3B3C3C"/>
<path d="M55.2558 19.4138L49.1875 12.3525L45.739 15.3161L51.8073 22.3773L55.2558 19.4138Z" stroke="#1D1D1B" stroke-width="2" stroke-miterlimit="10"/>
<path d="M24.0584 52.2363C34.9378 56.0516 46.8501 50.325 50.6653 39.4456C54.4805 28.5663 48.7539 16.654 37.8746 12.8387C26.9952 9.02351 15.0829 14.7501 11.2677 25.6295C7.45249 36.5088 13.1791 48.4211 24.0584 52.2363Z" fill="#F3952A"/>
<path d="M24.0038 52.1055C34.8831 55.9207 46.7954 50.1941 50.6106 39.3148C54.4259 28.4354 48.6993 16.5231 37.8199 12.7079C26.9405 8.89265 15.0282 14.6193 11.213 25.4986C7.3978 36.378 13.1244 48.2903 24.0038 52.1055Z" stroke="#1D1D1B" stroke-width="2" stroke-miterlimit="10"/>
<path d="M25.627 47.7673C34.0469 50.7201 43.2663 46.288 46.2191 37.8681C49.1718 29.4482 44.7398 20.2288 36.3198 17.2761C27.8999 14.3234 18.6806 18.7554 15.7278 27.1753C12.7751 35.5952 17.2071 44.8146 25.627 47.7673Z" fill="#FABA4D"/>
<path d="M25.5723 47.6316C33.9923 50.5843 43.2116 46.1523 46.1644 37.7324C49.1171 29.3125 44.6851 20.0931 36.2651 17.1404C27.8452 14.1876 18.6259 18.6196 15.6731 27.0396C12.7204 35.4595 17.1524 44.6789 25.5723 47.6316Z" stroke="#1D1D1B" stroke-width="2" stroke-miterlimit="10"/>
<path d="M23.6891 33.8926C23.4017 33.6074 23.1978 33.249 23.0994 32.8563C22.9967 32.4287 22.9958 31.9831 23.0968 31.5551L24.2808 31.9703C24.2312 32.1878 24.2367 32.4143 24.2969 32.629C24.3584 32.8211 24.4711 32.9929 24.6228 33.1257C24.7976 33.2744 24.9999 33.3873 25.2182 33.4581C25.3762 33.5245 25.5459 33.559 25.7174 33.5596C25.8888 33.5601 26.0587 33.5267 26.2172 33.4613C26.3686 33.3871 26.5027 33.282 26.6108 33.1527C26.719 33.0234 26.7988 32.8728 26.8452 32.7108L26.9297 32.4698C27.0734 32.1322 27.0868 31.7532 26.9673 31.4063C26.8986 31.2528 26.7973 31.116 26.6704 31.0055C26.5436 30.895 26.3942 30.8134 26.2327 30.7663L25.6407 30.5587L26.0321 29.4428L26.6188 29.6485C26.7541 29.7053 26.9 29.7324 27.0467 29.728C27.1934 29.7236 27.3374 29.6878 27.4691 29.6231C27.7393 29.4615 27.9375 29.2026 28.0229 28.8995L28.1129 28.6428C28.1709 28.5066 28.1994 28.3596 28.1966 28.2116C28.1937 28.0636 28.1596 27.9178 28.0964 27.7839C27.9423 27.5172 27.6902 27.3212 27.3937 27.2375C27.2141 27.1712 27.0219 27.1461 26.8313 27.1638C26.6445 27.1858 26.4664 27.255 26.3137 27.3647C26.1344 27.499 25.9848 27.6689 25.874 27.8635L24.69 27.4483C24.8917 27.0557 25.1734 26.7095 25.5169 26.4322C25.8231 26.1896 26.1887 26.0334 26.5757 25.9799C26.9806 25.9275 27.3922 25.9748 27.7746 26.1179C28.3929 26.2921 28.9169 26.7043 29.2317 27.2643C29.3598 27.5421 29.429 27.8434 29.4351 28.1493C29.4413 28.4552 29.3841 28.759 29.2673 29.0418L29.2195 29.178C29.0912 29.567 28.8409 29.9042 28.5058 30.1396C28.1541 30.3746 27.738 30.4939 27.3153 30.4811C27.7085 30.7089 27.9999 31.0784 28.1297 31.5139C28.2532 31.995 28.2213 32.5027 28.0387 32.9646L27.991 33.1008C27.8521 33.5337 27.6077 33.9251 27.2797 34.2399C26.9767 34.5119 26.5979 34.6849 26.1939 34.7357C25.7268 34.7826 25.2553 34.7199 24.8166 34.5528C24.3966 34.4188 24.0115 34.1933 23.6891 33.8926Z" fill="#1D1D1B"/>
<path d="M37.8824 29.7566L38.9721 30.1388L36.0674 38.4217L34.9777 38.0396L37.153 31.8365L37.082 32.2235L33.3963 36.1907L32.5685 35.9004L32.1345 30.612L32.3593 30.1555L30.184 36.3585L29.0523 35.9616L31.957 27.6787L33.0415 28.059L33.5543 34.3811L37.8824 29.7566Z" fill="#1D1D1B"/>
<path d="M23.6514 33.8797C23.3618 33.5946 23.156 33.2355 23.0565 32.8415C22.9538 32.414 22.9529 31.9683 23.0539 31.5404L24.2431 31.9575C24.191 32.1747 24.1966 32.4017 24.2592 32.6162C24.3196 32.807 24.4303 32.978 24.5799 33.111C24.7552 33.2589 24.9573 33.3717 25.1752 33.4434C25.4961 33.5778 25.8572 33.5796 26.1795 33.4484C26.3301 33.3734 26.4633 33.2678 26.5705 33.1382C26.6778 33.0086 26.7567 32.858 26.8022 32.6961L26.8867 32.4551C27.0314 32.1167 27.0429 31.7362 26.9191 31.3898C26.851 31.2358 26.7499 31.0987 26.623 30.9881C26.4961 30.8775 26.3464 30.7961 26.1845 30.7497L25.5978 30.544L25.9891 29.4281L26.5759 29.6338C26.7118 29.6916 26.8586 29.7194 27.0062 29.7154C27.1538 29.7113 27.2988 29.6754 27.4314 29.6102C27.7016 29.4486 27.8998 29.1897 27.9852 28.8867L28.0752 28.6299C28.1332 28.4937 28.1617 28.3468 28.1588 28.1987C28.156 28.0507 28.1219 27.905 28.0587 27.7711C27.9032 27.503 27.6492 27.3062 27.3508 27.2228C27.1709 27.1576 26.9789 27.1324 26.7883 27.1491C26.6024 27.1693 26.4254 27.2393 26.276 27.3518C26.0967 27.4862 25.9471 27.656 25.8363 27.8507L24.6522 27.4355C24.8641 27.0424 25.1587 26.7001 25.5159 26.4322C25.8213 26.1912 26.1846 26.0345 26.5695 25.978C26.9744 25.9269 27.3856 25.9743 27.7683 26.116C28.3881 26.2911 28.9136 26.7037 29.2307 27.2643C29.3576 27.5422 29.4259 27.8434 29.4311 28.1489C29.4363 28.4545 29.3784 28.7578 29.261 29.0399L29.2133 29.1761C29.0871 29.5662 28.8364 29.9041 28.4995 30.1378C28.1507 30.3747 27.7357 30.4949 27.3142 30.4811C27.7094 30.7067 28.0014 31.077 28.1287 31.5139C28.2566 31.9947 28.2265 32.504 28.0429 32.9664L27.9952 33.1026C27.8572 33.5366 27.6105 33.9281 27.2787 34.2398C26.9779 34.5153 26.598 34.6888 26.1929 34.7357C25.7375 34.7687 25.2803 34.7078 24.8495 34.5567C24.4187 34.4056 24.0236 34.1676 23.6886 33.8575L23.6514 33.8797Z" stroke="#1D1D1B" stroke-width="0.75" stroke-miterlimit="10"/>
<path d="M37.8852 29.7567L38.975 30.1388L36.0703 38.4218L34.9177 38.0176L37.093 31.8145L37.022 32.2015L33.3415 36.1705L32.5347 35.8876L32.1006 30.5992L32.3255 30.1426L30.1501 36.3457L29.0133 35.947L31.918 27.6641L33.0077 28.0462L33.5205 34.3683L37.8852 29.7567Z" stroke="#1D1D1B" stroke-width="0.75" stroke-miterlimit="10"/>
<path fill-rule="evenodd" clip-rule="evenodd" d="M6.9375 37.9551L11.7686 48.4213L7.71355 46.9993C7.71355 46.9993 5.05912 46.1802 5.27295 42.7017L6.9375 37.9551Z" fill="#777778"/>
<path fill-rule="evenodd" clip-rule="evenodd" d="M6.89062 37.8262L11.7144 48.3134L7.63314 46.8822C7.63314 46.8822 5.0083 46.0793 5.21689 42.5989L6.89062 37.8262Z" stroke="#1D1D1B" stroke-width="2" stroke-miterlimit="10"/>
</g>
<defs>
<clipPath id="clip0_295_604">
<rect width="75.7495" height="50" fill="white" transform="translate(16.5469) rotate(19.325)"/>
</clipPath>
</defs>
</svg>
