<svg width="88" height="111" viewBox="0 0 88 111" fill="none" xmlns="http://www.w3.org/2000/svg">
<g clip-path="url(#clip0_260_4083)">
<path fill-rule="evenodd" clip-rule="evenodd" d="M46.4263 63.273L42.7132 76.2743C42.7132 76.2743 1.53562 89.2094 1.18801 89.0339C1.16141 89.0134 1.13924 88.9877 1.12286 88.9583C1.10647 88.929 1.09621 88.8966 1.09269 88.8632C1.08917 88.8298 1.09247 88.796 1.10238 88.7639C1.11229 88.7318 1.12861 88.7021 1.15035 88.6764C3.6597 85.7467 28.6961 61.1209 29.3514 60.9253C30.0067 60.7296 43.7031 60.1459 44.8449 60.6998C45.9868 61.2536 46.7775 62.5327 46.4263 63.273Z" fill="#727172"/>
<path fill-rule="evenodd" clip-rule="evenodd" d="M46.318 63.3088L42.6348 76.3253C42.6348 76.3253 1.40317 89.2631 1.06755 89.0937C1.0416 89.0734 1.01995 89.0482 1.00383 89.0195C0.987719 88.9908 0.97747 88.9592 0.973685 88.9265C0.969899 88.8938 0.972654 88.8607 0.981784 88.829C0.990913 88.7974 1.00624 88.7679 1.02687 88.7423C3.5422 85.8155 28.5786 61.1898 29.2489 60.9942C29.9192 60.7986 43.6158 60.1848 44.7545 60.7597C45.8932 61.3346 46.657 62.5925 46.318 63.3088Z" stroke="#1D1D1B" stroke-width="2" stroke-miterlimit="10"/>
<path fill-rule="evenodd" clip-rule="evenodd" d="M46.3894 62.9253L42.6793 75.9206C42.6793 75.9206 1.47775 88.8436 1.14812 88.6772C0.818493 88.5107 28.6201 60.7761 29.3235 60.5746C30.0268 60.3732 43.6812 59.7983 44.823 60.3521C45.9648 60.906 46.7495 62.2121 46.3894 62.9253Z" fill="#DADBDB"/>
<path fill-rule="evenodd" clip-rule="evenodd" d="M46.2797 62.9518L42.5726 75.9562C42.5726 75.9562 1.37698 88.8821 1.03536 88.7096C0.693745 88.5372 28.5043 60.8296 29.2227 60.6132C29.9411 60.3967 43.5745 59.8338 44.7223 60.3907C45.8701 60.9475 46.6187 62.2355 46.2797 62.9518Z" stroke="#1D1D1B" stroke-width="2" stroke-miterlimit="10"/>
<path fill-rule="evenodd" clip-rule="evenodd" d="M45.4844 46.84C45.1153 46.6458 44.7045 46.5443 44.2875 46.5442C44.1126 46.6505 43.9491 46.7746 43.7997 46.9146C43.7997 46.9146 43.4807 47.0995 43.4085 47.9129C43.3363 48.7263 44.5175 49.9769 45.1402 50.4417C45.297 50.5802 45.4928 50.6668 45.7007 50.6896C45.9086 50.7125 46.1186 50.6704 46.3017 50.5692L47.1205 50.0049C47.1205 50.0049 46.9585 48.419 46.567 47.9431C46.2282 47.5544 45.8667 47.186 45.4844 46.84Z" fill="#5A5958"/>
<path fill-rule="evenodd" clip-rule="evenodd" d="M45.4044 46.8969C45.0357 46.7016 44.6247 46.6 44.2075 46.601C44.0286 46.703 43.8628 46.8264 43.7137 46.9684C43.7137 46.9684 43.3947 47.1533 43.3225 47.9667C43.2503 48.7801 44.4375 50.0337 45.0902 50.5136C45.2469 50.6521 45.4427 50.7387 45.6507 50.7616C45.8586 50.7844 46.0685 50.7424 46.2516 50.6412L47.0645 50.0739C47.0645 50.0739 46.9084 48.491 46.517 48.0151C46.169 47.6203 45.7974 47.2469 45.4044 46.8969V46.8969Z" stroke="#1D1D1B" stroke-width="2" stroke-miterlimit="10"/>
<path fill-rule="evenodd" clip-rule="evenodd" d="M43.0849 62.174C42.6517 60.0525 41.5379 52.2328 41.5427 50.9718C41.5476 49.7108 42.4222 48.6933 44.1495 47.6852C45.0526 47.0882 46.514 49.6309 46.1347 49.8756C45.7713 50.0286 45.4514 50.269 45.2035 50.5756C44.9556 50.8821 44.7874 51.2452 44.7138 51.6326C44.505 52.8358 46.7 60.5846 46.5616 62.1994C46.3415 64.7806 43.515 64.3164 43.0849 62.174Z" fill="#C8C8C9"/>
<path fill-rule="evenodd" clip-rule="evenodd" d="M42.9848 62.2275C42.5546 60.1001 41.4197 52.3073 41.4306 51.0193C41.4416 49.7313 42.3161 48.7438 44.0434 47.7357C44.9465 47.1386 46.4079 49.6814 46.0286 49.9261C45.6678 50.0766 45.35 50.3142 45.1036 50.6177C44.8572 50.9212 44.6899 51.2811 44.6168 51.6651C44.408 52.8683 46.6029 60.6171 46.4676 62.2259C46.2445 64.8132 43.4149 64.3549 42.9848 62.2275Z" stroke="#1D1D1B" stroke-width="2" stroke-miterlimit="10"/>
<path fill-rule="evenodd" clip-rule="evenodd" d="M52.6239 39.2381C52.6239 39.2381 42.8813 47.7066 43.8934 46.8638C44.9055 46.021 47.7825 49.7521 46.4674 50.5247C45.1524 51.2973 56.5783 44.6638 56.5783 44.6638L52.6239 39.2381Z" fill="#3E3A39"/>
<path fill-rule="evenodd" clip-rule="evenodd" d="M52.5244 39.2773C52.5244 39.2773 42.7819 47.7307 43.7818 46.9119C44.7818 46.0931 47.6679 49.8062 46.3528 50.5788C45.0378 51.3514 56.4727 44.7149 56.4727 44.7149L52.5244 39.2773Z" stroke="#1D1D1B" stroke-width="2" stroke-miterlimit="10"/>
<path fill-rule="evenodd" clip-rule="evenodd" d="M77.3595 18.4155C71.5791 21.717 51.2907 39.0531 51.2345 40.3709C52.8262 39.5124 56.556 43.9824 55.2473 45.4576C57.1401 45.8942 81.8808 28.6623 84.2328 26.0443C86.0753 23.9737 81.0547 16.31 77.3595 18.4155Z" fill="#CC712D"/>
<path fill-rule="evenodd" clip-rule="evenodd" d="M77.2584 18.4548C71.478 21.7563 51.1836 39.0893 51.1334 40.4102C52.7281 39.5456 56.4549 44.0217 55.1461 45.4968C57.0391 45.9035 81.7677 28.6956 84.1197 26.0775C85.9742 24.0129 80.9476 16.3463 77.2584 18.4548Z" stroke="#1D1D1B" stroke-width="2" stroke-miterlimit="10"/>
<path fill-rule="evenodd" clip-rule="evenodd" d="M82.6191 20.3483C75.4495 26.5057 60.8663 39.0359 58.7076 40.5708C55.8595 42.5925 54.9354 42.4268 54.9354 42.4268L54.7216 42.5821C55.435 43.6567 55.7908 44.8291 55.2329 45.4574C57.1258 45.8941 81.8665 28.6622 84.2185 26.0441C85.1985 24.952 84.2659 22.3002 82.6191 20.3483Z" fill="#BF6829"/>
<path fill-rule="evenodd" clip-rule="evenodd" d="M82.5079 20.405C75.3383 26.5625 60.7642 39.0746 58.5995 40.6065C55.7574 42.6313 54.8332 42.4656 54.8332 42.4656L54.6135 42.6178C55.3178 43.7255 55.6887 44.8678 55.1308 45.4962C57.0388 45.9029 81.7674 28.695 84.1194 26.0769C85.0994 24.9848 84.1758 22.3451 82.5079 20.405Z" stroke="#1D1D1B" stroke-width="2" stroke-miterlimit="10"/>
<path fill-rule="evenodd" clip-rule="evenodd" d="M55.2171 45.4429C55.7749 44.8146 55.4192 43.6422 54.7057 42.5676L46.8023 48.2568L46.3718 48.5734C46.7684 49.2775 46.9786 50.038 46.6079 50.4148C46.5665 50.4544 46.5211 50.4895 46.4723 50.5194C46.4346 50.5341 46.3991 50.5542 46.367 50.579C46.2977 50.6418 52.4545 47.0716 55.2171 45.4429Z" fill="#363434"/>
<path fill-rule="evenodd" clip-rule="evenodd" d="M55.1317 45.4902C55.6895 44.8618 55.3338 43.6895 54.6143 42.6118L46.6868 48.319L46.2533 48.6266C46.6769 49.3518 46.8631 50.1001 46.4954 50.471C46.4509 50.5116 46.4025 50.5476 46.3509 50.5785C46.3156 50.5958 46.2823 50.6168 46.2515 50.6412L55.1317 45.4902Z" stroke="#1D1D1B" stroke-width="2" stroke-miterlimit="10"/>
<path fill-rule="evenodd" clip-rule="evenodd" d="M46.6093 50.4149C46.98 50.038 46.7938 49.2897 46.3732 48.5735L45.7784 48.6493C46.1246 49.185 46.3146 49.7472 46.143 49.8637C45.8254 50.0346 45.5301 50.2443 45.2639 50.4878C45.4177 50.6119 45.6052 50.6869 45.8022 50.7032C45.9991 50.7194 46.1964 50.6762 46.3685 50.5791L46.6093 50.4149Z" fill="#4F4849"/>
<path fill-rule="evenodd" clip-rule="evenodd" d="M46.4942 50.4707C46.8619 50.0998 46.6757 49.3515 46.2521 48.6262L45.6543 48.708C46.0065 49.2468 46.1965 49.809 46.0249 49.9254C45.6979 50.0882 45.3942 50.2941 45.1218 50.5375C45.276 50.6607 45.4634 50.7352 45.6602 50.7514C45.8569 50.7677 46.054 50.725 46.2264 50.6288L46.4942 50.4707Z" stroke="#1D1D1B" stroke-width="2" stroke-miterlimit="10"/>
<path fill-rule="evenodd" clip-rule="evenodd" d="M44.7091 51.6442C44.7799 51.222 44.9772 50.8312 45.2748 50.5235C45.541 50.28 45.8363 50.0703 46.154 49.8994C46.3256 49.7829 46.1356 49.2207 45.7894 48.685C45.3475 49.0588 44.9418 49.4734 44.5776 49.9233C44.4087 50.1238 44.2156 50.3573 44.0074 50.6207C43.1205 51.7222 44.3209 57.3294 45.3708 60.6872L45.5102 61.1261C45.697 61.8139 45.9624 62.4778 46.3012 63.1048C46.3723 62.9606 46.4263 62.8087 46.4621 62.652C46.5035 62.5043 46.5273 62.3522 46.5329 62.1989C46.6952 60.5962 44.5003 52.8474 44.7091 51.6442Z" fill="#B5B6B6"/>
<path fill-rule="evenodd" clip-rule="evenodd" d="M44.6168 51.6645C44.6876 51.2423 44.8849 50.8515 45.1825 50.5438C45.4468 50.2979 45.7424 50.088 46.0617 49.9196C46.2333 49.8032 46.0433 49.241 45.6911 48.7022C45.2532 49.0795 44.8497 49.495 44.4853 49.9436C44.3164 50.1441 44.1263 50.3716 43.9091 50.6379C43.0463 51.7065 44.2226 57.3466 45.2785 60.7075C45.3219 60.8598 45.3694 61.0041 45.4209 61.1404C45.6183 61.841 45.899 62.5154 46.2569 63.1492C46.328 63.0051 46.382 62.8532 46.4178 62.6965C46.4529 62.5454 46.4776 62.392 46.4916 62.2374C46.5938 60.6345 44.3989 52.8857 44.6168 51.6645Z" stroke="#1D1D1B" stroke-width="2" stroke-miterlimit="10"/>
<path fill-rule="evenodd" clip-rule="evenodd" d="M29.5804 61.9592C28.2151 62.5334 3.8518 86.243 4.58122 86.2878C5.31065 86.3327 43.4277 64.3244 42.8238 63.6435C40.9584 61.5286 31.6043 61.1233 29.5804 61.9592Z" fill="#EDEDEE"/>
</g>
<defs>
<clipPath id="clip0_260_4083">
<rect width="47.3313" height="100" fill="white" transform="translate(45.0664) rotate(26.7859)"/>
</clipPath>
</defs>
</svg>
