<svg width="83" height="106" viewBox="0 0 83 106" fill="none" xmlns="http://www.w3.org/2000/svg">
<g clip-path="url(#clip0_415_1050)">
<path fill-rule="evenodd" clip-rule="evenodd" d="M41.1998 80.7434C44.371 92.5016 50.3336 99.503 52.5822 101.829C52.1731 102.49 51.7643 103.186 51.3559 103.915C51.3559 103.915 42.5151 96.1825 38.7196 80.5803L41.1998 80.7434Z" fill="#C6C6C5"/>
<path fill-rule="evenodd" clip-rule="evenodd" d="M41.1998 80.7434C44.371 92.5016 50.3336 99.503 52.5822 101.829C52.1731 102.49 51.7643 103.186 51.3559 103.915C51.3559 103.915 42.5151 96.1825 38.7196 80.5803L41.1998 80.7434Z" stroke="#1D1D1B" stroke-width="2" stroke-miterlimit="10"/>
<path fill-rule="evenodd" clip-rule="evenodd" d="M63.8877 80.9532C63.8877 80.9532 54.2192 68.1739 48.934 58.0253C43.6489 47.8766 39.3535 39.4533 39.7841 39.2046C40.2148 38.956 47.2458 37.4869 47.2458 37.4869C47.2458 37.4869 53.3998 50.8534 57.0627 56.2031C60.7256 61.5529 70.822 74.0787 70.822 74.0787L63.8877 80.9532Z" fill="#EFDC70"/>
<path fill-rule="evenodd" clip-rule="evenodd" d="M63.8877 80.9532C63.8877 80.9532 54.2192 68.1739 48.934 58.0253C43.6489 47.8766 39.3535 39.4533 39.7841 39.2046C40.2148 38.956 47.2458 37.4869 47.2458 37.4869C47.2458 37.4869 53.3998 50.8534 57.0627 56.2031C60.7256 61.5529 70.822 74.0787 70.822 74.0787L63.8877 80.9532Z" stroke="#1D1D1B" stroke-width="2" stroke-miterlimit="10"/>
<path fill-rule="evenodd" clip-rule="evenodd" d="M73.4367 72.2806L77.8104 78.7511C77.8104 78.7511 77.9597 78.8882 77.8288 79.1807C77.7858 79.5087 77.6711 79.8232 77.4929 80.1019C77.077 80.7185 67.4274 86.8128 66.9564 86.9253C66.6586 86.9951 66.3812 87.034 66.0499 87.1232C62.9967 89.2497 57.4226 93.176 51.3485 103.905C51.3485 103.905 42.5077 96.1729 38.7292 80.5671L41.1979 80.7432C47.0453 81.7438 58.9103 84.0615 61.4084 78.9955L71.8538 72.18L72.6481 71.7215C72.6481 71.7215 72.8698 71.4977 73.4367 72.2806Z" fill="#3E3A39"/>
<path fill-rule="evenodd" clip-rule="evenodd" d="M73.4367 72.2806L77.8104 78.7511C77.8104 78.7511 77.9597 78.8882 77.8288 79.1807C77.7858 79.5087 77.6711 79.8232 77.4929 80.1019C77.077 80.7185 67.4274 86.8128 66.9564 86.9253C66.6586 86.9951 66.3812 87.034 66.0499 87.1232C62.9967 89.2497 57.4226 93.176 51.3485 103.905C51.3485 103.905 42.5077 96.1729 38.7292 80.5671L41.1979 80.7432C47.0453 81.7438 58.9103 84.0615 61.4084 78.9955L71.8538 72.18L72.6481 71.7215C72.6481 71.7215 72.8698 71.4977 73.4367 72.2806Z" stroke="#1D1D1B" stroke-width="2" stroke-miterlimit="10"/>
<path fill-rule="evenodd" clip-rule="evenodd" d="M47.9625 39.0511C45.4501 40.1252 42.11 41.3901 39.9042 42.2106C39.7644 41.9022 39.6329 41.6081 39.4966 41.3168C37.5061 36.9409 33.4271 27.71 29.9449 23.2257C29.9449 23.2257 26.2346 18.6116 22.4128 15.8928C22.4128 15.8928 20.554 14.4523 20.3377 13.9009C19.1563 10.838 24.2352 5.75563 26.8142 4.2666C26.9466 4.17458 27.0974 4.11262 27.2563 4.08507C27.4151 4.05752 27.578 4.06505 27.7336 4.10713C27.8892 4.1492 28.0337 4.22481 28.157 4.32865C28.2803 4.43248 28.3793 4.56203 28.4473 4.70822C29.0882 5.81832 32.9679 12.3061 35.1314 15.5229C37.2949 18.7398 42.585 27.2396 45.2783 33.098C46.1146 34.9885 47.0338 37.0226 47.9625 39.0511Z" fill="#3E3A39"/>
<path fill-rule="evenodd" clip-rule="evenodd" d="M47.9625 39.0511C45.4501 40.1252 42.11 41.3901 39.9042 42.2106C39.7644 41.9022 39.6329 41.6081 39.4966 41.3168C37.5061 36.9409 33.4271 27.71 29.9449 23.2257C29.9449 23.2257 26.2346 18.6116 22.4128 15.8928C22.4128 15.8928 20.554 14.4523 20.3377 13.9009C19.1563 10.838 24.2352 5.75563 26.8142 4.2666C26.9466 4.17458 27.0974 4.11262 27.2563 4.08507C27.4151 4.05752 27.578 4.06505 27.7336 4.10713C27.8892 4.1492 28.0337 4.22481 28.157 4.32865C28.2803 4.43248 28.3793 4.56204 28.4473 4.70821C29.0882 5.81832 32.9679 12.3061 35.1314 15.5229C37.2949 18.7398 42.585 27.2396 45.2783 33.098C46.1146 34.9885 47.0338 37.0226 47.9625 39.0511Z" stroke="#1D1D1B" stroke-width="2" stroke-miterlimit="10"/>
<path fill-rule="evenodd" clip-rule="evenodd" d="M42.5673 41.2092L39.9045 42.2106C39.7647 41.9022 39.6332 41.6081 39.4969 41.3167C37.5064 36.9409 33.4274 27.71 29.9452 23.2257C29.9452 23.2257 26.2349 18.6115 22.4131 15.8927C22.4131 15.8927 20.5543 14.4523 20.338 13.9008C19.192 10.9323 23.9333 6.08316 26.5685 4.415C25.3228 6.30176 22.0109 11.1295 22.1509 12.5543C22.3241 14.3683 29.7179 17.4173 35.5108 27.4067C38.2091 32.0693 40.4017 36.5963 42.5673 41.2092Z" fill="#373331"/>
<path fill-rule="evenodd" clip-rule="evenodd" d="M42.5673 41.2092L39.9045 42.2106C39.7647 41.9022 39.6332 41.6081 39.4969 41.3167C37.5064 36.9409 33.4274 27.71 29.9452 23.2257C29.9452 23.2257 26.2349 18.6115 22.4131 15.8927C22.4131 15.8927 20.5543 14.4523 20.338 13.9008C19.192 10.9323 23.9333 6.08316 26.5685 4.41501C25.3228 6.30175 22.0109 11.1295 22.1509 12.5543C22.3241 14.3683 29.7179 17.4173 35.5108 27.4067C38.2091 32.0693 40.4017 36.5963 42.5673 41.2092Z" stroke="#1D1D1B" stroke-width="2" stroke-miterlimit="10"/>
<path fill-rule="evenodd" clip-rule="evenodd" d="M39.9039 42.2099C40.8241 41.9629 41.7269 41.6548 42.6061 41.2878C45.1149 46.6276 47.5918 52.0559 50.7307 57.7911C54.6125 64.8902 60.4094 72.8422 63.8323 77.4117L61.4099 78.9953C57.2514 73.8705 53.5173 68.4155 50.2447 62.6844C46.4017 56.0669 42.9488 49.2304 39.9039 42.2099Z" fill="#DDBD57"/>
<path fill-rule="evenodd" clip-rule="evenodd" d="M39.9039 42.2099C40.8241 41.9629 41.7269 41.6548 42.6061 41.2878C45.1149 46.6276 47.5918 52.0559 50.7307 57.7911C54.6125 64.8902 60.4094 72.8422 63.8323 77.4117L61.4099 78.9953C57.2514 73.8705 53.5173 68.4155 50.2447 62.6844C46.4017 56.0669 42.9488 49.2304 39.9039 42.2099V42.2099Z" stroke="#1D1D1B" stroke-width="2" stroke-miterlimit="10"/>
<path fill-rule="evenodd" clip-rule="evenodd" d="M41.8351 82.9284C41.6092 82.2167 41.3997 81.4891 41.2085 80.7382C47.0465 81.7443 58.9114 84.0619 61.4095 78.9959L63.8415 77.4068L70.247 73.23L70.4719 73.1002L70.2636 73.2587C69.5505 73.7917 67.1784 75.595 65.1338 77.3688C64.3808 78.0205 63.6696 78.6672 63.1026 79.2433C60.693 81.6999 59.3133 83.4982 54.9744 84.0829C52.0148 84.4709 45.636 83.5666 41.8351 82.9284Z" fill="#373331"/>
<path fill-rule="evenodd" clip-rule="evenodd" d="M67.9237 72.3842C66.7094 73.2552 65.4497 74.0613 64.1501 74.799C64.1501 74.799 56.8214 65.122 52.9141 57.6804C49.0069 50.2387 44.0578 42.5948 44.9042 42.3039C45.7506 42.013 47.4814 41.1541 47.4814 41.1541C47.4814 41.1541 53.5787 54.4002 58.5483 60.3225C63.5179 66.2449 65.478 67.9714 66.5861 69.6475C67.1831 70.4778 67.6354 71.4031 67.9237 72.3842Z" fill="#EFDC70"/>
<path fill-rule="evenodd" clip-rule="evenodd" d="M46.4891 38.1016C46.084 38.2398 43.2277 39.6465 43.2277 39.6465C43.2277 39.6465 38.1675 28.462 33.1525 22.03C28.1375 15.598 24.375 14.1975 24.1584 12.4851C23.9417 10.7728 26.7341 5.00094 27.3692 5.89109C33.3756 14.4048 43.3437 28.7528 46.4891 38.1016Z" fill="#3F3E3D"/>
</g>
<defs>
<clipPath id="clip0_415_1050">
<rect width="38.0905" height="100" fill="white" transform="matrix(0.866025 -0.5 -0.5 -0.866025 50 105.647)"/>
</clipPath>
</defs>
</svg>
