<svg width="207" height="90" viewBox="0 0 207 90" fill="none" xmlns="http://www.w3.org/2000/svg">
<g clip-path="url(#clip0_388_2764)">
<path d="M205.184 79.9058H141.92C141.968 77.7978 141.594 75.7015 140.821 73.74C140.047 71.7785 138.889 69.9913 137.415 68.4835C135.941 66.9757 134.181 65.7777 132.237 64.9597C130.294 64.1418 128.207 63.7204 126.098 63.7204C123.989 63.7204 121.902 64.1418 119.959 64.9597C118.015 65.7777 116.255 66.9757 114.781 68.4835C113.307 69.9913 112.149 71.7785 111.376 73.74C110.602 75.7015 110.228 77.7978 110.276 79.9058H47.0117C47.0117 58.9298 55.3444 38.8128 70.1768 23.9805C85.0091 9.14815 105.126 0.81543 126.102 0.81543C147.078 0.81543 167.195 9.14815 182.028 23.9805C196.86 38.8128 205.193 58.9298 205.193 79.9058H205.184Z" fill="#F4897D" stroke="#231F20" stroke-width="2" stroke-miterlimit="10"/>
<path d="M189.357 79.9056H141.919C141.967 77.7976 141.593 75.7013 140.819 73.7398C140.046 71.7783 138.888 69.9911 137.414 68.4833C135.94 66.9755 134.179 65.7775 132.236 64.9595C130.293 64.1416 128.205 63.7202 126.097 63.7202C123.988 63.7202 121.901 64.1416 119.957 64.9595C118.014 65.7775 116.254 66.9755 114.78 68.4833C113.306 69.9911 112.148 71.7783 111.374 73.7398C110.601 75.7013 110.227 77.7976 110.275 79.9056H62.8203C63.0094 63.2503 69.7584 47.3412 81.6029 35.6304C93.4475 23.9195 109.432 17.3516 126.089 17.3516C142.745 17.3516 158.73 23.9195 170.574 35.6304C182.419 47.3412 189.168 63.2503 189.357 79.9056Z" fill="#8E94DD" stroke="#231F20" stroke-width="2" stroke-miterlimit="10"/>
<path d="M173.54 79.906H141.921C141.968 77.7979 141.595 75.7016 140.821 73.7401C140.047 71.7786 138.89 69.9914 137.416 68.4836C135.942 66.9758 134.181 65.7778 132.238 64.9598C130.294 64.1419 128.207 63.7205 126.098 63.7205C123.99 63.7205 121.903 64.1419 119.959 64.9598C118.016 65.7778 116.255 66.9758 114.781 68.4836C113.307 69.9914 112.15 71.7786 111.376 73.7401C110.602 75.7016 110.228 77.7979 110.276 79.906H78.6564C78.5741 73.6234 79.7403 67.3871 82.0876 61.559C84.4348 55.7309 87.9162 50.427 92.3298 45.9552C96.7434 41.4833 102.001 37.9327 107.798 35.5093C113.595 33.0858 119.815 31.8379 126.098 31.8379C132.381 31.8379 138.602 33.0858 144.399 35.5093C150.196 37.9327 155.454 41.4833 159.867 45.9552C164.281 50.427 167.762 55.7309 170.109 61.559C172.457 67.3871 173.623 73.6234 173.54 79.906Z" fill="#65DB73" stroke="#231F20" stroke-width="2" stroke-miterlimit="10"/>
<path d="M157.729 79.9058H141.919C141.967 77.7977 141.593 75.7014 140.82 73.7399C140.046 71.7784 138.888 69.9912 137.414 68.4834C135.94 66.9756 134.18 65.7776 132.236 64.9596C130.293 64.1417 128.206 63.7203 126.097 63.7203C123.989 63.7203 121.901 64.1417 119.958 64.9596C118.014 65.7776 116.254 66.9756 114.78 68.4834C113.306 69.9912 112.148 71.7784 111.375 73.7399C110.601 75.7014 110.227 77.7977 110.275 79.9058H94.465C94.3976 75.709 95.166 71.5409 96.7254 67.644C98.2849 63.7472 100.604 60.1997 103.548 57.208C106.492 54.2164 110.002 51.8405 113.873 50.2187C117.745 48.5969 121.9 47.7617 126.097 47.7617C130.294 47.7617 134.45 48.5969 138.321 50.2187C142.192 51.8405 145.702 54.2164 148.646 57.208C151.59 60.1997 153.909 63.7472 155.469 67.644C157.028 71.5409 157.797 75.709 157.729 79.9058Z" fill="#231F20" stroke="#231F20" stroke-width="2" stroke-miterlimit="10"/>
<path d="M157.729 79.9058H141.919C141.967 77.7977 141.593 75.7014 140.82 73.7399C140.046 71.7784 138.888 69.9912 137.414 68.4834C135.94 66.9756 134.18 65.7776 132.236 64.9596C130.293 64.1417 128.206 63.7203 126.097 63.7203C123.989 63.7203 121.901 64.1417 119.958 64.9596C118.014 65.7776 116.254 66.9756 114.78 68.4834C113.306 69.9912 112.148 71.7784 111.375 73.7399C110.601 75.7014 110.227 77.7977 110.275 79.9058H94.465C94.3976 75.709 95.166 71.5409 96.7254 67.644C98.2849 63.7472 100.604 60.1997 103.548 57.208C106.492 54.2164 110.002 51.8405 113.873 50.2187C117.745 48.5969 121.9 47.7617 126.097 47.7617C130.294 47.7617 134.45 48.5969 138.321 50.2187C142.192 51.8405 145.702 54.2164 148.646 57.208C151.59 60.1997 153.909 63.7472 155.469 67.644C157.028 71.5409 157.797 75.709 157.729 79.9058Z" fill="#EFDC70" stroke="#231F20" stroke-width="2" stroke-miterlimit="10"/>
<path d="M96.9045 76.514C96.9045 76.0982 96.9616 75.6987 96.9616 75.2339C96.9619 70.8923 95.2745 66.7206 92.2559 63.6001C89.2373 60.4796 85.124 58.6547 80.7848 58.5108C80.7863 56.4833 80.2356 54.4938 79.1918 52.7556C78.148 51.0175 76.6506 49.5965 74.8602 48.6452C73.0698 47.6938 71.0541 47.248 69.0295 47.3557C67.0049 47.4634 65.0479 48.1205 63.3686 49.2564C60.9683 45.4382 57.3912 42.5044 53.1771 40.8978C48.9631 39.2911 44.3408 39.0988 40.0078 40.3498C35.6748 41.6008 31.8664 44.2273 29.1572 47.8328C26.448 51.4383 24.9851 55.8273 24.9893 60.3372C24.9893 60.5166 24.9893 60.696 24.9893 60.8753C21.3161 60.0037 17.4695 60.2099 13.9105 61.4694C10.3516 62.7288 7.23143 64.988 4.92412 67.9761C2.6168 70.9641 1.22027 74.5542 0.901937 78.316C0.583607 82.0778 1.357 85.8515 3.12938 89.1848H102.816C103.003 88.3607 103.098 87.5185 103.101 86.6735C103.103 84.574 102.525 82.5148 101.432 80.7224C100.338 78.93 98.7718 77.4738 96.9045 76.514Z" fill="white" stroke="#231F20" stroke-width="2" stroke-miterlimit="10"/>
<path d="M24.9883 60.3367C24.9883 54.8224 27.1788 49.5339 31.0781 45.6347C34.9773 41.7355 40.2658 39.5449 45.7801 39.5449C51.2944 39.5449 56.5829 41.7355 60.4821 45.6347C64.3813 49.5339 66.5719 54.8224 66.5719 60.3367C66.573 61.7051 66.4419 63.0704 66.1805 64.4136" fill="white"/>
<path d="M24.9883 60.3367C24.9883 54.8224 27.1788 49.5339 31.0781 45.6347C34.9773 41.7355 40.2658 39.5449 45.7801 39.5449C51.2944 39.5449 56.5829 41.7355 60.4821 45.6347C64.3813 49.5339 66.5719 54.8224 66.5719 60.3367C66.573 61.7051 66.4419 63.0704 66.1805 64.4136" stroke="#231F20" stroke-width="2" stroke-miterlimit="10" stroke-linecap="round"/>
</g>
<defs>
<clipPath id="clip0_388_2764">
<rect width="206.002" height="90" fill="white"/>
</clipPath>
</defs>
</svg>
