<svg width="126" height="131" viewBox="0 0 126 131" fill="none" xmlns="http://www.w3.org/2000/svg">
<g clip-path="url(#clip0_415_1084)">
<path fill-rule="evenodd" clip-rule="evenodd" d="M83.0916 21.4623C82.6341 21.6949 76.5033 28.6341 68.8943 37.3769C66.8771 39.6892 69.5324 46.2432 66.8728 49.3157C64.8018 51.7107 57.4263 50.6063 55.6396 52.6747C52.9993 55.7344 52.9593 55.7831 50.4159 58.7372C48.7714 60.6423 50.1498 66.9618 47.1844 70.4084C44.3238 73.7358 37.1316 74.1795 35.5989 75.9636C27.8504 84.979 26.3311 86.7709 24.6576 88.6952L39.6094 104.156L61.1882 109.786C61.8543 107.897 63.2012 104.102 66.7435 93.945C67.668 91.307 63.649 84.3786 65.0443 80.3966C66.5067 76.226 73.359 75.0235 74.2509 72.5043C75.2797 69.5615 75.9165 67.7329 76.8848 64.9466C77.8837 62.0763 75.8138 56.2911 76.7386 53.6114C77.9238 50.1903 82.4552 48.8927 83.5102 45.8214C87.439 34.487 90.246 26.1734 90.2146 25.5748C90.091 23.1456 85.2481 20.3495 83.0916 21.4623Z" fill="#F28C25"/>
<path fill-rule="evenodd" clip-rule="evenodd" d="M65.4497 93.1988L52.5547 85.7539C48.5444 93.6121 45.8533 98.9884 45.9377 99.091C46.2625 99.482 60.2691 107.635 60.2691 107.635L65.4497 93.1988Z" fill="#F79C4B"/>
<path fill-rule="evenodd" clip-rule="evenodd" d="M62.7845 65.8791L73.1076 71.8392L75.8044 64.3178L66.3789 58.876C65.1934 61.2196 63.9802 63.5593 62.7845 65.8791Z" fill="#F79C4B"/>
<path fill-rule="evenodd" clip-rule="evenodd" d="M75.5769 41.2355L82.6371 45.3117L89.6534 25.7479C88.9174 25.0118 85.5479 22.9288 85.1961 23.1027C85.0635 23.1458 81.0258 30.8027 75.5769 41.2355Z" fill="#F79C4B"/>
<path fill-rule="evenodd" clip-rule="evenodd" d="M83.1965 21.5222C82.739 21.7548 76.6082 28.694 68.9992 37.4368C66.9968 39.7338 69.6373 46.3031 66.9777 49.3756C64.9067 51.7706 57.5356 50.6688 55.749 52.7372C53.0997 55.7917 53.0686 55.8456 50.5208 58.7971C48.8763 60.7022 50.2547 67.0217 47.2938 70.4709C44.4331 73.7983 37.2365 74.2394 35.7082 76.0261C27.9598 85.0415 26.4405 86.8334 24.767 88.7577L39.7187 104.218L61.3021 109.851C61.9636 107.959 63.3106 104.165 66.8573 94.0101C67.7819 91.3721 63.7674 84.4463 65.1582 80.4617C66.6206 76.291 73.4773 75.0912 74.3647 72.5694C75.3935 69.6266 76.0304 67.798 76.9987 65.0117C77.9976 62.1414 75.9277 56.3562 76.8525 53.6765C78.0377 50.2554 82.569 48.9578 83.6241 45.8865C87.5573 34.5547 90.3643 26.2411 90.3284 25.6399C90.2049 23.2107 85.3665 20.4172 83.1965 21.5222Z" stroke="#1D1D1B" stroke-width="2" stroke-miterlimit="10"/>
<path fill-rule="evenodd" clip-rule="evenodd" d="M74.2764 72.5132L50.4074 58.7324C45.0868 64.9005 39.9121 70.9196 35.5904 75.9588L66.7664 93.9583C68.9652 87.6933 71.5905 80.2024 74.2764 72.5132Z" fill="#EDEDEE"/>
<path fill-rule="evenodd" clip-rule="evenodd" d="M55.6325 52.6698L76.9117 64.9554C79.2436 58.2526 81.5319 51.6563 83.5371 45.8302L68.8872 37.372C64.8398 42.0191 60.2714 47.299 55.6325 52.6698Z" fill="#EDEDEE"/>
<path fill-rule="evenodd" clip-rule="evenodd" d="M55.7653 52.7479L77.04 65.0309C79.3764 58.3307 81.6602 51.7318 83.6655 45.9057L69.0155 37.4476C64.9726 42.0972 60.3997 47.3745 55.7653 52.7479Z" stroke="#1D1D1B" stroke-width="2" stroke-miterlimit="10"/>
<path fill-rule="evenodd" clip-rule="evenodd" d="M74.5303 72.3725L50.6613 58.5918C45.3452 64.7625 40.1705 70.7815 35.8443 75.8182L67.0427 93.8306C69.2191 87.5527 71.8444 80.0618 74.5303 72.3725Z" stroke="#1D1D1B" stroke-width="2" stroke-miterlimit="10"/>
<path fill-rule="evenodd" clip-rule="evenodd" d="M2.75031 82.8761L42.9288 99.2449L77.1894 125.854L75.1475 129.39L0.708328 86.4129L2.75031 82.8761Z" fill="#F28C25"/>
<path fill-rule="evenodd" clip-rule="evenodd" d="M2.75031 82.8761L42.9288 99.2449L77.1894 125.854L75.1475 129.39L0.708328 86.4129L2.75031 82.8761Z" stroke="#1D1D1B" stroke-width="2" stroke-miterlimit="10"/>
<path fill-rule="evenodd" clip-rule="evenodd" d="M24.6613 88.6981L61.1919 109.789L77.1894 125.854L2.75031 82.8761L24.6613 88.6981Z" fill="#F79C4B"/>
<path fill-rule="evenodd" clip-rule="evenodd" d="M25.1066 88.955L61.6372 110.046L77.1904 125.854L3.19562 83.1329L25.1066 88.955Z" stroke="#1D1D1B" stroke-width="2" stroke-linejoin="round"/>
</g>
<defs>
<clipPath id="clip0_415_1084">
<rect width="86.9914" height="100" fill="white" transform="translate(50) rotate(30)"/>
</clipPath>
</defs>
</svg>
