<svg width="135" height="250" viewBox="0 0 135 250" fill="none" xmlns="http://www.w3.org/2000/svg">
<path d="M50.0172 6.95086C65.0654 13.9244 71.0601 35.4567 61.7009 49.2203C59.1929 52.9517 55.5838 57.0502 56.9907 61.2711C57.7248 63.4732 59.6823 65.0025 61.5786 66.3483C85.4354 83.5374 115.348 94.9153 130.213 120.301C134.128 126.969 136.942 135.044 129.724 142.874C126.237 146.666 121.343 148.991 116.266 149.786C104.093 151.621 92.5924 146.483 80.664 145.259C80.5417 145.259 80.4805 145.259 80.3582 145.259C66.2276 143.975 58.5813 161.531 68.8581 171.318L78.7066 180.8C89.2892 190.954 100.178 201.476 103.665 216.402C105.133 222.825 104.827 229.676 101.952 235.671C91.7972 257.02 62.3126 251.881 46.2857 237.384C31.5434 224.048 22.6125 205.085 7.3808 192.3C2.67059 188.324 -2.89603 184.96 -9.01317 184.226C-19.657 183.002 -29.3221 189.853 -38.0696 195.97C-56.3598 208.694 -77.0358 220.072 -100.036 217.013C-111.108 215.545 -121.507 210.223 -128.175 201.231C-146.282 176.64 -124.933 145.993 -102.605 134.432C-95.0202 130.517 -89.7595 122.871 -88.9031 114.368C-87.0679 96.1387 -105.847 92.7743 -117.409 83.721C-129.276 74.4841 -133.742 56.9279 -127.808 43.1031C-121.813 29.2784 -105.97 20.5309 -91.1052 22.8554C-80.9507 24.4459 -72.0809 30.5018 -62.6605 34.6003C-53.2401 38.76 -41.4953 40.7786 -33.1148 34.7838C-27.7317 30.93 -24.8566 24.507 -21.1251 19.0628C-4.54768 -5.09991 29.0354 -2.83656 50.0172 6.95086Z" fill="#F3CE64"/>
</svg>
