<svg width="1512" height="1646" viewBox="0 0 1512 1646" fill="none" xmlns="http://www.w3.org/2000/svg">
<path d="M1511.37 0.560547H0.308594V1645.4H1511.37V0.560547Z" fill="#CACBF0"/>
<path d="M0.308594 201.402C98.5556 172.16 198.65 145.806 299.793 119.769C399.215 94.2557 485.052 51.9771 563.851 0.560547" stroke="#9EA3D8" stroke-miterlimit="10"/>
<path d="M0.308594 613.928C237.126 560.465 478.336 628.769 719.532 654.599C1027.34 686.277 1058.12 345.125 1153.26 158.709C1182.27 102.455 1216.97 48.1757 1260.24 0.560547" stroke="#9EA3D8" stroke-miterlimit="10"/>
<path d="M0.308594 352.045C134.989 320.464 274.077 299.032 415.851 284.204C566.957 268.365 694.278 198.916 786.621 89.2602C811.805 59.5678 836.052 29.8266 860.229 0.560547" stroke="#9EA3D8" stroke-miterlimit="10"/>
<path d="M0.308594 1426.36C26.179 1430.09 51.2217 1437.32 74.5325 1447.78C210.248 1508.7 343.166 1575.71 498.47 1563.53C743.318 1542.81 954.587 1445.34 1158.86 1317.41C1299.01 1228.65 1408.35 1126.46 1511.44 1017.82" stroke="#9EA3D8" stroke-miterlimit="10"/>
<path d="M0.308594 864.237C174.752 791.133 392.947 796.531 548.768 911.682C613.128 959.2 660.699 1021.34 743.248 1039.61C881.762 1071.29 992.293 976.257 1074.84 890.969C1241.34 717.956 1281.91 503.517 1375.66 302.481C1405.79 236.941 1452.12 177.983 1511.37 129.797" stroke="#9EA3D8" stroke-miterlimit="10"/>
<path d="M1383.48 1645.4C1426.22 1623.3 1468.86 1600.04 1511.37 1575.61" stroke="#9EA3D8" stroke-miterlimit="10"/>
<path d="M119.193 0.560547C79.5321 15.555 39.904 30.4723 0.308594 45.3125" stroke="#9EA3D8" stroke-miterlimit="10"/>
<path d="M0.308594 994.521C34.4101 980.663 68.479 966.449 102.515 951.877C274.608 878.773 469.088 951.877 557.233 1096.87C582.417 1139.51 622.992 1176.06 678.958 1185.81C845.454 1211.4 979.771 1107.83 1087.5 1010.36C1265.19 851.968 1343.55 648.495 1431.69 448.677C1452.09 401.757 1478.87 357.13 1511.44 315.749" stroke="#9EA3D8" stroke-miterlimit="10"/>
<path d="M0.308594 485.838C79.4015 469.548 160.593 460.495 243.828 460.873C474.684 460.873 781.094 510.827 905.617 285.423C957.777 190.388 1007.52 89.8329 1072.55 0.560547" stroke="#9EA3D8" stroke-miterlimit="10"/>
<path d="M0.308594 1555.38C5.90512 1556.76 11.5016 1558.26 17.0982 1559.87C208.779 1614.7 403.259 1662.22 607.532 1618.35C971.978 1540.38 1258.7 1361.61 1511.37 1140.23" stroke="#9EA3D8" stroke-miterlimit="10"/>
<path d="M0.308594 1216.83C55.5743 1203.62 111.204 1191.04 166.875 1178.51C200.454 1171.2 235.433 1169.98 267.613 1183.39C345.964 1217.5 359.955 1299.13 415.921 1353.96C467.689 1401.48 544.641 1412.44 617.396 1401.48C824.467 1373.46 995.161 1277.2 1147.67 1156.58C1307.31 1030.76 1407.12 880.795 1511.44 724.584" stroke="#9EA3D8" stroke-miterlimit="10"/>
<path d="M1182.86 1645.4C1295.58 1591.62 1404.56 1531.13 1511.37 1466.1" stroke="#9EA3D8" stroke-miterlimit="10"/>
<path d="M0.308594 736.975C246.164 670.767 505.829 748.038 737.721 844.669C962.981 937.268 1102.89 677.748 1164.46 516.919C1235.1 332.356 1276.95 119.135 1469.47 0.560547" stroke="#9EA3D8" stroke-miterlimit="10"/>
<path d="M0.308594 1316.08C23.0865 1312.52 45.9623 1309.31 68.936 1306.44C133.296 1297.91 196.257 1317.41 236.832 1363.71C460.693 1620.79 834.261 1438.03 1076.31 1290.6C1265.04 1176.07 1390.22 1033.28 1511.44 882.281" stroke="#9EA3D8" stroke-miterlimit="10"/>
<path d="M986.586 1645.4C1175.38 1568.32 1346.95 1468.66 1511.37 1357.17" stroke="#9EA3D8" stroke-miterlimit="10"/>
<path d="M0.308594 1114.84C10.1492 1111.71 19.9664 1108.56 29.7603 1105.39C126.3 1073.72 229.836 1009.14 334.771 1055.44C424.316 1095.65 446.702 1182.15 504.066 1250.38C550.237 1303.99 625.791 1317.4 698.545 1303.99C1034.34 1238.2 1249.8 998.175 1392.51 745.966C1432.85 675.226 1469.05 599.929 1511.44 528.762" stroke="#9EA3D8" stroke-miterlimit="10"/>
<path d="M774.617 1645.4C1055.84 1562.48 1292.9 1420.08 1511.37 1252.24" stroke="#9EA3D8" stroke-miterlimit="10"/>
<path d="M0.308594 278.003C121.334 246.629 246.192 221.055 373.877 195.261C488.606 170.893 587.944 124.594 670.493 51.4897C689.955 34.8586 708.815 17.8253 727.284 0.560547" stroke="#9EA3D8" stroke-miterlimit="10"/>
<path d="M0.308594 674.532C229.64 622.408 475.356 666.636 692.949 748.416C890.226 822.738 1037.14 655.817 1094.5 509.609C1164.46 335.377 1204.19 132.233 1357.06 0.560547" stroke="#9EA3D8" stroke-miterlimit="10"/>
<path d="M0.308594 417.632C3.58256 417.01 6.87052 416.413 10.1725 415.792C187.862 382.895 355.758 384.113 530.65 368.274C763.927 345.831 864.468 159.611 972.397 0.560547" stroke="#9EA3D8" stroke-miterlimit="10"/>
<path d="M0.308594 1498.63C4.03961 1499.53 7.77063 1500.47 11.5016 1501.45C196.187 1550.18 369.679 1628.16 572.554 1590.39C963.541 1518.62 1255.55 1323.12 1511.37 1082.14" stroke="#9EA3D8" stroke-miterlimit="10"/>
<path d="M0.308594 929.787C16.1654 923.013 32.0456 916.166 47.949 909.245C250.823 820.302 478.882 883.659 611.799 1051.8C741.919 1212.63 960.183 1077.38 1074.91 965.292C1252.6 789.842 1315.56 571.748 1410.7 363.401C1434.75 310.758 1468.8 262.018 1511.44 219.228" stroke="#9EA3D8" stroke-miterlimit="10"/>
<path d="M1511.37 1631.44C1502.92 1636.1 1494.44 1640.75 1485.93 1645.39" stroke="#9EA3D8" stroke-miterlimit="10"/>
<path d="M0.308594 123.887C120.76 85.5806 241.477 49.8083 355.548 0.560547" stroke="#9EA3D8" stroke-miterlimit="10"/>
<path d="M0.308594 1055.23C56.5724 1034.86 113.027 1014.22 169.674 993.315C329.175 936.05 463.491 1050.58 527.851 1169.98C581.018 1266.24 718.133 1266.24 818.871 1228.47C1184.04 1089.57 1342.15 760.6 1489.06 462.092C1495.84 448.031 1503.3 434.223 1511.44 420.666" stroke="#9EA3D8" stroke-miterlimit="10"/>
<path d="M0.308594 550.096C203.183 511.571 402.951 533.368 607.602 558.345C764.305 579.058 904.218 505.954 965.78 381.677C1028.36 255.17 1078.62 114.676 1166.15 0.560547" stroke="#9EA3D8" stroke-miterlimit="10"/>
<path d="M645.812 1645.4C988.782 1564.7 1262.83 1396.39 1511.37 1194.91" stroke="#9EA3D8" stroke-miterlimit="10"/>
<path d="M0.308594 1613.25C62.57 1623.34 124.048 1635.18 185.4 1645.4" stroke="#9EA3D8" stroke-miterlimit="10"/>
<path d="M0.308594 1265.77C40.5663 1257.65 81.1644 1250.09 122.103 1243.09C172.472 1234.56 225.639 1240.65 259.218 1274.77C323.578 1338.12 361.355 1427.07 467.689 1440.47C711.138 1470.93 923.806 1352.74 1109.89 1226.03C1283.56 1107.7 1399.06 964.073 1511.44 809.336" stroke="#9EA3D8" stroke-miterlimit="10"/>
<path d="M1275.69 1645.4C1355.38 1606.1 1433.94 1564.27 1511.37 1519.91" stroke="#9EA3D8" stroke-miterlimit="10"/>
<path d="M0.308594 798.882C27.4141 790.922 54.9939 784.243 82.9273 778.876C303.99 733.795 511.062 797.152 683.155 920.21C736.322 957.981 806.279 977.475 872.038 951.889C1151.86 843.451 1207.83 554.69 1298.77 325.63C1342.15 219.629 1402.31 116.065 1509.52 50.3325C1510.14 49.9791 1510.76 49.6136 1511.37 49.2725" stroke="#9EA3D8" stroke-miterlimit="10"/>
<path d="M0.308594 1362.03C44.9129 1363.25 88.3 1373.26 129.099 1396.61C269.012 1475.8 404.728 1551.34 578.22 1520.88C988.166 1449.48 1268.3 1227.08 1511.44 957.7" stroke="#9EA3D8" stroke-miterlimit="10"/>
<path d="M1081.53 1645.4C1142.52 1618.96 1203 1590.1 1263.75 1558.65C1352.17 1513.22 1433.26 1464.23 1511.4 1412.69" stroke="#9EA3D8" stroke-miterlimit="10"/>
<path d="M0.308594 1167.77L14.2999 1163.89C63.2695 1149.27 112.239 1134.65 159.81 1116.37C319.311 1056.67 385.07 1212.63 467.619 1299.13C601.935 1440.47 827.196 1318.63 975.504 1234.56C1237.49 1085.66 1382.65 864.578 1511.37 631.961" stroke="#9EA3D8" stroke-miterlimit="10"/>
<path d="M887.289 1645.4C1118.62 1562.21 1320.53 1441.5 1511.37 1303.93" stroke="#9EA3D8" stroke-miterlimit="10"/>
</svg>
