<svg width="174" height="119" viewBox="0 0 174 119" fill="none" xmlns="http://www.w3.org/2000/svg">
<g clip-path="url(#clip0_666_626)">
<path d="M120.406 39.1531H120.084C114.551 39.0175 109.281 35.5861 105.621 29.6551L98.97 18.9709C97.6482 16.8443 96.1062 15.675 94.6065 15.675C93.1068 15.675 91.5732 16.8443 90.2515 18.9709L83.6003 29.6551C79.9316 35.5861 74.6616 38.9752 69.1373 39.1192H68.5018C62.9691 39.0175 57.699 35.5861 54.0388 29.6551L47.3877 18.9709C46.0659 16.8443 44.49 15.675 43.0242 15.675C41.5584 15.675 39.9909 16.8443 38.6692 18.9709L32.0181 29.6551C28.3917 35.5861 23.0793 39.0175 17.555 39.1446H16.9196C11.3868 39.026 6.11676 35.5861 2.45652 29.6551L-4.19462 18.9709C-5.49942 16.8443 -7.06689 15.675 -8.5581 15.675C-10.0493 15.675 -11.5998 16.8443 -12.9131 18.9709L-23.5295 36.0605C-25.5969 39.3819 -29.6045 40.1444 -32.4768 37.7551C-33.8913 36.4739 -34.813 34.7381 -35.0823 32.8487C-35.3515 30.9593 -34.9513 29.0352 -33.951 27.4098L-23.2923 10.3202C-19.5981 4.29608 -14.2094 0.847656 -8.5581 0.847656C-2.90676 0.847656 2.45652 4.29608 6.22691 10.3202L12.878 21.0298C14.1744 23.1226 15.7079 24.2918 17.1737 24.3173H17.2924C18.7666 24.3173 20.2917 23.1226 21.5965 21.0298L28.2477 10.3202C31.9842 4.29608 37.3728 0.847656 43.0242 0.847656C48.6755 0.847656 54.0388 4.29608 57.8092 10.3202L64.4603 21.0298C65.7651 23.1226 67.2902 24.2918 68.7645 24.3173H68.8746C70.3489 24.3173 71.874 23.1226 73.1788 21.0298L79.83 10.3202C83.5665 4.30455 88.9551 0.847656 94.6065 0.847656C100.258 0.847656 105.621 4.29608 109.391 10.3202L116.043 21.0298C117.347 23.1226 118.873 24.2918 120.347 24.3173H120.465C121.931 24.3173 123.465 23.1226 124.761 21.0298L131.412 10.3202C135.149 4.29608 140.537 0.847656 146.163 0.847656C151.789 0.847656 157.178 4.29608 160.94 10.3202L171.582 27.4098C172.581 29.0347 172.982 30.9578 172.714 32.8468C172.447 34.7357 171.528 36.4718 170.116 37.7551C167.235 40.1444 163.228 39.3819 161.16 36.0605L150.552 18.9709C149.23 16.8443 147.688 15.675 146.197 15.675C144.706 15.675 143.156 16.8443 141.834 18.9709L135.149 29.6551C131.488 35.5861 126.218 38.9752 120.686 39.1192L120.406 39.1531Z" fill="#EFDC70" stroke="#231F20" stroke-width="2" stroke-miterlimit="10"/>
</g>
<g clip-path="url(#clip1_666_626)">
<path d="M72.4061 118.153H72.0841C66.5514 118.018 61.2813 114.586 57.6211 108.655L50.97 97.9709C49.6482 95.8443 48.1062 94.675 46.6065 94.675C45.1068 94.675 43.5732 95.8443 42.2515 97.9709L35.6003 108.655C31.9316 114.586 26.6616 117.975 21.1373 118.119H20.5018C14.9691 118.018 9.69904 114.586 6.0388 108.655L-0.612328 97.9709C-1.93408 95.8443 -3.51002 94.675 -4.97581 94.675C-6.4416 94.675 -8.00906 95.8443 -9.33082 97.9709L-15.9819 108.655C-19.6083 114.586 -24.9207 118.018 -30.445 118.145H-31.0804C-36.6132 118.026 -41.8832 114.586 -45.5435 108.655L-52.1946 97.9709C-53.4994 95.8443 -55.0669 94.675 -56.5581 94.675C-58.0493 94.675 -59.5998 95.8443 -60.9131 97.9709L-71.5295 115.061C-73.5969 118.382 -77.6045 119.144 -80.4768 116.755C-81.8913 115.474 -82.813 113.738 -83.0823 111.849C-83.3515 109.959 -82.9513 108.035 -81.951 106.41L-71.2923 89.3202C-67.5981 83.2961 -62.2094 79.8477 -56.5581 79.8477C-50.9068 79.8477 -45.5435 83.2961 -41.7731 89.3202L-35.122 100.03C-33.8256 102.123 -32.2921 103.292 -30.8263 103.317H-30.7076C-29.2334 103.317 -27.7083 102.123 -26.4035 100.03L-19.7523 89.3202C-16.0158 83.2961 -10.6272 79.8477 -4.97581 79.8477C0.675537 79.8477 6.03881 83.2961 9.8092 89.3202L16.4603 100.03C17.7651 102.123 19.2902 103.292 20.7645 103.317H20.8746C22.3489 103.317 23.874 102.123 25.1788 100.03L31.83 89.3202C35.5665 83.3046 40.9551 79.8477 46.6065 79.8477C52.2578 79.8477 57.6211 83.2961 61.3915 89.3202L68.0426 100.03C69.3474 102.123 70.8725 103.292 72.3468 103.317H72.4654C73.9312 103.317 75.4648 102.123 76.7611 100.03L83.4122 89.3202C87.1487 83.2961 92.5374 79.8477 98.1634 79.8477C103.789 79.8477 109.178 83.2961 112.94 89.3202L123.582 106.41C124.581 108.035 124.982 109.958 124.714 111.847C124.447 113.736 123.528 115.472 122.116 116.755C119.235 119.144 115.228 118.382 113.16 115.061L102.552 97.9709C101.23 95.8443 99.6884 94.675 98.1973 94.675C96.706 94.675 95.1555 95.8443 93.8338 97.9709L87.1487 108.655C83.4885 114.586 78.2184 117.975 72.6857 118.119L72.4061 118.153Z" fill="#F28C25" stroke="#231F20" stroke-width="2" stroke-miterlimit="10"/>
</g>
<defs>
<clipPath id="clip0_666_626">
<rect width="209.642" height="40" fill="white" transform="translate(-36)"/>
</clipPath>
<clipPath id="clip1_666_626">
<rect width="209.642" height="40" fill="white" transform="translate(-84 79)"/>
</clipPath>
</defs>
</svg>
